<svg xmlns="http://www.w3.org/2000/svg" fill="#002466" viewBox="0 0 24 24"><path d="M2.5 2.499h14v3.498H18V1H1v21.984h9v-1.499H2.5zm2.541 2.998h9v1.499h-9zm0 3.497H9.5v1.499H5.041zm15.281 5.869-.615-.229-.092-.216a1 1 0 0 0-.063-.118l-.52-.792a.74.74 0 0 0-.69-.336l-1.056.089-.919-.257a.76.76 0 0 0-.538.051l-1.131.566a.8.8 0 0 0-.262.218l-.376.496a.75.75 0 0 0-.149.514l.197 1.518a.75.75 0 0 0 .416.556l.916.439a.8.8 0 0 0 .186.061l.414.078.157.532.097 1.141a.76.76 0 0 0 .127.359l.389.571a.75.75 0 0 0 .28.246l.445.226a.75.75 0 0 0 .774-.057l.466-.331a.7.7 0 0 0 .178-.179l.707-1.001a.74.74 0 0 0 .128-.312l.21-1.321.028-.691.576-.602a.75.75 0 0 0-.28-1.22zM18.54 16.34l-.031.884-.173 1.061-.484.685-.08-.118-.086-1.021a1 1 0 0 0-.027-.149l-.309-1.045a.75.75 0 0 0-.581-.525L16 15.969l-.476-.228-.096-.729.098-.128.715-.358.771.216a.8.8 0 0 0 .266.025l.746-.063.237.362.191.451a.75.75 0 0 0 .291.341.75.75 0 0 0-.203.483zm-2.548-7.346c-3.87 0-7.008 3.135-7.008 7.003S12.122 23 15.992 23 23 19.865 23 15.997s-3.138-7.003-7.008-7.003M11.54 12.77a.7.7 0 0 0 .184.201l.521.35.044.079-.031.243-.957.308a.75.75 0 0 0-.51.585l-.09.515-.143.087a5.46 5.46 0 0 1 .981-2.366zm-.607 5.398.487.041a.8.8 0 0 0 .429-.093l.275-.153.262.47-.112.262-.212.037a.75.75 0 0 0-.495.321c-.027.041-.036.089-.055.133a5.5 5.5 0 0 1-.579-1.018m5.059 3.332a5.47 5.47 0 0 1-2.877-.819v-.413a.7.7 0 0 0-.018-.161l-.011-.049a.75.75 0 0 0 .405-.399l.417-.973a.75.75 0 0 0-.034-.659l-.604-1.085a.75.75 0 0 0-.384-.335l-.502-.195a.75.75 0 0 0-.637.044l-.431.24-.337-.029.549-.311a.75.75 0 0 0 .246-.225l.252-.364a.74.74 0 0 0 .123-.298l.04-.232.98-.316a.75.75 0 0 0 .515-.62l.121-.96a.75.75 0 0 0-.089-.458l-.251-.451a1 1 0 0 0-.063-.096l.104-.078a.75.75 0 0 0 .191-.986l-.129-.214a5.5 5.5 0 0 1 2.422-.568c3.037 0 5.508 2.469 5.508 5.504s-2.471 5.504-5.508 5.504z"/></svg>