<svg xmlns="http://www.w3.org/2000/svg" viewBox="0 0 24 24"><path fill="#002466" d="M13.49 15v-1.179c2.867-.676 5.01-3.25 5.01-6.321A6.51 6.51 0 0 0 12 1a6.51 6.51 0 0 0-6.5 6.5c0 3.07 2.143 5.645 5.01 6.321V15h.74v3.638a2.25 2.25 0 0 0-1.5 2.112C9.75 21.991 10.76 23 12 23s2.25-1.009 2.25-2.25c0-.976-.629-1.801-1.5-2.112V15zM12 21.5a.75.75 0 1 1 0-1.5.75.75 0 1 1 0 1.5m0-19c2.533 0 4.61 1.901 4.934 4.347H7.066C7.39 4.401 9.467 2.5 12 2.5M7.086 8.347h9.829C16.509 10.7 14.467 12.5 12 12.5s-4.509-1.8-4.914-4.153"/></svg>