<svg xmlns="http://www.w3.org/2000/svg" fill="#002466" viewBox="0 0 24 24"><path d="M21.758 15.746a2.3 2.3 0 0 0-.545-.967 9.6 9.6 0 0 0-.003-5.564 2.3 2.3 0 0 0 .545-.966 2.3 2.3 0 0 0-2.739-2.837A9.65 9.65 0 0 0 14.2 2.637C13.91 1.692 13.041 1 12.003 1s-1.903.689-2.195 1.63a9.5 9.5 0 0 0-4.819 2.783 2.3 2.3 0 0 0-2.513 1.085 2.3 2.3 0 0 0-.231 1.752 2.3 2.3 0 0 0 .545.966 9.6 9.6 0 0 0-.413 2.782 9.6 9.6 0 0 0 .41 2.784 2.3 2.3 0 0 0-.543.965 2.3 2.3 0 0 0 .23 1.752 2.31 2.31 0 0 0 2.003 1.153c.172 0 .344-.027.515-.067a9.54 9.54 0 0 0 4.816 2.783c.291.942 1.159 1.632 2.196 1.632s1.905-.69 2.196-1.632a9.54 9.54 0 0 0 4.811-2.783 2.3 2.3 0 0 0 .514.067 2.31 2.31 0 0 0 2.004-1.153 2.3 2.3 0 0 0 .23-1.752zm-2.637-8.794a.81.81 0 0 1 1.104.296.8.8 0 0 1 .081.614.8.8 0 0 1-.377.491.805.805 0 0 1-1.104-.295.81.81 0 0 1 .296-1.105zM12.003 2.5a.81.81 0 0 1 .809.809.81.81 0 0 1-.809.808.81.81 0 0 1-.809-.808.81.81 0 0 1 .809-.809M3.774 7.247a.81.81 0 0 1 .701-.403c.137 0 .276.035.403.108a.81.81 0 0 1 .296 1.104.803.803 0 0 1-1.104.295.8.8 0 0 1-.377-.49.8.8 0 0 1 .081-.614m1.479 9.306a.81.81 0 0 1-1.481.195.8.8 0 0 1-.081-.614.8.8 0 0 1 .377-.49.8.8 0 0 1 .403-.108.8.8 0 0 1 .21.027.8.8 0 0 1 .572.99m6.75 4.947a.81.81 0 0 1-.809-.809.81.81 0 0 1 .809-.809.81.81 0 0 1 .809.809.81.81 0 0 1-.809.809m5.296-4.559a2.3 2.3 0 0 0 .413.825 8.06 8.06 0 0 1-3.571 2.062 2.31 2.31 0 0 0-4.276.001 8.04 8.04 0 0 1-3.577-2.062 2.3 2.3 0 0 0 .413-.825 2.3 2.3 0 0 0-.23-1.752 2.3 2.3 0 0 0-1.402-1.076 2.3 2.3 0 0 0-.92-.055c-.175-.669-.273-1.357-.273-2.061s.096-1.403.274-2.078c.107.015.212.042.321.042a2.3 2.3 0 0 0 .601-.08 2.3 2.3 0 0 0 1.402-1.076 2.31 2.31 0 0 0-.187-2.578 8 8 0 0 1 3.577-2.063 2.31 2.31 0 0 0 4.278.005 8.15 8.15 0 0 1 3.568 2.062 2.31 2.31 0 0 0-.183 2.574 2.3 2.3 0 0 0 1.402 1.076 2.3 2.3 0 0 0 .601.08c.107 0 .211-.027.317-.042a8 8 0 0 1 .278 2.077c0 .705-.098 1.393-.273 2.062a2.3 2.3 0 0 0-.919.055 2.3 2.3 0 0 0-1.402 1.076 2.3 2.3 0 0 0-.23 1.752zm2.93-.193a.81.81 0 0 1-1.481-.195.8.8 0 0 1 .572-.99.8.8 0 0 1 .21-.027.804.804 0 0 1 .78.598.8.8 0 0 1-.081.614M8.197 10.715a1.4 1.4 0 0 0-.524-.339 2.1 2.1 0 0 0-1.363 0 1.4 1.4 0 0 0-.525.34 1.5 1.5 0 0 0-.33.534 2 2 0 0 0-.114.696 2 2 0 0 0 .114.696 1.5 1.5 0 0 0 .331.534 1.4 1.4 0 0 0 .524.339 1.9 1.9 0 0 0 .683.115 1.9 1.9 0 0 0 .681-.115 1.44 1.44 0 0 0 .524-.339 1.5 1.5 0 0 0 .331-.535 2 2 0 0 0 .112-.695 2 2 0 0 0-.112-.695 1.5 1.5 0 0 0-.331-.535zm-.723 1.837c-.119.133-.277.198-.482.198s-.368-.064-.487-.198-.181-.338-.181-.607.062-.481.182-.62.278-.203.486-.203a.6.6 0 0 1 .481.203q.182.21.183.62c.001.41-.062.473-.182.607m5.193-.411-.064-.812-.127-.861a.195.195 0 0 0-.194-.153h-.55a.2.2 0 0 0-.195.134l-.668 1.667-.668-1.666a.2.2 0 0 0-.195-.134H9.42a.19.19 0 0 0-.196.161l-.125.854-.064.813-.021.709-.003.536c0 .114.074.188.188.188h.581c.114 0 .188-.074.188-.188l.009-.656.019-.468.459 1.178a.2.2 0 0 0 .195.135h.403c.093 0 .164-.05.195-.135l.459-1.179.019.469.009.656c0 .114.074.188.188.188h.581c.114 0 .188-.074.188-.188l-.002-.536-.022-.71zm3.155-1.827h-.595c-.114 0-.188.074-.188.188v1.194l.001.105-.164-.258-.745-1.119a.2.2 0 0 0-.19-.111h-.536c-.114 0-.188.074-.188.188v2.884c0 .114.074.188.188.188H14c.114 0 .188-.074.188-.188v-1.294l.164.258.739 1.114c.038.071.105.11.191.11h.541c.114 0 .188-.074.188-.188v-2.884c0-.114-.074-.188-.188-.188zm2.416 3.073v-.488c0-.115-.074-.189-.188-.189h-.211v-1.566h.197c.114 0 .188-.074.188-.189v-.453c0-.114-.074-.188-.188-.188H16.67c-.114 0-.188.074-.188.188v.453c0 .115.074.189.188.189h.197v1.566h-.211c-.114 0-.188.074-.188.189v.488c0 .114.074.188.188.188h1.394c.114 0 .188-.074.188-.188"/></svg>