<svg xmlns="http://www.w3.org/2000/svg" viewBox="0 0 24 24"><path fill="#002466" d="M21.701 6.74a2.9 2.9 0 0 0-1.984-.46l-4.071-1.297a12.1 12.1 0 0 0-7.292 0l-4.07 1.296A2.905 2.905 0 0 0 1 9.167v4.055a2.91 2.91 0 0 0 1.795 2.693L4 16.417v.655l.339.222a13.97 13.97 0 0 0 15.322 0l.339-.222v-.655l1.205-.502h.001A2.91 2.91 0 0 0 23 13.222V9.167a2.91 2.91 0 0 0-1.299-2.427M4 14.792l-.628-.262a1.41 1.41 0 0 1-.872-1.308V9.167c0-.482.23-.912.63-1.18A1.4 1.4 0 0 1 4 7.75zm14.5 1.462a12.47 12.47 0 0 1-13 0V7.466l3.31-1.054a10.56 10.56 0 0 1 6.38 0l3.31 1.054zm3-3.032c0 .574-.342 1.087-.871 1.308l-.629.262V7.75c.306-.016.604.061.87.238.4.267.63.697.63 1.179z"/><path fill="#002466" d="m8.368 13.715-.736 1.308c1.347.757 2.857 1.136 4.368 1.136s3.02-.379 4.368-1.136l-.736-1.308a7.45 7.45 0 0 1-7.264 0m0-3.5-.736 1.308c1.347.757 2.857 1.136 4.368 1.136s3.02-.379 4.368-1.136l-.736-1.308a7.45 7.45 0 0 1-7.264 0"/></svg>