<svg xmlns="http://www.w3.org/2000/svg" viewBox="0 0 24 24"><path fill="#002466" d="M1 2v9c0 6.065 4.935 11 11 11s11-4.935 11-11V2zm20.5 6h-4.75V6.5h4.75zm-19-1.5h4.75V8H2.5zm.339 6.978a4.84 4.84 0 0 1 3.052-.263 4.8 4.8 0 0 1 2.936 2.06c.659 1.02.869 2.212.592 3.358-.113.471-.315.91-.58 1.315a9.53 9.53 0 0 1-6-6.47m7.493 6.866c.233-.431.43-.88.546-1.36.374-1.548.094-3.155-.79-4.523a6.3 6.3 0 0 0-3.845-2.705 6.35 6.35 0 0 0-3.692.225A10 10 0 0 1 2.5 11V9.5h6.25V5H2.5V3.5h19V5h-6.25v4.5h6.25V11q0 .49-.049.968a6.4 6.4 0 0 0-3.657-.21c-3.324.803-5.402 4.045-4.634 7.228.116.478.311.924.542 1.353A9.5 9.5 0 0 1 12 20.5c-.57 0-1.125-.059-1.668-.156m4.86-.408a4.2 4.2 0 0 1-.573-1.303c-.575-2.378 1.007-4.809 3.527-5.417a4.84 4.84 0 0 1 3.018.249 9.53 9.53 0 0 1-5.972 6.472z"/></svg>