<svg xmlns="http://www.w3.org/2000/svg" viewBox="0 0 24 24"><path fill="#002466" d="M18.75 1H5.25C4.01 1 3 2.009 3 3.25S4.01 5.5 5.25 5.5h6V7c0 .14-.26.303-.627.517-.547.318-1.373.799-1.373 1.813s.826 1.495 1.372 1.814c.368.214.628.377.628.518s-.26.304-.628.518c-.546.319-1.372.8-1.372 1.814s.826 1.496 1.372 1.814c.368.214.628.377.628.519s-.261.306-.629.521c-.546.319-1.371.801-1.371 1.815s.825 1.497 1.372 1.816c.367.215.628.378.628.521v2h1.5v-2c0-1.015-.825-1.497-1.372-1.816-.367-.215-.628-.378-.628-.521s.261-.306.628-.521c.547-.319 1.372-.801 1.372-1.816s-.826-1.496-1.372-1.814c-.368-.214-.628-.377-.628-.519s.26-.304.628-.518c.546-.319 1.372-.8 1.372-1.814s-.826-1.495-1.372-1.814c-.368-.214-.628-.377-.628-.518s.26-.303.628-.517c.546-.318 1.372-.799 1.372-1.812V5.5h6C19.99 5.5 21 4.491 21 3.25S19.99 1 18.75 1m0 3H5.25a.75.75 0 1 1 0-1.5h13.5a.75.75 0 1 1 0 1.5"/></svg>