<svg xmlns="http://www.w3.org/2000/svg" viewBox="0 0 24 24"><path fill="#002466" d="m23.03 21.97-7.535-7.535 6.577-6.577c.614-.614.952-1.43.952-2.298s-.338-1.684-.952-2.298l-1.333-1.333c-1.227-1.228-3.367-1.229-4.596 0L9.567 8.506 2.03.97.97 2.03l7.536 7.536-7.505 7.505V23H6.93l7.505-7.505 7.535 7.535zM17.204 2.99c.663-.662 1.815-.66 2.475 0l1.333 1.333c.331.331.513.77.513 1.237s-.182.907-.513 1.238l-1.527 1.527-3.808-3.808zm-2.587 2.587 3.808 3.808-3.989 3.989-3.808-3.808zM6.309 21.5H2.501v-3.808l7.066-7.066 3.808 3.808z"/></svg>