<svg xmlns="http://www.w3.org/2000/svg" viewBox="0 0 24 24"><g fill="#002466"><path d="M21.75 14.75v-9.5H2.25v9.5H1v1.5h.792c0 1.378 1.121 2.5 2.5 2.5a2.5 2.5 0 0 0 1.75-.719 2.5 2.5 0 0 0 1.75.719c1.379 0 2.5-1.122 2.5-2.5h3.458c0 1.378 1.121 2.5 2.5 2.5a2.5 2.5 0 0 0 1.75-.719 2.5 2.5 0 0 0 1.75.719c1.379 0 2.5-1.122 2.5-2.5H23v-1.5zm-17.458 2.5a1 1 0 0 1-1-1h2a1 1 0 0 1-1 1m3.5 0a1 1 0 0 1-1-1h2a1 1 0 0 1-1 1m8.458 0a1 1 0 0 1-1-1h2a1 1 0 0 1-1 1m-12.5-2.5v-8h16.5v8zm16 2.5a1 1 0 0 1-1-1h2a1 1 0 0 1-1 1"/><use href="#a"/><use x="-3" href="#a"/><use x="6" href="#a"/><use x="3" href="#a"/></g><defs><path id="a" d="M9.75 8.25h1.5v5h-1.5z"/></defs></svg>