<svg xmlns="http://www.w3.org/2000/svg" fill="#002466" viewBox="0 0 24 24"><path d="M23 6.25v-2A3.254 3.254 0 0 0 19.75 1H4.25A3.254 3.254 0 0 0 1 4.25v2a3.23 3.23 0 0 0 1.199 2.5A3.23 3.23 0 0 0 1 11.25V13a3.23 3.23 0 0 0 1.199 2.5A3.23 3.23 0 0 0 1 18v1.75A3.254 3.254 0 0 0 4.25 23h15.5A3.254 3.254 0 0 0 23 19.75V18a3.23 3.23 0 0 0-1.199-2.5A3.23 3.23 0 0 0 23 13v-1.75a3.23 3.23 0 0 0-1.199-2.5A3.23 3.23 0 0 0 23 6.25M19.75 9.5c.965 0 1.75.785 1.75 1.75V13c0 .965-.785 1.75-1.75 1.75H18v1.5h1.75c.965 0 1.75.785 1.75 1.75v1.75c0 .965-.785 1.75-1.75 1.75H4.25c-.965 0-1.75-.785-1.75-1.75V18c0-.965.785-1.75 1.75-1.75H6v-1.5H4.25c-.965 0-1.75-.785-1.75-1.75v-1.75c0-.965.785-1.75 1.75-1.75H6V8H4.25C3.285 8 2.5 7.215 2.5 6.25v-2c0-.965.785-1.75 1.75-1.75h15.5c.965 0 1.75.785 1.75 1.75v2c0 .965-.785 1.75-1.75 1.75H18v1.5zM12 6.875a5.2 5.2 0 0 0-3.75 1.586v-.836h-1.5v3.494h3.5v-1.5H9.218A3.72 3.72 0 0 1 12 8.375a3.755 3.755 0 0 1 3.75 3.75h1.5A5.26 5.26 0 0 0 12 6.875m1.75 7.756h1.032A3.72 3.72 0 0 1 12 15.875a3.755 3.755 0 0 1-3.75-3.75h-1.5a5.26 5.26 0 0 0 5.25 5.25 5.2 5.2 0 0 0 3.75-1.586v.836h1.5v-3.494h-3.5z"/></svg>