<svg xmlns="http://www.w3.org/2000/svg" viewBox="0 0 24 24"><path fill="#002466" d="m21.578 10.5-.854-1.495L19.656 1h-3.312l-1.068 8.006-.278.489-.28-.49L13.65 1h-3.312L9.27 9.006l-.275.484-.277-.485L7.65 1H4.338L3.27 9.006 2.421 10.5H2V23h20V10.5zm-4.853-1.006.932-6.994h.688l.933 6.995.574 1.005h-.315l-1 2h-1.072l-1-2h-.311zm-6.006 0L11.65 2.5h.688l.933 6.995.574 1.005h-.309l-1 2h-1.072l-1-2h-.317zm-6 0L5.65 2.5h.688l.933 6.995.574 1.005h-.309l-1 2H5.464l-1-2h-.317zM5.208 21.5l.333-1h1.418l.333 1zm5.75 0 .333-1h1.418l.333 1zm5.75 0 .333-1h1.418l.333 1h-2.085zm3.792 0h-.126l-.833-2.5h-3.582l-.833 2.5h-.501l-.833-2.5H10.21l-.833 2.5h-.501L8.041 19H4.459l-.833 2.5H3.5V12h.036l1 2h2.928l1-2h1.072l1 2h2.928l1-2h1.072l1 2h2.928l.875-1.75h.161z"/></svg>