<svg xmlns="http://www.w3.org/2000/svg" fill="#002466" viewBox="0 0 24 24"><path d="M12 1C5.925 1 1 5.925 1 12s4.925 11 11 11 11-4.925 11-11S18.075 1 12 1m0 20.5c-5.238 0-9.5-4.262-9.5-9.5S6.762 2.5 12 2.5s9.5 4.262 9.5 9.5-4.262 9.5-9.5 9.5M7.629 8.286l.855.255q.165.05.206-.124.074-.304.222-.477c.148-.173.238-.173.42-.173q.255 0 .361.169c.106.169.107.253.107.423q0 .378-.186.687a4 4 0 0 1-.514.662l-1.391 1.497a.27.27 0 0 0-.082.197v.749q0 .165.165.165h3.331q.164 0 .164-.165v-.905q0-.164-.164-.165H9.471v-.033l.666-.683.366-.395a4 4 0 0 0 .357-.485 3 3 0 0 0 .276-.584 2.1 2.1 0 0 0 .11-.691 1.8 1.8 0 0 0-.119-.662 1.5 1.5 0 0 0-.35-.531 1.65 1.65 0 0 0-.567-.35 2.2 2.2 0 0 0-.773-.127q-.337 0-.638.086a1.7 1.7 0 0 0-.547.271 1.9 1.9 0 0 0-.439.477 2.3 2.3 0 0 0-.301.711q-.04.156.115.198zm6.654 4.129a2.2 2.2 0 0 0 .831-.16q.403-.16.712-.514c.309-.354.371-.54.497-.913s.189-.823.189-1.349-.063-.976-.189-1.349-.292-.677-.497-.913-.443-.407-.712-.514a2.23 2.23 0 0 0-1.662 0 1.8 1.8 0 0 0-.711.514 2.7 2.7 0 0 0-.498.913q-.188.56-.188 1.349c0 .789.063.976.188 1.349s.292.677.498.913a1.84 1.84 0 0 0 .711.514 2.2 2.2 0 0 0 .831.16M13.72 8.15q.219-.399.563-.399c.344 0 .418.133.563.399s.218.709.218 1.328q0 .47-.058.79c-.058.32-.092.388-.16.522a.7.7 0 0 1-.247.292.6.6 0 0 1-.316.09.6.6 0 0 1-.316-.09.7.7 0 0 1-.247-.292 2 2 0 0 1-.16-.522 4.6 4.6 0 0 1-.058-.79q0-.93.218-1.328m-5.302 7.227.946-1.231q.028-.04.014-.068c-.014-.028-.029-.028-.062-.028h-.618a.12.12 0 0 0-.096.048l-.822 1.139V14.13a.07.07 0 0 0-.08-.081h-.537a.07.07 0 0 0-.08.081v2.606q0 .08.08.08H7.7q.08 0 .08-.08v-1.147l.814 1.175a.11.11 0 0 0 .096.052h.682q.049 0 .064-.028c.015-.028.005-.041-.017-.068z"/><path d="M12.427 14.946a.5.5 0 0 0-.2-.126.8.8 0 0 0-.253-.04.6.6 0 0 0-.221.034.6.6 0 0 0-.156.084.5.5 0 0 0-.102.106.6.6 0 0 0-.055.096h-.02q-.08-.168-.227-.245c-.147-.077-.212-.076-.343-.076a.6.6 0 0 0-.201.032.5.5 0 0 0-.144.08.5.5 0 0 0-.097.1.5.5 0 0 0-.052.092h-.017a.5.5 0 0 0-.044-.096.3.3 0 0 0-.076-.088.4.4 0 0 0-.116-.066.5.5 0 0 0-.164-.026l-.196.008-.152.02q-.069.012-.068.084v.333q0 .08.08.08h.12v1.403q0 .08.08.08h.501q.08 0 .08-.08v-1.283a.4.4 0 0 1 .091-.08.24.24 0 0 1 .143-.04q.116 0 .166.062c.05.062.05.108.05.199v1.143a.07.07 0 0 0 .08.08h.502a.07.07 0 0 0 .08-.08v-1.291a.5.5 0 0 1 .098-.078.24.24 0 0 1 .131-.034q.22 0 .22.261v1.143a.07.07 0 0 0 .081.08h.501a.07.07 0 0 0 .08-.08v-1.251a1 1 0 0 0-.048-.319.6.6 0 0 0-.133-.22zm2.226-1.217h-.401a.09.09 0 0 0-.092.064l-1.211 3.572q-.016.044.002.068c.018.024.033.024.063.024h.405a.09.09 0 0 0 .092-.064l1.207-3.572q.016-.044-.002-.068c-.018-.024-.033-.024-.062-.024zm2.089 1.233a.54.54 0 0 0-.21-.138.8.8 0 0 0-.259-.044.7.7 0 0 0-.321.072.47.47 0 0 0-.204.192h-.016v-.995a.07.07 0 0 0-.08-.08h-.502a.07.07 0 0 0-.08.08v2.687a.07.07 0 0 0 .08.08h.502a.07.07 0 0 0 .08-.08v-1.267a.5.5 0 0 1 .105-.09.3.3 0 0 1 .175-.046q.137 0 .198.078c.061.078.063.134.063.247v1.079q0 .08.08.08h.501q.08 0 .08-.08V15.55q0-.204-.052-.349c-.052-.145-.082-.176-.141-.239z"/></svg>