<svg xmlns="http://www.w3.org/2000/svg" viewBox="0 0 24 24"><path fill="#002466" d="M12.983 6.831v-5.14H9.49v-.68h-1.5v.68H5.994v-.68h-1.5v.68H1v13.572h9.227v-1.5H2.5V6.527h8.983v.304zM2.5 5.027V3.191h1.994v.68h1.5v-.68H7.99v.68h1.5v-.68h1.994v1.836z"/><path fill="#002466" d="M20.2 8.009v-2.2h-5.9v2.2h-2.8v12.7H23v-12.7zm-4.4-.7h2.9v.7h-2.9zm5.7 11.9H13v-9.7h1.3v6.702h1.5V9.51h2.9v6.702h1.5V9.51h1.3zm-2.052 2.079a.85.85 0 1 0 0 1.7.85.85 0 0 0 0-1.7m-4.398 0a.85.85 0 1 0 0 1.7.85.85 0 0 0 0-1.7"/></svg>