<svg xmlns="http://www.w3.org/2000/svg" viewBox="0 0 24 24"><path fill="#002466" d="M15.83 10.704a5.6 5.6 0 0 0 1.244-.133c2.33-.536 3.983-2.105 4.213-3.996.116-.959-.188-1.762-.837-2.202-.633-.43-1.497-.423-2.314.02l-.658.374c-.832.484-1.251.713-1.746.603-.21-.046-.365-.48-.596-1.191a13 13 0 0 0-.64-1.68C13.643.73 11.69.877 10.76 1.206a2.85 2.85 0 0 0-1.584 1.327c-.51.913-.56 2.087-.146 3.49.935 3.17 4.225 4.684 6.798 4.684zm-4.628-8.067.043-.014c.146-.05 1.425-.464 1.9.525.251.523.418 1.038.564 1.492.313.962.635 1.957 1.698 2.193 1.085.24 1.93-.25 2.824-.77l.62-.353c.308-.167.598-.204.755-.097.163.11.236.41.191.781-.125 1.03-1.12 2.268-3.061 2.714-1.712.394-5.37-.466-6.268-3.513-.717-2.43.578-2.912.73-2.96zM3.319 4.323l-.637-.284-.33.614c-.107.2-2.613 4.978-.526 11.094 1.314 3.85 3.285 4.778 4.88 4.778a4.7 4.7 0 0 0 1.515-.263c1.623-.555 4.079-2.263 2.298-7.483-2.088-6.116-6.991-8.364-7.2-8.457zm4.416 14.52c-.725.246-2.925 1.001-4.49-3.58a13.67 13.67 0 0 1 .127-9.203 13.67 13.67 0 0 1 5.727 7.205c1.563 4.579-.64 5.33-1.363 5.578m14.63-.13c.131-.755.194-1.77-.088-2.838-.546-2.065-2.96-3.649-3.062-3.716l-.22-.142-.26.024c-.121.011-2.994.299-4.433 1.877-.747.818-1.162 1.752-1.395 2.487l-.584-.234-.217.87c-.687 2.754.833 4.82 4.17 5.666l.193.05q1.047.244 1.949.243c2.283 0 3.835-1.167 4.366-3.375l.214-.874-.636-.038zm-6.953-3.783c.774-.848 2.388-1.24 3.204-1.36.668.484 1.917 1.58 2.211 2.689.24.908.15 1.795.022 2.405-.505-.002-.973.009-1.331.024-.127-.677-.475-1.603-1.412-2.097l-.165-.088h-.187c-1.063.006-1.803.67-2.228 1.212l-1.245-.666c.166-.586.495-1.42 1.132-2.119m1.363 6.357-.115-.028-.013-.003c-2.09-.53-3.16-1.512-3.19-2.943l1.927 1.053.706.415.356-.737c.004-.01.429-.873 1.12-1.018.548.448.524 1.41.524 1.417l-.036.84.838-.06 2.11-.06c-.679 1.247-2.088 1.63-4.227 1.123z"/></svg>