<svg xmlns="http://www.w3.org/2000/svg" viewBox="0 0 24 24"><path fill="#002466" d="m20.796 16.07-.39.24c-.004.002-.173.102-.426.215a21.5 21.5 0 0 1 2.318-4.439l.852-1.187h-3.4V7.375h-12v3.523H5.442V9.655H6.75v-4.03H1v7.743a6.27 6.27 0 0 0 .951 3.192c-.29.094-.623.169-.951.169v1.5c.879 0 1.723-.331 2.197-.557.475.232 1.322.572 2.205.572s1.724-.337 2.199-.569c.476.233 1.315.57 2.198.57.875 0 1.726-.331 2.199-.553.473.222 1.323.553 2.198.553.867 0 1.704-.278 2.168-.464.468.231 1.332.586 2.233.586.88 0 1.725-.337 2.2-.569.476.233 1.315.57 2.198.57v-1.5c-.867 0-1.799-.556-1.808-.562l-.394-.237zM16.25 8.875h2v2h-2zm-3.5 0h2v2h-2zm-3.5 0h2v2h-2zM2.5 7.125h2.75v1.03H3.942v2.743H2.5zm13.936 8.967-.373.186c-.01.004-.951.468-1.865.468-.875 0-1.811-.538-1.819-.543l-.381-.219-.376.219c-.01.005-.946.543-1.821.543-.867 0-1.798-.556-1.807-.562l-.393-.235-.389.236c-.009.005-.93.559-1.81.559s-1.801-.554-1.809-.558l-.088-.053c-.566-.536-1.015-1.855-1.006-2.759v-.977h17.816c-.61 1.024-1.449 2.623-2.031 4.447-.772-.102-1.487-.532-1.494-.536l-.356-.218z"/></svg>