<svg xmlns="http://www.w3.org/2000/svg" fill="#002466" viewBox="0 0 24 24"><path d="M15.665 10.965c.872-.754 1.401-1.876 1.401-3.235 0-2.647-2.857-6.73-6.654-6.73H7.438a4.98 4.98 0 0 0-4.971 4.971V23h1.5V5.971A3.475 3.475 0 0 1 7.438 2.5h2.974c2.978 0 5.154 3.439 5.154 5.23 0 1.668-1.077 2.745-2.745 2.745a2.75 2.75 0 0 1-2.745-2.745h-1.5a4.25 4.25 0 0 0 4.234 4.245v.001c3.982 0 7.223 3.241 7.223 7.223 0 .751-.114 1.49-.341 2.199a7 7 0 0 1-.332.851l1.359.634a9 9 0 0 0 .402-1.029 8.7 8.7 0 0 0 .411-2.655c0-3.809-2.458-7.048-5.868-8.234zm-3.466 3.599-.285.285-.293-.292c-1.049-1.05-2.881-1.051-3.934 0a2.8 2.8 0 0 0-.007 3.955l4.233 4.234 4.232-4.233c.527-.527.818-1.228.818-1.974s-.291-1.447-.818-1.974c-1.055-1.055-2.893-1.055-3.947 0zm2.887 2.887-3.172 3.173-3.173-3.173a1.3 1.3 0 0 1 .007-1.834c.242-.242.564-.376.906-.376a1.27 1.27 0 0 1 .906.376l1.354 1.353 1.346-1.346c.488-.488 1.338-.488 1.826 0 .244.244.379.568.379.913s-.135.669-.379.913z"/></svg>