<svg xmlns="http://www.w3.org/2000/svg" fill="#002466" viewBox="0 0 24 24"><path d="M8.612 11.638A3.39 3.39 0 0 0 12 15.025a3.39 3.39 0 0 0 3.388-3.388A3.39 3.39 0 0 0 12 8.25a3.39 3.39 0 0 0-3.388 3.388M12 9.75a1.89 1.89 0 0 1 1.888 1.888A1.89 1.89 0 0 1 12 13.525a1.89 1.89 0 0 1-1.888-1.888A1.89 1.89 0 0 1 12 9.75m2.029 6.819H9.971a4 4 0 0 0-3.996 3.997V23h1.5v-2.435a2.5 2.5 0 0 1 2.496-2.497h4.059a2.5 2.5 0 0 1 2.496 2.497V23h1.5v-2.435a4 4 0 0 0-3.996-3.997zm2.946-8.794a3.39 3.39 0 0 0 3.388-3.388A3.39 3.39 0 0 0 16.975 1a3.39 3.39 0 0 0-3.388 3.388 3.39 3.39 0 0 0 3.388 3.388zm0-5.275a1.89 1.89 0 0 1 1.888 1.888 1.89 1.89 0 0 1-1.888 1.888 1.89 1.89 0 0 1-1.888-1.888A1.89 1.89 0 0 1 16.975 2.5m2.029 6.819H16.75v1.5h2.254a2.5 2.5 0 0 1 2.496 2.497v2.435H23v-2.435a4 4 0 0 0-3.996-3.997M7.025 7.775a3.39 3.39 0 0 0 3.388-3.388A3.39 3.39 0 0 0 7.025 1a3.39 3.39 0 0 0-3.388 3.388 3.39 3.39 0 0 0 3.388 3.388zm0-5.275a1.89 1.89 0 0 1 1.888 1.888 1.89 1.89 0 0 1-1.888 1.888 1.89 1.89 0 0 1-1.888-1.888A1.89 1.89 0 0 1 7.025 2.5m.225 6.819H4.996A4 4 0 0 0 1 13.315v2.435h1.5v-2.435a2.5 2.5 0 0 1 2.496-2.497H7.25v-1.5z"/></svg>