<svg xmlns="http://www.w3.org/2000/svg" fill="#002466" viewBox="0 0 24 24"><path d="M19.998 5.873a2.253 2.253 0 0 0-2.25 2.25v1.963c-.85.932-2.148 2.528-3.12 4.514q-.569-1.194-1.419-2.408l-1.229.861c.909 1.295 1.551 2.567 1.906 3.78l.678 2.312.754-2.288c.831-2.519 2.499-4.618 3.51-5.73h1.924c1.24 0 2.25-1.009 2.25-2.25V5.873zm1.504 3.004a.75.75 0 0 1-.75.75h-1.504V8.123a.75.75 0 0 1 .75-.75h1.504zm-11 1.286V6.911H7.25c-.264 0-.514.054-.75.138v-.176c0-1.241-1.01-2.25-2.25-2.25H.998v3.252c0 1.241 1.01 2.25 2.25 2.25H5v2.289h.002v6.964h1.5v-6.964h1.75c1.24 0 2.25-1.009 2.25-2.25zM5 8.625H3.248a.75.75 0 0 1-.75-.75V6.123H4.25a.75.75 0 0 1 .75.75zm4.002 1.539a.75.75 0 0 1-.75.75h-1.75V9.627H6.5v-.466a.75.75 0 0 1 .75-.75h1.752zm8 6.459h1.5v2.75h-1.5zm-7.5 0h1.5v2.75h-1.5zm-7.5-.25h1.5v3h-1.5zm18-1h1.5v4h-1.5z"/></svg>