<svg xmlns="http://www.w3.org/2000/svg" fill="#002466" viewBox="0 0 24 24"><path d="M14.164 9.968 12.637 7.32l-2.357.218-.192-.111-.991-2.153H6.063l-.99 2.153-.192.111-2.358-.218L1 9.967l1.406 1.893.002.286L1 14.035l1.524 2.645 2.356-.218.197.114.987 2.149h3.035l.986-2.149.198-.115 2.355.218 1.525-2.645-1.41-1.892v-.289l1.412-1.886zm-1.792 4.172-.552.958-1.877-.174-1.021.594-.783 1.708H7.023l-.784-1.707-1.02-.595-1.878.174-.551-.958 1.117-1.501-.006-1.28-1.113-1.497.553-.96 1.876.174 1.017-.588.789-1.713h1.115l.79 1.713 1.017.588 1.875-.174.552.959-1.117 1.494v1.287zM7.58 9.424a2.576 2.576 0 0 0 0 5.152A2.58 2.58 0 0 0 10.152 12 2.577 2.577 0 0 0 7.58 9.424m0 3.651a1.075 1.075 0 0 1 0-2.152 1.077 1.077 0 0 1 0 2.152m12.176-4.324-1.059 1.061 1.436 1.438h-5.618v1.5h5.618l-1.436 1.438 1.059 1.061L23 12z"/></svg>