<svg xmlns="http://www.w3.org/2000/svg" fill="#002466" viewBox="0 0 24 24"><path d="M12.199 1h-.398a8.88 8.88 0 0 0-8.868 8.866 8.83 8.83 0 0 0 2.415 6.082L12 23l6.652-7.053a8.83 8.83 0 0 0 2.415-6.082A8.88 8.88 0 0 0 12.199 1m5.361 13.918L12 20.814l-5.561-5.896a7.34 7.34 0 0 1-2.007-5.053A7.38 7.38 0 0 1 11.8 2.499h.398a7.38 7.38 0 0 1 7.368 7.366 7.34 7.34 0 0 1-2.007 5.053zM12 5.557a4.54 4.54 0 0 0-4.532 4.531A4.54 4.54 0 0 0 12 14.619a4.54 4.54 0 0 0 4.532-4.531A4.54 4.54 0 0 0 12 5.557m0 7.562c-1.672 0-3.032-1.36-3.032-3.032s1.36-3.03 3.032-3.03 3.032 1.36 3.032 3.031S13.672 13.12 12 13.12z"/></svg>