<svg xmlns="http://www.w3.org/2000/svg" viewBox="0 0 24 24"><path fill="#002466" d="M18.5 4.72V1h-13v3.72L4 23c1.178 0 1.794-.308 2.337-.579.471-.235.843-.421 1.667-.421s1.195.186 1.666.421c.543.271 1.159.579 2.337.579s1.792-.308 2.335-.58c.47-.235.841-.42 1.662-.42s1.192.186 1.662.421c.543.271 1.158.579 2.334.579zm-1.288 2.53H16.5a.92.92 0 0 1-.917-.917V5.5h1.479zM7 2.5h10V4H7zm-.062 3H8.5v.833a.92.92 0 0 1-.917.917h-.795zm11.4 15.579c-.543-.271-1.158-.579-2.334-.579s-1.791.308-2.334.579c-.47.235-.841.421-1.663.421s-1.196-.186-1.667-.421c-.543-.271-1.158-.579-2.336-.579s-1.794.308-2.337.579l-.067.032L6.66 8.75h.923A2.42 2.42 0 0 0 10 6.334V5.5h4.083v.833A2.42 2.42 0 0 0 16.5 8.75h.84l1.06 12.359z"/></svg>