<svg xmlns="http://www.w3.org/2000/svg" fill="#002466" viewBox="0 0 24 24"><path d="M18.033 23H23L21.861 4.884a3.244 3.244 0 0 0-2.621-2.986l-4.578-.884L9.534 1l-4.738.899A3.245 3.245 0 0 0 2.174 4.88L1 23h5.004l.032-.75h11.965zM12.105 4.25H12.1c-.989-.002-2.021-.55-2.322-1.75h4.651c-.303 1.203-1.335 1.75-2.324 1.75m-7.066 6.218L4.571 21.5H2.595l1.07-16.523a1.75 1.75 0 0 1 1.413-1.605l3.233-.622c.367 1.693 1.628 2.631 2.959 2.905V20.75H6.1l.433-10.218zm7.727 10.282V5.696c1.383-.224 2.732-1.169 3.124-2.918l3.066.592a1.75 1.75 0 0 1 1.412 1.608L21.407 21.5h-1.941l-.468-11.032-1.494.063.433 10.218zM7.033 17h2.991v1.5H7.033zm6.98 0h2.991v1.5h-2.991z"/></svg>