<svg xmlns="http://www.w3.org/2000/svg" viewBox="0 0 24 24"><path fill="#002466" d="M16.184 11.884c1.24-.773 2.609-2.397 2.094-5.74-.64-4.148-4.561-4.917-7.905-5.124-2.521-.155-4.813.603-6.45 2.139-1.915 1.797-2.886 4.519-2.886 8.091 0 3.455 1.221 10.304 5.839 11.5a7.5 7.5 0 0 0 1.866.25c1.213 0 2.272-.353 3.079-1.043 1.009-.862 1.507-2.166 1.366-3.579-.22-2.203-.169-4.52 2.997-6.494m-4.489 6.642c.091.92-.219 1.755-.85 2.294-.816.698-2.092.868-3.593.48-3.436-.89-4.716-6.637-4.716-10.051 0-3.143.812-5.498 2.413-7 1.215-1.14 2.896-1.752 4.779-1.752q.275 0 .55.017c4.191.259 6.14 1.413 6.517 3.858.318 2.065-.142 3.453-1.406 4.242-3.709 2.314-3.968 5.17-3.694 7.912m-5.499-8.77c-1.196.257-1.959.912-2.146 1.845-.589 2.941.73 7.626 2.939 8.571a3.9 3.9 0 0 0 1.536.34c.633 0 1.199-.193 1.63-.572.61-.536.835-1.344.601-2.159-.398-1.392-.146-3.037.673-4.4.437-.727.418-1.519-.051-2.173-.939-1.31-3.486-1.814-5.183-1.451zm3.946 2.855c-1.028 1.712-1.338 3.799-.827 5.582.072.253.019.475-.15.624-.243.214-.786.32-1.583-.02-1.252-.537-2.575-4.331-2.061-6.902.084-.42.656-.603.99-.675 1.388-.298 3.197.231 3.646.858.088.122.152.254-.016.532zm5.379-4.709c.332-1.656-1.14-3.5-3.279-4.111-.517-.147-3.207-.815-5.47.51-1.258.737-2.088 1.925-2.467 3.532-.11.47-.029.839.24 1.096.43.408.985.25 1.571.082 1.1-.313 2.761-.789 4.688.816.484.403 1.04.608 1.619.608.3-.001.599-.054.882-.155 1.171-.413 2.046-1.533 2.215-2.378zm-1.471-.293c-.07.352-.603 1.033-1.244 1.259a.98.98 0 0 1-1.04-.191c-1.388-1.154-2.728-1.474-3.844-1.474-.777 0-1.447.155-1.949.293.324-.848.847-1.486 1.559-1.903 1.345-.79 3.155-.688 4.298-.362 1.46.416 2.377 1.599 2.221 2.377zm4.414 8.842-.525 1.509-1.6.033 1.275.965-.463 1.53 1.313-.913 1.313.912-.463-1.529 1.275-.965-1.6-.033zm0-2.475c-2.481 0-4.5 2.015-4.5 4.492a4.501 4.501 0 0 0 9 0 4.5 4.5 0 0 0-4.5-4.492m0 7.486a3 3 0 1 1 3-3v.006a3 3 0 0 1-3 2.994"/></svg>