<svg xmlns="http://www.w3.org/2000/svg" fill="#002466" viewBox="0 0 24 24"><path d="M17.026 12.007H6.974v4.25h10.052zm-1.5 2.75H8.474v-1.25h7.052zm-7.612-6.52.057-.086a2.3 2.3 0 0 0 .302-1.133v-.733A3.49 3.49 0 0 0 6.54 3.259V1.243H2.96v2.016a3.49 3.49 0 0 0-1.732 3.026v.733a2.3 2.3 0 0 0 .302 1.133l.057.086a.65.65 0 0 1 .016.771H1v13.75h22V9.007H7.898a.65.65 0 0 1 .016-.771zm-5.102-.865a.8.8 0 0 1-.085-.354v-.733a2 2 0 0 1 1.261-1.863l.472-.188v-1.49h.58v1.49l.471.189a2 2 0 0 1 1.262 1.863v.733a.8.8 0 0 1-.085.354c-.351.483-.452 1.073-.353 1.636H3.166c.099-.562-.002-1.153-.353-1.636zM21.5 21.257h-19v-10.75h19z"/></svg>