<svg xmlns="http://www.w3.org/2000/svg" fill="#002466" viewBox="0 0 24 24"><path d="M18.25 8.716h2.29v1.5h-2.29zm2-7.217H8.67a2.75 2.75 0 0 0-2.75 2.75v4.5h1.5V5.665H21.5v4.084a1.25 1.25 0 0 1-1.25 1.25h-2v1.5h2A2.75 2.75 0 0 0 23 9.749v-5.5a2.75 2.75 0 0 0-2.75-2.75m-11.58 1.5h11.58c.659 0 1.187.518 1.233 1.166H7.437A1.243 1.243 0 0 1 8.67 2.999M1 19.498h4.812v-1.5H2.5v-6.499h10.157v6.499h-.486v1.5h4.813V9.999H1zm14.483-1.5h-1.326v-6.499h1.326zM4.98 16.211h.552a.12.12 0 0 0 .132-.132v-2.661a.12.12 0 0 0-.132-.132h-.396a.3.3 0 0 0-.113.024l-.713.29c-.076.025-.105.086-.081.165l.131.394c.025.075.088.104.167.08l.322-.122v1.962a.12.12 0 0 0 .132.132zm2.227.049a1.2 1.2 0 0 0 .432-.084.95.95 0 0 0 .373-.27 1.4 1.4 0 0 0 .258-.471q.097-.287.096-.687c-.001-.4-.032-.498-.096-.687s-.151-.349-.258-.471a1 1 0 0 0-.373-.27 1.16 1.16 0 0 0-.864 0 .95.95 0 0 0-.372.269 1.4 1.4 0 0 0-.259.471q-.095.286-.096.688c-.001.402.032.498.096.688s.152.351.258.471a1 1 0 0 0 .373.27q.211.085.433.084zm-.34-1.511q0-.449.103-.637.094-.174.237-.173c.143.001.173.057.235.173q.103.187.104.637a2.3 2.3 0 0 1-.028.384 1 1 0 0 1-.076.246.3.3 0 0 1-.104.126.25.25 0 0 1-.263 0 .3.3 0 0 1-.104-.126 1 1 0 0 1-.076-.246 2.3 2.3 0 0 1-.027-.384zm2.487 1.428a1.16 1.16 0 0 0 .864 0 1 1 0 0 0 .373-.27 1.4 1.4 0 0 0 .256-.471q.098-.285.098-.687a2.1 2.1 0 0 0-.097-.687 1.4 1.4 0 0 0-.257-.471 1 1 0 0 0-.373-.27 1.15 1.15 0 0 0-.864 0 .96.96 0 0 0-.374.27 1.4 1.4 0 0 0-.256.471q-.098.287-.098.688c0 .401.032.499.097.688s.151.35.257.471.233.214.374.27zm.093-1.428q0-.449.103-.637.094-.174.236-.173c.142.001.173.057.236.173q.103.187.104.637 0 .22-.028.384-.027.15-.076.246c-.049.096-.064.101-.104.126a.25.25 0 0 1-.262 0 .3.3 0 0 1-.104-.126 1 1 0 0 1-.076-.246 2.3 2.3 0 0 1-.027-.384zm-.456 2.719a2.52 2.52 0 0 0-2.516 2.517 2.52 2.52 0 0 0 2.516 2.516 2.52 2.52 0 0 0 2.517-2.516 2.52 2.52 0 0 0-2.517-2.517m0 3.533a1.02 1.02 0 0 1-1.016-1.016 1.02 1.02 0 0 1 1.016-1.017 1.02 1.02 0 0 1 1.017 1.017 1.02 1.02 0 0 1-1.017 1.016"/></svg>