<svg xmlns="http://www.w3.org/2000/svg" viewBox="0 0 24 24"><path fill="#002466" d="m18.376 9.907-.051-.461C18.211 8.379 16.247 1 16.247 1H7.753S6.055 7.305 5.675 9.446c-.02.114-.051.461-.051.461-.17 1.383.273 2.752 1.249 3.854 1.064 1.203 2.692 2.008 4.377 2.196V21.5H8.5V23h7v-1.5h-2.75v-5.543c1.685-.188 3.313-.993 4.377-2.196.976-1.102 1.419-2.471 1.249-3.854M7.167 9.6c.095-.923.171-1.659 1.718-7.1h6.23l1.718 7.1.055.489q.029.24.022.481c-.511-.145-.743-.681-.789-.802l-.112-.305c-.2-.55-.427-1.173-.831-1.686-1.606-2.036-3.997-2.572-6.064-1.392-.693.358-.982 1.198-.673 1.954.35.854 1.237 1.025 1.915.765a.97.97 0 0 1 .924 1.673.95.95 0 0 1-.714.202c-.257-.03-.668-.344-.668-.344-.592-.56-1.182-.73-1.643-.73-.422 0-.812.123-1.149.325l.063-.63zM12 14.5c-1.523 0-3.058-.664-4.004-1.733a4 4 0 0 1-.482-.68.74.74 0 0 1 .739-.681c.147 0 .293.046.469.166.25.171 1.25.914 1.958.914a2.46 2.46 0 0 0 1.527-.53 2.47 2.47 0 0 0-2.355-4.264l.065-.044c1.378-.791 2.942-.381 4.08 1.061.255.323.438.825.6 1.269l.12.327c.273.717.88 1.465 1.808 1.713a4 4 0 0 1-.522.75C15.058 13.836 13.523 14.5 12 14.5"/></svg>