<svg xmlns="http://www.w3.org/2000/svg" fill="#002466" viewBox="0 0 24 24"><path d="M7.398 15.232a1.93 1.93 0 0 0 1.083-1.727V11.81H6.785c-.874 0-1.605.587-1.842 1.385a3.1 3.1 0 0 0-2.056-.794v1.5a1.61 1.61 0 0 1 1.591 1.392l-.076-.025c-.78-.229-2.443-.198-3.171 1.554-.194.471-.267 1.004-.214 1.583l.01.117c.082.941.232 2.692 1.464 3.872.407.389.946.607 1.49.607L4.062 23a4.5 4.5 0 0 0 .854-.126c.219-.053.448-.053.669 0 .308.073.595.116.853.126a2.2 2.2 0 0 0 1.572-.606c1.231-1.179 1.382-2.93 1.464-3.871l.01-.115c.053-.581-.02-1.113-.215-1.584-.423-1.023-1.165-1.45-1.87-1.59zM6.355 13.74a.43.43 0 0 1 .431-.431h.196v.196a.43.43 0 0 1-.432.432h-.195zm1.624 4.652c-.068.796-.184 2.129-1.006 2.916-.134.129-.331.206-.476.192a3 3 0 0 1-.563-.086 2.96 2.96 0 0 0-1.366 0q-.32.077-.565.086c-.161.015-.341-.063-.475-.191-.822-.787-.937-2.12-1.006-2.916l-.011-.123c-.031-.335.005-.629.105-.874.255-.614.709-.736 1.026-.736.138 0 .251.023.31.039l.315.105a3.12 3.12 0 0 0 1.965 0l.282-.095c.229-.062 1.003-.193 1.368.688q.154.368.106.875l-.011.121zM9.947 6.049h4.389v1.5H9.947zm0 4.856h4.389v1.5H9.947zM6.25 1v9.5h1.5v-8H21.5v19H9.75V23H23V1zm4.25 14.76h3.836v1.5H10.5zm5.513 2.579h3.658v-3.658h-3.658zm1.5-2.158h.658v.658h-.658zm2.158-6.355h-3.658v3.658h3.658zm-1.5 2.158h-.658v-.658h.658zm1.299-7.603-1.948 1.948-.956-.957-1.061 1.061 2.017 2.017 3.009-3.008z"/></svg>