<svg xmlns="http://www.w3.org/2000/svg" viewBox="0 0 24 24"><path fill="#002466" d="M22 6.586a3.25 3.25 0 0 0-2.669-3.197l-2.576-.468A3.84 3.84 0 0 0 13.43 1h-2.86a3.84 3.84 0 0 0-3.321 1.913l-2.557.446A3.244 3.244 0 0 0 2 6.561V21.5h3.25V23h13.5v-1.5H22zM10.57 2.5h2.859a2.35 2.35 0 0 1 1.893.954 2.35 2.35 0 0 1-2.104 1.296h-2.437a2.35 2.35 0 0 1-2.104-1.296A2.35 2.35 0 0 1 10.57 2.5m-3.172 19 2.139-3.75h4.926l2.139 3.75zM20.5 20h-1.75V10h-1.5v9.61l-1.916-3.36H8.666L6.75 19.61V10h-1.5v10H3.5V6.561c0-.853.609-1.578 1.45-1.724l2.535-.442A3.83 3.83 0 0 0 9.5 6.024V8.75H11v-2.5h2v2.5h1.5V6.024a3.83 3.83 0 0 0 2.01-1.623l2.553.464A1.75 1.75 0 0 1 20.5 6.586z"/></svg>