<svg xmlns="http://www.w3.org/2000/svg" fill="#002466" viewBox="0 0 24 24"><path d="M8.158 9.592H4.183v3.182h-.976V6.496h1.195v1.188h3.537V6.496h6.864v1.511h1.5V6.496H17v-3.35L1 1v5.496h.707v7.777h3.976v-3.182h.976v3.182H12v-1.499H8.158zM6.171 6.8a.884.884 0 1 1 0-1.769.884.884 0 0 1 0 1.769M2.5 2.714l13 1.743v.539H7.939v-.848H4.402v.848H2.5zm17.627 9.292a2.64 2.64 0 0 0-1.171.282v-.138a2.674 2.674 0 0 0-2.671-2.67h-2.872v2.872a2.674 2.674 0 0 0 2.671 2.67h1.372V23h1.5v-5.453h1.373A2.673 2.673 0 0 0 23 14.878v-2.872zm-5.214.346V10.98h1.372a1.17 1.17 0 0 1 1.171 1.17v1.372h-1.372a1.17 1.17 0 0 1-1.171-1.17m6.587 2.526a1.17 1.17 0 0 1-1.171 1.17h-1.373v-1.372a1.17 1.17 0 0 1 1.171-1.17H21.5z"/></svg>