<svg xmlns="http://www.w3.org/2000/svg" fill="#002466" viewBox="0 0 24 24"><path d="M18.011 10.005h1.488v3.989h-1.488zM23 21.942l-4.47-4.494 1.238-.008c1.766-.012 3.202-1.466 3.202-3.241V9.756c0-1.787-1.446-3.241-3.223-3.241h-4.215c-1.777 0-3.223 1.454-3.223 3.241H10.88L2.172 1 1.12 2.058l7.657 7.699H2.488L1 12l1.488 2.244h9.822a3.22 3.22 0 0 0 .95 2.282c.61.608 1.415.942 2.271.942h.022l.888-.006L21.948 23zM15.531 8.011h4.215c.957 0 1.736.783 1.736 1.745v4.442c0 .956-.774 1.739-1.724 1.745l-2.706.018-3.256-3.274V9.756c0-.962.779-1.745 1.736-1.745zM2.788 12l.496-.748h6.98l1.488 1.496H3.284zm11.52 3.465a1.7 1.7 0 0 1-.336-.485l.81.814a1.7 1.7 0 0 1-.474-.329"/></svg>