<svg xmlns="http://www.w3.org/2000/svg" fill="#002466" viewBox="0 0 24 24"><path d="M14.851 10.765c.584 0 1.134-.227 1.547-.64l.996-.996a2.17 2.17 0 0 0 .641-1.546 2.2 2.2 0 0 0-.226-.95l4.576-4.573L21.324 1l-4.578 4.575a2.19 2.19 0 0 0-2.495.413l-.996.996a2.17 2.17 0 0 0-.641 1.546c0 .584.228 1.133.69 1.595a2.17 2.17 0 0 0 1.546.64zm-.535-2.721.996-.996a.7.7 0 0 1 .486-.201.68.68 0 0 1 .485.201l.05.05a.68.68 0 0 1 .201.485.68.68 0 0 1-.201.486l-.996.995c-.26.26-.662.31-1.021-.05a.68.68 0 0 1-.201-.485.68.68 0 0 1 .201-.486zM1.615 13.239c0 5.382 4.381 9.761 9.767 9.761s9.767-4.379 9.767-9.761v-.97H1.615zm18.017.53a8.28 8.28 0 0 1-8.25 7.733 8.28 8.28 0 0 1-8.25-7.733z"/></svg>