<svg xmlns="http://www.w3.org/2000/svg" viewBox="0 0 24 24"><path fill="#002466" d="M18.357 13.01a4.3 4.3 0 0 0-1.722-1.061 1.44 1.44 0 0 1-.912-.912 4.35 4.35 0 0 0-1.061-1.727 4.3 4.3 0 0 0-1.724-1.061c-.131-.042-.382-.201-.564-.35-.304-1.629-2.152-2.852-3.023-3.345v-.3c0-.966.785-1.752 1.75-1.752V1a3.256 3.256 0 0 0-3.25 3.254v.3c-.95.538-3.067 1.944-3.067 3.799a4.34 4.34 0 0 0 .469 1.972c.203.398.203.893 0 1.29-.307.598-.469 1.279-.469 1.969s.162 1.374.469 1.972c.203.399.203.893 0 1.291a4.3 4.3 0 0 0-.469 1.969c0 2.254 3.132 3.849 3.488 4.023l.329.161.329-.16c.356-.175 3.489-1.769 3.489-4.024 0-.542-.103-1.076-.294-1.571a4.4 4.4 0 0 0 .831 1.171c.656.658 1.61.858 2.531.858 1.312 0 2.557-.408 2.777-.484l.346-.119.119-.346c.13-.376 1.218-3.721-.374-5.315zm-7.739-.709c.198.387.303.831.303 1.284a2.85 2.85 0 0 1-.304 1.287 2.92 2.92 0 0 0 .001 2.661c.198.387.303.831.303 1.284 0 .974-1.479 2.019-2.318 2.497-.839-.479-2.317-1.523-2.317-2.497 0-.453.104-.897.303-1.284a2.93 2.93 0 0 0 .001-2.661c-.198-.387-.304-.832-.304-1.287s.104-.897.303-1.284a2.93 2.93 0 0 0 .001-2.66 2.84 2.84 0 0 1-.304-1.287c0-.974 1.479-2.019 2.317-2.497.839.479 2.318 1.523 2.318 2.497 0 .453-.105.898-.305 1.288a2.92 2.92 0 0 0 .002 2.659m6.804 5.178c-.932.256-2.716.564-3.403-.124-.32-.32-.56-.708-.692-1.122a2.9 2.9 0 0 0-1.077-1.456 4.33 4.33 0 0 0-.298-3.161 1.44 1.44 0 0 1-.001-1.289l.001-.001a4 4 0 0 0 .288-.747l.242.101c.413.133.802.373 1.121.693a2.84 2.84 0 0 1 .693 1.127c.287.89.989 1.592 1.88 1.88a2.8 2.8 0 0 1 1.121.693c.688.688.38 2.474.125 3.407z"/></svg>