<svg xmlns="http://www.w3.org/2000/svg" fill="#002466" viewBox="0 0 24 24"><path d="M11.25 14.962h1.5v1.512h-1.5zm3.75.01h1.5v1.501H15zm-7.5-.01H9v1.512H7.5zm3.75-3.509h1.5v1.512h-1.5zm3.75.01h1.5v1.501H15zm-7.5-.01H9v1.512H7.5zm3.75 7.029h1.5v1.506h-1.5zm3.75 0h1.5v1.506H15zm-7.5 0H9v1.506H7.5zM21.75 8.441H5.853L4.232 1l-1.465.322 1.551 7.119H2.25v1.506h1.112l1.189 10.171A3.256 3.256 0 0 0 7.779 23h8.487a3.25 3.25 0 0 0 3.229-2.896L20.64 9.947h1.109zm-3.744 11.494a1.75 1.75 0 0 1-1.739 1.559H7.779a1.75 1.75 0 0 1-1.738-1.552L4.873 9.947h14.259z"/></svg>