<svg xmlns="http://www.w3.org/2000/svg" viewBox="0 0 24 24"><path fill="#002466" d="M20.257 19.199A10.9 10.9 0 0 0 22.97 12c0-6.049-4.921-10.97-10.97-10.97-2.756 0-5.27 1.029-7.199 2.713L2.058 1 1 2.058l2.743 2.743A10.9 10.9 0 0 0 1.03 12c0 6.049 4.921 10.97 10.97 10.97 2.756 0 5.27-1.029 7.199-2.713L21.942 23 23 21.942zM12 2.526c5.224 0 9.474 4.25 9.474 9.474a9.43 9.43 0 0 1-2.274 6.142l-4.135-4.135L19.197 12 8.011 6.567v.387L5.858 4.8A9.43 9.43 0 0 1 12 2.526m-2.493 8.038 3.015 3.015-3.015 1.464zm.987-1.129L15.773 12l-1.828.888zM12 21.474c-5.224 0-9.474-4.25-9.474-9.474A9.43 9.43 0 0 1 4.8 5.858l3.211 3.211v8.365l5.63-2.735 4.501 4.501A9.42 9.42 0 0 1 12 21.474"/></svg>