<svg xmlns="http://www.w3.org/2000/svg" viewBox="0 0 24 24"><path fill="#002466" d="M13.561 1H3.5v22h17V7.939zM14 3.561 17.939 7.5H14zM19 21.5H5v-19h7.5V9H19z"/><path fill="#002466" d="M12.432 15.185v.245l.003.197.01.183.018.195h-.015l-.19-.342-.215-.343-.845-1.27q-.035-.065-.115-.065h-.605q-.1 0-.1.1v3.25q0 .1.1.1h.67q.1 0 .101-.1v-1.34l-.003-.198-.01-.182-.018-.195h.016l.189.343.215.342.84 1.265q.036.065.115.065h.61q.1 0 .1-.1v-3.25q0-.1-.1-.1h-.67q-.1 0-.101.1zm-4.068-1.201zH6.972q-.1 0-.1.1v.51q0 .1.1.1h.226v2.64q0 .1.1.1h.67q.1 0 .1-.1v-.91h.266q.744 0 1.145-.333.4-.332.4-.923c0-.591-.126-.685-.378-.885q-.378-.3-1.137-.3m.473 1.62q-.159.137-.499.137h-.271v-1.05h.275q.34 0 .498.127t.157.393a.49.49 0 0 1-.16.392m5.499 1.415q.22.232.535.355t.71.123q.36 0 .645-.103.285-.102.485-.295.199-.193.308-.468c.109-.275.107-.39.107-.62v-.2l-.01-.205q0-.095-.101-.095H15.73q-.1 0-.1.1v.49q0 .1.1.1h.511q0 .26-.178.395-.177.135-.482.135a.74.74 0 0 1-.596-.26q-.22-.26-.22-.76c0-.333.073-.594.22-.772a.73.73 0 0 1 .596-.268q.45 0 .68.345.06.09.15.03l.484-.315q.08-.05.035-.135-.41-.67-1.35-.67-.396 0-.71.122-.316.122-.535.355a1.6 1.6 0 0 0-.338.563 2.2 2.2 0 0 0-.117.745 2.2 2.2 0 0 0 .117.745c.072.21.187.401.338.563"/></svg>