<svg xmlns="http://www.w3.org/2000/svg" fill="#002466" viewBox="0 0 24 24"><path d="M11.25 18.38h1.5v-4.656h1.272c1.24 0 2.25-1.009 2.25-2.25V8.702H13.5c-.264 0-.514.054-.75.138v-.09c0-1.241-1.01-2.25-2.25-2.25H7.728v2.773c0 1.241 1.01 2.25 2.25 2.25h1.272zM9.228 9.273V8H10.5a.75.75 0 0 1 .75.75v1.273H9.978a.75.75 0 0 1-.75-.75m3.522 1.679a.75.75 0 0 1 .75-.75h1.272v1.273a.75.75 0 0 1-.75.75H12.75zM6 7.25H3.771A9.44 9.44 0 0 1 12 2.5c5.238 0 9.5 4.262 9.5 9.5H23c0-6.065-4.935-11-11-11a10.93 10.93 0 0 0-9.5 5.445V3.75H1v5h5zm12 9.5h2.229A9.44 9.44 0 0 1 12 21.5c-5.238 0-9.5-4.262-9.5-9.5H1c0 6.065 4.935 11 11 11a10.93 10.93 0 0 0 9.5-5.445v2.695H23v-5h-5z"/></svg>