<svg xmlns="http://www.w3.org/2000/svg" fill="#002466" viewBox="0 0 24 24"><path d="m11.999 19.373-4.158-4.166-.194-.003H5.72l6.279 6.291 6.278-6.291H16.16zm9.357-15.209a5.614 5.614 0 0 0-7.941 0L12 5.582l-1.432-1.435a5.55 5.55 0 0 0-3.954-1.641 5.56 5.56 0 0 0-3.955 1.641A5.63 5.63 0 0 0 1 8.139c-.002.96.259 1.87.709 2.688h1.802a4.07 4.07 0 0 1-1.014-2.685 4.14 4.14 0 0 1 1.22-2.933 4.07 4.07 0 0 1 2.896-1.202 4.06 4.06 0 0 1 2.895 1.202l2.49 2.495 2.474-2.479a4.12 4.12 0 0 1 5.824 0 4.1 4.1 0 0 1 1.206 2.917c0 1-.369 1.936-1.016 2.684h1.802A5.5 5.5 0 0 0 23 8.142a5.6 5.6 0 0 0-1.644-3.978M13.922 9.42l-2.166 3.878-2.719-4.953-2.2 3.633H3.266v1.5H7.68l1.293-2.136 2.771 5.047 2.129-3.81.465.899h6.395v-1.5h-5.485z"/></svg>