<svg xmlns="http://www.w3.org/2000/svg" fill="#002466" viewBox="0 0 24 24"><path d="M12 10.281a4.5 4.5 0 0 0-3.005 1.145v-.396h-1.5v3.032h3.003v-1.496h-.533A3 3 0 0 1 12 11.778a3.005 3.005 0 0 1 3.005 2.998h1.5A4.505 4.505 0 0 0 12 10.282zm1.502 6.703h.533a3 3 0 0 1-2.035.788 3.004 3.004 0 0 1-3.005-2.997h-1.5c0 2.478 2.021 4.493 4.505 4.493a4.5 4.5 0 0 0 3.005-1.145v.396h1.5v-3.032h-3.003v1.496zm5.242-7.403L12 1 5.256 9.581a8.15 8.15 0 0 0-.937 8.675C5.747 21.182 8.689 23 12 23s6.253-1.818 7.681-4.744a8.15 8.15 0 0 0-.937-8.675m-.412 8.02c-1.174 2.407-3.601 3.903-6.332 3.903s-5.158-1.495-6.332-3.903c-1.153-2.364-.866-5.017.768-7.096L12 3.425l5.564 7.08c1.634 2.079 1.921 4.732.768 7.096"/></svg>