<svg xmlns="http://www.w3.org/2000/svg" viewBox="0 0 24 24"><path fill="#002466" d="M19.11 5.561A4.574 4.574 0 0 0 14.54 1c-.911 0-1.793.271-2.54.772A4.56 4.56 0 0 0 9.46 1a4.574 4.574 0 0 0-4.57 4.535 4.58 4.58 0 0 0 1.96 8.715c.108 0 .213-.017.32-.024a50 50 0 0 1 1.586 8.107l.073.667h6.346l.081-.765c.3-2.701.835-5.389 1.574-8.006l.281.021c2.52 0 4.569-2.05 4.569-4.57a4.58 4.58 0 0 0-2.569-4.119zM13.833 21.5h-3.665a51 51 0 0 0-1.538-7.622c.278-.118.549-.253.8-.424.129.088.268.159.405.232l.29 2.172c.124.937.93 1.643 1.875 1.643s1.751-.706 1.875-1.642l.289-2.168.386-.218c.255.172.531.307.815.424a51.5 51.5 0 0 0-1.532 7.604zm-2.418-7.314c.389.048.782.049 1.17.002l-.196 1.472a.393.393 0 0 1-.778 0zm5.696-1.436c-.77 0-1.5-.279-2.056-.785l-.505-.459-.505.459c-1.111 1.012-2.972 1.018-4.11-.02l-.505-.461-.506.461a3.07 3.07 0 0 1-2.074.804 3.08 3.08 0 0 1-3.08-3.07c0-1.34.857-2.521 2.134-2.937l.591-.193-.08-.616a3 3 0 0 1-.024-.363 3.073 3.073 0 0 1 3.07-3.07 3.05 3.05 0 0 1 2.04.779l.5.448.5-.448a3.06 3.06 0 0 1 2.04-.779 3.073 3.073 0 0 1 3.046 3.459l-.074.606.578.195a3.077 3.077 0 0 1-.979 5.99z"/></svg>