<svg xmlns="http://www.w3.org/2000/svg" fill="#00236f" viewBox="0 0 24 24"><path d="M6.152 6.502c1.517 0 2.751-1.234 2.751-2.751S7.669 1 6.152 1 3.401 2.234 3.401 3.751s1.234 2.751 2.751 2.751m0-4.002c.689 0 1.251.561 1.251 1.251s-.562 1.251-1.251 1.251-1.251-.561-1.251-1.251S5.463 2.5 6.152 2.5M2.5 10.696a1.52 1.52 0 0 1 1.518-1.518h4.269a1.52 1.52 0 0 1 1.518 1.518v.8h1.5v-.8a3.02 3.02 0 0 0-3.018-3.018H4.018A3.02 3.02 0 0 0 1 10.696v.8h1.5zm15.348-4.194c1.517 0 2.751-1.234 2.751-2.751S19.364 1 17.848 1s-2.751 1.234-2.751 2.751 1.234 2.751 2.751 2.751m0-4.002c.689 0 1.251.561 1.251 1.251s-.562 1.251-1.251 1.251-1.251-.561-1.251-1.251.562-1.251 1.251-1.251m2.134 5.179h-4.269a3.02 3.02 0 0 0-3.018 3.018v.8h1.5v-.8a1.52 1.52 0 0 1 1.518-1.518h4.269a1.52 1.52 0 0 1 1.518 1.518v.821H23v-.821a3.02 3.02 0 0 0-3.018-3.018m.479 7.354h-7.973a2.54 2.54 0 0 0-2.42-1.783H5.659c-.324 0-.641.061-.942.182l-2.231.896A2.54 2.54 0 0 0 1 16.633v2.183c0 1.19.811 2.206 1.895 2.448l4.736 1.623a2.24 2.24 0 0 0 1.253.06l12.055-2.881A2.54 2.54 0 0 0 23 17.572c0-1.4-1.139-2.539-2.539-2.539m.162 3.567L8.536 21.488a.75.75 0 0 1-.418-.02l-4.814-1.645a1.03 1.03 0 0 1-.804-1.007v-2.183c0-.404.237-.773.574-.926l2.201-.883a1 1 0 0 1 .384-.074h4.409c.569 0 1.033.463 1.033 1.033s-.464 1.033-1.033 1.033H7.989v1.5h2.079c1.136 0 2.1-.751 2.42-1.783h7.973a1.04 1.04 0 0 1 1.039 1.039c0 .498-.354.927-.877 1.028"/></svg>