<svg xmlns="http://www.w3.org/2000/svg" fill="#002466" viewBox="0 0 24 24"><path d="M17.75 1H6.25A3.25 3.25 0 0 0 3 4.239v11.462a3.25 3.25 0 0 0 3.25 3.239h.301l-1.948 3.301L5.896 23l.631-1.069h10.946L18.104 23l1.293-.758-1.948-3.301h.301A3.25 3.25 0 0 0 21 15.702V4.239A3.25 3.25 0 0 0 17.75 1M7.41 20.436l.882-1.495h7.416l.882 1.495zm12.09-4.734a1.75 1.75 0 0 1-1.75 1.744H6.25a1.75 1.75 0 0 1-1.75-1.744V4.239a1.75 1.75 0 0 1 1.75-1.744h11.5a1.75 1.75 0 0 1 1.75 1.744zM6 10.469h12V3.99H6zm1.5-4.984h9v3.489h-9z"/><circle cx="8.5" cy="13.957" r="1"/><circle cx="15.5" cy="13.957" r="1"/></svg>