<svg xmlns="http://www.w3.org/2000/svg" fill="#002466" viewBox="0 0 24 24"><path d="M7.214 11.339c.107 0 .21-.022.316-.031v-1.5a2 2 0 0 1-.316.031c-1.093 0-1.982-.889-1.982-1.982s.89-1.982 1.982-1.982a2 2 0 0 1 .316.031v-1.5l-.316-.031a3.49 3.49 0 0 0-3.482 3.482 3.49 3.49 0 0 0 3.482 3.482M1 17.103v2.522h1.5v-2.522a2.615 2.615 0 0 1 2.612-2.612v-1.5A4.12 4.12 0 0 0 1 17.103m19.269-9.246a3.49 3.49 0 0 0-3.482-3.482c-.105 0-.207.021-.311.031v1.5a2 2 0 0 1 .311-.03c1.093 0 1.982.889 1.982 1.982s-.89 1.982-1.982 1.982a2 2 0 0 1-.311-.03v1.5l.311.031a3.49 3.49 0 0 0 3.482-3.482zm-1.381 5.134v1.5a2.615 2.615 0 0 1 2.612 2.612v2.522H23v-2.522a4.12 4.12 0 0 0-4.112-4.112M12 11.339c1.92 0 3.481-1.562 3.481-3.482S13.92 4.375 12 4.375a3.49 3.49 0 0 0-3.482 3.482A3.49 3.49 0 0 0 12 11.339m0-5.464a1.983 1.983 0 0 1 0 3.964c-1.093 0-1.982-.889-1.982-1.982s.89-1.982 1.982-1.982m2.101 7.116H9.898a4.12 4.12 0 0 0-4.112 4.112v2.522h1.5v-2.522a2.615 2.615 0 0 1 2.612-2.612H14.1a2.616 2.616 0 0 1 2.613 2.612v2.522h1.5v-2.522a4.12 4.12 0 0 0-4.113-4.112z"/></svg>