<svg xmlns="http://www.w3.org/2000/svg" fill="#002466" viewBox="0 0 24 24"><path d="M22.606 10.241c-1.214-2.926-3.985-2.98-5.305-2.589l-.608.203a4 4 0 0 1-.451.11v-.513c0-.29-.041-.569-.086-.846h1.624a3.256 3.256 0 0 0 3.254-3.251V1h-2.358a3.254 3.254 0 0 0-3.251 3.249v.403c-.94-1.502-2.597-2.512-4.496-2.512v1.501a3.816 3.816 0 0 1 3.812 3.81v.513l-.451-.11-.634-.211a4.9 4.9 0 0 0-2.954.165l.567 1.39c.945-.386 1.933-.124 1.937-.123l.608.203a5.33 5.33 0 0 0 3.354 0l.579-.193c.25-.072 2.493-.627 3.473 1.732.238.574.324 1.253.256 2.018l-.021.233c-.132 1.527-.378 4.369-2.157 6.07a1.96 1.96 0 0 1-1.426.561 6.4 6.4 0 0 1-1.223-.184 5 5 0 0 0-2.315 0 6.3 6.3 0 0 1-1.224.184 2 2 0 0 1-1.425-.561l-1.038 1.085a3.5 3.5 0 0 0 2.394.979l.129-.002a8 8 0 0 0 1.514-.224 3.5 3.5 0 0 1 1.615 0 8 8 0 0 0 1.513.224 3.57 3.57 0 0 0 2.524-.977c2.188-2.092 2.466-5.302 2.615-7.025l.02-.229c.089-1.009-.033-1.926-.366-2.726zm-5.679-5.992a1.75 1.75 0 0 1 1.749-1.748h.856v.853c0 .965-.786 1.751-1.752 1.751h-.854V4.25zm-3.711 10.484a3.04 3.04 0 0 0-1.544-2.649 3.04 3.04 0 0 0-3.03-2.843c-.539 0-1.062.142-1.519.407a3.04 3.04 0 0 0-4.549 2.418A3.04 3.04 0 0 0 1 14.733a3.04 3.04 0 0 0 2.991 3.029c.405 1.479.714 2.996.89 4.574L4.96 23h3.659l.679-.058.074-.668c.17-1.523.478-3.035.884-4.514a3.035 3.035 0 0 0 2.962-3.027zm-10.715 0c0-.66.439-1.263 1.067-1.469l.592-.193-.08-.618a1 1 0 0 1-.012-.178c0-.846.688-1.534 1.534-1.534a1.53 1.53 0 0 1 1.019.388l.502.449.502-.449a1.52 1.52 0 0 1 1.018-.388c.846 0 1.534.688 1.534 1.534a2 2 0 0 1-.012.195l-.074.607.579.195a1.536 1.536 0 0 1-.49 2.993 1.52 1.52 0 0 1-1.026-.39l-.505-.461-.505.461a1.57 1.57 0 0 1-2.052-.012l-.505-.461-.505.461a1.54 1.54 0 0 1-2.578-1.132zm5.452 6.766h-1.66a31 31 0 0 0-.841-4.095c.043-.023.092-.032.134-.056a3.1 3.1 0 0 0 3.063.01c.044.026.096.036.142.059a31 31 0 0 0-.837 4.082z"/></svg>