<svg xmlns="http://www.w3.org/2000/svg" viewBox="0 0 24 24"><path fill="#002466" d="m5.058 7.104.428.142a3.98 3.98 0 0 0 2.498 0l.396-.132c.26-.073 1.577-.353 2.176 1.088.153.368.208.81.164 1.31l-.015.17c-.063.725-.189 1.857-.63 2.862.221.304 1.052 1.288 1.052 1.288.844-1.401.988-3.04 1.073-4.02l.014-.166c.066-.746-.026-1.425-.273-2.018-.913-2.202-3-2.241-4.004-1.945l-.428.142-.024.006v-.078c0-.128-.026-.248-.038-.372h1.156c1.24 0 2.25-1.008 2.25-2.247V1H8.716a2.246 2.246 0 0 0-2.24 2.144A3.94 3.94 0 0 0 3.527 1.8v1.498a2.46 2.46 0 0 1 2.459 2.454v.078q-.013-.002-.025-.006l-.453-.15c-.976-.288-3.065-.25-3.978 1.952-.247.594-.34 1.273-.274 2.02l.015.166c.108 1.239.31 3.544 1.905 5.068a2.68 2.68 0 0 0 1.935.748c.234-.01.493-.048.759-.098v-1.52a4.3 4.3 0 0 1-.818.123 1.2 1.2 0 0 1-.839-.333c-1.187-1.134-1.35-3.001-1.448-4.116l-.015-.169c-.044-.502.011-.944.164-1.313.6-1.442 1.92-1.159 2.145-1.097m2.908-3.857a.75.75 0 0 1 .75-.75h.637v.637a.75.75 0 0 1-.75.749h-.637zM7.205 20.16 10.047 23l1.06-1.06-2.842-2.838zM22.765 10.3l-2.843-2.84-1.06 1.06 2.843 2.84zM7.489 17.606l5.118 5.11 1.06-1.059-5.118-5.11zM16.302 8.804l5.118 5.11 1.06-1.059-5.117-5.11z"/><path fill="#002466" d="m13.46 8.804 2.74 2.736-4.911 4.903-2.74-2.736-1.06 1.06 7.96 7.95 1.061-1.06-2.74-2.736 4.91-4.903 2.74 2.736 1.06-1.06-7.96-7.95zm4.16 4.155-4.91 4.903-.36-.36 4.91-4.903z"/></svg>