<svg xmlns="http://www.w3.org/2000/svg" fill="#002466" viewBox="0 0 24 24"><path d="M8.5 6.875H4v4.5h4.5zM6.25 10.25a1.125 1.125 0 1 1 0-2.25 1.125 1.125 0 0 1 0 2.25M1 3.875v16.25h22V3.875zm4.5 14.75v-1.75h13v1.75zm16 0H20v-3.25H4v3.25H2.5V5.375h19zm-13.125-5.75h1.5v1.5h-1.5zm-2.875 0H7v1.5H5.5zm11.5 0h1.5v1.5H17zm-5.75 0h1.5v1.5h-1.5zm2.875 0h1.5v1.5h-1.5zm-4.383-1.5h2.562q.13 0 .13-.13v-.715q0-.13-.13-.13h-1.561v-.838h1.268q.13 0 .13-.13v-.644q0-.13-.13-.13h-1.268v-.845h1.489q.13 0 .13-.13V7.02q0-.13-.13-.13h-2.49q-.13 0-.13.13v4.225q0 .13.13.13m4.225 0q.111 0 .149-.11.098-.364.276-.709c.178-.345.246-.44.381-.631h.013q.201.286.394.631a3.6 3.6 0 0 1 .302.709q.04.11.149.11h1.066q.071 0 .098-.042c.027-.042.017-.063 0-.107a7.5 7.5 0 0 0-.575-1.099 11 11 0 0 0-.745-1.027 9 9 0 0 0 .687-.952q.328-.523.556-1.108.031-.065.003-.107c-.028-.042-.053-.042-.101-.042h-.994q-.117 0-.144.11a4 4 0 0 1-.263.689 6 6 0 0 1-.349.618h-.013a6 6 0 0 1-.364-.618 4 4 0 0 1-.279-.69q-.038-.11-.149-.11h-1.04q-.072 0-.098.042c-.026.042-.017.064 0 .107a8 8 0 0 0 .54 1.066q.311.513.702 1.001a8 8 0 0 0-.731.985 7.4 7.4 0 0 0-.589 1.134q-.025.065 0 .107c.025.042.05.042.098.042h1.021zm3.185-3.542h1.046v3.413q0 .13.13.13h.871q.13 0 .13-.13V7.833h1.047q.13 0 .13-.13V7.02q0-.13-.13-.13h-3.224q-.13 0-.131.13v.683q0 .13.131.13"/></svg>