<svg xmlns="http://www.w3.org/2000/svg" fill="#002466" viewBox="0 0 24 24"><path d="M8.715 10.684a18 18 0 0 1 .243-2.997h6.084a18 18 0 0 1 .243 2.997h1.5a20 20 0 0 0-.217-2.997h3.04a8.1 8.1 0 0 1 .576 2.997h1.5C21.684 5.344 17.34 1 12 1s-9.684 4.344-9.684 9.684S6.66 20.368 12 20.368v-1.5c-1.084 0-2.252-1.638-2.861-4.264h3.611v-1.5H8.87a19 19 0 0 1-.156-2.42zm-1.356 2.42H4.182a8.2 8.2 0 0 1-.366-2.42 8.1 8.1 0 0 1 .576-2.997h3.04a20 20 0 0 0-.217 2.997 21 21 0 0 0 .144 2.42m1.928-6.916C9.925 3.902 10.998 2.5 12 2.5s2.075 1.402 2.712 3.688zm9.543 0h-2.56c-.3-1.213-.72-2.265-1.235-3.097a8.2 8.2 0 0 1 3.795 3.097M8.965 3.09c-.515.832-.935 1.884-1.235 3.097H5.17A8.2 8.2 0 0 1 8.965 3.09m0 15.188a8.23 8.23 0 0 1-4.146-3.674h2.778c.302 1.459.772 2.712 1.368 3.674m10.836-4.413a2.12 2.12 0 0 0-2.115-2.115 2.12 2.12 0 0 0-2.114 2.115v3.211A3.343 3.343 0 0 0 17.686 23a3.344 3.344 0 0 0 2.115-5.924zM17.686 21.5a1.841 1.841 0 0 1-.971-3.401l.356-.22v-4.014a.615.615 0 1 1 1.229 0v4.014l.356.22a1.842 1.842 0 0 1-.972 3.401z"/></svg>