<svg xmlns="http://www.w3.org/2000/svg" fill="#002466" viewBox="0 0 24 24"><path d="M16.84 17.692c2.206-1.538 3.656-4.086 3.656-6.97 0-1.079-.21-2.156-.612-3.158a3.46 3.46 0 0 0 1.865-3.092 3.51 3.51 0 0 0-3.506-3.5 3.47 3.47 0 0 0-3.097 1.861 8.6 8.6 0 0 0-6.327 0A3.47 3.47 0 0 0 5.72.972a3.51 3.51 0 0 0-3.506 3.5 3.46 3.46 0 0 0 1.865 3.092 8.5 8.5 0 0 0-.612 3.158c0 2.886 1.452 5.438 3.661 6.975A12.74 12.74 0 0 0 1 22.991h1.787a11.22 11.22 0 0 1 6.152-4.34c.947.363 1.97.571 3.043.571a8.5 8.5 0 0 0 3.05-.573 11.22 11.22 0 0 1 6.187 4.38H23a12.74 12.74 0 0 0-6.16-5.336zm-4.859.03c-3.866 0-7.012-3.14-7.012-7 0-1.121.275-2.238.796-3.232l.454-.868-.958-.212a1.966 1.966 0 0 1-1.545-1.937c0-1.103.899-2 2.003-2 .942 0 1.74.634 1.941 1.542l.212.958.87-.455a7.12 7.12 0 0 1 6.476 0l.87.455.212-.958a1.97 1.97 0 0 1 1.941-1.541c1.104 0 2.003.897 2.003 2 0 .94-.635 1.737-1.545 1.938l-.958.212.454.868a7 7 0 0 1 .796 3.232c0 3.86-3.146 7-7.012 7z"/><circle cx="14.485" cy="6.972" r=".751"/><circle cx="9.477" cy="6.972" r=".751"/><path d="M11.981 9.222a2.255 2.255 0 0 0-2.254 2.25c0 1.009.674 1.856 1.593 2.14v1.36h1.503v-1.416a2.25 2.25 0 0 0 1.413-2.084 2.254 2.254 0 0 0-2.254-2.25zm0 3a.75.75 0 1 1 0-1.5.75.75 0 1 1 0 1.5"/></svg>