<svg xmlns="http://www.w3.org/2000/svg" fill="#002466" viewBox="0 0 24 24"><path d="M22.5 7.5V1h-21v6.5H3v1.25H1.5v6.5H3v1.25H1.5V23h21v-6.5H21v-1.25h1.5v-6.5H21V7.5zM3 2.5h18V6H3zm18 19H3V18h18zm-1.5-5h-15v-1.25h15zm1.5-2.75H3v-3.5h18zm-1.5-5h-15V7.5h15z"/><circle cx="5.25" cy="4.25" r=".75"/><circle cx="8.25" cy="4.25" r=".75"/><circle cx="11.25" cy="4.25" r=".75"/><circle cx="5.25" cy="12" r=".75"/><circle cx="8.25" cy="12" r=".75"/><circle cx="11.25" cy="12" r=".75"/><circle cx="5.25" cy="19.75" r=".75"/><circle cx="8.25" cy="19.75" r=".75"/><circle cx="11.25" cy="19.75" r=".75"/></svg>