<svg xmlns="http://www.w3.org/2000/svg" fill="#002466" viewBox="0 0 24 24"><path d="M10.455 14.551h2.321a3.253 3.253 0 0 0 3.25-3.249V4.249A3.254 3.254 0 0 0 12.776 1H4.543a3.253 3.253 0 0 0-3.25 3.249v7.054a3.254 3.254 0 0 0 3.25 3.249h2.32l1.796 1.65 1.796-1.65zm-5.912-1.499a1.75 1.75 0 0 1-1.75-1.749V4.249A1.75 1.75 0 0 1 4.543 2.5h8.233a1.75 1.75 0 0 1 1.75 1.749v7.054a1.75 1.75 0 0 1-1.75 1.749H9.871l-1.212 1.113-1.212-1.113z"/><circle cx="8.659" cy="7.776" r=".75"/><circle cx="5.351" cy="7.776" r=".75"/><circle cx="11.968" cy="7.776" r=".75"/><path d="M19.457 7.799h-1.483v1.499h1.483a1.75 1.75 0 0 1 1.75 1.749v7.054a1.75 1.75 0 0 1-1.75 1.749h-2.905l-1.212 1.113-1.211-1.113h-2.905a1.75 1.75 0 0 1-1.75-1.749v-.307h-1.5v.307a3.254 3.254 0 0 0 3.25 3.249h2.321L15.34 23l1.796-1.65h2.321a3.253 3.253 0 0 0 3.25-3.249v-7.054a3.254 3.254 0 0 0-3.25-3.249z"/></svg>