<svg xmlns="http://www.w3.org/2000/svg" viewBox="0 0 24 24"><path fill="#002466" d="M23 4h-2.25V2.75H3.25V4H1v2.25a10.95 10.95 0 0 0 3.024 7.553l.572 7.447h14.809l.572-7.447A10.95 10.95 0 0 0 23 6.25zm-4.477 9.139C16.819 14.752 14.526 15.75 12 15.75s-4.819-.998-6.523-2.611L5.026 7.25h13.948l-.452 5.889zM4.75 4.25h14.5v1.5H4.75zm-2.25 2V5.5h.75v1.75h.271l.291 3.794A9.43 9.43 0 0 1 2.5 6.25m3.484 13.5-.349-4.544a10.93 10.93 0 0 0 12.729 0l-.349 4.544zM21.5 6.25a9.43 9.43 0 0 1-1.312 4.794l.291-3.794h.271V5.5h.75z"/></svg>