<svg xmlns="http://www.w3.org/2000/svg" viewBox="0 0 24 24"><path fill="#002466" d="M21.942 23 23 21.942l-5.704-5.704h2.433a3.245 3.245 0 0 0 3.241-3.241V7.263a3.245 3.245 0 0 0-3.241-3.241H5.08L2.058 1 1 2.058l2.17 2.17a3.24 3.24 0 0 0-2.14 3.035v5.734a3.245 3.245 0 0 0 3.241 3.241h4.552l-.609 2.742h-1.2v1.496h9.973V18.98h-1.2l-.609-2.742h.004zM4.271 14.742a1.75 1.75 0 0 1-1.745-1.745V7.263a1.75 1.75 0 0 1 1.745-1.745h.189l4.554 4.554c0 .02-.006.038-.006.058A2.995 2.995 0 0 0 12 13.122c.02 0 .038-.006.058-.006l1.626 1.626zm6.347-5.182A1.5 1.5 0 0 1 12 8.634a1.5 1.5 0 0 1 1.496 1.496c0 .623-.383 1.157-.926 1.382zm-.871 9.42.609-2.742h3.287l.609 2.742zm3.922-6.369a2.99 2.99 0 0 0 1.323-2.481A2.995 2.995 0 0 0 12 7.138a2.99 2.99 0 0 0-2.481 1.323L6.575 5.518h13.153a1.75 1.75 0 0 1 1.745 1.745v5.734a1.75 1.75 0 0 1-1.745 1.745H15.8z"/></svg>