<svg xmlns="http://www.w3.org/2000/svg" viewBox="0 0 24 24"><path fill="#002466" d="m22.41 9.25-8.4-3.758c.149-.3.24-.634.24-.992h-1.5a.751.751 0 0 1-1.5 0 .75.75 0 0 1 .75-.75h.75V1h-1.5v1.378A2.25 2.25 0 0 0 9.75 4.5c0 .39.109.751.284 1.071L1.594 9.25H1V23h22V9.25zM11.338 6.639c.21.066.43.111.662.111.284 0 .553-.058.803-.155l5.934 2.655H5.347zM21.5 21.5h-19V10.75h19z"/><path fill="#002466" d="M5.25 13.25h1.5v6h-1.5zM9.25 13.25h1.5v6h-1.5zM13.25 13.25h1.5v6h-1.5zM17.25 13.25h1.5v6h-1.5z"/></svg>