<svg xmlns="http://www.w3.org/2000/svg" fill="#002466" viewBox="0 0 24 24"><path d="M21.139 13.943V4.279c0-1.792-1.458-3.25-3.25-3.25s-3.25 1.458-3.25 3.25v9.665a5.1 5.1 0 0 0-1.88 3.965c0 2.823 2.301 5.12 5.13 5.12s5.13-2.297 5.13-5.12a5.1 5.1 0 0 0-1.88-3.966m-3.25 7.586a3.63 3.63 0 0 1-3.63-3.62 3.59 3.59 0 0 1 1.554-2.971l.326-.224V4.279c0-.965.785-1.75 1.75-1.75s1.75.785 1.75 1.75v10.436l.327.223a3.59 3.59 0 0 1 1.553 2.971 3.63 3.63 0 0 1-3.63 3.62m.75-5.737v-3.013h-1.5v3.013a2.25 2.25 0 0 0-1.5 2.112c0 1.241 1.01 2.25 2.25 2.25s2.25-1.009 2.25-2.25c0-.976-.629-1.801-1.5-2.112m-.75 2.862a.75.75 0 1 1 0-1.5.75.75 0 1 1 0 1.5M11.574 4.913l-1.061-1.061-2.097 2.097H7.312V4.844l2.097-2.097-1.061-1.061-1.036 1.036V.971h-1.5v1.752L4.774 1.686l-1.06 1.061 2.098 2.097v1.105H4.706L2.608 3.852l-1.06 1.061L2.585 5.95H.981v1.5h1.603L1.548 8.486l1.061 1.061L4.707 7.45h1.106v1.105l-2.098 2.097 1.061 1.061 1.037-1.037v1.853h1.5v-1.852l1.036 1.036 1.061-1.061-2.097-2.097V7.449h1.105l2.097 2.097 1.061-1.061-1.036-1.037h1.502v-1.5H10.54l1.036-1.037z"/></svg>