<svg xmlns="http://www.w3.org/2000/svg" fill="#002466" viewBox="0 0 24 24"><path d="M14.185 14.755c0 1.678 1.362 3.043 3.037 3.043s3.036-1.365 3.036-3.043-1.362-3.043-3.036-3.043-3.037 1.365-3.037 3.043m3.037-1.538a1.54 1.54 0 0 1 1.534 1.538 1.54 1.54 0 0 1-1.534 1.538 1.54 1.54 0 0 1-1.535-1.538 1.54 1.54 0 0 1 1.535-1.538m2.437 5.519h-4.875a3.35 3.35 0 0 0-3.342 3.348V23h1.502v-.916c0-1.016.825-1.843 1.84-1.843h4.875c1.014 0 1.839.827 1.839 1.843V23H23v-.916a3.35 3.35 0 0 0-3.341-3.348M6.542 7.407l7.678 2.181.53-1.887 2.372-2.583L2.539 1 1.167 5.88l3.873 1.1v2.076H2.502V8.4H1v2.816h1.502v-.656h4.04zm6.859-.461-.219.782-7.62-2.164.559-1.989 8.24 2.326zM3.577 2.857l1.099.31-.559 1.987-1.098-.312z"/></svg>