<svg xmlns="http://www.w3.org/2000/svg" fill="#002466" viewBox="0 0 24 24"><path d="M11.5 6.25A5.26 5.26 0 0 0 6.25 1 5.26 5.26 0 0 0 1 6.25a5.26 5.26 0 0 0 5.25 5.25 5.26 5.26 0 0 0 5.25-5.25M6.25 10C4.183 10 2.5 8.318 2.5 6.25S4.183 2.5 6.25 2.5 10 4.182 10 6.25 8.317 10 6.25 10m9.212 1.25a2.22 2.22 0 0 0 2.216-2.216 2.22 2.22 0 0 0-2.216-2.216 2.22 2.22 0 0 0-2.217 2.216 2.22 2.22 0 0 0 2.217 2.216m0-2.933a.717.717 0 0 1 0 1.432.72.72 0 0 1-.717-.716c0-.395.321-.716.717-.716"/><path d="M21.959 20.784v-4.297h-3.223v-2.473a2.544 2.544 0 0 0-2.54-2.541H13.42l-1.676 3.352 2.541 3.15 1.168-.941-1.936-2.4.83-1.661h1.849a1.04 1.04 0 0 1 1.04 1.041v3.973h3.223v4.297H23v-1.5zm-7.464.716a3.46 3.46 0 0 1-3.458-3.458c0-.655.193-1.263.512-1.785l-1.077-1.077a4.9 4.9 0 0 0-.934 2.862A4.964 4.964 0 0 0 14.496 23a4.964 4.964 0 0 0 4.862-4.005h-1.554c-.417 1.442-1.733 2.505-3.308 2.505zM6.234 4.215h-1.64q-.117 0-.117.118v.602q0 .118.117.118h.266v3.114q0 .118.118.118h.79q.118 0 .118-.118V7.094h.313q.879 0 1.351-.392c.472-.392.473-.625.473-1.088s-.148-.808-.445-1.044-.744-.354-1.343-.354zm.561 1.908q-.189.162-.59.162h-.318V5.047h.324q.402 0 .587.15c.185.15.187.255.187.463q0 .301-.189.463z"/></svg>