<svg xmlns="http://www.w3.org/2000/svg" viewBox="0 0 24 24"><path fill="#002466" d="M20.46 14.153h-7.308V8.371h1.75a3.254 3.254 0 0 0 3.25-3.25V1.87h-3.25a3.23 3.23 0 0 0-2.5 1.199 3.23 3.23 0 0 0-2.5-1.2h-3.25v3.25a3.254 3.254 0 0 0 3.25 3.25h1.75v4.565a2.5 2.5 0 0 0-1.584-.564H5.66q-.487 0-.942.181l-2.232.896A2.54 2.54 0 0 0 1 15.754v2.183c0 1.19.81 2.206 1.895 2.448l4.736 1.623a2.25 2.25 0 0 0 1.254.06l12.054-2.881A2.54 2.54 0 0 0 23 16.692c0-1.4-1.139-2.539-2.539-2.539M14.903 3.371h1.75v1.75c0 .964-.785 1.75-1.75 1.75h-1.75V5.12c0-.965.786-1.75 1.75-1.75m-5 3.5c-.964 0-1.75-.786-1.75-1.75V3.37h1.75c.965 0 1.75.785 1.75 1.75v1.75zm10.721 10.85L8.536 20.608a.75.75 0 0 1-.418-.02l-4.814-1.645a1.03 1.03 0 0 1-.804-1.007v-2.183c0-.404.237-.773.574-.926l2.201-.883q.184-.075.384-.074h4.41c.569 0 1.033.463 1.033 1.032s-.464 1.033-1.034 1.033H7.99v1.5h2.08a2.54 2.54 0 0 0 2.42-1.783h7.972a1.04 1.04 0 0 1 1.039 1.04c0 .497-.354.927-.877 1.027"/></svg>