<svg xmlns="http://www.w3.org/2000/svg" viewBox="0 0 24 24"><path fill="#002466" d="M23 10.75C23 5.374 18.626 1 13.25 1a9.76 9.76 0 0 0-9.712 9H1v1.5h2.538a9.75 9.75 0 0 0 4.672 7.581L6.643 23h13.215l-1.568-3.919c2.818-1.711 4.71-4.8 4.71-8.331m-2.268-3.454c.488 1.052.768 2.22.768 3.454s-.28 2.402-.768 3.454L14.75 10.75zM14 2.538a8.25 8.25 0 0 1 5.982 3.459L14 9.451zm-1.5 0v6.913L6.518 5.997A8.24 8.24 0 0 1 12.5 2.538M5.768 14.204a8.2 8.2 0 0 1-.73-2.704H7V10H5.038a8.2 8.2 0 0 1 .73-2.704l5.982 3.454zm.75 1.299 5.982-3.454v6.913a8.25 8.25 0 0 1-5.982-3.459M8.857 21.5l.694-1.734a9.7 9.7 0 0 0 7.398 0l.694 1.734zM14 18.962v-6.913l5.982 3.454A8.24 8.24 0 0 1 14 18.962"/></svg>