<svg xmlns="http://www.w3.org/2000/svg" viewBox="0 0 24 24"><path fill="#002466" d="M22.944 14.927C21.785 9.88 17.284 6.355 12 6.355S2.215 9.88 1.056 14.927a2.17 2.17 0 0 0 .627 2.065 2.33 2.33 0 0 0 2.168.588 35.1 35.1 0 0 1 16.299 0q.276.066.552.065a2.33 2.33 0 0 0 1.617-.653 2.17 2.17 0 0 0 .627-2.065zM3.488 16.123a.79.79 0 0 1-.734-.201.7.7 0 0 1-.206-.665 9.2 9.2 0 0 1 1.162-2.798l1.733 3.256q-.983.177-1.954.407zm3.55-.651-2.32-4.359a9.8 9.8 0 0 1 3.189-2.35l1.168 6.49q-1.022.081-2.037.219m6.361-.366h-2.797l-1.239-6.88c.845-.238 1.729-.371 2.637-.371s1.792.133 2.637.371zm1.526.148 1.168-6.49a9.8 9.8 0 0 1 3.188 2.349l-2.324 4.359a37 37 0 0 0-2.033-.218zm6.321.669a.79.79 0 0 1-.738.2 36 36 0 0 0-1.954-.407l1.736-3.256a9.2 9.2 0 0 1 1.162 2.798.7.7 0 0 1-.206.665"/></svg>