<svg xmlns="http://www.w3.org/2000/svg" fill="#002466" viewBox="0 0 24 24"><path d="M12.399 6.244H8.028q-.249 0-.249.249v.978q0 .249.249.249h1.084v10.538q0 .249.249.249h1.208q.249 0 .249-.249v-4.105h1.546q2.364 0 3.626-1.066c1.262-1.066 1.261-1.7 1.261-2.968q0-1.919-1.225-2.896C14.801 6.246 14 6.245 12.4 6.245zm2.346 5.749q-.764.702-2.364.702h-1.564V7.719h1.564q1.582 0 2.355.649c.773.649.772 1.04.772 1.822q0 1.102-.764 1.803zM12 1C5.935 1 1 5.935 1 12s4.935 11 11 11 11-4.935 11-11S18.065 1 12 1m0 20.5c-5.238 0-9.5-4.262-9.5-9.5S6.762 2.5 12 2.5s9.5 4.262 9.5 9.5-4.262 9.5-9.5 9.5"/></svg>