<svg xmlns="http://www.w3.org/2000/svg" fill="#002466" viewBox="0 0 24 24"><path d="M12 1 1 10.586l.987 1.131L12 2.991l10.013 8.727.987-1.131zm5.837 13.415h-2.334v1.084H11.5v-.75H8.831v.75H4.495V23h1.501v-6.001h8.005v4.966h4.17V23h1.501v-7.502h-1.835zm-2.334 6.05v-.966h2.669v.966zm2.669-2.466h-2.669v-1h2.669zm-5.922-3.584c.965 0 1.751-.785 1.751-1.75v-2.167c0-.965-.786-1.75-1.751-1.75H8.097c-.965 0-1.751.785-1.751 1.75v2.167c0 .965.786 1.75 1.751 1.75zm-4.403-1.75v-2.167a.25.25 0 0 1 .25-.25h4.153a.25.25 0 0 1 .25.25v2.167a.25.25 0 0 1-.25.25H8.097a.25.25 0 0 1-.25-.25"/></svg>