<svg xmlns="http://www.w3.org/2000/svg" viewBox="0 0 24 24"><path fill="#002466" d="m13.41 9.053 2.146-2.114 1.895 1.865 4.848-4.776-2.954-2.911L11.749 8.6a2.5 2.5 0 0 0-1.904 1.125L7.73 7.641l1.894-1.865L4.776 1 1.822 3.91l7.67 7.557a2.46 2.46 0 0 0 1.184 1.684L8.444 15.35 6.55 13.485l-4.849 4.776 2.954 2.91 5.754-5.668-1.376 7.225L10.51 23l1.439-7.563L13.389 23l1.475-.272-1.807-9.489a2.5 2.5 0 0 0 .959-.813l2.254 2.221-1.894 1.866 4.849 4.776 2.954-2.911-7.761-7.646a2.44 2.44 0 0 0-1.007-1.679zm5.934-5.846.833.821-2.727 2.686-.833-.821zM6.67 6.597 3.943 3.91l.833-.821 2.727 2.686-.833.821zM4.656 19.082l-.833-.821 2.728-2.687.833.821-2.728 2.686zm12.674-3.39 2.728 2.686-.833.821-2.728-2.687zm-5.381-5.635c.552 0 1 .442 1 .985s-.448.985-1 .985-1-.442-1-.985.448-.985 1-.985"/></svg>