<svg xmlns="http://www.w3.org/2000/svg" fill="#002466" viewBox="0 0 24 24"><path d="M12 12.977a5.47 5.47 0 0 0-5.124 3.5l1.396.546A3.98 3.98 0 0 1 12 14.477a3.98 3.98 0 0 1 3.729 2.546l1.396-.546a5.47 5.47 0 0 0-5.125-3.5M8.5 11a.5.5 0 0 1 .5.5h1.5c0-1.103-.897-2-2-2s-2 .897-2 2H8a.5.5 0 0 1 .5-.5m7-1.5c-1.103 0-2 .897-2 2H15a.5.5 0 1 1 1 0h1.5c0-1.103-.897-2-2-2m5.539-.436A9.52 9.52 0 0 0 12 2.5c-.043 0-.085.005-.128.005V2.5c-.029 0-.056.008-.085.009a9.52 9.52 0 0 0-8.824 6.549A2.505 2.505 0 0 0 1 11.5a2.46 2.46 0 0 0 1.687 2.358A9.53 9.53 0 0 0 12 21.5a9.53 9.53 0 0 0 9.314-7.642A2.46 2.46 0 0 0 23 11.5a2.5 2.5 0 0 0-1.961-2.436m-.437 3.418-.603.046-.083.598C19.373 17.045 15.97 20 12 20s-7.372-2.955-7.916-6.873l-.083-.598-.603-.046a.973.973 0 0 1-.898-.982c0-.551.448-1 1.04-1h.576l.148-.556a8.02 8.02 0 0 1 5.078-5.486 2.6 2.6 0 0 0-.097.67 2.63 2.63 0 0 0 2.627 2.628A2.63 2.63 0 0 0 14.5 5.128H13a1.13 1.13 0 0 1-1.128 1.128 1.13 1.13 0 0 1-1.127-1.128c0-.61.489-1.102 1.093-1.121.054-.001.107-.007.162-.007a8.02 8.02 0 0 1 7.735 5.944l.188.556h.576a.99.99 0 0 1 1 1 .97.97 0 0 1-.897.982"/></svg>