<svg xmlns="http://www.w3.org/2000/svg" viewBox="0 0 24 24"><path fill="#002466" d="M7.928 3.81H3.809v4.118h4.119zm-2.06 3.088a1.03 1.03 0 1 1 0-2.059 1.03 1.03 0 0 1 0 2.06"/><path fill="#002466" d="M3.746 14.5H2.5v-12h17.263v8.25h1.5V1H1v15h5v-1.5h-.754v-1.475H6v-1.5H3.746z"/><path fill="#002466" d="M7.814 9.301h1.373v1.373H7.814zM5.182 9.301h1.373v1.373H5.182zM15.708 9.301h1.373v1.373h-1.373zM10.445 9.301h1.373v1.373h-1.373zM13.076 9.301h1.373v1.373h-1.373zM21.948 13.224h-2.613V11.5H7.362v9.776h1.939a2.13 2.13 0 0 0 2.087 1.716 2.13 2.13 0 0 0 2.088-1.716h4.617A2.13 2.13 0 0 0 20.18 23a2.125 2.125 0 0 0 2.112-1.957H23v-4.147zm-10.56 8.268a.62.62 0 0 1-.466-.216h.932a.62.62 0 0 1-.466.216m6.447-1.716H8.862V13h8.973zm1.5-5.052h1.492l.422 1.431h-1.914zm.846 6.776a.63.63 0 1 1 .002-1.26.63.63 0 0 1-.002 1.26m1.319-2.288a2.1 2.1 0 0 0-1.32-.47c-.3 0-.585.064-.845.177v-1.264H21.5z"/></svg>