<svg xmlns="http://www.w3.org/2000/svg" fill="#002466" viewBox="0 0 24 24"><path d="M14.064 1H1v12.5h13.064zM6.872 2.5h1.32v2.308h-1.32zm5.692 9.5H2.5V2.5h2.872v3.808h4.32V2.5h2.872zm3.221-10.33v1.619A9.53 9.53 0 0 1 21.5 12c0 5.238-4.262 9.5-9.5 9.5a9.44 9.44 0 0 1-8.229-4.75H6.5v-1.5H1v5.5h1.5v-3.195A10.93 10.93 0 0 0 12 23c6.065 0 11-4.935 11-11 0-4.601-2.899-8.748-7.215-10.33M6.842 9.331a.8.8 0 0 0-.233-.171.8.8 0 0 0-.279-.073v-.021a1 1 0 0 0 .233-.108.8.8 0 0 0 .2-.182 1 1 0 0 0 .142-.266 1.1 1.1 0 0 0 .054-.35 1 1 0 0 0-.078-.396.9.9 0 0 0-.223-.304 1 1 0 0 0-.347-.195 1.4 1.4 0 0 0-.458-.071q-.477 0-.775.193c-.298.193-.354.312-.467.55q-.048.087.044.141l.461.266q.103.054.157-.049a.6.6 0 0 1 .206-.233.53.53 0 0 1 .276-.071.35.35 0 0 1 .241.09q.1.09.1.257 0 .212-.162.317c-.162.105-.28.106-.515.106h-.087q-.076 0-.076.076v.564q0 .076.076.076h.087q.368 0 .542.098a.32.32 0 0 1 .173.298q0 .385-.547.385-.196 0-.339-.033a1.2 1.2 0 0 1-.247-.081q-.114-.06-.146.07l-.146.548q-.027.087.055.13.135.07.36.122a2.3 2.3 0 0 0 .501.051q.353 0 .621-.081a1.3 1.3 0 0 0 .45-.23.96.96 0 0 0 .273-.358 1.1 1.1 0 0 0 .092-.458.9.9 0 0 0-.06-.347.8.8 0 0 0-.159-.26M9.549 7.3a1.47 1.47 0 0 0-1.095 0 1.2 1.2 0 0 0-.469.339 1.8 1.8 0 0 0-.328.602q-.125.369-.125.889c0 .52.042.643.125.889a1.8 1.8 0 0 0 .328.602 1.2 1.2 0 0 0 .469.339 1.47 1.47 0 0 0 1.095 0 1.2 1.2 0 0 0 .469-.339q.203-.233.328-.602c.125-.369.125-.542.125-.889a2.8 2.8 0 0 0-.125-.889 1.8 1.8 0 0 0-.328-.602 1.2 1.2 0 0 0-.469-.339m-.07 2.35a1.3 1.3 0 0 1-.105.344.5.5 0 0 1-.163.192q-.095.06-.208.06a.3.3 0 0 1-.209-.06.5.5 0 0 1-.163-.192 1.3 1.3 0 0 1-.105-.344 3 3 0 0 1-.038-.521q0-.612.144-.875c.144-.263.22-.263.372-.263s.275.088.371.263.144.467.144.875a3 3 0 0 1-.038.521z"/></svg>