<svg xmlns="http://www.w3.org/2000/svg" fill="#002466" viewBox="0 0 24 24"><path d="M12.75 3.288V1h-1.5v2.288c-5.095.386-9.125 4.645-9.125 9.837A9.89 9.89 0 0 0 12 23a9.89 9.89 0 0 0 9.875-9.875c0-5.192-4.03-9.451-9.125-9.837M12 21.5c-4.618 0-8.375-3.757-8.375-8.375S7.382 4.75 12 4.75s8.375 3.757 8.375 8.375S16.618 21.5 12 21.5m4.41-9.184 1.438-1.438-1.061-1.061-2.499 2.499h-1.48v-1.48l2.499-2.498-1.061-1.061-1.438 1.438V6.346h-1.5v2.368L9.871 7.277l-1.06 1.06 2.498 2.498v1.48H9.83L7.331 9.817 6.27 10.878l1.438 1.438H5.514v1.5h2.194l-1.437 1.438 1.061 1.061 2.498-2.498h1.48v1.48l-2.498 2.498 1.061 1.061 1.438-1.437v2.487h1.5v-2.487l1.438 1.438 1.061-1.061-2.499-2.498v-1.48h1.481l2.498 2.498 1.061-1.061-1.437-1.437h2.076v-1.5h-2.08z"/></svg>