<svg xmlns="http://www.w3.org/2000/svg" fill="#002466" viewBox="0 0 24 24"><path d="M17.937 14.823c1.599 0 2.9-1.301 2.9-2.9s-1.3-2.9-2.9-2.9-2.899 1.301-2.899 2.9 1.3 2.9 2.899 2.9m0-4.3a1.4 1.4 0 0 1 0 2.8 1.4 1.4 0 0 1 0-2.8m1.975 5.5h-3.949a3.09 3.09 0 0 0-3.088 3.089v1.068h1.5v-1.068a1.59 1.59 0 0 1 1.589-1.589h3.949a1.59 1.59 0 0 1 1.589 1.589v1.068H23v-1.068a3.09 3.09 0 0 0-3.088-3.089M8.197 3.821c-2.206 0-4 1.795-4 4.001s1.795 4.001 4 4.001a4.01 4.01 0 0 0 4.001-4.001 4.006 4.006 0 0 0-4.001-4.001m0 6.502c-1.379 0-2.5-1.122-2.5-2.501s1.122-2.501 2.5-2.501 2.501 1.122 2.501 2.501-1.122 2.501-2.501 2.501M1 18.197v1.982h1.5v-1.982a2.97 2.97 0 0 1 2.963-2.964h6.436v-1.5H5.463A4.47 4.47 0 0 0 1 18.197"/></svg>