<svg xmlns="http://www.w3.org/2000/svg" viewBox="0 0 24 24"><path fill="#002466" d="M6.875 12.426c1.698 0 3.08-1.381 3.08-3.08s-1.382-3.079-3.08-3.079-3.08 1.381-3.08 3.08 1.382 3.08 3.08 3.08m0-4.659a1.58 1.58 0 0 1 0 3.16 1.58 1.58 0 0 1 0-3.16m10.25 4.658c1.698 0 3.08-1.381 3.08-3.08s-1.382-3.079-3.08-3.079-3.08 1.381-3.08 3.08 1.382 3.08 3.08 3.08m0-4.659a1.58 1.58 0 0 1 0 3.16 1.58 1.58 0 0 1 0-3.16m2.485 5.643h-4.97c-1.072 0-2.018.51-2.64 1.29a3.37 3.37 0 0 0-2.64-1.29H4.39A3.395 3.395 0 0 0 1 16.801v.932h1.5V16.8c0-1.042.848-1.89 1.89-1.89h4.97c1.042 0 1.89.848 1.89 1.89v.932h1.5V16.8c0-1.042.848-1.89 1.89-1.89h4.97c1.042 0 1.89.848 1.89 1.89v.932H23V16.8a3.394 3.394 0 0 0-3.39-3.39"/></svg>