<svg xmlns="http://www.w3.org/2000/svg" viewBox="0 0 24 24"><path fill="#002466" d="m23 21.942-5.312-5.312c1.737-.87 3.32-2.186 4.645-3.877l.59-.753-.59-.753h-.001c-1.766-2.254-3.99-3.844-6.433-4.597a13.2 13.2 0 0 0-7.8 0c-.097.031-.191.07-.288.103L2.058 1 1 2.058 6.312 7.37c-1.738.87-3.32 2.186-4.644 3.877L1.077 12l.591.753c1.766 2.255 3.99 3.844 6.432 4.596 1.275.393 2.587.59 3.9.59s2.624-.197 3.9-.59c.097-.03.192-.07.289-.103L21.942 23zM15.46 8.08c2.087.644 4.006 1.997 5.56 3.92-1.277 1.58-2.802 2.767-4.462 3.5l-1.99-1.99c.263-.445.424-.957.424-1.51 0-.467-.105-.915-.312-1.33A2.98 2.98 0 0 0 12 9.008c-.553 0-1.065.161-1.51.424L9.012 7.954a11.7 11.7 0 0 1 6.447.126m-4.9 3.538 1.822 1.822a1.5 1.5 0 0 1-.382.056A1.5 1.5 0 0 1 10.504 12c0-.133.023-.26.056-.382m1.058-1.058c.122-.033.249-.056.382-.056.572 0 1.086.319 1.34.832h.001q.154.312.155.664c0 .133-.023.26-.056.382zM8.54 15.92c-2.087-.644-4.006-1.997-5.56-3.92 1.277-1.58 2.802-2.767 4.462-3.5l1.99 1.99A2.96 2.96 0 0 0 9.008 12 2.995 2.995 0 0 0 12 14.992c.553 0 1.065-.161 1.51-.424l1.478 1.478c-2.123.56-4.34.523-6.448-.127"/></svg>