<svg xmlns="http://www.w3.org/2000/svg" fill="#002466" viewBox="0 0 24 24"><path d="M8.306 1v7.723h1.5V2.5H21V23h1.5V1zm5.391 11.989a3.08 3.08 0 0 0-3.076-3.076 3.08 3.08 0 0 0-3.077 3.076 3.08 3.08 0 0 0 3.077 3.076 3.08 3.08 0 0 0 3.076-3.076m-4.653 0a1.58 1.58 0 0 1 1.577-1.576 1.58 1.58 0 0 1 1.576 1.576 1.58 1.58 0 0 1-1.576 1.576 1.58 1.58 0 0 1-1.577-1.576m9.948.61-1.342-.491a1.135 1.135 0 0 0-1.422.611c-.643 1.443-2.122 2.785-3.88 3.526h-3.48c-1.763-.725-3.198-2.033-3.854-3.521a1.137 1.137 0 0 0-1.424-.616l-1.342.491a1.15 1.15 0 0 0-.654.62 1.12 1.12 0 0 0-.005.883c.944 2.222 2.907 4.186 5.307 5.334V23h1.5v-3.545l-.457-.194c-2.123-.902-3.893-2.525-4.807-4.389l.653-.239c.881 1.75 2.601 3.253 4.665 4.061l.132.052h4.06l.135-.054c2.074-.834 3.798-2.336 4.677-4.059l.655.239c-.914 1.864-2.685 3.487-4.81 4.391l-.457.194V23h1.5v-2.562c2.402-1.148 4.367-3.113 5.31-5.335a1.13 1.13 0 0 0-.003-.883 1.15 1.15 0 0 0-.656-.621z"/></svg>