<svg xmlns="http://www.w3.org/2000/svg" viewBox="0 0 24 24"><path fill="#002466" d="m19.688 14.502-.36-.144a.92.92 0 0 1-.566-.706l-.981-6.015a5.79 5.79 0 0 0-5.03-4.823V1h-1.5v1.819c-2.418.33-4.431 2.151-4.929 4.593l-1.265 6.196a.93.93 0 0 1-.612.69 2.42 2.42 0 0 0-1.654 2.296v.456c0 1.121.76 2.088 1.849 2.353a31 31 0 0 0 4.896.769v.364A2.47 2.47 0 0 0 12 23a2.47 2.47 0 0 0 2.465-2.465v-.364a31 31 0 0 0 4.896-.769 2.415 2.415 0 0 0 1.849-2.353v-.3a2.41 2.41 0 0 0-1.521-2.248zm-13.163-.594L7.79 7.711a4.34 4.34 0 0 1 4.239-3.461A4.31 4.31 0 0 1 16.3 7.879l.981 6.015c.044.269.148.517.275.752a47.3 47.3 0 0 1-11.33-.002 2.4 2.4 0 0 0 .299-.735zm6.439 6.626a.966.966 0 0 1-1.93 0v-.283l.965.029.965-.029zm6.745-3.485a.92.92 0 0 1-.702.895 29.8 29.8 0 0 1-14.016 0 .92.92 0 0 1-.702-.895v-.456c0-.256.113-.486.289-.656 2.426.367 4.868.551 7.31.551s4.885-.188 7.311-.555a.91.91 0 0 1 .51.815z"/></svg>