<svg xmlns="http://www.w3.org/2000/svg" fill="#002466" viewBox="0 0 24 24"><path d="M20 4.75H1v11.516h19zM2.5 6.25h12.586v8.516H2.5zm16 8.516h-1.914V6.25H18.5zM6.379 8.801a.3.3 0 0 0-.114.025l-.866.351q-.089.03-.059.124l.158.475q.03.089.123.059l.47-.178v2.458q0 .099.099.099h.668q.099 0 .099-.099V8.9q0-.099-.099-.099zm3.429.347a1.1 1.1 0 0 0-.428-.309 1.3 1.3 0 0 0-.499-.097 1.3 1.3 0 0 0-.5.097 1.1 1.1 0 0 0-.428.309 1.6 1.6 0 0 0-.299.549 2.6 2.6 0 0 0-.114.811q0 .475.114.811a1.6 1.6 0 0 0 .299.549q.185.213.428.309a1.34 1.34 0 0 0 .999 0q.242-.097.428-.309a1.6 1.6 0 0 0 .299-.549q.114-.336.114-.811c0-.475-.038-.587-.114-.811a1.6 1.6 0 0 0-.299-.549m-.492 1.835a1.1 1.1 0 0 1-.097.314.43.43 0 0 1-.148.176.35.35 0 0 1-.19.054.35.35 0 0 1-.191-.054q-.087-.054-.148-.176c-.061-.122-.074-.185-.097-.314s-.035-.287-.035-.475q0-.56.131-.799c.131-.239.2-.24.339-.24s.251.08.338.24.131.426.131.799q0 .282-.035.475zm3.907-1.287a1.6 1.6 0 0 0-.299-.549 1.1 1.1 0 0 0-.428-.309 1.3 1.3 0 0 0-.499-.097 1.3 1.3 0 0 0-.5.097 1.1 1.1 0 0 0-.428.309 1.6 1.6 0 0 0-.299.549 2.6 2.6 0 0 0-.114.811 2.5 2.5 0 0 0 .114.811 1.6 1.6 0 0 0 .299.549q.185.213.428.309a1.34 1.34 0 0 0 .999 0q.242-.098.428-.309a1.6 1.6 0 0 0 .299-.549q.114-.336.114-.811c0-.475-.038-.587-.114-.811m-.791 1.286a1.1 1.1 0 0 1-.097.314.44.44 0 0 1-.148.176.35.35 0 0 1-.19.054.35.35 0 0 1-.191-.054.43.43 0 0 1-.148-.176 1.1 1.1 0 0 1-.097-.314 3 3 0 0 1-.035-.475q0-.56.131-.799c.131-.239.2-.24.339-.24s.251.08.338.24.131.426.131.799q0 .282-.035.475zM21.5 7v10.75H2.75v1.5H23V7z"/></svg>