<svg xmlns="http://www.w3.org/2000/svg" viewBox="0 0 24 24"><path fill="#002466" d="M15.397 7.632a2.33 2.33 0 0 0-2.106.418l-.178.143a1.645 1.645 0 0 1-2.125-.055 2.32 2.32 0 0 0-2.18-.502L1 9.834l.536.85a12.31 12.31 0 0 0 10.467 5.777 12.31 12.31 0 0 0 10.467-5.777l.53-.843zM9.215 9.08a.83.83 0 0 1 .779.179 3.14 3.14 0 0 0 4.057.105l.178-.143a.84.84 0 0 1 .751-.149l4.435 1.289a24.96 24.96 0 0 1-14.55-.057zM4.2 11.662a26.5 26.5 0 0 0 8.039 1.276c2.468 0 4.934-.364 7.328-1.054a10.8 10.8 0 0 1-7.563 3.076c-2.99 0-5.779-1.203-7.803-3.298z"/></svg>