<svg xmlns="http://www.w3.org/2000/svg" fill="#002466" viewBox="0 0 24 24"><path d="M20.875 21.499a3.13 3.13 0 0 1-3.125-3.127 4.633 4.633 0 0 0-4.625-4.629H11.5V6.068L6.375 1 1.25 6.068V23h1.5v-4.503H10V23h1.5v-7.756h1.625a3.13 3.13 0 0 1 3.125 3.127A4.633 4.633 0 0 0 20.875 23h1.875v-1.501zM6.375 3.11 10 6.695v7.047H2.75V6.695zM10 16.995H2.75v-1.751H10zm-3.625-5.004c1.24 0 2.25-1.01 2.25-2.252s-1.01-2.252-2.25-2.252-2.25 1.01-2.25 2.252 1.01 2.252 2.25 2.252m0-3.002a.75.75 0 1 1 0 1.501.75.75 0 1 1 0-1.501"/></svg>