<svg xmlns="http://www.w3.org/2000/svg" fill="#002466" viewBox="0 0 24 24"><path d="M22.23 8.573c-.992-.992-2.721-.992-3.713 0l-.22.219-.226-.226a2.62 2.62 0 0 0-3.701 0 2.635 2.635 0 0 0-.007 3.72l3.934 3.933 3.933-3.933A2.6 2.6 0 0 0 23 10.43a2.6 2.6 0 0 0-.77-1.857m-1.061 2.653-2.872 2.873-2.873-2.873a1.133 1.133 0 0 1 .007-1.599 1.117 1.117 0 0 1 1.58 0l1.286 1.286 1.28-1.28a1.13 1.13 0 0 1 1.592 0 1.12 1.12 0 0 1 0 1.593M8 12.273c1.98 0 3.591-1.611 3.591-3.591S9.98 5.091 8 5.091 4.409 6.702 4.409 8.682 6.02 12.273 8 12.273m0-5.682c1.153 0 2.091.938 2.091 2.091S9.153 10.773 8 10.773s-2.091-.938-2.091-2.091S6.847 6.591 8 6.591m3.03 7.212H4.97A3.975 3.975 0 0 0 1 17.773v1.136h1.5v-1.136a2.47 2.47 0 0 1 2.47-2.47h6.061a2.473 2.473 0 0 1 2.47 2.47v1.136H15v-1.136a3.975 3.975 0 0 0-3.97-3.97"/></svg>