<svg xmlns="http://www.w3.org/2000/svg" fill="#002466" viewBox="0 0 24 24"><path d="M18.642 1H5.358A3.36 3.36 0 0 0 2 4.354v8.309a3.36 3.36 0 0 0 3.358 3.355h6.805V14.52H5.358A1.86 1.86 0 0 1 3.5 12.663V4.354a1.86 1.86 0 0 1 1.858-1.856h13.283A1.86 1.86 0 0 1 20.5 4.354v8.309a1.86 1.86 0 0 1-1.858 1.857v1.498A3.36 3.36 0 0 0 22 12.663V4.354A3.36 3.36 0 0 0 18.642 1M5.908 17.674H12v1.498H5.908zm10.798-9.045-.927.978v8.416c-.119-.017-.238-.037-.361-.037s-.243.019-.362.037V9.607l-.926-.978V6.521h-1.5v2.704l.926.978v8.624a2.48 2.48 0 0 0-.648 1.666 2.51 2.51 0 1 0 5.021 0c0-.642-.25-1.222-.648-1.666v-8.623l.927-.978V6.521h-1.5v2.108zm-1.288 12.873a1.01 1.01 0 1 1 1.01-1.009 1.01 1.01 0 0 1-1.01 1.009"/></svg>