<svg xmlns="http://www.w3.org/2000/svg" fill="#002466" viewBox="0 0 24 24"><path d="M20.25 2.5V1H3.75v1.5h.719v19H3.75V23h16.5v-1.5h-.719v-19zm-2.219 19H5.969V20h12.063v1.5zm0-3H5.969v-13H16.5V4H5.969V2.5h12.063v16zm-3.774-9.035a4.17 4.17 0 0 0-3.322.287l-1.258.673L6.87 9.12l.959 1.92a2.1 2.1 0 0 1 .216.771l.008.19-.008.188a2.1 2.1 0 0 1-.216.771l-.959 1.92 2.807-1.305 1.257.672a4.18 4.18 0 0 0 3.323.287 4.18 4.18 0 0 0 2.494-2.217l.148-.318-.148-.318a4.18 4.18 0 0 0-2.494-2.217zm-.472 3.646a2.7 2.7 0 0 1-2.143-.185L9.912 12l1.73-.926a2.7 2.7 0 0 1 2.143-.185A2.7 2.7 0 0 1 15.218 12a2.7 2.7 0 0 1-1.433 1.111"/></svg>