<svg xmlns="http://www.w3.org/2000/svg" viewBox="0 0 24 24"><path fill="#002466" d="M23 6.481V5.019a3.25 3.25 0 0 0-3.243-3.25H5.973a3.25 3.25 0 0 0-3.243 3.25v1.462h1.374v5.399a2.644 2.644 0 0 0-2.381 2.625 2.63 2.63 0 0 0 .543 1.592v2.978A2.92 2.92 0 0 0 1 21.481v.75h21.313v-1.5h-.681V6.481zM5.973 3.269h13.783a1.75 1.75 0 0 1 1.746 1.712H4.227a1.75 1.75 0 0 1 1.746-1.712m1.955 6.58a1.09 1.09 0 0 1 1.089-1.091 1.09 1.09 0 1 1 0 2.182 1.09 1.09 0 0 1-1.089-1.091m-1.107 1.468.731.733-.939.942-.732-.733zM4.37 13.353a1.153 1.153 0 0 1 0 2.305 1.153 1.153 0 0 1 0-2.305m-.607 5.204v-1.399h1.034v1.399zM2.71 20.731a1.42 1.42 0 0 1 1.208-.674h.723a1.42 1.42 0 0 1 1.207.674zm4.74 0a2.93 2.93 0 0 0-1.156-1.656v-1.829h13.841v3.485zm12.684-4.985H6.696a2.6 2.6 0 0 0 .299-1.016l2.313-2.318a2.57 2.57 0 0 0 1.76-1.003l.904.523-.858 1.491 2.997 1.732.748-1.299-1.701-.983.969-1.683 1.701.983.748-1.3-2.999-1.732-.858 1.491-1.131-.654c.002-.043.013-.084.013-.128a2.59 2.59 0 0 0-2.586-2.591 2.58 2.58 0 0 0-2.556 2.298l-.86.861V6.481h14.534v9.265z"/></svg>