<svg xmlns="http://www.w3.org/2000/svg" viewBox="0 0 24 24"><path fill="#002466" d="m18.317 9.139-1.692-.276V7.25c0-1.24-1.01-2.25-2.25-2.25s-2.25 1.01-2.25 2.25v2.919a2.2 2.2 0 0 0-2.366.465 2.17 2.17 0 0 0-.27 2.731l1.94 2.91a2.74 2.74 0 0 0 2.288 1.225h3.796a2.755 2.755 0 0 0 2.728-2.41l.362-2.895a2.743 2.743 0 0 0-2.286-3.056m.436 5.766A1.25 1.25 0 0 1 17.513 16h-3.796c-.42 0-.808-.208-1.04-.557l-1.94-2.91a.665.665 0 0 1 1.022-.839l.586.586a.751.751 0 0 0 1.28-.53v-4.5c0-.413.337-.75.75-.75s.75.337.75.75v2.251a.75.75 0 0 0 .63.74l2.321.378a1.25 1.25 0 0 1 1.04 1.39zM15.875 19.5h1.5v.25a3.254 3.254 0 0 1-3.25 3.25h-7.5a3.254 3.254 0 0 1-3.25-3.25V4.25A3.254 3.254 0 0 1 6.625 1h7.5a3.254 3.254 0 0 1 3.25 3.25h-1.5c0-.965-.785-1.75-1.75-1.75h-7.5c-.965 0-1.75.785-1.75 1.75v15.5c0 .965.785 1.75 1.75 1.75h7.5c.965 0 1.75-.785 1.75-1.75zm-3.5 0h-4V18h4z"/></svg>