<svg xmlns="http://www.w3.org/2000/svg" viewBox="0 0 24 24"><path fill="#002466" d="m19.299 11.736-.311-3.906a3.25 3.25 0 0 0-3.905-2.903l-4.464.936a1.4 1.4 0 0 1-.387.037l-1.93-.031h-.043c-1.742 0-3.08 1.66-3.241 3.228l-.272 2.628c-2.479.66-3.746 1.6-3.746 2.8 0 2.375 5.346 4.621 11 4.621s11-2.246 11-4.621c0-1.193-1.253-2.128-3.701-2.787zM6.511 9.249c.093-.9.879-1.866 1.769-1.881l1.93.031c.24-.003.483-.02.719-.069l4.463-.936a1.753 1.753 0 0 1 2.102 1.559l.342 4.291a1.51 1.51 0 0 1-1.171 1.595l-.035.008a21.5 21.5 0 0 1-9.258 0 1.5 1.5 0 0 1-1.169-1.621zM12 17.643c-5.768 0-9.5-2.318-9.5-3.121 0-.127.446-.716 2.332-1.266a3 3 0 0 0 2.213 2.054 23 23 0 0 0 4.955.54 23 23 0 0 0 4.955-.54l.035-.008a3.01 3.01 0 0 0 2.207-2.038c1.862.548 2.302 1.132 2.302 1.258 0 .802-3.732 3.121-9.5 3.121z"/></svg>