<svg xmlns="http://www.w3.org/2000/svg" fill="#002466" viewBox="0 0 24 24"><path d="M15.5 2.5V1H14v1.5h-4V1H8.5v1.5H3V23h18V2.5zM8.5 4v1.5H10V4h4v1.5h1.5V4h4v3.75h-15V4zm-4 17.5V9.25h15V21.5zm5.372-6.692v-.036a1.45 1.45 0 0 0 .8-.544q.306-.409.306-.976 0-.711-.472-1.137c-.472-.426-.739-.427-1.272-.427q-.684 0-1.169.292c-.485.292-.581.487-.773.877q-.035.063-.018.117c.017.054.036.066.072.09l.611.36q.062.036.116.022c.054-.014.069-.038.1-.085q.161-.306.391-.454c.23-.148.334-.148.544-.148q.323 0 .518.193c.195.193.193.301.193.517q0 .44-.342.67c-.342.23-.561.229-.998.229H8.37q-.045 0-.072.023c-.027.023-.026.037-.026.067v.791q0 .045.026.072c.026.027.042.027.072.027h.117q.719 0 1.079.211a.69.69 0 0 1 .359.634q0 .413-.27.62c-.27.207-.444.207-.791.207a3 3 0 0 1-.54-.049 2 2 0 0 1-.477-.158q-.072-.036-.126-.013c-.054.023-.062.049-.081.103l-.197.747q-.019.054.004.104c.023.05.041.058.077.076a2.4 2.4 0 0 0 .606.202 3.8 3.8 0 0 0 .778.077q1.052 0 1.649-.495c.597-.495.598-.779.598-1.349q0-.611-.359-1.007c-.359-.396-.549-.414-.926-.45zm4.532-3.12q-1.078 0-1.708.845c-.63.845-.629 1.352-.629 2.365s.209 1.801.629 2.365.989.845 1.708.845 1.28-.282 1.7-.845.629-1.352.629-2.365-.21-1.801-.629-2.365-.986-.845-1.7-.845m.796 4.788q-.274.535-.796.535c-.522 0-.614-.18-.8-.539s-.278-.884-.278-1.574q0-1.052.278-1.596c.278-.544.452-.544.8-.544s.613.182.796.544.274.895.274 1.596q0 1.043-.274 1.578"/></svg>