<svg xmlns="http://www.w3.org/2000/svg" fill="#002466" viewBox="0 0 24 24"><path d="M12 9.249c1.24 0 2.25-1.009 2.25-2.25s-1.01-2.25-2.25-2.25-2.25 1.009-2.25 2.25 1.01 2.25 2.25 2.25m0-3a.75.75 0 1 1 0 1.5.75.75 0 1 1 0-1.5M7.375 9.374A2.88 2.88 0 0 0 4.5 12.249a2.88 2.88 0 0 0 2.875 2.875 2.88 2.88 0 0 0 2.875-2.875 2.88 2.88 0 0 0-2.875-2.875m0 4.25c-.758 0-1.375-.617-1.375-1.375s.617-1.375 1.375-1.375 1.375.617 1.375 1.375-.617 1.375-1.375 1.375m9.25-4.25a2.88 2.88 0 0 0-2.875 2.875 2.88 2.88 0 0 0 2.875 2.875 2.88 2.88 0 0 0 2.875-2.875 2.88 2.88 0 0 0-2.875-2.875m0 4.25c-.758 0-1.375-.617-1.375-1.375s.617-1.375 1.375-1.375S18 11.491 18 12.249s-.617 1.375-1.375 1.375M12 15.249c-1.24 0-2.25 1.009-2.25 2.25s1.01 2.25 2.25 2.25 2.25-1.009 2.25-2.25-1.01-2.25-2.25-2.25m0 3a.75.75 0 1 1 0-1.5.75.75 0 1 1 0 1.5m9.235-11.505 1.263-1.628L18.383 1 16.48 2.479a10.76 10.76 0 0 0-8.959 0L5.617 1 1.502 5.116l1.263 1.628a10.73 10.73 0 0 0-1.515 5.505C1.25 18.177 6.072 23 12 23s10.75-4.823 10.75-10.751c0-1.948-.522-3.841-1.515-5.505M12 21.5c-5.101 0-9.25-4.15-9.25-9.251a9.2 9.2 0 0 1 1.554-5.134l.3-.449-1.105-1.424 2.244-2.244 1.606 1.248.426-.221a9.26 9.26 0 0 1 8.451 0l.426.221 1.606-1.248 2.244 2.244-1.105 1.424.3.449a9.23 9.23 0 0 1 1.554 5.134c0 5.101-4.149 9.251-9.25 9.251z"/></svg>