<svg xmlns="http://www.w3.org/2000/svg" viewBox="0 0 24 24"><path fill="#002466" d="M10.54 13.984q-.1 0-.1.1v.51q0 .1.1.1h.225v2.64q0 .1.1.1h.67q.1 0 .1-.1v-.91h.266q.745 0 1.145-.333.4-.332.4-.923c0-.591-.125-.685-.377-.885q-.378-.3-1.137-.3zm2.025 1.227q-.001.255-.16.392-.159.138-.5.138h-.271v-1.05h.275q.34 0 .498.127t.158.393"/><path fill="#002466" d="M13.561 1H3.5v22h17V7.939zM14 3.561 17.939 7.5H14zM19 21.5H5v-19h7.5V9H19z"/><path fill="#002466" d="M8.716 16.685v-.645h.975q.1 0 .1-.1v-.495q0-.1-.1-.1h-.975v-.65H9.86q.1 0 .1-.1v-.51q0-.1-.1-.1H7.944q-.1 0-.1.1v3.25q0 .1.1.1h1.971q.1 0 .1-.1v-.55q0-.1-.1-.1zm5.744-.027a1.5 1.5 0 0 1-.275-.163q-.09-.08-.145.03l-.266.49q-.039.075.02.13.141.126.404.237.261.112.652.113.325 0 .568-.087a1.2 1.2 0 0 0 .408-.235 1 1 0 0 0 .246-.342 1.1 1.1 0 0 0 .082-.415 1 1 0 0 0-.078-.422 1 1 0 0 0-.203-.292 1.1 1.1 0 0 0-.361-.245l-.383-.155a1.6 1.6 0 0 1-.305-.153.26.26 0 0 1-.125-.232.23.23 0 0 1 .084-.192.36.36 0 0 1 .227-.067q.129 0 .242.077a.6.6 0 0 1 .178.193q.028.055.063.065t.086-.015l.486-.24q.089-.04.049-.13a1.17 1.17 0 0 0-.42-.502q-.27-.177-.66-.177-.28 0-.502.075t-.381.212a.95.95 0 0 0-.242.33 1.05 1.05 0 0 0-.084.428 1 1 0 0 0 .072.4 1 1 0 0 0 .203.29q.157.16.363.255l.379.163a1.6 1.6 0 0 1 .297.155q.12.082.121.228a.24.24 0 0 1-.098.203q-.098.073-.312.072l.001-.005a.9.9 0 0 1-.39-.077"/></svg>