<svg xmlns="http://www.w3.org/2000/svg" fill="#002466" viewBox="0 0 24 24"><path d="M20.573 5.408V3.5h-5.312v1.908h-2.426v11.214H23V5.408zM16.76 5h2.315v.408H16.76zm4.742 10.123h-7.167V6.908h.927v5.714h1.499V6.908h2.315v5.714h1.499V6.908h.928v8.214zm-.767 3.377h-.85a.743.743 0 0 0 .686-.737.75.75 0 0 0-.749-.75.75.75 0 0 0-.749.75c0 .392.304.704.686.737h-3.685a.743.743 0 0 0 .686-.737.75.75 0 0 0-.749-.75.75.75 0 0 0-.749.75c0 .392.303.704.686.737H9.494v-7.75h1.998V1H1v9.75h1.998V23h17.737c1.239 0 2.248-1.009 2.248-2.25s-1.009-2.25-2.248-2.25M2.499 9.25V2.5h7.494v6.75zM7.995 21.5H4.497V10.75h3.497V21.5zm12.74 0H9.494V20h11.242a.75.75 0 1 1 0 1.5z"/></svg>