<svg xmlns="http://www.w3.org/2000/svg" fill="#002466" viewBox="0 0 24 24"><path d="M19.75 10.82c0-1.286-.99-2.335-2.25-2.462V4.247a1.25 1.25 0 0 0-.628-1.081 1.25 1.25 0 0 0-1.257.008L9.796 6.596H5.25C2.906 6.596 1 8.491 1 10.82c0 1.592.901 2.965 2.214 3.684L4.54 19.35A2.25 2.25 0 0 0 6.712 21a2.3 2.3 0 0 0 .59-.079 2.24 2.24 0 0 0 1.365-1.054 2.22 2.22 0 0 0 .215-1.697l-.859-3.126h1.773l5.818 3.422a1.25 1.25 0 0 0 .636.173c.215 0 .43-.055.621-.165a1.25 1.25 0 0 0 .629-1.081v-4.112c1.26-.127 2.25-1.176 2.25-2.462zM5.25 8.096h4v5.448h-4c-1.517 0-2.75-1.222-2.75-2.724s1.233-2.724 2.75-2.724m2.185 10.472a.72.72 0 0 1-.07.555.74.74 0 0 1-.455.35.75.75 0 0 1-.922-.519l-1.08-3.944c.115.009.225.034.342.034h1.217zM16 16.954l-5.25-3.088v-6.09L16 4.688zm1.5-5.196V9.883c.428.112.75.48.75.937s-.322.825-.75.937zM21 10.07h2v1.5h-2zm-1.375-3.19 2.496-1.467.76 1.293-2.496 1.467zm0 7.88.76-1.293 2.495 1.467-.76 1.293z"/></svg>