<svg xmlns="http://www.w3.org/2000/svg" viewBox="0 0 24 24"><path fill="#002466" d="M11.186 14.608a.9.9 0 0 1 .714-.339q.357 0 .56.168c.204.168.243.266.322.462q.05.14.189.084l.749-.252q.126-.049.084-.168-.071-.26-.217-.5c-.146-.24-.224-.304-.375-.428s-.334-.223-.546-.297-.458-.112-.738-.112q-.434 0-.848.146a2 2 0 0 0-.731.455 2.3 2.3 0 0 0-.514.777q-.196.469-.196 1.12c0 .651.062.815.186 1.13.108.292.277.557.497.777.204.202.45.355.72.449q.412.143.865.144.292.002.58-.05.235-.043.46-.122a2 2 0 0 0 .577-.326c.06-.05.072-.105.035-.175l-.308-.63q-.07-.14-.203-.057-.141.105-.371.196c-.23.091-.343.091-.567.091q-.266 0-.49-.084a1 1 0 0 1-.388-.266 1.3 1.3 0 0 1-.26-.462 2.1 2.1 0 0 1-.094-.673q0-.363.084-.626a1.3 1.3 0 0 1 .224-.435zm7.256-.714a2.1 2.1 0 0 0-.771-.497q-.452-.172-1.018-.171c-.566.001-.72.057-1.022.171a2.08 2.08 0 0 0-1.257 1.285 3 3 0 0 0-.171 1.043q0 .58.17 1.043c.106.294.272.562.488.787.216.222.479.392.77.497a2.9 2.9 0 0 0 1.022.173q.567 0 1.018-.173a2.1 2.1 0 0 0 .77-.497 2.2 2.2 0 0 0 .487-.787q.168-.462.168-1.043c0-.58-.056-.735-.168-1.043s-.274-.57-.486-.788m-.91 2.895q-.326.364-.878.364-.561.001-.886-.364c-.325-.365-.326-.597-.326-1.063s.109-.832.326-1.082.512-.374.886-.374q.552 0 .878.374c.326.374.325.61.325 1.082s-.108.821-.325 1.063m3.503 1.96h-.82v-.017l.33-.34.182-.194a2 2 0 0 0 .178-.242 1.4 1.4 0 0 0 .137-.29 1 1 0 0 0 .056-.343.9.9 0 0 0-.06-.328.7.7 0 0 0-.174-.263.8.8 0 0 0-.281-.174 1.1 1.1 0 0 0-.384-.063 1.2 1.2 0 0 0-.316.043.8.8 0 0 0-.271.135.9.9 0 0 0-.22.236 1.2 1.2 0 0 0-.148.354.07.07 0 0 0 .058.098l.425.127q.081.024.102-.062a.56.56 0 0 1 .11-.236q.073-.086.208-.086.127 0 .18.083a.4.4 0 0 1 .053.211.65.65 0 0 1-.092.341 2 2 0 0 1-.255.328l-.69.744a.13.13 0 0 0-.04.098v.37q0 .084.082.083h1.652q.082 0 .082-.082v-.45q0-.08-.082-.08zm-7.761.288a2.215 2.215 0 0 1-1.463 2.34c-1.147.398-2.406-.21-2.794-1.323l-1.984-7.87c-.077-.575-.072-2.534 3.185-3.62 1.275-.425 2.25-.433 2.82-.021.514.37.622 1.033.622 1.524 0 .824-.317 1.315-.685 1.883l-.151.235 1.27.799.14-.22c.414-.637.927-1.431.927-2.697 0-1.19-.442-2.164-1.244-2.742-.993-.715-2.397-.778-4.173-.185-3.455 1.151-4.434 3.463-4.198 5.24.3 2.26 1.963 7.864 2.044 8.135a3.71 3.71 0 0 0 4.714 2.279 3.72 3.72 0 0 0 2.459-3.935zM12.39 5.905a2.64 2.64 0 0 0 2.005.35 2.65 2.65 0 0 0 1.666-1.17 2.64 2.64 0 0 0 .35-2.005 2.664 2.664 0 0 0-3.176-2.016 2.65 2.65 0 0 0-1.666 1.17 2.64 2.64 0 0 0-.35 2.005 2.65 2.65 0 0 0 1.17 1.666m.446-2.867a1.15 1.15 0 0 1 .979-.538 1.16 1.16 0 0 1 .979 1.782 1.15 1.15 0 0 1-1.601.357 1.157 1.157 0 0 1-.357-1.601m-4.27 3.833q.24 0 .477-.053a2.19 2.19 0 0 0 1.656-2.61 2.19 2.19 0 0 0-2.61-1.656 2.17 2.17 0 0 0-1.37.961 2.17 2.17 0 0 0-.287 1.648 2.19 2.19 0 0 0 2.133 1.71m-.15-2.855a.68.68 0 0 1 .819.52.687.687 0 0 1-.52.818.68.68 0 0 1-.818-.52.685.685 0 0 1 .52-.818M6.605 8.6c.288-.452.383-1 .266-1.523-.243-1.086-1.326-1.772-2.41-1.53s-1.772 1.324-1.53 2.41a2.02 2.02 0 0 0 2.41 1.53A2 2 0 0 0 6.604 8.6m-1.591-.577a.517.517 0 1 1 .392-.62.52.52 0 0 1-.393.62"/></svg>