<svg xmlns="http://www.w3.org/2000/svg" fill="#002466" viewBox="0 0 24 24"><path d="M21 4.5H3V6h2v13.75A3.254 3.254 0 0 0 8.25 23h7.5A3.254 3.254 0 0 0 19 19.75V6h2zm-3.5 15.25c0 .965-.785 1.75-1.75 1.75h-7.5c-.965 0-1.75-.785-1.75-1.75V6h11zm-7.784-5.229h1.534V18.5h1.5v-1.615h1.534c1.24 0 2.25-1.009 2.25-2.25v-3.034H13.5c-.264 0-.514.054-.75.138v-.253c0-1.241-1.01-2.25-2.25-2.25H7.466v3.034c0 1.241 1.01 2.25 2.25 2.25zm3.784-1.419h1.534v1.534a.75.75 0 0 1-.75.75H12.75v-1.534a.75.75 0 0 1 .75-.75m-4.534-2.365H10.5a.75.75 0 0 1 .75.75v1.534H9.716a.75.75 0 0 1-.75-.75zM10 1h4v1.5h-4z"/></svg>