<svg xmlns="http://www.w3.org/2000/svg" fill="#002466" viewBox="0 0 24 24"><path d="M8 12.273c1.98 0 3.591-1.611 3.591-3.591S9.98 5.091 8 5.091 4.409 6.702 4.409 8.682 6.02 12.273 8 12.273m0-5.682c1.153 0 2.091.938 2.091 2.091S9.153 10.773 8 10.773s-2.091-.938-2.091-2.091S6.847 6.591 8 6.591m3.03 7.212H4.97A3.975 3.975 0 0 0 1 17.773v1.136h1.5v-1.136a2.47 2.47 0 0 1 2.47-2.47h6.061a2.473 2.473 0 0 1 2.47 2.47v1.136H15v-1.136a3.975 3.975 0 0 0-3.97-3.97M23 10.159h-3.25v-3.25h-1.5v3.25H15v1.5h3.25v3.25h1.5v-3.25H23z"/></svg>