<svg xmlns="http://www.w3.org/2000/svg" fill="#002466" viewBox="0 0 24 24"><path d="m13.302 10.85-1.052 2.251v7.911L13.334 23h5.177l1.084-1.987v-7.911l-1.052-2.251zM17.62 21.5h-3.396l-.413-.756h4.221l-.413.756zm.475-2.256H13.75v-4.707h3.216v-1.5h-3.03l.321-.687h3.331l.507 1.084v5.809zM1 23h9.798V10.914H1zm1.5-10.586h6.798V21.5H2.5zm1.619 1.291h3.56v1.5h-3.56zm0 2.54h3.56v1.5h-3.56zM18.73 1v6.504h-5.487L13.241 1H8.967l-.001 8.5h1.5l.001-7h1.274l.002 6.504h8.487V2.5h1.27V20h-.75v1.5H23V1z"/></svg>