<svg xmlns="http://www.w3.org/2000/svg" viewBox="0 0 24 24"><path fill="#002466" d="M21.742 7.959a5.24 5.24 0 0 0-1.53-3.422 5.256 5.256 0 0 0-7.425 0L12 5.324l-.787-.787a5.257 5.257 0 0 0-7.426 0c-.991.99-1.537 2.31-1.537 3.713s.546 2.722 1.537 3.713l4.918 4.918 1.06-1.06-4.917-4.918C4.14 10.195 3.75 9.253 3.75 8.25s.39-1.945 1.098-2.653a3.756 3.756 0 0 1 5.304 0L12 7.445l1.848-1.848a3.756 3.756 0 0 1 6.108 1.193c.167.398.265.818.288 1.25.005.099.003.216.001.314l-.002.146h1.5l.002-.12c.002-.13.004-.287-.003-.422"/><path fill="#002466" d="M17.389 14c-.568 0-.897.076-1.149.154a4 4 0 0 0-.066-.654H17.5a2 2 0 0 0 2-2v-2h-2a2 2 0 0 0-2 2v.523a3.74 3.74 0 0 0-3-1.523V12c1.205 0 2.185.955 2.24 2.147-.25-.076-.577-.147-1.129-.147-1.861 0-3.111 1.311-3.111 3.263 0 2.306.912 5.737 3.426 5.737.386 0 .675-.056.928-.104.216-.042.403-.078.646-.078s.43.036.646.078c.253.048.541.104.928.104 2.514 0 3.426-3.431 3.426-5.737C20.5 15.31 19.25 14 17.389 14M17 11.5a.5.5 0 0 1 .5-.5h.5v.5a.5.5 0 0 1-.5.5H17zm.074 10c-.243 0-.43-.036-.645-.077-.254-.049-.542-.105-.929-.105s-.675.056-.929.105a3 3 0 0 1-.645.077c-1.24 0-1.926-2.505-1.926-4.237 0-1.104.603-1.763 1.611-1.763.458 0 .626.058.84.13.236.082.528.182 1.049.182s.813-.1 1.05-.181c.213-.073.38-.131.839-.131 1.008 0 1.611.66 1.611 1.763 0 1.732-.686 4.237-1.926 4.237"/></svg>