<svg xmlns="http://www.w3.org/2000/svg" viewBox="0 0 24 24"><path fill="#002466" d="M18.137 7.07a7.21 7.21 0 0 0-6.897-5 7.23 7.23 0 0 0-7.217 6.432A4.28 4.28 0 0 0 1 12.57a4.255 4.255 0 0 0 4.25 4.25h12.88A4.875 4.875 0 0 0 23 11.95a4.883 4.883 0 0 0-4.863-4.88m-.007 8.25H5.25a2.753 2.753 0 0 1-2.75-2.75 2.76 2.76 0 0 1 2.34-2.718l.619-.091.021-.625a5.74 5.74 0 0 1 5.76-5.566A5.72 5.72 0 0 1 16.84 8l.138.59 1.152-.02a3.38 3.38 0 0 1 3.37 3.38 3.374 3.374 0 0 1-3.37 3.37M5.591 21.21l1.501-2.749 1.317.719-1.501 2.749zM10.466 21.21l1.501-2.749 1.317.719-1.501 2.749zM15.341 21.21l1.501-2.749 1.317.719-1.501 2.749z"/></svg>