<svg xmlns="http://www.w3.org/2000/svg" fill="#002466" viewBox="0 0 24 24"><path d="M20.25 2.5V1H3.75v1.5h.719v19H3.75V23h16.5v-1.5h-.719v-19zm-2.219 19H5.969V20h12.063v1.5zm0-3H5.969v-13H16.5V4H5.969V2.5h12.063v16zm-3.626-5.564-.159-.2-.462-.559c-.514-.577-1.233-.895-1.965-.858a2.5 2.5 0 0 0-1.135.336c-.442.252-.739.635-.978.943l-.259.322-.347.443c-.224.324-.931 1.46-.633 2.475.253.858 1.022 1.379 1.956 1.332.291-.016.536-.092.752-.159l.274-.078a2.26 2.26 0 0 1 1.051.027l.188.057a2.8 2.8 0 0 0 .719.153l.128.003c.571 0 1.075-.212 1.428-.606.382-.424.544-1.018.444-1.627-.106-.655-.426-1.292-1.004-2.003zm-.556 2.628c-.09.1-.243.114-.358.107a1.5 1.5 0 0 1-.348-.084l-.254-.076a3.7 3.7 0 0 0-.969-.127 4 4 0 0 0-.779.081 5 5 0 0 0-.411.113c-.151.047-.282.088-.386.093-.35.025-.41-.167-.437-.257-.058-.195.09-.709.429-1.2.08-.117.171-.223.261-.331l.296-.367c.181-.234.352-.455.535-.559a1 1 0 0 1 .453-.14c.313-.012.569.119.783.358l.406.493.169.211c.401.495.627.92.688 1.301.025.159-.003.299-.079.384zm-2.585-4.994a1.7 1.7 0 0 0 .746.178 1.6 1.6 0 0 0 .661-.145c.512-.233.93-.751 1.092-1.353.172-.644.057-1.691-.497-2.366-.362-.442-.862-.667-1.418-.631h-.001c-.47.031-.917.278-1.227.68-.441.574-.608 1.446-.427 2.221.152.65.532 1.152 1.07 1.415zm.546-2.722c.049-.064.108-.096.134-.098.049-.004.09-.004.163.085.195.238.277.764.207 1.026-.051.189-.174.335-.264.376-.021.011-.049.023-.128-.016-.16-.079-.234-.266-.269-.41-.089-.379.015-.78.156-.964z"/><path d="M9.506 11.989c.484-.384.749-1.042.675-1.678a2.44 2.44 0 0 0-1.002-1.646 1.65 1.65 0 0 0-1.378-.246c-.586.16-1.02.659-1.159 1.338-.188.934.182 2.083 1.257 2.472a1.8 1.8 0 0 0 .605.109 1.6 1.6 0 0 0 1.002-.35zm-1.395-1.931a.4.4 0 0 1 .088-.192c.023-.008.063-.01.14.041a.96.96 0 0 1 .352.578.39.39 0 0 1-.117.328c-.022.018-.058.044-.165.006-.306-.111-.344-.527-.297-.762zm8.066-1.644a1.65 1.65 0 0 0-1.374.262 2.44 2.44 0 0 0-.982 1.657c-.067.636.206 1.292.694 1.67a1.6 1.6 0 0 0 .986.338 1.8 1.8 0 0 0 .624-.116c1.071-.403 1.428-1.557 1.227-2.487-.146-.677-.585-1.171-1.174-1.324zm-.579 2.407c-.108.042-.142.014-.165-.004a.39.39 0 0 1-.12-.327.96.96 0 0 1 .345-.582c.055-.038.091-.046.114-.046l.025.003a.4.4 0 0 1 .088.189c.052.235.019.651-.287.766z"/></svg>