<svg xmlns="http://www.w3.org/2000/svg" fill="#002466" viewBox="0 0 24 24"><path d="M10 13.99c2.481 0 4.5-2.019 4.5-4.5s-2.019-4.5-4.5-4.5-4.5 2.019-4.5 4.5 2.019 4.5 4.5 4.5m0-7.5c1.654 0 3 1.346 3 3s-1.346 3-3 3-3-1.346-3-3 1.346-3 3-3m4 10H6a5.01 5.01 0 0 0-5 5v1.5h1.5v-1.5c0-1.93 1.57-3.5 3.5-3.5h8c1.93 0 3.5 1.57 3.5 3.5v1.5H19v-1.5a5.01 5.01 0 0 0-5-5m5.188-10.999 1.456-1.013L22.1 5.491l-.514-1.698L23 2.722l-1.774-.036-.583-1.676-.582 1.676-1.774.036 1.414 1.072-.514 1.698zm1.456 1.268-.582 1.676-1.774.036 1.414 1.072-.514 1.698 1.456-1.013 1.456 1.013-.514-1.698L23 8.471l-1.774-.036zm.582 7.425-.583-1.676-.582 1.676-1.774.036 1.414 1.072-.514 1.698 1.456-1.013L22.1 16.99l-.514-1.698L23 14.221l-1.774-.036z"/></svg>