<svg xmlns="http://www.w3.org/2000/svg" viewBox="0 0 24 24"><path fill="#002466" d="M12 5.396a2.34 2.34 0 0 0 0 4.678 2.34 2.34 0 0 0 0-4.678m0 3.177a.84.84 0 0 1 0-1.677.84.84 0 0 1 0 1.677m2.957 8.335a2.343 2.343 0 0 0 3.193-.856 2.34 2.34 0 0 0-.856-3.195 2.34 2.34 0 0 0-3.193.856 2.34 2.34 0 0 0 .856 3.195m.442-2.445a.839.839 0 1 1 1.453.84.839.839 0 0 1-1.453-.84M5.85 16.052a2.338 2.338 0 1 0 4.05-2.339 2.338 2.338 0 0 0-4.05 2.339m1.606-1.896a.839.839 0 1 1 .838 1.454.839.839 0 0 1-.838-1.454m3.284 2.072-.48 1.42c.559.19 1.144.285 1.74.285s1.181-.096 1.74-.285l-.48-1.42a4 4 0 0 1-2.52 0m4.74-7.9-.961 1.151a3.9 3.9 0 0 1 1.39 2.6l1.492-.158a5.4 5.4 0 0 0-1.922-3.593M9.481 9.48l-.96-1.152a5.4 5.4 0 0 0-1.922 3.593l1.491.158a3.9 3.9 0 0 1 1.391-2.6"/><path fill="#002466" d="M2.503 2.5h18.994v5h1.5V1H1.003v6h1.5zM21.497 21.5H2.503v-4.627h-1.5V23h21.993v-6.127h-1.5zM20.494 9.986l.008-1.5 2.5.014-.01 1.5zM20.493 12.743l.008-1.5 2.5.014-.01 1.5zM20.493 15.5 20.5 14l2.5.014-.01 1.5zM1 9.986l.008-1.5 2.5.014-.01 1.5zM.999 12.743l.008-1.5 2.5.014-.01 1.5zM.999 15.5l.008-1.5 2.5.014-.01 1.5z"/></svg>