<svg xmlns="http://www.w3.org/2000/svg" viewBox="0 0 24 24"><path fill="#002466" d="M17.5 8.328c0-1.107-.328-1.708-.592-2.191-.228-.418-.408-.748-.408-1.473s.181-1.055.408-1.473c.264-.483.592-1.084.592-2.191h-10c0 .725-.18 1.055-.408 1.473-.264.483-.592 1.084-.592 2.192s.328 1.709.592 2.191c.229.418.408.748.408 1.472s-.18 1.055-.408 1.473c-.264.483-.592 1.084-.592 2.192s.328 1.709.592 2.192c.228.418.408.748.408 1.473s-.181 1.058-.408 1.477c-.264.484-.592 1.085-.592 2.194s.328 1.71.592 2.194c.228.419.408.75.408 1.477h10c0-1.109-.328-1.711-.592-2.195-.228-.419-.408-.75-.408-1.477s.181-1.058.408-1.477c.264-.484.592-1.085.592-2.194s-.328-1.709-.592-2.192c-.228-.418-.408-.748-.408-1.473s.181-1.055.408-1.473c.264-.483.592-1.084.592-2.191M8.735 21.5a6 6 0 0 0-.327-.695C8.18 20.386 8 20.055 8 19.328s.181-1.058.408-1.477c.264-.484.592-1.085.592-2.194s-.328-1.709-.592-2.192C8.181 13.048 8 12.718 8 11.993s.181-1.055.408-1.473C8.672 10.037 9 9.436 9 8.328s-.328-1.708-.592-2.191C8.181 5.719 8 5.389 8 4.665s.181-1.055.408-1.473a6 6 0 0 0 .326-.691h2.594a4.04 4.04 0 0 0-.578 2.165c0 1.107.328 1.709.592 2.191.229.418.408.748.408 1.472s-.18 1.055-.408 1.473c-.264.483-.592 1.084-.592 2.192s.328 1.709.592 2.192c.228.418.408.748.408 1.473s-.181 1.058-.408 1.477c-.264.484-.592 1.085-.592 2.194 0 1.093.318 1.691.58 2.171H8.735zm4.25 0a6 6 0 0 0-.327-.695c-.228-.419-.408-.75-.408-1.477s.181-1.058.408-1.477c.264-.484.592-1.085.592-2.194s-.328-1.709-.592-2.192c-.228-.418-.408-.748-.408-1.473s.181-1.055.408-1.473c.264-.483.592-1.084.592-2.191s-.328-1.708-.592-2.191c-.228-.418-.408-.748-.408-1.473s.181-1.055.408-1.473a6 6 0 0 0 .326-.691h2.594A4.04 4.04 0 0 0 15 4.665c0 1.107.328 1.709.592 2.191.229.418.408.748.408 1.472s-.18 1.055-.408 1.473c-.264.483-.592 1.084-.592 2.192s.328 1.709.592 2.192c.228.418.408.748.408 1.473s-.181 1.058-.408 1.477c-.264.484-.592 1.085-.592 2.194 0 1.093.318 1.691.58 2.171z"/></svg>