<svg xmlns="http://www.w3.org/2000/svg" viewBox="0 0 24 24"><circle cx="9" cy="9" r="1" fill="#002466"/><path fill="#002466" d="M12 1C5.925 1 1 5.925 1 12s4.925 11 11 11 11-4.925 11-11S18.075 1 12 1m0 20.5c-5.238 0-9.5-4.262-9.5-9.5S6.762 2.5 12 2.5s9.5 4.262 9.5 9.5-4.262 9.5-9.5 9.5m-6.196-8.678c.406 3.094 3.07 5.428 6.195 5.428s5.785-2.33 6.195-5.42l.113-.848-12.616-.007.112.848zm10.71.658c-.627 1.913-2.437 3.27-4.515 3.27s-3.891-1.359-4.516-3.275z"/><circle cx="15" cy="9" r="1" fill="#002466"/></svg>