<svg xmlns="http://www.w3.org/2000/svg" viewBox="0 0 24 24"><path fill="#002466" d="M14.068 13.834a3.23 3.23 0 0 0 2.76-1.532 3.23 3.23 0 0 0 .156-3.15L12.976 1l-1.346.662 4.009 8.153a1.74 1.74 0 0 1-.085 1.695 1.74 1.74 0 0 1-1.486.825H7.865a1.223 1.223 0 0 1-1.221-1.222c0-.673.547-1.22 1.221-1.22h.897v-1.5h-.897c-1.5 0-2.721 1.22-2.721 2.72s1.22 2.721 2.721 2.721h.147v2.169h1.5v-2.169zm2.962 5.667a.327.327 0 0 1-.326-.326v-1.673h-1.5v1.673c0 1.007.82 1.826 1.826 1.826.18 0 .326.146.326.326V23h1.5v-1.673a1.83 1.83 0 0 0-1.826-1.826m-4.31 0a.327.327 0 0 1-.326-.326v-1.673h-1.5v1.673c0 1.007.819 1.826 1.826 1.826.18 0 .326.146.326.326V23h1.5v-1.673c0-1.007-.82-1.826-1.826-1.826"/></svg>