<svg xmlns="http://www.w3.org/2000/svg" fill="#002466" viewBox="0 0 24 24"><path d="M19 4.5h-1.554a4.72 4.72 0 0 0 1.304-3.25V1h-1.5v.25A3.254 3.254 0 0 1 14 4.5h-4a3.254 3.254 0 0 1-3.25-3.25V1h-1.5v.25c0 1.26.501 2.399 1.304 3.25H1v.75A3.755 3.755 0 0 0 4.75 9H5v10.75A3.254 3.254 0 0 0 8.25 23h7.5A3.254 3.254 0 0 0 19 19.75V9h.25A3.755 3.755 0 0 0 23 5.25V4.5zm-14 3h-.25A2.25 2.25 0 0 1 2.629 6H5zm12.5 12.25c0 .965-.785 1.75-1.75 1.75h-7.5c-.965 0-1.75-.785-1.75-1.75v-.5c0-1.121 2.353-2.375 5.5-2.375s5.5 1.254 5.5 2.375zM17.5 9v7.8c-1.261-.879-3.219-1.425-5.5-1.425s-4.239.546-5.5 1.425V6h11zm1.75-1.5H19V6h2.371a2.255 2.255 0 0 1-2.121 1.5"/><circle cx="9.75" cy="9" r=".75"/><circle cx="10.75" cy="18.75" r=".75"/><circle cx="13.25" cy="18.75" r=".75"/><circle cx="14.25" cy="9" r=".75"/></svg>