<svg xmlns="http://www.w3.org/2000/svg" viewBox="0 0 24 24"><path fill="#002466" d="M22.984 8.764h-9.097l-.872-2.475h-2.891v1.5h1.828l2.096 5.947h-3.577l-1.978-5.61H5.551v1.5h1.882l.228.646-1.175 1.078a3.46 3.46 0 0 0-1.979-.62c-1.925 0-3.49 1.566-3.49 3.491s1.565 3.491 3.49 3.491 3.491-1.566 3.491-3.491a3.45 3.45 0 0 0-.497-1.766l.702-.644 1.208 3.426h5.644c.121 1.383 1.273 2.475 2.686 2.475s2.565-1.092 2.686-2.475h.859l1.699-6.472zM6.497 14.22c0 1.098-.894 1.991-1.991 1.991s-1.99-.893-1.99-1.991.893-1.991 1.99-1.991c.294 0 .57.068.821.182l-1.81 1.66 1.014 1.105 1.826-1.675a2 2 0 0 1 .139.718zm11.243 1.991a1.21 1.21 0 0 1-1.21-1.21 1.21 1.21 0 0 1 2.42 0 1.21 1.21 0 0 1-1.21 1.21m2.389-2.475h-.007a2.7 2.7 0 0 0-2.382-1.444c-.911 0-1.714.455-2.206 1.146l-1.118-3.173h6.623l-.91 3.472z"/></svg>