<svg xmlns="http://www.w3.org/2000/svg" viewBox="0 0 24 24"><path fill="#002466" d="M12 1C8.101 1 4.882 3.959 4.465 7.75H2.019v.75a9.99 9.99 0 0 0 9.231 9.943V21.5H6.5V23h11v-1.5h-4.75v-3.057A9.99 9.99 0 0 0 21.981 8.5v-.75h-2.446C19.119 3.959 15.9 1 12 1m0 1.5a6 6 0 0 1 1.43.177l-3.099 3.099 1.061 1.061 3.565-3.565a6 6 0 0 1 .766.511L13.854 5.65l1.061 1.061 1.871-1.871a6.05 6.05 0 0 1 1.298 3.744A6.09 6.09 0 0 1 12 14.667a6 6 0 0 1-1.704-.248l2.354-2.257-1.038-1.083-2.794 2.679a6.08 6.08 0 0 1-2.901-5.174A6.09 6.09 0 0 1 12 2.5m0 14.481c-4.424 0-8.068-3.405-8.449-7.731h.9c.339 3.87 3.593 6.916 7.549 6.916s7.21-3.047 7.55-6.916h.899c-.381 4.327-4.025 7.731-8.449 7.731"/></svg>