<svg xmlns="http://www.w3.org/2000/svg" viewBox="0 0 24 24"><path fill="#002466" d="M18.881 9.916c.545-.361.993-.88 1.261-1.528l1.215-2.933-2.935-1.215a3.37 3.37 0 0 0-2.937.18l-.112-.367c-.348-.838-1-1.49-1.838-1.837L10.602 1 9.387 3.933a3.37 3.37 0 0 0-.191 1.971L5.08 4.199l-.575 1.388 8.266 3.424 1.12.464H1V23h16.08V10.795l5.345 2.214.575-1.388zm-5.536-2.293-1.265-.524-.281-.117a1.88 1.88 0 0 1-1.025-1.025 1.88 1.88 0 0 1 .001-1.45l.64-1.545 1.546.64c.467.194.831.557 1.026 1.025s.194.982-.001 1.45zM8.289 21.498H2.502V10.977h5.787v10.522zm7.289 0H9.791V10.977h5.787v10.522zm.702-12.66-.282-.117-1.265-.524.64-1.546a1.9 1.9 0 0 1 2.474-1.025l1.546.64-.64 1.546a1.895 1.895 0 0 1-2.475 1.025z"/></svg>