<svg xmlns="http://www.w3.org/2000/svg" fill="#002466" viewBox="0 0 24 24"><path d="M1 22.987h12.721V7.815H1zM2.5 9.315h9.722v12.172H2.5zm6.938 2.852-1.223 1.246a2.2 2.2 0 0 0-1.709 0l-1.223-1.246-1.07 1.051 1.23 1.254a2.17 2.17 0 0 0 0 1.767l-1.23 1.254 1.07 1.051 1.215-1.238a2.1 2.1 0 0 0 .862.19 2.1 2.1 0 0 0 .862-.19l1.215 1.238 1.07-1.051-1.231-1.254a2.17 2.17 0 0 0 0-1.767l1.23-1.254-1.07-1.051zM7.79 15.813a.61.61 0 0 1-.859 0 .66.66 0 0 1 0-.915.6.6 0 0 1 .43-.183c.162 0 .314.064.43.183a.66.66 0 0 1 0 .915zm14.033-9.259L23 4.982 21.666 2.67l-1.892.175-.144-.122-.85-1.71h-2.619l-.859 1.717-.137.115-1.892-.175-1.333 2.311 1.045 1.404 1.205-.893-.458-.617.36-.623 1.557.144.855-.715.584-1.168h.763l.576 1.159.864.724 1.557-.144.359.623-.883 1.179v1.14l.883 1.184-.358.622-1.485-.138-.908.529-.619 1.347h-.73l-.521-1.132-1.362.627.922 2.005h2.652l.823-1.79.083-.049 1.964.183 1.333-2.31-1.175-1.576v-.142zm-2.118.071A2.24 2.24 0 0 0 17.47 4.39a2.24 2.24 0 0 0-2.235 2.235A2.24 2.24 0 0 0 17.47 8.86a2.24 2.24 0 0 0 2.235-2.235m-2.971 0a.736.736 0 0 1 1.472 0 .736.736 0 0 1-1.472 0"/></svg>