<svg xmlns="http://www.w3.org/2000/svg" fill="#002466" viewBox="0 0 24 24"><path d="M1 5v14h22V5zm20.5 12.5h-14v-1H6v1H2.5v-11H6v1h1.5v-1h14zm-6.213-4.497h-.474a.15.15 0 0 0-.172.172v.387a.15.15 0 0 0 .172.172h.543q.094.56.31.964c.216.404.317.492.521.667s.437.305.698.388a2.8 2.8 0 0 0 .848.125q.327 0 .59-.061a2.5 2.5 0 0 0 .465-.15 2 2 0 0 0 .349-.198l.241-.194q.103-.103.043-.232l-.388-.775q-.042-.078-.103-.095c-.061-.017-.084.006-.13.052a2 2 0 0 1-.331.228 1 1 0 0 1-.486.108q-.421 0-.681-.198c-.26-.198-.299-.341-.379-.628h1.317a.15.15 0 0 0 .173-.172v-.387a.15.15 0 0 0-.173-.172h-1.421a1 1 0 0 1-.008-.134v-.271h1.429a.15.15 0 0 0 .173-.172v-.379a.15.15 0 0 0-.173-.172h-1.36q.18-.861.844-.861.276 0 .457.116c.181.116.212.206.275.383q.06.181.232.112l.912-.344q.146-.06.104-.207a2 2 0 0 0-.232-.53 1.6 1.6 0 0 0-.4-.426 2 2 0 0 0-.572-.284 2.5 2.5 0 0 0-.741-.103q-.438 0-.83.129a2.1 2.1 0 0 0-.702.392 2.3 2.3 0 0 0-.534.667 3.2 3.2 0 0 0-.327.956h-.551a.15.15 0 0 0-.172.172v.379a.15.15 0 0 0 .172.172h.474v.405zM6 12.75h1.5V15H6zM6 9h1.5v2.25H6z"/></svg>