<svg xmlns="http://www.w3.org/2000/svg" fill="#002466" viewBox="0 0 24 24"><path d="M21.575 7.907h-3.294l-1.202-3.13h-8.3l-.802 3.13H1v8.815h.788c0 1.378 1.115 2.5 2.487 2.5a2.47 2.47 0 0 0 1.741-.719 2.47 2.47 0 0 0 1.741.719 2.496 2.496 0 0 0 2.487-2.5h1.45c0 1.378 1.115 2.5 2.487 2.5a2.47 2.47 0 0 0 1.741-.719 2.47 2.47 0 0 0 1.741.719 2.496 2.496 0 0 0 2.487-2.5h.313L23 14.446zm-7.066-1.63h1.546l.626 1.63h-2.172zm-4.574 0h3.082v1.63H9.519zM4.274 17.722a1 1 0 0 1-.995-1h1.989a1 1 0 0 1-.995 1zm3.481 0a1 1 0 0 1-.995-1h1.99a1 1 0 0 1-.995 1m6.424 0a1 1 0 0 1-.995-1h1.989a1 1 0 0 1-.995 1zm3.481 0a1 1 0 0 1-.995-1h1.989a1 1 0 0 1-.995 1zm2.23-2.5H2.492V9.407h17.882l.982 4.502zm-16.155-4.75h1.492v2.75H3.735zm2.487 0h1.492v2.75H6.222z"/></svg>