<svg xmlns="http://www.w3.org/2000/svg" fill="#002466" viewBox="0 0 24 24"><path d="M1.015 1v13.731h4.244v-1.498H2.513V2.498h18.974v10.735h-1.248v1.498h2.746V1zm4.244 3.995h1.498v5.992H5.259zm3.995 0h1.498V8.49H9.254zm3.994 0h1.498V7.99h-1.498zm3.995 0h1.498V8.74h-1.498zm1.779 10.189c0-3.416-2.779-6.195-6.195-6.195s-6.195 2.779-6.195 6.195 2.779 6.195 6.195 6.195a6.16 6.16 0 0 0 3.813-1.323L19.584 23l1.059-1.059-2.944-2.945a6.16 6.16 0 0 0 1.322-3.813zm-10.891 0c0-2.59 2.106-4.697 4.697-4.697s4.697 2.107 4.697 4.697-2.106 4.697-4.697 4.697-4.697-2.107-4.697-4.697"/></svg>