<svg xmlns="http://www.w3.org/2000/svg" fill="#002466" viewBox="0 0 24 24"><path d="M14.181 9.968 12.652 7.32l-2.36.218-.192-.111-.992-2.153H6.07l-.991 2.153-.192.111-2.361-.218L1 9.967l1.408 1.893.002.286L1 14.035l1.526 2.645 2.359-.218.197.114.988 2.149h3.039l.987-2.149.198-.115 2.358.218 1.527-2.645-1.412-1.892v-.289zm-1.794 4.172-.553.958-1.879-.174-1.022.594-.784 1.708H7.031l-.785-1.707-1.021-.595-1.88.174-.552-.958 1.119-1.501-.006-1.28-1.115-1.497.554-.96 1.878.174 1.018-.588.79-1.713h1.117l.791 1.713 1.018.588 1.877-.174.553.959-1.119 1.494v1.287zM7.589 9.424A2.58 2.58 0 0 0 5.015 12a2.58 2.58 0 0 0 2.575 2.576A2.58 2.58 0 0 0 10.165 12 2.58 2.58 0 0 0 7.59 9.424zm0 3.651a1.076 1.076 0 1 1 .002-2.152 1.076 1.076 0 0 1-.002 2.152M23 11.25h-5.625l1.438-1.438-1.06-1.061L14.504 12l3.248 3.249 1.06-1.061-1.438-1.438H23z"/></svg>