<svg xmlns="http://www.w3.org/2000/svg" viewBox="0 0 24 24"><path fill="#002466" d="M17.356 6.762a3.3 3.3 0 0 0-.654-.622c.47-.494.762-1.157.762-1.891V1H14.02c-.79 0-1.498.339-2 .874a2.74 2.74 0 0 0-2-.874H6.574v3.25c0 .726.288 1.382.748 1.874a3.2 3.2 0 0 0-.668.624 3.23 3.23 0 0 0-.595 2.783l2.724 11.006A3.236 3.236 0 0 0 11.93 23a3.24 3.24 0 0 0 3.138-2.426l2.863-11.006a3.23 3.23 0 0 0-.574-2.806zM14.02 2.5h1.945v1.75a1.25 1.25 0 0 1-1.25 1.25H12.77V3.75a1.25 1.25 0 0 1 1.25-1.25m-5.945 0h1.945a1.25 1.25 0 0 1 1.25 1.25V5.5H9.324a1.25 1.25 0 0 1-1.25-1.25zm8.405 6.69-2.863 11.006A1.74 1.74 0 0 1 11.93 21.5a1.74 1.74 0 0 1-1.69-1.323L9.824 18.5h2.195V17H9.453l-.495-2h2.062v-1.5H8.586l-.495-2h2.428V10H7.72l-.205-.83A1.74 1.74 0 0 1 9.214 7h5.572c.546 0 1.05.248 1.384.68s.447.982.31 1.511z"/></svg>