<svg xmlns="http://www.w3.org/2000/svg" fill="#002466" viewBox="0 0 24 24"><path d="M20.857 14.224a3.43 3.43 0 0 0-3.173-2.095 3.44 3.44 0 0 0-3.388 2.787 2.22 2.22 0 0 0-1.297 2.006c0 1.214.987 2.201 2.201 2.201h5.341A2.46 2.46 0 0 0 23 16.665c0-1.247-.93-2.28-2.143-2.441m-.315 3.399h-5.341a.7.7 0 0 1-.701-.701c0-.345.256-.643.595-.693l.619-.091.021-.625a1.943 1.943 0 0 1 1.949-1.884c.909 0 1.688.616 1.895 1.499l.139.59.824-.016a.96.96 0 1 1 0 1.921M12 9.001a6.8 6.8 0 0 1 4.611 1.784l1.06-1.06A8.3 8.3 0 0 0 12 7.501c-4.618 0-8.375 3.757-8.375 8.375h1.5A6.883 6.883 0 0 1 12 9.001m0-2.625c2.401 0 4.716.929 6.465 2.555l1.059-1.059A11.03 11.03 0 0 0 12 4.876c-6.065 0-11 4.935-11 11h1.5c0-5.238 4.262-9.5 9.5-9.5m3.737 5.131A5.75 5.75 0 0 0 12 10.126a5.76 5.76 0 0 0-5.75 5.75h1.5a4.255 4.255 0 0 1 4.25-4.25 4.25 4.25 0 0 1 2.755 1.015z"/></svg>