<svg xmlns="http://www.w3.org/2000/svg" fill="#002466" viewBox="0 0 24 24"><path d="M21.665 16.513 23 14.729l-1.464-2.541-2.229.206-.155-.09-.936-2.036h-2.912l-.936 2.036-.155.09-2.229-.206-1.464 2.539 1.332 1.792.002.236-1.333 1.787 1.463 2.539 2.228-.206.159.093.933 2.033h2.912l.933-2.033.159-.093 2.228.206 1.463-2.539-1.334-1.789zm-.46 2.136-.488.847-1.749-.162-.984.573-.73 1.59h-.989l-.73-1.59-.984-.573-1.749.162-.488-.847 1.042-1.398-.006-1.235-1.037-1.394.489-.849 1.748.162.98-.567.735-1.596h.989l.735 1.596.98.567 1.748-.162.489.848-1.042 1.391v1.24l1.041 1.396zm-4.445-4.482a2.47 2.47 0 0 0-2.463 2.467 2.47 2.47 0 0 0 2.463 2.467 2.47 2.47 0 0 0 2.464-2.467 2.47 2.47 0 0 0-2.463-2.467zm0 3.431a.964.964 0 0 1 0-1.927.965.965 0 0 1 0 1.927M11.475 4.959a1.76 1.76 0 0 1 .518 1.251 1.76 1.76 0 0 1-.518 1.251l1.061 1.063a3.25 3.25 0 0 0 .958-2.314 3.25 3.25 0 0 0-.958-2.314 3.27 3.27 0 0 0-4.62 0l1.061 1.063a1.77 1.77 0 0 1 2.498 0m2.253-2.256c.13.13.201.303.201.487a.68.68 0 0 1-.201.486l1.061 1.064a2.18 2.18 0 0 0 .641-1.55 2.18 2.18 0 0 0-.641-1.551 2.19 2.19 0 0 0-3.096 0l1.061 1.064a.69.69 0 0 1 .973 0zM5.944 4.971a4.953 4.953 0 0 0 0 9.905c2.726 0 4.946-2.222 4.946-4.953S8.672 4.971 5.945 4.971zm0 8.402A3.45 3.45 0 0 1 2.5 9.924a3.45 3.45 0 0 1 3.444-3.449 3.45 3.45 0 0 1 3.445 3.449 3.45 3.45 0 0 1-3.445 3.449m.466-5.691h-.629a.4.4 0 0 0-.149.033l-1.135.461q-.117.039-.077.162l.207.624q.038.117.162.078l.615-.234v3.228q0 .13.13.13h.874q.13 0 .13-.13V7.813q0-.13-.13-.13z"/></svg>