<svg xmlns="http://www.w3.org/2000/svg" viewBox="0 0 24 24"><path fill="#002466" d="m20.439 16.187-2.757-2.857-.223.215 3.867-4.143a3.25 3.25 0 0 0 .382-3.929l-1.835-2.941A3.23 3.23 0 0 0 17.114 1H6.931a3.23 3.23 0 0 0-2.759 1.53L2.298 5.534a3.225 3.225 0 0 0 .3 3.837l3.592 4.151-2.597 2.673.549.546-1.67 1.668 1.061 1.059 1.673-1.67.708.705-1.674 1.672 1.06 1.06 1.676-1.675.709.705-1.678 1.676L7.068 23l1.68-1.678.753.749 2.468-2.645 2.578 2.62.738-.734L16.977 23l1.061-1.059-1.689-1.686.709-.705 1.687 1.685 1.061-1.059-1.685-1.683.708-.705 1.683 1.681 1.061-1.059-1.681-1.679.547-.545zM9.46 19.917l-3.76-3.74 10.889-11.21-1.076-1.043-3.507 3.61-3.512-3.648-1.082 1.039 3.548 3.686-3.722 3.832-3.506-4.051a1.74 1.74 0 0 1-.161-2.066l1.874-3.005a1.74 1.74 0 0 1 1.485-.824h10.183a1.74 1.74 0 0 1 1.485.824l1.835 2.941a1.75 1.75 0 0 1-.206 2.116zm5.099.003-1.566-1.591 3.653-3.914 1.689 1.75z"/></svg>