<svg xmlns="http://www.w3.org/2000/svg" fill="#002466" viewBox="0 0 24 24"><path d="m1.024 4.878 2.808.795v1.096H2.5v-.251H1v2h1.5v-.251h2.832v-2.17l5.403 1.53.422-1.498 1.892-2.053L2.118 1zm8.785.5-.111.397-5.013-1.419.281-.998 5.325 1.499-.481.521zm-6.654-2.53.367.103-.281.996-.368-.104zm4.205 9.095V9.952H1v1.498h4.86v8.06H1v1.498h5.147A2.34 2.34 0 0 0 8.457 23a2.34 2.34 0 0 0 2.325-2.143h.818v-4.79l-1.187-4.124zm1.932 1.498.558 1.887H7.36v-1.887zm.808 3.386v2.163a2.34 2.34 0 0 0-1.643-.675c-.398 0-.768.109-1.097.285v-1.773zm-1.643 4.675a.846.846 0 0 1-.846-.844.846.846 0 0 1 1.691 0 .845.845 0 0 1-.845.844M23 6.77c0-2.203-1.794-3.995-4-3.995s-4 1.792-4 3.995a4 4 0 0 0 3.25 3.919V23h1.5V10.689A4 4 0 0 0 23 6.77m-4 2.497a2.5 2.5 0 1 1 2.5-2.497A2.5 2.5 0 0 1 19 9.267m-.004-3.99h-1.184q-.086 0-.086.085v.434q0 .085.086.085h.191v2.246q0 .085.085.085h.571q.085 0 .085-.085v-.775h.226q.634 0 .975-.283c.341-.283.341-.451.341-.785s-.107-.583-.322-.753-.537-.255-.969-.255zm.405 1.376q-.137.117-.426.117h-.231v-.893h.235q.29 0 .424.108c.134.108.133.184.133.334s-.045.256-.135.334"/></svg>