<svg xmlns="http://www.w3.org/2000/svg" viewBox="0 0 24 24"><path fill="#002466" d="m22.568 17.179-7.74-13.575C14.242 2.576 13.185 1.963 12 1.963s-2.242.613-2.828 1.641L1.432 17.18a3.21 3.21 0 0 0 .013 3.242 3.22 3.22 0 0 0 2.814 1.616H19.74a3.22 3.22 0 0 0 2.814-1.616 3.21 3.21 0 0 0 .013-3.242m-1.312 2.488c-.318.545-.884.87-1.515.87H4.26c-.63 0-1.197-.325-1.515-.87a1.73 1.73 0 0 1-.008-1.746l7.74-13.575c.316-.553.885-.883 1.524-.883s1.208.33 1.524.883l7.74 13.575c.312.548.309 1.2-.008 1.746"/><path fill="#002466" d="M11.176 14.695q-.001.112.07.175a.26.26 0 0 0 .181.062h1.146q.112 0 .181-.062.07-.063.07-.175l.147-4.57.049-1.583q0-.125-.056-.181t-.168-.056h-1.593q-.111 0-.167.056t-.056.181q0 .042.05 1.584.047 1.541.146 4.57m.81 1.185q-.475 0-.775.307t-.3.796q0 .473.3.774.3.3.775.3.489 0 .796-.293t.308-.781q0-.489-.308-.796-.307-.307-.796-.307"/></svg>