<svg xmlns="http://www.w3.org/2000/svg" fill="#002466" viewBox="0 0 24 24"><path d="m12.637 9.735-.703-1.897-.703 1.897a8.43 8.43 0 0 1-4.991 4.982l-1.9.702 1.901.702a8.43 8.43 0 0 1 4.99 4.981L11.934 23l.703-1.897a8.43 8.43 0 0 1 4.991-4.981l1.9-.702-1.9-.702a8.43 8.43 0 0 1-4.991-4.982zm-.703 9.347a9.9 9.9 0 0 0-3.67-3.663 9.9 9.9 0 0 0 3.67-3.664 9.93 9.93 0 0 0 3.67 3.664 9.9 9.9 0 0 0-3.67 3.663m-5.866-7.819a2.27 2.27 0 0 0 2.267-2.262 2.27 2.27 0 0 0-2.267-2.263 2.27 2.27 0 0 0-2.267 2.263 2.267 2.267 0 0 0 2.267 2.262m0-3.028c.423 0 .767.343.767.765a.767.767 0 0 1-1.534 0c0-.422.344-.765.767-.765m14.131-3.097L16.053 1l-4.146 4.138 4.146 4.138zm-4.146-2.021 2.024 2.021-2.024 2.021-2.024-2.021z"/></svg>