<svg xmlns="http://www.w3.org/2000/svg" viewBox="0 0 24 24"><path fill="#002466" d="M13.956 15.013 21.942 23 23 21.942l-7.639-7.639a5.2 5.2 0 0 0 .948-.829c.827-.933 1.202-2.094 1.058-3.268l-.041-.375c-.091-.883-.157-1.521-1.584-6.513l-.155-.542H8.412l-.155.542-.846 3.036L2.058 1 1 2.058 6.983 8.04a12 12 0 0 0-.309 1.791l-.041.375c-.144 1.174.231 2.335 1.058 3.268.87.984 2.188 1.647 3.561 1.829v4.486H9.144v1.496h5.749v-1.496h-2.144v-4.486a6 6 0 0 0 1.208-.29zm1.234-2.53c-.255.288-.576.522-.92.728l-4.009-4.009h5.472l.105.781.045.404c.117.952-.313 1.665-.693 2.095zM9.541 4.271h4.918l.937 3.436H8.765l-.128-.128zm-1.424 6.116.045-.404.088-.677 4.478 4.478a4.4 4.4 0 0 1-.728.077c-1.214 0-2.437-.528-3.189-1.379-.381-.43-.81-1.143-.693-2.096z"/></svg>