<svg xmlns="http://www.w3.org/2000/svg" viewBox="0 0 24 24"><path fill="#002466" d="m23 9.982-1.058-1.058-2.328 2.328h-5.788l3.22-3.241h3.181V6.515h-2.742V3.773h-1.496v3.181l-3.241 3.263V4.386l2.328-2.328L14.018 1 12 3.018 9.982 1 8.925 2.058l2.328 2.328v5.809L8.011 6.953v-3.18H6.515v2.742H3.773v1.496h3.181l3.241 3.241h-5.81L2.058 8.924 1 9.982 3.018 12 1 14.018l1.058 1.058 2.328-2.328h6.059l-3.22 3.241H3.773v1.496h2.744l.015 2.747 1.496-.009-.016-2.906 3.241-3.241v5.539l-2.328 2.328L9.982 23 12 20.982 14.018 23l1.058-1.058-2.328-2.328v-5.809l3.241 3.241v3.181h1.496v-2.742h2.742v-1.496h-3.181l-3.241-3.241h5.809l2.328 2.328L23 14.018 20.982 12z"/></svg>