<svg xmlns="http://www.w3.org/2000/svg" viewBox="0 0 24 24"><path fill="#002466" d="M5.678 11.466A2.717 2.717 0 0 0 8.39 8.752c0-1.496-1.217-2.713-2.713-2.713S2.964 7.256 2.964 8.752a2.717 2.717 0 0 0 2.714 2.714m0-3.927a1.214 1.214 0 0 1 0 2.427c-.669 0-1.214-.546-1.214-1.214S5.009 7.54 5.678 7.54M12 11.466a2.717 2.717 0 0 0 2.714-2.714c0-1.496-1.218-2.713-2.714-2.713S9.286 7.256 9.286 8.752A2.717 2.717 0 0 0 12 11.466m0-3.927c.669 0 1.214.544 1.214 1.213a1.215 1.215 0 0 1-2.428 0c0-.669.544-1.212 1.214-1.212m6.322 3.926a2.717 2.717 0 0 0 2.714-2.714c0-1.496-1.218-2.713-2.714-2.713s-2.714 1.217-2.714 2.713a2.717 2.717 0 0 0 2.714 2.714m0-3.927c.669 0 1.214.544 1.214 1.213a1.215 1.215 0 0 1-2.428 0c0-.669.545-1.213 1.214-1.213m1.511 4.693H4.167A3.17 3.17 0 0 0 1 15.399v1.812h1.5V15.4a1.67 1.67 0 0 1 1.667-1.667h3.641a3.14 3.14 0 0 0-.486 1.667v1.812h1.5V15.4a1.67 1.67 0 0 1 1.667-1.667h3.022a1.67 1.67 0 0 1 1.667 1.667v1.812h1.5V15.4c0-.613-.183-1.182-.486-1.667h3.64A1.67 1.67 0 0 1 21.5 15.4v1.812H23V15.4a3.17 3.17 0 0 0-3.167-3.167"/></svg>