<svg xmlns="http://www.w3.org/2000/svg" viewBox="0 0 24 24"><path fill="#002466" d="M21.935 5.579 23 4.514 19.486 1l-1.065 1.065 1.225 1.225-2.153 2.153L14.24 2.19l-1.065 1.065.915.915L2.647 15.611l2.338 2.338L1 21.935 2.065 23l3.986-3.986 2.338 2.338L19.831 9.911l.915.915 1.065-1.065-3.253-3.253 2.153-2.153 1.225 1.225zm-3.169 3.267-2.842 2.842-2.028-2.028-1.065 1.065 2.028 2.028-1.384 1.384-2.028-2.028-1.065 1.065 2.028 2.028-1.384 1.384-2.028-2.028-1.065 1.065 2.028 2.028-1.571 1.571-3.612-3.611L15.154 5.234z"/></svg>