<svg xmlns="http://www.w3.org/2000/svg" viewBox="0 0 24 24"><path fill="#002466" d="M21.5 10H23c0-4.962-4.037-9-9-9v1.5a7.51 7.51 0 0 1 7.5 7.5m-3 0H20a6.01 6.01 0 0 0-6-6v1.5c2.481 0 4.5 2.019 4.5 4.5m-3 0H17c0-1.654-1.346-3-3-3v1.5a1.5 1.5 0 0 1 1.5 1.5m.5 8.496h4v1.5h-4zm5.5-5.989h-19v-.757c0-.69.56-1.25 1.25-1.25h8.75V9H3.75A2.75 2.75 0 0 0 1 11.75v8.5A2.75 2.75 0 0 0 3.75 23h16.5A2.75 2.75 0 0 0 23 20.25V11.5h-1.5zM20.25 21.5H3.75c-.69 0-1.25-.56-1.25-1.25v-6.243h19v6.243c0 .69-.56 1.25-1.25 1.25"/></svg>