<svg xmlns="http://www.w3.org/2000/svg" fill="#002466" viewBox="0 0 24 24"><path d="M22 19.125v-3.75h-2.5v-1.396a5.86 5.86 0 0 0-5.247-5.839l-9.195-.985-1.556-3.779H1v1.5h1.498L4 8.523v9.852h1.525c.128 1.26 1.181 2.25 2.475 2.25s2.347-.99 2.475-2.25h2.551c.127 1.26 1.181 2.25 2.475 2.25s2.347-.99 2.475-2.25H19.5v-1.5h1v2.25h-1v1.5H23v-1.5zM5.5 8.709l8.593.921a4.365 4.365 0 0 1 3.844 3.598H5.5zM8 19.125a.99.99 0 0 1-.949-.75H8.95a.99.99 0 0 1-.949.75zm7.5 0a.99.99 0 0 1-.949-.75h1.899a.99.99 0 0 1-.949.75zm-10-2.25v-2.146H18v2.146zm2-6.5h2v1.5h-2z"/></svg>