<svg xmlns="http://www.w3.org/2000/svg" viewBox="0 0 24 24"><path fill="#002466" d="M18.486 1v1.5h1.264v3.498c0 1.931-1.571 3.502-3.502 3.502s-3.502-1.571-3.502-3.502V2.5h1.264V1h-2.764v4.998c0 2.498 1.846 4.556 4.243 4.925l.009 9.201a1.37 1.37 0 0 1-1.374 1.376 1.375 1.375 0 0 1-1.374-1.374V17.5a3.254 3.254 0 0 0-3.25-3.25H7.622A2.495 2.495 0 0 0 5.25 12.5c-1.379 0-2.5 1.122-2.5 2.5s1.121 2.5 2.5 2.5a2.49 2.49 0 0 0 2.372-1.75H9.5c.965 0 1.75.785 1.75 1.75v2.626A2.88 2.88 0 0 0 14.124 23c.769 0 1.49-.299 2.033-.843s.842-1.266.841-2.034l-.009-9.198c2.405-.361 4.261-2.422 4.261-4.927V1zM5.25 16a1 1 0 1 1 0-2 1 1 0 1 1 0 2"/></svg>