<svg xmlns="http://www.w3.org/2000/svg" fill="#002466" viewBox="0 0 24 24"><path d="M1 .931v7.107h1v11h7.5v-1.5h-6v-9.5h2v1.99h5v-1.99h10.015v4h1.5v-4H23V3.882zm7 7.848a1.25 1.25 0 1 1 0-2.5 1.25 1.25 0 1 1 0 2.5m-2.5-3.75v1.51h-3V2.645l19 2.549v1.344h-11v-1.51zm12.702 10.45-1.576-4.533-1.576 4.533-4.798.098 3.824 2.899-1.39 4.593 3.939-2.741 3.939 2.741-1.39-4.593L23 15.577zm.068 1.802-.832.631.302.999.14.463-.397-.276-.857-.596-.857.596-.397.276.14-.463.302-.999-.832-.631-.385-.292.483-.01 1.044-.021.343-.986.159-.457.159.457.343.986 1.044.021.483.01z"/></svg>