<svg xmlns="http://www.w3.org/2000/svg" fill="#002466" viewBox="0 0 24 24"><path d="M23 6.25v-2A3.254 3.254 0 0 0 19.75 1H4.25A3.254 3.254 0 0 0 1 4.25v2a3.23 3.23 0 0 0 1.199 2.5A3.23 3.23 0 0 0 1 11.25V13a3.23 3.23 0 0 0 1.199 2.5A3.23 3.23 0 0 0 1 18v1.75A3.254 3.254 0 0 0 4.25 23h15.5A3.254 3.254 0 0 0 23 19.75V18a3.23 3.23 0 0 0-1.199-2.5A3.23 3.23 0 0 0 23 13v-1.75a3.23 3.23 0 0 0-1.199-2.5A3.23 3.23 0 0 0 23 6.25M19.75 9.5c.965 0 1.75.785 1.75 1.75V13c0 .965-.785 1.75-1.75 1.75H18v1.5h1.75c.965 0 1.75.785 1.75 1.75v1.75c0 .965-.785 1.75-1.75 1.75H4.25c-.965 0-1.75-.785-1.75-1.75V18c0-.965.785-1.75 1.75-1.75H6v-1.5H4.25c-.965 0-1.75-.785-1.75-1.75v-1.75c0-.965.785-1.75 1.75-1.75H6V8H4.25C3.285 8 2.5 7.215 2.5 6.25v-2c0-.965.785-1.75 1.75-1.75h15.5c.965 0 1.75.785 1.75 1.75v2c0 .965-.785 1.75-1.75 1.75H18v1.5zm-6.012-3.068V4.5h-3.477v1.932a3.35 3.35 0 0 0-1.646 2.896v.696a2.2 2.2 0 0 0 .291 1.095l.058.086a.59.59 0 0 1-.001.716l-.057.085a2.2 2.2 0 0 0-.291 1.095v4.001a2.4 2.4 0 0 0 2.396 2.396h1.977a2.4 2.4 0 0 0 2.396-2.396v-4.001a2.2 2.2 0 0 0-.291-1.095l-.057-.085a.59.59 0 0 1-.001-.716l.058-.086a2.2 2.2 0 0 0 .291-1.095v-.696a3.35 3.35 0 0 0-1.646-2.896m.146 3.592c0 .111-.025.22-.074.317a2.08 2.08 0 0 0 0 2.444.7.7 0 0 1 .074.317v4.001a.896.896 0 0 1-.896.896h-1.977a.897.897 0 0 1-.896-.896v-4.001c0-.111.025-.22.074-.317a2.08 2.08 0 0 0 0-2.444.7.7 0 0 1-.074-.317v-.696a1.86 1.86 0 0 1 1.174-1.735l.472-.188V6h.477v1.404l.472.188a1.86 1.86 0 0 1 1.174 1.735z"/></svg>