<svg xmlns="http://www.w3.org/2000/svg" viewBox="0 0 24 24"><path fill="#002466" d="M2 1v20.29l.513.171a30 30 0 0 0 9.477 1.548c3.036 0 6.073-.467 9.032-1.4l.978-.31V1zm18.5 19.2a28.3 28.3 0 0 1-17 .004V2.5h17z"/><path fill="#002466" d="M19 4H5v4.5h14zm-1.5 3h-11V5.5h11zM7.25 10.75h1.5v1.5h-1.5zM11.25 10.75h1.5v1.5h-1.5zM15.25 10.75h1.5v1.5h-1.5zM7.25 14h1.5v1.5h-1.5zM11.25 14h1.5v1.5h-1.5zM15.25 14h1.5v1.5h-1.5zM7.25 17.25h1.5v1.5h-1.5zM11.25 17.25h1.5v1.5h-1.5zM15.25 17.25h1.5v1.5h-1.5z"/></svg>