<svg xmlns="http://www.w3.org/2000/svg" fill="#002466" viewBox="0 0 24 24"><path d="M11.286 19h1.5v1.5h-1.5zm.747-4.078a3.96 3.96 0 0 0-3.218-1.666H7.628v1.188c0 2.081 1.617 3.774 3.658 3.933v.031h1.494v-.031c2.041-.159 3.658-1.852 3.658-3.933v-1.188H15.25a3.95 3.95 0 0 0-3.217 1.666m-2.883-.143a2.47 2.47 0 0 1 2.107 2.108 2.47 2.47 0 0 1-2.107-2.108m3.658 2.108a2.47 2.47 0 0 1 2.107-2.108 2.47 2.47 0 0 1-2.107 2.108"/><path d="m12.033 13.939.821-.823a3.79 3.79 0 0 0 .001-5.354l-.822-.823-.824.823a3.76 3.76 0 0 0-1.108 2.677 3.76 3.76 0 0 0 1.108 2.677zm-.002-4.837c.281.387.433.851.433 1.338s-.151.951-.433 1.337a2.27 2.27 0 0 1-.431-1.337 2.27 2.27 0 0 1 .431-1.338M20.5 5.5V4h-.576a3.76 3.76 0 0 0-3.674-3h-8.5a3.755 3.755 0 0 0-3.674 3H3.5v1.5h1v13.273l-.648.972a2.1 2.1 0 0 0-.352 1.162C3.5 22.061 4.439 23 5.594 23h12.813a2.096 2.096 0 0 0 2.094-2.093 2.1 2.1 0 0 0-.352-1.161l-.648-.973V5.5h1zm-12.75-3h8.5c.976 0 1.801.629 2.112 1.5H5.638A2.25 2.25 0 0 1 7.75 2.5m10.656 19H5.594A.595.595 0 0 1 5 20.907a.6.6 0 0 1 .1-.329l.9-1.351V5.5h12v13.727l.9 1.351a.6.6 0 0 1 .1.329.595.595 0 0 1-.594.593"/></svg>