<svg xmlns="http://www.w3.org/2000/svg" viewBox="0 0 24 24"><path fill="#002466" d="M22.234 10.89a3.24 3.24 0 0 0-2.479-1.155h-4.592a.253.253 0 0 1-.246-.293l.84-4.849a3.064 3.064 0 0 0-2.206-3.491 3.04 3.04 0 0 0-3.42 1.428L5.3 10.986H2.248A1.25 1.25 0 0 0 1 12.238v9.51A1.25 1.25 0 0 0 2.248 23h16.361a3.24 3.24 0 0 0 3.198-2.707l1.146-6.757a3.25 3.25 0 0 0-.719-2.645zM4.993 21.498H2.497v-9.01h2.496zm16.485-8.215-1.146 6.757a1.746 1.746 0 0 1-1.723 1.458H6.49v-9.573l4.941-8.648a1.545 1.545 0 0 1 1.735-.724 1.554 1.554 0 0 1 1.117 1.777l-.841 4.856a1.75 1.75 0 0 0 .386 1.427 1.74 1.74 0 0 0 1.336.624h4.592a1.74 1.74 0 0 1 1.335.622 1.75 1.75 0 0 1 .388 1.424z"/></svg>