<svg xmlns="http://www.w3.org/2000/svg" fill="#002466" viewBox="0 0 24 24"><path d="M11.229 11.228a2.95 2.95 0 0 0-.871 2.101 2.95 2.95 0 0 0 .871 2.101 2.95 2.95 0 0 0 2.101.871 2.95 2.95 0 0 0 2.101-.871c1.158-1.158 1.158-3.043 0-4.201s-3.043-1.158-4.201 0zm3.141 3.141a1.51 1.51 0 0 1-2.08 0 1.46 1.46 0 0 1 0-2.08c.287-.287.663-.43 1.04-.43a1.47 1.47 0 0 1 1.04.43 1.473 1.473 0 0 1 0 2.08M23 8.584V3.278h-5.306v1.5h2.745l-3.743 3.744a5.84 5.84 0 0 0-3.367-1.068 5.84 5.84 0 0 0-3.584 1.23L3.561 2.5h2.745V1H1v5.306h1.5V3.56l6.185 6.185a5.84 5.84 0 0 0-1.23 3.584c0 1.252.397 2.412 1.068 3.367L4.777 20.44v-2.745h-1.5V23h5.306v-1.5H5.838l3.695-3.695a5.85 5.85 0 0 0 7.38.169l3.526 3.527h-2.745V23H23v-5.306h-1.5v2.745l-3.526-3.527a5.84 5.84 0 0 0 1.231-3.584 5.84 5.84 0 0 0-1.399-3.796L21.5 5.838v2.746zM8.954 13.329a4.38 4.38 0 0 1 4.375-4.375 4.38 4.38 0 0 1 4.375 4.375 4.38 4.38 0 0 1-4.375 4.375 4.38 4.38 0 0 1-4.375-4.375"/></svg>