<svg xmlns="http://www.w3.org/2000/svg" fill="#002466" viewBox="0 0 24 24"><path d="M5.008 7.97 1 12l4.008 4.03 1.055-1.061L3.109 12l2.953-2.97zm13.984 0-1.055 1.06L20.891 12l-2.953 2.97 1.055 1.061L23 12zm-8.579 3.48v-3.9q0-.12-.12-.12h-.579a.4.4 0 0 0-.136.03l-1.045.426q-.107.036-.072.15l.19.576q.037.108.15.072l.567-.216v2.982q0 .12.118.12h.806q.12 0 .12-.12zm.738.612q-.108.054-.064.162l.07.186q.043.108.144.072.18-.054.346-.156a1.2 1.2 0 0 0 .295-.255 1.2 1.2 0 0 0 .204-.366q.074-.213.074-.483.001-.378-.173-.537a.6.6 0 0 0-.412-.159q-.21 0-.373.132c-.163.132-.163.216-.163.384s.047.296.142.384a.58.58 0 0 0 .377.144.6.6 0 0 1-.171.306 1 1 0 0 1-.295.186zm3.953-2.721a1 1 0 0 0-.354-.261 1.3 1.3 0 0 0-.521-.096q-.268 0-.435.06h-.029l.052-.762h1.284q.119 0 .118-.12V7.55q0-.12-.118-.12h-1.993q-.114 0-.126.114l-.167 2.064a.18.18 0 0 0 .06.15l.054.054q.076.06.167.03a1.3 1.3 0 0 1 .28-.075q.144-.021.357-.021.28 0 .431.138a.44.44 0 0 1 .148.336q0 .288-.192.408c-.192.12-.307.12-.528.12-.117 0-.221-.01-.321-.03a2 2 0 0 1-.284-.084q-.13-.06-.148.084l-.115.654q-.018.096.078.138a2 2 0 0 0 .385.096q.23.036.499.036.382 0 .692-.105a1.6 1.6 0 0 0 .532-.297 1.3 1.3 0 0 0 .34-.462q.119-.27.118-.594 0-.24-.062-.459a1 1 0 0 0-.204-.384zm-1.165 4.43q-.126-.129-.297-.189c-.171-.06-.241-.06-.377-.06a1 1 0 0 0-.328.051 1 1 0 0 0-.233.126.7.7 0 0 0-.152.159 1 1 0 0 0-.08.144h-.031q-.12-.252-.336-.366c-.216-.114-.317-.114-.511-.114a.8.8 0 0 0-.299.048.8.8 0 0 0-.214.12.7.7 0 0 0-.144.15 1 1 0 0 0-.078.138h-.023a1 1 0 0 0-.066-.144q-.042-.072-.113-.132c-.071-.06-.107-.073-.173-.099a.7.7 0 0 0-.245-.039l-.293.012-.227.03q-.102.018-.101.126v.498q0 .12.12.12h.179v2.1q0 .12.118.12h.746q.12 0 .12-.12v-1.92a.6.6 0 0 1 .134-.12.36.36 0 0 1 .212-.06q.173 0 .247.093c.074.093.076.161.076.297v1.71q0 .12.118.12h.746q.12 0 .12-.12v-1.932q.064-.066.146-.117c.082-.051.118-.051.194-.051q.328 0 .328.39v1.71q0 .12.118.12h.746q.119 0 .118-.12v-1.872q0-.276-.07-.477a.9.9 0 0 0-.198-.33z"/></svg>