<svg xmlns="http://www.w3.org/2000/svg" viewBox="0 0 24 24"><path fill="#002466" d="M21.821 7.874A4 4 0 0 0 23 5.026a4 4 0 0 0-1.179-2.847A4 4 0 0 0 18.973 1a4 4 0 0 0-2.847 1.178 4 4 0 0 0-1.176 3.029l-.801.801-1.324-1.324-1.061 1.061 1.324 1.324-.439.439-9.832 9.832L1 21.481 2.52 23l4.141-1.818 9.831-9.832.439-.439 1.323 1.324 1.061-1.061-1.323-1.323.801-.801a4 4 0 0 0 3.028-1.175zm-6.39 2.415-9.632 9.632-2.943 1.293-.07-.069 1.293-2.944 9.633-9.633.439-.439 1.72 1.72-.439.439zm2.814-2.814-1.314 1.314-1.72-1.72 1.314-1.314-.053-.37a2.51 2.51 0 0 1 .715-2.146c.954-.954 2.621-.952 3.573 0a2.5 2.5 0 0 1 .739 1.787 2.5 2.5 0 0 1-.739 1.787 2.53 2.53 0 0 1-2.146.714l-.37-.052z"/></svg>