<svg xmlns="http://www.w3.org/2000/svg" viewBox="0 0 24 24"><circle cx="16.277" cy="10.605" r=".75" fill="#002466"/><path fill="#002466" d="M22.956 11.789a9.7 9.7 0 0 0-5.793-5.148 9.8 9.8 0 0 0-2.725-.49A12.56 12.56 0 0 0 8.82 3.935l-1.204-.156.11.954a11.4 11.4 0 0 1-.158 3.581L5.635 9.346.896 7.145l.96 1.92a6.7 6.7 0 0 1 .685 2.458l.026.588-.026.588a6.7 6.7 0 0 1-.685 2.452l-.961 1.92 4.739-2.202 2.439 1.304a10 10 0 0 1 .129 3.094l-.111.954 1.177-.152a11.2 11.2 0 0 0 5.049-2.001 9.9 9.9 0 0 0 2.846-.495 9.7 9.7 0 0 0 5.793-5.148l.148-.318zM9.29 5.529zc.907.175 1.783.471 2.616.863a10 10 0 0 0-2.46.915l-.236.126c.069-.633.105-1.267.079-1.904m.476 12.939-.001-.001a11 11 0 0 0-.047-1.434c.675.337 1.373.6 2.089.773a9.7 9.7 0 0 1-2.041.662m6.926-2.318a8.22 8.22 0 0 1-6.536-.563l-4.474-2.393-1.84.855q.142-.6.193-1.222l.032-.722-.032-.71a8 8 0 0 0-.193-1.228l1.84.855 4.474-2.393a8.22 8.22 0 0 1 6.536-.563 8.22 8.22 0 0 1 4.749 4.042 8.22 8.22 0 0 1-4.749 4.042"/></svg>