<svg xmlns="http://www.w3.org/2000/svg" fill="#002466" viewBox="0 0 24 24"><path d="M12 1C5.935 1 1 5.935 1 12s4.935 11 11 11 11-4.935 11-11S18.065 1 12 1m0 1.5c5.238 0 9.5 4.262 9.5 9.5 0 1.524-.37 2.96-1.01 4.238l-.195-.221c-.663-.787-1.489-1.767-3.103-1.767s-2.44.979-3.104 1.767-1.083 1.233-1.957 1.233-1.295-.446-1.96-1.234S8.68 14.25 7.065 14.25s-2.442.979-3.106 1.767a11 11 0 0 1-.36.405A9.4 9.4 0 0 1 2.5 12c0-5.238 4.262-9.5 9.5-9.5m0 19c-3.094 0-5.839-1.493-7.574-3.79.249-.24.479-.488.68-.726.665-.788 1.084-1.234 1.96-1.234s1.294.446 1.959 1.233 1.491 1.767 3.106 1.767 2.439-.979 3.104-1.766 1.083-1.234 1.958-1.234 1.292.446 1.956 1.233a11 11 0 0 0 .529.589C17.948 19.947 15.155 21.5 12 21.5m0-6c1.93 0 3.5-1.57 3.5-3.5S13.93 8.5 12 8.5 8.5 10.07 8.5 12s1.57 3.5 3.5 3.5m0-5.5c1.103 0 2 .897 2 2s-.897 2-2 2-2-.897-2-2 .897-2 2-2m-8.212.487 1.424-.475.75 2.25-1.424.475zm11.987-3.47 2.32-.491.311 1.468-2.32.491zm-9.36.389 1.878-1.449.916 1.188-1.878 1.449zm11.583 5.562 1.029-2.137 1.352.651-1.029 2.137zm-6.504-8.014 1.012-1.107 1.751 1.6-1.012 1.107z"/></svg>