<svg xmlns="http://www.w3.org/2000/svg" data-name="Ebene 1" viewBox="0 0 24 24"><path fill="#002466" d="M11.51 8.57 12 9l.49-.43c1.13-.99 1.76-2.25 1.76-3.57s-.62-2.58-1.76-3.57L12 1l-.49.43C10.38 2.41 9.75 3.68 9.75 5s.62 2.58 1.76 3.57m.49-5.5c.49.59.75 1.26.75 1.93s-.26 1.34-.75 1.93c-.49-.59-.75-1.26-.75-1.93s.26-1.34.75-1.93M11.25 23h1.5v-2h-1.5zm5.25-8.75c-2.15 0-3.67.71-4.5 2.09-.83-1.38-2.35-2.09-4.5-2.09h-.75V15c0 2.89 2.36 5.25 5.25 5.25s5.25-2.36 5.25-5.25v-.75zM8.33 15.8c1.75.21 2.66 1.12 2.87 2.87a3.76 3.76 0 0 1-2.87-2.87m4.47 2.87c.21-1.75 1.12-2.66 2.87-2.87a3.76 3.76 0 0 1-2.87 2.87m-.8-4.42c2.76 0 5-2.24 5-5V8.5h-.75c-2 0-3.44.68-4.25 1.97-.81-1.29-2.25-1.97-4.25-1.97H7v.75c0 2.76 2.24 5 5 5m3.41-4.2c-.3 1.29-1.32 2.3-2.61 2.61.21-1.57 1.04-2.4 2.61-2.61m-4.21 2.61c-1.29-.3-2.3-1.32-2.61-2.61 1.57.21 2.4 1.04 2.61 2.61"/></svg>