<svg xmlns="http://www.w3.org/2000/svg" viewBox="0 0 24 24"><path fill="#002466" d="M12.592 11.199H6.785C3.595 11.199 1 13.785 1 16.964a2.687 2.687 0 0 0 2.688 2.679h12a2.687 2.687 0 0 0 2.688-2.68c0-3.178-2.595-5.764-5.784-5.764m3.096 6.944h-12a1.18 1.18 0 0 1-1.183-1.18 4.277 4.277 0 0 1 4.28-4.264h5.807a4.277 4.277 0 0 1 4.28 4.265 1.183 1.183 0 0 1-1.184 1.179M13.16 7.82H7.355v1.5h5.805a6.58 6.58 0 0 1 5.613 3.118c.399.638.684 1.34.842 2.076l1.472-.314a8 8 0 0 0-1.036-2.553 8.07 8.07 0 0 0-6.89-3.826zm9.336 1.455a10.38 10.38 0 0 0-8.862-4.918H9.57v1.5h4.065a8.89 8.89 0 0 1 7.585 4.21q.233.376.43.772l1.35-.663-.502-.901z"/></svg>