<svg xmlns="http://www.w3.org/2000/svg" viewBox="0 0 24 24"><path fill="#002466" d="M22.938 12.481a2.9 2.9 0 0 0-1.263-1.853c-1.146-.753-2.689-.6-3.701.399l-1.419 1.585V4.92a3.096 3.096 0 0 0-3.093-3.092 3.06 3.06 0 0 0-2.001.755A3.09 3.09 0 0 0 8.777 1a3.09 3.09 0 0 0-3.08 2.969 3.06 3.06 0 0 0-1.605-.462A3.096 3.096 0 0 0 1 6.6V12c0 .06 0 .201.91 7.471A4.036 4.036 0 0 0 5.908 23h8.788a4 4 0 0 0 3.345-1.787l4.482-6.527a2.92 2.92 0 0 0 .416-2.205zm-1.663 1.371-4.479 6.523a2.51 2.51 0 0 1-2.101 1.125H5.908A2.53 2.53 0 0 1 3.4 19.284L2.5 12V6.6c0-.878.714-1.592 1.592-1.592s1.592.714 1.592 1.592V12h1.5V4.092c0-.878.714-1.592 1.592-1.592s1.592.714 1.592 1.592v.818l-.001 6.471h.001V12h1.5V4.91c.005-.873.716-1.582 1.591-1.582s1.592.714 1.592 1.592v8.431c0 .315.129.625.355.854.459.46 1.224.5 1.754-.024l1.896-2.118a1.44 1.44 0 0 1 1.792-.18 1.42 1.42 0 0 1 .424 1.969z"/></svg>