<svg xmlns="http://www.w3.org/2000/svg" fill="#002466" viewBox="0 0 24 24"><path d="m18.984 12.319.75-1.299-2.599-1.5 1.624-2.815 2.599 1.499.75-1.299-3.897-2.249-1.187 2.057-1.969-1.136c.011-.111.034-.219.034-.332a3.294 3.294 0 0 0-3.29-3.29c-1.721 0-3.121 1.333-3.262 3.017l-3.34 3.34C3.42 8.408 2 9.87 2 11.669a3.34 3.34 0 0 0 .75 2.095v4.37A3.74 3.74 0 0 0 1 21.294v.75h8.5v-.75a3.74 3.74 0 0 0-1.75-3.16v-4.071a3.36 3.36 0 0 0 .982-2.216l3.339-3.339a3.28 3.28 0 0 0 2.488-1.484l1.715.989-1.187 2.057zM5.375 9.794a1.88 1.88 0 0 1 1.875 1.875 1.88 1.88 0 0 1-1.875 1.875A1.88 1.88 0 0 1 3.5 11.669a1.88 1.88 0 0 1 1.875-1.875m.875 5.25v2.5h-2v-2.5zm1.621 5.5H2.629a2.255 2.255 0 0 1 2.121-1.5h1c.978 0 1.812.627 2.121 1.5m.604-10.561L7.061 8.569l1.702-1.702 1.414 1.414zm3.324-2.948c-.987 0-1.79-.803-1.79-1.791a1.79 1.79 0 0 1 1.79-1.79c.987 0 1.79.803 1.79 1.79s-.803 1.791-1.79 1.791M17 17.044v5h6v-5zm4.5 3.5h-3v-2h3z"/></svg>