<svg xmlns="http://www.w3.org/2000/svg" fill="#002466" viewBox="0 0 24 24"><path d="m14.421 10.765 1.049.294a.8.8 0 0 0 .265.025l1.063-.09.376.574.25.588a.75.75 0 0 0 .428.409l1.162.433.523-1.405-.859-.32-.15-.353a1 1 0 0 0-.062-.118l-.658-1.004a.76.76 0 0 0-.69-.336l-1.374.116-1.198-.335a.75.75 0 0 0-.538.051l-1.433.717a.8.8 0 0 0-.263.218l-.476.629a.75.75 0 0 0-.149.513l.067.798.181 1.111 1.48-.24-.173-1.052-.037-.454.198-.261 1.017-.509z"/><path d="M14 3c-4.962 0-9 4.038-9 9h1.5a7.49 7.49 0 0 1 2.818-5.85l.098.162-.619.465A.75.75 0 0 0 8.83 8l.701.47.111.199-.063.499-1.334.429a.75.75 0 0 0-.509.584l-.122.697-.225.325 1.233.854.318-.46a.7.7 0 0 0 .122-.297l.072-.413 1.358-.437a.75.75 0 0 0 .514-.62l.153-1.216a.75.75 0 0 0-.089-.459l-.318-.571a.75.75 0 0 0-.211-.239l.316-.238a.75.75 0 0 0 .192-.987l-.472-.784a7.44 7.44 0 0 1 6.295-.262l-.07.049-.352.08a.75.75 0 0 0-.582.673l-.838.12a.75.75 0 0 0-.619.549l-.395 1.474a.75.75 0 0 0 .641.939l1.394.156a.73.73 0 0 0 .374-.054l.533-.224 1.477.342v.462a.75.75 0 0 0 .177.484l.952 1.127a.75.75 0 0 0 1.039.104l.423-.335a.75.75 0 0 0 .238-.329l.08-.216A7.5 7.5 0 0 1 21.5 12a7.51 7.51 0 0 1-7.5 7.5 7.48 7.48 0 0 1-6.287-3.41l-1.257.819A8.98 8.98 0 0 0 14 21c4.962 0 9-4.038 9-9s-4.038-9-9-9m6.451 5.656a.7.7 0 0 0-.106.193l-.257.697-.152-.181v-.784a.75.75 0 0 0-.581-.73l-2.293-.532a.75.75 0 0 0-.46.039l-.576.242-.333-.037.041-.153.989-.141a.75.75 0 0 0 .644-.742.7.7 0 0 0 .18-.094l.636-.449c.046-.032.08-.078.117-.12a7.55 7.55 0 0 1 2.306 2.589zm-3.755 6.952-1.469 1.542 1.086 1.035 3.235-3.396-3.395-3.235-1.035 1.086 1.542 1.469-1.71.031c-8.056 0-12.45-1.83-12.45-2.77 0-.196.371-.714 1.776-1.269l-.552-1.395C1.916 9.42 1 10.316 1 11.37c0 2.934 7.231 4.27 13.95 4.27a50 50 0 0 0 1.746-.032"/></svg>