<svg xmlns="http://www.w3.org/2000/svg" viewBox="0 0 24 24"><path fill="#002466" d="m18.675 6.359-.576-.482-.528.53a3.36 3.36 0 0 0-.928 3.012l-2.175 2.184V7.405h-3.235v-.25a3.247 3.247 0 0 0-3.237-3.25H4.237A3.247 3.247 0 0 0 1 7.155v4a3.247 3.247 0 0 0 3.237 3.25h.024v5.689h10.207V17.18l4.953-4.973c1.087.208 2.206-.134 3.044-.976l.534-.53-4.325-4.342zM4.237 12.905a1.75 1.75 0 0 1-1.743-1.75v-4a1.75 1.75 0 0 1 1.743-1.75h3.759a1.75 1.75 0 0 1 1.743 1.75v.25H4.261v5.5zm1.518 5.689v-.634c.148.032.312.054.505.054.683 0 1.057-.242 1.332-.419.197-.128.279-.181.523-.181s.328.053.526.181c.274.177.65.419 1.334.419a2.22 2.22 0 0 0 1.335-.418c.199-.128.282-.181.529-.181s.329.053.527.181a2.6 2.6 0 0 0 .609.302v.696zm13.683-7.93-.442-.151-5.807 5.831c-.291-.187-.668-.429-1.351-.429a2.22 2.22 0 0 0-1.335.418c-.199.128-.282.181-.529.181s-.328-.053-.526-.181c-.274-.177-.65-.419-1.334-.419s-1.058.242-1.333.419c-.197.127-.279.18-.522.18-.236 0-.323-.05-.505-.167V8.905h7.219v6.318l5.358-5.378-.151-.443a1.85 1.85 0 0 1 .06-1.357l2.553 2.563a1.85 1.85 0 0 1-1.357.056z"/></svg>