<svg xmlns="http://www.w3.org/2000/svg" fill="#002466" viewBox="0 0 24 24"><path d="M6.174 15.162c1.522 0 2.761-1.238 2.761-2.761S7.696 9.64 6.174 9.64s-2.761 1.239-2.761 2.761 1.238 2.761 2.761 2.761m0-4.022c.695 0 1.261.566 1.261 1.261a1.261 1.261 0 1 1-2.521 0c0-.695.565-1.261 1.261-1.261zm2.144 4.667H4.029A3.033 3.033 0 0 0 1 18.836v.804h1.5v-.804a1.53 1.53 0 0 1 1.529-1.529h4.289a1.53 1.53 0 0 1 1.529 1.529v.804h1.5v-.804a3.033 3.033 0 0 0-3.029-3.029m9.508-.645c1.522 0 2.761-1.238 2.761-2.761S19.349 9.64 17.826 9.64s-2.761 1.239-2.761 2.761 1.238 2.761 2.761 2.761m0-4.022c.695 0 1.261.566 1.261 1.261a1.261 1.261 0 1 1-2.521 0c0-.695.565-1.261 1.261-1.261zm2.145 4.667h-4.289a3.033 3.033 0 0 0-3.029 3.029v.804h1.5v-.804a1.53 1.53 0 0 1 1.529-1.529h4.289a1.53 1.53 0 0 1 1.529 1.529v.804H23v-.804a3.033 3.033 0 0 0-3.029-3.029M10.53 9.42 12 7.951l1.47 1.47 1.06-1.061-1.47-1.47 1.47-1.47-1.06-1.06L12 5.83l-1.47-1.47-1.06 1.06 1.47 1.47-1.47 1.47z"/></svg>