<svg xmlns="http://www.w3.org/2000/svg" viewBox="0 0 24 24"><path fill="#002466" d="M21.018 2.982a6.784 6.784 0 0 0-9.585 0L8.938 5.477l1.063 1.063 2.496-2.495a5.24 5.24 0 0 1 3.729-1.544 5.24 5.24 0 0 1 3.729 1.544 5.24 5.24 0 0 1 1.544 3.73 5.24 5.24 0 0 1-1.544 3.727l-2.495 2.495 1.063 1.063 2.495-2.495a6.783 6.783 0 0 0 0-9.584zm-9.516 16.973a5.28 5.28 0 0 1-7.457 0 5.28 5.28 0 0 1 0-7.457l2.495-2.495L5.477 8.94l-2.495 2.495a6.783 6.783 0 0 0 0 9.584C4.302 22.34 6.038 23 7.773 23s3.471-.66 4.793-1.981l2.495-2.495-1.063-1.063-2.495 2.495zM7.5 15.448 15.448 7.5l1.063 1.063-7.949 7.948z"/></svg>