<svg xmlns="http://www.w3.org/2000/svg" viewBox="0 0 24 24"><path fill="#002466" d="M21.253 9.234a.749.749 0 1 0 0-1.497.749.749 0 0 0 0 1.497"/><circle cx="22.251" cy="1.749" r=".749" fill="#002466"/><path fill="#002466" d="M15.265 3.246a.749.749 0 1 0 0-1.498.749.749 0 0 0 0 1.498M19.756 2.996H18.26v2.246h-2.245v2.245h-2.246v2.995h1.497V8.984h2.246V6.74h2.245zM10.524 5.74h1.497V2.498H9.776V1H8.279v2.994h2.245zM20.006 13.975h-1.747v1.497h3.244v-2.246H23V11.73h-2.994zM1 23l16.359-6.258L7.259 6.64zm13.669-6.831L3.597 20.404 7.83 9.332z"/></svg>