<svg xmlns="http://www.w3.org/2000/svg" fill="#002466" viewBox="0 0 24 24"><path d="M19.752 4.793h-5.309l-3.098-2.912A3.23 3.23 0 0 0 9.123 1H4.248a3.22 3.22 0 0 0-2.305.961A3.23 3.23 0 0 0 1 4.276l.043 5.339h.02v8.635a3.253 3.253 0 0 0 3.248 3.25h5.681V20H4.31a1.75 1.75 0 0 1-1.749-1.75V6.293h17.191a1.75 1.75 0 0 1 1.749 1.75V11H23V8.043a3.25 3.25 0 0 0-3.247-3.25zm-17.249 0-.004-.529a1.74 1.74 0 0 1 .507-1.247A1.74 1.74 0 0 1 4.247 2.5h4.875a1.74 1.74 0 0 1 1.197.474l1.934 1.819zm20.395 10.091-1.444-2.505-2.19.203-.144-.083-.92-1.999h-2.872l-.92 1.999-.144.083-2.19-.203-1.444 2.503 1.308 1.758.002.223-1.309 1.754 1.443 2.502 2.188-.203.149.086.917 1.996H18.2l.917-1.996.148-.086 2.189.203 1.443-2.502-1.31-1.756v-.227zm-1.793 3.84-.469.814-1.711-.159-.972.567-.714 1.553h-.951l-.714-1.553-.973-.567-1.71.159-.469-.814 1.018-1.366-.006-1.218-1.013-1.362.47-.817 1.708.159.97-.561.719-1.56h.951l.719 1.56.968.561 1.71-.159.47.815-1.018 1.36v1.224zm-4.341-4.405a2.432 2.432 0 0 0 0 4.862c1.339 0 2.429-1.09 2.429-2.431s-1.09-2.431-2.429-2.431m0 3.361a.931.931 0 0 1 0-1.861.931.931 0 0 1 0 1.861"/></svg>