<svg xmlns="http://www.w3.org/2000/svg" fill="#002466" viewBox="0 0 24 24"><path d="M21.79 5.021a3.22 3.22 0 0 0-2.701-2.971l-3.974-.658a12.55 12.55 0 0 0-6.172-.014l-4.136.674a3.22 3.22 0 0 0-2.712 2.994L1 23h5.467l.18-1.74h10.942l.279 1.74H23zM13.335 2.58l-1.323 2.482-1.338-2.488c.878-.105 1.77-.101 2.662.006zm-4.34.302.135-.022 2.888 5.369 2.86-5.367.19.032-.031 4.437-1.816.699 1.409 2.362-2.616 3.015-2.616-3.015 1.41-2.362-1.812-.697v-4.45zm10.147 18.626-.906-5.653-1.476.235.589 3.678H6.802l.379-3.653-1.488-.153-.575 5.547H2.589l1-16.371a1.73 1.73 0 0 1 1.46-1.612L7.5 3.125v5.23l1.117.429-1.056 1.769 4.453 5.132 4.452-5.132-1.055-1.769 1.113-.428.037-5.215 2.281.379a1.74 1.74 0 0 1 1.455 1.6L21.4 21.507zm-7.127-4.724a.747.747 0 1 0-.002 1.494.747.747 0 0 0 .002-1.494"/></svg>