<svg xmlns="http://www.w3.org/2000/svg" fill="#002466" viewBox="0 0 24 24"><path d="M20.296 5.962a4.1 4.1 0 0 0-2.908-1.205h-.01l-1.168.002C16.022 2.658 14.272 1 12.123 1S8.228 2.653 8.035 4.75H6.623a4.13 4.13 0 0 0-4.125 4.125c0 2.148 1.657 3.898 3.757 4.088v6.287h11.486v-6.297a4.08 4.08 0 0 0 2.549-1.163 4.1 4.1 0 0 0 1.213-2.912 4.08 4.08 0 0 0-1.206-2.916zm-1.065 4.765a2.6 2.6 0 0 1-1.844.761h-.13v.013H16.24v6.25H7.754V13h4.243v-1.5H6.623a2.63 2.63 0 0 1-2.625-2.625A2.63 2.63 0 0 1 6.623 6.25h2.875V5.125A2.63 2.63 0 0 1 12.123 2.5c1.4 0 2.537 1.104 2.611 2.486l.003 1.277 2.646-.005h.005c.698 0 1.354.271 1.849.766a2.6 2.6 0 0 1 .767 1.854 2.6 2.6 0 0 1-.771 1.85zM6.248 21.5h11.5V23h-11.5z"/></svg>