<svg xmlns="http://www.w3.org/2000/svg" viewBox="0 0 24 24"><path fill="#002466" d="M22.655 9.013c-.239-.361-.596-.626-.889-.799-.046-.428-.171-.802-.368-1.1-.307-.463-.775-.779-1.319-.889s-1.099-.002-1.562.304a2.09 2.09 0 0 0-.913 1.969l-1.341.888a5.4 5.4 0 0 0-1.128-1.022l2.911-1.926-.277-.587a.573.573 0 0 1 .634-.811.58.58 0 0 1 .367.248.6.6 0 0 1 .078.184l1.464-.336a2 2 0 0 0-.291-.677c-.307-.462-.775-.778-1.319-.889s-1.099-.003-1.562.304a2.09 2.09 0 0 0-.912 1.969l-2.653 1.755a7.3 7.3 0 0 0-2.333-.388c-.427 0-.867.04-1.235.108a7.4 7.4 0 0 0-3.691 1.366 7.6 7.6 0 0 0-2.09 2.245A4.95 4.95 0 0 0 1 15.549a4.93 4.93 0 0 0 4.927 4.925h12.142c2.058 0 3.796-1.908 3.796-4.166a4.16 4.16 0 0 0-2.664-3.874l.701-.469a2.08 2.08 0 0 0 2.168-.072 2.08 2.08 0 0 0 .585-2.88m-1.414 1.629a.57.57 0 0 1-.747-.101l-.435-.487-4.791 3.205-.041.343a3.3 3.3 0 0 1-.566 1.517l1.231.859a4.8 4.8 0 0 0 .771-1.847l.701-.469.179-.013c1.492-.104 2.821 1.136 2.821 2.658 0 1.42-1.073 2.666-2.295 2.666H5.927a3.43 3.43 0 0 1-3.426-3.425 3.44 3.44 0 0 1 2.449-3.281l.297-.088.148-.272a6 6 0 0 1 1.792-2.003 6 6 0 0 1 3.011-1.102c1.941-.342 3.786.287 4.805 1.417l-.428.284c-1.403-.954-3.471-.826-5.029.374-1.915 1.473-2.427 4.029-1.142 5.699.679.881 1.739 1.37 2.919 1.37q.319 0 .646-.048l-.219-1.484c-.889.134-1.693-.151-2.156-.753-.781-1.014-.392-2.627.867-3.595 1.142-.877 2.644-.938 3.493-.144l.537.436 4.932-3.265-.277-.587a.58.58 0 0 1 .635-.811.58.58 0 0 1 .367.248c.094.143.146.413.138.723l-.013.515.476.197c.199.083.535.281.657.464a.58.58 0 0 1-.163.801z"/></svg>