<svg xmlns="http://www.w3.org/2000/svg" viewBox="0 0 24 24"><path fill="#002466" d="M23 5.25h-6.5A3.254 3.254 0 0 0 13.25 2h-2.5A3.254 3.254 0 0 0 7.5 5.25H1v7.937l1 .088V22h20v-8.725l1-.088zM10.75 3.5h2.5c.965 0 1.75.785 1.75 1.75H9c0-.965.785-1.75 1.75-1.75M2.5 6.75h19v5.063l-7.292.643.003-1.957H9.795l-.003 1.957-7.292-.643zM12.709 12l-.003 2.14c0 .405-.317.735-.708.735s-.708-.33-.708-.734L11.293 12zm7.791 8.5h-17v-7.093l6.29.555v.178c0 1.232.99 2.235 2.208 2.235s2.208-1.002 2.208-2.234v-.178l6.294-.555z"/></svg>