<svg xmlns="http://www.w3.org/2000/svg" viewBox="0 0 24 24"><path fill="#002466" d="M12 16.641a4.12 4.12 0 0 0 3.858-2.632l-1.396-.545c-.399 1.02-1.365 1.679-2.462 1.679s-2.062-.659-2.462-1.679l-1.396.545A4.12 4.12 0 0 0 12 16.641m-2.5-5.902a.999.999 0 1 0 0-1.998.999.999 0 0 0 0 1.998m5 0a.999.999 0 1 0 0-1.998.999.999 0 0 0 0 1.998"/><path fill="#002466" d="M20 8.242V5.745h-7.25v-.643a2.12 2.12 0 0 0 1.375-1.979 2.126 2.126 0 0 0-4.25 0 2.12 2.12 0 0 0 1.375 1.979v.643H4v2.497H1v5.993h3v5.505h9.267L18 23v-3.27h2v-5.494h3V8.242zM4 12.737H2.5V9.74H4zm8-10.239a.625.625 0 1 1 0 1.25.625.625 0 0 1 0-1.25m6.5 15.733h-2v1.916l-2.767-1.905H5.5V7.243h13zm3-5.494H20V9.74h1.5z"/></svg>