<svg xmlns="http://www.w3.org/2000/svg" fill="#002466" viewBox="0 0 24 24"><path d="M12.049 1 2.25 10.986V23h19.5V10.988zm8.201 20.505H3.75v-9.91l8.293-8.451 8.207 8.449zM8.475 12.704a1.8 1.8 0 0 0-.53-.288 2.2 2.2 0 0 0-.715-.109c-.279 0-.555.048-.819.142a2 2 0 0 0-.709.439 2.2 2.2 0 0 0-.498.75c-.126.299-.189.662-.189 1.077s.06.785.179 1.087a2.1 2.1 0 0 0 .481.749 1.9 1.9 0 0 0 .7.434 2.5 2.5 0 0 0 .835.138 3 3 0 0 0 .561-.048 3 3 0 0 0 .443-.118q.198-.072.332-.156l.227-.159c.067-.051.082-.121.041-.197l-.295-.602q-.04-.077-.098-.092c-.058-.015-.084 0-.134.031a1.5 1.5 0 0 1-.349.184 1.5 1.5 0 0 1-.534.084q-.252 0-.46-.078c-.208-.078-.259-.133-.362-.246s-.184-.26-.243-.432a1.6 1.6 0 0 1-.064-.277l-.004-.028a2.4 2.4 0 0 1-.022-.328q0-.343.08-.59a1.2 1.2 0 0 1 .21-.407.84.84 0 0 1 .302-.236.9.9 0 0 1 .362-.077q.331 0 .52.154c.189.154.227.248.301.43q.026.076.08.1c.054.024.082.015.132-.005l.718-.24c.092-.036.126-.104.095-.191a2 2 0 0 0-.21-.483 1.7 1.7 0 0 0-.365-.415zm2.44 3.456h-.27v-3.747a.14.14 0 0 0-.159-.158h-.837c-.103 0-.159.056-.159.158v3.606q0 .296.058.504a.9.9 0 0 0 .173.341.63.63 0 0 0 .286.187 1.2 1.2 0 0 0 .386.055 3 3 0 0 0 .338-.021 1 1 0 0 0 .226-.048c.077-.025.118-.08.118-.157v-.561c0-.103-.057-.16-.159-.16zm.625-2.318v1.977q0 .345.085.589a1.1 1.1 0 0 0 .24.407.95.95 0 0 0 .369.236 1.4 1.4 0 0 0 .464.075 1.2 1.2 0 0 0 .373-.055 1 1 0 0 0 .271-.137.9.9 0 0 0 .265-.306 1 1 0 0 0 .067.139.6.6 0 0 0 .133.153.7.7 0 0 0 .202.115q.115.045.283.045l.351-.014q.156-.013.287-.048a.16.16 0 0 0 .125-.164V16.3c0-.102-.057-.159-.159-.159h-.216v-2.299c0-.102-.056-.159-.159-.159h-.837c-.103 0-.159.056-.159.159v2.088q-.055.066-.16.139c-.105.073-.16.072-.271.072q-.208 0-.302-.121c-.094-.121-.095-.214-.095-.395v-1.783c0-.102-.057-.159-.159-.159h-.837c-.103 0-.159.056-.159.159zm4.714 3.182q.332.1.812.101.49 0 .853-.132c.363-.132.449-.21.612-.37s.287-.351.371-.575a2.1 2.1 0 0 0 .125-.75 2.3 2.3 0 0 0-.095-.674 1.6 1.6 0 0 0-.276-.54 1.24 1.24 0 0 0-.437-.353 1.3 1.3 0 0 0-.57-.127 1.4 1.4 0 0 0-.566.107 1.1 1.1 0 0 0-.387.283v-1.58a.14.14 0 0 0-.159-.158H15.7a.14.14 0 0 0-.159.158v4.16q0 .122.099.175a2.7 2.7 0 0 0 .615.276zm.858-.884q-.156 0-.265-.045c-.109-.045-.12-.057-.152-.088V14.76a.8.8 0 0 1 .187-.127.8.8 0 0 1 .344-.059q.296 0 .459.206c.163.206.166.334.166.576s-.057.427-.175.572-.305.21-.563.21z"/></svg>