<svg xmlns="http://www.w3.org/2000/svg" viewBox="0 0 24 24"><path fill="#002466" d="m18.159 9.61-.747-1.035c-.543-.716-1.013-1.334-1.652-2.8a8.5 8.5 0 0 1-.697-3.25L15.041 1l-1.195.949a12.4 12.4 0 0 0-3.443 4.288 12.3 12.3 0 0 0-1.14 4.014l-.059 1.091a3.1 3.1 0 0 1-.708-.765c-.51-.79-.772-1.488-.848-1.878L7.351 7.17 6.34 8.357a9.1 9.1 0 0 0-1.87 3.598c-.045.175-.43 1.753-.208 3.384C4.684 18.429 7.445 23 12.031 23c.061 0 .732-.025.943-.063a7.78 7.78 0 0 0 6.831-7.713c.034-3.07-.978-4.601-1.646-5.614m-5.331 11.836c-.086.021-.5.044-.609.047-.923-.051-1.032-.923-1.032-1.307 0-.983.531-1.875 1.024-2.49.113.254.232.463.342.64l.716 1.201c.096.248.142.524.142.851 0 .632-.152.943-.582 1.059zm2.051-.633c.015-.141.031-.28.031-.433a3.8 3.8 0 0 0-.242-1.381c-.075-.194-.285-.548-.873-1.503-.168-.273-.376-.675-.494-1.365l-.215-1.252-.993.794c-.024.019-2.406 1.953-2.406 4.514a3.4 3.4 0 0 0 .107.801c-2.352-1.12-3.771-3.853-4.044-5.849-.187-1.373.16-2.754.175-2.811a7.5 7.5 0 0 1 .774-1.887c.155.316.336.638.536.948.799 1.24 2.021 1.755 2.481 1.949l1.128.475-.088-1.219c-.039-.545-.093-1.292-.001-2.189.086-.836.329-2.125.999-3.518a10.8 10.8 0 0 1 1.953-2.791c.118.691.325 1.471.678 2.278.711 1.629 1.281 2.38 1.832 3.106.222.292.447.588.69.955.636.963 1.427 2.161 1.398 4.804a6.27 6.27 0 0 1-3.427 5.575z"/></svg>