<svg xmlns="http://www.w3.org/2000/svg" fill="#002466" viewBox="0 0 24 24"><path d="M19.656 9.736h1.566a9.55 9.55 0 0 0-6.959-6.959v1.572a8.03 8.03 0 0 1 5.393 5.387m-16.878 0h1.566a8.03 8.03 0 0 1 5.395-5.388V2.777a9.55 9.55 0 0 0-6.961 6.96zm1.558 4.488h-1.57c.824 3.43 3.55 6.162 6.974 6.999v-1.572a8.03 8.03 0 0 1-5.403-5.427zm9.927 5.426v1.572a9.55 9.55 0 0 0 6.971-6.998h-1.57a8.03 8.03 0 0 1-5.401 5.427z"/><circle cx="12" cy="12" r="1"/><path d="M11.25 1h1.5v4.5h-1.5zm0 17.5h1.5V23h-1.5zM1 11.25h4.5v1.5H1zm17.5 0H23v1.5h-4.5z"/></svg>