<svg xmlns="http://www.w3.org/2000/svg" fill="#002466" viewBox="0 0 24 24"><path d="M14.059 19.75c0 .965-.785 1.75-1.75 1.75H4.263c-.965 0-1.75-.785-1.75-1.75V4.25c0-.965.785-1.75 1.75-1.75h8.046c.965 0 1.75.785 1.75 1.75V5h1.5v-.75A3.254 3.254 0 0 0 12.309 1H4.263a3.254 3.254 0 0 0-3.25 3.25v15.5A3.254 3.254 0 0 0 4.263 23h8.046a3.254 3.254 0 0 0 3.25-3.25V17h-1.5zm-7.637-2.21h3.728v1.5H6.422zm8.162-8.937h1.5v4.81h-1.5zm2.31 0h1.5v4.81h-1.5zm2.31 0h1.5v4.81h-1.5zM14.771 6.5h-2.704v2.704h1.5V8h1.204zm-2.704 6.312v2.704h2.704v-1.5h-1.204v-1.204zm9.42 1.204h-1.204v1.5h2.704v-2.704h-1.5zM20.283 6.5V8h1.204v1.204h1.5V6.5z"/></svg>