<svg xmlns="http://www.w3.org/2000/svg" viewBox="0 0 24 24"><path fill="#002466" d="m21.32 8.25-2.83-3.467V1h-13v3.737L2.68 8.25l1.81.002v9.792c0 .736.168 1.477.486 2.142A4.98 4.98 0 0 0 9.446 23h5.088a4.98 4.98 0 0 0 4.47-2.814c.32-.669.485-1.4.486-2.142V8.252zM5.99 14.5h12v2h-12zm0-1.5V9.183q.306.069.62.067c.909 0 1.405-.378 1.768-.654.293-.223.454-.346.856-.346s.563.123.856.346c.362.276.858.654 1.768.654s1.405-.378 1.768-.654c.293-.223.454-.346.856-.346s.566.123.86.347c.362.276.858.653 1.769.653.355 0 .633-.067.879-.153V13zm11-10.5V4h-10V2.5zm-10.189 3H17.14l1.299 1.592a5 5 0 0 0-.467.312c-.294.224-.456.347-.86.347s-.566-.123-.86-.347c-.362-.276-.858-.653-1.769-.653s-1.404.377-1.766.653c-.294.224-.455.347-.858.347s-.564-.123-.858-.347c-.361-.276-.856-.653-1.766-.653s-1.404.377-1.766.653c-.294.224-.455.347-.858.347s-.562-.123-.854-.346l-.302-.22zm10.85 14.038a3.47 3.47 0 0 1-3.116 1.962H9.446a3.47 3.47 0 0 1-3.116-1.962 3.5 3.5 0 0 1-.34-1.494V18h12v.044a3.5 3.5 0 0 1-.34 1.494z"/></svg>