<svg xmlns="http://www.w3.org/2000/svg" viewBox="0 0 24 24"><path fill="#002466" d="M7.626 13.985q-.1 0-.1.1v.525q0 .1.1.1h.91v1.44q0 .335-.135.463c-.135.128-.226.127-.405.127a.8.8 0 0 1-.27-.046q-.11-.039-.14.075l-.115.52q-.015.08.061.115.085.035.228.063.162.03.327.027.286.004.565-.067a.96.96 0 0 0 .412-.225 1 1 0 0 0 .255-.417q.088-.26.088-.64v-2.06q0-.1-.101-.1zm6.114 3.033zq.22.232.535.355.314.123.71.123.36 0 .645-.103.285-.102.485-.295.199-.193.308-.468c.109-.275.107-.39.107-.62v-.2l-.01-.205q0-.095-.101-.095h-1.285q-.1 0-.1.1v.49q0 .1.1.1h.511q0 .26-.178.395-.177.135-.482.135a.74.74 0 0 1-.596-.26q-.22-.26-.22-.76c0-.333.073-.594.22-.772a.73.73 0 0 1 .596-.268q.45 0 .68.345.06.09.15.03l.484-.315q.08-.05.035-.135-.41-.67-1.35-.67-.395 0-.71.122-.316.122-.535.355c-.15.162-.266.354-.338.563-.081.24-.12.492-.117.745a2.2 2.2 0 0 0 .117.745c.072.21.187.401.338.563"/><path fill="#002466" d="M13.561 1H3.5v22h17V7.939zM14 3.561 17.939 7.5H14zM19 21.5H5v-19h7.5V9H19z"/><path fill="#002466" d="M10.052 13.984q-.1 0-.1.1v.51q0 .1.1.1h.226v2.64q0 .1.1.1h.67q.1 0 .1-.1v-.91h.266q.744 0 1.145-.333.4-.332.4-.923c0-.591-.126-.685-.378-.885q-.378-.3-1.137-.3zm2.023 1.227a.49.49 0 0 1-.16.393q-.16.138-.5.138h-.271v-1.05h.275q.34 0 .498.127t.157.393"/></svg>