<svg xmlns="http://www.w3.org/2000/svg" viewBox="0 0 24 24"><path fill="#002466" d="M21.44 16.038c-.329-3.71-2.711-7.874-6.206-9.162a3.3 3.3 0 0 0 .174-1.018c0-1.872-1.528-3.396-3.407-3.396S8.593 3.985 8.593 5.857a3.3 3.3 0 0 0 .174 1.018c-3.495 1.289-5.878 5.453-6.206 9.162H1v5.5h22v-5.5h-1.56zm-1.505 0h-2.3c-.077-.772-.272-1.912-.764-3.367-.63-1.861-1.969-3.302-2.848-4.097a3.4 3.4 0 0 0 .429-.37c2.757.867 5.138 4.304 5.482 7.834zM11.25 9.456v6.582H7.873c.078-.668.259-1.648.678-2.886.589-1.742 1.992-3.096 2.699-3.696m1.5 0c.707.6 2.111 1.954 2.7 3.697.419 1.238.599 2.218.677 2.886H12.75zM12 3.962c1.052 0 1.907.85 1.907 1.896S13.052 7.753 12 7.753s-1.907-.851-1.907-1.896.855-1.896 1.907-1.896zM9.547 8.204q.198.202.43.37c-.878.795-2.218 2.236-2.847 4.097-.492 1.455-.688 2.595-.765 3.367h-2.3c.344-3.53 2.725-6.967 5.482-7.834M21.5 20.038h-19v-2.5h19z"/></svg>