<svg xmlns="http://www.w3.org/2000/svg" viewBox="0 0 24 24"><path fill="#002466" d="m23 12.112-1.442-4.987h-3.881v-1h-1.502v2.628L10.96 5.591c.008-.072.022-.142.022-.216a2.004 2.004 0 0 0-4.006 0c0 .087.015.17.026.253L1.97 7.89v1.985h1.502V8.86l4.275-1.921c.341.269.766.436 1.233.436.244 0 .475-.05.691-.13l4.065 5.865v3.516H3.472L1 17.345l.438 1.435 2.147-.655h1.166c.134 1.392 1.299 2.488 2.727 2.488s2.593-1.096 2.727-2.488h6.311c.129 1.398 1.296 2.5 2.729 2.5s2.6-1.102 2.729-2.5H23zm-2.564-3.487.813 2.75h-3.57v-2.75zM8.98 5.875a.5.5 0 1 1 0-1 .5.5 0 1 1 0 1M7.478 19.113c-.597 0-1.075-.428-1.199-.988h2.397c-.124.56-.601.988-1.199.988zm8.698-2.488h-.937v-3.984l-3.23-4.659 4.167 2.527v6.117zm3.069 2.5c-.69 0-1.252-.561-1.252-1.25a1.252 1.252 0 0 1 2.504 0c0 .689-.561 1.25-1.252 1.25m0-4c-.582 0-1.121.184-1.567.493v-2.743h3.82v3.427a2.75 2.75 0 0 0-2.253-1.177"/></svg>