<svg xmlns="http://www.w3.org/2000/svg" viewBox="0 0 24 24"><path fill="#002466" d="M18.954 9.359a5.16 5.16 0 0 0-3.517-2.077V4.75h-2.685V2.5h1.975l3.126 1.967.799-1.27L15.161 1H8.194v1.5h3.059v2.25H8.662v2.52a5.16 5.16 0 0 0-3.616 2.088 5.1 5.1 0 0 0-.983 3.024v5.305a5.13 5.13 0 0 0 .864 2.853l.113.17A5.13 5.13 0 0 0 9.317 23h5.365a5.13 5.13 0 0 0 4.276-2.289l.115-.172a5.13 5.13 0 0 0 .863-2.852v-5.305a5.1 5.1 0 0 0-.983-3.024zm-.517 8.329a3.64 3.64 0 0 1-.61 2.019l-.115.172a3.63 3.63 0 0 1-3.029 1.622H9.317a3.63 3.63 0 0 1-3.03-1.623l-.113-.17a3.64 3.64 0 0 1-.611-2.02v-5.305c0-.775.241-1.516.696-2.142a3.65 3.65 0 0 1 2.945-1.5h.958V6.25h3.775v2.491h.858a3.65 3.65 0 0 1 2.945 1.5 3.62 3.62 0 0 1 .696 2.142z"/></svg>