<svg xmlns="http://www.w3.org/2000/svg" fill="#002466" viewBox="0 0 24 24"><path d="M20.505 4.75H3.495A2.495 2.495 0 0 0 1 7.245v9.509a2.495 2.495 0 0 0 2.495 2.495h17.009a2.495 2.495 0 0 0 2.495-2.495V7.245a2.495 2.495 0 0 0-2.495-2.495zm.995 12.005a.996.996 0 0 1-.995.995H3.495a.996.996 0 0 1-.995-.995v-9.51c0-.549.447-.995.995-.995h17.009c.549 0 .995.447.995.995zM6.421 11.987a1.7 1.7 0 0 0-.53-.359l-.538-.217a2.2 2.2 0 0 1-.413-.207.29.29 0 0 1-.141-.263q-.001-.139.091-.211c.128-.102.376-.115.564.017a.7.7 0 0 1 .226.244q.056.104.131.127c.075.023.107.007.179-.025l.676-.335c.122-.054.162-.159.108-.282q-.221-.474-.616-.734c-.395-.26-.588-.261-.965-.261a2.3 2.3 0 0 0-.728.109 1.7 1.7 0 0 0-.558.312 1.4 1.4 0 0 0-.358.489 1.5 1.5 0 0 0-.125.628c0 .238.035.432.108.591a1.4 1.4 0 0 0 .299.429 1.8 1.8 0 0 0 .532.372l.531.229a2 2 0 0 1 .402.209.29.29 0 0 1 .136.257.26.26 0 0 1-.106.224c-.072.054-.209.086-.393.086q-.297 0-.514-.101a2 2 0 0 1-.367-.216q-.09-.08-.177-.063c-.087.017-.107.054-.143.125l-.371.687c-.054.101-.038.198.045.273.136.123.327.235.584.345.251.109.568.164.942.164q.468 0 .823-.127c.355-.127.438-.201.595-.344a1.4 1.4 0 0 0 .363-.506 1.6 1.6 0 0 0 .121-.61q0-.374-.115-.623c-.115-.249-.177-.309-.3-.432zm4.496-2.177a1.7 1.7 0 0 0-.487-.242 2.3 2.3 0 0 0-1.323.021 1.8 1.8 0 0 0-.596.333 2 2 0 0 0-.451.563 2.6 2.6 0 0 0-.262.738h-.387c-.135 0-.215.081-.215.215v.308c0 .135.08.215.215.215h.31v.179h-.31c-.135 0-.215.081-.215.215v.315c0 .134.08.215.215.215h.379q.08.428.248.744a1.9 1.9 0 0 0 .441.564q.259.223.593.33a2.3 2.3 0 0 0 .712.105 2.2 2.2 0 0 0 .496-.051 2 2 0 0 0 .393-.127 1.7 1.7 0 0 0 .297-.169l.204-.165a.23.23 0 0 0 .051-.274l-.317-.635a.22.22 0 0 0-.128-.112c-.044-.014-.108-.012-.177.057a1.4 1.4 0 0 1-.257.176.73.73 0 0 1-.358.078q-.318 0-.507-.146a.8.8 0 0 1-.252-.376h.969c.135 0 .215-.081.215-.215v-.315c0-.135-.08-.215-.215-.215H9.111l-.001-.033v-.146h1.087c.135 0 .215-.081.215-.215v-.308c0-.135-.08-.215-.215-.215h-1.01c.099-.37.292-.55.591-.55a.6.6 0 0 1 .33.083.5.5 0 0 1 .193.272q.037.106.113.141c.076.035.109.022.174-.004l.744-.281c.116-.048.162-.142.128-.257a1.6 1.6 0 0 0-.198-.451 1.4 1.4 0 0 0-.345-.367zm4.735.191c-.365-.29-.917-.437-1.64-.437h-1.946c-.135 0-.215.081-.215.215v.714c0 .135.08.215.215.215h.24v3.621c0 .135.08.215.215.215h.938c.135 0 .215-.081.215-.215V13.13h.296c.71 0 1.266-.163 1.65-.483s.588-.778.588-1.349-.187-1.003-.557-1.298zm-1.023 1.847q-.204.173-.651.174h-.303v-1.319h.31c.299 0 .518.054.649.161s.192.266.192.491q.001.324-.197.493m4.707-2.139a.25.25 0 0 0-.228-.145H17.89a.24.24 0 0 0-.229.148 17.5 17.5 0 0 0-.921 2.355 19 19 0 0 0-.541 2.231q-.026.111.028.178c.054.067.093.068.171.068h.924c.126 0 .209-.069.229-.19l.077-.449.071-.369h1.57l.068.368.073.451c.02.12.103.189.229.189h.959q.112 0 .168-.064c.056-.064.049-.098.039-.17a17 17 0 0 0-.535-2.243 18 18 0 0 0-.936-2.358zm-1.397 2.76.251-.846.289-.747.293.747.254.846z"/></svg>