<svg xmlns="http://www.w3.org/2000/svg" fill="#002466" viewBox="0 0 24 24"><path d="M12 6.5A5.51 5.51 0 0 0 6.5 12a5.51 5.51 0 0 0 5.5 5.5 5.51 5.51 0 0 0 5.5-5.5A5.51 5.51 0 0 0 12 6.5m0 9.5c-2.206 0-4-1.794-4-4s1.794-4 4-4 4 1.794 4 4-1.794 4-4 4M1 11.25h4v1.5H1zm18 0h4v1.5h-4zM11.25 1h1.5v4h-1.5zm0 18h1.5v4h-1.5zm-7.559.248L6.52 16.42l1.06 1.06-2.828 2.828zM16.42 6.52l2.828-2.828 1.061 1.061L17.48 7.58zM3.691 4.752l1.061-1.06L7.58 6.52 6.519 7.58zM16.42 17.48l1.061-1.06 2.828 2.829-1.061 1.06z"/></svg>