<svg xmlns="http://www.w3.org/2000/svg" fill="#002466" viewBox="0 0 24 24"><path d="M12 1C5.935 1 1 5.935 1 12s4.935 11 11 11 11-4.935 11-11S18.065 1 12 1m0 20.5c-5.238 0-9.5-4.262-9.5-9.5S6.762 2.5 12 2.5s9.5 4.262 9.5 9.5-4.262 9.5-9.5 9.5m.073-14.259c-.726 0-1.327.177-1.788.527s-.785.849-.959 1.483c-.029.085-.025.124.07.169l1.151.479q.073.035.104.023c.031-.012.049-.048.069-.103a1.75 1.75 0 0 1 .359-.68c.176-.198.432-.298.76-.298a.87.87 0 0 1 .627.242q.252.244.253.679a1.2 1.2 0 0 1-.175.651q-.166.264-.411.463a2.7 2.7 0 0 1-.518.335l-.505.231c-.109.039-.124.086-.114.161l.11 1.549c.012.104.048.122.126.122h1.501c.078 0 .114-.019.126-.127l.074-1.234.075-.039a7 7 0 0 0 .653-.385 2.3 2.3 0 0 0 .531-.485 2.3 2.3 0 0 0 .36-.66 2.6 2.6 0 0 0 .136-.886c0-.694-.228-1.224-.696-1.62s-1.117-.598-1.921-.598zm-.165 7.326c-.337 0-.597.1-.794.305s-.295.472-.295.812c0 .329.098.584.298.781s.461.295.791.295c.34 0 .604-.095.806-.289s.297-.45.297-.787c0-.348-.096-.615-.294-.817s-.462-.299-.809-.299z"/></svg>