<svg xmlns="http://www.w3.org/2000/svg" viewBox="0 0 24 24"><path fill="#002466" d="M14.071 13.512h-1.874l2.053 2.738H12v1.5h3.196A11.4 11.4 0 0 1 16.08 20H7.919a11.3 11.3 0 0 1 1.831-3.75l5.699-7.6A12.83 12.83 0 0 0 18 1h-1.5c0 .503-.043 1.003-.11 1.5H7.61A11 11 0 0 1 7.5 1H6a12.83 12.83 0 0 0 2.551 7.65l1.392 1.856h1.874L9.75 7.75H12v-1.5H8.804A11.4 11.4 0 0 1 7.919 4h8.161a11.3 11.3 0 0 1-1.831 3.75l-5.699 7.6A12.83 12.83 0 0 0 6 23h1.5c0-.503.043-1.003.11-1.5h8.779c.068.497.11.997.11 1.5H18a12.83 12.83 0 0 0-2.551-7.65z"/></svg>