<svg xmlns="http://www.w3.org/2000/svg" viewBox="0 0 24 24"><path fill="#002466" d="M1 3.5v17h22v-17zM21.5 19h-19V5h19z"/><path fill="#002466" d="M17 7.25H4v9.5h13zm-1.5 8h-10v-6.5h10z"/><path fill="#002466" d="M8.788 12.734v1.197h1.5v-1.197c0-.837-.682-1.519-1.538-1.538V10h-1.5v1.196c0 .838.682 1.52 1.538 1.538m3.25 0v1.197h1.5v-1.197c0-.837-.682-1.519-1.538-1.538V10h-1.5v1.196c0 .838.682 1.52 1.538 1.538"/><circle cx="19.25" cy="13.25" r=".75" fill="#002466"/><circle cx="19.25" cy="10.25" r=".75" fill="#002466"/></svg>