<svg xmlns="http://www.w3.org/2000/svg" fill="#002466" viewBox="0 0 24 24"><path d="M13.457 19.75a1.75 1.75 0 0 1-1.744 1.75H4.239a1.75 1.75 0 0 1-1.744-1.75V4.25A1.75 1.75 0 0 1 4.239 2.5h7.474a1.75 1.75 0 0 1 1.744 1.75V5.5h1.495V4.25A3.25 3.25 0 0 0 11.713 1H4.239A3.25 3.25 0 0 0 1 4.25v15.5A3.25 3.25 0 0 0 4.239 23h7.474a3.25 3.25 0 0 0 3.239-3.25V18.5h-1.495zM5.983 18h3.986v1.5H5.983zm10.29-3.706v-.009l-1.495.009zm-1.495-4.16h1.495v2.774h-1.495z"/><path d="M22.106 10.686H23V6.5H9.796v4.186h1.241a.93.93 0 0 1 .926.929.93.93 0 0 1-.926.929H9.796v4.186H23v-4.186h-.894a.93.93 0 0 1-.926-.929.93.93 0 0 1 .926-.929m-.6 3.282v1.261h-5.232v-.932h-1.495v.932h-3.488V14.03a2.43 2.43 0 0 0 0-4.831V8h3.488v.747h1.495V8h5.232v1.261a2.43 2.43 0 0 0 0 4.706z"/></svg>