<svg xmlns="http://www.w3.org/2000/svg" fill="#002466" viewBox="0 0 24 24"><path d="M6.121 17.848H9.5v-1.5H7.621v-4.232H14.5v5.732H18v-7.232H6.121zm10.379-1.5H16v-4.232h.5zm-6.912-3.203h-.285a.3.3 0 0 0-.096.021l-.508.207c-.075.025-.107.09-.083.168l.094.282c.025.075.09.108.171.082l.177-.067v1.349c0 .082.053.134.134.134h.396c.081 0 .134-.053.134-.134v-1.906c0-.082-.053-.134-.134-.134zm.876 2.147a.9.9 0 0 0 .323.063q.166 0 .325-.063a.75.75 0 0 0 .281-.203 1 1 0 0 0 .192-.352 1.6 1.6 0 0 0 .071-.505 1.6 1.6 0 0 0-.071-.505 1 1 0 0 0-.192-.351.76.76 0 0 0-.282-.204.87.87 0 0 0-.647 0 .7.7 0 0 0-.283.204q-.12.139-.192.351a1.6 1.6 0 0 0-.071.505 1.6 1.6 0 0 0 .071.505 1 1 0 0 0 .192.351.7.7 0 0 0 .283.204m.12-1.06q0-.313.067-.437c.057-.104.116-.104.136-.104s.079 0 .136.104c.031.058.068.18.068.438a1.6 1.6 0 0 1-.021.27.6.6 0 0 1-.049.164.2.2 0 0 1-.062.075.14.14 0 0 1-.146 0q-.032-.02-.062-.074c-.03-.054-.037-.096-.049-.165a1.5 1.5 0 0 1-.02-.269zm1.728 1.06a.9.9 0 0 0 .324.063q.166 0 .324-.063a.7.7 0 0 0 .281-.203 1 1 0 0 0 .192-.352 1.6 1.6 0 0 0 .071-.505 1.6 1.6 0 0 0-.071-.505 1 1 0 0 0-.192-.351.7.7 0 0 0-.281-.204.87.87 0 0 0-.648 0 .7.7 0 0 0-.283.204 1 1 0 0 0-.191.351 1.6 1.6 0 0 0-.071.505q0 .298.071.504a1 1 0 0 0 .191.352.74.74 0 0 0 .283.204m.12-1.06q0-.313.068-.437c.051-.093.102-.104.136-.104.02 0 .078 0 .135.104.031.058.068.18.068.438a1.5 1.5 0 0 1-.02.269.6.6 0 0 1-.05.165.2.2 0 0 1-.062.075.14.14 0 0 1-.146 0 .2.2 0 0 1-.061-.074.6.6 0 0 1-.05-.165 1.5 1.5 0 0 1-.02-.269z"/><path d="M12.061 15.969a2.02 2.02 0 0 0-2.016 2.016A2.02 2.02 0 0 0 12.061 20a2.02 2.02 0 0 0 2.016-2.016 2.02 2.02 0 0 0-2.016-2.016zm0 2.531a.517.517 0 1 1 .001-1.033.517.517 0 0 1-.001 1.033M18.75 1H5.25A3.254 3.254 0 0 0 2 4.25v15.5A3.254 3.254 0 0 0 5.25 23h13.5A3.254 3.254 0 0 0 22 19.75V4.25A3.254 3.254 0 0 0 18.75 1m1.75 18.75c0 .965-.785 1.75-1.75 1.75H5.25c-.965 0-1.75-.785-1.75-1.75V7.25h1.388A2.25 2.25 0 0 0 7 8.75h1c.976 0 1.801-.629 2.112-1.5H20.5zM6.25 6.5A.75.75 0 0 1 7 5.75h1a.75.75 0 1 1 0 1.5H7a.75.75 0 0 1-.75-.75m14.25-.75H10.112A2.25 2.25 0 0 0 8 4.25H7c-.976 0-1.801.629-2.112 1.5H3.5v-1.5c0-.965.785-1.75 1.75-1.75h13.5c.965 0 1.75.785 1.75 1.75z"/></svg>