<svg xmlns="http://www.w3.org/2000/svg" fill="#002466" viewBox="0 0 24 24"><path d="M7.495 16.976a3.36 3.36 0 0 0 3.354-3.355 3.36 3.36 0 0 0-3.354-3.354 3.36 3.36 0 0 0-3.354 3.354 3.36 3.36 0 0 0 3.354 3.355m0-5.211a1.86 1.86 0 0 1 1.856 1.856 1.86 1.86 0 0 1-1.856 1.857 1.86 1.86 0 0 1-1.856-1.857 1.86 1.86 0 0 1 1.856-1.856m2.779 6.492H4.716a3.705 3.705 0 0 0-3.701 3.701V23h1.498v-1.043c0-1.215.988-2.203 2.203-2.203h5.558c1.215 0 2.204.988 2.204 2.203V23h1.498v-1.043a3.706 3.706 0 0 0-3.702-3.701zM14.71 3.244l-1.135-1.135-1.059 1.059 2.194 2.194 3.303-3.303L16.954 1zm4.115-.08h4.16v1.498h-4.16zM14.71 8.098l-1.135-1.135-1.059 1.059 2.194 2.194 3.303-3.303-1.059-1.059zm4.115-.079h4.16v1.498h-4.16zm0 4.853h4.16v1.498h-4.16zm-5.791 2.842h4.185v-4.185h-4.185zm1.498-2.687h1.189v1.189h-1.189z"/></svg>