<svg xmlns="http://www.w3.org/2000/svg" viewBox="0 0 24 24"><path fill="#002466" d="M22.554 17.02 14.81 3.712A3.22 3.22 0 0 0 12 2.097a3.22 3.22 0 0 0-2.81 1.616L1.446 17.019a3.22 3.22 0 0 0-.008 3.255 3.22 3.22 0 0 0 2.817 1.629h15.49c1.176 0 2.23-.609 2.816-1.629s.584-2.237-.008-3.254zm-1.292 2.506a1.73 1.73 0 0 1-1.517.877H4.255a1.73 1.73 0 0 1-1.516-.877 1.73 1.73 0 0 1 .005-1.752l7.744-13.307A1.73 1.73 0 0 1 12 3.597a1.73 1.73 0 0 1 1.513.87l7.744 13.308c.32.54.321 1.21.005 1.752zM15.81 9.029h-1.5v5.316l-1.792-4.53H8.302v3.94H5.769v3.562c0 .801.548 1.47 1.287 1.669a1.6 1.6 0 0 0 1.439.912c.609 0 1.132-.345 1.403-.846h.549c.272.501.797.846 1.407.846a1.6 1.6 0 0 0 1.406-.844h1.056v-.999a1.03 1.03 0 0 0 1.026.997h2.955v-1.5H15.81zm-4.312 2.286.965 2.44H9.802v-2.44zm-4.23 3.94h5.548v2.297H7.504a.235.235 0 0 1-.234-.235v-2.062z"/></svg>