<svg xmlns="http://www.w3.org/2000/svg" viewBox="0 0 24 24"><path fill="#002466" d="m17.931 11.091 3.417-8.528-1.393-.556-2.67 6.665L16.901 1l-1.498.075.404 8.071a3.3 3.3 0 0 0-1.088-.425c-.332-1.256-1.582-2.193-3.068-2.193s-2.727.931-3.063 2.193c-1.174.227-2.107 1.047-2.398 2.095-1.407.257-2.47 1.365-2.519 2.701H2.652v.749a6.345 6.345 0 0 0 4.972 6.218l.528.12V23h7v-2.397l.528-.12a6.345 6.345 0 0 0 4.972-6.218v-.749h-1.018c-.039-1.057-.715-1.963-1.703-2.425M6.845 12.257h.75v-.749c0-.733.757-1.353 1.652-1.353l.75-.019v-.749c0-.751.742-1.362 1.655-1.362s1.653.611 1.653 1.381v.749h.75c.896 0 1.652.62 1.652 1.353l.031.749h.75c.857 0 1.58.568 1.641 1.26H5.173c.062-.691.785-1.26 1.673-1.26zm8.503 6.766-1.696.385v2.095h-4v-2.095l-1.696-.385a4.85 4.85 0 0 1-3.747-4.009h14.887a4.85 4.85 0 0 1-3.747 4.009z"/></svg>