<svg xmlns="http://www.w3.org/2000/svg" fill="#002466" viewBox="0 0 24 24"><path d="M21 4.5H3V6h2v13.75A3.254 3.254 0 0 0 8.25 23h7.5A3.254 3.254 0 0 0 19 19.75V6h2zm-3.5 15.25c0 .965-.785 1.75-1.75 1.75h-7.5c-.965 0-1.75-.785-1.75-1.75V6h11zM10 1h4v1.5h-4zm1.122 19.5h1.756a2.216 2.216 0 0 0 2.214-2.213V14.73c0-.353-.093-.704-.269-1.013l-.059-.087a.44.44 0 0 1 0-.536l.058-.086c.177-.309.27-.66.27-1.013v-.619a3.06 3.06 0 0 0-1.464-2.622V7h-3.256v1.753a3.06 3.06 0 0 0-1.464 2.622v.619a2.04 2.04 0 0 0 .27 1.013l.058.086a.44.44 0 0 1 0 .536l-.059.087c-.176.309-.269.66-.269 1.013v3.557c0 1.22.993 2.213 2.214 2.213zm-.714-5.77a.6.6 0 0 1 .056-.24 1.94 1.94 0 0 0 0-2.257.55.55 0 0 1-.056-.239v-.619A1.57 1.57 0 0 1 11.4 9.91l.472-.188V8.5h.256v1.221l.472.188a1.57 1.57 0 0 1 .992 1.465v.619a.55.55 0 0 1-.056.239 1.94 1.94 0 0 0 0 2.257.6.6 0 0 1 .056.24v3.557c0 .394-.32.713-.714.713h-1.756a.714.714 0 0 1-.714-.713z"/></svg>