<svg xmlns="http://www.w3.org/2000/svg" fill="#002466" viewBox="0 0 24 24"><path d="M1 5v14h22V5zm20.5 12.5h-19v-11h19zM5.696 14.542a.2.2 0 0 0 .13-.036.3.3 0 0 0 .077-.108 6.4 6.4 0 0 1 .408-.878q.232-.413.491-.723h.021a6.4 6.4 0 0 1 .485.775q.227.423.372.827a.3.3 0 0 0 .077.108.2.2 0 0 0 .13.036h1.095q.103 0 .14-.057c.037-.057.022-.088-.005-.15a11 11 0 0 0-.713-1.276 8.3 8.3 0 0 0-.816-1.069q.484-.59.847-1.173a8 8 0 0 0 .6-1.163q.032-.083-.005-.14c-.037-.057-.067-.057-.129-.057H7.94q-.084 0-.13.036a.2.2 0 0 0-.077.108 6 6 0 0 1-.372.816 4.5 4.5 0 0 1-.476.703h-.021q-.258-.32-.48-.718a4.2 4.2 0 0 1-.367-.801q-.031-.072-.077-.108c-.046-.036-.074-.036-.129-.036H4.777q-.093 0-.135.057c-.042.057-.027.084 0 .14a8 8 0 0 0 .615 1.116 11 11 0 0 0 .842 1.116 9 9 0 0 0-.853 1.152q-.399.636-.697 1.297-.04.093 0 .15c.04.057.072.057.134.057zm5.167 0a.2.2 0 0 0 .13-.036.3.3 0 0 0 .077-.108 6.4 6.4 0 0 1 .408-.878q.232-.413.491-.723h.021a6.4 6.4 0 0 1 .485.775q.226.423.372.827a.3.3 0 0 0 .077.108.2.2 0 0 0 .13.036h1.095q.103 0 .14-.057c.037-.057.022-.088-.005-.15a11 11 0 0 0-.713-1.276 8.3 8.3 0 0 0-.816-1.069q.484-.59.847-1.173a8 8 0 0 0 .6-1.163q.032-.083-.005-.14c-.037-.057-.067-.057-.129-.057h-.961q-.084 0-.13.036a.2.2 0 0 0-.077.108 6 6 0 0 1-.372.816 4.5 4.5 0 0 1-.476.703h-.021q-.258-.32-.48-.718a4.2 4.2 0 0 1-.367-.801q-.031-.072-.077-.108c-.046-.036-.074-.036-.129-.036H9.944q-.093 0-.135.057c-.042.057-.027.084 0 .14a8 8 0 0 0 .615 1.116 11 11 0 0 0 .842 1.116 9 9 0 0 0-.853 1.152q-.399.636-.697 1.297-.04.093 0 .15c.04.057.072.057.134.057zm5.166 0a.2.2 0 0 0 .13-.036.3.3 0 0 0 .077-.108 6.4 6.4 0 0 1 .408-.878q.232-.413.491-.723h.021a6.4 6.4 0 0 1 .485.775q.226.423.372.827a.3.3 0 0 0 .077.108.2.2 0 0 0 .13.036h1.095q.103 0 .14-.057c.037-.057.022-.088-.005-.15a11 11 0 0 0-.713-1.276 8.3 8.3 0 0 0-.816-1.069q.484-.59.847-1.173a8 8 0 0 0 .6-1.163q.032-.083-.005-.14c-.037-.057-.067-.057-.129-.057h-.961q-.084 0-.13.036a.2.2 0 0 0-.077.108 6 6 0 0 1-.372.816 4.5 4.5 0 0 1-.476.703h-.021q-.258-.32-.48-.718a4.2 4.2 0 0 1-.367-.801q-.031-.072-.077-.108c-.046-.036-.074-.036-.129-.036H15.11q-.093 0-.135.057c-.042.057-.027.084 0 .14a8 8 0 0 0 .615 1.116 11 11 0 0 0 .842 1.116 9 9 0 0 0-.853 1.152q-.399.636-.697 1.297-.04.093 0 .15c.04.057.072.057.134.057z"/></svg>