<svg xmlns="http://www.w3.org/2000/svg" fill="#002466" viewBox="0 0 24 24"><path d="M14.281 13.504h-4.58a4.725 4.725 0 0 0-4.72 4.719A2.28 2.28 0 0 0 7.259 20.5h9.465A2.28 2.28 0 0 0 19 18.224a4.724 4.724 0 0 0-4.719-4.719zM16.724 19H7.259a.78.78 0 0 1-.777-.776 3.22 3.22 0 0 1 2.47-3.122v1.29h1.5v-1.387h.79v1.387h1.5v-1.387h.79v1.387h1.5v-1.29a3.22 3.22 0 0 1 2.469 3.122.78.78 0 0 1-.776.776zm4.227-15.539A3.245 3.245 0 0 0 17.798 1H6.202a3.245 3.245 0 0 0-3.153 2.462L2.022 7.568 2 19.75A3.254 3.254 0 0 0 5.25 23h13.5A3.254 3.254 0 0 0 22 19.75v-12zm-16.447.364A1.75 1.75 0 0 1 6.202 2.5h11.596a1.75 1.75 0 0 1 1.698 1.325L20.289 7H15.5V5.75h-7V7H3.711zM14 7.25V8h-4v-.75zm4.75 14.25H5.25c-.965 0-1.75-.785-1.75-1.75V8.5h5v1h7v-1h5v11.25c0 .965-.785 1.75-1.75 1.75"/></svg>