<svg xmlns="http://www.w3.org/2000/svg" viewBox="0 0 24 24"><path fill="#002466" d="m5.749 9.521 16.887-4.158L21.566 1 1 6.064l.821 3.457V23H23V9.521zm8.653 1.498h3.056l-1.495 1.498h-3.056zm-5.295 0h3.181l-1.495 1.498H7.612zm-2.114 0-1.495 1.498H3.316v-1.498zm12.13-7.875 1.347-.332.357 1.455-2.803.69zm-5.027 1.238 2.972-.732-1.099 1.813-2.972.732zM8.949 5.649l3.093-.762L10.944 6.7l-3.092.761L8.95 5.648zM2.808 7.161l4.085-1.006-1.098 1.813-2.629.647-.357-1.454zm18.697 14.341H3.316v-7.488h18.189zm0-8.986h-3.428l1.495-1.498h1.933z"/></svg>