<svg xmlns="http://www.w3.org/2000/svg" viewBox="0 0 24 24"><path fill="#002466" d="M18.231 7.706a7.1 7.1 0 0 0-1.722-1.34c1.204-.29 2.103-1.36 2.103-2.641V1h-2.75a2.74 2.74 0 0 0-2.7 2.233A5.26 5.26 0 0 0 8.862 1v1.486a3.746 3.746 0 0 1 3.677 2.999 7.12 7.12 0 0 0-4.914 2.431c-1.353 1.561-1.948 3.623-1.641 5.611l.121 1.337a4.79 4.79 0 0 1-1.53 3.978 2.23 2.23 0 0 0-.713 1.63c0 1.142.863 2.096 2.009 2.219l2.246.243A11 11 0 0 0 9.321 23c2.529 0 4.951-.867 6.925-2.497a10.64 10.64 0 0 0 3.874-7.488 7.04 7.04 0 0 0-1.889-5.309m-3.619-3.981c0-.683.561-1.239 1.25-1.239h1.25v1.239c0 .683-.561 1.239-1.25 1.239h-1.25zm4.012 9.183c-.185 2.534-1.37 4.826-3.339 6.453s-4.455 2.373-7.006 2.096l-2.246-.243a.747.747 0 0 1-.433-1.287 6.27 6.27 0 0 0 1.999-5.197l-.127-1.382a5.53 5.53 0 0 1 1.291-4.465 5.63 5.63 0 0 1 4.26-1.939 5.58 5.58 0 0 1 4.109 1.773 5.48 5.48 0 0 1 1.491 4.19z"/></svg>