<svg xmlns="http://www.w3.org/2000/svg" fill="#002466" viewBox="0 0 24 24"><path d="M18.052 8h-.538l.341-2.091.145-.951a1.94 1.94 0 0 0-1.94-1.94 1.93 1.93 0 0 0-1.19.409c-.055-.043-.126-.061-.186-.096.058-.096.114-.192.189-.276.322-.353.78-.555 1.258-.555V1a3.2 3.2 0 0 0-2.366 1.044 3.2 3.2 0 0 0-.648 1.084 1.8 1.8 0 0 0-.628.299c-.673-.525-1.752-.507-2.445.057l-.237-.255C8.271 1.787 6.218 1.374 4.172 2.093l-1.131.399-.024.641-1.311-.036-.041 1.499 1.295.035-.021.56 1.262.124A4.28 4.28 0 0 1 7.736 8H4.365v1.5h1.583v10.25A3.254 3.254 0 0 0 9.198 23h5.604a3.254 3.254 0 0 0 3.25-3.25V9.5h1.583V8zM10.95 4.686c.236-.299.786-.106.787.272h1.5a.441.441 0 0 1 .882 0h1.5a.44.44 0 0 1 .44-.44c.243 0 .44.198.443.379l-.126.761L16 8h-4.391a5.7 5.7 0 0 0-.711-3.355zM4.491 3.84l.011-.272.168-.059c1.5-.528 2.996-.23 4.108.814 1.027.964 1.517 2.364 1.323 3.678h-.794c-.624-2.207-2.514-3.872-4.816-4.16zm12.061 15.91c0 .965-.785 1.75-1.75 1.75H9.198c-.965 0-1.75-.785-1.75-1.75V9.5h9.104zm-7.21-7.891h1.5v6.786h-1.5zm3.816 0h1.5v6.786h-1.5z"/></svg>