<svg xmlns="http://www.w3.org/2000/svg" viewBox="0 0 24 24"><path fill="#002466" d="M18 19.997V1h-1.5v14.5h-1.482v-1.643L12.01 6.25H5.5v7H1v5.747c0 1.251.927 2.281 2.128 2.462A2.26 2.26 0 0 0 5.261 23a2.26 2.26 0 0 0 2.121-1.503H9.1C9.417 22.37 10.247 23 11.229 23s1.81-.628 2.127-1.5h1.662V20H16.5v.247a1.25 1.25 0 0 0 1.25 1.25H23v-1.5zM10.99 7.75l2.174 5.5H7v-5.5zM5.261 21.5a.76.76 0 1 1 0-1.521.76.76 0 1 1 0 1.521m5.968 0a.77.77 0 0 1-.771-.772.77.77 0 1 1 1.543 0 .77.77 0 0 1-.771.772zM13.37 20c-.305-.894-1.144-1.543-2.141-1.543s-1.834.647-2.14 1.54H7.386a2.26 2.26 0 0 0-2.125-1.518 2.26 2.26 0 0 0-2.104 1.449.99.99 0 0 1-.657-.931V14.75h11.018V20zm1.648-1.5V17H16.5v1.5z"/></svg>