<svg xmlns="http://www.w3.org/2000/svg" fill="#002466" viewBox="0 0 24 24"><path d="M11.25 10h1.5v1.5h-1.5zM7.5 10H9v1.5H7.5zm7.5 0h1.5v1.5H15zm-2 3.25h1.5v1.5H13zm-3.75 0h1.5v1.5h-1.5zm2 3.25h1.5V18h-1.5zm9.463-6.583a6.42 6.42 0 0 0-4.071-4.296 2.85 2.85 0 0 0 .608-1.747V1h-2.875a2.87 2.87 0 0 0-2.741 2.053C10.673 1.813 9.186 1 7.5 1v1.5c1.719 0 3.156 1.169 3.597 2.75h-1.58a6.5 6.5 0 0 0-2.119.355c-2.014.696-3.512 2.268-4.11 4.312s-.185 4.175 1.135 5.847l4.56 5.773C9.715 22.467 10.815 23 12 23s2.285-.533 3.019-1.462l4.56-5.773a6.42 6.42 0 0 0 1.135-5.847zM13 3.875c0-.758.617-1.375 1.375-1.375h1.375v1.375c0 .758-.617 1.375-1.375 1.375H13zm5.4 10.96-4.56 5.773c-.895 1.134-2.787 1.134-3.682 0L5.6 14.835a4.93 4.93 0 0 1-.873-4.496 4.93 4.93 0 0 1 3.161-3.315 5 5 0 0 1 1.629-.273h4.967c.556 0 1.104.092 1.629.273a4.93 4.93 0 0 1 3.161 3.315 4.93 4.93 0 0 1-.873 4.496z"/></svg>