<svg xmlns="http://www.w3.org/2000/svg" fill="#002466" viewBox="0 0 24 24"><path d="M20.25 5H3.75A2.75 2.75 0 0 0 1 7.75v8.5A2.75 2.75 0 0 0 3.75 19h16.5A2.75 2.75 0 0 0 23 16.25v-8.5A2.75 2.75 0 0 0 20.25 5m1.25 11.25a1.25 1.25 0 0 1-1.25 1.25H3.75a1.25 1.25 0 0 1-1.25-1.25v-8.5A1.25 1.25 0 0 1 3.75 6.5h16.5a1.25 1.25 0 0 1 1.25 1.25zM4 12.528h4.528V8H4zm1.459-3.062a1.135 1.135 0 0 1 1.937.798c0 .624-.508 1.132-1.132 1.132s-1.132-.508-1.132-1.132a1.12 1.12 0 0 1 .327-.798M11.5 8.028H20v1.5h-8.5zm0 3H20v1.5h-8.5zm5.25 3.5H20v1.5h-3.25z"/></svg>