<svg xmlns="http://www.w3.org/2000/svg" viewBox="0 0 24 24"><path fill="#002466" d="M22.987 14.464A10.983 10.983 0 0 0 12 4C6.262 4 1.442 8.479 1.027 14.229L1 16.75A3.254 3.254 0 0 0 4.25 20H5.5v-8.5H4.25a3.2 3.2 0 0 0-1.164.225C4.431 8.085 7.949 5.5 12 5.5a9.49 9.49 0 0 1 8.92 6.227 3.2 3.2 0 0 0-1.17-.227H18.5V20h1.25A3.254 3.254 0 0 0 23 16.75zM4 18.482a1.754 1.754 0 0 1-1.5-1.732l.019-2.207A1.75 1.75 0 0 1 4 13.018v5.465zm17.5-1.732c0 .88-.653 1.61-1.5 1.732v-5.465c.847.122 1.5.853 1.5 1.732v2z"/></svg>