<svg xmlns="http://www.w3.org/2000/svg" fill="#002466" viewBox="0 0 24 24"><path d="M4.754 20h8v-4.5h-8zm1.5-3h5v1.5h-5zm-.5-8h6v1.5h-6zm14.343 2.935-2.112 1.219 4.26-5.582L15.56 2.47l-2.524 3.005a7 7 0 0 0-1.032-.669V4.25c0-1.792-1.458-3.25-3.25-3.25s-3.25 1.458-3.25 3.25v.556A7 7 0 0 0 1.754 11v8.75A3.254 3.254 0 0 0 5.004 23h7.5a3.254 3.254 0 0 0 3.25-3.25v-.689l6.343-3.662zM15.789 4.53l4.355 3.324-4.39 5.751V11a6.95 6.95 0 0 0-.918-3.452l2.718 2.074.91-1.192-2.826-2.157-.878 1.15a7 7 0 0 0-.639-.909l1.667-1.984zM8.754 2.5a1.75 1.75 0 0 1 1.748 1.73A7 7 0 0 0 8.754 4a7 7 0 0 0-1.748.23A1.75 1.75 0 0 1 8.754 2.5m5.5 17.25c0 .965-.785 1.75-1.75 1.75h-7.5c-.965 0-1.75-.785-1.75-1.75V11a5.51 5.51 0 0 1 5.5-5.5 5.51 5.51 0 0 1 5.5 5.5zm1.5-2.421v-1.155l3.794-2.19.5.866z"/></svg>