<svg xmlns="http://www.w3.org/2000/svg" fill="#002466" viewBox="0 0 24 24"><path d="M18.143 3.619C18.143 2.175 16.968 1 15.524 1s-2.619 1.175-2.619 2.619v7.136a4 4 0 0 0-1.405 3.054 4.025 4.025 0 0 0 8.048 0 4 4 0 0 0-1.406-3.054zm-2.619 12.706A2.523 2.523 0 0 1 13 13.808c0-.831.403-1.603 1.079-2.065l.327-.224v-7.9A1.12 1.12 0 0 1 15.524 2.5a1.12 1.12 0 0 1 1.119 1.119v7.901l.327.224a2.5 2.5 0 0 1 1.079 2.065 2.523 2.523 0 0 1-2.524 2.517zm.75-4.232V7.73h-1.5v4.362a1.87 1.87 0 0 0-1.122 1.712 1.873 1.873 0 0 0 3.743 0c0-.765-.462-1.422-1.121-1.712zm-.75 2.083a.371.371 0 1 1 0-.742.371.371 0 1 1 0 .742m4.112-11.307h2.056v1.5h-2.056zm0 2.243H23v1.5h-3.364zm0 2.242h2.056v1.5h-2.056zm0 2.243H23v1.5h-3.364zM8 3.772V1H3.5v2.772A4.7 4.7 0 0 0 1 7.942V9a2.97 2.97 0 0 0 .39 1.468l.058.087c.356.46.356 1.103 0 1.563l-.058.087A2.97 2.97 0 0 0 1 13.674v6.076A3.254 3.254 0 0 0 4.25 23h3a3.254 3.254 0 0 0 3.25-3.25v-6.076a2.97 2.97 0 0 0-.39-1.468l-.058-.087a1.276 1.276 0 0 1 0-1.562l.058-.087A2.97 2.97 0 0 0 10.5 9V7.942A4.7 4.7 0 0 0 8 3.772M9 9c0 .239-.059.476-.172.688a2.78 2.78 0 0 0 0 3.299 1.46 1.46 0 0 1 .172.688v6.076c0 .965-.785 1.75-1.75 1.75h-3c-.965 0-1.75-.785-1.75-1.75v-6.076a1.46 1.46 0 0 1 .172-.687 2.78 2.78 0 0 0 0-3.299A1.5 1.5 0 0 1 2.5 9V7.942a3.21 3.21 0 0 1 2.029-2.996L5 4.758V2.5h1.5v2.258l.471.188A3.21 3.21 0 0 1 9 7.942z"/></svg>