<svg xmlns="http://www.w3.org/2000/svg" fill="#002466" viewBox="0 0 24 24"><path d="M6.746 13.627a2 2 0 0 1-.458-.044 1.6 1.6 0 0 1-.334-.11q-.154-.08-.198.095l-.198.741q-.037.117.074.176a2 2 0 0 0 .487.165 3 3 0 0 0 .679.069q.476 0 .839-.11a1.8 1.8 0 0 0 .609-.312 1.3 1.3 0 0 0 .37-.484 1.5 1.5 0 0 0 .124-.62 1.3 1.3 0 0 0-.08-.469 1.1 1.1 0 0 0-.217-.352 1 1 0 0 0-.315-.231 1.1 1.1 0 0 0-.377-.099v-.029a1.4 1.4 0 0 0 .315-.146 1 1 0 0 0 .271-.246q.118-.15.191-.359c.073-.209.073-.297.073-.473a1.3 1.3 0 0 0-.106-.535 1.14 1.14 0 0 0-.301-.411 1.4 1.4 0 0 0-.47-.264 1.9 1.9 0 0 0-.619-.095q-.646 0-1.049.26c-.403.26-.479.422-.631.744q-.066.118.059.191l.624.359q.139.073.212-.066a.77.77 0 0 1 .279-.315.7.7 0 0 1 .374-.095.47.47 0 0 1 .326.121q.136.121.136.349 0 .286-.22.429c-.22.143-.379.143-.697.143h-.117a.09.09 0 0 0-.103.103v.762q0 .103.103.103h.117q.5 0 .733.132c.233.132.234.223.234.403q0 .52-.74.521zm4.671-3.116a.8.8 0 0 1 .399.088.85.85 0 0 1 .282.249q.09.133.221.037l.594-.455q.11-.081.029-.198-.11-.161-.246-.301c-.136-.14-.195-.172-.314-.238s-.259-.117-.415-.154a2.3 2.3 0 0 0-.535-.055 2.2 2.2 0 0 0-.777.143 1.76 1.76 0 0 0-.678.462q-.297.318-.48.833c-.183.515-.184.758-.184 1.247q0 .675.128 1.155c.128.48.211.584.374.792a1.47 1.47 0 0 0 .598.459 2.1 2.1 0 0 0 .8.146q.396 0 .715-.125a1.5 1.5 0 0 0 .543-.355 1.6 1.6 0 0 0 .345-.558 2.1 2.1 0 0 0 .121-.737q0-.389-.106-.689a1.5 1.5 0 0 0-.294-.506q-.186-.206-.451-.312c-.265-.106-.366-.106-.571-.106a1.4 1.4 0 0 0-.547.099 1.1 1.1 0 0 0-.385.261h-.021q.043-.594.249-.888c.206-.294.34-.293.608-.293zm-.602 1.87a.74.74 0 0 1 .382-.088q.587 0 .587.675 0 .345-.169.502a.58.58 0 0 1-.411.157.6.6 0 0 1-.26-.051.44.44 0 0 1-.19-.168q-.077-.118-.125-.315c-.048-.197-.055-.298-.069-.499a1.1 1.1 0 0 1 .256-.213zm5.398-2.754a2 2 0 0 0-.741-.143q-.382 0-.74.143a1.65 1.65 0 0 0-.635.458 2.4 2.4 0 0 0-.443.814q-.168.499-.169 1.203c-.001.704.057.87.169 1.203s.261.604.443.814a1.65 1.65 0 0 0 .635.458 2 2 0 0 0 .74.143 2 2 0 0 0 .741-.143 1.64 1.64 0 0 0 .634-.458q.275-.315.444-.814c.169-.499.168-.733.168-1.203s-.056-.87-.168-1.203-.261-.604-.444-.814a1.64 1.64 0 0 0-.634-.458m-.096 3.179a1.7 1.7 0 0 1-.143.466.64.64 0 0 1-.22.26.5.5 0 0 1-.283.081.5.5 0 0 1-.282-.081q-.127-.081-.22-.26c-.093-.179-.108-.275-.143-.466s-.052-.425-.052-.704q0-.829.194-1.185c.194-.356.297-.355.502-.355s.373.119.503.355.194.632.194 1.185q0 .417-.052.704zm1.772-3.18q-.302.302-.303.779c-.001.477.102.579.303.782s.462.306.779.306a1.07 1.07 0 0 0 .785-.302 1.06 1.06 0 0 0 .303-.786q0-.476-.303-.779c-.303-.303-.464-.303-.785-.303s-.577.101-.779.303m1.256.779q0 .22-.131.357c-.131.137-.203.138-.346.138a.44.44 0 0 1-.339-.138q-.131-.137-.132-.357c-.001-.22.044-.26.132-.351a.45.45 0 0 1 .339-.138q.209 0 .342.138a.48.48 0 0 1 .135.351M6 7.25H3.771A9.44 9.44 0 0 1 12 2.5c5.238 0 9.5 4.262 9.5 9.5H23c0-6.065-4.935-11-11-11a10.93 10.93 0 0 0-9.5 5.445V3.75H1v5h5zm12 9.5h2.229A9.44 9.44 0 0 1 12 21.5c-5.238 0-9.5-4.262-9.5-9.5H1c0 6.065 4.935 11 11 11a10.93 10.93 0 0 0 9.5-5.445v2.695H23v-5h-5z"/></svg>