<svg xmlns="http://www.w3.org/2000/svg" fill="#002466" viewBox="0 0 24 24"><path d="M18.625 9h-2.938a6.06 6.06 0 0 0-3.312-3.311V5h1.25c1.103 0 2-.897 2-2s-.897-2-2-2h-7c-1.103 0-2 .897-2 2s.897 2 2 2h1.25v.689A6.06 6.06 0 0 0 4.563 9H2.125v1.5h3.53l.158-.537A4.52 4.52 0 0 1 8.837 6.94l.537-.159V5h1.5v1.78l.537.159a4.52 4.52 0 0 1 3.024 3.023l.158.537h4.03c.965 0 1.75.785 1.75 1.75v3.25h-1.5V12h-4.28l-.159.538c-.558 1.892-2.331 3.212-4.311 3.212s-3.753-1.321-4.311-3.212L5.655 12h-3.53v1.5h2.437c.903 2.234 3.114 3.75 5.563 3.75s4.659-1.516 5.562-3.75h1.688V17h4.5v-4.75A3.254 3.254 0 0 0 18.625 9m-12.5-6a.5.5 0 0 1 .5-.5h7a.5.5 0 1 1 0 1h-7a.5.5 0 0 1-.5-.5m14.016 14.956-.516-.489-.516.489c-.407.386-1.734 1.726-1.734 2.794 0 1.241 1.01 2.25 2.25 2.25s2.25-1.009 2.25-2.25c0-1.068-1.327-2.409-1.734-2.794m-.516 3.544a.75.75 0 0 1-.75-.749c.01-.196.332-.682.75-1.165.418.482.74.968.75 1.164a.75.75 0 0 1-.75.749z"/></svg>