<svg xmlns="http://www.w3.org/2000/svg" fill="#002466" viewBox="0 0 24 24"><path d="m20.359 11.571 2.321-3.095-2.274-3.938-3.883.359-.627-.361L14.266 1H9.734l-1.63 3.536-.627.361-3.883-.359L1.32 8.474l2.315 3.106.005.847-2.318 3.102 2.272 3.933 3.881-.358.635.368L9.734 23h4.531l1.625-3.529.635-.368 3.881.358 2.272-3.933-2.319-3.104zm.526 4.063-1.298 2.248-3.402-.315-1.459.848-1.422 3.087h-2.609l-1.422-3.087-1.459-.848-3.402.315-1.298-2.248 2.027-2.714-.009-1.84-2.021-2.71 1.3-2.251 3.4.314 1.453-.837 1.43-3.097h2.609l1.43 3.097 1.453.837 3.4-.314 1.3 2.25-2.028 2.704v1.849l2.026 2.712zM12 8.119A3.89 3.89 0 0 0 8.113 12 3.89 3.89 0 0 0 12 15.881 3.89 3.89 0 0 0 15.886 12 3.89 3.89 0 0 0 12 8.119m0 6.265A2.39 2.39 0 0 1 9.613 12 2.39 2.39 0 0 1 12 9.617 2.39 2.39 0 0 1 14.386 12 2.39 2.39 0 0 1 12 14.383z"/></svg>