<svg xmlns="http://www.w3.org/2000/svg" fill="#002466" viewBox="0 0 24 24"><path d="M8.28 8.952h-.654a.5.5 0 0 0-.103.011.4.4 0 0 0-.09.03l-1.457.595a.22.22 0 0 0-.121.111.26.26 0 0 0-.008.172l.217.641q.038.1.118.133c.08.033.113.02.168-.003l.813-.307v4.494q0 .099.061.162c.061.063.095.06.161.06h.896q.099 0 .162-.061c.063-.061.06-.094.06-.161V9.173q0-.099-.061-.162c-.061-.063-.095-.06-.161-.06zm4.345 2.931q.393-.258.594-.589a1.6 1.6 0 0 0 .222-.845c0-.486-.173-.879-.513-1.169s-.791-.432-1.346-.432c-.573 0-1.042.154-1.394.458s-.535.723-.535 1.237c0 .322.073.608.218.849q.196.327.597.571-.46.255-.698.611a1.6 1.6 0 0 0-.263.899c0 .509.188.922.558 1.226s.859.452 1.466.452c.601 0 1.1-.164 1.483-.488s.582-.75.582-1.259q0-.53-.258-.917-.236-.35-.713-.605zm-1.553-1.763a.68.68 0 0 1 .491-.173q.305 0 .482.168c.177.168.175.267.175.472a.74.74 0 0 1-.145.451 1.3 1.3 0 0 1-.437.353q-.454-.206-.604-.386a.63.63 0 0 1-.146-.417c0-.199.06-.351.183-.467zm1.03 3.7a.75.75 0 0 1-.547.199c-.241 0-.429-.065-.574-.2s-.212-.305-.212-.527a.76.76 0 0 1 .182-.492q.178-.22.493-.358.504.196.686.392a.65.65 0 0 1 .178.458c0 .222-.067.395-.205.528zm6-2.025a.22.22 0 0 0-.16-.06H16.75v-1.27q0-.1-.061-.161c-.061-.061-.096-.061-.161-.061h-.663a.22.22 0 0 0-.16.061.22.22 0 0 0-.062.161v1.27h-1.184q-.098 0-.161.061c-.063.061-.061.096-.061.161v.646q0 .098.062.162c.062.064.095.06.16.06h1.184v1.287q0 .101.061.161c.061.06.094.061.161.061h.663q.099 0 .162-.061c.063-.061.06-.094.06-.161v-1.287h1.192q.098 0 .161-.061c.063-.061.061-.095.061-.161v-.646a.23.23 0 0 0-.061-.161zM12 1C5.935 1 1 5.935 1 12s4.935 11 11 11 11-4.935 11-11S18.065 1 12 1m0 20.5c-5.238 0-9.5-4.262-9.5-9.5S6.762 2.5 12 2.5s9.5 4.262 9.5 9.5-4.262 9.5-9.5 9.5"/></svg>