<svg xmlns="http://www.w3.org/2000/svg" viewBox="0 0 24 24"><path fill="#002466" d="M12 1C7.638 1 4.254 8.194 4.254 14.384 4.254 19.859 7.077 23 12 23s7.746-3.141 7.746-8.616C19.746 8.194 16.362 1 12 1m0 1.5c1.944 0 3.756 2.303 4.923 5.261l-1.127 1.128-1.898-1.899L12 8.888 10.102 6.99 8.203 8.889 7.076 7.762C8.244 4.803 10.056 2.5 12 2.5m0 19c-3.219 0-5.277-1.618-5.976-4.607l.281-.281 1.898 1.898 1.898-1.898L12 18.51l1.897-1.898 1.898 1.898 1.898-1.898.282.282C17.277 19.882 15.218 21.5 12 21.5m5.693-7.009-1.897 1.897-1.898-1.899L12 16.388l-1.898-1.898-1.898 1.898-1.898-1.898-.531.531c-.01-.209-.02-.419-.02-.638 0-1.627.285-3.39.775-5.048l1.674 1.674 1.898-1.898L12 11.01l1.897-1.898 1.898 1.898 1.675-1.675c.491 1.658.775 3.421.775 5.049 0 .219-.01.429-.02.639z"/><circle cx="8.204" cy="13" r=".75" fill="#002466"/><circle cx="12" cy="13" r=".75" fill="#002466"/><circle cx="15.796" cy="13" r=".75" fill="#002466"/></svg>