<svg xmlns="http://www.w3.org/2000/svg" viewBox="0 0 24 24"><path fill="#002466" d="M21.389 9.536V7.991a7.2 7.2 0 0 0-.869-3.432c-1.527-2.812-4.989-4.18-8.234-3.251l-.1.029q-.129 0-.257.006l-.122-.035C8.562.379 5.1 1.747 3.572 4.558a7.2 7.2 0 0 0-.869 3.432v1.517A2.4 2.4 0 0 0 1 11.798v8.729c0 1.353 1.08 2.454 2.407 2.454s2.406-1.101 2.406-2.454v-8.729a2.4 2.4 0 0 0-1.61-2.262V7.991c0-.95.237-1.889.687-2.716.779-1.436 2.218-2.373 3.839-2.655A5.06 5.06 0 0 0 7 6.402v.782c0 2.784 2.263 5.049 5.046 5.049s5.046-2.265 5.046-5.049v-.782c0-1.494-.602-2.834-1.6-3.767 1.568.309 2.952 1.241 3.71 2.639.45.828.687 1.767.687 2.716v1.517a2.4 2.4 0 0 0-1.702 2.291v8.729c0 1.353 1.08 2.454 2.406 2.454S23 21.88 23 20.527v-8.729a2.4 2.4 0 0 0-1.611-2.262M4.314 20.527c0 .526-.407.954-.907.954s-.908-.428-.908-.954v-3.188h1.814zm0-4.688H2.499v-1.724h1.814zm0-4.041v.816H2.499v-.816a.91.91 0 0 1 .908-.908.91.91 0 0 1 .907.908m11.279-5.396v.782c0 1.957-1.591 3.549-3.547 3.549S8.499 9.141 8.499 7.184v-.782a3.56 3.56 0 0 1 2.083-3.221 3.61 3.61 0 0 1 3.143.029l.195.097c1.031.617 1.674 1.773 1.674 3.095zm5.908 14.125c0 .526-.407.954-.908.954s-.907-.428-.907-.954v-3.188H21.5v3.188zm0-4.688h-1.814v-1.724h1.814zm0-3.224h-1.814v-.816a.91.91 0 0 1 .907-.908.91.91 0 0 1 .908.908v.816z"/></svg>