<svg xmlns="http://www.w3.org/2000/svg" fill="#002466" viewBox="0 0 24 24"><path d="m19.671 7.331.867-.953-2.851-2.591-.932 1.025a9.7 9.7 0 0 0-2.663-1.016h.158v-1.5h-.695V1h-3.219v1.296H9.75v1.5h.158a9.7 9.7 0 0 0-2.663 1.016l-.932-1.025-2.851 2.591.867.953a9.66 9.66 0 0 0-2.047 5.951A9.72 9.72 0 0 0 12 23a9.72 9.72 0 0 0 9.718-9.718 9.66 9.66 0 0 0-2.047-5.951M12 21.5a8.23 8.23 0 0 1-8.218-8.218A8.23 8.23 0 0 1 12 5.064a8.23 8.23 0 0 1 8.218 8.218A8.23 8.23 0 0 1 12 21.5m3.737-13.263-2.945 2.945-.042-.013V6h-1.5v5.17a2.24 2.24 0 0 0-1.5 2.112 2.25 2.25 0 1 0 4.5 0c0-.412-.119-.792-.312-1.124l2.86-2.86zM12 14.032a.75.75 0 1 1 0-1.5.75.75 0 1 1 0 1.5"/></svg>