<svg xmlns="http://www.w3.org/2000/svg" fill="#002466" viewBox="0 0 24 24"><path d="M18.642 14.796A8.46 8.46 0 0 0 20.5 9.5a8.5 8.5 0 1 0-17 0 8.46 8.46 0 0 0 1.858 5.296l-2.325 5.572 3.879-.857 2.118 3.362 2.056-4.923A9 9 0 0 0 12 18a9 9 0 0 0 .914-.051l2.05 4.908 2.135-3.32 3.862.816zm-9.883 4.832-1.14-1.81-2.09.462.965-2.311a8.5 8.5 0 0 0 3.092 1.678zM5 9.5a7.01 7.01 0 0 1 7-7 7.01 7.01 0 0 1 7 7 7.01 7.01 0 0 1-7 7 7.01 7.01 0 0 1-7-7m11.397 8.355-1.15 1.788-.833-1.996a8.5 8.5 0 0 0 3.092-1.678l.971 2.325zm1.369-10.226-3.984-.58L12 3.439l-1.781 3.61-3.984.58 2.883 2.81-.681 3.968L12 12.533l3.563 1.874-.681-3.968zm-4.194 4.036L12 10.838l-1.571.826.3-1.75-1.271-1.239 1.758-.255L12 6.829l.785 1.591 1.758.255-1.271 1.239z"/></svg>