<svg xmlns="http://www.w3.org/2000/svg" fill="#002466" viewBox="0 0 24 24"><path d="M20.461 15.015h-7.973a2.54 2.54 0 0 0-2.42-1.783H5.659c-.324 0-.641.061-.942.182l-2.231.896A2.54 2.54 0 0 0 1 16.616v2.183c0 1.19.811 2.206 1.895 2.448l4.736 1.623a2.24 2.24 0 0 0 1.253.06l12.055-2.881A2.544 2.544 0 0 0 23 17.554c0-1.4-1.139-2.539-2.539-2.539m.162 3.567L8.536 21.471a.75.75 0 0 1-.418-.02l-4.814-1.645a1.03 1.03 0 0 1-.804-1.007v-2.183c0-.404.237-.773.574-.926l2.201-.883a1 1 0 0 1 .384-.074h4.409c.569 0 1.033.463 1.033 1.033s-.464 1.033-1.033 1.033H7.989v1.5h2.079c1.136 0 2.1-.751 2.42-1.783h7.973a1.04 1.04 0 0 1 1.039 1.039c0 .498-.354.927-.877 1.028zM10.306 6.825l-1.201 1.61 1.354 2.347 2.009-.186.097.056.842 1.83h2.695l.842-1.83.097-.056 2.008.186 1.355-2.347-1.202-1.611v-.159l1.203-1.606-1.356-2.35-1.936.179-.158-.133-.868-1.747h-2.662l-.878 1.754-.15.125-1.937-.179-1.355 2.349 1.201 1.612zm.972-2.535 1.603.148.867-.726.603-1.204h.807l.595 1.195.877.735 1.602-.148.382.661-.91 1.215v1.156l.909 1.219-.381.66-1.529-.142-.921.535-.639 1.389h-.773l-.639-1.389-.921-.535-1.53.142-.38-.66.91-1.22-.005-1.151-.906-1.217.381-.662zm3.476 4.729c1.254 0 2.273-1.02 2.273-2.274s-1.02-2.273-2.273-2.273a2.28 2.28 0 0 0-2.274 2.273 2.28 2.28 0 0 0 2.274 2.274m0-3.047a.774.774 0 1 1-.001 1.547.774.774 0 0 1 .001-1.547"/></svg>