<svg xmlns="http://www.w3.org/2000/svg" fill="#002466" viewBox="0 0 24 24"><path d="m20.907 9.249-.221-.749h1.347V7h-1.789l-.492-1.666A3.28 3.28 0 0 0 16.624 3H7.376a3.275 3.275 0 0 0-3.128 2.334L3.756 7H1.967v1.5h1.347l-.221.749A3.25 3.25 0 0 0 1 12.274v2.476c0 1.132.586 2.128 1.469 2.71v1.79c0 .965.788 1.75 1.756 1.75H5.98c.968 0 1.756-.785 1.756-1.75V18h8.528v1.25c0 .965.788 1.75 1.756 1.75h1.756c.968 0 1.756-.785 1.756-1.75v-1.79a3.24 3.24 0 0 0 1.469-2.71v-2.476a3.25 3.25 0 0 0-2.093-3.025zM5.692 5.756c.217-.74.91-1.256 1.684-1.256h9.247c.774 0 1.467.517 1.684 1.256l.964 3.268H4.728zm.539 13.494a.25.25 0 0 1-.251.25H4.224a.25.25 0 0 1-.251-.25v-1.279c.096.009.189.029.287.029h1.97zm13.795 0a.25.25 0 0 1-.251.25H18.02a.25.25 0 0 1-.251-.25V18h1.97c.098 0 .191-.02.287-.029zm1.469-4.5c0 .965-.788 1.75-1.756 1.75H4.261a1.755 1.755 0 0 1-1.756-1.75v-2.476c0-.965.788-1.75 1.756-1.75H19.74c.968 0 1.756.785 1.756 1.75z"/><circle cx="18.02" cy="13" r="1.003"/><circle cx="5.98" cy="13" r="1.003"/></svg>