<svg xmlns="http://www.w3.org/2000/svg" fill="#002466" viewBox="0 0 24 24"><path d="M19.75 2H4.25A3.254 3.254 0 0 0 1 5.25v10a3.254 3.254 0 0 0 3.25 3.25h15.5A3.254 3.254 0 0 0 23 15.25v-10A3.254 3.254 0 0 0 19.75 2m1.75 13.25c0 .965-.785 1.75-1.75 1.75H4.25c-.965 0-1.75-.785-1.75-1.75v-10c0-.965.785-1.75 1.75-1.75h15.5c.965 0 1.75.785 1.75 1.75zM5.25 20.5h13.5V22H5.25zM12 4.25a6.01 6.01 0 0 0-6 6 6.01 6.01 0 0 0 6 6 6.01 6.01 0 0 0 6-6 6.01 6.01 0 0 0-6-6M15.874 8H14.76a9 9 0 0 0-.438-1.585A4.5 4.5 0 0 1 15.874 8m.626 2.25c0 .257-.034.505-.076.75h-1.487l.024-.75-.024-.75h1.487c.041.245.076.493.076.75m-4.5 4.5c-.355 0-.91-.828-1.223-2.25h2.446c-.313 1.422-.868 2.25-1.223 2.25M10.571 11l-.031-.75.031-.75h2.859l.031.75-.031.75zm-3.07-.75c0-.257.034-.505.076-.75h1.487l-.024.75.024.75H7.576a4.4 4.4 0 0 1-.076-.75zm4.5-4.5c.355 0 .91.828 1.223 2.25h-2.446c.313-1.422.868-2.25 1.223-2.25m-2.322.665A9 9 0 0 0 9.241 8H8.126a4.5 4.5 0 0 1 1.552-1.585zM8.126 12.5H9.24c.105.568.252 1.103.438 1.585A4.5 4.5 0 0 1 8.126 12.5m6.197 1.585a9 9 0 0 0 .438-1.585h1.114a4.5 4.5 0 0 1-1.552 1.585"/></svg>