<svg xmlns="http://www.w3.org/2000/svg" fill="#002466" viewBox="0 0 24 24"><path d="M16.17 18.625c.332-.417.54-.933.567-1.5h3.008c1.389 0 2.589-.844 3.059-2.151s.081-2.722-.99-3.606l-8.187-6.75a3.26 3.26 0 0 0-2.067-.742H1v1.5h10.558a1.75 1.75 0 0 1 1.113.4l1.334 1.1H11.5c-1.517 0-2.75 1.233-2.75 2.75s1.233 2.75 2.75 2.75h9.176l.182.15c.7.578.735 1.382.534 1.941s-.74 1.159-1.647 1.159H1v1.5h10.513c.027.567.235 1.083.567 1.5H1v1.5h22v-1.5h-6.83zm-4.67-7.75a1.25 1.25 0 1 1 0-2.5h4.325l3.032 2.5zm2.625 7.25a1.115 1.115 0 0 1-1.1-1h2.199c-.065.559-.524 1-1.1 1zM5 9.625a2.75 2.75 0 0 0-2.75-2.75H1v1.5h1.25a1.25 1.25 0 1 1 0 2.5H1v1.5h1.25A2.75 2.75 0 0 0 5 9.625"/></svg>