<svg xmlns="http://www.w3.org/2000/svg" viewBox="0 0 24 24"><path fill="#002466" d="M20.863 2.284c-1.357-1.1-3.132-1.52-4.879-1.157-2.165.454-3.932 2.206-4.395 4.362-.346 1.607-.034 3.209.878 4.528l-1.619 2.513 5.758-.014c.863-.002 1.614-.097 2.3-.29a5.3 5.3 0 0 0 1.308-.542A5.72 5.72 0 0 0 23 6.756a5.73 5.73 0 0 0-2.137-4.472m-1.43 8.116a4 4 0 0 1-.938.38c-.55.156-1.169.232-1.893.234l-2.992.007.695-1.08-.544-.701c-.716-.99-.965-2.21-.7-3.437a4.24 4.24 0 0 1 3.233-3.207 4.33 4.33 0 0 1 3.62.852 4.24 4.24 0 0 1 1.58 3.306 4.23 4.23 0 0 1-2.062 3.644zm-2.252 5.902c-.474-.529-1.108-.83-1.733-.8a1.94 1.94 0 0 0-1.447.73l-.663.645c-.128.144-.429.19-.598.091l-1.391-.818c-1.181-.666-2.171-1.628-3.116-3.026l-1.11-1.638c-.15-.183-.146-.447-.017-.6l.89-.94A2.16 2.16 0 0 0 7.89 6.93L6.277 5.41C5.329 4.689 3.89 4.77 3 5.598l-.672.61a3.64 3.64 0 0 0-1.23 2.013 4.4 4.4 0 0 0-.002 1.837c.427 1.988 1.376 4.01 2.82 6.004 1.378 1.904 3.01 3.473 4.856 4.663 2.214 1.43 4.477 2.236 6.33 2.267l.248.009c1.052 0 1.711-.518 2.265-1.086l.811-.829a2.56 2.56 0 0 0-.065-3.662zm.167 3.736-.81.83c-.458.466-.756.667-1.368.624-1.617-.028-3.599-.748-5.581-2.027-1.686-1.088-3.185-2.528-4.452-4.28-1.321-1.827-2.186-3.658-2.57-5.441a2.9 2.9 0 0 1 .004-1.214 2.14 2.14 0 0 1 .728-1.174l.726-.658a1.16 1.16 0 0 1 .775-.29c.193 0 .373.049.5.144L6.857 8.02a.66.66 0 0 1 .04.904l-.908.959c-.63.732-.642 1.806-.073 2.497l1.068 1.583c1.08 1.6 2.232 2.71 3.612 3.488l1.379.811c.783.462 1.873.294 2.448-.345l.661-.64.068-.076q.15-.191.345-.198c.191 0 .391.11.603.342l1.22 1.164c.21.2.328.47.333.76a1.06 1.06 0 0 1-.306.768z"/></svg>