<svg xmlns="http://www.w3.org/2000/svg" viewBox="0 0 24 24"><path fill="#002466" d="M16.188 2.996a8.2 8.2 0 0 1-2.897-1.473c-.715-.715-1.927-.662-2.522-.053a8.2 8.2 0 0 1-2.957 1.526L2.076 4.603v5.305c0 1.16.097 2.328.287 3.471a11.87 11.87 0 0 0 8.11 9.39 5.3 5.3 0 0 0 1.524.231h.006a5.3 5.3 0 0 0 1.535-.234 11.87 11.87 0 0 0 8.099-9.386c.19-1.144.287-2.312.287-3.472V4.603zm4.236 6.912c0 1.077-.09 2.162-.268 3.225a10.37 10.37 0 0 1-7.066 8.2q-.534.163-1.09.165a3.8 3.8 0 0 1-1.08-.162 10.37 10.37 0 0 1-7.076-8.204 19.6 19.6 0 0 1-.268-3.224V5.742l4.64-1.3a9.7 9.7 0 0 0 3.554-1.857c.094-.094.17-.107.23-.107s.136.013.29.16a9.7 9.7 0 0 0 3.494 1.804l4.64 1.3z"/><path fill="#002466" d="m11.142 12.739-1.949-2.003-1.074 1.048 2.995 3.078 4.767-4.649-1.046-1.075z"/></svg>