<svg xmlns="http://www.w3.org/2000/svg" fill="#002466" viewBox="0 0 24 24"><path d="M18.448 3.666c-3.556-3.555-9.34-3.555-12.896 0a9.13 9.13 0 0 0 0 12.896L12 23l6.448-6.438c3.555-3.555 3.555-9.341 0-12.896m-1.075 11.821L12 20.853l-5.374-5.365a7.61 7.61 0 0 1 0-10.747A7.58 7.58 0 0 1 12 2.519c1.946 0 3.893.741 5.374 2.222a7.61 7.61 0 0 1 0 10.747zm-5.059-8.119L12 7.682l-.322-.322a2.86 2.86 0 0 0-4.038 0 2.874 2.874 0 0 0-.007 4.059l.846.845h-.001L12 15.787l4.367-4.368a2.87 2.87 0 0 0 0-4.051 2.87 2.87 0 0 0-4.053 0m2.992 2.991L12 13.666l-3.307-3.307A1.373 1.373 0 0 1 8.7 8.421c.256-.256.597-.397.958-.397a1.35 1.35 0 0 1 .959.397L12 9.803l1.375-1.375a1.37 1.37 0 0 1 1.932 0 1.37 1.37 0 0 1 0 1.931z"/></svg>