<svg xmlns="http://www.w3.org/2000/svg" viewBox="0 0 24 24"><path fill="#002466" d="m22.938 4.639-1.242-2.161-1.704.159L19.127 1h-2.436l-.779 1.567-.084.07-1.705-.158-1.242 2.159 1.063 1.433.001.07-1.063 1.43 1.241 2.158 1.777-.165.774 1.643h2.47l.744-1.626.03-.017 1.777.165 1.241-2.158-1.064-1.432zm-1.794 3.038-.267.465-1.299-.12-.854.498-.541 1.183h-.548l-.541-1.183-.854-.499-1.299.12-.267-.464.772-1.04-.005-1.069-.769-1.035.268-.467 1.371.126.801-.672.506-1.015h.58l.499 1.006.808.681 1.372-.126.268.464-.772 1.034v1.074zm-3.235-3.656a2.084 2.084 0 0 0 0 4.165 2.084 2.084 0 0 0 0-4.165m0 2.658a.577.577 0 0 1 0-1.154.577.577 0 0 1 0 1.154m1.537 7.592-1.704.159-.865-1.636h-2.436l-.779 1.567-.084.07-1.705-.159-1.242 2.16 1.063 1.433.001.07-1.063 1.43 1.241 2.157 1.777-.165.774 1.644h2.47l.744-1.626.03-.018 1.777.165 1.241-2.158-1.064-1.431 1.065-1.5zm-.552 5.2-.267.464-1.299-.12-.854.499-.541 1.182h-.548l-.541-1.182-.854-.5-1.299.121-.267-.464.772-1.04-.005-1.07-.769-1.035.268-.467 1.371.127.801-.673.506-1.015h.58l.499 1.006.808.682 1.372-.127.268.465-.772 1.034v1.074l.771 1.037zm-3.235-3.657a2.084 2.084 0 0 0 0 4.165 2.084 2.084 0 0 0 0-4.165m0 2.659a.577.577 0 0 1 0-1.154.577.577 0 0 1 0 1.154m-4.592-4.717 2.771-2.78-2.778-2.788-1.061 1.065.984.988c-4.518.212-8.555 3.298-9.922 7.662l1.432.451c1.168-3.732 4.6-6.382 8.455-6.607l-.942.945z"/></svg>