<svg xmlns="http://www.w3.org/2000/svg" fill="#002466" viewBox="0 0 24 24"><path d="M10.79 10.937v11.688H23V10.937zm5.549 1.5h1.112v2.027h-1.112zm5.161 8.688h-9.21v-8.688h2.549v3.527h4.112v-3.527H21.5zM8.572 9.065h.009a3.82 3.82 0 0 0 2.713-1.121 3.82 3.82 0 0 0 1.131-2.716 3.82 3.82 0 0 0-1.121-2.722 3.82 3.82 0 0 0-2.716-1.131h-.009a3.82 3.82 0 0 0-2.713 1.121 3.82 3.82 0 0 0-1.131 2.716 3.82 3.82 0 0 0 1.121 2.721 3.82 3.82 0 0 0 2.716 1.131zM6.925 3.559a2.33 2.33 0 0 1 1.655-.684h.004a2.33 2.33 0 0 1 1.657.69 2.33 2.33 0 0 1 .684 1.66 2.33 2.33 0 0 1-.689 1.657 2.33 2.33 0 0 1-1.655.684h-.005a2.33 2.33 0 0 1-1.656-.69 2.33 2.33 0 0 1-.684-1.659 2.33 2.33 0 0 1 .689-1.657zM5.26 10.86a4.23 4.23 0 0 0-3.005 1.241 4.23 4.23 0 0 0-1.253 3.009L1 16.348l1.5.002.002-1.237c.002-.737.29-1.429.812-1.949a2.74 2.74 0 0 1 1.946-.804h.005l3.733.008.004-1.5-3.733-.008z"/></svg>