<svg xmlns="http://www.w3.org/2000/svg" fill="#002466" viewBox="0 0 24 24"><path d="M11.992 13.314c-.337 0-.597.1-.794.305s-.295.472-.295.812c0 .329.098.584.299.781s.46.295.79.295c.34 0 .604-.095.806-.289s.297-.45.297-.787c0-.348-.096-.615-.294-.817s-.462-.299-.809-.299zm-.743-1.291h1.501c.085 0 .128-.021.14-.141l.191-5.608c.006-.06-.001-.088-.01-.098s-.041-.022-.102-.022h-1.941c-.06 0-.092.012-.102.023s-.016.037-.011.087l.194 5.628c.011.11.053.131.139.131zm8.204-10.115H4.547A3.55 3.55 0 0 0 1 5.455v10.296a3.55 3.55 0 0 0 3.547 3.547H9.19l2.802 2.794 2.816-2.794h4.645A3.55 3.55 0 0 0 23 15.751V5.455a3.55 3.55 0 0 0-3.547-3.547M21.5 15.751a2.05 2.05 0 0 1-2.047 2.047h-5.262l-2.197 2.179-2.184-2.179H4.547A2.05 2.05 0 0 1 2.5 15.751V5.455a2.05 2.05 0 0 1 2.047-2.047h14.906A2.05 2.05 0 0 1 21.5 5.455z"/></svg>