<svg xmlns="http://www.w3.org/2000/svg" fill="#002466" viewBox="0 0 24 24"><path d="M21.561 6.5h-3.875V4H1v13.5h2.776c.134 1.392 1.297 2.488 2.724 2.488s2.589-1.096 2.724-2.488h7.302c.129 1.398 1.294 2.5 2.725 2.5s2.596-1.102 2.725-2.5H23v-6.013zM6.5 18.488c-.596 0-1.073-.428-1.197-.988h2.394c-.124.56-.6.988-1.197.988M16.186 6.5V16H2.5V5.5h13.686zm1.5 1.5h2.754l.812 2.75h-3.565V8zm1.564 10.5a1.25 1.25 0 1 1 0-2.5 1.25 1.25 0 1 1 0 2.5m2.25-2.823a2.75 2.75 0 0 0-2.25-1.177 2.73 2.73 0 0 0-1.564.493V12.25H21.5zM8.36 8.523h-.629A2.74 2.74 0 0 1 9.343 8a2.75 2.75 0 0 1 2.75 2.75h1.5a4.255 4.255 0 0 0-4.25-4.25 4.22 4.22 0 0 0-2.666.948V6.84h-1.5v3.183H8.36zM9.427 15a4.22 4.22 0 0 0 2.666-.948v.607h1.5v-3.183h-3.184v1.5h.63a2.74 2.74 0 0 1-1.612.523 2.75 2.75 0 0 1-2.75-2.75h-1.5a4.255 4.255 0 0 0 4.25 4.25z"/></svg>