<svg xmlns="http://www.w3.org/2000/svg" fill="#002466" viewBox="0 0 24 24"><path d="M21.5 10v11.5h-19v-19H14V1H1v22h22V10z"/><circle cx="19.25" cy="19.25" r=".75"/><path d="M12 4.5A7.51 7.51 0 0 0 4.5 12a7.51 7.51 0 0 0 7.5 7.5 7.51 7.51 0 0 0 7.5-7.5c0-.742-.128-1.468-.342-2.172.29-.12.563-.278.786-.5l.557-.557a3.69 3.69 0 0 0 .959-3.591l1.515-1.515-2.64-2.64L18.82 2.54a3.69 3.69 0 0 0-3.592.96l-.556.556a2.4 2.4 0 0 0-.493.767 7.5 7.5 0 0 0-2.18-.323zM12 18a6.01 6.01 0 0 1-6-6 6.01 6.01 0 0 1 6-6c.285 0 .562.042.84.081a2.4 2.4 0 0 0-.627.435L9.015 9.714a2.613 2.613 0 0 0 0 3.692l1.579 1.579c.493.493 1.148.765 1.846.765s1.354-.271 1.847-.765l3.199-3.199c.187-.188.326-.411.442-.647.041.284.073.57.073.86a6.01 6.01 0 0 1-6 6zm3.514-12.524a.9.9 0 0 1 .22-.359l.557-.557a2.2 2.2 0 0 1 2.435-.469l.467.2 1.144-1.145.519.519-1.145 1.145.2.467a2.2 2.2 0 0 1-.47 2.435l-.556.556a.9.9 0 0 1-.36.219 2.26 2.26 0 0 0-1.88 1.881.9.9 0 0 1-.22.359l-3.198 3.198a1.114 1.114 0 0 1-1.571 0l-1.579-1.579a1.11 1.11 0 0 1 0-1.571l3.198-3.198a.9.9 0 0 1 .359-.219 2.26 2.26 0 0 0 1.881-1.881z"/></svg>