<svg xmlns="http://www.w3.org/2000/svg" viewBox="0 0 24 24"><path fill="#002466" d="M1 23h22V9.257H1zm1.5-12.243h19V21.5h-19z"/><path fill="#002466" d="M5.25 13.255h1.5v5.997h-1.5zM9.25 13.255h1.5v5.997h-1.5zM13.25 13.255h1.5v5.997h-1.5zM17.25 13.255h1.5v5.997h-1.5zM17.645 4.01a2 2 0 0 0-.1-.304 4.9 4.9 0 0 0 1.087-1.348l-1.32-.71a3.4 3.4 0 0 1-.845 1.012c-.062-.025-.129-.041-.194-.06A4.9 4.9 0 0 0 16.08 1l-1.437.43c.13.432.164.88.115 1.336-.054.03-.111.055-.162.09a4.9 4.9 0 0 0-1.283-1.012l-.711 1.32c.456.246.843.592 1.147 1.015l-.003.038a4.9 4.9 0 0 0-1.793.18l.432 1.435a3.4 3.4 0 0 1 1.575-.083 4.9 4.9 0 0 0-1.16 1.412l1.32.71A3.4 3.4 0 0 1 15.174 6.7c-.052.61 0 1.226.178 1.82l1.437-.431a3.4 3.4 0 0 1-.083-1.574 4.9 4.9 0 0 0 1.412 1.16l.711-1.32a3.4 3.4 0 0 1-1.014-.846H23V4.01zm-1.93 1a.5.5 0 1 1 .002-1.001.5.5 0 0 1-.001 1"/></svg>