<svg xmlns="http://www.w3.org/2000/svg" viewBox="0 0 24 24"><path fill="#002466" d="m21.27 11.289-.366-2.638h-.63L19.902 6h-3.055l-.371 2.651h-.63l-.293 2.109-.865-.837L14.427 1H9.743l-.554 8.915-1.939 1.89V4h-4.5v9.115A2.5 2.5 0 0 0 1 15.5V23h18.75A3.254 3.254 0 0 0 23 19.75v-5.605a3.24 3.24 0 0 0-1.73-2.855zM11.153 2.5h1.816l.029 1H11.09zm-6.903 3h1.5V7h-1.5zm3.25 16h-5v-6a1 1 0 0 1 1-1h.75v-6h1.5v6h.75a1 1 0 0 1 1 1zm9.315-6.307L15.532 21.5H9v-6c0-.903-.486-1.69-1.206-2.13l2.856-2.785L10.998 5h2.046l.165 5.577 3.109 3.01a1.74 1.74 0 0 1 .498 1.606zm.338-5.041h.628l.371-2.651h.445l.371 2.651h.628l.103.743h-2.65zM21.5 19.75c0 .965-.785 1.75-1.75 1.75h-2.688l1.224-6.008a3.23 3.23 0 0 0-.926-2.983l-.118-.114h2.507c.965 0 1.75.785 1.75 1.75z"/></svg>