<svg xmlns="http://www.w3.org/2000/svg" viewBox="0 0 24 24"><path fill="#002466" d="M23 12c0 6.065-4.935 11-11 11S1 18.065 1 12 5.935 1 12 1v1.5c-5.238 0-9.5 4.262-9.5 9.5s4.262 9.5 9.5 9.5 9.5-4.262 9.5-9.5zm-9.28-2.78a.7.7 0 0 1 .216-.144V6.12l5.036-5.036v3.89h3.888l-5.035 5.035H14.95a.74.74 0 0 1-.17.271l-2.25 2.25a.747.747 0 0 1-1.06 0 .75.75 0 0 1 0-1.06zm1.716-2.479V8.51h1.768l2.035-2.035h-1.767v-1.77zM12 4.5c-4.136 0-7.5 3.364-7.5 7.5s3.364 7.5 7.5 7.5 7.5-3.364 7.5-7.5H18c0 3.309-2.691 6-6 6s-6-2.691-6-6 2.691-6 6-6zm0 5V8c-2.206 0-4 1.794-4 4s1.794 4 4 4 4-1.794 4-4h-1.5c0 1.379-1.121 2.5-2.5 2.5S9.5 13.379 9.5 12s1.121-2.5 2.5-2.5"/></svg>