<svg xmlns="http://www.w3.org/2000/svg" fill="#002466" viewBox="0 0 24 24"><path d="M19.772 6.509h-4.221c-1.78 0-3.228 1.458-3.228 3.25H2.49L1 12.009l1.49 2.25h9.835a3.24 3.24 0 0 0 .951 2.289 3.2 3.2 0 0 0 2.274.944h.022l4.221-.028A3.25 3.25 0 0 0 23 14.213V9.759c0-1.792-1.448-3.25-3.228-3.25m-16.982 5.5.497-.75h9.036v1.5H3.287zm18.72 2.205a1.75 1.75 0 0 1-1.726 1.75l-4.221.028c-.49 0-.906-.177-1.237-.508s-.513-.772-.513-1.241V9.759c0-.965.78-1.75 1.738-1.75h4.221c.958 0 1.738.785 1.738 1.75zm-3.476-4.205h1.49v4h-1.49z"/></svg>