<svg xmlns="http://www.w3.org/2000/svg" fill="#00236f" viewBox="0 0 24 24"><path d="M8.721 5.807h.018a3.27 3.27 0 0 0 2.511 3.014v.928H9.5v1.5h5v-1.5h-1.75v-.928a3.27 3.27 0 0 0 2.512-3.015h.01c1.326 0 2.404-1.078 2.404-2.403S16.599 1 15.272 1H8.721a2.41 2.41 0 0 0-2.405 2.404A2.405 2.405 0 0 0 8.72 5.807zm3.28 1.609a1.78 1.78 0 0 1-1.779-1.778V2.5h3.557v3.138a1.78 1.78 0 0 1-1.778 1.778m4.176-4.013a.904.904 0 0 1-.898.902V2.501a.904.904 0 0 1 .898.903zM8.721 2.5v1.807H8.72a.904.904 0 0 1 0-1.807m6.217 11.097c0 1.617 1.315 2.932 2.932 2.932s2.933-1.315 2.933-2.932-1.315-2.932-2.933-2.932-2.932 1.315-2.932 2.932m2.932-1.432c.79 0 1.433.642 1.433 1.432s-.643 1.432-1.433 1.432-1.432-.643-1.432-1.432.643-1.432 1.432-1.432m1.679 5.382h-3.356a3.44 3.44 0 0 0-3.436 3.436v2.014h1.5v-2.014a1.94 1.94 0 0 1 1.936-1.936h3.356a1.94 1.94 0 0 1 1.936 1.936v2.014h1.5v-2.014a3.44 3.44 0 0 0-3.436-3.436M6.147 16.529c1.616 0 2.932-1.315 2.932-2.932s-1.315-2.932-2.932-2.932-2.932 1.315-2.932 2.932 1.315 2.932 2.932 2.932m0-4.364c.789 0 1.432.642 1.432 1.432s-.643 1.432-1.432 1.432-1.432-.643-1.432-1.432.643-1.432 1.432-1.432m1.679 5.382H4.469a3.44 3.44 0 0 0-3.436 3.436v2.014h1.5v-2.014a1.94 1.94 0 0 1 1.936-1.936h3.357a1.94 1.94 0 0 1 1.936 1.936v2.014h1.5v-2.014a3.44 3.44 0 0 0-3.436-3.436"/></svg>