<svg xmlns="http://www.w3.org/2000/svg" fill="#002466" viewBox="0 0 24 24"><path d="M11.479 4.439c-1.244 1.244-1.767 2.921-1.622 4.55L7.616 11.23 3.34 15.506 1 17.846 6.155 23l8.857-8.857.509.049a5.7 5.7 0 0 0 4.041-1.671l1.407-1.406-8.083-8.082-1.406 1.406zm-3.163 9.603-2.165 2.166-.701-.702 2.165-2.165zm-2.162 6.847-3.043-3.043 1.284-1.284 1.757 1.757 4.276-4.277-1.756-1.756 1.589-1.589c.278.663.68 1.286 1.219 1.824a5.7 5.7 0 0 0 1.824 1.219zm6.38-9.423c-1.135-1.135-1.468-2.757-1.037-4.197l5.235 5.235c-1.44.431-3.062.098-4.198-1.038m5.971 0c-.12.12-.255.212-.386.315l-5.9-5.9c.102-.13.195-.266.315-.386l.35-.351 5.972 5.971zm-1.17-5.856 2.05-2.05 1.056 1.056-2.05 2.05zm-2.479-1.975L15.149 1l1.484.165L16.34 3.8zM20.2 7.66l2.635-.293L23 8.851l-2.635.293z"/></svg>