<svg xmlns="http://www.w3.org/2000/svg" fill="#002466" viewBox="0 0 24 24"><path d="m15.72 7.124-8.5 8.635 1.061 1.077 8.5-8.635zm-6.424 4.44c1.266 0 2.295-1.046 2.295-2.332S10.562 6.9 9.296 6.9 7 7.947 7 9.232s1.03 2.332 2.296 2.332m0-3.14c.438 0 .795.363.795.808s-.356.808-.795.808-.796-.363-.796-.808.357-.808.796-.808m5.408 3.972c-1.266 0-2.295 1.046-2.295 2.332s1.029 2.332 2.295 2.332S17 16.013 17 14.727s-1.03-2.332-2.296-2.332zm0 3.14c-.438 0-.795-.363-.795-.808s.356-.808.795-.808.796.363.796.808-.357.808-.796.808m6.922-3.059a1 1 0 0 1 0-.994l.468-.811a2.62 2.62 0 0 0 .223-2.099 2.56 2.56 0 0 0-1.394-1.562l-.848-.377a.98.98 0 0 1-.575-.804l-.091-.936a2.6 2.6 0 0 0-1.033-1.83c-.586-.432-1.328-.587-2.033-.432l-.902.201a.96.96 0 0 1-.932-.307l-.614-.702c-.961-1.099-2.828-1.099-3.789 0l-.614.702a.97.97 0 0 1-.931.308l-.903-.201a2.5 2.5 0 0 0-2.033.432 2.6 2.6 0 0 0-1.033 1.831l-.091.936a.98.98 0 0 1-.575.804l-.848.377a2.56 2.56 0 0 0-1.394 1.562 2.6 2.6 0 0 0 .223 2.099l.468.81a1 1 0 0 1 0 .994l-.468.811a2.62 2.62 0 0 0-.223 2.099 2.56 2.56 0 0 0 1.394 1.562l.848.377a.98.98 0 0 1 .575.804l.091.936a2.6 2.6 0 0 0 1.033 1.83 2.5 2.5 0 0 0 2.033.432l.902-.201c.347-.078.7.042.932.307l.614.702a2.52 2.52 0 0 0 3.789 0l.614-.702a.96.96 0 0 1 .931-.308l.903.201a2.5 2.5 0 0 0 2.033-.432 2.6 2.6 0 0 0 1.033-1.831l.091-.936a.98.98 0 0 1 .575-.804l.848-.377a2.56 2.56 0 0 0 1.394-1.562 2.6 2.6 0 0 0-.223-2.099zm-1.295.77.468.81a1.05 1.05 0 0 1 .092.858 1.03 1.03 0 0 1-.569.637l-.848.377a2.5 2.5 0 0 0-1.466 2.05l-.091.935c-.03.304-.18.569-.423.748a1.01 1.01 0 0 1-.829.177l-.904-.202a2.45 2.45 0 0 0-2.373.784l-.614.702a1.05 1.05 0 0 1-1.547 0l-.614-.703a2.46 2.46 0 0 0-2.374-.783l-.903.201a1.01 1.01 0 0 1-.829-.177 1.04 1.04 0 0 1-.423-.747l-.091-.935a2.5 2.5 0 0 0-1.466-2.051l-.848-.377a1.03 1.03 0 0 1-.569-.637 1.05 1.05 0 0 1 .092-.857l.468-.812a2.55 2.55 0 0 0 0-2.534l-.468-.81a1.05 1.05 0 0 1-.092-.858c.093-.289.295-.515.569-.637l.848-.377a2.5 2.5 0 0 0 1.466-2.05l.091-.935c.03-.304.18-.569.423-.748a1.01 1.01 0 0 1 .829-.177l.904.202a2.45 2.45 0 0 0 2.373-.784l.614-.702a1.05 1.05 0 0 1 1.547 0l.614.703a2.45 2.45 0 0 0 2.374.783l.903-.201a1.01 1.01 0 0 1 .829.177c.243.179.393.444.423.747l.091.935a2.5 2.5 0 0 0 1.466 2.051l.848.377a1.03 1.03 0 0 1 .569.637 1.05 1.05 0 0 1-.092.857l-.468.812a2.55 2.55 0 0 0 0 2.534"/></svg>