<svg xmlns="http://www.w3.org/2000/svg" fill="#002466" viewBox="0 0 24 24"><path d="M10.592 15.244a1 1 0 0 0-.062-.116l-.429-.655a.75.75 0 0 0-.691-.337l-.849.072-.736-.206a.75.75 0 0 0-.537.051l-.935.467a.75.75 0 0 0-.263.218l-.311.41a.75.75 0 0 0-.149.513l.164 1.267a.75.75 0 0 0 .416.556l.757.363a.8.8 0 0 0 .187.061l.263.049.104.35.079.93a.75.75 0 0 0 .127.358l.32.472a.74.74 0 0 0 .28.247l.368.187a.74.74 0 0 0 .34.082.75.75 0 0 0 .435-.139l.385-.273a.8.8 0 0 0 .178-.178l.585-.827a.8.8 0 0 0 .128-.313l.174-1.106.022-.523.441-.462a.75.75 0 0 0-.28-1.221l-.456-.17zm-1.137 1.635-.025.717-.138.847-.228.322-.056-.658a1 1 0 0 0-.027-.149l-.255-.864a.75.75 0 0 0-.582-.525l-.617-.115-.316-.152-.062-.475.551-.302.588.165a.8.8 0 0 0 .266.025l.538-.045.303.587a.7.7 0 0 0 .177.253.75.75 0 0 0-.115.37zm-2.08-6.655a6.375 6.375 0 1 0 0 12.75 6.375 6.375 0 0 0 0-12.75M3.38 13.819c.023.021.032.052.058.07l.485.345-.061.32-.647.088a.74.74 0 0 0-.366.173 5 5 0 0 1 .531-.996m.655 5.434-.014.002a.75.75 0 0 0-.486.312 5 5 0 0 1-.441-.684l.184.057a.75.75 0 0 0 .577-.057l.152-.082.069.125-.043.327zm3.34 2.221a4.8 4.8 0 0 1-2.316-.612v-.141a.7.7 0 0 0-.016-.153.75.75 0 0 0 .408-.573l.146-1.12a.75.75 0 0 0-.089-.462l-.55-.988a.75.75 0 0 0-1.012-.295l-.526.284-.542-.167-.037-.114.865-1.045.895-.122a.75.75 0 0 0 .636-.605l.211-1.126a.75.75 0 0 0-.084-.507l-.211-.374a.8.8 0 0 0-.219-.243l-.273-.194.038-.387a4.84 4.84 0 0 1 2.676-.808 4.88 4.88 0 0 1 4.875 4.875 4.88 4.88 0 0 1-4.875 4.875zM21 1.026h-7.75c-1.103 0-2 .897-2 2v6.342c0 1.103.897 2 2 2h2.146l1.754 1.557 1.595-1.557H21c1.103 0 2-.897 2-2V3.026c0-1.103-.897-2-2-2m.5 8.342a.5.5 0 0 1-.5.5h-2.867l-1.032 1.008-1.135-1.008H13.25a.5.5 0 0 1-.5-.5V3.026a.5.5 0 0 1 .5-.5H21a.5.5 0 0 1 .5.5z"/><circle cx="17.125" cy="6.401" r=".75"/><circle cx="19.875" cy="6.401" r=".75"/><circle cx="14.375" cy="6.401" r=".75"/></svg>