<svg xmlns="http://www.w3.org/2000/svg" viewBox="0 0 24 24"><path fill="#002466" d="M18.633 2a2.503 2.503 0 0 0-2.5 2.5v.75a1 1 0 0 1-1 1h-.042l-.056-2.5h-3.152V1h-4v2.75H4.731L4.367 20h3.517v3h4v-3H15.4l-.275-12.25h.008c1.379 0 2.5-1.122 2.5-2.5V4.5a1 1 0 0 1 1-1h1V2zm-4.832 13.59a20.6 20.6 0 0 1-7.837.049l.034-1.503c1.33.245 2.667.375 4.003.375a22 22 0 0 0 3.769-.33zm-7.736-4.443c1.274.224 2.553.356 3.831.356a22 22 0 0 0 3.806-.337l.034 1.494a20.5 20.5 0 0 1-7.703-.043zm7.602-1.519a20.6 20.6 0 0 1-7.568.009l.033-1.46c1.221.205 2.445.325 3.669.325a22 22 0 0 0 3.833-.341zM9.383 2.5h1v1.25h-1zm-1.5 2.75h5.686l.031 1.374c-2.465.463-4.96.485-7.434.043l.032-1.417zm2.5 16.25h-1V20h1zm1.5-3H5.9l.03-1.352a22 22 0 0 0 3.871.354c1.349 0 2.695-.132 4.034-.38l.031 1.378z"/></svg>