<svg xmlns="http://www.w3.org/2000/svg" fill="#002466" viewBox="0 0 24 24"><path d="M7.219 15.395c1.934 0 3.506-1.575 3.506-3.51s-1.573-3.51-3.506-3.51-3.506 1.575-3.506 3.51 1.573 3.51 3.506 3.51m0-5.52a2.01 2.01 0 1 1 0 4.02 2.01 2.01 0 1 1 0-4.02m6.023 2.01c0 1.935 1.573 3.51 3.506 3.51s3.506-1.575 3.506-3.51-1.573-3.51-3.506-3.51-3.506 1.575-3.506 3.51m3.506-2.01a2.01 2.01 0 1 1 0 4.02 2.01 2.01 0 1 1 0-4.02m2.353 6.915h-6.357v1.5h6.357c1.323 0 2.4 1.078 2.4 2.402v1.683H23v-1.683a3.905 3.905 0 0 0-3.899-3.902M1 20.692v1.683h1.499v-1.683a2.404 2.404 0 0 1 2.4-2.402h6.347v-1.5H4.899A3.905 3.905 0 0 0 1 20.692M8.503 1.625h6.494v1.5H8.503zm0 3h6.494v1.5H8.503z"/></svg>