<svg xmlns="http://www.w3.org/2000/svg" fill="#002466" viewBox="0 0 24 24"><path d="M8.01 11.233c.812-.142 1.743-.131 1.752-.132l.699.009.059-.698c.012-.149.305-3.675.101-5.183-.146-1.078-.595-3.011-1.961-3.85-.494-.303-1.321-.58-2.465-.18-2.76.97-2.755 3.314-2.338 5.704.461 2.64 1.578 4.419 1.625 4.493l.332.52.574-.224a10 10 0 0 1 1.624-.459zm-2.677-4.59c-.493-2.826.07-3.573 1.357-4.025q.33-.116.605-.116.322 0 .58.159c.71.436 1.116 1.717 1.258 2.77.124.917.026 2.948-.059 4.182a11 11 0 0 0-1.323.139 10 10 0 0 0-1.287.323 12.6 12.6 0 0 1-1.132-3.431zm5.375 5.793-4.771.833.141 2.176a2.82 2.82 0 0 0 1.079 1.775c.459.346.995.526 1.543.526a2.6 2.6 0 0 0 .448-.04c1.425-.256 2.367-1.686 2.087-3.245zm-1.826 3.79a1.06 1.06 0 0 1-.827-.209 1.32 1.32 0 0 1-.492-.751l-.046-.746 2.088-.365.164.628c.122.686-.276 1.333-.888 1.443zm9.186-9.424c-1.111-.485-1.956-.27-2.472-.002-1.424.736-2.013 2.631-2.238 3.695-.314 1.489-.281 5.027-.279 5.177l.008.7.697.043a11 11 0 0 1 1.737.26 10 10 0 0 1 1.586.577l.556.265.368-.494c.053-.07 1.297-1.761 1.95-4.36.591-2.352.769-4.69-1.914-5.86zm.459 5.493a12.5 12.5 0 0 1-1.38 3.338 10 10 0 0 0-1.26-.417 11 11 0 0 0-1.309-.235c.006-1.237.057-3.27.248-4.175.219-1.04.717-2.287 1.458-2.67.333-.172.722-.158 1.186.045 1.25.546 1.757 1.332 1.058 4.115zm-6.53 7.292c-.377 1.478.458 2.974 1.86 3.333q.31.08.626.079c.455 0 .907-.124 1.315-.366.631-.375 1.1-1.009 1.303-1.825l.283-2.075-4.697-1.184zm1.437.429.228-.671 2.057.519-.087.657a1.33 1.33 0 0 1-.597.818 1.06 1.06 0 0 1-.805.124c-.602-.155-.951-.829-.796-1.448z"/></svg>