<svg xmlns="http://www.w3.org/2000/svg" fill="#002466" viewBox="0 0 24 24"><path d="M5.008 7.855 1 11.886l4.008 4.03 1.055-1.061-2.953-2.97 2.953-2.97-1.055-1.061zm13.984 0-1.055 1.061 2.953 2.97-2.953 2.97 1.055 1.061L23 11.886zm-8.317 1.061.621.186q.12.036.15-.09.053-.221.161-.348c.108-.127.173-.126.304-.126q.185 0 .262.123c.077.123.078.185.078.309a.96.96 0 0 1-.134.501 3 3 0 0 1-.373.483l-1.008 1.092a.2.2 0 0 0-.06.144v.546q0 .12.12.12h2.416q.12 0 .119-.12v-.66q0-.12-.119-.12h-1.199v-.024l.484-.498.266-.288a3 3 0 0 0 .259-.354 2 2 0 0 0 .2-.426 1.5 1.5 0 0 0 .081-.504q0-.258-.087-.483a1.1 1.1 0 0 0-.254-.387 1.2 1.2 0 0 0-.412-.255 1.6 1.6 0 0 0-.56-.093 1.7 1.7 0 0 0-.462.063q-.217.063-.397.198c-.18.135-.225.206-.32.348s-.166.315-.218.519q-.03.114.084.144zm3.265 4.641a.76.76 0 0 0-.298-.189 1.1 1.1 0 0 0-.376-.06 1 1 0 0 0-.328.051 1 1 0 0 0-.233.126.7.7 0 0 0-.152.159 1 1 0 0 0-.081.144h-.03a.77.77 0 0 0-.337-.366 1.1 1.1 0 0 0-.511-.114.8.8 0 0 0-.298.048.8.8 0 0 0-.215.12.7.7 0 0 0-.143.15 1 1 0 0 0-.078.138h-.024a1 1 0 0 0-.065-.144q-.041-.072-.114-.132c-.073-.06-.106-.073-.173-.099s-.15-.039-.245-.039l-.292.012-.227.03q-.102.018-.101.126v.498q0 .12.119.12h.179v2.1q0 .12.119.12h.746q.12 0 .119-.12v-1.92a.6.6 0 0 1 .134-.12.36.36 0 0 1 .212-.06q.173 0 .248.093c.075.093.075.161.075.297v1.71q0 .12.119.12h.746q.12 0 .119-.12v-1.932a1 1 0 0 1 .146-.117.35.35 0 0 1 .194-.051q.328 0 .328.39v1.71q0 .12.119.12h.746q.118 0 .118-.12v-1.872a1.4 1.4 0 0 0-.071-.477.9.9 0 0 0-.197-.33z"/></svg>