<svg xmlns="http://www.w3.org/2000/svg" fill="#002466" viewBox="0 0 24 24"><path d="M7.219 8.024a3.51 3.51 0 0 0 3.507-3.506A3.51 3.51 0 0 0 7.219 1.01a3.51 3.51 0 0 0-3.506 3.507A3.51 3.51 0 0 0 7.22 8.024zm0-5.515a2.01 2.01 0 0 1 2.008 2.008 2.01 2.01 0 0 1-2.008 2.008 2.01 2.01 0 0 1-2.008-2.008 2.01 2.01 0 0 1 2.008-2.008m9.529 5.515a3.51 3.51 0 0 0 3.506-3.506 3.51 3.51 0 0 0-3.506-3.507 3.51 3.51 0 0 0-3.506 3.507 3.51 3.51 0 0 0 3.506 3.507zm0-5.515a2.01 2.01 0 0 1 2.008 2.008 2.01 2.01 0 0 1-2.008 2.008 2.01 2.01 0 0 1-2.008-2.008 2.01 2.01 0 0 1 2.008-2.008m2.353 6.908h-6.357v1.499h6.357c1.323 0 2.4 1.077 2.4 2.4v1.681H23v-1.681a3.903 3.903 0 0 0-3.899-3.899M1 13.316v1.681h1.499v-1.681c0-1.323 1.077-2.4 2.4-2.4h6.347V9.417H4.899A3.903 3.903 0 0 0 1 13.316m8.441 1.542c0-1.402-1.141-2.542-2.542-2.542s-2.542 1.141-2.542 2.542S5.499 17.4 6.9 17.4s2.542-1.14 2.542-2.542zm-3.585 0c0-.575.468-1.043 1.043-1.043s1.043.468 1.043 1.043-.468 1.043-1.043 1.043-1.043-.468-1.043-1.043m2.691 3.293H5.253a2.703 2.703 0 0 0-2.7 2.699v2.139h1.499V20.85a1.2 1.2 0 0 1 1.201-1.201h3.294a1.2 1.2 0 0 1 1.2 1.201v2.139h1.499V20.85a2.7 2.7 0 0 0-2.699-2.699m11.085-3.293c0-1.402-1.141-2.542-2.542-2.542s-2.543 1.141-2.543 2.542S15.688 17.4 17.09 17.4s2.542-1.14 2.542-2.542m-3.586 0a1.045 1.045 0 0 1 2.087 0 1.044 1.044 0 0 1-2.087 0m2.69 3.293h-3.293a2.703 2.703 0 0 0-2.7 2.699v2.139h1.499V20.85a1.2 1.2 0 0 1 1.201-1.201h3.293a1.2 1.2 0 0 1 1.201 1.201v2.139h1.499V20.85a2.703 2.703 0 0 0-2.7-2.699"/></svg>