<svg xmlns="http://www.w3.org/2000/svg" viewBox="0 0 24 24"><path fill="#002466" d="M22.818 20.933c-.033-.108-.822-2.699-3.279-6.788-2.485-4.136-8.887-8.886-9.16-9.088L5.417 1.423C4.128.48 2.348 1.238 1.442 2.479L1 3.085l6.446 4.72-.236.325c-1.46 2.002-.995 4.838 1.039 6.326L20.046 23 23 21.542l-.182-.608zm-7.136-9.232-.551.755a.36.36 0 0 1-.241.143.4.4 0 0 1-.296-.075l-.578-.422.877-1.202q.401.395.79.801zm-3.935-1.719.863-1.184q.577.5 1.186 1.059l-.991 1.359-.959-.701c-.175-.128-.22-.368-.099-.533M3.201 2.836c.437-.306.968-.466 1.332-.2l4.355 3.19-.558.765zm16.991 18.416L9.13 13.24c-1.363-.997-1.682-2.892-.71-4.225l1.669-2.289a62 62 0 0 1 1.373 1.101l-.926 1.27a1.89 1.89 0 0 0 .425 2.632l2.748 2.009c.33.242.72.369 1.12.369a2 2 0 0 0 .277-.02 1.85 1.85 0 0 0 1.235-.744l.369-.505c.599.701 1.135 1.405 1.543 2.083 1.683 2.8 2.556 4.884 2.918 5.85l-.98.483z"/></svg>