<svg xmlns="http://www.w3.org/2000/svg" fill="#002466" viewBox="0 0 24 24"><path d="M12 6.875c-1.654 0-3 1.346-3 3s1.346 3 3 3 3-1.346 3-3-1.346-3-3-3m0 4.5a1.5 1.5 0 1 1 0-3 1.5 1.5 0 1 1 0 3m7.75-7.625H4.25A3.254 3.254 0 0 0 1 7v5.75A3.254 3.254 0 0 0 4.25 16h4.565l-.611 2.75H7v1.5h10v-1.5h-1.204L15.185 16h4.565A3.254 3.254 0 0 0 23 12.75V7a3.254 3.254 0 0 0-3.25-3.25m-10.009 15 .611-2.75h3.296l.611 2.75zm11.759-6c0 .965-.785 1.75-1.75 1.75H4.25c-.965 0-1.75-.785-1.75-1.75V7c0-.965.785-1.75 1.75-1.75h15.5c.965 0 1.75.785 1.75 1.75z"/></svg>