<svg xmlns="http://www.w3.org/2000/svg" viewBox="0 0 24 24"><path fill="#002466" d="M22.994 15.577zl-.121-1.104-1.291-12.501-8.38 7.619v-.691l-1.426-5.375H4.952v5h-3.5v5.5h11.75v-2.452l.022.025 7.17-6.52.918 8.883-2.522.553-2.684.027 1.641 2.7a2.79 2.79 0 0 0 3.008 1.395 2.79 2.79 0 0 0 2.239-3.06M6.452 5.027h4.176l.946 3.5H6.452zm5.25 7.5h-8.75v-2.5h8.75zm8.759 4.642v-.001h-.001c-.554.113-1.122-.148-1.415-.676l-.288-.475 2.716-.553.031.28a1.3 1.3 0 0 1-1.043 1.425"/><path fill="#002466" d="M10.724 15.497H4.253a3.27 3.27 0 0 0-3.265 3.265 3.27 3.27 0 0 0 3.265 3.265h6.471a3.27 3.27 0 0 0 3.265-3.265 3.27 3.27 0 0 0-3.265-3.265m0 5.03H4.253a1.767 1.767 0 0 1-1.765-1.765 1.77 1.77 0 0 1 1.765-1.765h6.471a1.77 1.77 0 0 1 1.765 1.765 1.77 1.77 0 0 1-1.765 1.765"/><circle cx="4.488" cy="18.762" r=".75" fill="#002466"/><circle cx="10.488" cy="18.762" r=".75" fill="#002466"/><circle cx="7.488" cy="18.762" r=".75" fill="#002466"/></svg>