<svg xmlns="http://www.w3.org/2000/svg" fill="#002466" viewBox="0 0 24 24"><path d="M6 1v22h12V1zm10.5 20.5h-9v-19h9zM12 8.377a2.18 2.18 0 0 0 2.189-2.189 2.19 2.19 0 0 0-1.337-2.017 2.18 2.18 0 0 0-1.704 0 2.19 2.19 0 0 0-1.337 2.017A2.18 2.18 0 0 0 12 8.377m0 5.882A2.26 2.26 0 0 0 14.259 12 2.26 2.26 0 0 0 12 9.741 2.26 2.26 0 0 0 9.741 12 2.26 2.26 0 0 0 12 14.259m0-3.018a.76.76 0 0 1 .759.759.76.76 0 0 1-.759.759.76.76 0 0 1-.759-.759.76.76 0 0 1 .759-.759m0 4.382a2.19 2.19 0 0 0-2.189 2.189A2.19 2.19 0 0 0 12 20a2.19 2.19 0 0 0 2.189-2.189A2.19 2.19 0 0 0 12 15.623m0 2.877a.69.69 0 0 1-.689-.689.69.69 0 0 1 .689-.689.69.69 0 0 1 .689.689.69.69 0 0 1-.689.689"/></svg>