<svg xmlns="http://www.w3.org/2000/svg" fill="#002466" viewBox="0 0 24 24"><path d="M23 11.487 21.561 6.5h-5.375V16h-.936V6.5H1.75v11h2.026c.134 1.392 1.297 2.488 2.724 2.488s2.589-1.096 2.724-2.488h7.302c.129 1.398 1.294 2.5 2.725 2.5s2.596-1.102 2.725-2.5H23zM6.5 18.488c-.596 0-1.073-.428-1.197-.988h2.394c-.124.56-.6.988-1.197.988M3.25 16V8h10.5v8zm14.436-8h2.754l.812 2.75h-3.565V8zm1.564 10.5a1.25 1.25 0 1 1 0-2.5 1.25 1.25 0 1 1 0 2.5m0-4a2.73 2.73 0 0 0-1.564.493V12.25H21.5v3.427a2.75 2.75 0 0 0-2.25-1.177m-14.5-5h1.5v5h-1.5zm6 0h1.5v5h-1.5zm-3 0h1.5v5h-1.5z"/></svg>