<svg xmlns="http://www.w3.org/2000/svg" viewBox="0 0 24 24"><path fill="#002466" d="M9.033 4.869zA5.48 5.48 0 0 0 6.5 9.5V13H8V9.5c0-1.369.688-2.628 1.843-3.369a4.05 4.05 0 0 1 4.051-.155l.713-1.32c-1.72-.928-3.926-.845-5.574.213"/><path fill="#002466" d="M12 1a8.51 8.51 0 0 0-8.5 8.5v5A8.51 8.51 0 0 0 12 23v-1.5a7.01 7.01 0 0 1-7-7v-5a7.01 7.01 0 0 1 7-7 7.01 7.01 0 0 1 7 7v5a7.02 7.02 0 0 1-2.936 5.7l.871 1.221a8.52 8.52 0 0 0 3.564-6.921v-5A8.51 8.51 0 0 0 12 1"/><path fill="#002466" d="M17.5 9.5a5.44 5.44 0 0 0-1.158-3.376l-1.184.922c.551.707.842 1.556.842 2.455v5c0 2.206-1.794 4-4 4s-4-1.794-4-4H6.5A5.51 5.51 0 0 0 12 20a5.51 5.51 0 0 0 5.5-5.5z"/><path fill="#002466" d="M14.5 13.5v-4C14.5 8.122 13.379 7 12 7S9.5 8.122 9.5 9.5v5c0 1.378 1.121 2.5 2.5 2.5v-1.5a1 1 0 0 1-1-1v-5a1 1 0 1 1 2 0v4z"/></svg>