<svg xmlns="http://www.w3.org/2000/svg" fill="#002466" viewBox="0 0 24 24"><path d="M12 1C5.935 1 1 5.935 1 12s4.935 11 11 11 11-4.935 11-11S18.065 1 12 1m0 20.5c-5.238 0-9.5-4.262-9.5-9.5S6.762 2.5 12 2.5s9.5 4.262 9.5 9.5-4.262 9.5-9.5 9.5m-5.859-4.701L16.799 6.141l1.061 1.061L7.201 17.859zm2.467-5.503a2.69 2.69 0 0 0 2.688-2.687 2.69 2.69 0 0 0-2.688-2.688 2.69 2.69 0 0 0-2.687 2.688 2.69 2.69 0 0 0 2.688 2.688zm0-3.875a1.19 1.19 0 0 1 1.188 1.188 1.19 1.19 0 0 1-1.188 1.188A1.19 1.19 0 0 1 7.421 8.61a1.19 1.19 0 0 1 1.188-1.188zm6.784 5.283a2.69 2.69 0 0 0-2.688 2.688 2.69 2.69 0 0 0 2.688 2.688 2.69 2.69 0 0 0 2.688-2.688 2.69 2.69 0 0 0-2.687-2.687zm0 3.875a1.19 1.19 0 0 1-1.188-1.188 1.19 1.19 0 0 1 1.188-1.187 1.19 1.19 0 0 1 1.188 1.188 1.19 1.19 0 0 1-1.187 1.188z"/></svg>