<svg xmlns="http://www.w3.org/2000/svg" viewBox="0 0 24 24"><path fill="#002466" d="M19.101 9.415h-6.357v1.5H19.1c1.324 0 2.4 1.078 2.4 2.402V15H23v-1.683a3.905 3.905 0 0 0-3.899-3.902M1 13.317V15h1.499v-1.683a2.404 2.404 0 0 1 2.4-2.402h6.346v-1.5H4.9A3.905 3.905 0 0 0 1 13.317"/><path fill="#002466" d="M9.44 14.86c0-1.402-1.14-2.544-2.54-2.544s-2.542 1.142-2.542 2.544 1.14 2.544 2.541 2.544 2.542-1.141 2.542-2.544m-3.584 0c0-.575.468-1.044 1.043-1.044a1.045 1.045 0 0 1 0 2.088 1.045 1.045 0 0 1-1.043-1.044m2.689 3.297H5.252a2.703 2.703 0 0 0-2.699 2.701V23h1.499v-2.142c0-.662.538-1.2 1.2-1.2h3.294c.662 0 1.2.538 1.2 1.2V23h1.5v-2.142c0-1.489-1.211-2.7-2.7-2.7m11.086-3.298c0-1.402-1.14-2.544-2.542-2.544s-2.542 1.142-2.542 2.544 1.14 2.544 2.542 2.544 2.542-1.141 2.542-2.544m-3.585 0c0-.575.468-1.044 1.043-1.044a1.045 1.045 0 0 1 0 2.088 1.045 1.045 0 0 1-1.043-1.044m2.689 3.297h-3.293a2.703 2.703 0 0 0-2.7 2.701V23h1.5v-2.142c0-.662.538-1.2 1.2-1.2h3.293c.663 0 1.201.538 1.201 1.2V23h1.499v-2.142a2.704 2.704 0 0 0-2.7-2.7M14.74 7.379c.57.4 1.26.64 2.008.64s1.438-.24 2.008-.64v1.382h1.499V4.51c0-1.936-1.574-3.51-3.507-3.51s-3.506 1.574-3.506 3.51v4.25h1.498zm3.964-3.308c-.916-.045-1.209-.24-1.54-.462-.442-.293-.88-.536-1.677-.65a2 2 0 0 1 1.261-.459 2.01 2.01 0 0 1 1.956 1.571m-3.952.325c.945.041 1.244.238 1.58.462.517.345 1.028.619 2.122.698a2 2 0 0 1-1.706.964 2.01 2.01 0 0 1-2.008-2.01c0-.04.01-.076.012-.114M7.218 8.02c1.934 0 3.507-1.575 3.507-3.51S9.152 1 7.218 1a3.511 3.511 0 0 0 0 7.02m0-5.52a2.01 2.01 0 0 1 0 4.02 2.01 2.01 0 0 1 0-4.02"/></svg>