<svg xmlns="http://www.w3.org/2000/svg" viewBox="0 0 24 24"><path fill="#002466" d="M12 13.18a2.46 2.46 0 0 0-2.461 2.458c0 1.356 1.104 2.459 2.461 2.459s2.461-1.103 2.461-2.459A2.46 2.46 0 0 0 12 13.18m0 3.418a.96.96 0 0 1-.961-.959v-.001a.961.961 0 0 1 1.922 0c0 .53-.43.96-.96.96zM5.173 13.18a2.46 2.46 0 0 0-2.461 2.458c0 1.356 1.104 2.459 2.461 2.459s2.461-1.103 2.461-2.459S6.53 13.18 5.173 13.18m0 3.418a.96.96 0 1 1 .001 0zm13.655-3.418a2.46 2.46 0 0 0-2.461 2.458c0 1.356 1.104 2.459 2.461 2.459s2.46-1.103 2.46-2.459-1.104-2.458-2.46-2.458m0 3.418a.96.96 0 1 1 .96-.96c0 .53-.43.96-.96.96m1.316 1.971h-2.632a2.84 2.84 0 0 0-2.098.932 2.84 2.84 0 0 0-2.098-.932h-2.632a2.84 2.84 0 0 0-2.098.932 2.84 2.84 0 0 0-2.098-.932H3.856A2.86 2.86 0 0 0 1 21.422V23h1.5v-1.578c0-.747.609-1.354 1.356-1.354h2.633c.719 0 1.304.564 1.347 1.272-.001.028.002 1.66.002 1.66h1.5l-.001-1.66a1.35 1.35 0 0 1 1.347-1.272h2.632c.719 0 1.304.564 1.347 1.272-.001.028.005 1.66.005 1.66h1.495l.001-1.66a1.35 1.35 0 0 1 1.347-1.272h2.632c.747 0 1.356.607 1.356 1.354V23H23v-1.578a2.86 2.86 0 0 0-2.856-2.853M12 5.917a2.46 2.46 0 0 0 2.461-2.458 2.462 2.462 0 0 0-4.922 0A2.46 2.46 0 0 0 12 5.917m0-3.418c.53 0 .96.429.961.959v.001a.961.961 0 0 1-1.922 0c0-.53.43-.96.96-.96zM5.173 5.917a2.46 2.46 0 0 0 2.461-2.458 2.463 2.463 0 0 0-4.923 0 2.46 2.46 0 0 0 2.461 2.458zm0-3.418a.96.96 0 1 1-.001 0zm-1.317 5.39h2.633c.719 0 1.304.564 1.347 1.272-.001.028-.008.054-.008.082h1.517c0-.028-.008-.054-.008-.082a1.35 1.35 0 0 1 1.347-1.272h2.632c.719 0 1.304.564 1.347 1.272-.001.028-.008.054-.008.082h1.517c0-.028-.008-.054-.008-.082a1.35 1.35 0 0 1 1.347-1.272h2.632c.747 0 1.356.607 1.356 1.354H23a2.86 2.86 0 0 0-2.856-2.853h-2.632a2.84 2.84 0 0 0-2.098.932 2.84 2.84 0 0 0-2.098-.932h-2.632a2.84 2.84 0 0 0-2.098.932 2.84 2.84 0 0 0-2.098-.932H3.856A2.86 2.86 0 0 0 1 9.243h1.5c0-.747.609-1.354 1.356-1.354m14.972-1.972a2.46 2.46 0 0 0 2.46-2.458c0-1.356-1.103-2.459-2.46-2.459s-2.461 1.103-2.461 2.459 1.104 2.458 2.461 2.458m0-3.418a.96.96 0 1 1-.001 0z"/></svg>