<svg xmlns="http://www.w3.org/2000/svg" fill="#002466" viewBox="0 0 24 24"><path d="M17.891 16.991H12.5a1.99 1.99 0 0 0-1.845-1.241h-3.07c-.255 0-.505.048-.741.143l-1.563.627a2 2 0 0 0-1.167 1.813v1.52c0 .936.637 1.734 1.473 1.92l3.297 1.129a1.8 1.8 0 0 0 1 .049l8.383-2.004a2 2 0 0 0 1.62-1.96 2 2 0 0 0-1.996-1.996m.06 2.49-8.417 2.011a.3.3 0 0 1-.162-.008l-3.375-1.152a.49.49 0 0 1-.382-.479v-1.52c0-.192.113-.368.257-.434l1.533-.615a.5.5 0 0 1 .182-.035h3.07a.49.49 0 1 1 0 .982H9.208v1.5h1.448c.833 0 1.548-.514 1.845-1.241h5.391c.273 0 .496.222.496.496 0 .237-.169.442-.436.494zm-3.053-6.935a2.06 2.06 0 0 0 0-2.907A2.06 2.06 0 0 0 12 9.63a2.05 2.05 0 0 0-2.895.004 2.063 2.063 0 0 0-.004 2.912L12 15.444l2.899-2.898zm-4.732-1.851a.55.55 0 0 1 .389-.161c.141 0 .281.054.388.161l1.056 1.057 1.053-1.052a.555.555 0 1 1 .786.786L12 13.323l-1.837-1.837a.56.56 0 0 1 .004-.791zm8.248-8.468-3.297-1.129a1.8 1.8 0 0 0-1-.048L5.733 3.053a2 2 0 0 0-1.62 1.96 2 2 0 0 0 1.996 1.996H11.5a1.99 1.99 0 0 0 1.845 1.241h3.07a2 2 0 0 0 .741-.143l1.563-.627a2 2 0 0 0 1.167-1.813v-1.52c0-.936-.637-1.734-1.473-1.92zm-.027 3.439a.49.49 0 0 1-.257.434l-1.533.615a.5.5 0 0 1-.182.035h-3.07a.491.491 0 1 1 0-.982h1.448v-1.5h-1.448c-.833 0-1.548.514-1.845 1.241H6.109a.497.497 0 0 1-.496-.496c0-.237.169-.442.436-.494l8.417-2.011a.3.3 0 0 1 .162.008l3.375 1.152a.49.49 0 0 1 .382.479v1.52z"/></svg>