<svg xmlns="http://www.w3.org/2000/svg" viewBox="0 0 24 24"><path fill="#002466" d="M12 1C5.925 1 1 5.925 1 12s4.925 11 11 11 11-4.925 11-11S18.075 1 12 1m0 20.5c-5.238 0-9.5-4.262-9.5-9.5S6.762 2.5 12 2.5s9.5 4.262 9.5 9.5-4.262 9.5-9.5 9.5"/><path fill="#002466" d="M11.176 13.514q-.001.111.07.175a.26.26 0 0 0 .181.062h1.146q.112 0 .181-.062.07-.063.07-.175l.147-4.57.049-1.583q0-.125-.056-.182t-.168-.056h-1.593q-.111.001-.167.056-.056.056-.056.182 0 .042.05 1.583.047 1.542.146 4.57m.81 1.186q-.475 0-.775.307t-.3.795q0 .475.3.774t.775.3q.489 0 .796-.293.308-.292.308-.78 0-.49-.308-.796-.307-.307-.796-.307"/></svg>