<svg xmlns="http://www.w3.org/2000/svg" viewBox="0 0 24 24"><path fill="#002466" d="M21.62 11.75q.257 0 .449.048l.931.231V4.5h-4.252A3.635 3.635 0 0 0 15.12 1a3.63 3.63 0 0 0-3.618 3.5H4.5v3.002A3.624 3.624 0 0 0 1 11.12a3.63 3.63 0 0 0 3.5 3.628V23h5.284l-.237-.935a2.128 2.128 0 0 1 2.073-2.566 2.132 2.132 0 0 1 2.083 2.566l-.237.935H23v-7.279l-.931.231A2.128 2.128 0 0 1 19.5 13.87c0-1.169.951-2.12 2.12-2.12m-.12 5.748V21.5h-6.252A3.635 3.635 0 0 0 11.62 18a3.63 3.63 0 0 0-3.618 3.5H6v-8.529l-.931.231A2.128 2.128 0 0 1 2.5 11.12a2.122 2.122 0 0 1 2.569-2.072L6 9.279V6h7.284l-.237-.935a2.128 2.128 0 0 1 2.073-2.566 2.132 2.132 0 0 1 2.083 2.566L16.966 6H21.5v4.252A3.624 3.624 0 0 0 18 13.87a3.63 3.63 0 0 0 3.5 3.628"/></svg>