<svg xmlns="http://www.w3.org/2000/svg" fill="#002466" viewBox="0 0 24 24"><path d="m22.167 3.703-.179.179-1.046 1.046.559.149v16.431H18v-3.492h-1.749v-3.5H7.75v3.5H5.999v3.492H2.5V5.078l9.484-2.542.532.142.526-.526.7-.7-1.757-.47L1 3.926v19.083h4.999v.008H18v-.008h5V3.926zM9.499 21.509h-2v-1.992h2zm.001-3.492h-.25v-2h2v2zm3.5 3.492h-2v-1.992h2zm0-3.492h-.249v-2h2v2zm3.5 3.492h-2v-1.992h2zM12.098 9.483l2.466 2.466 2.467-2.467-1.061-1.061-.655.655V2.51h-1.5v6.57l-.656-.656-1.061 1.061zm5.681-5.506v6.569h1.5V3.978l.655.656 1.061-1.061-2.466-2.466-2.467 2.466 1.061 1.061z"/></svg>