<svg xmlns="http://www.w3.org/2000/svg" fill="#002466" viewBox="0 0 24 24"><path d="M16.556 1H7.444L1 7.444v9.113L7.444 23h9.113L23 16.556V7.444zM21.5 15.935 15.935 21.5h-7.87L2.5 15.935v-7.87L8.065 2.5h7.87L21.5 8.065zM6.838 11.987a1.5 1.5 0 0 0-.46-.311l-.485-.197a2 2 0 0 1-.387-.193.33.33 0 0 1-.158-.295q0-.159.107-.244c.107-.085.167-.086.285-.086a.53.53 0 0 1 .308.099.7.7 0 0 1 .226.244q.038.07.079.083c.041.013.064.002.111-.019l.615-.305q.114-.051.063-.165a1.5 1.5 0 0 0-.533-.637q-.343-.225-.837-.225a2 2 0 0 0-.638.095 1.4 1.4 0 0 0-.481.27 1.2 1.2 0 0 0-.308.418q-.108.245-.108.542c0 .297.031.372.092.507s.147.258.257.368q.21.21.463.323l.479.207a2 2 0 0 1 .377.196.33.33 0 0 1 .152.289.3.3 0 0 1-.124.257q-.123.092-.396.092a1.15 1.15 0 0 1-.495-.099 2 2 0 0 1-.349-.206q-.114-.101-.185.038l-.336.622q-.05.095.025.165a1.9 1.9 0 0 0 .511.301q.333.143.828.143a2.2 2.2 0 0 0 .723-.111 1.5 1.5 0 0 0 .517-.298q.207-.187.311-.435a1.3 1.3 0 0 0 .105-.526q0-.323-.099-.536a1.3 1.3 0 0 0-.257-.371zm3.951-2.175H7.644a.11.11 0 0 0-.127.127v.666a.11.11 0 0 0 .127.127h1.021v3.33q0 .127.127.127h.85a.11.11 0 0 0 .127-.127v-3.33h1.021a.11.11 0 0 0 .127-.127v-.666a.11.11 0 0 0-.127-.127zm4.208.529a1.9 1.9 0 0 0-.697-.45 2.6 2.6 0 0 0-.923-.155q-.514 0-.926.155c-.412.155-.508.254-.698.45a2 2 0 0 0-.44.714 2.7 2.7 0 0 0-.155.945 2.7 2.7 0 0 0 .155.945q.155.419.44.713c.285.294.423.347.698.451a2.6 2.6 0 0 0 .926.155 2.6 2.6 0 0 0 .923-.155 1.9 1.9 0 0 0 .697-.451 1.9 1.9 0 0 0 .44-.713q.151-.418.152-.945c.001-.527-.051-.666-.152-.945s-.248-.517-.44-.714m-.824 2.623q-.295.33-.796.33c-.501 0-.605-.11-.803-.33s-.295-.541-.295-.964.099-.753.295-.98.464-.339.803-.339.599.113.796.339.295.553.295.98-.099.744-.295.964m1.988-2.252h.285v3.349a.11.11 0 0 0 .127.127h.85a.11.11 0 0 0 .127-.127v-1.154h.336q.945 0 1.452-.421c.507-.421.508-.671.508-1.17s-.16-.869-.479-1.123-.801-.38-1.443-.38h-1.763a.11.11 0 0 0-.127.127v.646a.11.11 0 0 0 .127.127zm1.389-.006h.349q.431 0 .631.162c.2.162.2.274.2.498q0 .324-.203.498c-.203.174-.347.174-.634.174h-.343z"/></svg>