<svg xmlns="http://www.w3.org/2000/svg" fill="#002466" viewBox="0 0 24 24"><path d="M20.565 6.134C19.918 1.931 15.744 1.191 12.66 1c-2.525-.159-4.813.604-6.45 2.143-1.915 1.8-2.886 4.527-2.886 8.105 0 3.461 1.221 10.323 5.839 11.52a7.5 7.5 0 0 0 1.866.252c1.213 0 2.272-.353 3.079-1.044 1.009-.863 1.507-2.17 1.366-3.585-.219-2.208-.167-4.529 2.997-6.506 1.24-.775 2.609-2.402 2.094-5.75zm-2.889 4.478c-3.707 2.317-3.967 5.179-3.694 7.927.091.92-.219 1.758-.85 2.298-.815.698-2.092.868-3.593.479-3.436-.891-4.716-6.648-4.716-10.068 0-3.148.812-5.508 2.413-7.012 1.215-1.142 2.896-1.756 4.78-1.756a9 9 0 0 1 .55.017c4.19.259 6.139 1.415 6.516 3.865.318 2.069-.142 3.459-1.406 4.25m-9.192-.859c-1.196.258-1.959.914-2.146 1.849-.589 2.946.73 7.64 2.939 8.586a3.9 3.9 0 0 0 1.536.339c.633 0 1.199-.192 1.63-.572.61-.537.835-1.346.601-2.163-.398-1.395-.146-3.042.673-4.408.437-.728.418-1.521-.051-2.177-.939-1.312-3.485-1.816-5.183-1.454zm3.946 2.86c-1.028 1.715-1.338 3.806-.827 5.592.072.254.019.476-.15.625-.243.214-.786.322-1.583-.021-1.252-.537-2.575-4.338-2.061-6.914.084-.421.656-.604.99-.676 1.387-.301 3.197.231 3.646.86.088.122.152.254-.016.533zm2.1-8.836c-.517-.147-3.207-.816-5.47.511-1.258.738-2.088 1.929-2.467 3.538-.11.471-.029.841.24 1.098.431.41.984.251 1.571.082 1.1-.313 2.761-.789 4.688.818.484.403 1.04.609 1.619.609q.436 0 .882-.156c1.171-.414 2.046-1.536 2.215-2.382.332-1.659-1.14-3.507-3.279-4.118zm1.809 3.824c-.07.353-.603 1.035-1.244 1.262-.389.137-.72.076-1.04-.191-1.388-1.156-2.728-1.477-3.844-1.477-.777 0-1.447.156-1.949.293.324-.849.847-1.489 1.559-1.906 1.345-.789 3.156-.689 4.298-.363 1.46.417 2.377 1.602 2.221 2.382z"/></svg>