<svg xmlns="http://www.w3.org/2000/svg" fill="#002466" viewBox="0 0 24 24"><path d="M9.464 1.396 8.983 1l-.481.396C8.43 1.455 6.73 2.877 6.73 4.688v18.303h4.505V4.688c0-1.811-1.7-3.233-1.772-3.292zm.27 20.111H8.232v-5.188h1.502zm0-6.673H8.232v-3.217h1.502zm0-4.702H8.232V4.688c0-.609.389-1.229.751-1.661.362.432.751 1.051.751 1.661zM5.228 5.708c.011-.282.08-2.787-1.008-3.907a1.84 1.84 0 0 0-1.349-.578c-.869 0-1.532.461-1.773 1.233-.45 1.44.67 3.532 2.628 4.987v12.586h-.751v1.485h.751V23h1.502v-1.485h.751V20.03h-.751zM2.534 2.896c.027-.088.058-.187.338-.187.088 0 .168.021.265.121.43.442.6 1.728.594 2.641-.981-1.023-1.353-2.078-1.198-2.575zm12.963-1.5L15.017 1l-.481.396c-.072.059-1.772 1.481-1.772 3.292v18.303h4.505V4.688c0-1.811-1.7-3.233-1.772-3.292m.27 20.111h-1.502v-5.188h1.502zm0-6.673h-1.502v-3.217h1.502zm0-4.702h-1.502V4.688c0-.609.389-1.229.751-1.661.362.432.751 1.051.751 1.661zm4.506-2.688c1.959-1.455 3.078-3.547 2.629-4.987-.241-.772-.904-1.233-1.773-1.233-.515 0-.982.2-1.348.577-1.088 1.12-1.02 3.625-1.009 3.877v14.353h-.751v1.485h.751V23h1.502v-1.485h.751V20.03h-.751zm.591-4.615a.33.33 0 0 1 .265-.121c.28 0 .31.099.338.187.155.497-.217 1.551-1.198 2.575-.008-.89.161-2.196.595-2.641"/></svg>