<svg xmlns="http://www.w3.org/2000/svg" viewBox="0 0 24 24"><path fill="#002466" d="M12 1C5.925 1 1 5.925 1 12s4.925 11 11 11 11-4.925 11-11S18.075 1 12 1m0 20.5c-5.238 0-9.5-4.262-9.5-9.5S6.762 2.5 12 2.5s9.5 4.262 9.5 9.5-4.262 9.5-9.5 9.5M10.417 9.793q.383-.05.972-.074c.59-.024.774-.02 1.14-.009q.232 0 .232.233v7.665q0 .233-.232.233h-1.081q-.233 0-.233-.233v-6.584h-.782q-.232 0-.232-.232v-.766q0-.198.216-.233m2.644-2.36q0 .482-.316.78-.316.3-.749.3-.45 0-.756-.3-.308-.298-.308-.78t.308-.773c.308-.29.457-.291.756-.291q.432 0 .749.29.315.292.316.774"/></svg>