<svg xmlns="http://www.w3.org/2000/svg" fill="#002466" viewBox="0 0 24 24"><path d="M1 23h18V12.072H1zm16.5-1.498h-1.72V13.57h1.72zm-15-7.932h11.78v7.932H2.5zm17.053-9.937h-5.805l1.575-1.574L14.263 1l-3.386 3.382 3.386 3.381 1.061-1.059-1.575-1.573h5.805A1.95 1.95 0 0 1 21.5 7.075a1.95 1.95 0 0 1-1.947 1.945h-2.538v1.498h2.538A3.45 3.45 0 0 0 23 7.075a3.45 3.45 0 0 0-3.447-3.442M8.854 15.55a.8.8 0 0 1 .266.038.7.7 0 0 1 .183.098.4.4 0 0 1 .106.125q.053.092.081.169c.048.149.179.219.352.181l.373-.125c.145-.058.212-.188.171-.332a1.7 1.7 0 0 0-.173-.393 1.3 1.3 0 0 0-.311-.35 1.6 1.6 0 0 0-.446-.243 1.85 1.85 0 0 0-1.26.036q-.32.131-.585.399c-.265.268-.321.403-.444.679a3.2 3.2 0 0 0-.229.812h-.311c-.164 0-.274.11-.274.273v.227c0 .163.11.273.274.273h.249v.166h-.249c-.164 0-.274.11-.274.273v.227c0 .163.11.273.274.273h.308q.068.474.217.824c.117.277.269.509.452.687a1.7 1.7 0 0 0 .65.392 2.5 2.5 0 0 0 .79.118 2.2 2.2 0 0 0 .71-.092c.183-.062.313-.118.42-.181a.27.27 0 0 0 .11-.333l-.126-.347a.26.26 0 0 0-.142-.169c-.048-.022-.126-.037-.232.011a2 2 0 0 1-.287.117 1.3 1.3 0 0 1-.408.055c-.327 0-.584-.09-.787-.276q-.262-.238-.365-.805H9.65c.163 0 .272-.11.272-.273v-.227c0-.163-.109-.273-.272-.273H7.87v-.166h1.78c.163 0 .272-.109.272-.273v-.227c0-.163-.109-.273-.272-.273H7.938q.106-.564.333-.817c.169-.188.359-.279.583-.279z"/></svg>