<svg xmlns="http://www.w3.org/2000/svg" fill="#002466" viewBox="0 0 24 24"><path d="M2.498 2.498h13.981v6.491h1.498V1H1v21.97h10.985v-1.498H2.498zm2.497 2.996h8.988v1.498H4.995zm0 3.495h6.99v1.498h-6.99zm0 9.737H8.49v1.498H4.995zM23 21.941l-2.544-2.544a5.52 5.52 0 0 0 1.139-3.356 5.56 5.56 0 0 0-5.554-5.554 5.56 5.56 0 0 0-5.554 5.554 5.56 5.56 0 0 0 5.554 5.554 5.52 5.52 0 0 0 3.356-1.139L21.941 23zm-11.015-5.9a4.06 4.06 0 0 1 4.056-4.056 4.06 4.06 0 0 1 4.056 4.056 4.06 4.06 0 0 1-4.056 4.056 4.06 4.06 0 0 1-4.056-4.056"/></svg>