<svg xmlns="http://www.w3.org/2000/svg" viewBox="0 0 24 24"><path fill="#002466" d="M12.75 2.038V1h-1.5v1.038C5.634 2.426 1.181 7.107 1.181 12.819V14h1.5a2.61 2.61 0 0 1 2.606-2.606A2.61 2.61 0 0 1 7.894 14h1.5a2.6 2.6 0 0 1 1.856-2.483v9.152a.832.832 0 0 1-1.662 0v-.527h-1.5v.527c0 1.285 1.046 2.331 2.331 2.331s2.331-1.046 2.331-2.331v-9.152A2.6 2.6 0 0 1 14.606 14h1.5a2.61 2.61 0 0 1 2.606-2.606A2.61 2.61 0 0 1 21.319 14h1.5v-1.181c0-5.712-4.454-10.393-10.069-10.781m5.963 7.856a4.1 4.1 0 0 0-3.356 1.754c-.744-1.058-1.968-1.754-3.356-1.754s-2.613.697-3.356 1.754a4.1 4.1 0 0 0-3.358-1.754c-.869 0-1.672.275-2.336.737C3.94 6.546 7.616 3.5 12 3.5s8.06 3.046 9.049 7.13a4.1 4.1 0 0 0-2.336-.737z"/></svg>