<svg xmlns="http://www.w3.org/2000/svg" fill="#002466" viewBox="0 0 24 24"><path d="M9.5 8h7v1.5h-7zm-.008 4H16.5v1.5H9.492zM16.5 2.5V1H15v1.5h-4V1H9.5v1.5H4V12h1.5V4h4v1.5H11V4h4v1.5h1.5V4h4v17.5H13V23h9V2.5zM2.22 21.686l7.047-7.046 1.061 1.061-7.047 7.046zm1.811-3.204c1.12 0 2.031-.911 2.031-2.031s-.911-2.031-2.031-2.031S2 15.331 2 16.451s.911 2.031 2.031 2.031m0-2.562a.531.531 0 1 1 0 1.062.531.531 0 1 1 0-1.062m4.485 2.984c-1.12 0-2.031.911-2.031 2.031s.911 2.031 2.031 2.031 2.031-.911 2.031-2.031-.911-2.031-2.031-2.031m0 2.563a.531.531 0 1 1 0-1.062.531.531 0 1 1 0 1.063z"/></svg>