<svg xmlns="http://www.w3.org/2000/svg" fill="#002466" viewBox="0 0 24 24"><path d="M22.599 12.679a2.05 2.05 0 0 0-1.353-.82c-.955-.146-1.901.402-2.264 1.351l-.152.486-1.604-3.525a2.15 2.15 0 0 0-1.212-1.13 2.14 2.14 0 0 0-1.655.057 2.15 2.15 0 0 0-1.131 1.211 2.15 2.15 0 0 0 .057 1.656l.892 1.958-1.887 1.259a2.726 2.726 0 0 0-.81 3.703l1.732 2.815a2.74 2.74 0 0 0 2.332 1.3 2.7 2.7 0 0 0 1.125-.245l3.913-1.781a2.71 2.71 0 0 0 1.562-2.039l.832-4.718a2.06 2.06 0 0 0-.377-1.539zm-1.935 6.009a1.22 1.22 0 0 1-.703.921l-3.913 1.781a1.235 1.235 0 0 1-1.559-.477l-1.732-2.814a1.23 1.23 0 0 1 .365-1.67l2.219-1.48a1.03 1.03 0 0 0 .364-1.286l-1.056-2.32a.665.665 0 0 1 .331-.881.65.65 0 0 1 .273-.06.66.66 0 0 1 .606.39l2.107 4.63a1.032 1.032 0 0 0 1.924-.098l.507-1.623a.56.56 0 0 1 .619-.36.56.56 0 0 1 .371.225.55.55 0 0 1 .107.407l-.832 4.715zM12.5 13V7.75h5V1H1v17.25h9.25v-1.5H7.5V13zM11 11.5H7.5V7.75H11zM2.5 7.75H6v3.75H2.5zm5-1.5V2.5H11v3.75zm8.5 0h-3.5V2.5H16zM6 2.5v3.75H2.5V2.5zm0 14.25H2.5V13H6z"/></svg>