<svg xmlns="http://www.w3.org/2000/svg" viewBox="0 0 24 24"><path fill="#002466" d="m18.722 6.359-.578-.482-.53.53a3.35 3.35 0 0 0-.932 3.012l-2.184 2.184V7.405H11.25v-.25A3.254 3.254 0 0 0 8 3.905H4.226a3.254 3.254 0 0 0-3.25 3.25v4a3.254 3.254 0 0 0 3.25 3.25h.024v5.689h10.248V17.18l4.973-4.973c1.092.208 2.215-.134 3.057-.976l.536-.53zm-5.724 6.764-.155-.092c-.254-.17-.637-.427-1.312-.427s-1.058.257-1.312.427c-.187.126-.258.173-.477.173s-.287-.047-.475-.172c-.253-.17-.636-.428-1.312-.428s-1.057.258-1.31.428c-.186.125-.256.172-.472.172-.194 0-.278-.047-.425-.144V8.905h7.248v4.219zm-8.772-.219c-.965 0-1.75-.785-1.75-1.75v-4c0-.965.785-1.75 1.75-1.75H8c.965 0 1.75.785 1.75 1.75v.25h-5.5v5.5zm15.262-2.241-.443-.151-6.046 6.047v2.035H5.75v-3.93a2.3 2.3 0 0 0 .425.04c.675 0 1.057-.258 1.31-.428.186-.125.256-.172.472-.172s.288.047.476.173c.253.17.636.427 1.311.427s1.059-.257 1.313-.427c.188-.126.257-.173.476-.173s.289.047.477.173c.209.14.516.331.991.397v.549l5.379-5.378-.151-.443a1.84 1.84 0 0 1 .061-1.357l2.563 2.563a1.87 1.87 0 0 1-1.362.056z"/></svg>