<svg xmlns="http://www.w3.org/2000/svg" viewBox="0 0 24 24"><path fill="#002466" d="M16.556 7.138h6.194V3.197h-6.194A2.95 2.95 0 0 0 13.707 1H1.25v22h12.457a2.95 2.95 0 0 0 2.849-2.197h6.194v-3.941h-6.194a2.94 2.94 0 0 0-.901-1.446c.428-.38.75-.876.901-1.446h6.194v-3.941h-6.194a2.94 2.94 0 0 0-.901-1.446c.428-.38.75-.876.901-1.446zm4.694-1.501h-1.427v-.939h1.427zM2.75 2.501h2.158v5.332H2.75zm0 6.833h2.158v5.333H2.75zm0 6.833h2.158v5.332H2.75zm18.5 3.136h-1.427v-.939h1.427zm-6.098-1.69v.75h3.171v.939h-3.171v.75a1.45 1.45 0 0 1-1.445 1.446H6.408v-5.332h7.299a1.45 1.45 0 0 1 1.445 1.446zm6.098-5.143h-1.427v-.939h1.427zm-6.098-1.69v.75h3.171v.939h-3.171v.75a1.45 1.45 0 0 1-1.445 1.446H6.408V9.334h7.299a1.45 1.45 0 0 1 1.445 1.446M6.408 7.833V2.501h7.299a1.45 1.45 0 0 1 1.445 1.446v.75h3.171v.939h-3.171v.75a1.45 1.45 0 0 1-1.445 1.446H6.408z"/></svg>