<svg xmlns="http://www.w3.org/2000/svg" fill="#002466" viewBox="0 0 24 24"><path d="M21.564 2.437a4.923 4.923 0 0 0-6.951 0l-2.941 2.941 1.061 1.061 2.941-2.941a3.42 3.42 0 0 1 4.829 0 3.42 3.42 0 0 1 0 4.829l-5.702 5.702a3.42 3.42 0 0 1-4.829 0 3.4 3.4 0 0 1-.849-1.424l-1.146 1.147c.238.491.545.949.934 1.339a4.9 4.9 0 0 0 3.475 1.437 4.9 4.9 0 0 0 3.476-1.437l5.702-5.702a4.92 4.92 0 0 0 0-6.951zM8.329 20.501a3.42 3.42 0 0 1-4.829 0 3.4 3.4 0 0 1-1-2.415 3.4 3.4 0 0 1 1-2.414L9.201 9.97a3.42 3.42 0 0 1 5.694 1.472l1.152-1.152a4.9 4.9 0 0 0-.956-1.381 4.92 4.92 0 0 0-6.951 0l-5.702 5.703a4.88 4.88 0 0 0-1.44 3.475 4.9 4.9 0 0 0 1.44 3.476A4.9 4.9 0 0 0 5.915 23a4.9 4.9 0 0 0 3.475-1.438l2.955-2.955-1.061-1.061z"/></svg>