<svg xmlns="http://www.w3.org/2000/svg" fill="#002466" viewBox="0 0 24 24"><path d="M18.096 20.546 15.444 7.91H3.653L1 20.546h7.798v.954H7.661V23h3.776v-1.5h-1.139v-.954zm-1.847-1.5h-2.785l-.221-2.087h2.568zm-.753-3.586h-2.412l-.241-2.275h2.176zm-1.27-6.05.478 2.276h-2.02l-.241-2.276zm-6.028 0h2.735l.241 2.276H7.956zm-.401 3.775h3.536l.241 2.275H7.556zm-2.131 5.861H2.847l.438-2.087h2.602zm.381-3.586H3.6l.478-2.275h2.21zm.4-3.775H4.393l.478-2.276h1.818l-.241 2.276zm.728 7.361.221-2.087h4.337l.221 2.087zM17.25 4.989a3.236 3.236 0 0 0 3.233-3.232A3.2 3.2 0 0 0 20.385 1h-1.583a1.7 1.7 0 0 1 .182.757 1.734 1.734 0 0 1-3.466 0A1.7 1.7 0 0 1 15.699 1h-1.583a3.2 3.2 0 0 0-.099.757 3.236 3.236 0 0 0 3.233 3.232m-5.749-3.982h2.091v1.5h-2.091zm9.408 0H23v1.5h-2.091zm-4.408 4.408H18v2.09h-1.5zm-3.846-.124 1.478-1.478 1.06 1.06-1.478 1.478zm6.652-.418 1.06-1.06 1.478 1.478-1.06 1.06z"/></svg>