<svg xmlns="http://www.w3.org/2000/svg" fill="#002466" viewBox="0 0 24 24"><path d="M6.781 18.001h10.436V8.002H6.781zm4.808-8.499h.819v1.631h-.819zm-3.308 0h1.808v3.131h3.819V9.502h1.808v6.999H8.281zm14.566.676h-1.524a9.6 9.6 0 0 1 .176 1.795h-.001c.008 2.537-.973 4.926-2.761 6.725s-4.171 2.795-6.708 2.802H12c-5.224 0-9.483-4.242-9.499-9.47-.011-3.41 1.821-6.525 4.724-8.22l.009 2.706 1.5-.005-.017-5.499-5.499.017.004 1.5 3.215-.01A11.01 11.01 0 0 0 1 12.035C1.019 18.088 5.95 23 11.999 23h.033a10.93 10.93 0 0 0 7.768-3.245 10.93 10.93 0 0 0 3.196-7.754H23c0-.613-.053-1.224-.153-1.823m-2.096-1.882 1.381-.587a11 11 0 0 0-1.67-2.737l-1.154.959a9.5 9.5 0 0 1 1.443 2.365m-1.403-4.481a11 11 0 0 0-2.672-1.774l-.639 1.357c.839.394 1.615.91 2.308 1.533zm-4.176-2.35A11 11 0 0 0 11.999 1v1.5a9.5 9.5 0 0 1 2.741.401z"/></svg>