<svg xmlns="http://www.w3.org/2000/svg" viewBox="0 0 24 24"><path fill="#002466" d="m19.2 3.8-.31-.601-.629.246c-.205.08-3.159 1.262-5.916 3.309C10.35 3.418 5.517 1.355 5.291 1.26L4.668 1l-.324.594c-.134.245-3.255 6.045-1.807 10.035 1.072 2.954 3.685 4.003 4.91 4.341.396 3.64 2.985 6.396 4.3 6.877.271.099.65.154 1.106.154 2.378 0 6.807-1.497 8.468-6.074C23.22 11.694 19.365 4.12 19.2 3.8M3.947 11.114c-.971-2.672.679-6.645 1.4-8.171 1.362.666 4.539 2.417 5.816 4.753-.889.774-1.702 1.643-2.335 2.599L7.384 6.316l-1.41.514 1.925 5.304a8.7 8.7 0 0 0-.468 2.256c-1.119-.379-2.751-1.257-3.484-3.277zm15.964 5.298c-1.397 3.85-5.126 5.02-6.878 5.09l3.959-10.907-1.41-.514-3.964 10.921c-1.379-1.188-3.69-4.566-2.28-8.448 1.385-3.816 6.932-6.582 8.829-7.433.851 1.867 3.129 7.477 1.744 11.291"/></svg>