<svg xmlns="http://www.w3.org/2000/svg" fill="#00236a" viewBox="0 0 24 24"><path d="M11.249 1.75h1.5v3.116h-1.5zm5.112 20.5h-1.5v-4.213l.457-.194c2.688-1.141 4.919-3.219 6.027-5.597l-1.107-.405c-1.03 2.12-3.136 3.978-5.684 5.002l-.134.054H9.532l-.132-.052c-2.531-.991-4.63-2.85-5.666-5.004l-1.104.405c1.107 2.376 3.337 4.454 6.022 5.595l.457.194v4.214h-1.5v-3.232c-2.934-1.375-5.337-3.762-6.484-6.464-.128-.3-.126-.646.006-.949a1.23 1.23 0 0 1 .704-.665l1.636-.599A1.22 1.22 0 0 1 5 11.003c.82 1.862 2.615 3.497 4.818 4.394h4.31c2.194-.918 4.045-2.594 4.848-4.399a1.223 1.223 0 0 1 1.529-.657l1.636.599a1.23 1.23 0 0 1 .704.665c.132.303.134.648.006.949-1.149 2.704-3.554 5.091-6.489 6.466zm-4.373-8.626a3.59 3.59 0 0 1-3.585-3.585 3.59 3.59 0 0 1 3.585-3.584 3.59 3.59 0 0 1 3.585 3.584 3.59 3.59 0 0 1-3.585 3.585m0-5.669a2.09 2.09 0 0 0-2.085 2.084 2.09 2.09 0 0 0 2.085 2.085 2.09 2.09 0 0 0 2.085-2.085 2.09 2.09 0 0 0-2.085-2.084M6.629 3.673l1.229-.86 1.787 2.553-1.229.86zM3.947 7.899 4.46 6.49l2.928 1.066-.513 1.409zM14.35 5.377l1.787-2.552 1.229.86-1.787 2.552zm2.247 2.199 2.927-1.067.514 1.409-2.927 1.067z"/></svg>