<svg xmlns="http://www.w3.org/2000/svg" viewBox="0 0 24 24"><path fill="#002466" d="M22.5 11.787V7a3.254 3.254 0 0 0-3.25-3.25H4.75A3.254 3.254 0 0 0 1.5 7v4.787A3.2 3.2 0 0 0 1 13.5v6.75h1.5v-1.5h19v1.5H23V13.5a3.2 3.2 0 0 0-.5-1.713M3 7c0-.965.785-1.75 1.75-1.75h14.5c.965 0 1.75.785 1.75 1.75v3.502a3.2 3.2 0 0 0-1.25-.252h-.25V9.5c0-1.241-1.01-2.25-2.25-2.25h-2A2.253 2.253 0 0 0 13 9.5v.75h-2V9.5c0-1.241-1.01-2.25-2.25-2.25h-2A2.253 2.253 0 0 0 4.5 9.5v.75h-.25a3.2 3.2 0 0 0-1.25.252zm15 2.5v.75h-3.5V9.5a.75.75 0 0 1 .75-.75h2a.75.75 0 0 1 .75.75m-8.5 0v.75H6V9.5a.75.75 0 0 1 .75-.75h2a.75.75 0 0 1 .75.75m12 7.75h-19V13.5c0-.965.785-1.75 1.75-1.75h15.5c.965 0 1.75.785 1.75 1.75z"/></svg>