<svg xmlns="http://www.w3.org/2000/svg" fill="#002466" viewBox="0 0 24 24"><path d="M18.849 1v6.21H16v1.496h4.349v-6.21H21.5V19.2h-3.75v1.496H23V1zm-7.848 1.496h1.156l.001 3.49h1.5L13.657 1H9.501v5.485h1.5zm3.534 6.979V7.482h-3.558v1.994a3.44 3.44 0 0 0-1.715 2.99v.724a2.26 2.26 0 0 0 .299 1.121l.059.087a.64.64 0 0 1-.001.782l-.058.086a2.26 2.26 0 0 0-.299 1.121v4.156a2.464 2.464 0 0 0 2.465 2.458h2.058a2.464 2.464 0 0 0 2.465-2.458v-4.156a2.26 2.26 0 0 0-.299-1.121l-.058-.086a.64.64 0 0 1 0-.783l.058-.086a2.26 2.26 0 0 0 .299-1.121v-.724c0-1.25-.658-2.374-1.715-2.99zm.215 3.714a.76.76 0 0 1-.083.346 2.13 2.13 0 0 0 0 2.505.76.76 0 0 1 .083.346v4.156c0 .53-.433.962-.965.962h-2.058a.964.964 0 0 1-.965-.962v-4.156a.76.76 0 0 1 .083-.345 2.13 2.13 0 0 0 0-2.506.76.76 0 0 1-.083-.345v-.724c0-.811.488-1.529 1.243-1.831l.472-.188V8.978h.558v1.469l.472.188a1.96 1.96 0 0 1 1.243 1.831zM6.669 9.228H2.085v2.182H1l.004 11.531H7.75V11.409H6.669zm-3.084 1.496h1.584v.686H3.585zm2.665 10.72H2.504l-.003-5.837H6.25zm0-7.333H2.501L2.5 12.905h3.75z"/></svg>