<svg xmlns="http://www.w3.org/2000/svg" fill="#002466" viewBox="0 0 24 24"><path d="m16.164 12.416-2.087-1.02-2.083 1.02-2.082-1.02-2.082 1.02L5 11.028V23h13.999V11.029zM17.5 21.5h-11v-8.067l1.33.653 2.082-1.02 2.082 1.02 2.083-1.021 2.087 1.02 1.336-.654zM7.496 9.142a2.63 2.63 0 0 1 2.626-2.625 2.63 2.63 0 0 1 2.625 2.625v1.368h1.5V9.142a4.13 4.13 0 0 0-4.125-4.125 4.13 4.13 0 0 0-4.126 4.125v1.349h1.5zm6.744-5.511c0-.623.508-1.131 1.132-1.131a1.13 1.13 0 0 1 1.131 1.131v6.861h1.5V3.631C18.002 2.18 16.822 1 15.372 1S12.74 2.18 12.74 3.631v1.358h1.5z"/></svg>