<svg xmlns="http://www.w3.org/2000/svg" viewBox="0 0 24 24"><path fill="#002466" d="M18.131 16.096a3.43 3.43 0 0 0-2.535 1.129L9.01 13.332c.172-.41.268-.86.268-1.332a3.4 3.4 0 0 0-.268-1.332l6.615-3.91a3.43 3.43 0 0 0 2.55 1.146c1.903 0 3.451-1.549 3.451-3.452S20.077 1 18.174 1s-3.451 1.549-3.451 3.452c0 .35.068.681.165.999l-6.76 3.995a3.42 3.42 0 0 0-2.302-.899c-1.903 0-3.451 1.549-3.451 3.452s1.548 3.452 3.451 3.452c.888 0 1.69-.346 2.302-.899l6.724 3.974a3.4 3.4 0 0 0-.171 1.021c0 1.904 1.548 3.452 3.451 3.452s3.451-1.548 3.451-3.452-1.548-3.452-3.451-3.452zM18.174 2.5c1.076 0 1.951.876 1.951 1.952s-.875 1.952-1.951 1.952-1.951-.876-1.951-1.952.875-1.952 1.951-1.952M5.826 13.952a1.953 1.953 0 0 1 0-3.904c1.076 0 1.951.876 1.951 1.952s-.875 1.952-1.951 1.952M18.131 21.5a1.953 1.953 0 0 1 0-3.904 1.953 1.953 0 0 1 0 3.904"/></svg>