<svg xmlns="http://www.w3.org/2000/svg" fill="#002466" viewBox="0 0 24 24"><path d="M11.985 4.75A7.25 7.25 0 0 1 18.33 8.5H20c-1.353-3.086-4.434-5.25-8.014-5.25S5.324 5.414 3.971 8.5H5.64a7.25 7.25 0 0 1 6.345-3.75m0 14.5A7.25 7.25 0 0 1 5.64 15.5H3.971c1.353 3.086 4.434 5.25 8.014 5.25S18.646 18.586 20 15.5h-1.669a7.25 7.25 0 0 1-6.345 3.75zm-4.94-4.774 1.074 1.046L11.546 12 8.119 8.478 7.045 9.524l1.684 1.731H1v1.5h7.72zm8.226-3.222 1.684-1.731-1.074-1.046-3.427 3.522 3.427 3.522 1.074-1.046-1.675-1.722H23v-1.5z"/></svg>