<svg xmlns="http://www.w3.org/2000/svg" viewBox="0 0 24 24"><path fill="#002466" d="M16.36 10.468A2.97 2.97 0 0 0 16.75 9V7.942a4.7 4.7 0 0 0-2.5-4.17V1h-4.5v2.772a4.7 4.7 0 0 0-2.5 4.17V9a2.97 2.97 0 0 0 .39 1.468l.058.087a1.28 1.28 0 0 1 0 1.563l-.058.087a2.97 2.97 0 0 0-.39 1.468v6.076a3.254 3.254 0 0 0 3.25 3.25h3a3.254 3.254 0 0 0 3.25-3.25v-6.076a2.97 2.97 0 0 0-.39-1.468l-.058-.087a1.28 1.28 0 0 1 0-1.563zM15.25 9a1.5 1.5 0 0 1-.172.688 2.78 2.78 0 0 0 0 3.299 1.5 1.5 0 0 1 .172.688v6.076c0 .965-.785 1.75-1.75 1.75h-3c-.965 0-1.75-.785-1.75-1.75v-6.076a1.5 1.5 0 0 1 .172-.687 2.78 2.78 0 0 0 0-3.299A1.5 1.5 0 0 1 8.75 9V7.942a3.21 3.21 0 0 1 2.028-2.996l.472-.188V2.5h1.5v2.258l.472.188a3.21 3.21 0 0 1 2.028 2.996z"/></svg>