<svg xmlns="http://www.w3.org/2000/svg" fill="#002466" viewBox="0 0 24 24"><path d="M12.75 13.52v-.02c0-1.241-1.01-2.25-2.25-2.25H7.84v2.66c0 1.241 1.01 2.25 2.25 2.25h1.16v3.513h1.5v-1.381h1.16c1.24 0 2.25-1.009 2.25-2.25v-2.66H13.5c-.264 0-.514.054-.75.138m-3.41.391v-1.16h1.16a.75.75 0 0 1 .75.75v1.16h-1.16a.75.75 0 0 1-.75-.75m5.32 2.131a.75.75 0 0 1-.75.75h-1.16v-1.16a.75.75 0 0 1 .75-.75h1.16zM13.633 4.427 16.665 1h-9.33l3.032 3.427C6.876 5.179 4.25 8.287 4.25 12v11h15.5V12c0-3.713-2.626-6.821-6.117-7.573M13.335 2.5 12 4.009 10.665 2.5zm4.915 19H5.75V12c0-2.832 1.894-5.226 4.481-5.991L8.688 7.753l1.123.994L12 6.273l2.188 2.474 1.123-.994-1.543-1.744c2.587.765 4.481 3.159 4.481 5.991z"/></svg>