<svg xmlns="http://www.w3.org/2000/svg" viewBox="0 0 24 24"><path fill="#002466" d="M20.244 4.714V1H3.494v3.72L1.927 23h8.044l1.328-8.884a.723.723 0 0 1 1.426-.022L14.333 23h7.74zm-1.133 3.747A3.485 3.485 0 0 1 16.044 5.5h2.771zM4.994 2.5h13.75V4H4.994zm-.062 3h3.011a3.49 3.49 0 0 1-3.267 2.982zm9.269 8.327A2.22 2.22 0 0 0 12.014 12a2.24 2.24 0 0 0-2.199 1.895L8.678 21.5H3.562l.986-11.505C7.108 9.967 9.19 8.002 9.444 5.5h1.801v2.25h1.5V5.5h1.801a4.98 4.98 0 0 0 4.718 4.477L20.415 21.5h-4.828z"/></svg>