<svg xmlns="http://www.w3.org/2000/svg" fill="#00236a" viewBox="0 0 24 24"><path d="M1 1v22h22V1zm20.5 1.5v6.472h-19V2.5zm-19 7.972h3.625v1.557H5v1.5h3.75v-1.5H7.625v-1.557h3.625V21.5H2.5zM19.137 21.5h-4.023v-5.273h4.023zm1.5 0v-6.773h-7.023V21.5h-.863V10.472h3.625v1.557H15.25v1.5H19v-1.5h-1.125v-1.557H21.5V21.5zM8.559 16.832c.142-.27.221-.573.221-.886a1.91 1.91 0 0 0-1.905-1.907 1.91 1.91 0 0 0-1.906 1.907c0 .312.084.612.226.882a2.4 2.4 0 0 0-.742 1.739c0 1.336 1.087 2.424 2.423 2.424s2.422-1.087 2.422-2.424c0-.681-.284-1.295-.738-1.736zm-2.09-.886c0-.224.183-.407.406-.407s.405.183.405.407a.4.4 0 0 1-.082.23c-.107-.014-.212-.033-.323-.033s-.216.018-.323.033a.4.4 0 0 1-.083-.23m.406 3.545a.925.925 0 0 1 0-1.848.924.924 0 0 1 0 1.848m3-13.518h4.5v1.5h-4.5z"/></svg>