<svg xmlns="http://www.w3.org/2000/svg" fill="#002466" viewBox="0 0 24 24"><path d="M16.075 6.346c.985 0 1.981-.695 1.981-2.024 0-1.137-1.201-2.482-1.442-2.74L16.071 1l-.539.585c-.238.258-1.423 1.602-1.423 2.737 0 1.391 1.019 2.024 1.966 2.024m.004-3.058c.282.405.494.811.494 1.034 0 .13 0 .525-.498.525-.483 0-.483-.382-.483-.525 0-.224.209-.63.487-1.034m6.272 7.982a6.13 6.13 0 0 0-5.535-3.419v-.589h-1.483v.796l-.565.148L1 13.231V23h22v-8.953a6.3 6.3 0 0 0-.649-2.777m-7.079-1.653c.02-.007.041-.009.061-.016v2.658h1.483V9.347a4.65 4.65 0 0 1 4.208 2.594 4.7 4.7 0 0 1 .375 1.067H5.978zm6.244 4.89v3.329c-.594-.044-.93-.231-1.324-.472-.514-.316-1.154-.708-2.339-.708s-1.826.393-2.341.708c-.446.274-.8.491-1.569.491s-1.121-.217-1.567-.491c-.514-.316-1.153-.708-2.337-.708s-1.823.393-2.337.709c-.446.274-.799.49-1.566.49s-1.119-.217-1.565-.49c-.474-.291-1.074-.634-2.09-.688v-2.169h19.034zM2.483 21.501v-3.329c.591.044.927.232 1.319.472.514.316 1.153.708 2.336.708s1.823-.393 2.337-.709c.446-.274.799-.49 1.566-.49s1.12.217 1.566.49c.514.316 1.154.709 2.338.709s1.825-.393 2.339-.708c.448-.274.8-.491 1.571-.491s1.123.217 1.569.491c.475.291 1.077.634 2.093.688v2.169z"/></svg>