<svg xmlns="http://www.w3.org/2000/svg" viewBox="0 0 24 24"><path fill="#002466" d="m10.967 13.62-.353.119v-.004c0-.101-.022-.197-.03-.296h1.029a2.14 2.14 0 0 0 2.138-2.138v-2.05H11.7a2.13 2.13 0 0 0-2.115 1.922 3.72 3.72 0 0 0-2.706-1.176v1.5a2.24 2.24 0 0 1 2.237 2.238v.004l-.379-.126c-.925-.273-2.901-.237-3.766 1.85-.234.565-.321 1.208-.258 1.909l.013.15c.101 1.163.288 3.329 1.789 4.766A2.54 2.54 0 0 0 8.261 23l.094-.002a5.4 5.4 0 0 0 1.043-.154 2 2 0 0 1 .936 0c.374.09.724.142 1.041.154a2.55 2.55 0 0 0 1.841-.71c1.502-1.438 1.69-3.604 1.79-4.768l.013-.148c.063-.702-.024-1.343-.258-1.907-.864-2.087-2.842-2.125-3.793-1.843zm.095-2.231a.64.64 0 0 1 .638-.638h.552v.551a.64.64 0 0 1-.638.638h-.551zm2.448 6c-.089 1.036-.238 2.767-1.333 3.814a1.06 1.06 0 0 1-.745.296 4 4 0 0 1-.752-.114 3.5 3.5 0 0 0-1.634 0 4 4 0 0 1-.753.114 1.02 1.02 0 0 1-.744-.296c-1.093-1.046-1.243-2.777-1.332-3.811l-.014-.156c-.042-.457.009-.86.148-1.198.366-.882 1.029-1.051 1.483-1.051q.229 0 .45.056l.398.133a3.75 3.75 0 0 0 2.359 0l.367-.123c.23-.064 1.424-.32 1.964.984.14.338.19.742.149 1.2l-.014.152zM2.499 19.75v-6.075c0-.24.06-.475.172-.687a2.78 2.78 0 0 0 0-3.299A1.5 1.5 0 0 1 2.499 9V7.942a3.21 3.21 0 0 1 2.028-2.996l.472-.188V2.5h1.499v2.258l.471.188a3.21 3.21 0 0 1 2.028 2.996h1.5a4.7 4.7 0 0 0-2.499-4.17V1.001H3.499v2.771A4.7 4.7 0 0 0 1 7.942V9c0 .515.135 1.02.39 1.468l.058.087a1.28 1.28 0 0 1 0 1.563l-.058.087A2.97 2.97 0 0 0 1 13.674v6.076A3.253 3.253 0 0 0 4.249 23h.75v-1.5h-.75A1.75 1.75 0 0 1 2.5 19.75zM21.786 9.722v-2.72h-6.711v2.766l-.397 2.093 1.472.28.218-1.14h4.134l.983 5.178-.586 5.322h-5.377V23h6.72L23 16.118zm-1.5-.22h-3.712v-1h3.712z"/></svg>