<svg xmlns="http://www.w3.org/2000/svg" viewBox="0 0 24 24"><path fill="#002466" d="M13.89 18.074V16.21c.746-1.242 4.083-6.926 4.083-9.24C17.973 3.567 15.405 1 12 1S6.027 3.567 6.027 6.971c0 2.289 3.34 7.996 4.083 9.239v1.864c0 .228-.447.894-.919 1.368a2.07 2.07 0 0 0-.612 1.473A2.09 2.09 0 0 0 10.665 23c.508 0 .973-.182 1.335-.485.362.303.827.485 1.335.485a2.09 2.09 0 0 0 2.086-2.085 2.07 2.07 0 0 0-.611-1.472c-.473-.475-.92-1.14-.92-1.369M12 2.5c2.592 0 4.473 1.88 4.473 4.471 0 1.464-2.22 5.701-3.758 8.281h-1.429c-1.539-2.59-3.758-6.836-3.758-8.281C7.527 4.38 9.408 2.5 12 2.5m1.335 19a.586.586 0 0 1-.585-.585h-1.5a.586.586 0 0 1-1.171 0 .58.58 0 0 1 .173-.412c.318-.319 1.358-1.436 1.358-2.428v-1.322h.779v1.322c0 .993 1.04 2.11 1.358 2.428a.58.58 0 0 1 .173.412.586.586 0 0 1-.586.585z"/></svg>