<svg xmlns="http://www.w3.org/2000/svg" fill="#002466" viewBox="0 0 24 24"><path d="M8.5 4H4v4.5h4.5zM6.25 7.375a1.125 1.125 0 1 1 0-2.25 1.125 1.125 0 0 1 0 2.25M1 1v16.25h12.25v-1.5H5.5V14h7.75v-1.5H4v3.25H2.5V2.5h19V18H23V1zm7.375 9h1.5v1.5h-1.5zM5.5 10H7v1.5H5.5zM17 10h1.5v1.5H17zm-5.75 0h1.5v1.5h-1.5zm2.875 0h1.5v1.5h-1.5zm.419 5.174a2.93 2.93 0 0 0 2.924 2.924 2.93 2.93 0 0 0 2.924-2.924 2.93 2.93 0 0 0-2.924-2.924 2.93 2.93 0 0 0-2.924 2.924m2.924-1.424c.785 0 1.424.639 1.424 1.424s-.639 1.424-1.424 1.424-1.424-.639-1.424-1.424.639-1.424 1.424-1.424m2.318 5.167h-4.638a3.22 3.22 0 0 0-3.214 3.214V23h1.5v-.87c0-.945.769-1.714 1.714-1.714h4.638c.945 0 1.714.769 1.714 1.714V23H23v-.87a3.22 3.22 0 0 0-3.214-3.214z"/></svg>