<svg xmlns="http://www.w3.org/2000/svg" fill="#002466" viewBox="0 0 24 24"><path d="M12.696 6.925c.327-.225.555-.582.555-1.008a1.25 1.25 0 1 0-2.5 0c0 .426.228.783.555 1.008L4.223 23h15.554zm.562 4.996.894 2.03H9.848l.894-2.03zm-1.857-1.496L12 9.066l.599 1.359zm3.41 5.022.894 2.03h-7.41l.894-2.03zm-7.175 3.526h8.729l1.115 2.531H6.521zm1.383-9.928 1.05-1.069a2.87 2.87 0 0 1-.87-2.065 2.86 2.86 0 0 1 .861-2.056L9.004 2.791a4.35 4.35 0 0 0-1.306 3.12 4.35 4.35 0 0 0 1.32 3.134zm4.934-1.063 1.063 1.056a4.38 4.38 0 0 0 1.289-3.115A4.38 4.38 0 0 0 15 2.793l-1.058 1.061c.557.552.863 1.287.863 2.069s-.303 1.509-.853 2.059zm1.896 1.788 1.064 1.055a6.92 6.92 0 0 0 2.03-4.913 6.92 6.92 0 0 0-2.021-4.903l-1.066 1.052a5.43 5.43 0 0 1 1.587 3.851 5.43 5.43 0 0 1-1.595 3.858zm-7.665.003a5.4 5.4 0 0 1-1.623-3.874 5.4 5.4 0 0 1 1.592-3.843L7.09 1a6.9 6.9 0 0 0-2.029 4.899 6.88 6.88 0 0 0 2.069 4.939z"/></svg>