<svg xmlns="http://www.w3.org/2000/svg" viewBox="0 0 24 24"><path fill="#002466" d="m20.184 13.676-3.22-3.122V1H9.093l.008 2.484H2.57l.04 11.686c.003.757.313 1.498.854 2.033L8.24 21.92A3.93 3.93 0 0 0 10.958 23a3.93 3.93 0 0 0 2.813-1.173c.614-.625.957-1.462 1.014-2.375a3.93 3.93 0 0 0 2.695 1.063 3.93 3.93 0 0 0 2.813-1.173 3.93 3.93 0 0 0 1.136-2.862 3.93 3.93 0 0 0-1.245-2.804m-4.72-11.172v1.602h-4.86l-.005-1.602zm-3.361 12.194-1.065-1.051a1.38 1.38 0 0 1-.405-.968l-.004-1.293a2.6 2.6 0 0 1 1.349 1.261c.328.656.359 1.38.125 2.05zM9.107 4.989l.005 1.603H4.081l-.005-1.603zM4.11 15.165l-.004-1.294c.581.24 1.058.674 1.351 1.263.327.657.358 1.38.124 2.05l-1.064-1.05a1.38 1.38 0 0 1-.407-.969m8.593 5.607a2.453 2.453 0 0 1-3.42.068l-2.556-2.523.007-.015A4.167 4.167 0 0 0 4.1 12.285l-.014-4.188h5.031l.016 4.589c.003.759.313 1.5.853 2.033l2.46 2.429a2.9 2.9 0 0 1 .865 1.99c.014.641-.203 1.221-.608 1.634m6.522-2.485c-.931.948-2.468.972-3.419.068l-2.333-2.303-.035-.04-.003.003-.185-.183.012-.026a4.165 4.165 0 0 0-2.638-6.005l-.014-4.189h4.855v5.582l3.687 3.574c.488.456.765 1.075.778 1.744a2.44 2.44 0 0 1-.704 1.774z"/></svg>