<svg xmlns="http://www.w3.org/2000/svg" fill="#002466" viewBox="0 0 24 24"><path d="M11.383 16.067a2.32 2.32 0 0 0-.001-3.279l-.173-.171a2.32 2.32 0 0 0-3.277 0l-1.26 1.26a2.31 2.31 0 0 0-.374 2.766L1 21.941 2.059 23l5.299-5.299a2.3 2.3 0 0 0 1.127.303 2.3 2.3 0 0 0 1.638-.678l1.26-1.26zm-3.478.2-.174-.173a.82.82 0 0 1 0-1.159l1.26-1.26a.82.82 0 0 1 1.159.002l.173.171a.82.82 0 0 1 0 1.159l-1.26 1.26a.82.82 0 0 1-1.159 0zM1.03 8.989v.749a11 11 0 0 0 2.491 6.967l1.159-.951a9.5 9.5 0 0 1-2.121-5.267h18.914c-.383 4.882-4.478 8.738-9.458 8.738a9.6 9.6 0 0 1-2.092-.231l-.328 1.462c.79.177 1.604.267 2.42.267A11 11 0 0 0 23 9.738v-.749zm5.118-3.994c.207 0 .374.168.374.374v2.122H8.02V5.369c0-1.032-.84-1.872-1.872-1.872a.375.375 0 0 1-.375-.375V1H4.276v2.122c0 1.032.84 1.872 1.872 1.872zm4.744 0c.207 0 .375.168.375.374v2.122h1.498V5.369c0-1.032-.84-1.872-1.872-1.872a.375.375 0 0 1-.375-.375V1H9.019v2.122c0 1.032.84 1.872 1.872 1.872zm4.743 0c.207 0 .375.168.375.374v2.122h1.498V5.369c0-1.032-.84-1.872-1.872-1.872a.375.375 0 0 1-.375-.375V1h-1.498v2.122c0 1.032.84 1.872 1.872 1.872z"/></svg>