<svg xmlns="http://www.w3.org/2000/svg" viewBox="0 0 24 24"><path fill="#002466" d="M18.283 4.512c-.618-1.56-1.637-2.695-2.888-3.211-1.05-.433-2.208-.391-3.364.074-1.167-.467-2.335-.507-3.393-.07-1.254.517-2.275 1.65-2.896 3.205-2.68 1.287-3.935 4.548-2.872 7.484-1.064 2.934.19 6.197 2.872 7.485.62 1.554 1.642 2.688 2.896 3.205a4.2 4.2 0 0 0 1.596.316c.59 0 1.194-.129 1.799-.371A4.8 4.8 0 0 0 13.82 23a4.1 4.1 0 0 0 1.577-.312c1.25-.515 2.268-1.65 2.887-3.21 2.657-1.287 3.903-4.545 2.85-7.482 1.057-2.934-.19-6.198-2.85-7.483zM9.209 21.297c-.873-.36-1.594-1.209-2.061-2.376-.478-1.444.429-2.94 1.458-3.867l-1.004-1.115c-1.18 1.064-1.879 2.348-2.041 3.618-1.307-1.12-1.872-3.04-1.336-4.811h2.028v-1.501H4.225c-.533-1.768.026-3.68 1.323-4.8a3.2 3.2 0 0 0 .549 1.353c.418.582 1.265 1.304 2.927 1.444l.125-1.496c-.877-.074-1.494-.351-1.834-.824-.304-.424-.388-1.042-.236-1.699.464-1.254 1.219-2.154 2.131-2.53a2.7 2.7 0 0 1 1.027-.203q.508 0 1.046.185v18.641c-.733.253-1.429.246-2.074-.018zm9.253-3.75c-.163-1.266-.857-2.546-2.025-3.607l-1.008 1.111c1.02.927 1.919 2.422 1.448 3.867-.466 1.174-1.184 2.024-2.053 2.382q-.952.392-2.041.016V2.673c.721-.249 1.407-.245 2.041.016.907.374 1.658 1.274 2.12 2.531.151.662.068 1.283-.238 1.709-.337.468-.946.743-1.811.816l.127 1.496c1.645-.14 2.485-.858 2.901-1.436a3.2 3.2 0 0 0 .55-1.355c1.282 1.122 1.833 3.03 1.305 4.794h-2.006v1.501h2.006c.529 1.769-.026 3.681-1.315 4.802z"/></svg>