<svg xmlns="http://www.w3.org/2000/svg" viewBox="0 0 24 24"><path fill="#002466" d="M19.337 3.909c-2.36-2.113-5.407-3.082-8.586-2.735-5.091.562-9.265 4.839-9.708 9.949-.49 5.62 3.298 10.681 8.809 11.773v-1.544a9.49 9.49 0 0 1-7.315-10.099c.383-4.411 3.985-8.103 8.378-8.587 2.744-.3 5.382.535 7.421 2.361a9.5 9.5 0 0 1 3.164 7.079 9.48 9.48 0 0 1-6.538 9.029 1.62 1.62 0 0 1-1.469-.242 1.8 1.8 0 0 1-.743-1.449v-2.915a4.13 4.13 0 0 0 3.375-4.049V8.355h-1.534v-2.25h-1.5v2.25h-2.182v-2.25h-1.5v2.25H7.875v4.125a4.125 4.125 0 0 0 3.375 4.049v2.915a3.3 3.3 0 0 0 1.363 2.664c.83.601 1.858.767 2.815.453A10.98 10.98 0 0 0 23 12.105c0-3.124-1.335-6.111-3.663-8.196M9.375 12.48V9.855h5.25v2.625A2.63 2.63 0 0 1 12 15.105a2.63 2.63 0 0 1-2.625-2.625"/></svg>