<svg xmlns="http://www.w3.org/2000/svg" viewBox="0 0 24 24"><path fill="#002466" d="M1 1v22h22V1zm20.5 20.5h-19V8h19zm0-15h-19v-4h19z"/><path fill="#002466" d="M20 9.5H4V20h16zm-1.5 9h-13V11h13z"/><circle cx="5.75" cy="4.5" r=".75" fill="#002466"/><circle cx="8.75" cy="4.5" r=".75" fill="#002466"/><path fill="#002466" d="M15.5 3.75h3v1.5h-3zM12.019 15.555v1.195h1.5v-1.195c0-.837-.682-1.518-1.538-1.536v-1.195h-1.5v1.195c0 .837.682 1.518 1.538 1.536m-3.769 0v1.195h1.5v-1.195c0-.837-.682-1.518-1.536-1.536v-1.195h-1.5v1.195c0 .837.68 1.518 1.536 1.536m7.5 0v1.195h1.5v-1.195c0-.837-.682-1.518-1.536-1.536v-1.195h-1.5v1.195c0 .837.68 1.518 1.536 1.536"/></svg>