<svg xmlns="http://www.w3.org/2000/svg" fill="#002466" viewBox="0 0 24 24"><path d="M9.896 21.5h4.207V23H9.896zM12 4.325a7.2 7.2 0 0 0-7.191 7.191A7.17 7.17 0 0 0 8.72 17.92v2.628h6.562V17.92a7.17 7.17 0 0 0 3.911-6.403A7.2 7.2 0 0 0 12 4.325m2.238 12.427-.457.194v2.102H10.22v-2.102l-.457-.194a5.67 5.67 0 0 1-3.454-5.236A5.7 5.7 0 0 1 12 5.825a5.7 5.7 0 0 1 5.692 5.691 5.67 5.67 0 0 1-3.454 5.236M1.482 10.845h2.041v1.5H1.482zm19.041 0h1.994v1.5h-1.994zM4.089 18.478l1.443-1.443 1.061 1.06-1.443 1.443zM17.553 5.016l1.41-1.41 1.061 1.06-1.41 1.41zM11.329 1h1.5v1.994h-1.5zm6.191 16.984 1.06-1.061 1.443 1.443-1.06 1.061zM4.089 4.555l1.06-1.061 1.41 1.41-1.06 1.061z"/></svg>