<svg xmlns="http://www.w3.org/2000/svg" fill="#002466" viewBox="0 0 24 24"><path d="M9.453 14.86a2.546 2.546 0 0 0 2.542 2.544 2.55 2.55 0 0 0 2.542-2.544 2.55 2.55 0 0 0-2.542-2.544 2.546 2.546 0 0 0-2.542 2.544m2.542-1.044a1.045 1.045 0 0 1 0 2.088 1.045 1.045 0 0 1 0-2.088m1.647 4.341h-3.294a2.704 2.704 0 0 0-2.699 2.702V23h1.499v-2.142c0-.663.539-1.202 1.2-1.202h3.294c.662 0 1.201.539 1.201 1.202V23h1.499v-2.142a2.704 2.704 0 0 0-2.7-2.702zm5.459-8.742h-6.357v1.5h6.357c1.323 0 2.4 1.078 2.4 2.402V15H23v-1.683a3.905 3.905 0 0 0-3.899-3.902m-7.856 0H4.899A3.905 3.905 0 0 0 1 13.317V15h1.499v-1.683a2.404 2.404 0 0 1 2.4-2.402h6.347v-1.5zm3.495-2.036c.57.401 1.26.64 2.008.64s1.438-.24 2.008-.64v1.382h1.499V4.51c0-1.935-1.573-3.51-3.506-3.51s-3.506 1.575-3.506 3.51v4.251h1.499V7.379zM16.748 2.5a2.01 2.01 0 0 1 1.956 1.571c-.917-.045-1.209-.24-1.542-.461a3.65 3.65 0 0 0-1.676-.651 2 2 0 0 1 1.261-.459zm-1.996 1.896c.945.042 1.244.238 1.581.462.516.344 1.028.618 2.122.697a2 2 0 0 1-1.707.964 2.01 2.01 0 0 1-2.008-2.01c0-.039.009-.076.012-.114zM5.208 7.379c.57.401 1.26.64 2.008.64s1.438-.24 2.008-.64v1.382h1.499V4.51C10.722 2.575 9.15 1 7.216 1S3.709 2.575 3.709 4.51v4.251h1.499zM7.216 2.5a2.01 2.01 0 0 1 1.956 1.571c-.917-.045-1.209-.24-1.542-.461a3.65 3.65 0 0 0-1.676-.651A2 2 0 0 1 7.215 2.5zM5.22 4.396c.945.042 1.244.238 1.581.462.516.344 1.028.618 2.122.697a2 2 0 0 1-1.707.964 2.01 2.01 0 0 1-2.008-2.01c0-.039.009-.076.012-.114z"/></svg>