<svg xmlns="http://www.w3.org/2000/svg" viewBox="0 0 24 24"><path fill="#002466" d="M17.25 3a2.753 2.753 0 0 0-2.75 2.75V2.5h.5V1H9v1.5h.5V6H9v1.5h.5v4H9V13h.5v3.5H9V18h.5v3.5H9V23h6v-1.5h-.5V18h.5v-1.5h-.5v-4.004c0 1.241 1.01 2.25 2.25 2.25h2.496V12.25c0-1.241-1.01-2.25-2.25-2.25H14.5V8.996h3.246a2.753 2.753 0 0 0 2.75-2.75V3zM13 21.5h-2V18h2zm0-5h-2V13h2zm0-5h-2v-4h2zM13 6h-2V2.5h2zm3 5.5h.996a.75.75 0 0 1 .75.75v.996h-.996a.75.75 0 0 1-.75-.75zm2.996-5.254a1.25 1.25 0 0 1-1.25 1.25H16V5.75a1.25 1.25 0 0 1 1.25-1.25h1.746z"/></svg>