<svg xmlns="http://www.w3.org/2000/svg" fill="#00236f" viewBox="0 0 24 24"><path d="M20.461 15.033h-7.973a2.54 2.54 0 0 0-2.42-1.783H5.659c-.324 0-.641.061-.942.182l-2.231.896A2.54 2.54 0 0 0 1 16.633v2.183c0 1.19.811 2.206 1.895 2.448l4.736 1.623a2.24 2.24 0 0 0 1.253.06l12.055-2.881A2.54 2.54 0 0 0 23 17.572c0-1.4-1.139-2.539-2.539-2.539m.162 3.567L8.536 21.488a.75.75 0 0 1-.418-.02l-4.814-1.645a1.03 1.03 0 0 1-.804-1.007v-2.183c0-.404.237-.773.574-.926l2.201-.883a1 1 0 0 1 .384-.074h4.409c.569 0 1.033.463 1.033 1.033s-.464 1.033-1.033 1.033H7.989v1.5h2.079c1.136 0 2.1-.751 2.42-1.783h7.973a1.04 1.04 0 0 1 1.039 1.039c0 .498-.354.927-.877 1.028m-8.624-6.039 5.494-5.494a3.49 3.49 0 0 0 0-4.931 3.49 3.49 0 0 0-4.931 0l-.563.563-.572-.572c-1.312-1.311-3.598-1.313-4.911 0a3.5 3.5 0 0 0-.01 4.94zM7.576 3.188a1.96 1.96 0 0 1 2.79 0l1.633 1.633 1.624-1.623a1.99 1.99 0 0 1 2.81 0 1.99 1.99 0 0 1 0 2.81l-4.434 4.433-4.433-4.433a1.996 1.996 0 0 1 .01-2.819z"/></svg>