<svg xmlns="http://www.w3.org/2000/svg" viewBox="0 0 24 24"><path fill="#002466" d="M16.649 6.112c-1.408 0-2.316.167-2.988.347l.793-4.456-4.863 1.051.714 3.397c-.669-.176-1.569-.339-2.956-.339C3.908 6.112 1 9.75 1 14.055c0 5.288 4.862 7.942 7.584 7.942 1.528 0 2.256-.163 2.789-.282.521-.117.734-.117 1.255 0 .533.119 1.261.282 2.789.282 2.722 0 7.584-2.654 7.584-7.942 0-4.305-2.908-7.942-6.351-7.942zm-4.066-2.17-.516 2.899a2 2 0 0 1-.141-.001l-.555-2.636zM2.504 14.055c0-3.432 2.265-6.442 4.847-6.442.1 0 .187.004.281.005-1.568 2.19-2.4 4.525-2.4 6.831 0 2.715.84 4.446 1.569 5.654-1.947-.757-4.297-2.652-4.297-6.048m6.302 6.439.003-.002a18 18 0 0 0-.359-.58c-.724-1.136-1.715-2.693-1.715-5.464 0-2.233.925-4.527 2.66-6.666.472.09.832.202 1.152.303.234.074.461.145.7.198V20.21l-.205.041c-.437.097-1.033.228-2.237.243zm3.946-.284V8.283c.239-.053.467-.124.7-.198a9 9 0 0 1 1.18-.309l.002.002c1.172 1.299 2.63 2.915 2.63 6.276 0 3.221-.986 4.742-1.707 5.852q-.205.313-.367.586l.003.002c-1.204-.015-1.8-.145-2.237-.243l-.205-.041zm4.46-.113c.726-1.195 1.556-2.957 1.556-6.043 0-3.198-1.195-5.114-2.289-6.439l.17-.003c2.582 0 4.847 3.01 4.847 6.442 0 3.389-2.34 5.283-4.284 6.043"/></svg>