<svg xmlns="http://www.w3.org/2000/svg" fill="#002466" viewBox="0 0 24 24"><path d="M13.5 19.75c0 .965-.785 1.75-1.75 1.75h-7.5c-.965 0-1.75-.785-1.75-1.75V4.25c0-.965.785-1.75 1.75-1.75h7.5V1h-7.5A3.254 3.254 0 0 0 1 4.25v15.5A3.254 3.254 0 0 0 4.25 23h7.5A3.254 3.254 0 0 0 15 19.75v-4h-1.5zM6 18h4v1.5H6zM18.677 5.97V2.759c0-.412-.223-.795-.581-1a1.16 1.16 0 0 0-1.162.007l-4.69 2.759H8.591C6.61 4.525 5 6.127 5 8.095c0 1.325.737 2.469 1.818 3.086l1.061 3.877A1.97 1.97 0 0 0 9.777 16.5a2 2 0 0 0 .515-.069c.51-.138.934-.465 1.195-.921a1.94 1.94 0 0 0 .188-1.485l-.648-2.359h1.215l4.69 2.759a1.16 1.16 0 0 0 .587.16q.306 0 .575-.153c.358-.205.581-.588.581-1v-3.211c1.033-.166 1.826-1.052 1.826-2.125s-.793-1.959-1.826-2.125zm-8.491 8.795a.47.47 0 0 1-.285.218.467.467 0 0 1-.574-.323l-.823-3.004c.03.001.057.009.087.009h.88l.757 2.756a.45.45 0 0 1-.043.343zm1.512-4.6H8.591c-1.153 0-2.091-.929-2.091-2.07s.937-2.07 2.091-2.07h3.106v4.14zm5.479 2.662-3.979-2.341V5.704l3.979-2.341zm1.5-4.179V7.543c.191.116.326.315.326.552s-.135.436-.326.553m2.7-1.303H23v1.5h-1.623zm-1.189-2.57 2.026-1.19.76 1.293-2.026 1.19zm0 6.64.76-1.293 2.025 1.191-.76 1.293z"/></svg>