<svg xmlns="http://www.w3.org/2000/svg" fill="#002466" viewBox="0 0 24 24"><path d="M16.283 9.619c.036-.047.124-.129.191-.191.365-.339.977-.908.977-2.181 0-1.985-3.234-3.497-3.951-3.807V1.972h-.75V1h-1.5v.972h-.75V3.44c-.717.31-3.951 1.822-3.951 3.807 0 1.273.611 1.841.977 2.181l.191.191-1.161 8.864a1 1 0 0 0-.007.14A4.376 4.376 0 0 0 10.915 23h2.17a4.376 4.376 0 0 0 4.366-4.377l-.007-.14zm-.332 9.004a2.875 2.875 0 0 1-2.866 2.877h-2.17c-1.58 0-2.866-1.291-2.873-2.822l1.182-9.059c0-.662-.407-1.04-.677-1.291-.289-.269-.498-.463-.498-1.082 0-.703 1.66-1.805 2.934-2.38h2.035c1.273.575 2.934 1.677 2.934 2.38 0 .619-.209.813-.498 1.082-.27.25-.677.629-.67 1.388l1.168 8.906zm-5.81-5.373h3.719v1.5h-3.719zm-.329 3.008h4.377v1.5H9.812z"/></svg>