<svg xmlns="http://www.w3.org/2000/svg" fill="#002466" viewBox="0 0 24 24"><path d="M9.456 1v11.501h1.498V2.5h10.548V18h-9.018v1.5H23V1zM6.368 18.284c1.571 0 2.849-1.279 2.849-2.852S7.939 12.58 6.368 12.58s-2.849 1.28-2.849 2.853 1.278 2.852 2.849 2.852zm0-4.205a1.354 1.354 0 0 1 0 2.705 1.353 1.353 0 0 1 0-2.705m2.239 4.947H4.129A3.134 3.134 0 0 0 1 22.159V23h1.498v-.841c0-.9.731-1.633 1.631-1.633h4.478c.899 0 1.631.732 1.631 1.633V23h1.498v-.841a3.134 3.134 0 0 0-3.129-3.133M15.52 6.209l-3.044 3.048 3.044 3.047 1.059-1.061-1.236-1.237h4.644v-1.5h-4.644l1.235-1.237z"/></svg>