<svg xmlns="http://www.w3.org/2000/svg" viewBox="0 0 24 24"><path fill="#002466" d="M22.987 11.936A10.983 10.983 0 0 0 12 1.472c-5.738 0-10.558 4.479-10.972 10.209l-.027.5-.001.041v2a3.254 3.254 0 0 0 3.25 3.25H5.5v-8.5H4.25a3.2 3.2 0 0 0-1.164.225C4.431 5.557 7.949 2.972 12 2.972a9.49 9.49 0 0 1 8.92 6.227 3.2 3.2 0 0 0-1.17-.227H18.5v8.143a5.2 5.2 0 0 1-4.25 3.857v-.784h-1.5v2.339h.75c3.074 0 5.756-2.143 6.479-5.078 1.683-.12 3.021-1.513 3.021-3.227v-2c0-.098-.013-.286-.013-.286M4 15.955a1.754 1.754 0 0 1-1.5-1.732v-1.977l.003-.056A1.75 1.75 0 0 1 4 10.49zm17.5-1.732c0 .88-.653 1.61-1.5 1.732V10.49c.847.122 1.5.853 1.5 1.732z"/></svg>