<svg xmlns="http://www.w3.org/2000/svg" viewBox="0 0 24 24"><path fill="#002466" d="M23 9.49v-1.5h-7.95V3.68h-1.5v10.282h-.915v-1.214l-2.481-6.276h-5.51v5.668H1v4.795a2.17 2.17 0 0 0 1.758 2.126 1.97 1.97 0 0 0 1.835 1.259c.82 0 1.524-.504 1.821-1.218h.758c.3.714 1.006 1.218 1.828 1.218s1.526-.502 1.827-1.215h1.808V17.89h.915v1.213h1.5V9.49h1.7v.579h-1v7.75h6.5v-7.75h-1V9.49zM9.135 7.972l1.648 4.168H6.144V7.972zM4.593 18.82a.475.475 0 0 1 0-.948.474.474 0 0 1 0 .948m4.407 0a.483.483 0 0 1 0-.964.483.483 0 0 1 0 .964m1.838-1.215c-.292-.731-1.004-1.25-1.838-1.25s-1.544.518-1.837 1.247h-.745a1.975 1.975 0 0 0-1.825-1.229 1.97 1.97 0 0 0-1.771 1.119.66.66 0 0 1-.322-.557V13.64h8.635v3.965zm1.797-1.215v-.929h.915v.929zm8.115-.07h-3.5v-4.75h3.5zm-1-6.25h-1.5v-.58h1.5z"/></svg>