<svg xmlns="http://www.w3.org/2000/svg" viewBox="0 0 24 24"><path fill="#002466" d="M5.008 7.868 1 11.898l4.008 4.03 1.056-1.061-2.954-2.97 2.954-2.97zm13.984 0-1.055 1.06 2.954 2.97-2.954 2.97 1.056 1.061L23 11.899zm-7.966.994q.036.108.15.072l.565-.216V11.7q0 .12.12.12h.806q.12 0 .12-.12V7.8q0-.12-.12-.12h-.578a.4.4 0 0 0-.138.03l-1.045.426q-.106.036-.07.15zm2.913 4.659a.76.76 0 0 0-.298-.189 1.1 1.1 0 0 0-.376-.06 1 1 0 0 0-.328.051q-.138.051-.233.126a.5.5 0 0 0-.151.159 1 1 0 0 0-.08.144h-.03a.77.77 0 0 0-.338-.366 1.1 1.1 0 0 0-.51-.114.8.8 0 0 0-.656.318.7.7 0 0 0-.079.138h-.024a1 1 0 0 0-.064-.144.5.5 0 0 0-.114-.132.62.62 0 0 0-.417-.138l-.293.012-.227.03q-.102.018-.102.126v.498q0 .12.12.12h.178v2.1q0 .12.12.12h.746q.12 0 .119-.12v-1.92a.6.6 0 0 1 .134-.12.36.36 0 0 1 .212-.06q.173 0 .248.093c.075.093.074.161.074.297v1.71q0 .12.12.12h.746q.12 0 .119-.12v-1.932a1 1 0 0 1 .145-.117.35.35 0 0 1 .194-.051q.328 0 .328.39v1.71q0 .12.12.12h.746q.117 0 .118-.12v-1.872q0-.276-.07-.477c-.07-.201-.114-.244-.198-.33z"/></svg>