<svg xmlns="http://www.w3.org/2000/svg" fill="#002466" viewBox="0 0 24 24"><path d="m23 16.4-1.239-2.153-1.699.158-.861-1.63h-2.429l-.779 1.561-.084.07-1.7-.158-1.239 2.151 1.06 1.428.001.07-1.06 1.424 1.238 2.15 1.772-.164.773 1.637h2.462l.742-1.62.03-.017 1.772.164 1.238-2.15-1.061-1.426zm-1.789 3.027-.266.463-1.295-.12-.852.497-.539 1.178h-.545l-.54-1.178-.852-.497-1.295.12-.266-.463.77-1.036-.005-1.065-.766-1.032.267-.465 1.367.126.799-.67.504-1.011h.578l.498 1.002.805.679 1.368-.126.267.463-.77 1.03v1.07l.769 1.034zm-3.225-3.642a2.074 2.074 0 0 0 0 4.15c1.141 0 2.068-.931 2.068-2.075s-.928-2.075-2.068-2.075m0 2.649a.576.576 0 0 1 0-1.15.574.574 0 0 1 0 1.15M9.79 12.337l-1.699.158-.863-1.63H4.801l-.779 1.561-.084.07-1.699-.158L1 14.489l1.059 1.428.001.071-1.059 1.424 1.238 2.15 1.771-.164.773 1.637h2.462l.743-1.62.03-.017 1.772.164 1.238-2.15-1.061-1.426 1.062-1.495-1.239-2.153zm-.55 5.18-.266.463-1.295-.12-.852.498-.54 1.177h-.545l-.54-1.177-.852-.498-1.294.12-.266-.463.769-1.036-.005-1.065-.765-1.032.267-.465 1.366.126.799-.67.504-1.011h.579l.498 1.002.805.679 1.368-.126.267.464-.77 1.03v1.07zm-3.226-3.642c-1.14 0-2.068.931-2.068 2.075s.928 2.075 2.068 2.075a2.075 2.075 0 0 0 0-4.15m0 2.649a.575.575 0 1 1 .003-1.15.575.575 0 0 1-.003 1.15m7.542-3.221a5.995 5.995 0 0 1 5.66-5.984l-1.417 1.422 1.058 1.061 3.239-3.249-3.25-3.258-1.058 1.061 1.459 1.463a7.47 7.47 0 0 0-5.902 3.287c-.765-3.157-3.589-5.512-6.963-5.538l1.446-1.451L6.77 1.056 3.521 4.314 6.76 7.563l1.058-1.061-1.431-1.435a5.75 5.75 0 0 1 5.672 5.747v2.489z"/></svg>