<svg xmlns="http://www.w3.org/2000/svg" fill="#002466" viewBox="0 0 24 24"><path d="M19.519 9.25a2.63 2.63 0 0 0 2.625-2.625A2.63 2.63 0 0 0 19.519 4a2.63 2.63 0 0 0-2.625 2.625 2.63 2.63 0 0 0 2.625 2.625m0-3.75c.62 0 1.125.505 1.125 1.125s-.505 1.125-1.125 1.125-1.125-.505-1.125-1.125.505-1.125 1.125-1.125m1.982 9.784v-.234a2.295 2.295 0 0 0-1.604-2.186 3.32 3.32 0 0 0-3.027-2.654 3.83 3.83 0 0 0-3.567-2.461 3.8 3.8 0 0 0-2.284.771v-.056a3.1 3.1 0 0 0-.654-1.891 3.36 3.36 0 0 0-2.007-1.218V3.903H6.662V2.5h1.015l2.101 1.124.707-1.322L8.053 1H3.769v1.5h1.393v1.403H3.739V5.34a3.4 3.4 0 0 0-2.064 1.235 3.1 3.1 0 0 0-.655 1.891v2.475h1.5V8.466a1.57 1.57 0 0 1 .34-.971 1.91 1.91 0 0 1 1.507-.712h.873v-1.38h1.619v.63l.064.75h.75c.598 0 1.161.267 1.508.712a1.57 1.57 0 0 1 .339.971v2.366h-.325a2.293 2.293 0 0 0-2.291 2.291v.149H5.702a2.5 2.5 0 0 0-.939.181l-2.225.894a2.53 2.53 0 0 0-1.48 2.299v2.175c0 1.188.809 2.2 1.89 2.441l4.72 1.617q.355.12.727.121a2.3 2.3 0 0 0 .522-.062l12.01-2.871a2.536 2.536 0 0 0 2.056-2.487 2.53 2.53 0 0 0-1.479-2.296zM8.403 13.123a.79.79 0 0 1 .791-.791h1.777v-.75a2.334 2.334 0 0 1 2.332-2.332c.877 0 1.634.493 2.032 1.21a3.32 3.32 0 0 0-2.011 3.048h1.5a1.82 1.82 0 0 1 1.818-1.818 1.82 1.82 0 0 1 1.818 1.818v.75h.75a.79.79 0 0 1 .791.789h-7.507a2.52 2.52 0 0 0-2.399-1.775H8.403zm12.206 5.479L8.567 21.479a.74.74 0 0 1-.415-.021L3.356 19.82a1.02 1.02 0 0 1-.799-1v-2.175c0-.401.236-.768.57-.92l2.192-.88a1 1 0 0 1 .382-.073h4.394c.565 0 1.025.46 1.025 1.025a1.03 1.03 0 0 1-1.025 1.026H8.023v1.5h2.072a2.52 2.52 0 0 0 2.399-1.776h7.955c.569 0 1.032.463 1.032 1.032 0 .494-.353.921-.872 1.021z"/></svg>