<svg xmlns="http://www.w3.org/2000/svg" fill="#002466" viewBox="0 0 24 24"><path d="M12 9.375a2.625 2.625 0 1 0 0 5.25 2.625 2.625 0 0 0 0-5.25m0 3.75c-.62 0-1.125-.505-1.125-1.125s.505-1.125 1.125-1.125 1.125.505 1.125 1.125-.505 1.125-1.125 1.125m0-6.875A2.625 2.625 0 1 0 12 1a2.625 2.625 0 0 0 0 5.25m0-3.75c.62 0 1.125.505 1.125 1.125S12.62 4.75 12 4.75s-1.125-.505-1.125-1.125S11.38 2.5 12 2.5m0 15.25A2.625 2.625 0 1 0 12 23a2.625 2.625 0 0 0 0-5.25m0 3.75c-.62 0-1.125-.505-1.125-1.125S11.38 19.25 12 19.25s1.125.505 1.125 1.125S12.62 21.5 12 21.5"/></svg>