<svg xmlns="http://www.w3.org/2000/svg" viewBox="0 0 24 24"><path fill="#002466" d="M18.769 10.222c-.611 0-1.075.044-1.447.08-.572.055-.917.088-1.454-.055-1.756-.468-2.349-1.681-2.922-2.854-.293-.601-.571-1.168-.995-1.593-.693-.692-1.901-.582-2.551-.05-.197.161-.415.41-.689.726-.359.413-.807.926-1.212 1.223-.489.358-1.54.304-2.025.009-.136-.083-.363-.333-.564-.553-.616-.675-1.548-1.692-2.719-1.108-1.001.501-.781 1.714-.636 2.518.044.241.11.605.09.721-.037.194-.107.436-.184.709-.204.721-.458 1.617-.458 2.525v6.165h5.778c.667 0 1.562-.495 2.177-.896.454.429 1.231.896 2.465.896h9.283c1.685 0 2.297-1.605 2.297-2.683.003-2.083.005-3.728-1.044-4.779-.682-.683-1.694-1-3.187-1zm2.125 2.061c.519.52.595 1.593.604 2.968h-4.3V13.68c0-1.056.41-1.653.652-1.917l.919-.04c1.053 0 1.749.183 2.125.561zm-17.992-1.88.214-.838c.073-.382-.005-.812-.088-1.268-.046-.254-.126-.699-.105-.912.212.052.686.571.877.78.295.323.573.628.891.822.944.577 2.653.682 3.692-.079.54-.396 1.049-.979 1.458-1.448l.507-.549c.14-.113.475-.116.543-.05.217.217.415.598.621 1.014L9.906 9.049l.885 1.211 1.43-1.045a7 7 0 0 0 .472.674l-1.421 1.038.885 1.211 1.649-1.205a5.3 5.3 0 0 0 1.675.764 4.5 4.5 0 0 0 .595.116 4.6 4.6 0 0 0-.379 1.867v1.571H2.5V12.52c0-.7.223-1.485.401-2.116zM2.5 17.184v-.434h5.275c-.44.256-.832.434-.997.434zm18.203 0H11.42c-.711 0-1.136-.232-1.377-.434h11.288c-.114.234-.302.434-.629.434z"/></svg>