<svg xmlns="http://www.w3.org/2000/svg" fill="#002466" viewBox="0 0 24 24"><path d="M15.5 1a5.84 5.84 0 0 0-3.907 1.5H2.625v9h2V23h6V11.5h1.265a5.84 5.84 0 0 0 3.61 1.25c3.239 0 5.875-2.636 5.875-5.875S18.739 1 15.5 1M9.125 21.5h-3v-10h3zm-5-11.5V4h6.257a5.83 5.83 0 0 0 .152 6zM15.5 11.25a4.38 4.38 0 0 1-4.375-4.375A4.38 4.38 0 0 1 15.5 2.5a4.38 4.38 0 0 1 4.375 4.375A4.38 4.38 0 0 1 15.5 11.25m0-6.702a2.33 2.33 0 0 0-2.327 2.327A2.33 2.33 0 0 0 15.5 9.202a2.33 2.33 0 0 0 2.327-2.327A2.33 2.33 0 0 0 15.5 4.548m0 3.154a.83.83 0 0 1-.827-.827.83.83 0 0 1 .827-.827.83.83 0 0 1 .827.827.83.83 0 0 1-.827.827"/></svg>