<svg xmlns="http://www.w3.org/2000/svg" fill="#002466" viewBox="0 0 24 24"><path d="M21 4.5H3V6h2v13.75A3.254 3.254 0 0 0 8.25 23h7.5A3.254 3.254 0 0 0 19 19.75V6h2zm-3.5 15.25c0 .965-.785 1.75-1.75 1.75h-7.5c-.965 0-1.75-.785-1.75-1.75V6h11zM10 1h4v1.5h-4zm.889 10.399h-.861a3.02 3.02 0 0 1 1.926-.692 3.05 3.05 0 0 1 3.043 3.043h1.5a4.55 4.55 0 0 0-4.543-4.543 4.52 4.52 0 0 0-2.952 1.095v-.789h-1.5V12.9h3.387v-1.5zm1.157 6.894a4.5 4.5 0 0 0 2.951-1.095v.789h1.5V14.6H13.11v1.5h.861a3.02 3.02 0 0 1-1.926.692 3.05 3.05 0 0 1-3.044-3.043h-1.5a4.55 4.55 0 0 0 4.544 4.543z"/></svg>