<svg xmlns="http://www.w3.org/2000/svg" fill="#002466" viewBox="0 0 24 24"><path d="M21.828 6.54 23 4.968l-1.328-2.312-1.881.175-.143-.121L18.803 1h-2.604l-.854 1.717-.137.115-1.881-.175-1.326 2.31 1.168 1.577v.139l-1.167 1.574 1.325 2.309 1.952-.182.084.048.818 1.79h2.637l.817-1.79.084-.048 1.952.182 1.325-2.309-1.169-1.575V6.54zm-.614 1.823-.356.622-1.477-.138-.903.529-.616 1.347h-.726l-.616-1.347-.903-.529-1.477.138-.356-.622.88-1.185-.008-1.134-.873-1.181.357-.624 1.549.144.85-.716.581-1.167h.759l.572 1.158.859.725 1.549-.145.357.622-.879 1.179v1.14l.878 1.183zM17.5 4.376c-1.226 0-2.223 1.003-2.223 2.235s.997 2.236 2.223 2.236 2.222-1.003 2.222-2.236-.997-2.235-2.222-2.235m0 2.971c-.404 0-.732-.33-.732-.736s.328-.735.732-.735.731.33.731.735-.328.736-.731.736m-2.943 6.578-1.56-2.72-2.43.226-.216-.124-1.021-2.23H6.226l-1.02 2.229-.216.125-2.43-.227L1 13.923l1.451 1.96.001.317-1.451 1.956 1.559 2.716 2.428-.226.22.128L6.226 23H9.33l1.017-2.225.22-.128 2.429.226 1.558-2.716-1.452-1.958v-.32zm-1.784 4.337-.589 1.029-1.953-.182-1.04.609-.816 1.783H7.182l-.816-1.783-1.04-.609-1.952.182-.59-1.029 1.164-1.568-.009-1.312-1.156-1.564.591-1.032 1.95.182 1.037-.601.82-1.79h1.193l.821 1.79 1.035.602 1.952-.182.591 1.031-1.163 1.56v1.318l1.161 1.566zM7.779 13.39c-1.451 0-2.633 1.188-2.633 2.648s1.182 2.648 2.633 2.648 2.632-1.188 2.632-2.648S9.23 13.39 7.779 13.39m0 3.796c-.629 0-1.142-.515-1.142-1.148s.513-1.148 1.142-1.148 1.141.515 1.141 1.148-.512 1.148-1.141 1.148"/></svg>