<svg xmlns="http://www.w3.org/2000/svg" fill="#002466" viewBox="0 0 24 24"><path d="M9.615 15.035a4.62 4.62 0 0 0-4.041-4.048l-.182 1.483a3.125 3.125 0 0 1 2.734 2.739 4.616 4.616 0 0 0 4.041 4.048l.182-1.483a3.12 3.12 0 0 1-2.734-2.739m13.223-5.887c-.383-1.743-1.411-3.528-2.896-5.024C16.737.896 12.531.037 10.366 2.172c-1.409 1.391-1.546 3.659-.59 5.964a10.2 10.2 0 0 0-2.217-.8c-2.13-.487-3.979-.09-5.201 1.115S.72 11.494 1.186 13.623c.44 2.007 1.625 4.062 3.337 5.787s3.761 2.928 5.77 3.387a7.7 7.7 0 0 0 1.71.203c1.403 0 2.609-.449 3.49-1.318 1.224-1.207 1.639-3.044 1.173-5.173-.166-.76-.44-1.527-.809-2.28a8.6 8.6 0 0 0 1.376.447 6.7 6.7 0 0 0 1.494.177c1.233 0 2.295-.396 3.073-1.163 1.077-1.063 1.446-2.676 1.037-4.542zM14.44 20.619c-.845.835-2.196 1.09-3.812.721-1.735-.397-3.525-1.456-5.04-2.982S3.03 15.037 2.65 13.303c-.353-1.611-.083-2.958.762-3.791.593-.585 1.436-.886 2.444-.886a6.2 6.2 0 0 1 1.368.164c1.713.392 3.479 1.431 4.981 2.925l.019.02.055.052c1.507 1.522 2.546 3.31 2.924 5.039.353 1.611.082 2.958-.763 3.792zm6.306-7.992c-.7.69-1.826.902-3.177.592-1.456-.333-2.957-1.22-4.236-2.494l-.058-.055c-2.515-2.545-3.366-5.946-1.856-7.436.501-.493 1.207-.727 2.021-.727 1.652 0 3.743.962 5.436 2.667 1.288 1.297 2.175 2.822 2.497 4.292.296 1.348.073 2.471-.626 3.161zm-3.918-4.784a4.12 4.12 0 0 0-3.608-3.614l-.181 1.483a2.63 2.63 0 0 1 2.301 2.305 4.12 4.12 0 0 0 3.608 3.614l.181-1.483a2.63 2.63 0 0 1-2.301-2.305"/></svg>