<svg xmlns="http://www.w3.org/2000/svg" viewBox="0 0 24 24"><path fill="#002466" d="M19.221 7.031h.029V1h-1.5v4.972a4.8 4.8 0 0 0-2.059-.472H8.309a4.88 4.88 0 0 0-4.875 4.875v.434a4.45 4.45 0 0 0 4.44 4.441 3.55 3.55 0 0 0 1.382-.279L12 16.468l2.743-1.497a3.55 3.55 0 0 0 1.382.279c.573 0 1.117-.118 1.621-.317L17.75 19c0 1.379-1.122 2.5-2.5 2.5s-2.5-1.121-2.5-2.5v-.25h1.251v-1.5H10v1.5h1.25V19c0 2.206 1.794 4 4 4s4-1.794 4-4.001l-.005-5.036a4.43 4.43 0 0 0 1.321-3.154v-.435c0-1.297-.517-2.47-1.345-3.344zm-8.641 6.953a3.54 3.54 0 0 0 .868-2.307.554.554 0 0 1 1.106 0 3.54 3.54 0 0 0 .868 2.307l-1.42.774-1.42-.774zm3.473-2.307c0-1.132-.921-2.053-2.053-2.053s-2.053.921-2.053 2.053c0 1.143-.93 2.072-2.072 2.072a2.945 2.945 0 0 1-2.941-2.941v-.434A3.38 3.38 0 0 1 8.309 7h7.382a3.38 3.38 0 0 1 3.375 3.375v.435a2.944 2.944 0 0 1-2.941 2.94 2.074 2.074 0 0 1-2.072-2.072z"/></svg>