<svg xmlns="http://www.w3.org/2000/svg" viewBox="0 0 24 24"><path fill="#002466" d="M16.256 15.386a5.83 5.83 0 0 0 1.507-4.445l-.104-.678a33 33 0 0 1-.383-5.013V4.5H14.5v-2h2.25V1H13v3.5h-2.312a3.87 3.87 0 0 0-3.813-3.25A3.88 3.88 0 0 0 3 5.125c0 1.99 1.513 3.615 3.446 3.832l-.076.879-.15 1.313a5.74 5.74 0 0 0 1.579 4.294 5.72 5.72 0 0 0 3.451 1.753V21.5h-2V23h5.5v-1.5h-2v-4.305a5.8 5.8 0 0 0 3.506-1.809M4.5 5.125A2.38 2.38 0 0 1 6.875 2.75 2.37 2.37 0 0 1 9.159 4.5H6.635v.75l-.064 2.219A2.37 2.37 0 0 1 4.5 5.125m3.214 6.151.146-1.268L8.128 6H13v3h1.5V6h1.283a35 35 0 0 0 .393 4.491l.099.625a4.24 4.24 0 0 1-1.122 3.253A4.24 4.24 0 0 1 12 15.75a4.25 4.25 0 0 1-3.112-1.338 4.23 4.23 0 0 1-1.174-3.136"/></svg>