<svg xmlns="http://www.w3.org/2000/svg" fill="#002466" viewBox="0 0 24 24"><path d="M3.875 2.125A2.88 2.88 0 0 0 1 5a2.88 2.88 0 0 0 2.875 2.875A2.88 2.88 0 0 0 6.75 5a2.88 2.88 0 0 0-2.875-2.875m0 4.25C3.117 6.375 2.5 5.758 2.5 5s.617-1.375 1.375-1.375S5.25 4.242 5.25 5s-.617 1.375-1.375 1.375M8.5 4.25H23v1.5H8.5zM3.875 9.125A2.88 2.88 0 0 0 1 12a2.88 2.88 0 0 0 2.875 2.875A2.88 2.88 0 0 0 6.75 12a2.88 2.88 0 0 0-2.875-2.875m0 4.25c-.758 0-1.375-.617-1.375-1.375s.617-1.375 1.375-1.375S5.25 11.242 5.25 12s-.617 1.375-1.375 1.375M8.5 11.25H23v1.5H8.5zm-4.625 4.875A2.88 2.88 0 0 0 1 19a2.88 2.88 0 0 0 2.875 2.875A2.88 2.88 0 0 0 6.75 19a2.88 2.88 0 0 0-2.875-2.875m0 4.25c-.758 0-1.375-.617-1.375-1.375s.617-1.375 1.375-1.375S5.25 18.242 5.25 19s-.617 1.375-1.375 1.375M8.5 18.25H23v1.5H8.5z"/></svg>