<svg xmlns="http://www.w3.org/2000/svg" fill="#002466" viewBox="0 0 24 24"><path d="M5.36 13.06v-2.851h.72v2.862h1.5v-4.36H3.86v2.851h-.72V6.091h.994v.987h3.171v-.987h6.076V9.77h1.5V6.091h.625V2.943L1.007 1v5.091h.634v6.97zm.36-6.775a.793.793 0 1 1 0-1.585.793.793 0 0 1 0 1.585M2.507 2.713l11.5 1.541v.338H7.306V3.91H4.135v.682H2.507zM21.64 9.416l1.354-3.068-3.312.544.158.956-5.909 4.618-.787-1.014L3.58 15.73l1.378 1.775 3.333.087.14.181-.745 3.247L9.222 23l6.359-8.406-.732-.944 5.913-4.621zM9.391 20.291l.66-2.876-1.011-1.303-2.499-.066 6.14-2.746 1.012 1.305-4.302 5.685zm.62-5.073 1.185-.919 1.149 1.482-1.185.919z"/></svg>