<svg xmlns="http://www.w3.org/2000/svg" viewBox="0 0 24 24"><path fill="#002466" d="M17.874 14.75h-2.485l-.012-4.527 2.292.603a2.34 2.34 0 0 0 2.646-1.096 2.33 2.33 0 0 0-.458-2.893l-2.983-2.636V1h-.75c-.939 0-1.928.273-2.937.812-2.898 1.547-4.791 4.755-4.821 8.18l.008 4.758h-2.5v3.75h-2.5V23h17v-4.5h-2.5zm-10.5 1.5h2.501l-.01-6.252c.025-2.877 1.606-5.57 4.028-6.863a5.5 5.5 0 0 1 1.48-.556v2.298l3.479 3.073c.29.268.356.693.16 1.035a.84.84 0 0 1-.956.392L13.87 8.276l.021 7.974h2.481v2.25h-9v-2.25zm11.5 5.25h-14V20h14z"/></svg>