<svg xmlns="http://www.w3.org/2000/svg" fill="#002466" viewBox="0 0 24 24"><path d="M12 1a7.51 7.51 0 0 0-7.5 7.5 7.48 7.48 0 0 0 2.509 5.583l.17 5.763a3.24 3.24 0 0 0 .516 1.654H4.25c-.965 0-1.75-.785-1.75-1.75V16.5H1v3.25A3.254 3.254 0 0 0 4.25 23h9.322a3.235 3.235 0 0 0 3.249-3.154l.17-5.763A7.48 7.48 0 0 0 19.5 8.5 7.51 7.51 0 0 0 12 1m3.321 18.801a1.74 1.74 0 0 1-1.749 1.699h-3.145a1.74 1.74 0 0 1-1.749-1.698l-.137-4.653a7.46 7.46 0 0 0 6.917-.001zM12 14.5a6.01 6.01 0 0 1-6-6 6.01 6.01 0 0 1 6-6 6.01 6.01 0 0 1 6 6 6.01 6.01 0 0 1-6 6M9.25 6.25C8.01 6.25 7 7.259 7 8.5s1.01 2.25 2.25 2.25S11.5 9.741 11.5 8.5s-1.01-2.25-2.25-2.25m0 3a.75.75 0 1 1 0-1.5.75.75 0 1 1 0 1.5m5.5-3c-1.24 0-2.25 1.009-2.25 2.25s1.01 2.25 2.25 2.25S17 9.741 17 8.5s-1.01-2.25-2.25-2.25m0 3a.75.75 0 1 1 0-1.5.75.75 0 1 1 0 1.5"/><circle cx="12" cy="12.25" r=".75"/><circle cx="12" cy="4.75" r=".75"/></svg>