<svg xmlns="http://www.w3.org/2000/svg" fill="#002466" viewBox="0 0 24 24"><path d="M16.198 7.099a.56.56 0 0 0-.423.164.6.6 0 0 0-.157.429.55.55 0 0 0 .161.416.57.57 0 0 0 .419.158.6.6 0 0 0 .425-.155.55.55 0 0 0 .161-.418.6.6 0 0 0-.158-.432.57.57 0 0 0-.428-.161zm-.349-.464h.702q.123 0 .136-.129l.09-2.628q.013-.129-.122-.129h-.908q-.136 0-.123.129l.091 2.628q.013.129.135.129zM7.69 11.546a.55.55 0 0 0-.417.162q-.156.163-.156.423c0 .26.053.307.159.411s.244.156.414.156.313-.051.42-.152a.55.55 0 0 0 .159-.414q0-.267-.156-.426c-.156-.159-.245-.159-.423-.159zm.076-3.386q-.53 0-.869.258a1.3 1.3 0 0 0-.468.723q-.038.108.07.159l.534.223q.121.057.172-.077a.7.7 0 0 1 .153-.292q.101-.115.299-.115.146 0 .242.092c.096.092.095.15.095.264a.5.5 0 0 1-.069.264.8.8 0 0 1-.176.197 1 1 0 0 1-.226.146l-.229.105q-.108.038-.095.146l.051.713q.013.121.127.121h.694q.114 0 .127-.121l.031-.535q.159-.083.31-.182a1.1 1.1 0 0 0 .261-.238 1.1 1.1 0 0 0 .178-.325q.067-.185.067-.433 0-.508-.347-.802c-.347-.294-.543-.293-.933-.293zM20.054 1h-7.705a2.2 2.2 0 0 0-2.196 2.196V5.5h-6.22a2.186 2.186 0 0 0-2.184 2.183v5.274c0 1.204.979 2.183 2.184 2.183H6.16l1.586 1.581L9.34 15.14h2.229a2.186 2.186 0 0 0 2.183-2.183v-2.242h.849l1.597 1.593 1.606-1.593h2.252a2.2 2.2 0 0 0 2.196-2.196V3.196A2.2 2.2 0 0 0 20.054 1M12.25 12.957a.685.685 0 0 1-.683.683H8.722l-.975.966-.969-.966H3.933a.685.685 0 0 1-.684-.683V7.683c0-.376.307-.683.684-.683h6.22v1.519c0 1.177.933 2.134 2.098 2.186zm8.5-4.438a.7.7 0 0 1-.696.696h-2.869l-.985.978-.979-.978H12.35a.7.7 0 0 1-.696-.696V3.196a.7.7 0 0 1 .696-.696h7.705a.7.7 0 0 1 .696.696v5.322zm-5.35 8.13h-1.233a.16.16 0 0 0-.184.184v2.283h-2.19v-2.283a.16.16 0 0 0-.185-.184h-1.233a.16.16 0 0 0-.184.184v5.983a.16.16 0 0 0 .184.184h1.233a.16.16 0 0 0 .185-.184v-2.338h2.19v2.338a.16.16 0 0 0 .184.184H15.4a.16.16 0 0 0 .185-.184v-5.983a.16.16 0 0 0-.185-.184m5.541 3.967a2.07 2.07 0 0 0 .792-.736q.295-.47.295-1.132 0-1.058-.682-1.579c-.682-.521-1.12-.52-1.997-.52h-2.521a.16.16 0 0 0-.185.184v.939a.16.16 0 0 0 .185.184h.414v4.86a.16.16 0 0 0 .184.184h1.233a.16.16 0 0 0 .185-.184v-1.877h.579l.967 1.933q.074.129.212.129h1.463q.101 0 .139-.06c.038-.06.019-.093-.019-.161l-1.243-2.163zm-.777-1.091q-.254.235-.777.235h-.543v-1.804h.552q.533 0 .778.221c.245.221.243.371.243.672q0 .442-.253.676"/></svg>