<svg xmlns="http://www.w3.org/2000/svg" fill="#002466" viewBox="0 0 24 24"><path d="m21.439 14.091-.054-.181h.911v-1.5h-1.353l-.314-1.066A2.59 2.59 0 0 0 18.157 9.5h-6.725a2.59 2.59 0 0 0-2.472 1.844l-.314 1.065H7.293v1.5h.911l-.054.181a2.57 2.57 0 0 0-1.561 2.359v1.801c0 .853.424 1.606 1.069 2.073v1.2A1.48 1.48 0 0 0 9.14 23h1.278a1.48 1.48 0 0 0 1.481-1.477v-.705h5.792v.705A1.48 1.48 0 0 0 19.172 23h1.278a1.48 1.48 0 0 0 1.481-1.477v-1.2A2.56 2.56 0 0 0 23 18.25v-1.801a2.57 2.57 0 0 0-1.561-2.359zm-11.035-2.324A1.08 1.08 0 0 1 11.432 11h6.725c.472 0 .895.315 1.028.767l.624 2.114H9.781l.624-2.114zm-1.241 9.756v-.705h1.246l.008.682zm10.033 0v-.705h1.228l.026.682zm2.299-3.273a1.07 1.07 0 0 1-1.072 1.068H9.166a1.07 1.07 0 0 1-1.072-1.068v-1.801a1.07 1.07 0 0 1 1.072-1.068h11.257a1.07 1.07 0 0 1 1.072 1.068z"/><circle cx="19.173" cy="16.977" r=".752"/><circle cx="10.417" cy="16.977" r=".752"/><path d="M12.914 6.75h2.163v-4h-2.163V1H1v7.5h11.914zm0-2.5h.658v1h-.658zM11.409 7H2.505V2.5h8.904zM4.01 3.188h1.505v3.125H4.01z"/></svg>