<svg xmlns="http://www.w3.org/2000/svg" fill="#002466" viewBox="0 0 24 24"><path d="M12.966 5.462h4.235v1.5h-4.235zm0 2.932h4.235v1.5h-4.235zM23 1.716h-3.583V1h-1.5v.716h-2.084V1h-1.5v.716H10.75V11H1v12h12v-7.405h10zM7.5 12.5v2h-1v-2zm4 9h-9v-9H5V16h4v-3.5h1.75v3.095h.75zm10-7.405h-9.25V3.216h2.083v.716h1.5v-.716h2.084v.716h1.5v-.716H21.5zm-8.534-2.769h4.235v1.5h-4.235zm5.701.098h1.303v1.303h-1.303zm0-2.932h1.303v1.303h-1.303zm.458-2.984-.368-.368-1.061 1.061 1.429 1.428 2.026-2.027-1.061-1.061-.966.966z"/></svg>