<svg xmlns="http://www.w3.org/2000/svg" viewBox="0 0 24 24"><path fill="#002466" d="m22.025 17.688-3.563-2.64-.951.962c-.145.144-.322.327-1.459-.389-1.162-.732-2.146-1.852-2.869-3.277L7.804 3.159l-.021-.034c-.464-.704-1.02-1.093-1.65-1.155-.848-.079-1.424.477-1.488.541L2.628 4.547C1.621 5.564 1.045 6.835 1.003 8.123c-.041 1.262.365 2.255.997 2.984v10.18h1.5v-9.091c.344.151.698.27 1.058.331.418.07.999.513 1.594 1.214a9.2 9.2 0 0 1 1.147 1.751l2.457 4.789a3.22 3.22 0 0 0 2.876 1.757h7.959a2.412 2.412 0 0 0 1.434-4.349zm-1.435 2.85h-7.959a1.73 1.73 0 0 1-1.542-.941l-2.457-4.789a10.8 10.8 0 0 0-1.337-2.036c-.856-1.009-1.694-1.589-2.489-1.723-.244-.041-2.383-.471-2.304-2.876.028-.91.452-1.822 1.191-2.57l2.004-2.025c.001-.001.132-.116.265-.116l.026.002c.146.018.345.194.53.472l5.347 9.126c.823 1.627 1.994 2.951 3.386 3.828.698.441 2.154 1.358 3.325.175l.037-.038 2.519 1.866a.92.92 0 0 1 .367.735.91.91 0 0 1-.909.909z"/></svg>