<svg xmlns="http://www.w3.org/2000/svg" fill="#002466" viewBox="0 0 24 24"><path d="M12 1C5.935 1 1 5.935 1 12s4.935 11 11 11 11-4.935 11-11S18.065 1 12 1m0 1.5c3.785 0 7.05 2.231 8.576 5.441l-4.232-.349c-1.005-.997-2.489-1.587-4.123-1.629-1.728-.059-3.409.543-4.551 1.583l-4.242.385C4.956 4.726 8.219 2.5 12 2.5M2.539 12.764a10.78 10.78 0 0 1 7.283 8.474 9.51 9.51 0 0 1-7.283-8.474m8.841 8.704-.055-.352a12.29 12.29 0 0 0-8.784-9.92 9.4 9.4 0 0 1 .306-1.705l5.495-.5.193-.196c.855-.871 2.213-1.363 3.647-1.332 1.338.035 2.523.526 3.25 1.348l.205.227 5.516.456c.151.55.257 1.118.306 1.703a12.29 12.29 0 0 0-8.784 9.92l-.055.352c-.206.013-.411.031-.621.031s-.414-.018-.621-.031zm2.799-.231a10.78 10.78 0 0 1 7.283-8.474 9.51 9.51 0 0 1-7.283 8.474m1.071-9.206c0-1.792-1.458-3.25-3.25-3.25s-3.25 1.458-3.25 3.25 1.458 3.25 3.25 3.25 3.25-1.458 3.25-3.25m-5 0c0-.965.785-1.75 1.75-1.75s1.75.785 1.75 1.75-.785 1.75-1.75 1.75-1.75-.785-1.75-1.75"/></svg>