<svg xmlns="http://www.w3.org/2000/svg" fill="#002466" viewBox="0 0 24 24"><path d="M1 1.494v6.75h.75c1.24 0 2.25 1.009 2.25 2.25s-1.01 2.25-2.25 2.25H1v6.75h10.5v-1.5h-9v-3.825c1.71-.349 3-1.864 3-3.675s-1.29-3.326-3-3.675V2.994h19v9H23v-10.5zm7.5 3H10v12H8.5zm9.564 9.593-.314.314-.322-.322a2.86 2.86 0 0 0-4.038 0 2.87 2.87 0 0 0-.846 2.031 2.84 2.84 0 0 0 .839 2.028l.846.845h-.001l3.522 3.521 4.367-4.367a2.87 2.87 0 0 0 0-4.052c-1.082-1.083-2.971-1.083-4.053 0zm2.992 2.991-3.307 3.307-3.307-3.307c-.258-.258-.399-.601-.399-.965s.146-.712.406-.973.611-.396.959-.396a1.35 1.35 0 0 1 .958.396l1.383 1.383 1.375-1.376a1.37 1.37 0 0 1 1.932 0 1.37 1.37 0 0 1 0 1.931"/></svg>