<svg xmlns="http://www.w3.org/2000/svg" fill="#002466" viewBox="0 0 24 24"><path d="m19.003 3.313-3.075-.732C15.225 1.64 13.756 1 12 1s-3.223.639-3.926 1.578l-3.053.703A3.235 3.235 0 0 0 2.5 6.448V21.5H6V23h12v-1.5h3.5V6.475a3.24 3.24 0 0 0-2.497-3.162M12 2.5c1.355 0 2.332.466 2.708.927L12 4.707l-2.708-1.28C9.668 2.966 10.645 2.5 12 2.5m2.877 2.506v1.06l-1.121-.53zm-5.754 0 1.121.53-1.121.53zM20 20h-2V10h-1.5v11.5h-9V10H6v10H4V6.448a1.74 1.74 0 0 1 1.357-1.705l2.266-.522v4.213L12 6.366l4.377 2.068V4.23l2.278.542A1.744 1.744 0 0 1 20 6.475z"/><circle cx="12" cy="10.5" r=".75"/><circle cx="12" cy="14.5" r=".75"/><circle cx="12" cy="19" r=".75"/></svg>