<svg xmlns="http://www.w3.org/2000/svg" fill="#002466" viewBox="0 0 24 24"><path d="m8.7 5.434 1.06-1.061 2.029 2.029-1.06 1.061zm5.47-2.906h1.5v2.869h-1.5zm3.895 3.84 2.028-2.028 1.061 1.06-2.028 2.028zm2.067 3.441H23v1.5h-2.868zM6.805 13.861a3.28 3.28 0 0 0 3.278-3.278 3.28 3.28 0 0 0-3.278-3.277 3.28 3.28 0 0 0-3.277 3.278 3.28 3.28 0 0 0 3.277 3.278zm0-5.056a1.78 1.78 0 0 1 1.778 1.778 1.78 1.78 0 0 1-1.778 1.778 1.78 1.78 0 0 1-1.777-1.778 1.78 1.78 0 0 1 1.777-1.778m8.139 5.056a3.28 3.28 0 0 0 3.278-3.278 3.28 3.28 0 0 0-3.278-3.278 3.28 3.28 0 0 0-3.277 3.278 3.28 3.28 0 0 0 3.277 3.278m0-5.056a1.78 1.78 0 0 1 1.778 1.778 1.78 1.78 0 0 1-1.778 1.778 1.78 1.78 0 0 1-1.777-1.778 1.78 1.78 0 0 1 1.777-1.778m1.945 6.473H4.861A3.865 3.865 0 0 0 1 19.139v2.333h1.5v-2.333a2.363 2.363 0 0 1 2.361-2.361H8.75a2.363 2.363 0 0 1 2.361 2.361v2.333h1.5v-2.333c0-.893-.317-1.706-.829-2.361h5.106a2.363 2.363 0 0 1 2.361 2.361v2.333h1.5v-2.333a3.865 3.865 0 0 0-3.861-3.861z"/></svg>