<svg xmlns="http://www.w3.org/2000/svg" fill="#002466" viewBox="0 0 24 24"><path d="m13.183 9.729 8.5-8.508 1.062 1.061-8.5 8.508zm2.076-4.134a2.3 2.3 0 0 0 2.295-2.298A2.3 2.3 0 0 0 15.259 1a2.3 2.3 0 0 0-2.296 2.298 2.3 2.3 0 0 0 2.296 2.298zm0-3.094a.797.797 0 0 1 0 1.592.8.8 0 0 1-.796-.796.8.8 0 0 1 .796-.796m5.408 3.913a2.3 2.3 0 0 0-2.295 2.298 2.3 2.3 0 0 0 2.295 2.298 2.3 2.3 0 0 0 2.296-2.298 2.3 2.3 0 0 0-2.296-2.298m0 3.094a.797.797 0 0 1 0-1.592.8.8 0 0 1 .796.796.8.8 0 0 1-.796.796M7.969 20.126V1.169h-1.5v18.958L2.097 15.75l-1.061 1.062L7.219 23l6.184-6.189-1.061-1.062-4.373 4.376z"/></svg>