<svg xmlns="http://www.w3.org/2000/svg" fill="#002466" viewBox="0 0 24 24"><path d="M15.372 1.297c-1.716 0-3.272 1.142-4.53 2.891C9.738 2.176 8.277 1 6.766 1 3.519 1 1 6.284 1 10.83c0 4.011 2.155 6.405 5.766 6.405a7 7 0 0 0 1.236-.107C8.791 20.891 11.377 23 15.372 23 20.219 23 23 19.901 23 14.498c0-6.104-3.333-13.2-7.628-13.2zm0 1.504c2.655 0 5.068 4.386 5.856 8.805H9.516c.788-4.42 3.201-8.805 5.856-8.805M21.5 14.497q-.002 1.287-.234 2.349H9.478a11 11 0 0 1-.234-2.349 15 15 0 0 1 .073-1.387h12.11a15 15 0 0 1 .073 1.387M8.147 10.702H2.505a12 12 0 0 1 .088-1.332h5.875a20 20 0 0 0-.321 1.332M6.766 2.504c1.094 0 2.273 1.21 3.144 3.177a17 17 0 0 0-.965 2.185H2.866c.708-2.93 2.337-5.362 3.9-5.362m0 13.227c-1.702 0-3.69-.651-4.162-3.525h5.287a18 18 0 0 0-.149 2.292c0 .395.019.774.049 1.144q-.484.09-1.026.09zm8.605 5.765c-2.618 0-4.451-1.097-5.394-3.145h10.787c-.943 2.048-2.776 3.145-5.394 3.145z"/><circle cx="15.371" cy="15.059" r=".751"/><circle cx="11.732" cy="15.059" r=".751"/><circle cx="19.011" cy="15.059" r=".751"/></svg>