<svg xmlns="http://www.w3.org/2000/svg" fill="#002466" viewBox="0 0 24 24"><path d="M18.432 19.75c0 .965-.786 1.75-1.751 1.75H5.146a1.753 1.753 0 0 1-1.751-1.75v-9.257h11.614v-1.5H2.867a.367.367 0 0 1 0-.734h12.142v-1.5H4.1c.324-.32.759-.51 1.225-.51h9.685v-1.5H5.324c-1.09 0-2.101.541-2.706 1.447l-.472.708A1.87 1.87 0 0 0 1 8.626a1.86 1.86 0 0 0 .894 1.586v9.538A3.255 3.255 0 0 0 5.146 23H16.68a3.255 3.255 0 0 0 3.252-3.25v-1h-1.501v1zm3.174-9.086V3.601C21.606 2.167 20.439 1 19.004 1s-2.602 1.167-2.602 2.601v7.063a3.97 3.97 0 0 0-1.393 3.027c0 2.197 1.792 3.985 3.995 3.985S23 15.888 23 13.691a3.96 3.96 0 0 0-1.394-3.027m-2.602 5.512a2.493 2.493 0 0 1-2.494-2.485c0-.82.399-1.583 1.066-2.039l.326-.224V3.601c0-.607.494-1.101 1.101-1.101s1.101.494 1.101 1.101v7.829l.327.223a2.46 2.46 0 0 1 1.066 2.039 2.493 2.493 0 0 1-2.495 2.485zm.751-4.188V9.893h-1.501v2.095a1.86 1.86 0 0 0-1.111 1.699c0 1.026.836 1.86 1.862 1.86s1.862-.834 1.862-1.86a1.86 1.86 0 0 0-1.111-1.699zm-.75 2.06a.361.361 0 1 1 0-.721.361.361 0 1 1 0 .721"/></svg>