<svg xmlns="http://www.w3.org/2000/svg" viewBox="0 0 24 24"><path fill="#002466" d="M22.019 17.258c-.648-.648-1.544-.959-2.434-.943l-5.388-5.382 3.873-3.869.373.373 1.766-.321 2.784-3.679-2.352-2.35-3.683 2.781-.32 1.763.373.373-3.873 3.87-3.689-3.685-.061-2.199L6.394 1 5.335 2.058l2.572 2.569.061 2.199 9.958 9.948c-.233.135-.456.289-.651.484s-.354.416-.492.644L6.832 7.961 4.631 7.9 2.059 5.331 1 6.389l2.993 2.989 2.201.061 2.375 2.373-6.749 6.741a2.606 2.606 0 0 0 0 3.683A2.6 2.6 0 0 0 3.664 23a2.6 2.6 0 0 0 1.843-.763l6.749-6.742 4.047 4.043a3.33 3.33 0 0 0 .972 2.458c.633.633 1.476.982 2.372.982s1.739-.349 2.372-.982a3.35 3.35 0 0 0 0-4.738M18.328 4.71l2.177-1.644.507.507-1.645 2.174-.418.076-.696-.696.076-.418zM4.449 21.179a1.14 1.14 0 0 1-1.568 0 1.1 1.1 0 0 1 0-1.567L8.799 13.7l1.568 1.567zm16.511-.241c-.702.7-1.923.7-2.625 0a1.854 1.854 0 0 1 1.313-3.165 1.854 1.854 0 0 1 1.313 3.165z"/></svg>