<svg xmlns="http://www.w3.org/2000/svg" fill="#002466" viewBox="0 0 24 24"><path d="M1 .893V8h1v11h5v-4.5h2V19h3v-1.5h-1.5V13h-5v4.5h-2V8h2v1.99h5V8h10.015v4h1.5V8H23V3.844zM8 8.74a1.25 1.25 0 1 1 0-2.5 1.25 1.25 0 1 1 0 2.5M5.5 4.99V6.5h-3V2.607l19 2.549V6.5h-11V4.99zm12.125 13.281c1.573 0 2.853-1.279 2.853-2.852s-1.279-2.852-2.853-2.852-2.853 1.279-2.853 2.852 1.279 2.852 2.853 2.852m0-4.204a1.353 1.353 0 1 1 0 2.702 1.353 1.353 0 0 1 0-2.702m2.242 4.947h-4.484a3.136 3.136 0 0 0-3.133 3.132v.841h1.5v-.841c0-.9.732-1.632 1.633-1.632h4.484c.9 0 1.633.732 1.633 1.632v.841H23v-.841a3.136 3.136 0 0 0-3.133-3.132"/></svg>