<svg xmlns="http://www.w3.org/2000/svg" fill="#002466" viewBox="0 0 24 24"><path d="M16.342 5.263A4.265 4.265 0 0 0 12.085 1h-.173a4.265 4.265 0 0 0-3.097 7.188l3.184 3.382 3.185-3.382a4.25 4.25 0 0 0 1.159-2.925zm-2.251 1.894L11.999 9.38 9.907 7.158a2.75 2.75 0 0 1-.751-1.894 2.76 2.76 0 0 1 2.757-2.761h.173a2.76 2.76 0 0 1 2.757 2.761 2.75 2.75 0 0 1-.751 1.894zm-2.092.156a1.97 1.97 0 0 0 1.966-1.968 1.97 1.97 0 0 0-1.966-1.968 1.97 1.97 0 0 0-1.965 1.968 1.97 1.97 0 0 0 1.965 1.968m0-2.434a.466.466 0 1 1 0 .933.466.466 0 0 1 0-.933m-.18 8.803-1.036.519a.8.8 0 0 0-.262.218l-.345.455a.75.75 0 0 0-.149.515l.182 1.4a.75.75 0 0 0 .416.557l.84.403a.8.8 0 0 0 .186.061l.342.064.131.446.089 1.042a.75.75 0 0 0 .127.358l.355.524a.74.74 0 0 0 .28.247l.408.208a.74.74 0 0 0 .34.082.75.75 0 0 0 .435-.139l.427-.304a.7.7 0 0 0 .178-.178l.648-.919a.75.75 0 0 0 .128-.313l.192-1.22.025-.612.511-.535a.75.75 0 0 0-.28-1.223l-.538-.201-.073-.174a1 1 0 0 0-.062-.117l-.476-.728a.74.74 0 0 0-.691-.337l-.957.081-.831-.233a.75.75 0 0 0-.538.051zm1.096 1.665a.8.8 0 0 0 .266.025l.646-.055.194.297.174.409a.75.75 0 0 0 .231.299.75.75 0 0 0-.156.429l-.028.805-.156.959-.383.542-.013-.019-.078-.922a1 1 0 0 0-.027-.149l-.282-.959a.75.75 0 0 0-.581-.526l-.696-.131-.399-.192-.08-.607.688-.398.683.191zm3.131-5.851-1.07 1.083c.094.055.177.123.267.183l-.278.161a.74.74 0 0 0-.274.276l-.476.83a.75.75 0 0 0 .482 1.105l.772.178.546 1.151a.75.75 0 0 0 .942.38l.784-.296c.067.355.114.715.114 1.082A5.87 5.87 0 0 1 12 21.498a5.8 5.8 0 0 1-3.348-1.06l.114-.604a1 1 0 0 0 .013-.139v-.392a1 1 0 0 0-.01-.121.75.75 0 0 0 .323-.359l.358-.836a.75.75 0 0 0-.034-.662l-.518-.931a.75.75 0 0 0-.384-.335l-.43-.167a.76.76 0 0 0-.53-.005 1 1 0 0 0 .06-.075l.215-.312a.75.75 0 0 0 .122-.298l.023-.135.778-.251a.75.75 0 0 0 .515-.621l.104-.824a.75.75 0 0 0-.09-.46l-.216-.387a.75.75 0 0 0-.236-.257l-.402-.271-.336-.711a5.7 5.7 0 0 1 .933-.704l-.009-.015L7.95 9.499c-2.043 1.358-3.306 3.667-3.306 6.133C4.644 19.695 7.944 23 12 23s7.356-3.305 7.356-7.368a7.4 7.4 0 0 0-3.31-6.136m1.029 3.701-.405-.855a.75.75 0 0 0-.468-.399l.223-.13a6 6 0 0 1 .85 1.308zm-10.044-.642.128.27a.75.75 0 0 0 .26.302l.425.286.009.015-.014.104-.755.244a.75.75 0 0 0-.51.586l-.073.42-.312.184c.1-.862.394-1.682.843-2.41zm.841 5.3-.124.022a.75.75 0 0 0-.494.321.76.76 0 0 0-.109.58l.041.185a6 6 0 0 1-.703-1.383l.726.061a.77.77 0 0 0 .428-.092l.143-.08.146.263z"/></svg>