<svg xmlns="http://www.w3.org/2000/svg" fill="#002466" viewBox="0 0 24 24"><path d="M5.995 1v22h12V1zm10.5 20.5h-9v-19h9zm-4.5-13.123a2.19 2.19 0 0 0 2.189-2.189A2.19 2.19 0 0 0 11.995 4a2.19 2.19 0 0 0-2.189 2.189 2.19 2.19 0 0 0 2.189 2.189zm0-2.877a.69.69 0 0 1 .689.689.69.69 0 0 1-.689.689.69.69 0 0 1-.689-.689.69.69 0 0 1 .689-.689m0 8.759A2.26 2.26 0 0 0 14.254 12a2.26 2.26 0 0 0-2.259-2.259A2.26 2.26 0 0 0 9.736 12a2.26 2.26 0 0 0 2.259 2.259m0-3.018a.76.76 0 0 1 .759.759.76.76 0 0 1-.759.759.76.76 0 0 1-.759-.759.76.76 0 0 1 .759-.759m0 4.382a2.19 2.19 0 0 0-2.189 2.189A2.19 2.19 0 0 0 11.995 20a2.19 2.19 0 0 0 2.189-2.189 2.19 2.19 0 0 0-2.189-2.189z"/></svg>