<svg xmlns="http://www.w3.org/2000/svg" viewBox="0 0 24 24"><path fill="#002466" d="M20.084 17.102a6.52 6.52 0 0 1-2.271-5.046 6.52 6.52 0 0 1 2.411-4.98l.448-.365-1.757-3.862-1.196.342a1.94 1.94 0 0 1-1.591-.228 1.94 1.94 0 0 1-.888-1.337L15.136 1H8.864l-.104.626a1.94 1.94 0 0 1-.888 1.337 1.95 1.95 0 0 1-1.591.228l-1.196-.342-1.757 3.862.448.365a6.52 6.52 0 0 1 2.411 4.98 6.53 6.53 0 0 1-2.271 5.046l-1.146.987 2.494 3.917.629-.387a4.304 4.304 0 0 1 5.152.501L12 23l.955-.88a4.304 4.304 0 0 1 5.152-.501l.629.387 2.494-3.917zm-1.846 2.894a5.82 5.82 0 0 0-6.238.965 5.8 5.8 0 0 0-3.867-1.471 5.8 5.8 0 0 0-2.371.506l-1.03-1.619.163-.141a8.01 8.01 0 0 0 2.793-6.201 8.02 8.02 0 0 0-2.524-5.737l.752-1.654a3.47 3.47 0 0 0 2.758-.415 3.46 3.46 0 0 0 1.4-1.731h3.854a3.46 3.46 0 0 0 1.4 1.731 3.47 3.47 0 0 0 2.758.415l.752 1.654a8 8 0 0 0-2.524 5.737 8.01 8.01 0 0 0 2.793 6.201l.164.141-1.031 1.618z"/></svg>