<svg xmlns="http://www.w3.org/2000/svg" viewBox="0 0 24 24"><path fill="#002466" d="M4 12.5h4.5V8H4zm1.45-3.043a1.12 1.12 0 0 1 .798-.332 1.13 1.13 0 0 1 1.127 1.125c0 .62-.505 1.125-1.125 1.125a1.127 1.127 0 0 1-.8-1.918M20.25 5H3.75A2.75 2.75 0 0 0 1 7.75v8.5A2.75 2.75 0 0 0 3.75 19h16.5A2.75 2.75 0 0 0 23 16.25v-8.5A2.75 2.75 0 0 0 20.25 5m1.25 11.25c0 .69-.56 1.25-1.25 1.25H3.75c-.69 0-1.25-.56-1.25-1.25v-8.5c0-.69.56-1.25 1.25-1.25h16.5c.69 0 1.25.56 1.25 1.25zm-2.02-6.709a1.36 1.36 0 0 0-1.371.018L15.5 11.124l-2.61-1.566c-.419-.251-.946-.258-1.371-.017s-.69.695-.69 1.185v2.547a1.36 1.36 0 0 0 2.061 1.168l1.156-.694-1.159 2.167 1.322.707 1.279-2.392 1.279 2.392 1.322-.707-1.169-2.187 1.189.714a1.37 1.37 0 0 0 1.371.016c.425-.241.689-.695.689-1.184v-2.547c0-.489-.265-.943-.69-1.185zm-7.151 3.486V10.97l1.713 1.028zm6.342 0-1.713-1.028 1.713-1.028z"/></svg>