<svg xmlns="http://www.w3.org/2000/svg" viewBox="0 0 24 24"><path fill="#002466" d="M19.472 2.216 18.254 1 1 18.25l1.219 1.216C4.499 21.746 7.529 23 10.75 23s6.253-1.255 8.531-3.532l.189-.188v-.001c4.705-4.705 4.705-12.359 0-17.063M16.284 5.09l.007.006c3.063 3.063 3.063 8.047 0 11.11-3.063 3.061-8.047 3.063-11.11 0l-.007-.007zm2.126 13.126-.188.188c-1.996 1.995-4.65 3.094-7.471 3.094s-5.475-1.099-7.47-3.095l-.156-.155.987-.987.006.006a9.33 9.33 0 0 0 6.617 2.736 9.33 9.33 0 0 0 6.618-2.736C21 13.62 21 7.684 17.353 4.036l-.007-.006.908-.908.156.156c4.12 4.118 4.12 10.82 0 14.94"/><path fill="#002466" d="M11.094 14.948a.76.76 0 1 0-1.074-1.074.76.76 0 0 0 1.074 1.074m3.938-3.938a.76.76 0 1 0-1.074-1.074.76.76 0 0 0 1.074 1.074m-.179 3.759a.76.76 0 1 0-1.074-1.074.76.76 0 0 0 1.074 1.074"/></svg>