<svg xmlns="http://www.w3.org/2000/svg" viewBox="0 0 24 24"><path fill="#002466" d="M15.431 5.065h3.319V3.571h-2.271l2.156-1.289L17.864 1 15.01 2.707a2.12 2.12 0 0 0-3.53.864H8.5a3.25 3.25 0 0 0-3.25 3.238v11.956h1.5V6.809A1.75 1.75 0 0 1 8.5 5.065h3.069c.196.43.534.778.953.996H12.5A3.25 3.25 0 0 0 9.25 9.3V23h8.5V9.3a3.25 3.25 0 0 0-3.25-3.238h-.021a2.13 2.13 0 0 0 .953-.996zM13.5 3.571a.624.624 0 1 1 .002 1.248.624.624 0 0 1-.002-1.248m2.75 17.935h-5.5v-1.993h5.5zM14.5 7.556A1.75 1.75 0 0 1 16.25 9.3v8.718h-5.5V9.3a1.75 1.75 0 0 1 1.75-1.744z"/></svg>