<svg xmlns="http://www.w3.org/2000/svg" fill="#002466" viewBox="0 0 24 24"><path d="M11 1v11.563h12V1zm5.437 1.5h1.125v2h-1.125zm5.063 8.563h-9V2.5h2.437V6h4.125V2.5H21.5zm-15-4.087H3.783a9.42 9.42 0 0 1 5.742-4.407V1.003A10.9 10.9 0 0 0 2.5 6.199V2.976H1v5.5h5.5zm11 10.051h2.717a9.42 9.42 0 0 1-5.742 4.406V23a10.9 10.9 0 0 0 7.025-5.196v3.223H23v-5.5h-5.5zM11.125 17a4.255 4.255 0 0 0-4.25-4.25 4.2 4.2 0 0 0-2.423.767L2.405 11.47l-1.06 1.06 2.047 2.047A4.2 4.2 0 0 0 2.625 17a4.255 4.255 0 0 0 4.25 4.25 4.2 4.2 0 0 0 2.423-.767l1.797 1.797 1.061-1.061-1.797-1.797A4.2 4.2 0 0 0 11.125 17m-4.25-2.75A2.75 2.75 0 0 1 9.625 17a2.7 2.7 0 0 1-.358 1.331l-1.894-1.894v-1.195q0-.108-.109-.109h-.525a.3.3 0 0 0-.124.027l-.369.15-.702-.702a2.7 2.7 0 0 1 1.331-.358m0 5.5A2.75 2.75 0 0 1 4.125 17a2.7 2.7 0 0 1 .358-1.331l1.942 1.942v1.148q0 .108.109.108h.73q.109 0 .109-.108v-.201l.834.834a2.7 2.7 0 0 1-1.331.358z"/></svg>