<svg xmlns="http://www.w3.org/2000/svg" viewBox="0 0 24 24"><path fill="#002466" d="M21.951 4.161 20.891 3.1l-2.06 2.059c-.516-.634-2.891-3.347-6.162-3.997C9.04.439 5.663 2.359 5.522 2.441l-.74.428.52.678c.055.072 1.163 1.48 2.978 2.622a10.9 10.9 0 0 0-2.277 2.079c-4.346 5.259-3.955 13.671-3.937 14.027l.035.674.675.036a17 17 0 0 0 .802.017c2.279 0 8.847-.335 13.227-3.953 3.244-2.679 3.874-6.147 3.961-7.975.089-1.855-.302-3.601-1.011-4.715l2.197-2.196zm-8.813 11.121c-2.894 2.893-6.822 4.63-9.036 5.445.815-2.214 2.551-6.142 5.446-9.035 3.943-3.943 7.517-5.004 8.489-4.916.103.998-.96 4.569-4.898 8.506zM7.125 3.335c1.114-.466 3.171-1.116 5.251-.702 1.365.272 2.573 1.003 3.497 1.734a10.6 10.6 0 0 0-1.895-.081 11.4 11.4 0 0 0-4.176 1.017 10.8 10.8 0 0 1-2.676-1.968zm.033 5.866c2.313-2.798 5.31-3.342 6.891-3.417a10 10 0 0 1 .468-.011 9 9 0 0 1 1.004.06c-2.072.775-4.64 2.402-7.034 4.797-2.073 2.072-3.569 4.58-4.594 6.72.412-2.616 1.31-5.782 3.266-8.149zM19.266 11c-.075 1.581-.619 4.578-3.418 6.891-2.679 2.213-6.382 3.074-9.151 3.405 2.288-1.021 5.17-2.624 7.501-4.954 2.014-2.013 3.634-4.299 4.563-6.437.108-.248.244-.585.373-.967.113.601.169 1.296.132 2.063z"/></svg>