<svg xmlns="http://www.w3.org/2000/svg" fill="#002466" viewBox="0 0 24 24"><path d="M23 3.152H1v15h12.25v2.697l3.375-2.291L20 20.848v-2.697h3v-15zm-6.375 4.75A1.88 1.88 0 0 1 18.5 9.777a1.88 1.88 0 0 1-1.875 1.875 1.88 1.88 0 0 1-1.875-1.875 1.88 1.88 0 0 1 1.875-1.875m0 8.844-1.875 1.272V12.58c.537.36 1.181.571 1.875.571s1.338-.211 1.875-.571v5.437zm4.875-.094H20l-.013-7c-.067-1.802-1.544-3.25-3.362-3.25s-3.295 1.448-3.362 3.25l-.013 7H2.5v-12h19zm-17-10.25h7v1.5h-7zm0 3.5h7v1.5h-7zm0 3.5h7v1.5h-7z"/></svg>