<svg xmlns="http://www.w3.org/2000/svg" fill="#002466" viewBox="0 0 24 24"><path d="M7.219 8.023a3.51 3.51 0 0 0 3.507-3.506A3.51 3.51 0 0 0 7.219 1.01a3.51 3.51 0 0 0-3.506 3.507A3.51 3.51 0 0 0 7.22 8.024zm0-5.514a2.01 2.01 0 0 1 2.008 2.008 2.01 2.01 0 0 1-2.008 2.008 2.01 2.01 0 0 1-2.008-2.008 2.01 2.01 0 0 1 2.008-2.008m9.529 5.514a3.51 3.51 0 0 0 3.506-3.506 3.51 3.51 0 0 0-3.506-3.506 3.51 3.51 0 0 0-3.506 3.507 3.51 3.51 0 0 0 3.506 3.507zm0-5.514a2.01 2.01 0 0 1 2.008 2.008 2.01 2.01 0 0 1-2.008 2.008 2.01 2.01 0 0 1-2.008-2.008 2.01 2.01 0 0 1 2.008-2.008m2.353 6.908h-6.357v1.499h6.357c1.323 0 2.4 1.077 2.4 2.4v1.682H23v-1.682a3.903 3.903 0 0 0-3.899-3.899m-7.856 0H4.899A3.903 3.903 0 0 0 1 13.316v1.682h1.499v-1.682c0-1.323 1.077-2.4 2.4-2.4h6.347V9.417zm-1.792 5.441c0 1.402 1.141 2.542 2.542 2.542s2.542-1.141 2.542-2.542-1.141-2.542-2.542-2.542-2.542 1.14-2.542 2.542m2.542-1.043c.575 0 1.043.468 1.043 1.043s-.468 1.043-1.043 1.043-1.043-.468-1.043-1.043.468-1.043 1.043-1.043m1.647 4.336h-3.294a2.7 2.7 0 0 0-2.699 2.699v2.14h1.499v-2.14a1.2 1.2 0 0 1 1.2-1.201h3.294a1.2 1.2 0 0 1 1.201 1.201v2.14h1.499v-2.14a2.703 2.703 0 0 0-2.7-2.699"/></svg>