<svg xmlns="http://www.w3.org/2000/svg" fill="#002466" viewBox="0 0 24 24"><path d="M12 17.981a13.3 13.3 0 0 1-3.928-.594c-2.459-.758-4.699-2.358-6.477-4.628L1 12l.595-.758c1.779-2.27 4.018-3.87 6.477-4.628a13.3 13.3 0 0 1 7.855 0c2.46.758 4.7 2.359 6.478 4.629h.001L23 12l-.594.759c-1.78 2.27-4.02 3.871-6.479 4.628a13.3 13.3 0 0 1-3.927.594M2.916 12c1.565 1.936 3.497 3.299 5.599 3.947a11.8 11.8 0 0 0 6.968 0c2.103-.648 4.035-2.011 5.6-3.947-1.565-1.936-3.497-3.299-5.6-3.947a11.8 11.8 0 0 0-6.968 0C6.413 8.701 4.481 10.064 2.916 12M12 15.013c-1.661 0-3.013-1.351-3.013-3.013S10.339 8.987 12 8.987c1.151 0 2.186.641 2.699 1.673a3 3 0 0 1 .314 1.34A3.016 3.016 0 0 1 12 15.013m0-4.519A1.51 1.51 0 0 0 10.494 12 1.51 1.51 0 0 0 12 13.506 1.51 1.51 0 0 0 13.506 12a1.5 1.5 0 0 0-.156-.668v-.001a1.5 1.5 0 0 0-1.35-.838z"/></svg>