<svg xmlns="http://www.w3.org/2000/svg" viewBox="0 0 24 24"><path fill="#002466" d="M5.445 4.625c.207 0 .375.168.375.375v1.75h1.5V5a1.877 1.877 0 0 0-1.875-1.875.375.375 0 0 1-.375-.375V1h-1.5v1.75c0 1.034.84 1.875 1.875 1.875m4.625 0c.207 0 .375.168.375.375v1.75h1.5V5a1.877 1.877 0 0 0-1.875-1.875.375.375 0 0 1-.375-.375V1h-1.5v1.75c0 1.034.84 1.875 1.875 1.875m4.625 0c.207 0 .375.168.375.375v1.75h1.5V5a1.877 1.877 0 0 0-1.875-1.875.375.375 0 0 1-.375-.375V1h-1.5v1.75c0 1.034.84 1.875 1.875 1.875M18.07 11h-.11V8.5H2.68v11.25A3.254 3.254 0 0 0 5.93 23h8.78a3.254 3.254 0 0 0 3.25-3.25V18.5h.11a3.254 3.254 0 0 0 3.25-3.25v-1A3.254 3.254 0 0 0 18.07 11m-1.61 8.75c0 .965-.786 1.75-1.75 1.75H5.93c-.965 0-1.75-.785-1.75-1.75V10h2.8v2.61l-1.82 2.184V18h5.14v-3.197l-1.82-2.275V10h7.98zm-8.706-5.727L8.8 15.329V16.5H6.66v-1.163zM19.82 15.25c0 .965-.785 1.75-1.75 1.75h-.11v-4.5h.11c.965 0 1.75.785 1.75 1.75z"/></svg>