<svg xmlns="http://www.w3.org/2000/svg" fill="#002466" viewBox="0 0 24 24"><path d="M12.049 1 2.25 10.986V23h19.5V10.988zm8.201 20.505H3.75v-9.91l8.293-8.451 8.207 8.449zM12 10.973l-7.687 2.236 1.682.489v1.827h1.5v-1.391l1.072.312a4.06 4.06 0 0 0-.502 1.936v.303l.211.217c.054.055 1.351 1.364 3.725 1.364s3.671-1.309 3.725-1.364l.211-.217v-.303c0-.693-.186-1.348-.502-1.936l4.254-1.237zm0 1.557 2.334.679-2.334.678-2.334-.678zm2.415 3.52c-.374.269-1.186.721-2.415.721s-2.044-.454-2.415-.72a2.56 2.56 0 0 1 .455-1.176l1.96.57 1.96-.57a2.56 2.56 0 0 1 .455 1.175"/></svg>