<svg xmlns="http://www.w3.org/2000/svg" viewBox="0 0 24 24"><path fill="#002466" d="M16.908 17.966 21.942 23 23 21.942l-5.034-5.034A7.7 7.7 0 0 0 19.729 12v-1.496h-1.496V12a6.2 6.2 0 0 1-1.334 3.841l-.923-.923a4.84 4.84 0 0 0 .904-2.811V5.91c0-2.691-2.188-4.88-4.879-4.88s-4.88 2.189-4.88 4.88v.153L2.058 1 1 2.058l6.121 6.121v3.928A4.884 4.884 0 0 0 12 16.987c1.103 0 2.11-.382 2.928-1.001l.913.913A6.2 6.2 0 0 1 12 18.233 6.24 6.24 0 0 1 5.767 12v-1.496H4.271V12a7.74 7.74 0 0 0 6.981 7.691v1.783H9.008v1.496h5.984v-1.496h-2.244v-1.783a7.7 7.7 0 0 0 4.16-1.725M8.617 5.91A3.39 3.39 0 0 1 12 2.526a3.39 3.39 0 0 1 3.383 3.384v6.197c0 .634-.186 1.221-.49 1.729L8.617 7.559zM12 15.49a3.39 3.39 0 0 1-3.383-3.384V9.674l5.25 5.25A3.36 3.36 0 0 1 12 15.49"/></svg>