<svg xmlns="http://www.w3.org/2000/svg" fill="#002466" viewBox="0 0 24 24"><path d="m7.67 12.7-.42.079.33 1.464.193-.043c3.27-.087 5.816-2.389 6.657-6.025l-1.461-.338c-.695 3.004-2.677 4.822-5.3 4.864zm13.344-9.766c-1.777-1.78-4.363-2.388-6.745-1.588S10.19 4.193 9.834 6.754a3.61 3.61 0 0 1-3.066 3.069c-2.502.348-4.556 2.053-5.359 4.452s-.193 4.999 1.594 6.787A6.65 6.65 0 0 0 7.693 23a7 7 0 0 0 .818-.051A16.64 16.64 0 0 0 22.808 8.968l.06-.395a6.62 6.62 0 0 0-1.854-5.639m.371 5.415-.06.395c-1 6.642-6.348 11.87-13.004 12.715A5.14 5.14 0 0 1 4.062 20c-1.402-1.404-1.863-3.366-1.232-5.248a5.02 5.02 0 0 1 4.145-3.443c2.246-.312 4.033-2.101 4.355-4.418.271-1.954 1.548-3.494 3.415-4.121a5.2 5.2 0 0 1 1.657-.276c1.311 0 2.568.518 3.551 1.501a5.11 5.11 0 0 1 1.432 4.353z"/></svg>