<svg xmlns="http://www.w3.org/2000/svg" viewBox="0 0 24 24"><path fill="#002466" d="m17.4 15.786-.248-.705A18.8 18.8 0 0 1 16.1 8.85c0-1.092-.436-2.08-1.134-2.815a2.246 2.246 0 0 0 2.085-2.233V1H14.25A2.253 2.253 0 0 0 12 3.25v.688C11.001 2.172 9.113 1 7 1v1.5c1.666 0 3.14.987 3.83 2.441A4.11 4.11 0 0 0 7.9 8.886c0 2.114-.354 4.198-1.053 6.193l-.248.707a4.7 4.7 0 0 0-.263 1.55A5.67 5.67 0 0 0 12 23a5.67 5.67 0 0 0 5.663-5.664 4.7 4.7 0 0 0-.263-1.551zM13.5 3.25a.75.75 0 0 1 .75-.75h1.301v1.301a.75.75 0 0 1-.75.75H13.5zM12 21.5a4.17 4.17 0 0 1-4.163-4.164c0-.361.061-.716.179-1.054l.248-.707A20.3 20.3 0 0 0 9.4 8.85c0-1.434 1.166-2.6 2.6-2.6s2.6 1.167 2.6 2.636c0 2.283.383 4.534 1.137 6.69l.248.705c.118.339.179.694.179 1.055A4.17 4.17 0 0 1 12 21.5"/></svg>