<svg xmlns="http://www.w3.org/2000/svg" fill="#002466" viewBox="0 0 24 24"><path d="M11.116 17.455a1.251 1.251 0 1 0 1.769 1.768 1.251 1.251 0 1 0-1.769-1.768M12 4.411A15.46 15.46 0 0 0 1 8.966l1.061 1.061C4.716 7.373 8.245 5.911 12 5.911s7.284 1.461 9.939 4.115L23 8.966a15.46 15.46 0 0 0-11-4.555m-8.422 7.126 1.061 1.061a10.36 10.36 0 0 1 7.373-3.053 10.36 10.36 0 0 1 7.373 3.053l1.061-1.061a11.95 11.95 0 0 0-16.869 0zm2.729 2.74 1.061 1.061a6.54 6.54 0 0 1 9.238 0l1.061-1.061c-3.132-3.131-8.228-3.131-11.361 0z"/></svg>