<svg xmlns="http://www.w3.org/2000/svg" viewBox="0 0 24 24"><path fill="#002466" d="M12 1C5.935 1 1 5.935 1 12s4.935 11 11 11 11-4.935 11-11S18.065 1 12 1m5.804 15.743A7.46 7.46 0 0 0 19.5 12a7.45 7.45 0 0 0-1.429-4.386l1.427-1.427A9.44 9.44 0 0 1 21.5 12a9.45 9.45 0 0 1-2.281 6.159zM6 12a6.01 6.01 0 0 1 6-6 6.01 6.01 0 0 1 6 6 6.01 6.01 0 0 1-6 6 6.01 6.01 0 0 1-6-6m12.486-6.922-1.413 1.413a7.47 7.47 0 0 0-9.816-.295L5.841 4.781A9.45 9.45 0 0 1 12 2.5c2.508 0 4.786.984 6.486 2.578M2.5 12a9.45 9.45 0 0 1 2.281-6.159l1.416 1.416a7.465 7.465 0 0 0 .295 9.816l-1.413 1.413A9.45 9.45 0 0 1 2.5 12m3.688 7.498 1.427-1.427A7.45 7.45 0 0 0 12 19.5c1.798 0 3.45-.637 4.743-1.696l1.416 1.416A9.45 9.45 0 0 1 12 21.5a9.44 9.44 0 0 1-5.812-2.002"/></svg>