<svg xmlns="http://www.w3.org/2000/svg" viewBox="0 0 24 24"><path fill="#002466" d="M22.99 16.428c-.08-1.326-.672-2.483-1.664-3.258l-.319-.256c-.74-.602-1.275-1.037-6.165-3.753l-.494-.274-5.412 5.412.275.495 3.751 6.163.258.321c.775.992 1.933 1.583 3.258 1.664l.317.009c1.563 0 3.21-.689 4.362-1.843 1.231-1.232 1.934-3.025 1.833-4.679zm-8.383-5.681 5.453 3.331.342.273q.338.265.578.619h-9.953l-.231-.412zm5.49 9.299c-.939.937-2.297 1.469-3.528 1.396-.63-.039-1.518-.259-2.168-1.09l-.274-.344c-.426-.524-.783-.966-2.252-3.539h9.614l.005.049c.075 1.238-.46 2.59-1.396 3.527zM12.5 6.551V4.306l.018-.005A3.376 3.376 0 0 0 15 1.051h-1.5c0 .698-.403 1.309-1 1.629V1.051H11v5.5c0 1.654-1.346 3-3 3s-3-1.346-3-3v-5.5H3.5v1.671c-.604-.337-1-.955-1-1.671H1c0 1.53.984 2.854 2.45 3.293l.05.015v2.192c0 2.481 2.019 4.5 4.5 4.5s4.5-2.019 4.5-4.5m-5.375-5.5h1.5v5h-1.5z"/></svg>