<svg xmlns="http://www.w3.org/2000/svg" fill="#002466" viewBox="0 0 24 24"><path d="m17.014 13.518-.396-.495-1.018-1.232c-.995-1.115-2.369-1.715-3.786-1.663-.752.031-1.49.25-2.192.652-.853.489-1.451 1.259-1.977 1.939l-.327.416-.314.379-.736.937c-.942 1.365-1.787 3.372-1.335 4.908.46 1.563 1.813 2.485 3.542 2.384.553-.03 1.036-.18 1.504-.326l.731-.204a6.3 6.3 0 0 1 2.905.075l.476.144c.437.138.888.281 1.433.311l.242.006c1.042 0 1.953-.378 2.582-1.078.685-.761.973-1.84.79-2.96-.219-1.342-.894-2.674-2.125-4.194zm.219 6.152c-.374.415-.929.622-1.626.576-.356-.019-.683-.123-1.062-.243l-.54-.162a7.7 7.7 0 0 0-1.997-.262c-.538 0-1.077.056-1.607.167-.293.062-.58.15-.867.239-.397.124-.773.241-1.138.26-1.026.053-1.757-.409-2.022-1.309-.282-.96.388-2.557 1.13-3.633.202-.292.426-.558.651-.826l.332-.401.345-.439c.463-.598.942-1.215 1.537-1.556a3.3 3.3 0 0 1 1.509-.455c.962-.037 1.909.383 2.604 1.163l.962 1.167.404.506c1.06 1.308 1.635 2.417 1.81 3.491.109.669-.046 1.294-.425 1.716zM8.37 2.256c-.707.046-1.383.425-1.854 1.039-.716.932-.996 2.416-.696 3.692.245 1.043.845 1.845 1.689 2.257.373.182.753.274 1.129.274a2.4 2.4 0 0 0 .987-.218c.802-.365 1.459-1.188 1.717-2.149.29-1.087.063-2.854-.821-3.932-.562-.684-1.31-1.023-2.15-.962H8.37zm.99 1.913c.544.664.717 1.899.531 2.593-.14.522-.497.993-.89 1.172-.262.12-.536.107-.835-.038-.553-.27-.787-.83-.887-1.252-.195-.835-.017-1.859.427-2.437.204-.267.489-.437.761-.455.348-.024.641.109.893.416zm-2.906 7.21A4.02 4.02 0 0 0 5.329 8.46c-.562-.549-1.237-.807-1.98-.742-.902.078-1.674.713-2.068 1.7-.57 1.426-.329 3.346 1.234 4.254a2.6 2.6 0 0 0 1.319.369 2.4 2.4 0 0 0 1.131-.285c.842-.45 1.427-1.383 1.489-2.377m-2.196 1.054c-.309.165-.642.144-.989-.058-.828-.481-.926-1.572-.595-2.401.139-.347.422-.729.804-.762l.084-.003c.26 0 .495.106.719.324.463.453.707 1.247.676 1.752-.03.479-.312.941-.699 1.148M15.63 2.256c-.847-.06-1.589.279-2.15.962-.883 1.078-1.111 2.845-.821 3.932.258.961.915 1.784 1.717 2.149a2.4 2.4 0 0 0 .987.218c.376 0 .756-.091 1.129-.274.844-.412 1.444-1.213 1.689-2.257.3-1.276.02-2.76-.695-3.691-.472-.615-1.148-.994-1.855-1.04zm1.09 4.388c-.1.422-.334.982-.887 1.252-.299.145-.572.158-.835.038-.393-.179-.75-.649-.89-1.172-.186-.694-.013-1.929.531-2.593.233-.284.494-.418.816-.418l.077.002c.272.018.557.188.762.456.442.576.621 1.6.426 2.436zm3.931 1.074c-.739-.064-1.418.194-1.98.742a4.02 4.02 0 0 0-1.124 2.919c.062.994.647 1.927 1.489 2.377a2.4 2.4 0 0 0 1.131.285c.444 0 .896-.124 1.319-.369 1.563-.909 1.804-2.828 1.234-4.254-.394-.987-1.166-1.623-2.068-1.701zm.08 4.658q-.522.306-.989.058c-.388-.207-.669-.668-.699-1.148-.031-.506.213-1.3.676-1.752.224-.218.459-.324.719-.324l.084.003c.382.033.665.416.804.763.331.829.233 1.919-.595 2.401z"/></svg>