<svg xmlns="http://www.w3.org/2000/svg" viewBox="0 0 24 24"><path fill="#002466" d="M12 1C5.935 1 1 5.935 1 12s4.935 11 11 11 11-4.935 11-11S18.065 1 12 1m5.171 18.087 1.533-.365a9.6 9.6 0 0 1-2.354 1.713l.822-1.348zm2.992-2.255-3.18.757-1.683-2.325 1.279-3.937 2.742-.903 2.131 2.485a9.4 9.4 0 0 1-1.289 3.923M6.83 19.091l.819 1.343a9.5 9.5 0 0 1-2.347-1.707zm.185-1.499-3.175-.755a9.4 9.4 0 0 1-1.294-3.964l2.11-2.461 2.763.897 1.285 3.953zM3.636 9.295l-.997 1.163a9.4 9.4 0 0 1 .873-2.696zm6.447 5.353-1.186-3.65 3.105-2.256 3.104 2.256-1.186 3.65zm10.271-5.325.127-1.573a9.4 9.4 0 0 1 .887 2.756zm-1.219-3.57-.261 3.238-2.735.901L12.75 7.43V4.526l2.999-1.25a9.5 9.5 0 0 1 3.386 2.475zM13.422 2.62 12 3.212l-1.422-.593c.465-.07.938-.118 1.422-.118a9.5 9.5 0 0 1 1.422.118zm-5.172.657 2.999 1.25v2.906L7.88 9.879l-2.763-.896-.26-3.224a9.54 9.54 0 0 1 3.392-2.483zM9.911 21.26l-1.69-2.772 1.695-2.339h4.171l1.692 2.337-1.692 2.774a9.5 9.5 0 0 1-2.087.239 9.5 9.5 0 0 1-2.088-.239z"/></svg>