<svg xmlns="http://www.w3.org/2000/svg" fill="#002466" viewBox="0 0 24 24"><path d="M6.092 5.561a2.55 2.55 0 0 0-.772-1.837 2.5 2.5 0 0 0-1.848-.723c-1.271.036-2.354 1.061-2.465 2.353l-.003.04a2.25 2.25 0 0 0 .52 1.557l2.022 2.482L5.59 6.924a2.18 2.18 0 0 0 .503-1.364zm-1.658.415-.889 1.091-.867-1.065a.76.76 0 0 1-.185-.525v-.012a1.08 1.08 0 0 1 1.021-.964c.29.003.559.098.766.3a1.06 1.06 0 0 1 .32.765.67.67 0 0 1-.166.411zm13.075 10.135c1.601 0 2.903-1.31 2.903-2.919s-1.302-2.919-2.903-2.919-2.903 1.31-2.903 2.919 1.302 2.919 2.903 2.919m0-4.338c.778 0 1.411.637 1.411 1.419s-.633 1.419-1.411 1.419-1.411-.637-1.411-1.419.633-1.419 1.411-1.419m2.3 5.152h-4.602a3.204 3.204 0 0 0-3.192 3.208V21h1.492v-.868c0-.942.762-1.708 1.7-1.708h4.602c.936 0 1.699.766 1.699 1.708V21H23v-.868c0-1.769-1.432-3.208-3.191-3.208zm-10.484-1.05v-.75A1.87 1.87 0 0 0 7.46 13.25a.374.374 0 0 1-.373-.375v-1A1.87 1.87 0 0 0 5.222 10H3.606v1.5h1.616c.206 0 .373.168.373.375v1c0 1.034.836 1.875 1.865 1.875.206 0 .373.168.373.375v.75c0 1.034.836 1.875 1.865 1.875h1.616v-1.5H9.698a.374.374 0 0 1-.373-.375"/></svg>