<svg xmlns="http://www.w3.org/2000/svg" viewBox="0 0 24 24"><path fill="#002466" d="M21.499 1.5v1.709c0 4.979-3.861 9.067-8.748 9.451v-1.821c3.881-.378 6.925-3.655 6.925-7.63V1.5h-1.501v1.709c0 3.147-2.372 5.746-5.423 6.118V7.481c2.042-.358 3.601-2.131 3.601-4.272v-1.66H14.85v1.66a2.844 2.844 0 0 1-2.1 2.735V1.549h-1.501v4.395a2.845 2.845 0 0 1-2.1-2.735v-1.66H7.648v1.66c0 2.141 1.56 3.914 3.601 4.272v1.846c-3.051-.372-5.423-2.971-5.423-6.118V1.5H4.325v1.709c0 3.975 3.043 7.252 6.925 7.63v1.821c-4.887-.385-8.748-4.472-8.748-9.451V1.5H1v1.709C1 9.015 5.534 13.772 11.249 14.16V18h-1.001a3.757 3.757 0 0 0-3.754 3.75v.75h11.011v-.75A3.756 3.756 0 0 0 13.751 18H12.75v-3.84C18.466 13.772 23 9.015 23 3.209V1.5zm-7.747 18c.979 0 1.813.627 2.123 1.5h-7.75a2.26 2.26 0 0 1 2.123-1.5z"/></svg>