<svg xmlns="http://www.w3.org/2000/svg" viewBox="0 0 24 24"><path fill="#00236a" d="m20.063 15.641-1.611-.982c-.3-.4-2.755-4.776-4.231-7.44l-.323-.583-.618.253a3.792 3.792 0 0 1-5.228-3.505l.002-.117c.009-.29-.138-.569-.394-.747s-.581-.222-.857-.108l-.153.065c-1.782.77-3.138 1.869-4.019 3.247a5 5 0 0 0-.55 1.04 3.5 3.5 0 0 0-.255 1.305c0 .829.298 1.63.809 2.221.28.369.63.728 1.042 1.066l5.565 4.633 3.127 2.603.078.069c.365.326 1.219 1.09 2.803 1.09h3.493c1.225 0 2.185-.67 2.444-1.706.238-.95-.216-1.918-1.125-2.403zM3.799 9.346a1.96 1.96 0 0 1-.474-1.278c0-.255.048-.504.151-.757.095-.25.226-.5.404-.76.623-.974 1.538-1.777 2.727-2.396a5.3 5.3 0 0 0 5.232 4.516 5.3 5.3 0 0 0 1.373-.18l.258.464-4.664 4.716-4.177-3.474a5 5 0 0 1-.83-.851m6.162 5.289 4.268-4.316.469.837-4.022 4.076-.474-.396-.242-.202zm9.771 3.044c-.069.276-.365.571-.989.571H15.25c-1.012 0-1.526-.461-1.803-.708l-.166-.142-1.449-1.204 3.633-3.681 1.862 3.133c.349.374 1.525 1.039 2.021 1.311.312.167.456.437.384.72"/></svg>