<svg xmlns="http://www.w3.org/2000/svg" fill="#002466" viewBox="0 0 24 24"><path d="M18.415 1.359 18.195 1H5.853l-.22.359a20.36 20.36 0 0 0 0 21.281l.22.359h12.084l.291-.459a19.93 19.93 0 0 0 .187-21.181M6.701 2.5h10.646c.379.654.708 1.325 1.002 2.007H5.696A19 19 0 0 1 6.701 2.5m8.295 3.507v12h-6v-12zm-9.876 12a18.82 18.82 0 0 1-.004-12h2.381v12H5.119zM17.11 21.5H6.701a19 19 0 0 1-.999-1.993h12.464a19 19 0 0 1-1.057 1.993zm-.613-3.493v-12h2.43a18.36 18.36 0 0 1-.143 12h-2.288z"/><circle cx="11.996" cy="12.007" r=".75"/></svg>