<svg xmlns="http://www.w3.org/2000/svg" fill="#002466" viewBox="0 0 24 24"><path d="M18.993 3.875a4 4 0 0 0-2.399-2.602A4 4 0 0 0 15.136 1H8.864c-.501 0-.991.092-1.458.273a4 4 0 0 0-2.399 2.602 4 4 0 0 0 .582 3.49L9.25 12.49v7.76C9.25 21.767 10.483 23 12 23s2.75-1.233 2.75-2.75v-7.76l3.661-5.125a4 4 0 0 0 .582-3.49M17.19 6.493l-3.94 5.517v8.24a1.25 1.25 0 1 1-2.5 0v-8.24L6.81 6.493a2.5 2.5 0 0 1-.365-2.189A2.51 2.51 0 0 1 7.95 2.672c.293-.114.601-.172.915-.172h6.271c.314 0 .622.058.915.172a2.51 2.51 0 0 1 1.505 1.632c.225.752.092 1.55-.365 2.189zM13.575 3.75h-3.15a2.18 2.18 0 0 0-1.459 3.788 2.18 2.18 0 0 0 1.46.562 2 2 0 0 0 .216-.011l1.295-.129a.6.6 0 0 1 .131 0l1.291.129a2.18 2.18 0 0 0 1.676-.551 2.18 2.18 0 0 0-1.459-3.788zm.453 2.676a.7.7 0 0 1-.521.171l-1.287-.129-.221-.011a2 2 0 0 0-.215.011l-1.291.129a.68.68 0 0 1-.521-.171.67.67 0 0 1-.222-.5c0-.373.303-.675.675-.675h3.15c.372 0 .675.303.675.675a.67.67 0 0 1-.222.5"/></svg>