<svg xmlns="http://www.w3.org/2000/svg" fill="#002466" viewBox="0 0 24 24"><path d="M22.05 9.021 15.983 2.94l-9.699 9.721-.019.02L1 17.957l3.097 3.103 5.264-5.276 2.971 2.978a3.22 3.22 0 0 0 2.293.952c.866 0 1.681-.338 2.293-.952l5.133-5.145a3.23 3.23 0 0 0 .95-2.298 3.23 3.23 0 0 0-.95-2.298zM4.097 18.938l-.98-.981 4.206-4.216.98.982zm16.895-6.382-5.133 5.145a1.79 1.79 0 0 1-2.469 0L8.381 12.68l7.602-7.619 5.009 5.02a1.74 1.74 0 0 1 0 2.475m-5.518-5.662a.724.724 0 0 0 0 1.021.72.72 0 0 0 1.019 0 .724.724 0 0 0 0-1.021.72.72 0 0 0-1.019 0"/></svg>