<svg xmlns="http://www.w3.org/2000/svg" fill="#002466" viewBox="0 0 24 24"><path d="M23 6.25v-2A3.254 3.254 0 0 0 19.75 1H4.25A3.254 3.254 0 0 0 1 4.25v2a3.23 3.23 0 0 0 1.199 2.5A3.23 3.23 0 0 0 1 11.25V13a3.23 3.23 0 0 0 1.199 2.5A3.23 3.23 0 0 0 1 18v1.75A3.254 3.254 0 0 0 4.25 23h15.5A3.254 3.254 0 0 0 23 19.75V18a3.23 3.23 0 0 0-1.199-2.5A3.23 3.23 0 0 0 23 13v-1.75a3.23 3.23 0 0 0-1.199-2.5A3.23 3.23 0 0 0 23 6.25M19.75 9.5c.965 0 1.75.785 1.75 1.75V13c0 .965-.785 1.75-1.75 1.75H18v1.5h1.75c.965 0 1.75.785 1.75 1.75v1.75c0 .965-.785 1.75-1.75 1.75H4.25c-.965 0-1.75-.785-1.75-1.75V18c0-.965.785-1.75 1.75-1.75H6v-1.5H4.25c-.965 0-1.75-.785-1.75-1.75v-1.75c0-.965.785-1.75 1.75-1.75H6V8H4.25C3.285 8 2.5 7.215 2.5 6.25v-2c0-.965.785-1.75 1.75-1.75h15.5c.965 0 1.75.785 1.75 1.75v2c0 .965-.785 1.75-1.75 1.75H18v1.5zM9.007 5 7.82 7.542v9.223L9.039 19h5.828l1.313-2.222V7.542L14.993 5zm5.031 1.5.642 1.375v7.542H9.32V8.932h4.696v-1.5h-4.49l.435-.932h4.076zm-4.108 11-.318-.584h4.745l-.344.584z"/></svg>