<svg xmlns="http://www.w3.org/2000/svg" fill="#002466" viewBox="0 0 24 24"><path d="M18.277 4.656c-1.45-2.547-4.088-3.902-7.06-3.618-2.838.269-5.409 2.331-6.253 5.016-.387 1.229-.274 2.289-.27 2.334l1.491-.162a4.8 4.8 0 0 1 .21-1.722c.668-2.125 2.708-3.759 4.963-3.972 2.393-.229 4.447.816 5.614 2.867 1.28 2.248 1.104 5.076-.449 7.206-.402.553-1.045 1.101-1.725 1.682-1.279 1.091-2.601 2.22-2.832 3.777a6 6 0 0 0-.057.676c-.012.281-.022.523-.101.784a2.71 2.71 0 0 1-1.983 1.886c-1.083.272-2.271-.071-3.086-.893-.465-.47-.52-1.193-.537-1.431l-1.496.112c.028.374.113 1.512.969 2.375A4.82 4.82 0 0 0 9.082 23a4.5 4.5 0 0 0 1.108-.136 4.18 4.18 0 0 0 3.056-2.908c.133-.44.149-.818.164-1.152l.041-.52c.148-1.003 1.254-1.946 2.322-2.858.716-.611 1.457-1.244 1.964-1.939 1.899-2.605 2.111-6.072.54-8.831m-6.789 1.146c.872-.208 2.474-.041 2.971 1.902.052.205.105.626.134.931l1.494-.138c-.017-.176-.077-.781-.175-1.164-.652-2.555-2.894-3.437-4.771-2.99-1.94.463-3.682 2.402-3.086 5.086l.189.823.532.06c.282.031 1.694.271 1.694 1.892 0 1.946-1.85 2.007-1.868 2.007v1.5c1.099 0 3.368-.857 3.368-3.507 0-2.058-1.412-2.978-2.486-3.278-.277-1.654.802-2.837 2.004-3.124"/></svg>