<svg xmlns="http://www.w3.org/2000/svg" fill="#002466" viewBox="0 0 24 24"><path d="M23 5.206h-1.053l.722-.725-1.057-1.061-1.78 1.785h-.811v-.813l1.78-1.785-1.057-1.061-.722.725V1h-1.495v1.271l-.722-.725-1.057 1.061 1.78 1.785v.813h-.811l-1.78-1.785-1.057 1.061.722.725h-1.14v1.5h1.14l-.722.725 1.057 1.061 1.78-1.785h.811v.814l-1.78 1.785 1.057 1.061.722-.724V11h1.495V9.641l.722.724 1.057-1.061-1.78-1.785v-.814h.811l1.78 1.785 1.057-1.061-.722-.725H23v-1.5zM18.365 19.75a1.75 1.75 0 0 1-1.744 1.75H5.131a1.75 1.75 0 0 1-1.744-1.75v-9.257h8.579v-1.5H2.86a.366.366 0 0 1 0-.734h9.105v-1.5H4.088c.323-.32.756-.51 1.22-.51h6.658v-1.5H5.308a3.23 3.23 0 0 0-2.696 1.447l-.47.708A1.87 1.87 0 0 0 1 8.626c0 .672.359 1.257.891 1.586v9.538A3.25 3.25 0 0 0 5.131 23h11.49a3.25 3.25 0 0 0 3.24-3.25V12.5h-1.495v7.25z"/></svg>