<svg xmlns="http://www.w3.org/2000/svg" viewBox="0 0 24 24"><path fill="#002466" d="M19.33 13.627c.121-.353.139-.731.022-1.189l-3.78-9.782C15.169 1.604 14.395 1 13.45 1a2.18 2.18 0 0 0-1.448.557A2.18 2.18 0 0 0 10.555 1c-.944 0-1.718.604-2.122 1.655l-3.81 9.878a1.96 1.96 0 0 0 .052 1.094l1.292 3.757c.016.072.043.138.066.207h-.28V23h6v-5.024c.041-.069.095-.127.128-.202l.122-.304.135.336c.03.066.079.117.115.178V23h6v-5.409h-.278l.042-.13zM10.253 21.5h-3v-2.409h3zm1-12.523a2.195 2.195 0 0 0-2.885 2.081v3.035h1.5v-3.035a.694.694 0 0 1 1.385 0v4.12a.7.7 0 0 1-.05.258l-.701 1.75a.69.69 0 0 1-.631.406H8.105c-.326 0-.603-.222-.697-.616l-1.313-3.834c-.027-.079-.032-.163-.041-.163l3.779-9.784c.267-.694.609-.694.722-.694a.7.7 0 0 1 .698.698zm5.5 12.523h-3v-2.409h3zm1.159-8.359-1.335 3.911a.69.69 0 0 1-.675.539h-1.767a.68.68 0 0 1-.617-.375l-.714-1.78a.7.7 0 0 1-.05-.259v-4.12a.693.693 0 0 1 1.385 0v3.035h1.5v-3.035a2.195 2.195 0 0 0-2.885-2.081V3.198a.7.7 0 0 1 .698-.698c.113 0 .456 0 .723.696l3.75 9.688a.46.46 0 0 1-.012.257z"/></svg>