<svg xmlns="http://www.w3.org/2000/svg" fill="#002466" viewBox="0 0 24 24"><path d="M16.871 11.371a2.98 2.98 0 0 0 .879-2.121 2.98 2.98 0 0 0-.879-2.121c-1.133-1.134-3.109-1.134-4.242 0L13.69 8.19a1.54 1.54 0 0 1 2.121 0 1.49 1.49 0 0 1 0 2.121l1.061 1.061zm-6.121-2.78c-2.481 0-4.5 2.019-4.5 4.5s2.019 4.5 4.5 4.5 4.5-2.019 4.5-4.5-2.019-4.5-4.5-4.5m0 7.5c-1.654 0-3-1.346-3-3s1.346-3 3-3 3 1.346 3 3-1.346 3-3 3m.416-5h-.562a.4.4 0 0 0-.133.029l-1.015.412q-.104.034-.069.145l.185.557q.034.105.145.07l.55-.209v2.881q0 .116.116.116h.782q.116 0 .116-.116v-3.768q0-.116-.116-.116zM6 7.25H3.77A9.44 9.44 0 0 1 12 2.5c5.238 0 9.5 4.262 9.5 9.5H23c0-6.065-4.935-11-11-11a10.93 10.93 0 0 0-9.5 5.446V3.75H1v5h5zm12 9.5h2.229A9.44 9.44 0 0 1 12 21.5c-5.238 0-9.5-4.262-9.5-9.5H1c0 6.065 4.935 11 11 11a10.93 10.93 0 0 0 9.5-5.446v2.696H23v-5h-5z"/></svg>