<svg xmlns="http://www.w3.org/2000/svg" viewBox="0 0 24 24"><path fill="#002466" d="M22.991 3.244h-.87L21.73 1h-9.863l-.391 2.244h-.87v3.738h1.129l.874 7.044a33 33 0 0 1-5.865-7.818 2.23 2.23 0 0 0-1.839-1.171 2.18 2.18 0 0 0-1.925.911c-2.901 4.076-2.569 9.737.79 13.457A10.8 10.8 0 0 0 11.811 23c1.806 0 3.63-.454 5.307-1.39a2.17 2.17 0 0 0 1.109-1.79h2.26l1.38-12.837h1.124zm-1.5 2.244h-9.384v-.749h9.384zm-8.362-2.993h7.339l.131.749h-7.601zM8.2 20.739l3.977-5.067a35 35 0 0 0 1.459 1.298l-1.687 4.502a9.5 9.5 0 0 1-3.748-.733zm-5.595-9.877L7.178 9.79q.577.858 1.206 1.68l-5.477 3.405a9.4 9.4 0 0 1-.302-4.012zm1.599-4.05a.68.68 0 0 1 .565-.285l.043.001a.74.74 0 0 1 .613.39 34 34 0 0 0 .89 1.538l-3.331.781a9.1 9.1 0 0 1 1.219-2.426zm.681 11.593a9.2 9.2 0 0 1-1.423-2.113l5.814-3.615 1.791 1.984-4.222 5.378a9.2 9.2 0 0 1-1.96-1.634m11.499 1.901a9.2 9.2 0 0 1-2.772.999l1.252-3.339a34 34 0 0 0 1.546 1.121.74.74 0 0 1 .322.646.68.68 0 0 1-.347.573zm2.754-1.981h-1.392a2.2 2.2 0 0 0-.491-.472 33 33 0 0 1-2.945-2.264h.004l-1.067-8.606h7.111l-1.22 11.343z"/></svg>