<svg xmlns="http://www.w3.org/2000/svg" viewBox="0 0 24 24"><path fill="#002466" d="M21.146 12.729a4.43 4.43 0 0 0-2.923-3.33l-3.595-1.21a3.4 3.4 0 0 0 .584-1.902 3.35 3.35 0 0 0-.401-1.568v-.392A1.83 1.83 0 0 1 16.639 2.5V1c-1.49 0-2.74.991-3.162 2.344a3.36 3.36 0 0 0-1.656-.449c-.48 0-.935.102-1.349.282A3.32 3.32 0 0 0 7.361 1v1.5c.961 0 1.742.747 1.813 1.69a3.36 3.36 0 0 0-.745 2.098c0 .749.25 1.435.662 1.996L5.776 9.399a4.43 4.43 0 0 0-2.923 3.331 4.4 4.4 0 0 0 1.218 3.984 4.4 4.4 0 0 0 3.11 1.285c.078 0 .157-.02.235-.024a4.67 4.67 0 0 0 3.833 3.699V23h1.5v-1.326a4.67 4.67 0 0 0 3.833-3.699l.235.024a4.4 4.4 0 0 0 3.11-1.285 4.4 4.4 0 0 0 1.218-3.984zm-10.217 3.179h2.141a4.43 4.43 0 0 0 1.717 1.592H9.213a4.43 4.43 0 0 0 1.717-1.592zm.632-1.5L12 13.081l.438 1.328zm2.151-8.121c0 1.043-.849 1.892-1.892 1.892S9.929 7.33 9.929 6.287s.849-1.892 1.892-1.892 1.892.849 1.892 1.892zM5.129 15.65a2.87 2.87 0 0 1-.805-2.63 2.92 2.92 0 0 1 1.931-2.199l3.772-1.27a1 1 0 0 1 .303-.05.9.9 0 0 1 .645.271.91.91 0 0 1 .227.946l-1.248 3.779a2.92 2.92 0 0 1-2.188 1.943 2.88 2.88 0 0 1-2.636-.79zM12 20.25A3.16 3.16 0 0 1 9.493 19h5.014A3.16 3.16 0 0 1 12 20.25m6.871-4.6c-.703.7-1.672.984-2.636.79a2.92 2.92 0 0 1-2.188-1.943l-1.248-3.78a.91.91 0 0 1 .227-.946.91.91 0 0 1 .947-.221l3.772 1.27a2.92 2.92 0 0 1 1.931 2.199 2.87 2.87 0 0 1-.805 2.63z"/></svg>