<svg xmlns="http://www.w3.org/2000/svg" viewBox="0 0 24 24"><path fill="#002466" d="m20.245 15.381-1.173-1.173c-.851-.85-2.334-.85-3.181 0l-.898.915c-1.286-.568-2.524-1.427-3.582-2.483-1.057-1.059-1.916-2.297-2.473-3.576l.82-.819c.94-.94.977-2.374.085-3.266L8.67 3.806a2.75 2.75 0 0 0-3.888 0l-.653.65c-.908.91-1.304 2.232-1.057 3.54.55 2.9 2.206 5.853 4.668 8.314s5.415 4.12 8.315 4.668q.384.072.767.072a3.9 3.9 0 0 0 2.772-1.129l.651-.651a2.754 2.754 0 0 0 0-3.889m-1.06 2.828-.652.651c-.557.558-1.385.797-2.2.644-2.606-.493-5.281-2.004-7.532-4.254-2.25-2.251-3.762-4.926-4.254-7.532-.155-.82.085-1.643.641-2.2l.654-.652a1.25 1.25 0 0 1 1.767 0L8.782 6.04c.308.307.272.79-.085 1.146l-.82.819a1.51 1.51 0 0 0-.321 1.66c.64 1.452 1.607 2.848 2.795 4.036 1.187 1.186 2.583 2.153 4.037 2.795a1.505 1.505 0 0 0 1.66-.322l.904-.904a.767.767 0 0 1 1.06 0l1.173 1.172a1.254 1.254 0 0 1 0 1.768"/></svg>