<svg xmlns="http://www.w3.org/2000/svg" fill="#002466" viewBox="0 0 24 24"><path d="M2.5 2.5h13.47v9h1.5V1H1v22h9.969v-1.5H2.5zm1.944 2.75h9.65v1.5h-9.65zm17.207 11.273v-1.584l-1.786-1.19-1.842-.642-3.24.848.051.66-1.006-.036-1.527 1.526.533 1.596-1.036 2.071 1.967 2.622 1.451-.063 1.449.659.897-.75.15.096 2.81.562 1.612-.807V19.44L23 18.167zm-1.017 2.455v2.186l-.322.161-2.029-.406-.842-.537-1.014.85-.915-.416-1.022.044-.936-1.247.9-1.798-.436-1.306.409-.409 2.032.072-.084-1.084 1.597-.417 1.145.381 1.033.689v1.318l.978 1.192z"/></svg>