<svg xmlns="http://www.w3.org/2000/svg" viewBox="0 0 24 24"><path fill="#002466" d="M22.661 11.243c.637-1.305.36-2.787-.702-3.776s-2.563-1.158-3.817-.43l-2.806 1.626 1.626-2.806c.729-1.256.56-2.754-.43-3.817S14.06.702 12.757 1.338a1.72 1.72 0 0 1-1.514 0 3.17 3.17 0 0 0-3.777.702 3.17 3.17 0 0 0-.429 3.817l1.626 2.806-2.806-1.626c-1.256-.729-2.754-.56-3.817.43a3.17 3.17 0 0 0-.702 3.777 1.72 1.72 0 0 1 0 1.513c-.637 1.305-.36 2.787.702 3.776a3.2 3.2 0 0 0 2.184.879c.554 0 1.114-.148 1.633-.449l2.805-1.626-1.625 2.805c-.729 1.256-.56 2.754.429 3.817C8.102 22.642 8.941 23 9.805 23a3.3 3.3 0 0 0 1.437-.338 1.72 1.72 0 0 1 1.514 0c1.306.636 2.787.361 3.776-.702a3.17 3.17 0 0 0 .431-3.818l-1.627-2.806 2.806 1.627a3.25 3.25 0 0 0 1.633.448c.786 0 1.56-.298 2.184-.878 1.063-.989 1.339-2.472.702-3.777a1.72 1.72 0 0 1 0-1.513M8.565 3.063A1.72 1.72 0 0 1 9.812 2.5c.243 0 .504.056.774.188a3.21 3.21 0 0 0 2.827 0c.848-.413 1.6-.076 2.021.376s.703 1.227.23 2.043l-2.93 5.055c-.303.523-1.168.522-1.471 0l-2.93-5.055c-.473-.816-.191-1.591.23-2.043zM5.106 15.665c-.817.473-1.591.191-2.042-.23s-.79-1.173-.377-2.021a3.2 3.2 0 0 0 0-2.828c-.413-.848-.076-1.6.377-2.021a1.74 1.74 0 0 1 1.171-.476c.275 0 .57.072.871.246l5.055 2.93a.85.85 0 0 1 0 1.47zm10.328 5.272c-.421.453-1.173.789-2.021.375a3.21 3.21 0 0 0-2.828 0c-.845.414-1.598.078-2.02-.376s-.703-1.227-.23-2.043l2.93-5.055a.85.85 0 0 1 .735-.423.85.85 0 0 1 .734.423l2.93 5.055c.473.816.191 1.591-.23 2.044m5.88-7.524c.413.848.076 1.6-.377 2.021s-1.226.702-2.042.23l-5.056-2.931a.85.85 0 0 1 .001-1.469l5.055-2.93c.301-.174.596-.246.871-.246.472 0 .886.21 1.171.476.453.421.79 1.173.377 2.021a3.2 3.2 0 0 0 0 2.828"/></svg>