<svg xmlns="http://www.w3.org/2000/svg" viewBox="0 0 24 24"><path fill="#002466" d="M4.756 16.673c0-.885.244-1.753.698-2.5L8.714 9h7.638l1.392 2.21h1.773L18.126 9h.46V5h-1.258l.315-.559a2.29 2.29 0 0 0-.017-2.296A2.29 2.29 0 0 0 15.633 1H9.426c-.854 0-1.61.447-2.021 1.196a2.28 2.28 0 0 0 .074 2.348l.29.456H6.474v4h.466l-2.762 4.384a6.3 6.3 0 0 0-.922 3.29A6.333 6.333 0 0 0 9.583 23h2.891v-1.5H9.583a4.83 4.83 0 0 1-4.827-4.827M8.72 2.918a.79.79 0 0 1 .707-.418h6.207c.42 0 .627.28.698.4.07.121.212.44.005.804L15.604 5H9.546l-.801-1.26a.79.79 0 0 1-.026-.822M7.974 6.5h9.111v1h-9.11z"/><path fill="#002466" d="M19.718 13.538Q18.955 13 17.824 13q-1.44 0-2.397.937-.958.937-1.224 2.641h-.894a.24.24 0 0 0-.174.063.24.24 0 0 0-.063.174v.545q0 .112.063.175t.174.063h.796a1 1 0 0 0-.013.147v.622h-.783a.24.24 0 0 0-.174.062.24.24 0 0 0-.063.175v.56q0 .11.063.175.063.062.174.062h.881q.25 1.761 1.202 2.67.95.908 2.544.908.713 0 1.313-.195c.6-.195.756-.322 1.063-.573a.33.33 0 0 0 .09-.147.26.26 0 0 0-.02-.175l-.475-1.02q-.056-.113-.14-.133t-.182.05q-.364.264-.685.37a2.2 2.2 0 0 1-.685.104q-.852 0-1.349-.455-.494-.453-.692-1.404h2.712a.24.24 0 0 0 .175-.062.24.24 0 0 0 .063-.175v-.56a.24.24 0 0 0-.063-.175.24.24 0 0 0-.175-.062h-2.823a1 1 0 0 1-.014-.16v-.609h2.837a.24.24 0 0 0 .175-.063.24.24 0 0 0 .063-.175v-.545a.24.24 0 0 0-.063-.174.24.24 0 0 0-.175-.063h-2.74q.169-.951.581-1.425a1.35 1.35 0 0 1 1.069-.476q.502 0 .825.224.321.224.489.684.041.127.119.162.076.034.202-.022l1.16-.42a.2.2 0 0 0 .134-.104.25.25 0 0 0 .006-.174q-.252-.95-1.013-1.489"/></svg>