<svg xmlns="http://www.w3.org/2000/svg" viewBox="0 0 24 24"><path fill="#002466" d="M15.5 2.5V1H14v1.5h-4V1H8.5v1.5H3V23h18V2.5zM8.5 4v1.5H10V4h4v1.5h1.5V4h4v4h-15V4zm-4 17.5v-12h15v12zm5.725-9.457q.04.04.04.113v5.904q0 .072-.04.113a.16.16 0 0 1-.114.04h-.935a.15.15 0 0 1-.113-.04q-.04-.04-.04-.113v-4.806l-.955.36a.14.14 0 0 1-.117.004q-.053-.021-.08-.095l-.225-.666a.18.18 0 0 1 .004-.12.15.15 0 0 1 .086-.077l1.52-.62a.3.3 0 0 1 .082-.028.5.5 0 0 1 .09-.01h.683q.074.001.114.041m5.34 3.66h-.575v-3.547a.15.15 0 0 0-.04-.113.16.16 0 0 0-.114-.04h-.846q-.063 0-.103.022a.2.2 0 0 0-.076.077l-2.52 3.636q-.028.036-.041.085a.3.3 0 0 0-.014.095v.612q0 .072.041.113.042.04.113.04h2.43v1.377q0 .072.04.113.04.04.113.04h.863a.16.16 0 0 0 .113-.04.15.15 0 0 0 .041-.113v-1.377h.575a.16.16 0 0 0 .113-.04.15.15 0 0 0 .04-.113v-.676a.15.15 0 0 0-.04-.112.16.16 0 0 0-.113-.04m-1.746 0h-1.377l1.351-2.054h.026z"/></svg>