<svg xmlns="http://www.w3.org/2000/svg" viewBox="0 0 24 24"><path fill="#002466" d="M5.303 11.97c.462.28.998.45 1.576.45s1.113-.17 1.575-.45v.956h1.5V9.343A3.08 3.08 0 0 0 6.88 6.267a3.08 3.08 0 0 0-3.076 3.076v3.583h1.5zm2.97-3.345c-.535-.055-.739-.19-.98-.35a3.3 3.3 0 0 0-.863-.435c.143-.043.292-.073.449-.073a1.57 1.57 0 0 1 1.394.858m-2.952.537c.655.044.878.187 1.14.362.44.292.877.526 1.777.601a1.57 1.57 0 0 1-1.36.794 1.58 1.58 0 0 1-1.575-1.576c0-.062.011-.121.018-.181m10.232 2.808c.462.28.998.45 1.576.45s1.113-.17 1.575-.45v.956h1.5V9.343a3.08 3.08 0 0 0-3.075-3.076 3.08 3.08 0 0 0-3.076 3.076v3.583h1.5zm2.97-3.345c-.535-.055-.739-.19-.98-.35a3.3 3.3 0 0 0-.863-.435c.143-.043.292-.073.449-.073a1.57 1.57 0 0 1 1.394.858m-2.952.537c.655.044.878.187 1.14.362.44.292.877.526 1.777.601a1.57 1.57 0 0 1-1.36.794 1.58 1.58 0 0 1-1.575-1.576c0-.062.011-.121.018-.181m4.039 4.249h-4.97c-1.072 0-2.018.51-2.64 1.29a3.37 3.37 0 0 0-2.64-1.29H4.39A3.395 3.395 0 0 0 1 16.801v.932h1.5v-.931c0-1.042.848-1.89 1.89-1.89h4.97c1.042 0 1.89.848 1.89 1.89v.931h1.5v-.931c0-1.042.848-1.89 1.89-1.89h4.97c1.042 0 1.89.848 1.89 1.89v.931H23v-.931c0-1.87-1.521-3.39-3.39-3.39"/></svg>