<svg xmlns="http://www.w3.org/2000/svg" viewBox="0 0 24 24"><path fill="#002466" d="M13.961 11.484v-1.463H23l-.464-1.052c-.961-2.181-3.036-3.535-5.414-3.535-.027 0-.053.005-.08.006l3.568-3.577-1.07-.415c-2.119-.822-4.39-.408-6.078 1.106a6 6 0 0 0-1.445 1.952 6 6 0 0 0-1.447-1.971C8.881 1.009 6.601.59 4.478 1.416l-1.07.415 3.605 3.613c-.045-.001-.088-.01-.134-.01-2.378 0-4.453 1.355-5.414 3.535L1 10.021h8.977v1.214a33.3 33.3 0 0 1-1.63 10.268H6.988V23h10.023v-1.498h-1.493a33.3 33.3 0 0 1-1.557-10.018m-2.49-1.463h.996v1.463c0 .345.031.688.041 1.033H11.42c.016-.428.051-.853.051-1.282zm-.111 3.994h1.209c.073 1.004.181 2.003.34 2.995h-1.926c.167-.992.297-1.991.377-2.995m9.166-5.491h-6.807c.824-1.003 2.048-1.592 3.404-1.592s2.58.589 3.404 1.592zM14.458 3.67c.947-.85 2.14-1.236 3.347-1.114l-3.654 3.663.011.011a5.8 5.8 0 0 0-1.181.903 4.42 4.42 0 0 1 1.477-3.462zM6.212 2.523C7.416 2.4 8.621 2.79 9.57 3.648a4.41 4.41 0 0 1 1.464 3.5 5.8 5.8 0 0 0-1.076-.852l.009-.009zm.666 4.408c1.356 0 2.58.589 3.404 1.592H3.475a4.36 4.36 0 0 1 3.404-1.592zm3.8 11.576h2.531a35 35 0 0 0 .755 2.995H9.902q.455-1.483.776-2.995"/></svg>