<svg xmlns="http://www.w3.org/2000/svg" fill="#002466" viewBox="0 0 24 24"><path d="M20.25 2.5V1H3.75v1.5h.719v19H3.75V23h16.5v-1.5h-.719v-19zm-14.281 19V20h12.063v1.5zm12.063-3H5.969v-13H16.5V4H5.969V2.5h12.063zm-4.113-6.446c-.092 0-.179.018-.269.027a5.85 5.85 0 0 1 .425-4.258l.679-1.323h-1.975l-.187.121a7.32 7.32 0 0 0-3.313 5.534 2.72 2.72 0 0 0-2.028 2.622A2.73 2.73 0 0 0 9.974 17.5a2.7 2.7 0 0 0 1.974-.857 2.7 2.7 0 0 0 1.973.857 2.73 2.73 0 0 0 2.724-2.723 2.73 2.73 0 0 0-2.724-2.723zm-1.854-2.975a7.34 7.34 0 0 0 .195 3.554 3 3 0 0 0-.314.278 2.7 2.7 0 0 0-1.156-.718c.119-1.153.551-2.235 1.275-3.114M9.973 16a1.225 1.225 0 0 1-1.223-1.223c0-.393.199-.728.488-.952v.879h1.5v-.858c.273.225.458.551.458.931 0 .674-.549 1.223-1.224 1.223zm3.946 0a1.225 1.225 0 0 1-1.223-1.223c0-.235.084-.441.199-.628l.587 1.063 1.313-.725-.47-.852c.473.169.817.611.817 1.141 0 .674-.549 1.223-1.224 1.223z"/></svg>