<svg xmlns="http://www.w3.org/2000/svg" fill="#002466" viewBox="0 0 24 24"><path d="m21.5.998-.016 3.253H19.75v-3.25h-1.5v3.25H16.5v-3.25H15v3.25h-1.733l.016-3.247-1.5-.007-.021 4.237a3.23 3.23 0 0 0 .946 2.309 3.23 3.23 0 0 0 2.304.958h1.613v14.5h1.5v-14.5h1.604a3.26 3.26 0 0 0 3.25-3.234L23 1.005zm-1.771 6.003h-4.717a1.74 1.74 0 0 1-1.241-.516 1.7 1.7 0 0 1-.428-.734h8.055a1.75 1.75 0 0 1-1.668 1.25zm-5.727 4.251H2.748l.061.808H1v1.719c0 2.123.907 4.034 2.348 5.381l.291 3.829h9.472l.291-3.829a7.35 7.35 0 0 0 2.348-5.381V12.06h-1.809zM2.5 13.779v-.219h.423l.218 2.875a5.8 5.8 0 0 1-.642-2.656zm9.22 7.71H5.03l-.09-1.19a7.33 7.33 0 0 0 6.872 0l-.09 1.19zm.232-3.061a5.84 5.84 0 0 1-7.155 0l-.258-3.396h7.671zm.372-4.896H4.425l-.059-.78h8.018l-.059.78zm1.925.028v.219a5.8 5.8 0 0 1-.642 2.656l.218-2.875z"/></svg>