<svg xmlns="http://www.w3.org/2000/svg" fill="#002466" viewBox="0 0 24 24"><path d="M11.25 12.45h1.5v1.5h-1.5zm3.75 0h1.5v1.5H15zm-7.5 0H9v1.5H7.5zm3.75 3.5h1.5v1.5h-1.5zm3.75 0h1.5v1.5H15zm-7.5 0H9v1.5H7.5zM23 9.2h-3.679l-4.186-6.65-1.27.799L17.549 9.2H6.451l3.684-5.851-1.27-.799L4.679 9.2H1v1.5h1.282l1.373 8.047a3.24 3.24 0 0 0 3.204 2.703H16.94a3.26 3.26 0 0 0 3.19-2.627l1.585-8.123H23zm-4.342 9.335a1.754 1.754 0 0 1-1.718 1.415H6.859a1.75 1.75 0 0 1-1.726-1.455L3.803 10.7h16.383l-1.529 7.835z"/></svg>