<svg xmlns="http://www.w3.org/2000/svg" viewBox="0 0 24 24"><path fill="#002466" d="M20.958 16.726a9.46 9.46 0 0 1-8.021-5.083 9.48 9.48 0 0 1 .321-9.496l.698-1.129-1.327-.016a11 11 0 0 0-5.38 1.341 11 11 0 0 0-5.448 7.14c-.729 3.087-.124 6.232 1.702 8.857C5.576 21.317 9.063 23 12.592 23c1.455 0 2.918-.286 4.29-.886a11 11 0 0 0 4.93-4.227l.688-1.092-1.542-.068zm-4.675 4.012c-4.06 1.774-9.023.372-11.549-3.257a9.44 9.44 0 0 1-1.473-7.653A9.52 9.52 0 0 1 7.966 3.66a9.5 9.5 0 0 1 3.361-1.085c-1.435 3.113-1.351 6.675.283 9.77 1.678 3.177 4.684 5.28 8.178 5.778a9.54 9.54 0 0 1-3.506 2.615z"/></svg>