<svg xmlns="http://www.w3.org/2000/svg" fill="#002466" viewBox="0 0 24 24"><path d="M6.138 9.879V7.94H2.653v1.939A3.36 3.36 0 0 0 1 12.786v.699a2.2 2.2 0 0 0 .291 1.097l.059.088a.59.59 0 0 1 0 .722l-.059.088A2.2 2.2 0 0 0 1 16.577v4.019A2.406 2.406 0 0 0 3.403 23h1.984a2.406 2.406 0 0 0 2.404-2.404v-4.019A2.2 2.2 0 0 0 7.5 15.48l-.059-.088a.59.59 0 0 1 0-.722l.059-.088a2.2 2.2 0 0 0 .291-1.097v-.699a3.36 3.36 0 0 0-1.654-2.907zm.154 3.606a.7.7 0 0 1-.076.321 2.09 2.09 0 0 0 0 2.45.7.7 0 0 1 .076.321v4.019a.904.904 0 0 1-.904.904H3.403a.904.904 0 0 1-.903-.904v-4.019a.7.7 0 0 1 .076-.321 2.09 2.09 0 0 0 0-2.45.7.7 0 0 1-.076-.321v-.699a1.87 1.87 0 0 1 1.183-1.747l.471-.189V9.44h.484v1.412l.472.188a1.87 1.87 0 0 1 1.183 1.746zm7.45-3.606V7.94h-3.484v1.939a3.36 3.36 0 0 0-1.653 2.907v.699a2.2 2.2 0 0 0 .291 1.097l.058.087a.59.59 0 0 1 0 .724l-.058.087a2.2 2.2 0 0 0-.291 1.097v4.019A2.406 2.406 0 0 0 11.008 23h1.984a2.406 2.406 0 0 0 2.403-2.404v-4.019a2.2 2.2 0 0 0-.291-1.097l-.058-.087a.59.59 0 0 1 0-.724l.058-.087a2.2 2.2 0 0 0 .291-1.097v-.699a3.36 3.36 0 0 0-1.653-2.907m.153 3.606a.7.7 0 0 1-.076.321 2.09 2.09 0 0 0 0 2.449.7.7 0 0 1 .076.321v4.019a.904.904 0 0 1-.903.904h-1.984a.904.904 0 0 1-.903-.904v-4.019a.7.7 0 0 1 .076-.321 2.09 2.09 0 0 0 0-2.449.7.7 0 0 1-.076-.321v-.699a1.87 1.87 0 0 1 1.182-1.747l.472-.188V9.44h.484v1.412l.472.188a1.87 1.87 0 0 1 1.182 1.746v.699zM8.912 4.1a1.87 1.87 0 0 1 1.182 1.746v.7h1.5v-.7A3.36 3.36 0 0 0 9.94 2.939V1H6.456v1.939a3.36 3.36 0 0 0-1.654 2.907v.7h1.5v-.7A1.87 1.87 0 0 1 7.484 4.1l.472-.188V2.5h.484v1.412zm7.604 0a1.87 1.87 0 0 1 1.183 1.746v.7h1.5v-.7a3.36 3.36 0 0 0-1.654-2.907V1H14.06v1.939a3.36 3.36 0 0 0-1.653 2.907v.7h1.5v-.7A1.87 1.87 0 0 1 15.088 4.1l.472-.188V2.5h.484v1.412zm6.193 10.482A2.2 2.2 0 0 0 23 13.485v-.699a3.36 3.36 0 0 0-1.653-2.907V7.94h-3.484v1.939a3.36 3.36 0 0 0-1.654 2.907v.699a2.2 2.2 0 0 0 .291 1.097l.059.088a.59.59 0 0 1 0 .722l-.059.088a2.2 2.2 0 0 0-.291 1.097v4.019A2.406 2.406 0 0 0 18.613 23h1.984A2.406 2.406 0 0 0 23 20.596v-4.019a2.2 2.2 0 0 0-.291-1.097l-.059-.088a.59.59 0 0 1 0-.722zM21.5 13.485a.7.7 0 0 1-.076.321 2.09 2.09 0 0 0 0 2.45.7.7 0 0 1 .076.321v4.019a.904.904 0 0 1-.903.904h-1.984a.904.904 0 0 1-.904-.904v-4.019a.7.7 0 0 1 .076-.321 2.09 2.09 0 0 0 0-2.45.7.7 0 0 1-.076-.321v-.699c0-.773.465-1.459 1.183-1.747l.472-.188V9.44h.484v1.412l.472.188a1.87 1.87 0 0 1 1.182 1.746v.699z"/></svg>