<svg xmlns="http://www.w3.org/2000/svg" fill="#002466" viewBox="0 0 24 24"><path d="M19.75 1H4.25A3.25 3.25 0 0 0 1 4.246v12.671a3.25 3.25 0 0 0 3.25 3.246h4.576L12.024 23l2.908-2.836h4.817a3.25 3.25 0 0 0 3.25-3.246V4.246A3.25 3.25 0 0 0 19.75 1m1.75 15.917a1.75 1.75 0 0 1-1.75 1.748h-5.429l-2.346 2.288-2.579-2.288H4.25a1.75 1.75 0 0 1-1.75-1.748V4.246a1.75 1.75 0 0 1 1.75-1.748h15.5a1.75 1.75 0 0 1 1.75 1.748zM15.047 6.56 12 9.603 8.953 6.56l-1.06 1.059 3.047 3.043-3.047 3.043 1.061 1.059L12 11.722l3.047 3.043 1.061-1.059-3.047-3.043 3.047-3.043-1.061-1.059z"/></svg>