<svg xmlns="http://www.w3.org/2000/svg" viewBox="0 0 24 24"><path fill="#002466" d="M12 8.196a2.6 2.6 0 0 0 2.598-2.598C14.598 4.166 13.433 3 12 3S9.402 4.166 9.402 5.598A2.6 2.6 0 0 0 12 8.196M12 4.5a1.099 1.099 0 0 1 0 2.196A1.099 1.099 0 0 1 12 4.5m-3.315 7.01c0-.74.603-1.343 1.344-1.343h3.942c.74 0 1.344.603 1.344 1.344v.739h1.5v-.74a2.85 2.85 0 0 0-2.844-2.844h-3.942a2.85 2.85 0 0 0-2.844 2.845v.739h1.5z"/><path fill="#002466" d="M23 19.5V1H1v18.5h7.41l.306 2H7.75V23h8.5v-1.5h-.966l.306-2zM2.5 18V2.5h19V18h-5.68l.574-3.75h1.556v-1.5H6.05v1.5h1.556L8.18 18zm7.734 3.5-1.11-7.25h5.753l-1.11 7.25z"/></svg>