<svg xmlns="http://www.w3.org/2000/svg" fill="#002466" viewBox="0 0 24 24"><path d="M20.489 15.25V9.559a6.4 6.4 0 0 0 .999.941l.599.451.9-1.2-.599-.45A4.72 4.72 0 0 1 20.489 5.5V1h-4.247v4.5c0 2.343-1.905 4.25-4.247 4.25S7.747 7.843 7.747 5.5V1H3.499v4.35A4.72 4.72 0 0 1 1.6 9.151l-.599.45.9 1.2.599-.451c.373-.28.704-.597.999-.941v5.841H1v1.5h2.499V19h1.499V2.5h1.249V19h1.499v-2.25h8.495V19h1.499V2.5h1.249V19h1.499v-2.25H23v-1.5zm-4.247 0H7.747V9.359c1.052 1.158 2.564 1.891 4.247 1.891s3.196-.733 4.247-1.891v5.891zm4.093 5.918a.83.83 0 0 1-.658.332c-.413 0-.633-.298-.65-.32a2.34 2.34 0 0 0-1.911-1.009 2.34 2.34 0 0 0-1.903.997.83.83 0 0 1-.658.332c-.413 0-.633-.298-.65-.32a2.34 2.34 0 0 0-1.911-1.009 2.34 2.34 0 0 0-1.903.997.83.83 0 0 1-.658.332c-.413 0-.633-.298-.65-.32a2.34 2.34 0 0 0-1.911-1.009 2.34 2.34 0 0 0-1.903.997.83.83 0 0 1-.658.332c-.413 0-.633-.298-.65-.32a2.34 2.34 0 0 0-1.911-1.009H1v1.5h.75a.83.83 0 0 1 .65.319A2.34 2.34 0 0 0 4.311 23a2.34 2.34 0 0 0 1.903-.997.83.83 0 0 1 .658-.332.83.83 0 0 1 .65.319A2.34 2.34 0 0 0 9.433 23a2.34 2.34 0 0 0 1.903-.997.83.83 0 0 1 .658-.332.83.83 0 0 1 .65.319c.24.375.914 1.009 1.911 1.009a2.34 2.34 0 0 0 1.903-.997.83.83 0 0 1 .658-.332.83.83 0 0 1 .65.319c.24.375.914 1.009 1.911 1.009a2.34 2.34 0 0 0 1.903-.997.83.83 0 0 1 .658-.332h.75v-1.5h-.75a2.34 2.34 0 0 0-1.903.997z"/></svg>