<svg xmlns="http://www.w3.org/2000/svg" viewBox="0 0 24 24"><path fill="#002466" d="m22.027 12.415.009-.183h-.017c-.153-3.298-2.341-6.025-5.249-6.772.302-.455.48-.999.48-1.585V1h-2.875a2.87 2.87 0 0 0-2.741 2.053C10.673 1.813 9.186 1 7.5 1v1.5c1.879 0 3.425 1.393 3.694 3.199a6.4 6.4 0 0 0-2.365-.449c-3.67 0-6.668 3.101-6.848 6.981h-.017l.009.183-.009.183h.017C2.163 18.365 6.581 23 12 23s9.837-4.635 10.019-10.402h.017c0-.062-.007-.121-.009-.183M13 3.875c0-.758.617-1.375 1.375-1.375h1.375v1.375c0 .758-.617 1.375-1.375 1.375H13zM12 21.5c-4.65 0-8.437-4.06-8.528-9.086.09-3.139 2.455-5.664 5.357-5.664a4.9 4.9 0 0 1 1.811.342c-1.428 1.347-2.334 3.313-2.334 5.506l.002.167 1.5-.029-.002-.138c0-3.225 2.407-5.848 5.365-5.848 2.901 0 5.267 2.525 5.357 5.664C20.437 17.44 16.65 21.5 12 21.5"/></svg>