<svg xmlns="http://www.w3.org/2000/svg" viewBox="0 0 24 24"><path fill="#002466" d="M17.307 1v1.499h2.128L16.041 5.89a6.49 6.49 0 0 0-8.084-.002l-.755-.754 1.37-1.369-1.061-1.06-1.37 1.369-1.576-1.575h2.127V1H2.005v4.685h1.5V3.559l1.577 1.576-1.468 1.467 1.061 1.06 1.468-1.467.753.753a6.48 6.48 0 0 0-1.421 4.051 6.53 6.53 0 0 0 5.774 6.473v2.025H9.241v1.499h2.007V23h1.5v-2.005h2.007v-1.499h-2.007v-2.025a6.53 6.53 0 0 0 5.774-6.473 6.48 6.48 0 0 0-1.42-4.048l3.392-3.39v2.126h1.5V1h-4.688zm-5.309 15.018a5.03 5.03 0 0 1-5.024-5.021 5.03 5.03 0 0 1 5.024-5.021 5.03 5.03 0 0 1 5.024 5.021 5.03 5.03 0 0 1-5.024 5.021"/></svg>