<svg xmlns="http://www.w3.org/2000/svg" viewBox="0 0 24 24"><path fill="#002466" d="M19.705 18v-2.25H21V11.5h-2.028A7.01 7.01 0 0 0 12.8 5.54v-.79h3.847V1H11.3v4.54a7.01 7.01 0 0 0-6.171 5.96H3v4.25h1.25V18H1v5h22v-5zM15.146 3.25H12.8V2.5h2.347zM12.05 6.999a5.51 5.51 0 0 1 5.406 4.501H6.644c.472-2.557 2.714-4.501 5.405-4.501zM4.5 13h15v1.25h-15zm8.046 8.5h-1.092v-2.704a.547.547 0 0 1 1.092 0zm8.954 0h-7.454v-2.704A2.05 2.05 0 0 0 12 16.75a2.05 2.05 0 0 0-2.046 2.046V21.5H2.5v-2h3.25v-3.75h12.455v3.75H21.5z"/></svg>