<svg xmlns="http://www.w3.org/2000/svg" fill="#002466" viewBox="0 0 24 24"><circle cx="17.094" cy="22" r="1"/><circle cx="11.844" cy="22" r="1"/><path d="m19.847 11.25-.586 1.641H8.301l1.949 5.199a2.4 2.4 0 0 0 2.238 1.551h4.27a2.4 2.4 0 0 0 2.251-1.586l1.895-5.304H23v-1.5zm-2.25 6.299a.89.89 0 0 1-.839.591h-4.27a.895.895 0 0 1-.834-.578l-1.189-3.172h8.26zM4.964 13.854H7.25v1.5H4.964zM2.5 14.75V4.25c0-.965.785-1.75 1.75-1.75h4.451c.965 0 1.75.785 1.75 1.75v7h1.5v-7A3.254 3.254 0 0 0 8.701 1H4.25A3.254 3.254 0 0 0 1 4.25v10.5A3.254 3.254 0 0 0 4.25 18h3v-1.5h-3c-.965 0-1.75-.785-1.75-1.75"/></svg>