<svg xmlns="http://www.w3.org/2000/svg" viewBox="0 0 24 24"><path fill="#002466" d="M9.342 1.734v11H23v-11zm4.893 6.703.013.011c.557.45 1.24.675 1.922.675s1.365-.225 1.922-.675l.06-.048 2.711 2.835H11.56zm-3.389 1.371V5.696l2.217 1.793zm8.48-2.356 2.17-1.755v4.025zm2.17-4.217v.53l-4.35 3.518a1.56 1.56 0 0 1-1.95 0l-4.351-3.518v-.53zm-7.823 13.619c-.397-.443-.931-.68-1.462-.67a1.66 1.66 0 0 0-1.232.615l-.506.494a.25.25 0 0 1-.235.037l-1.065-.626c-.88-.496-1.617-1.213-2.322-2.257l-.858-1.266c-.061-.073-.06-.179-.022-.225l.683-.72c.67-.729.63-1.874-.09-2.553L5.317 8.509c-.79-.602-1.991-.535-2.732.155l-.507.46a2.95 2.95 0 0 0-.998 1.635 3.5 3.5 0 0 0-.002 1.479c.332 1.544 1.066 3.11 2.184 4.653 1.064 1.472 2.329 2.687 3.757 3.609 1.72 1.11 3.483 1.735 4.92 1.759l.209.008c.865 0 1.402-.421 1.853-.883l.619-.633a2.13 2.13 0 0 0 .611-1.535 2.13 2.13 0 0 0-.664-1.513l-.892-.847zm-.132 2.849-.619.633c-.33.339-.521.456-.916.424-1.201-.021-2.683-.561-4.171-1.52-1.271-.821-2.4-1.906-3.354-3.227-.995-1.374-1.645-2.75-1.933-4.09a2 2 0 0 1 .002-.854c.064-.299.24-.582.496-.797l.562-.51a.74.74 0 0 1 .486-.175.43.43 0 0 1 .248.063l1.188 1.122a.326.326 0 0 1 .024.442l-.7.739c-.536.625-.546 1.54-.067 2.121l.817 1.21c.84 1.245 1.739 2.11 2.817 2.718l1.054.62c.667.394 1.598.25 2.083-.29l.504-.49.067-.074c.065-.082.114-.084.132-.084.069.021.177.043.332.213l.933.89a.64.64 0 0 1 .016.917z"/></svg>