<svg xmlns="http://www.w3.org/2000/svg" fill="#002466" viewBox="0 0 24 24"><path d="M7.75 7.345V1h-4v6.345A3.005 3.005 0 0 0 1.5 10.25V23H10V10.25a3.004 3.004 0 0 0-2.25-2.905M6.25 2.5V4h-1V2.5zM3 21.5v-2.25h5.5v2.25zm5.5-3.75H3v-7.5a1.5 1.5 0 0 1 1.5-1.5h.75V5.5h1v3.25H7a1.5 1.5 0 0 1 1.5 1.5zm3.345-6.687 8.438-8.438 1.061 1.061-8.438 8.438zm8.499-1.625a2.16 2.16 0 0 0-2.156 2.156 2.16 2.16 0 0 0 2.156 2.156 2.16 2.16 0 0 0 2.156-2.156 2.16 2.16 0 0 0-2.156-2.156m0 2.813a.656.656 0 1 1 0-1.313.656.656 0 0 1 0 1.313M15 3.156A2.16 2.16 0 0 0 12.844 1a2.16 2.16 0 0 0-2.156 2.156 2.16 2.16 0 0 0 2.156 2.156A2.16 2.16 0 0 0 15 3.156m-2.813 0a.656.656 0 1 1 1.313 0 .656.656 0 0 1-1.313 0"/></svg>