<svg xmlns="http://www.w3.org/2000/svg" viewBox="0 0 24 24"><path fill="#002466" d="M18.109 6.654C17.934 3.457 15.313 1 12 1 8.694 1 6.079 3.445 5.892 6.654a6.105 6.105 0 0 0-4.797 5.976 6.13 6.13 0 0 0 6.121 6.121 6 6 0 0 0 .874-.07 5.66 5.66 0 0 0 3.16 1.515V23h1.5v-2.805a5.66 5.66 0 0 0 3.16-1.515 6 6 0 0 0 .874.07 6.13 6.13 0 0 0 6.121-6.121 6.105 6.105 0 0 0-4.796-5.975M12 18.75a4.19 4.19 0 0 1-4.114-3.432h2.637L12 13.102l1.478 2.216h2.637A4.19 4.19 0 0 1 12 18.75m5.018-1.524a5.65 5.65 0 0 0 .664-2.658v-.75H14.28L12 10.398l-2.28 3.42H6.318v.75c0 .96.241 1.864.664 2.658-2.437-.125-4.387-2.129-4.387-4.597A4.61 4.61 0 0 1 6.72 8.037l.693-.074-.032-.964C7.381 4.476 9.41 2.5 12 2.5s4.619 1.976 4.619 4.474l-.032.989.693.074a4.61 4.61 0 0 1 4.125 4.593c0 2.468-1.95 4.472-4.387 4.597z"/></svg>