<svg xmlns="http://www.w3.org/2000/svg" viewBox="0 0 24 24"><path fill="#002466" d="m23 19.966-3.035-3.034-2.309 2.309h-2.163v-6.497h1.866a2.744 2.744 0 0 0 2.632 1.999 2.75 2.75 0 0 0 2.749-2.749 2.75 2.75 0 0 0-2.749-2.749 2.745 2.745 0 0 0-2.632 1.999h-1.866V4.248h1.749v1.749h4.998V1h-4.998v1.749h-3.248v8.496h-1.242a2.86 2.86 0 0 0-2.389-1.814A4.04 4.04 0 0 0 6.585 6.87a4.05 4.05 0 0 0-4.011 3.373A2.55 2.55 0 0 0 1 12.587a2.535 2.535 0 0 0 2.533 2.533h6.562c1.41 0 2.575-1.03 2.801-2.376h1.097v7.996h3.713L19.965 23zm-3.009-9.221a1.25 1.25 0 0 1 1.249 1.249 1.25 1.25 0 0 1-1.249 1.249 1.25 1.25 0 0 1-1.249-1.249 1.25 1.25 0 0 1 1.249-1.249m-1.249-8.246h1.999v1.999h-1.999zm-8.646 11.122H3.533c-.57 0-1.034-.464-1.034-1.034a1.04 1.04 0 0 1 .878-1.021l.618-.091.022-.624A2.56 2.56 0 0 1 6.585 8.37a2.55 2.55 0 0 1 2.495 1.973l.138.59.877-.015c.745 0 1.35.608 1.35 1.354a1.35 1.35 0 0 1-1.35 1.349zm9.87 5.431.915.914-.915.914-.914-.914z"/></svg>