<svg xmlns="http://www.w3.org/2000/svg" viewBox="0 0 24 24"><path fill="#002466" d="M5.977 9.726v10.06h5.098v-1.5H7.477v-7.06h10.976v7.06h-.574v1.5h5.098V9.727zm15.5 8.56h-1.524v-7.06h1.524z"/><path fill="#002466" d="M10.193 16.343h.59c.101 0 .164-.063.164-.163v-2.847c0-.1-.063-.163-.163-.163h-.425a.3.3 0 0 0-.129.028l-.764.31c-.09.03-.129.108-.098.203l.14.421c.03.092.115.13.206.099l.316-.12v2.07c0 .1.062.162.163.162m2.383.053q.241 0 .47-.091a1.1 1.1 0 0 0 .407-.294q.172-.197.28-.512.104-.31.104-.743c0-.433-.035-.537-.104-.742a1.5 1.5 0 0 0-.28-.511 1.05 1.05 0 0 0-.408-.295 1.28 1.28 0 0 0-.941 0 1.1 1.1 0 0 0-.407.294q-.175.202-.28.512-.104.309-.104.742c0 .433.035.538.104.743q.106.311.28.511.175.202.408.295.228.09.47.09m-.236-2.312q.094-.173.236-.172.139-.001.234.172.106.198.107.672 0 .24-.03.409a1 1 0 0 1-.078.255.3.3 0 0 1-.105.127.25.25 0 0 1-.257 0 .3.3 0 0 1-.105-.126 1 1 0 0 1-.078-.257 2.3 2.3 0 0 1-.03-.408q0-.473.106-.672m2.526 2.222a1.28 1.28 0 0 0 .941 0 1.1 1.1 0 0 0 .406-.294q.174-.197.28-.512.105-.31.105-.743c0-.433-.035-.537-.104-.742a1.5 1.5 0 0 0-.28-.511 1.05 1.05 0 0 0-.408-.295 1.28 1.28 0 0 0-.941 0 1.06 1.06 0 0 0-.406.294q-.175.198-.28.512-.105.309-.105.742c0 .433.035.538.104.743q.109.315.28.51.174.201.408.296m.235-2.22q.094-.174.235-.173.14-.001.235.172.105.198.106.672 0 .24-.03.409a1 1 0 0 1-.077.255.3.3 0 0 1-.106.127.25.25 0 0 1-.256 0 .3.3 0 0 1-.105-.126 1 1 0 0 1-.078-.257 2.3 2.3 0 0 1-.03-.408q0-.473.106-.672m-.623 3.636c-1.456 0-2.64 1.184-2.64 2.64S13.02 23 14.476 23s2.64-1.185 2.64-2.64-1.184-2.64-2.64-2.64m0 3.78a1.14 1.14 0 0 1-1.14-1.14 1.141 1.141 0 0 1 2.28 0 1.14 1.14 0 0 1-1.14 1.14M8.162 8.376l4.815-4.815V5.75h1.5V1h-4.75v1.5h2.19L8.162 6.255 6.075 4.167 1.023 9.22l1.06 1.06L6.076 6.29z"/></svg>