<svg xmlns="http://www.w3.org/2000/svg" viewBox="0 0 24 24"><path fill="#002466" d="M17.724 12.477q0-1.796-1.164-2.848c-1.164-1.052-1.961-1.333-3.55-1.894q-.982-.365-1.599-.702c-.617-.337-.734-.449-.968-.674s-.398-.467-.492-.73a2.7 2.7 0 0 1-.14-.898q0-.784.618-1.263c.618-.479.972-.477 1.683-.477q1.122 0 1.614.421c.492.421.519.599.575.954q.084.365.449.365h1.402q.393 0 .337-.337 0-.533-.211-1.136a2.9 2.9 0 0 0-.715-1.108q-.506-.506-1.347-.828C13.375 1 12.954 1 12.112 1q-2.021 0-3.255 1.052c-1.234 1.052-1.235 1.66-1.235 2.876q0 1.74 1.038 2.807-1.122.477-1.754 1.333c-.632.856-.631 1.277-.631 2.119q0 .925.28 1.642c.28.717.467.898.842 1.263s.841.697 1.403.996 1.206.59 1.936.87l1.712.744q.673.351 1.066.701a2.1 2.1 0 0 1 .561.772q.168.421.168.926 0 .786-.702 1.291c-.702.505-1.151.505-2.048.505q-1.039 0-1.796-.365c-.757-.365-.908-.486-1.207-.73q-.308-.309-.533.084l-.674 1.319q-.14.309.113.477.56.477 1.543.898c.983.421 1.505.421 2.554.421q2.468 0 3.759-1.122c1.291-1.122 1.292-1.73 1.292-2.947q0-.926-.309-1.655c-.309-.729-.514-.936-.925-1.347q2.413-1.067 2.413-3.452zm-2.763 1.572a3.4 3.4 0 0 1-1.165.814 9 9 0 0 0-.954-.463l-1.095-.435q-.982-.364-1.613-.702c-.631-.338-.754-.449-.997-.673s-.406-.468-.491-.73-.126-.551-.126-.87q0-.813.435-1.347c.435-.534.66-.636 1.109-.842l.898.435L12 9.671l1.67.716q.66.323 1.053.687c.393.364.445.496.547.757s.154.561.154.898q0 .814-.462 1.319z"/></svg>