<svg xmlns="http://www.w3.org/2000/svg" fill="#002466" viewBox="0 0 24 24"><path d="M4.94 15.428a3.95 3.95 0 0 0 3.94-3.949A3.95 3.95 0 0 0 4.94 7.53 3.95 3.95 0 0 0 1 11.479a3.95 3.95 0 0 0 3.94 3.949m0-6.401c1.349 0 2.446 1.1 2.446 2.452A2.45 2.45 0 0 1 4.94 13.93a2.45 2.45 0 0 1-2.446-2.452A2.45 2.45 0 0 1 4.94 9.027m3.407 8.317H1.534v1.497h6.813a2.88 2.88 0 0 1 2.872 2.879V23h1.494v-1.28a4.376 4.376 0 0 0-4.366-4.376M21.742 6.91 23 5.227l-1.4-2.431-2.101.195-.122-.07L18.496 1h-2.783l-.883 1.921-.122.07-2.101-.195-1.4 2.429 1.256 1.69.002.193-1.257 1.686 1.399 2.428 2.1-.195.125.073.879 1.918h2.784l.879-1.918.125-.073 2.1.195 1.399-2.428-1.257-1.688V6.91zm-.529 1.99-.428.744-1.623-.151-.946.552-.677 1.476h-.87l-.677-1.476-.946-.552-1.623.151-.428-.744.967-1.298-.006-1.186-.962-1.295.429-.746 1.622.151.943-.546.683-1.482h.869l.682 1.482.943.546 1.622-.151.429.745-.966 1.292v1.191l.965 1.297zm-4.109-4.247a2.356 2.356 0 0 0 0 4.712 2.356 2.356 0 0 0 0-4.712m0 3.214a.86.86 0 0 1-.857-.859.86.86 0 0 1 .857-.858.86.86 0 0 1 .857.858.86.86 0 0 1-.857.859"/></svg>