<svg xmlns="http://www.w3.org/2000/svg" viewBox="0 0 24 24"><path fill="#002466" d="M19.5 2.525V1h-15v1.525c-1.674.13-3 1.518-3 3.225V8.5a3.254 3.254 0 0 0 3.25 3.25h.096a7.52 7.52 0 0 0 6.404 5.212V21.5H9.204V23h5.592v-1.5H12.75v-4.538a7.52 7.52 0 0 0 6.404-5.212h.096A3.254 3.254 0 0 0 22.5 8.5V5.75c0-1.706-1.326-3.095-3-3.225M3 8.5V5.75c0-.879.654-1.602 1.5-1.725V9.5a8 8 0 0 0 .037.728A1.745 1.745 0 0 1 3 8.5m15 1a6.01 6.01 0 0 1-6 6 6.01 6.01 0 0 1-6-6v-7h12zm3-1c0 .892-.673 1.622-1.537 1.728L19.5 9.5V4.025c.846.123 1.5.845 1.5 1.725z"/></svg>