<svg xmlns="http://www.w3.org/2000/svg" viewBox="0 0 24 24"><path fill="#002466" d="M13.831 23H6.426a4.17 4.17 0 0 1-4.129-3.651l-.709-5.655a4.16 4.16 0 0 1 3.46-4.63l4.312-.703v-4.17C9.359 2.431 10.789 1 12.547 1s3.188 1.431 3.188 3.191v8.097l1.531-1.711c1.041-1.03 2.631-1.188 3.813-.412.674.442 1.136 1.121 1.301 1.911s.013 1.598-.428 2.274l-4.665 6.801A4.13 4.13 0 0 1 13.831 23M12.547 2.501a1.69 1.69 0 0 0-1.687 1.69v4.395a1.25 1.25 0 0 1-1.037 1.222l-4.531.739a2.66 2.66 0 0 0-2.215 2.962l.709 5.654a2.67 2.67 0 0 0 2.641 2.336h7.405c.895 0 1.722-.443 2.213-1.186l4.662-6.797c.212-.326.288-.734.205-1.132a1.5 1.5 0 0 0-.655-.963 1.53 1.53 0 0 0-1.904.191l-1.976 2.209c-.53.529-1.312.495-1.78.025a1.25 1.25 0 0 1-.36-.869V4.191a1.69 1.69 0 0 0-1.688-1.69z"/></svg>