<svg xmlns="http://www.w3.org/2000/svg" fill="#002466" viewBox="0 0 24 24"><path d="M1 1v7.063h1v10.932h5v-4.472h1.5v-1.491h-3v4.472h-2V8.063h2v1.978h5V8.063h10.015v3.975h1.5V8.063H23v-4.13zm7 7.799c-.69 0-1.25-.556-1.25-1.242S7.31 6.315 8 6.315s1.25.556 1.25 1.242S8.69 8.799 8 8.799M5.5 5.072v1.5h-3V2.704l19 2.533v1.335h-11v-1.5zm15.374 11.003c0-3.047-2.495-5.527-5.562-5.527s-5.562 2.48-5.562 5.527 2.495 5.527 5.562 5.527a5.55 5.55 0 0 0 3.361-1.133L21.22 23l1.061-1.054-2.548-2.532a5.47 5.47 0 0 0 1.141-3.34zm-9.624 0c0-2.225 1.822-4.036 4.062-4.036s4.062 1.811 4.062 4.036-1.822 4.036-4.062 4.036-4.062-1.811-4.062-4.036"/></svg>