<svg xmlns="http://www.w3.org/2000/svg" fill="#002466" viewBox="0 0 24 24"><path d="M8.954 15.785h1.5V23h-1.5zm10.609-3.583a2.8 2.8 0 0 0-2.045-2.009 2.9 2.9 0 0 0-.913-.052c.161-.433.249-.897.249-1.372a3.955 3.955 0 0 0-3.95-3.95c-1.839 0-3.376 1.269-3.814 2.974l-1.205-1.17a1.15 1.15 0 0 0-1.591-.009l-1.593 1.51a1.15 1.15 0 0 0-.047 1.623l1.682 1.788a4.8 4.8 0 0 0-.583 2.277V23h1.5v-9.189a3.2 3.2 0 0 1 .192-1.098l.4.425a8.4 8.4 0 0 0 6.094 2.635h2.903c.038 0 .074-.011.111-.013V23h1.5v-7.753c.224-.159.434-.339.608-.564a2.86 2.86 0 0 0 .501-2.481zm-9.109-3.434c0-1.351 1.1-2.45 2.45-2.45s2.45 1.099 2.45 2.45a2.44 2.44 0 0 1-.956 1.923 3.69 3.69 0 0 1-3.31-.959l-.582-.565c-.022-.133-.053-.264-.053-.4zm3.485 5.505a6.9 6.9 0 0 1-5.002-2.163L5.986 8.972l1.097-1.039 2.961 2.876a5.19 5.19 0 0 0 5.08 1.253l1.416-.415a1.35 1.35 0 0 1 .632.004c.446.106.824.478.938.923a1.35 1.35 0 0 1-.232 1.189c-.252.324-.629.51-1.035.51zm1.14-10.06 1.59-2.305 1.234.852-1.59 2.305zM12.141 1h1.5v2.8h-1.5zM7.879 2.759l1.235-.851 1.589 2.306-1.235.851z"/></svg>