<svg xmlns="http://www.w3.org/2000/svg" fill="#002466" viewBox="0 0 24 24"><path d="m12.026 6.333-2.653 5.842a5.1 5.1 0 0 0-.46 2.112 3.08 3.08 0 0 0 .906 2.202 3.1 3.1 0 0 0 2.201.913 3.11 3.11 0 0 0 3.107-3.099v-.001a5.1 5.1 0 0 0-.458-2.135l-2.644-5.833zm1.602 7.966a1.61 1.61 0 0 1-1.607 1.603 1.6 1.6 0 0 1-1.139-.472 1.6 1.6 0 0 1-.469-1.14 3.6 3.6 0 0 1 .325-1.495l1.286-2.831 1.278 2.822a3.6 3.6 0 0 1 .325 1.513zm5.892 7.202V2.499h.974V1H3.48v1.499h1.04V21.5H3.513V23H20.52v-1.499zm-13.5-5.997h2v-1.499h-2v-3.998h3.25V8.506H6.02V2.499h12v6.007h-3.25v1.499h3.25v3.998h-2v1.499h2v5.997h-12v-5.997z"/></svg>