<svg xmlns="http://www.w3.org/2000/svg" fill="#002466" viewBox="0 0 24 24"><path d="M8.012 8.047a2.22 2.22 0 0 0-.449 1.334v2.685h2.688c.578 0 1.101-.225 1.5-.585.399.36.922.585 1.5.585h2.687V9.381a2.23 2.23 0 0 0-.449-1.334 2.73 2.73 0 0 0 1.074-2.163v-2.81H13.75c-.132 0-.258.021-.385.039.249-.353.531-.684.865-.962L13.27 1a6.5 6.5 0 0 0-1.52 1.877A6.5 6.5 0 0 0 10.23 1l-.96 1.151c.334.278.616.609.865.962-.127-.018-.253-.039-.385-.039H6.937v2.81c0 .882.425 1.66 1.074 2.163zm2.238 2.52H9.062V9.381a.75.75 0 0 1 .75-.749H11v1.186a.75.75 0 0 1-.75.749m4.187 0H13.25a.75.75 0 0 1-.75-.749V8.632h1.187a.75.75 0 0 1 .75.749zm.625-5.994v1.311a1.25 1.25 0 0 1-1.25 1.249H12.5V5.822a1.25 1.25 0 0 1 1.25-1.249zm-6.625 0H9.75A1.25 1.25 0 0 1 11 5.822v1.311H9.687a1.25 1.25 0 0 1-1.25-1.249zM7.152 15.467v-1.502a2.71 2.71 0 0 0-2.707-2.704H1.25v3.193a2.71 2.71 0 0 0 2.706 2.704h1.696V23h1.5v-1.933h1.695a2.71 2.71 0 0 0 2.707-2.704V15.17H8.358a2.7 2.7 0 0 0-1.206.296zm-3.196.192a1.21 1.21 0 0 1-1.206-1.205V12.76h1.695a1.21 1.21 0 0 1 1.207 1.205v1.694zm6.099 2.704c0 .665-.541 1.205-1.207 1.205H7.152v-1.694c0-.665.541-1.205 1.206-1.205h1.696zm12.695-3.106A4.753 4.753 0 0 0 18 10.511v1.499a3.25 3.25 0 0 1 3.25 3.247 3.25 3.25 0 0 1-2.5 3.151v-2.755h-1.5v2.755a3.25 3.25 0 0 1-2.5-3.151h-1.5c0 2.36 1.738 4.308 4 4.67V23h1.5v-3.073c2.262-.362 4-2.31 4-4.67"/></svg>