<svg xmlns="http://www.w3.org/2000/svg" viewBox="0 0 24 24"><path fill="#002466" d="M9.07 10.657c.681.535 1.555.802 2.43.802s1.749-.267 2.43-.802L20 5.901V11.5h1.5V1h-20v16h9v-1.5H3V5.9zM20 2.5v1.495l-6.995 5.483c-.817.638-2.193.638-3.01 0L3 3.995V2.5zM17.5 13c-2.757 0-5 2.243-5 5a5.005 5.005 0 0 0 6.912 4.62l-.572-1.387A3.5 3.5 0 0 1 14 18c0-1.93 1.57-3.5 3.5-3.5S21 16.07 21 18v.708a.578.578 0 0 1-1.155 0V18c0-1.292-1.052-2.344-2.344-2.344S15.157 16.708 15.157 18a2.347 2.347 0 0 0 3.615 1.969 2.076 2.076 0 0 0 3.728-1.261V18c0-2.757-2.243-5-5-5m.001 5.844c-.465 0-.844-.38-.844-.844s.38-.844.844-.844.844.38.844.844-.38.844-.844.844"/></svg>