<svg xmlns="http://www.w3.org/2000/svg" fill="#002466" viewBox="0 0 24 24"><path d="M6.5 7.25H3.771A9.44 9.44 0 0 1 12 2.5c5.238 0 9.5 4.262 9.5 9.5H23c0-6.065-4.935-11-11-11a10.93 10.93 0 0 0-9.5 5.445V3.25H1v5.5h5.5zm11 9.5h2.729A9.44 9.44 0 0 1 12 21.5c-5.238 0-9.5-4.262-9.5-9.5H1c0 6.065 4.935 11 11 11a10.93 10.93 0 0 0 9.5-5.445v3.195H23v-5.5h-5.5zm-9.213-4.018 1.426-.464-.724-2.226-2.899.943.465 1.427 1.472-.479zm2.338-6.421.782.782 1.061-1.061-1.843-1.843-1.968 1.968 1.061 1.061zm6.433 6.271-1.896.502-.223-.816-1.447.395.613 2.254 3.337-.884-.385-1.45z"/><path d="m15.16 7.431-.57 1.388 1.432.588-.319.778 1.387.57.89-2.165-2.818-1.16zm-2.479 8.048-1.428-.458-.474 1.474-.8-.257-.459 1.429 2.229.715z"/><circle cx="12.375" cy="9.625" r=".75"/><circle cx="7" cy="14.25" r=".75"/><circle cx="14.75" cy="18.25" r=".75"/></svg>