<svg xmlns="http://www.w3.org/2000/svg" fill="#002466" viewBox="0 0 24 24"><path d="m17.594 11.658-4.8 1.371.412 1.442 3.95-1.129 1.905 1.904 2.438-.915V21.5h-9V23H23V12.168l-3.562 1.335-1.845-1.846zM6 1v9.994l4.16-1.188 2.758 1.504 4.746-1.46 2.151 2.152L23 10.763V1zm15.5 8.737-1.315.512-2.099-2.098-5.004 1.54-2.742-1.496-2.84.812V2.5h14zM10 5.5h9V7h-9zm5.5 13.25H19v1.5h-3.5zM6 16.821 3.841 18.09l.76 1.293L7.5 17.679v-3.844H6v2.985zm.75-5.321A5.76 5.76 0 0 0 1 17.25 5.76 5.76 0 0 0 6.75 23a5.76 5.76 0 0 0 5.75-5.75 5.76 5.76 0 0 0-5.75-5.75m0 10c-2.344 0-4.25-1.907-4.25-4.25S4.406 13 6.75 13 11 14.907 11 17.25 9.094 21.5 6.75 21.5"/></svg>