<svg xmlns="http://www.w3.org/2000/svg" viewBox="0 0 24 24"><path fill="#002466" d="M20.354 3.998a2.65 2.65 0 0 0-2.587 3.2l-1.23.785-.246-.272a6.03 6.03 0 0 0-4.29-1.778 6 6 0 0 0-3.722 1.282L6.794 5.731a3.125 3.125 0 0 0-.459-3.817 3.13 3.13 0 0 0-4.42 0 3.13 3.13 0 0 0 0 4.42c.61.608 1.41.913 2.21.913a3.1 3.1 0 0 0 1.608-.455L7.22 8.278A6.02 6.02 0 0 0 5.936 12c0 .953.224 1.872.638 2.7l-1.305.652a2.44 2.44 0 0 0-1.81-.81A2.46 2.46 0 0 0 1 17a2.46 2.46 0 0 0 2.458 2.458A2.46 2.46 0 0 0 5.918 17c0-.096-.019-.188-.03-.282l1.512-.755-.021-.043.334.368A6.02 6.02 0 0 0 12 18.064c.922 0 1.81-.21 2.616-.598l.801 1.202a2.58 2.58 0 0 0-.667 1.726A2.59 2.59 0 0 0 17.357 23a2.59 2.59 0 0 0 2.607-2.606 2.6 2.6 0 0 0-.764-1.844c-.652-.652-1.623-.863-2.493-.652l-.827-1.241.408-.37a6.02 6.02 0 0 0 1.777-4.289c0-.985-.236-1.932-.677-2.782l1.094-.697a2.64 2.64 0 0 0 1.87.776A2.65 2.65 0 0 0 23 6.646a2.65 2.65 0 0 0-2.648-2.648zM3.458 17.958A.96.96 0 0 1 2.5 17a.96.96 0 0 1 .958-.958.96.96 0 0 1 .96.958.96.96 0 0 1-.96.958m14.683 1.653a1.1 1.1 0 0 1 0 1.565 1.13 1.13 0 0 1-1.565 0 1.106 1.106 0 0 1 1.565-1.565M2.976 5.272a1.63 1.63 0 0 1 0-2.298 1.62 1.62 0 0 1 1.15-.475c.43-.001.844.17 1.148.475a1.63 1.63 0 0 1 0 2.298 1.63 1.63 0 0 1-2.299 0zm12.253 9.956c-.862.862-2.009 1.337-3.228 1.337s-2.365-.475-3.228-1.337a4.53 4.53 0 0 1-1.337-3.229c0-1.219.475-2.366 1.337-3.228A4.55 4.55 0 0 1 12 7.437a4.55 4.55 0 0 1 3.228 1.334c.862.862 1.337 2.009 1.337 3.228s-.475 2.366-1.337 3.229m5.125-7.432a1.15 1.15 0 0 1-1.147-1.149A1.15 1.15 0 0 1 20.354 5.5a1.15 1.15 0 0 1 1.148 1.147 1.15 1.15 0 0 1-1.148 1.149M11.51 13.12h.98c.14 0 .224-.08.24-.228l.125-3.67q.01-.109-.045-.171c-.055-.062-.098-.063-.176-.063h-1.27q-.118 0-.176.063c-.058.063-.052.099-.045.169l.126 3.675c.015.145.1.225.239.225zm.485.55q-.39 0-.625.244a.88.88 0 0 0-.234.633q0 .38.239.617c.239.237.369.234.62.234q.39 0 .63-.23c.24-.23.24-.363.24-.621 0-.264-.08-.48-.235-.638s-.369-.24-.635-.24"/></svg>