<svg xmlns="http://www.w3.org/2000/svg" fill="#002466" viewBox="0 0 24 24"><path d="M17.696 6.693c-1.387 0-2.72.55-3.71 1.519h-3.973a5.3 5.3 0 0 0-3.709-1.519C3.378 6.693.998 9.074.998 12s2.381 5.307 5.307 5.307a5.3 5.3 0 0 0 3.709-1.519h3.973a5.3 5.3 0 0 0 3.71 1.519c2.926 0 5.307-2.38 5.307-5.307s-2.381-5.307-5.307-5.307zm0 9.113a3.8 3.8 0 0 1-2.831-1.27l-.224-.25H9.359l-.224.249a3.8 3.8 0 0 1-2.831 1.27A3.81 3.81 0 0 1 2.498 12a3.81 3.81 0 0 1 3.807-3.807 3.8 3.8 0 0 1 2.831 1.27l.224.249h5.282l.224-.25A3.81 3.81 0 0 1 21.502 12a3.81 3.81 0 0 1-3.807 3.807zM6.998 9.749h-1.5v1.501h-1.5v1.5h1.5v1.499h1.5V12.75h1.5v-1.5h-1.5z"/><circle cx="17.748" cy="10.249" r=".75"/><circle cx="17.748" cy="13.749" r=".75"/><circle cx="15.748" cy="12" r=".75"/><circle cx="19.748" cy="12" r=".75"/></svg>