<svg xmlns="http://www.w3.org/2000/svg" fill="#002466" viewBox="0 0 24 24"><path d="m13.729 3.556 2.667 5.307-1.169-.316-.393 1.44 3.537.956.961-3.52-1.447-.392-.258.944-2.557-5.087C14.486 1.724 13.309 1 12 1s-2.485.724-3.07 1.889L5.891 8.936l1.342.668 3.039-6.048c.334-.666.98-1.064 1.729-1.064s1.395.397 1.729 1.064zM3.651 18.772a1.9 1.9 0 0 1-.085-1.871l1.508-2.999.261.954 1.447-.392-.961-3.52-3.537.956.393 1.44 1.159-.313-1.611 3.206a3.38 3.38 0 0 0 .15 3.323 3.42 3.42 0 0 0 2.92 1.62h4.982v-1.493H5.294a1.92 1.92 0 0 1-1.644-.912zm18.125-2.539-2.062-4.106-1.342.668 2.063 4.106a1.9 1.9 0 0 1-.084 1.871c-.354.571-.97.912-1.645.912H14.98l.879-.847-1.043-1.072-2.748 2.647 2.6 2.588 1.061-1.055-.772-.769h3.749a3.42 3.42 0 0 0 2.921-1.62 3.38 3.38 0 0 0 .149-3.323"/></svg>