<svg xmlns="http://www.w3.org/2000/svg" fill="#002466" viewBox="0 0 24 24"><path d="M6.504 9.115c1.604 0 2.909-1.314 2.909-2.93s-1.305-2.93-2.909-2.93-2.909 1.314-2.909 2.93 1.305 2.93 2.909 2.93m0-4.357c.781 0 1.417.64 1.417 1.427s-.635 1.427-1.417 1.427-1.417-.64-1.417-1.427.635-1.427 1.417-1.427m2.307 5.177H4.197C2.434 9.935 1 11.38 1 13.156v.871h1.492v-.871c0-.947.765-1.717 1.705-1.717h4.614c.94 0 1.705.771 1.705 1.717v.871h1.492v-.871c0-1.776-1.434-3.221-3.197-3.221m13.052 7.538L23 15.944l-1.3-2.269-1.899.177-.861-1.782h-2.584l-.798 1.745-.063.036-1.899-.177-1.3 2.268 1.136 1.535v.119l-1.135 1.531 1.299 2.267 1.897-.177.863 1.782h2.584l.795-1.742.068-.039 1.897.177 1.299-2.267-1.136-1.534v-.122zm-.648 1.761-.329.576-1.421-.133-.888.521-.593 1.299h-.672l-.593-1.299-.888-.521-1.421.133-.329-.575.847-1.143-.008-1.117-.84-1.138.33-.578 1.419.133.885-.515.598-1.305h.672l.598 1.305.885.515 1.419-.133.33.576-.845 1.137v1.121l.844 1.14zm-3.567-3.891c-1.2 0-2.176.983-2.176 2.192s.976 2.192 2.176 2.192 2.176-.983 2.176-2.192-.976-2.192-2.176-2.192m0 2.88a.687.687 0 0 1 0-1.376.687.687 0 0 1 0 1.376m-3.063-7.798 6.81-6.859v1.693h1.492V1h-4.228v1.503h1.681l-6.81 6.859z"/></svg>