<svg xmlns="http://www.w3.org/2000/svg" fill="#002466" viewBox="0 0 24 24"><path d="M22.163 14.616c-1.08-1.078-2.962-1.078-4.04 0l-.312.312-.318-.319a2.85 2.85 0 0 0-4.026 0 2.85 2.85 0 0 0-.843 2.024 2.83 2.83 0 0 0 .836 2.02L17.811 23l4.353-4.348A2.83 2.83 0 0 0 23 16.634a2.83 2.83 0 0 0-.837-2.018m-1.061 2.977-3.292 3.288-3.291-3.288a1.34 1.34 0 0 1-.396-.959 1.36 1.36 0 0 1 .403-.966c.263-.262.607-.393.952-.393s.69.131.953.394l1.379 1.378 1.373-1.371c.512-.512 1.405-.512 1.919 0 .257.256.397.597.397.959a1.35 1.35 0 0 1-.397.959zM2.5 9.242h15v2.248H19V2.498h-5.5V1H12v1.498H8V1H6.5v1.498H1v20.48h11.75V21.48H2.5zm0-5.245h4v1.498H8V3.997h4v1.498h1.5V3.997h4v3.746h-15zm2 6.993h2v1.498h-2zm4.5 0h2v1.498H9zm4.5 0h2v1.498h-2zm-9 3.497h2v1.499h-2zm4.5 0h2v1.499H9zm-4.5 3.496h2v1.499h-2zm4.5 0h2v1.499H9z"/></svg>