<svg xmlns="http://www.w3.org/2000/svg" viewBox="0 0 24 24"><path fill="#002466" d="M16.134 9.683h.75V7.25h-1.63c.325-.443.526-.951.526-1.5 0-1.45-1.304-2.663-3.029-2.94V1h-1.5v1.81c-1.727.277-3.03 1.49-3.03 2.94 0 .549.2 1.057.526 1.5h-1.63v3.294l.563.145a1.75 1.75 0 0 1 1.304 1.705c0 .813-.536 1.519-1.304 1.716l-.563.145v2.494h1.63c-.325.443-.526.951-.526 1.5 0 1.45 1.304 2.663 3.029 2.94V23h1.5v-1.81c1.726-.277 3.029-1.489 3.029-2.94 0-.549-.2-1.057-.526-1.5h1.63v-4.834h-.75a1.12 1.12 0 0 1-1.117-1.117 1.12 1.12 0 0 1 1.117-1.117zM9.721 5.75c0-.813 1.044-1.5 2.279-1.5s2.279.687 2.279 1.5-1.044 1.5-2.279 1.5-2.279-.687-2.279-1.5m4.559 12.5c0 .813-1.044 1.5-2.279 1.5s-2.279-.687-2.279-1.5 1.044-1.5 2.279-1.5 2.279.687 2.279 1.5m1.104-4.943v1.943H8.832a3.27 3.27 0 0 0 1.651-2.855 3.26 3.26 0 0 0-1.867-2.956V8.75h5.893a2.61 2.61 0 0 0-.992 2.05c0 1.182.788 2.184 1.867 2.507"/></svg>