<svg xmlns="http://www.w3.org/2000/svg" viewBox="0 0 24 24"><path fill="#002466" d="M22.02 9.501a5.32 5.32 0 0 0-4.808-3.81L5.207 4.753l-.001-.002H1v14.75h22v-10zm-5.103-2.337c1.563 0 2.922.958 3.51 2.337h-1.633a2.4 2.4 0 0 0-1.877-.918 2.41 2.41 0 0 0-2.409 2.409c0 .362.086.701.229 1.009h-1.5a3.8 3.8 0 0 1-.148-1.009 3.833 3.833 0 0 1 3.828-3.828m.847 3.523-1 1.182a.9.9 0 0 1-.756-.877.91.91 0 0 1 .909-.909c.393 0 .72.254.846.604zM13.55 6.898c-1.187.978-1.96 2.44-1.96 4.094 0 .344.039.679.102 1.009H8.956L6.017 6.319l7.532.579zm7.95 11.103h-19V6.251h1.794l3.75 7.25h9.304l2.113-2.5H21.5z"/></svg>