<svg xmlns="http://www.w3.org/2000/svg" fill="#002466" viewBox="0 0 24 24"><path d="M5.751 9.936c.404-1.056.786-2.054 1.599-3.448 1.006-1.728 2.566-2.879 4.394-3.242 1.618-.322 3.262.038 4.507.986.264.201.851.715.614 1.149-.28.518-.916.358-1.049.319-1.718-.519-3.573.027-4.621 1.354a4.13 4.13 0 0 0-.866 3.063 4.13 4.13 0 0 0 1.554 2.779c1.676 1.321 3.992 1.078 5.77-.609.443-.421 1.15-.642 1.618-.642 1.229 0 2.23.993 2.23 2.213H23c0-2.047-1.674-3.713-3.73-3.713-.711 0-1.831.276-2.651 1.054-1.009.959-2.577 1.492-3.807.519a2.64 2.64 0 0 1-.994-1.777 2.64 2.64 0 0 1 .555-1.958c.773-.979 2.068-1.134 2.995-.853.663.215 2.103.276 2.815-1.033.549-1.009.166-2.153-1.024-3.06-1.586-1.209-3.665-1.671-5.707-1.264-2.255.448-4.172 1.854-5.398 3.959-.873 1.5-1.295 2.602-1.702 3.667-.089.231-.92 2.26-2.851 2.26H1v1.5h.5c2.229 0 3.684-1.737 4.251-3.225zm12.846 4.934c-1.391 0-2.12.663-2.706 1.195-.515.467-.887.805-1.697.805s-1.182-.338-1.695-.805c-.586-.532-1.315-1.195-2.705-1.195s-2.117.663-2.703 1.195c-.514.467-.885.805-1.693.805s-1.18-.337-1.693-.805C3.117 15.532 2.39 14.87 1 14.87v1.5c.809 0 1.18.337 1.693.805.586.533 1.313 1.195 2.703 1.195s2.117-.663 2.703-1.195c.514-.467.885-.805 1.693-.805s1.182.338 1.695.805c.586.532 1.315 1.195 2.705 1.195s2.119-.663 2.705-1.195c.515-.467.887-.805 1.698-.805s1.183.338 1.697.805c.586.532 1.315 1.195 2.706 1.195v-1.5c-.812 0-1.184-.338-1.698-.805-.586-.532-1.314-1.195-2.705-1.195zm0 4c-1.391 0-2.12.663-2.706 1.195-.515.467-.887.805-1.697.805s-1.182-.338-1.695-.805c-.586-.532-1.315-1.195-2.705-1.195s-2.117.663-2.703 1.195c-.514.467-.885.805-1.693.805s-1.18-.337-1.693-.805C3.117 19.532 2.39 18.87 1 18.87v1.5c.809 0 1.18.337 1.693.805.586.533 1.313 1.195 2.703 1.195s2.117-.663 2.703-1.195c.514-.467.885-.805 1.693-.805s1.182.338 1.695.805c.586.532 1.315 1.195 2.705 1.195s2.119-.663 2.705-1.195c.515-.467.887-.805 1.698-.805s1.183.338 1.697.805c.586.532 1.315 1.195 2.706 1.195v-1.5c-.812 0-1.184-.338-1.698-.805-.586-.532-1.314-1.195-2.705-1.195z"/></svg>