<svg xmlns="http://www.w3.org/2000/svg" viewBox="0 0 24 24"><path fill="#002466" d="m21.98 10.085-3.23-6.684v-.026h-4.628c-.321-1.011-1.257-1.75-2.372-1.75s-2.052.739-2.372 1.75H5.25v.026l-3.23 6.684H1v1.45c0 2.343 1.906 4.25 4.25 4.25s4.25-1.907 4.25-4.25v-1.45H8.48l-2.517-5.21h3.415c.245.772.85 1.377 1.622 1.622v14.378H7.75v1.5h8v-1.5H12.5V6.497a2.49 2.49 0 0 0 1.622-1.622h3.915l-2.517 5.21H14.5v1.45c0 2.343 1.906 4.25 4.25 4.25S23 13.878 23 11.535v-1.45zm-16.73 4.2a2.754 2.754 0 0 1-2.75-2.7H8a2.754 2.754 0 0 1-2.75 2.7m1.563-4.2H3.687L5.25 6.849zm4.937-4.96a1 1 0 1 1 0-2 1 1 0 1 1 0 2m7 1.724 1.563 3.236h-3.126zm0 7.436a2.754 2.754 0 0 1-2.75-2.7h5.5a2.754 2.754 0 0 1-2.75 2.7"/></svg>