<svg xmlns="http://www.w3.org/2000/svg" viewBox="0 0 24 24"><path fill="#002466" d="m23 21.941-5.09-5.09a9.56 9.56 0 0 0 1.212-10.693l1.262-1.262a2 2 0 0 0 .59.099 2 2 0 0 0 1.997-1.997A2 2 0 0 0 20.973 1a2 2 0 0 0-1.997 1.997 2 2 0 0 0 .247.941l-.925.925C16.542 2.524 13.755 1 10.612 1 5.311 1 1 5.312 1 10.612c0 3.079 1.461 5.818 3.721 7.578l-.532.532a2 2 0 0 0-.941-.247 2 2 0 0 0-1.997 1.997 2 2 0 0 0 1.997 1.997 2 2 0 0 0 1.997-1.997 2 2 0 0 0-.099-.59l.847-.847a9.55 9.55 0 0 0 4.619 1.187 9.56 9.56 0 0 0 6.239-2.314l5.09 5.09zM20.973 2.498a.5.5 0 0 1 .499.499.5.5 0 0 1-.499.499.5.5 0 0 1-.499-.499.5.5 0 0 1 .499-.499M3.247 20.973a.5.5 0 0 1-.499-.499.5.5 0 0 1 .499-.499.5.5 0 0 1 .499.499.5.5 0 0 1-.499.499m-.749-10.361c0-4.474 3.64-8.114 8.114-8.114 2.731 0 5.145 1.36 6.617 3.434l-.66.66a2 2 0 0 0-.59-.099c-.804 0-1.494.48-1.811 1.166l-2.558-.341a1.99 1.99 0 0 0-1.872-1.325A2 2 0 0 0 7.741 7.99c0 .808.484 1.502 1.176 1.816l-.35 2.975a2 2 0 0 0-1.575 1.95 2 2 0 0 0 .247.941L5.79 17.121c-1.992-1.48-3.291-3.843-3.291-6.51zM16.479 8.49a.5.5 0 0 1-.499.499.5.5 0 0 1-.499-.499.5.5 0 0 1 .499-.499.5.5 0 0 1 .499.499M8.49 14.731a.5.5 0 0 1 .499-.499.5.5 0 0 1 .499.499.5.5 0 0 1-.499.499.5.5 0 0 1-.499-.499m.749-6.741a.5.5 0 0 1 .499-.499.5.5 0 0 1 .499.499.5.5 0 0 1-.499.499.5.5 0 0 1-.499-.499m-2.13 9.93 1.29-1.29a2 2 0 0 0 .59.099 2 2 0 0 0 1.997-1.997c0-.713-.378-1.335-.941-1.688l.374-3.183a2 2 0 0 0 1.129-1.039l2.558.341a1.99 1.99 0 0 0 1.872 1.325 2 2 0 0 0 1.997-1.997 2 2 0 0 0-.247-.941l.271-.271a8.1 8.1 0 0 1 .725 3.334c0 4.474-3.64 8.114-8.114 8.114a8.05 8.05 0 0 1-3.502-.806z"/></svg>