<svg xmlns="http://www.w3.org/2000/svg" fill="#002466" viewBox="0 0 24 24"><path d="M16.091 1H6.074v6.25h1.494V2.5h7.468V9h6.472v12.5H6.074V23H23V7.939zm.438 6.5V3.561L20.451 7.5zM9.267 18.503l.133-.078 2.127.198 1.412-2.457-1.274-1.714v-.206l1.275-1.709-1.413-2.459-2.129.198-.128-.075-.895-1.95h-2.81l-.895 1.95-.128.075-2.129-.198L1 12.535l1.272 1.716.002.203-1.273 1.712 1.412 2.457 2.127-.198.133.078.892 1.947h2.81zm-1.848.447h-.896l-.689-1.505-.954-.557-1.651.154-.441-.769.983-1.324-.006-1.198-.978-1.32.442-.771 1.649.153.951-.55.694-1.512h.896l.694 1.512.951.55 1.649-.153.442.77-.983 1.317v1.204l.982 1.322-.441.769-1.651-.154-.954.557zm-.449-6.985c-1.31 0-2.374 1.07-2.374 2.385s1.065 2.385 2.374 2.385 2.374-1.07 2.374-2.385-1.065-2.385-2.374-2.385m0 3.27c-.486 0-.881-.397-.881-.885s.395-.885.881-.885.881.397.881.885-.395.885-.881.885"/></svg>