<svg xmlns="http://www.w3.org/2000/svg" viewBox="0 0 24 24"><path fill="#002466" d="M16.875 16.769a3.1 3.1 0 0 0-1.639.475l-2.409-5.18 4.854-10.435L16.319 1 12 10.286 7.681 1l-1.361.629 4.854 10.435-2.409 5.18a3.1 3.1 0 0 0-1.639-.475C5.402 16.769 4 18.166 4 19.884S5.402 23 7.125 23s3.125-1.398 3.125-3.116a3.06 3.06 0 0 0-.382-1.46L12 13.842l2.132 4.583c-.235.438-.382.93-.382 1.46a3.125 3.125 0 0 0 6.25-.001 3.124 3.124 0 0 0-3.125-3.116zm-9.75 4.736a1.625 1.625 0 0 1-1.625-1.62 1.625 1.625 0 0 1 3.25 0c0 .893-.729 1.62-1.625 1.62m9.75 0a1.625 1.625 0 0 1-1.625-1.62 1.625 1.625 0 0 1 3.25 0c0 .893-.729 1.62-1.625 1.62"/></svg>