<svg xmlns="http://www.w3.org/2000/svg" viewBox="0 0 24 24"><path fill="#002466" d="M15.315 5.197q.048-.264.054-.532c0-1.859-1.512-3.372-3.369-3.372S8.631 2.806 8.631 4.665q.005.266.053.528C3.922 6.162 1 9.173 1 13.199c0 5.707 1.87 9.508 11 9.508s11-3.801 11-9.508c0-4.013-2.927-7.028-7.684-8.002zM12 2.793c1.031 0 1.87.84 1.87 1.872S13.031 6.537 12 6.537s-1.87-.84-1.87-1.872.839-1.872 1.87-1.872M9.26 6.612c.61.859 1.609 1.425 2.74 1.425s2.128-.565 2.74-1.424c3.721.679 6.118 2.642 6.647 5.395-.384 1.158-3.026 2.358-9.391 2.358-6.337 0-8.984-1.19-9.386-2.343.521-2.769 2.917-4.735 6.649-5.411M12 21.207c-4.93 0-7.318-1.143-8.465-2.92 1.885.753 4.638 1.13 8.367 1.13 3.9 0 6.74-.418 8.631-1.248-1.118 1.843-3.496 3.038-8.532 3.038zm-.099-3.29c-4.736 0-7.818-.609-9.185-1.804a13 13 0 0 1-.202-2.003c1.72 1.155 4.924 1.756 9.482 1.756 4.566 0 7.772-.603 9.49-1.762-.02.62-.07 1.217-.164 1.788-.862.948-3.205 2.024-9.42 2.024zm-4.896-9.88h1.498v1.5H7.005zm7.992.25h1.499v1.5h-1.499zm-5.744 2.75h1.498v1.5H9.253zm4.495-.5h1.5v1.5h-1.5zm-8.991-1h1.498v1.5H4.757zm6.557-.75h1.498v1.5h-1.498zm6.181.485h1.499v1.5h-1.499z"/></svg>