<svg xmlns="http://www.w3.org/2000/svg" viewBox="0 0 24 24"><path fill="#002466" d="m18.376 9.907-.051-.461C18.211 8.379 16.247 1 16.247 1H7.753S6.055 7.305 5.675 9.446c-.02.114-.051.461-.051.461-.17 1.383.273 2.752 1.249 3.854 1.064 1.203 2.692 2.008 4.377 2.196V21.5H8.5V23h7v-1.5h-2.75v-5.543c1.685-.188 3.313-.993 4.377-2.196.976-1.102 1.419-2.471 1.249-3.854M8.885 2.5h6.23l1.718 7.1.017.15h-9.7l.017-.15c.095-.923.171-1.659 1.718-7.1m7.119 10.267C15.058 13.836 13.523 14.5 12 14.5s-3.058-.664-4.004-1.733a3.6 3.6 0 0 1-.814-1.517h9.635a3.6 3.6 0 0 1-.814 1.517z"/></svg>