<svg xmlns="http://www.w3.org/2000/svg" fill="#002466" viewBox="0 0 24 24"><path d="M17.25 5.5h-.18l1.05-3h1.13V1H4.75v1.5h1.13l1.05 3h-.18A3.254 3.254 0 0 0 3.5 8.75V23h17V8.75a3.254 3.254 0 0 0-3.25-3.25m-.72-3-1.05 3H8.488l-1.024-3zm-7.535 8L9 7.001V7h6l.004 3.5H8.996zm5.826 1.5a3 3 0 0 1-.696 1.119c-1.135 1.137-3.117 1.137-4.252 0A3 3 0 0 1 9.178 12h5.644zM19 21.5H5V8.75C5 7.785 5.785 7 6.75 7h.706l.044.127-.005 3.862a4.47 4.47 0 0 0 1.317 3.189A4.47 4.47 0 0 0 12 15.5a4.47 4.47 0 0 0 3.187-1.322 4.47 4.47 0 0 0 1.317-3.189L16.5 7.127 16.544 7h.706c.965 0 1.75.785 1.75 1.75zM9.5 18h5v1.5h-5z"/><circle cx="16.75" cy="18.75" r=".75"/></svg>