<svg xmlns="http://www.w3.org/2000/svg" fill="#002466" viewBox="0 0 24 24"><path d="M12 1C5.925 1 1 5.925 1 12s4.925 11 11 11 11-4.925 11-11S18.075 1 12 1m8.353 6.478-.369.486a.7.7 0 0 0-.105.193l-.426 1.152-.431-.51V7.763a.75.75 0 0 0-.581-.73l-2.843-.659a.75.75 0 0 0-.46.039l-.757.318-.667-.075.136-.506 1.343-.191a.75.75 0 0 0 .645-.743v-.135l.032-.007a.7.7 0 0 0 .267-.119l.788-.557a.8.8 0 0 0 .191-.197l.092-.137a9.6 9.6 0 0 1 3.145 3.414M6.129 4.546l.271.45-.896.674a.75.75 0 0 0 .032 1.223l.904.606.188.336-.1.79-1.762.567a.75.75 0 0 0-.509.584l-.158.903-.204.294-1.384.786a9.48 9.48 0 0 1 3.617-7.213zm-3.196 10.29c.072.031.145.063.224.07l1.701.144a.8.8 0 0 0 .429-.092l.684-.381.206.081.638 1.146-.351.817-.561.097a.75.75 0 0 0-.494.32.75.75 0 0 0-.11.579l.258 1.175v.169a9.5 9.5 0 0 1-2.624-4.125M12 21.5a9.43 9.43 0 0 1-5.044-1.464l.088-.47a.7.7 0 0 0 .013-.139v-.717a.7.7 0 0 0-.018-.161l-.107-.488.189-.033a.75.75 0 0 0 .562-.443l.655-1.53a.75.75 0 0 0-.034-.66l-.947-1.704a.75.75 0 0 0-.384-.335l-.788-.306a.75.75 0 0 0-.637.044l-.791.441-1.127-.096-.301-.42 1.457-.827a.75.75 0 0 0 .247-.226l.395-.57a.75.75 0 0 0 .121-.297l.109-.619 1.785-.575a.75.75 0 0 0 .515-.621l.189-1.508a.75.75 0 0 0-.089-.458l-.395-.708a.76.76 0 0 0-.237-.258l-.177-.118.593-.446a.75.75 0 0 0 .192-.987l-.659-1.093A9.45 9.45 0 0 1 12 2.5c1.37 0 2.67.297 3.848.822l-.454.321-.472.107a.75.75 0 0 0-.584.731v.084l-1.189.169a.75.75 0 0 0-.619.549l-.489 1.827a.75.75 0 0 0 .642.939l1.728.193a.73.73 0 0 0 .374-.054l.714-.3 2.025.47v.715a.75.75 0 0 0 .177.484l1.18 1.397a.75.75 0 0 0 1.039.104l.524-.416a.75.75 0 0 0 .237-.328l.404-1.093c.269.879.416 1.811.416 2.777 0 5.238-4.262 9.5-9.5 9.5zm6.647-9.837-1.138-.424-.216-.507a1 1 0 0 0-.063-.118l-.815-1.245a.74.74 0 0 0-.69-.336l-1.735.147-1.516-.425a.77.77 0 0 0-.538.051l-1.775.888a.8.8 0 0 0-.262.218l-.59.779a.75.75 0 0 0-.149.513l.081.976.224 1.377a.75.75 0 0 0 .416.556l1.439.69a.8.8 0 0 0 .187.061l.906.17.332 1.128.156 1.836a.75.75 0 0 0 .127.358l.609.896a.75.75 0 0 0 .28.247l.699.356a.74.74 0 0 0 .34.082.75.75 0 0 0 .435-.139l.73-.52a.8.8 0 0 0 .178-.178l1.11-1.572a.8.8 0 0 0 .128-.312l.324-2.023.052-1.248 1.015-1.062a.75.75 0 0 0-.28-1.221zm-2.014 1.45a.75.75 0 0 0-.207.487l-.055 1.441-.287 1.763-.937 1.326-.256.183-.123-.062-.391-.574-.146-1.716a1 1 0 0 0-.027-.148l-.483-1.642a.75.75 0 0 0-.582-.525l-1.261-.236-.998-.479-.153-.93-.051-.631.312-.412 1.359-.68 1.368.383a.8.8 0 0 0 .266.025l1.425-.121.533.814.315.743a.75.75 0 0 0 .429.41l.373.139z"/></svg>