<svg xmlns="http://www.w3.org/2000/svg" fill="#002466" viewBox="0 0 24 24"><path d="M1 1.008v7.107h1v11h5v-4.5h2v4.5h3v-1.5h-1.5v-4.5h-5v4.5h-2v-9.5h2v1.991h5V8.115h10.015v2.195h1.5V8.115H23V3.958zm7 7.848a1.25 1.25 0 1 1 0-2.5 1.25 1.25 0 1 1 0 2.5m-2.5-3.75v1.509h-3V2.722l19 2.548v1.344h-11V5.105zm12.627 6.043h-.198a4.78 4.78 0 0 0-4.776 4.776 4.76 4.76 0 0 0 1.301 3.277l3.574 3.791 3.574-3.791a4.76 4.76 0 0 0 1.301-3.277 4.78 4.78 0 0 0-4.775-4.776zm2.383 7.023-2.482 2.633-2.482-2.633a3.27 3.27 0 0 1-.893-2.248 3.28 3.28 0 0 1 3.276-3.276h.198a3.28 3.28 0 0 1 3.275 3.276 3.26 3.26 0 0 1-.893 2.248zM18.025 13.4a2.62 2.62 0 0 0-2.617 2.618 2.62 2.62 0 0 0 2.617 2.618 2.62 2.62 0 0 0 2.618-2.618 2.62 2.62 0 0 0-2.618-2.618m0 3.736a1.12 1.12 0 0 1-1.117-1.118 1.12 1.12 0 0 1 1.117-1.118 1.12 1.12 0 0 1 1.118 1.118 1.12 1.12 0 0 1-1.118 1.118"/></svg>