<svg xmlns="http://www.w3.org/2000/svg" fill="#002466" viewBox="0 0 24 24"><path d="M3 1v22h18V1zm16.5 20.5h-15v-19h15zM8.617 16.518l2.018-2.057a2.74 2.74 0 0 0 1.365.374 2.74 2.74 0 0 0 1.365-.374l2.018 2.057 1.07-1.051-2.033-2.072a2.87 2.87 0 0 0 0-2.79l2.033-2.072-1.07-1.051-2.025 2.064a2.87 2.87 0 0 0-2.715 0L8.617 7.482l-1.07 1.051 2.033 2.072a2.87 2.87 0 0 0 0 2.79l-2.033 2.072zM12 10.666c.344 0 .667.137.911.386a1.36 1.36 0 0 1 0 1.897 1.3 1.3 0 0 1-1.822 0 1.36 1.36 0 0 1 0-1.897c.244-.249.567-.386.911-.386"/></svg>