<svg xmlns="http://www.w3.org/2000/svg" fill="#002466" viewBox="0 0 24 24"><path d="m23 18.97-1.88-1.883a4.46 4.46 0 0 0 .837-2.595c0-2.477-2.013-4.492-4.487-4.492s-4.486 2.015-4.486 4.492 2.013 4.493 4.486 4.493c.967 0 1.858-.315 2.591-.838l1.88 1.883zm-8.519-4.478c0-1.65 1.341-2.992 2.988-2.992s2.989 1.342 2.989 2.992-1.341 2.993-2.989 2.993-2.988-1.343-2.988-2.993m.749 7.008h-3.246v-19h3.246v6.25h1.498V1h-6.241v3.523H5.743v3.523H1V23h15.728v-2.75H15.23zm-9.487 0H2.498V9.547h3.246zm4.743 0H7.241V6.023h3.246z"/></svg>