<svg xmlns="http://www.w3.org/2000/svg" fill="#002466" viewBox="0 0 24 24"><path d="M13.618 12a3.75 3.75 0 0 0-3.743-3.744A3.75 3.75 0 0 0 6.132 12a3.75 3.75 0 0 0 3.743 3.744A3.75 3.75 0 0 0 13.618 12m-5.986 0c0-1.237 1.006-2.244 2.243-2.244s2.243 1.006 2.243 2.244-1.006 2.244-2.243 2.244S7.632 13.237 7.632 12"/><path d="M23 20.875v-1.5h-8.196A8.87 8.87 0 0 0 18.75 12a8.89 8.89 0 0 0-8.875-8.875A8.89 8.89 0 0 0 1 12c0 4.851 3.914 8.801 8.75 8.869M2.5 12c0-4.066 3.309-7.375 7.375-7.375S17.25 7.934 17.25 12s-3.309 7.375-7.375 7.375S2.5 16.066 2.5 12"/></svg>