<svg xmlns="http://www.w3.org/2000/svg" fill="#002466" viewBox="0 0 24 24"><path d="M12 6.125c-6.065 0-11 4.935-11 11v.75h6.729v-1.5h-5.2c.384-4.889 4.484-8.75 9.471-8.75s9.087 3.861 9.471 8.75h-5.2v1.5H23v-.75c0-6.065-4.935-11-11-11m2.278 8.553 2.641-4.576-1.299-.75-2.644 4.581a3.3 3.3 0 0 0-.977-.162 3.36 3.36 0 0 0-3.354 3.354v.75h6.709v-.75c0-.968-.418-1.834-1.076-2.447m-3.975 1.697c.289-.65.94-1.104 1.696-1.104s1.407.454 1.696 1.104h-3.393zm.947-7.792h1.5v1.898h-1.5zm-7.022 4.921.749-1.299 1.645.949-.749 1.299zm13.15-.351 1.645-.949.749 1.299-1.645.949z"/></svg>