<svg xmlns="http://www.w3.org/2000/svg" fill="#002466" viewBox="0 0 24 24"><path d="M13.469 19.75a1.75 1.75 0 0 1-1.746 1.75H4.242a1.75 1.75 0 0 1-1.746-1.75V4.25A1.75 1.75 0 0 1 4.242 2.5h7.481a1.75 1.75 0 0 1 1.746 1.75v1h1.496v-1A3.25 3.25 0 0 0 11.723 1H4.242A3.25 3.25 0 0 0 1 4.25v15.5A3.25 3.25 0 0 0 4.242 23h7.481a3.25 3.25 0 0 0 3.242-3.25V16h-1.496zM5.988 18h3.99v1.5h-3.99zM22.471 3.87a1.05 1.05 0 0 0-1.055.007L17.96 5.915h-2.674a2.87 2.87 0 0 0-2.868 2.859 2.85 2.85 0 0 0 1.384 2.435l.771 2.824a1.66 1.66 0 0 0 1.6 1.217q.215 0 .433-.058a1.65 1.65 0 0 0 1.005-.778 1.64 1.64 0 0 0 .158-1.254l-.418-1.526h.609l3.455 2.038a1.05 1.05 0 0 0 1.056.007c.326-.187.529-.537.529-.913V4.782c0-.376-.203-.726-.529-.913zm-7.185 3.545h2.129v2.719h-2.129c-.756 0-1.372-.61-1.372-1.359s.616-1.359 1.372-1.359zm1.04 6.143a.14.14 0 0 1-.015.112.16.16 0 0 1-.097.074.16.16 0 0 1-.199-.108l-.546-2.002h.329zm5.178-1.574-2.592-1.528V7.093l2.592-1.529v6.418zm-13.521-.506a2.49 2.49 0 0 0 2.483-2.489A2.49 2.49 0 0 0 7.983 6.5 2.49 2.49 0 0 0 5.5 8.989a2.49 2.49 0 0 0 2.483 2.489m0-3.478a.99.99 0 0 1 .987.989.99.99 0 0 1-.987.989.99.99 0 0 1-.987-.989A.99.99 0 0 1 7.983 8m4.564 7.25v-.696a2.72 2.72 0 0 0-2.714-2.721h-3.7a2.72 2.72 0 0 0-2.715 2.721v.696h1.496v-.696a1.22 1.22 0 0 1 1.219-1.221h3.701a1.22 1.22 0 0 1 1.218 1.221v.696z"/></svg>