<svg xmlns="http://www.w3.org/2000/svg" fill="#002466" viewBox="0 0 24 24"><path d="M1 3.464v12.822h6.5v-1.5h-5V4.964h15v9.822h-1v1.5H23V3.464zm20.5 11.322H19V4.964h2.5zM7.734 7.876h-.562a.4.4 0 0 0-.133.029l-1.014.411q-.104.034-.069.145l.185.556q.035.104.144.069l.551-.209v2.88q0 .116.116.116h.782q.116 0 .116-.116V7.992q0-.116-.116-.116m1.784 3.955a1.57 1.57 0 0 0 1.171 0 1.3 1.3 0 0 0 .501-.362q.218-.249.35-.643c.132-.394.133-.58.133-.95s-.044-.687-.133-.95a1.9 1.9 0 0 0-.35-.643 1.3 1.3 0 0 0-.501-.362 1.56 1.56 0 0 0-1.171 0 1.3 1.3 0 0 0-.501.362q-.218.249-.35.643c-.132.394-.133.58-.133.95s.044.688.133.95a1.9 1.9 0 0 0 .35.643 1.3 1.3 0 0 0 .501.362m.189-2.891q.154-.28.397-.281c.243-.001.294.094.396.281s.154.499.154.936a3 3 0 0 1-.041.556 1.3 1.3 0 0 1-.113.368.5.5 0 0 1-.174.206.4.4 0 0 1-.222.064.4.4 0 0 1-.223-.064.5.5 0 0 1-.174-.206 1.3 1.3 0 0 1-.113-.368 3 3 0 0 1-.041-.556q0-.654.154-.936m5.133-.658a1.3 1.3 0 0 0-.501-.362 1.56 1.56 0 0 0-1.171 0 1.3 1.3 0 0 0-.501.362q-.218.249-.35.643c-.132.394-.133.58-.133.95s.044.688.133.95a1.9 1.9 0 0 0 .35.643 1.3 1.3 0 0 0 .501.362 1.57 1.57 0 0 0 1.171 0q.284-.114.501-.362c.217-.248.262-.38.35-.643s.133-.58.133-.95-.044-.687-.133-.95a1.9 1.9 0 0 0-.35-.643m-.576 2.149a1.3 1.3 0 0 1-.113.368.5.5 0 0 1-.174.206.4.4 0 0 1-.222.064.4.4 0 0 1-.223-.064.5.5 0 0 1-.174-.206 1.3 1.3 0 0 1-.113-.368 3 3 0 0 1-.041-.556q0-.654.154-.936c.154-.282.235-.281.397-.281s.294.094.396.281.154.499.154.936a3 3 0 0 1-.041.556M12 14.036c-1.792 0-3.25 1.458-3.25 3.25s1.458 3.25 3.25 3.25 3.25-1.458 3.25-3.25-1.458-3.25-3.25-3.25m0 5c-.965 0-1.75-.785-1.75-1.75s.785-1.75 1.75-1.75 1.75.785 1.75 1.75-.785 1.75-1.75 1.75"/></svg>