<svg xmlns="http://www.w3.org/2000/svg" viewBox="0 0 24 24"><path fill="#002466" d="M16.486 7.475a4.56 4.56 0 0 0-1.907-3.168l-.29-.202.053-.575a2.36 2.36 0 0 0-.606-1.799c-.89-.973-2.584-.973-3.474 0a2.36 2.36 0 0 0-.606 1.799l.053.575-.29.203a4.56 4.56 0 0 0-1.907 3.168H6.74v1.502h.751V23h9.015V8.977h.751V7.475zm-6.205-1.937 1.004-.702-.131-1.443a.84.84 0 0 1 .219-.649.87.87 0 0 1 1.254 0 .84.84 0 0 1 .219.649l-.131 1.443 1.004.702a3.07 3.07 0 0 1 1.25 1.937H9.031a3.07 3.07 0 0 1 1.25-1.937m4.724 15.96h-6.01v-2.755h2.003v-1.502H8.995v-1.502h2.003v-1.502H8.995v-1.502h2.003v-1.502H8.995V8.977h6.01v12.52z"/></svg>