<svg xmlns="http://www.w3.org/2000/svg" fill="#002466" viewBox="0 0 24 24"><path d="M8 20h8v-4.5H8zm1.5-3h5v1.5h-5zm5.75-12.194V4.25C15.25 2.458 13.792 1 12 1S8.75 2.458 8.75 4.25v.556A7 7 0 0 0 5 11v8.75A3.254 3.254 0 0 0 8.25 23h7.5A3.254 3.254 0 0 0 19 19.75V11a7 7 0 0 0-3.75-6.194M12 2.5a1.75 1.75 0 0 1 1.748 1.73C13.188 4.085 12.604 4 12 4s-1.188.085-1.748.23A1.75 1.75 0 0 1 12 2.5m5.5 17.25c0 .965-.785 1.75-1.75 1.75h-7.5c-.965 0-1.75-.785-1.75-1.75V11A5.51 5.51 0 0 1 12 5.5a5.51 5.51 0 0 1 5.5 5.5zM9 9h6v1.5H9z"/></svg>