<svg xmlns="http://www.w3.org/2000/svg" fill="#002466" viewBox="0 0 24 24"><path d="M6.5 6.8a2.91 2.91 0 0 0 2.909-2.9A2.91 2.91 0 0 0 6.5 1a2.91 2.91 0 0 0-2.909 2.9A2.91 2.91 0 0 0 6.5 6.8m0-4.305A1.41 1.41 0 0 1 7.909 3.9 1.41 1.41 0 0 1 6.5 5.305 1.41 1.41 0 0 1 5.091 3.9 1.41 1.41 0 0 1 6.5 2.495M23 16.401l-1.135-3.941h-2.884v-1.884h-7.003a3.187 3.187 0 0 0-3.176-2.974H4.197A3.195 3.195 0 0 0 1 10.788v.861h1.5v-.861c0-.933.762-1.692 1.697-1.692h4.605c.862 0 1.569.647 1.676 1.479H6v10.54h2.118a2.26 2.26 0 0 0 4.447 0h5.192A2.26 2.26 0 0 0 19.981 23a2.255 2.255 0 0 0 2.244-2.067H23zm-1.5 2.683a2.25 2.25 0 0 0-1.519-.595 2.24 2.24 0 0 0-1 .243v-1.574H21.5zm-.756-5.129.506 1.708h-2.269v-1.708zm-10.402 7.541a.75.75 0 0 1-.645-.38h1.29a.75.75 0 0 1-.645.38m7.14-1.875H7.5v-7.55h9.981zm2.5 1.884a.76.76 0 0 1-.762-.76.762.762 0 0 1 1.524 0 .76.76 0 0 1-.763.76z"/></svg>