<svg xmlns="http://www.w3.org/2000/svg" viewBox="0 0 24 24"><path fill="#002466" d="M16.84 3.724c-2.066 0-3.769.804-4.841 2.243-1.074-1.44-2.774-2.243-4.839-2.243A6.17 6.17 0 0 0 1 9.884a8.5 8.5 0 0 0 .68 3.346c.931 2.196 2.616 3.918 4.771 4.992l-.638 1.449 1.373.604.649-1.475c2.561.878 5.768.878 8.328 0l.649 1.475 1.373-.604-.638-1.449c2.155-1.074 3.841-2.796 4.771-4.992A8.5 8.5 0 0 0 23 9.884a6.17 6.17 0 0 0-6.16-6.16M7.058 16.845c-1.811-.92-3.22-2.367-3.997-4.2A7.05 7.05 0 0 1 2.5 9.884c0-2.57 2.091-4.66 4.66-4.66 1.862 0 3.275.795 4.017 2.258l-4.119 9.364zm1.385.575L12 9.336l3.558 8.084c-2.189.722-4.926.722-7.115 0m12.497-4.775c-.777 1.834-2.187 3.28-3.997 4.2l-4.12-9.364c.737-1.459 2.151-2.257 4.018-2.257 2.569 0 4.66 2.09 4.66 4.66 0 .954-.188 1.882-.561 2.761"/></svg>