<svg xmlns="http://www.w3.org/2000/svg" fill="#002466" viewBox="0 0 24 24"><path d="M22.121 12.459a3 3 0 0 0-4.242 0l1.061 1.061a1.54 1.54 0 0 1 2.121 0 1.49 1.49 0 0 1 0 2.121l1.061 1.061A2.98 2.98 0 0 0 23 14.58a2.98 2.98 0 0 0-.879-2.121M15.75 13.67c-2.481 0-4.5 2.019-4.5 4.5s2.019 4.5 4.5 4.5 4.5-2.019 4.5-4.5-2.019-4.5-4.5-4.5m0 7.5c-1.654 0-3-1.346-3-3s1.346-3 3-3 3 1.346 3 3-1.346 3-3 3m.416-4.999h-.562a.4.4 0 0 0-.133.029l-1.015.412q-.104.034-.069.145l.185.557q.034.105.145.07l.55-.209v2.881q0 .116.116.116h.782q.116 0 .116-.116v-3.768q0-.116-.116-.116zM9.75 10.4l-4.056 2.383.76 1.293 4.796-2.818V4.854h-1.5zm-7.25.43a8.01 8.01 0 0 1 8-8 8.01 8.01 0 0 1 8 8H20c0-5.238-4.262-9.5-9.5-9.5S1 5.591 1 10.83s4.262 9.5 9.5 9.5v-1.5a8.01 8.01 0 0 1-8-8"/></svg>