<svg xmlns="http://www.w3.org/2000/svg" viewBox="0 0 24 24"><path fill="#002466" d="M18.647 10.699c-.218 0-.426.033-.635.064L15.96 4.584H12.5v1.5h2.378l.779 2.346-4.992 2.745-1.754-3.76V6.104H5.492v1.5h1.851L9.348 11.9l-.673.37c-.8-.952-1.984-1.571-3.323-1.571-2.403 0-4.358 1.955-4.358 4.358s1.955 4.359 4.358 4.359S9.71 17.46 9.71 15.057a4.3 4.3 0 0 0-.28-1.491l6.706-3.688.452 1.361c-1.362.738-2.301 2.163-2.301 3.818 0 2.403 1.955 4.359 4.358 4.359s4.358-1.956 4.358-4.359-1.955-4.358-4.358-4.358zM8.211 15.057c0 1.576-1.282 2.859-2.858 2.859s-2.858-1.283-2.858-2.859 1.282-2.858 2.858-2.858c.771 0 1.469.31 1.983.808L4.802 14.4l.723 1.314L8.096 14.3a2.8 2.8 0 0 1 .115.757m10.437 2.859a2.856 2.856 0 0 1-1.579-5.238l.924 2.781 1.424-.473-.921-2.773c.052-.003.101-.015.153-.015 1.576 0 2.858 1.282 2.858 2.858s-1.282 2.859-2.858 2.859z"/></svg>