<svg xmlns="http://www.w3.org/2000/svg" viewBox="0 0 24 24"><path fill="#002466" d="m18.195 8.422.071-.668.01-.115c.052-.584-.021-1.12-.217-1.592-.428-1.034-1.179-1.463-1.89-1.601a1.94 1.94 0 0 0 1.099-1.742V1h-1.703c-.879 0-1.615.593-1.851 1.398a3.1 3.1 0 0 0-2.071-.803v1.502c.823 0 1.499.618 1.606 1.414l-.084-.028c-.66-.195-1.95-.19-2.776.874a6 6 0 0 0-.499-.538C8.357 3.376 6.304 2.96 4.256 3.681l-1.131.399-.024.642-1.311-.035-.041 1.501 1.295.035-.021.561 1.263.125c1.515.151 2.801 1.112 3.427 2.449L5 8.026V23h14V8.028zM15.128 2.94a.44.44 0 0 1 .438-.438h.203v.201a.44.44 0 0 1-.439.44h-.201zm-3.76 3.681c.369-.89 1.152-.757 1.349-.706l.317.106a3.14 3.14 0 0 0 1.974 0l.284-.096c.231-.062 1.015-.196 1.382.695.103.246.139.544.108.885l-.011.119c-.037.433-.093 1.036-.27 1.626l-.338.165-2.087-1.021-2.083 1.021-.283-.139a5.7 5.7 0 0 0-.411-2.379c.019-.095.034-.194.068-.277zm-6.792-1.19.011-.273.168-.059c1.499-.529 2.997-.23 4.108.816a4.34 4.34 0 0 1 1.331 2.619l-.282-.138-.813.398c-.815-1.801-2.51-3.111-4.523-3.363M17.5 21.498h-11V10.436l1.33.653 2.082-1.022 2.082 1.021 2.083-1.021 2.087 1.021 1.336-.654v11.063z"/></svg>