<svg xmlns="http://www.w3.org/2000/svg" fill="#002466" viewBox="0 0 24 24"><path d="M6.879 12.419a3.08 3.08 0 0 0 3.075-3.076 3.08 3.08 0 0 0-3.075-3.076 3.08 3.08 0 0 0-3.076 3.076 3.08 3.08 0 0 0 3.076 3.076m0-4.652a1.58 1.58 0 0 1 1.575 1.576 1.58 1.58 0 0 1-1.575 1.576 1.58 1.58 0 0 1-1.576-1.576 1.58 1.58 0 0 1 1.576-1.576m8.674 4.203a3.04 3.04 0 0 0 1.576.449 3.04 3.04 0 0 0 1.575-.448v.955h1.5V9.343a3.08 3.08 0 0 0-3.075-3.076 3.08 3.08 0 0 0-3.076 3.076v3.583h1.5zm2.97-3.345a1.8 1.8 0 0 1-.979-.35 3.3 3.3 0 0 0-.864-.435 1.6 1.6 0 0 1 .449-.073 1.57 1.57 0 0 1 1.394.858m-2.952.537c.655.044.878.187 1.141.362.439.293.876.526 1.776.601a1.57 1.57 0 0 1-1.359.794 1.58 1.58 0 0 1-1.576-1.576c0-.062.011-.121.018-.181m4.038 4.249H14.64c-1.072 0-2.019.51-2.641 1.29a3.37 3.37 0 0 0-2.641-1.29H4.391A3.395 3.395 0 0 0 1 16.801v.932h1.5v-.932c0-1.042.848-1.89 1.891-1.89H9.36c1.043 0 1.891.848 1.891 1.89v.932h1.5v-.932c0-1.042.848-1.89 1.891-1.89h4.969c1.043 0 1.891.848 1.891 1.89v.932H23v-.932a3.394 3.394 0 0 0-3.391-3.39"/></svg>