<svg xmlns="http://www.w3.org/2000/svg" viewBox="0 0 24 24"><path fill="#002466" d="M18.644 10.699c-.217 0-.426.033-.635.064l-2.051-6.179H12.5v1.5h2.377l.779 2.346-3.675 2.022-.84-1.802-1.357.633-.871-1.867V6.104H5.496v1.5h1.85L9.349 11.9l-.672.37c-.8-.952-1.983-1.571-3.321-1.571C2.954 10.699 1 12.654 1 15.057s1.954 4.359 4.356 4.359 4.356-1.956 4.356-4.359c0-.526-.108-1.024-.28-1.491l.551-.303.59 1.266 1.359-.634 1.357-.633-.674-1.447 3.521-1.937.452 1.361c-1.362.738-2.299 2.163-2.299 3.818 0 2.403 1.954 4.359 4.356 4.359S23 17.46 23 15.057s-1.954-4.358-4.356-4.358M8.213 15.057a2.86 2.86 0 0 1-2.857 2.859 2.86 2.86 0 0 1-2.857-2.859 2.86 2.86 0 0 1 2.857-2.858c.77 0 1.468.31 1.982.808L4.806 14.4l.722 1.314 2.57-1.414c.067.243.115.493.115.757m10.431 2.859a2.86 2.86 0 0 1-2.857-2.859c0-.992.509-1.866 1.278-2.379l.923 2.781 1.423-.473-.92-2.773c.052-.003.101-.015.153-.015a2.86 2.86 0 0 1 2.857 2.858 2.86 2.86 0 0 1-2.857 2.859z"/></svg>