<svg xmlns="http://www.w3.org/2000/svg" viewBox="0 0 24 24"><path fill="#002466" d="m23 4.712-5.08-3.665-.487 3.279c-.119-.001-.238-.009-.356.008-.792.114-1.499.625-1.939 1.399-.632 1.114-2.035 2.801-4.171 5.015l-.046.047c-1.358 1.409-3.125 2.668-4.415 3.588l-1.004.727c-.676.509-1.074 1.217-1.122 1.993-.005.083.01.164.013.246L1 18.033l3.812 4.919 1.485-3.079a2.9 2.9 0 0 0 1.084.222c.428 0 .86-.099 1.276-.301.833-.404 4.291-2.853 6.405-5.043 2.013-2.088 4.491-5.304 4.908-6.373.308-.786.327-1.491.05-2.153zM4.513 20.121l-.848-1.094 1.151-.231.207.267zM18.576 7.83c-.252.643-2.364 3.568-4.591 5.878-2.118 2.194-5.413 4.46-5.981 4.736-.34.165-1.017.339-1.74-.361-.272-.263-.406-.57-.386-.887.02-.331.208-.645.528-.886l.972-.704c1.338-.954 3.17-2.26 4.625-3.77l.045-.046c2.254-2.336 3.692-4.075 4.395-5.315.209-.369.518-.607.849-.655.297-.044.59.064.848.313.672.649.672 1.098.437 1.698zm.594-2.855-.288-.207.158-1.064 1.088.784z"/></svg>