<svg xmlns="http://www.w3.org/2000/svg" fill="#002466" viewBox="0 0 24 24"><path d="M2.5 2.5H5V1H1v4h1.5zm0 16.5H1v4h4v-1.5H2.5zm19 2.5H19V23h4v-4h-1.5zM19 1v1.5h2.5V5H23V1zM4 11.25h7.25V4H4zM5.5 5.5h4.25v4.25H5.5zM20 4h-7.25v7.25H20zm-1.5 5.75h-4.25V5.5h4.25zM4 20h7.25v-7.25H4zm1.5-5.75h4.25v4.25H5.5zm12-1.5h-4.75V20h1.5v-5.75h3.25zm2.5 0h-1.5v5.75h-3.25V20H20z"/><circle cx="7.625" cy="7.625" r=".75"/><circle cx="7.625" cy="16.375" r=".75"/><circle cx="16.375" cy="7.625" r=".75"/><circle cx="16.375" cy="16.375" r=".75"/></svg>