<svg xmlns="http://www.w3.org/2000/svg" viewBox="0 0 24 24"><path fill="#002466" d="M12 2.744c-6.065 0-11 4.935-11 11 0 4.143 3.37 7.513 7.513 7.513h6.975c4.143 0 7.513-3.37 7.513-7.513 0-6.065-4.935-11-11-11zm0 1.5a9.5 9.5 0 0 1 2.121.247l-1.957 1.957-2.019-2.019A9.5 9.5 0 0 1 12 4.244m3.487 15.513H8.513A6.02 6.02 0 0 1 2.5 13.744c0-4.006 2.496-7.433 6.012-8.828l2.592 2.592-2.949 2.949 1.061 1.061 2.949-2.949 2.949 2.949 1.061-1.061-2.949-2.949 2.501-2.501c3.391 1.452 5.774 4.821 5.774 8.737a6.02 6.02 0 0 1-6.013 6.013z"/></svg>