<svg xmlns="http://www.w3.org/2000/svg" fill="#002466" viewBox="0 0 24 24"><path d="M15.172 2.25h-.004c-7.378 0-13.38 5.726-13.38 12.764v2.736c0 .425-.407 1.361-.696 1.89L1 19.809V20c0 .599 0 1.713 7.851 1.75 7.367 0 13.361-5.718 13.361-12.746V6.25c0-.425.407-1.361.696-1.89L23 4.191V4c0-.599 0-1.713-7.828-1.75m-5.04 17.932-3.36-3.687-1.109 1.01 2.493 2.735c-2.172-.041-4.501-.22-5.45-.475.26-.561.582-1.383.582-2.016v-2.736c0-4.515 2.823-8.408 6.879-10.202l2.404 2.462 1.074-1.047-1.938-1.986a12.4 12.4 0 0 1 3.461-.491c2.34.012 5.079.202 6.127.483-.26.562-.582 1.384-.582 2.017V8.4l-1.866-1.923-1.076 1.045 2.834 2.92c-.695 5.126-5.035 9.184-10.472 9.739zm2.433-7.994 1.084-1.037 2.671 2.794-1.084 1.037zm-7.879.004 1.104-1.015 2.557 2.779-1.104 1.015z"/></svg>