<svg xmlns="http://www.w3.org/2000/svg" fill="#002466" viewBox="0 0 24 24"><path d="M2.504 11.347h4.504V12.5H8.51V6.75H7.273v-2.5H2.242v2.5H1l.005 13H3.54v-1.5H2.507zm1.24-5.597h2.027v1H3.744zm-1.242 2.5h4.506v1.597H2.503zm14.753 6.584A1.09 1.09 0 0 0 16.194 14H7.472c-.506 0-.942.343-1.058.822l-.497 1.906h-.911v1.5h.861L6.379 23h10.907l.513-4.772h.861v-1.5h-.911zm-9.467.666h8.089l.32 1.228H12.55l-.202.433a.55.55 0 0 1-.514.327h-.001a.55.55 0 0 1-.513-.327l-.202-.433h-3.65zm8.149 6H7.729l-.351-3.272h2.849a2.05 2.05 0 0 0 1.605.76h.001a2.05 2.05 0 0 0 1.606-.76h2.849zM18.944 1v5.991h-4.942L14.001 1H9.94l-.002 11.5h1.502l.002-10h1.057l.001 5.991h7.946V2.5h1.052v16h-1.473V20H23V1z"/></svg>