<svg xmlns="http://www.w3.org/2000/svg" viewBox="0 0 24 24"><path fill="#002466" d="m1.477 17.22 4.243-4.243 1.06 1.061-4.242 4.243zM5.72 21.462l4.243-4.243 1.06 1.061-4.242 4.243zM5.366 17.573l2.475-2.475 1.06 1.06-2.474 2.476zM22.008 2.044a1.75 1.75 0 0 0-1.266-.544v.008c-3.367.003-6.494 1.49-8.596 4.07L9.22 4.993c-.86-.167-1.602.073-2.264.736l-2.899 2.9c-.373.372-.526.844-.42 1.293.104.45.45.805.906.959l3.228 1.32 4.028 4.028 1.303 3.182c.169.5.523.846.973.952q.14.033.282.033c.36 0 .717-.158 1.013-.454l2.9-2.899c.662-.662.903-1.403.735-2.269l-.584-2.92a11.04 11.04 0 0 0 4.07-8.596h.007c0-.47-.187-.9-.49-1.214M8.018 6.789c.31-.31.55-.396.913-.325l2.13.426-3.094 3.769-2.71-1.108zm9.192 9.193-2.762 2.758-1.107-2.707 3.769-3.095.425 2.126c.071.368-.014.607-.324.918m.187-5.22-4.91 4.032-3.281-3.28 4.039-4.918c1.824-2.28 4.56-3.588 7.505-3.588a.25.25 0 0 1 .176.073c.04.045.066.104.066.17a9.56 9.56 0 0 1-3.595 7.51Z"/><path fill="#002466" d="M15.266 5.552a2.254 2.254 0 0 0 0 3.183c.439.438 1.015.657 1.591.657s1.152-.22 1.59-.658a2.253 2.253 0 0 0 0-3.182 2.253 2.253 0 0 0-3.18 0m2.121 2.121a.75.75 0 1 1-1.061-1.061.75.75 0 0 1 1.061 1.061"/></svg>