<svg xmlns="http://www.w3.org/2000/svg" fill="#002466" viewBox="0 0 24 24"><path d="M11.253 3.907v8.087h1.499V3.907l2.269 2.314 1.07-1.051L12.003 1 7.915 5.17l1.07 1.051zm6.44 3.053-.625 1.365 2.921 1.339-3.955 1.369a7.3 7.3 0 0 0-4.782 6.835V23h1.499v-5.132a5.79 5.79 0 0 1 3.784-5.421l3.998-1.384-1.415 2.946 1.351.65L23 9.393zm-9.74 4.068L4.01 9.664l2.921-1.339-.625-1.365L1 9.393l2.529 5.266 1.351-.65-1.415-2.946 3.986 1.379a5.75 5.75 0 0 1 2.669 1.999l1.206-.891a7.26 7.26 0 0 0-3.374-2.522z"/></svg>