<svg xmlns="http://www.w3.org/2000/svg" fill="#002466" viewBox="0 0 24 24"><path d="M14.064 1H1v12.5h13.064zM6.872 2.5h1.32v2.308h-1.32zm5.692 9.5H2.5V2.5h2.872v3.808h4.32V2.5h2.872zm3.221-10.33v1.619A9.53 9.53 0 0 1 21.5 12c0 5.238-4.262 9.5-9.5 9.5a9.44 9.44 0 0 1-8.229-4.75H6.5v-1.5H1v5.5h1.5v-3.195A10.93 10.93 0 0 0 12 23c6.065 0 11-4.935 11-11 0-4.601-2.899-8.748-7.215-10.33M5.829 7.311a1.5 1.5 0 0 0-.499.084 1.1 1.1 0 0 0-.396.242 1.1 1.1 0 0 0-.261.389q-.094.231-.094.525c0 .294.024.371.073.523a1.1 1.1 0 0 0 .207.383.9.9 0 0 0 .313.237.9.9 0 0 0 .394.082 1 1 0 0 0 .263-.026.8.8 0 0 0 .187-.066.4.4 0 0 0 .124-.092 1 1 0 0 0 .078-.1h.026q-.063.425-.281.602c-.218.177-.337.176-.575.176a3 3 0 0 1-.191-.008 1.4 1.4 0 0 1-.218-.034q-.116-.031-.132.089l-.073.541q-.011.09.078.121.121.036.271.061a2 2 0 0 0 .328.023 1.9 1.9 0 0 0 .707-.131 1.4 1.4 0 0 0 .543-.392q.226-.26.35-.649c.124-.389.124-.56.124-.904q0-.873-.354-1.274c-.354-.401-.567-.402-.991-.402zm.25 1.721a.5.5 0 0 1-.234.055q-.189 0-.312-.134c-.123-.134-.123-.234-.123-.433q0-.252.115-.365a.4.4 0 0 1 .284-.113q.094 0 .173.032a.3.3 0 0 1 .137.124q.058.091.095.255a2.4 2.4 0 0 1 .047.431.6.6 0 0 1-.181.15zm3.512-1.618a1.4 1.4 0 0 0-.53-.103 1.4 1.4 0 0 0-.531.103 1.2 1.2 0 0 0-.454.329 1.7 1.7 0 0 0-.317.583q-.121.357-.121.862c0 .505.04.624.121.862a1.8 1.8 0 0 0 .317.584 1.16 1.16 0 0 0 .454.328 1.4 1.4 0 0 0 .531.103 1.4 1.4 0 0 0 .53-.103q.258-.103.455-.328a1.7 1.7 0 0 0 .317-.584q.12-.357.121-.862a2.7 2.7 0 0 0-.121-.862 1.7 1.7 0 0 0-.317-.583 1.2 1.2 0 0 0-.455-.329m-.068 2.278a1.2 1.2 0 0 1-.102.334.46.46 0 0 1-.158.187.37.37 0 0 1-.202.058.37.37 0 0 1-.202-.058q-.092-.058-.158-.187c-.066-.129-.078-.197-.103-.334s-.036-.305-.036-.504q0-.594.139-.849c.139-.255.213-.255.36-.255s.267.085.36.255.139.453.139.849q0 .3-.037.504"/></svg>