<svg xmlns="http://www.w3.org/2000/svg" viewBox="0 0 24 24"><path fill="#002466" d="M21.436 5.481a2.04 2.04 0 0 0-1.908-.669l-4.248.869c.134-.371.22-.765.22-1.182 0-1.93-1.57-3.5-3.5-3.5S8.5 2.57 8.5 4.5a3.5 3.5 0 0 0 .219 1.181L4.454 4.81a2.03 2.03 0 0 0-1.891.673c-.362.422-.535.982-.474 1.535s.351 1.062.796 1.396l.615.461v.375c0 1.283.884 2.364 2.075 2.666a3.01 3.01 0 0 0 2.159 2.235l-1.558 4.545a3.21 3.21 0 0 0 .43 2.943A3.21 3.21 0 0 0 9.25 23h5.5c1.063 0 2.026-.496 2.645-1.36s.774-1.938.43-2.944l-1.558-4.545a3.01 3.01 0 0 0 2.16-2.235 2.756 2.756 0 0 0 2.074-2.666v-.375l.614-.461a2.03 2.03 0 0 0 .798-1.396 2.03 2.03 0 0 0-.476-1.537zM12 2.5c1.103 0 2 .897 2 2s-.897 2-2 2-2-.897-2-2 .897-2 2-2m8.215 4.713L19 8.125V9.25a1.25 1.25 0 0 1-1.25 1.25H17v.75a1.5 1.5 0 0 1-1.5 1.5h-1.3l2.206 6.432A1.73 1.73 0 0 1 14.75 21.5h-5.5a1.73 1.73 0 0 1-1.424-.733 1.73 1.73 0 0 1-.231-1.585L9.8 12.75H8.5a1.5 1.5 0 0 1-1.5-1.5v-.75h-.75A1.25 1.25 0 0 1 5 9.25V8.125l-1.215-.912a.517.517 0 0 1-.083-.754.52.52 0 0 1 .47-.177l6.112 1.249c.509.29 1.09.469 1.716.469s1.203-.178 1.711-.466l6.101-1.249a.522.522 0 0 1 .609.568.5.5 0 0 1-.206.359z"/></svg>