<svg xmlns="http://www.w3.org/2000/svg" fill="#002466" viewBox="0 0 24 24"><path d="m11.008 4.563.481-.182v3.218a.24.24 0 0 0 .261.262h.922c.159 0 .261-.103.261-.262V3.154c0-.159-.102-.262-.261-.262h-.663a.5.5 0 0 0-.204.043l-1.188.483c-.148.049-.21.175-.161.329l.219.657c.048.147.175.21.333.159m7.377 4.113c.146.078.289.033.367-.114a.6.6 0 0 1 .213-.245c.145-.086.366-.115.505.01q.086.074.085.231a.32.32 0 0 1-.148.295q-.173.113-.581.113h-.109a.21.21 0 0 0-.221.221v.711c0 .134.087.221.221.221h.109q.43 0 .622.107a.28.28 0 0 1 .155.268c0 .108 0 .36-.565.36a2 2 0 0 1-.4-.038 1.4 1.4 0 0 1-.28-.091c-.104-.054-.18-.04-.225-.02q-.102.047-.139.187l-.182.686a.25.25 0 0 0 .13.312q.186.097.484.165a3 3 0 0 0 .661.068 2.8 2.8 0 0 0 .819-.108q.36-.11.61-.313c.25-.203.295-.305.381-.498a1.55 1.55 0 0 0 .127-.628q0-.268-.084-.484a1.2 1.2 0 0 0-.226-.366 1.1 1.1 0 0 0-.333-.244l-.062-.027a1.1 1.1 0 0 0 .302-.269 1.3 1.3 0 0 0 .198-.371 1.5 1.5 0 0 0 .075-.482 1.35 1.35 0 0 0-.11-.549 1.2 1.2 0 0 0-.312-.428 1.5 1.5 0 0 0-.478-.27 1.9 1.9 0 0 0-.619-.096c-.423 0-.775.088-1.046.263a1.76 1.76 0 0 0-.628.738c-.074.133-.036.266.101.347l.585.338zM3.192 6.785l.711.212a.26.26 0 0 0 .207-.015q.091-.051.121-.178a.84.84 0 0 1 .158-.345q.086-.1.254-.1c.128 0 .173.047.195.082a.5.5 0 0 1 .069.286 1 1 0 0 1-.135.506 3.5 3.5 0 0 1-.413.531L3.207 9.005a.35.35 0 0 0-.104.252v.623c0 .159.102.262.261.262h2.768c.159 0 .261-.103.261-.262v-.752c0-.159-.102-.262-.261-.262H5.028l.373-.382.309-.334a3.4 3.4 0 0 0 .31-.419 2.5 2.5 0 0 0 .24-.511 1.9 1.9 0 0 0 .1-.615 1.6 1.6 0 0 0-.108-.596 1.34 1.34 0 0 0-.319-.485 1.5 1.5 0 0 0-.515-.318 2.1 2.1 0 0 0-1.25-.037 1.5 1.5 0 0 0-.496.246q-.223.17-.394.427c-.171.257-.203.384-.266.629-.04.155.031.276.181.315zm12.974 6.744v-4.18H7.834v2.28H1v9.479h22v-7.58h-6.834zm-8.332 6.08H2.499V13.13h5.335zm6.833-6.08v6.08H9.333V10.85h5.334zm6.834 6.08h-5.335v-4.58h5.335z"/></svg>