<svg xmlns="http://www.w3.org/2000/svg" fill="#002466" viewBox="0 0 24 24"><path d="m14.117 2.11-2.463 2.434 1.054 1.066 1.42-1.403 7.375 7.152v9.033h-4.414V14.48h-5.933v5.912H6.741v-6.494H5.243v7.992h7.411v-5.912h2.936v5.912H23V10.724zm-6.21 8.719.022-.013 1.75.162 1.227-2.126L9.86 7.447l1.049-1.463L9.68 3.855l-1.751.162-.754-1.608H4.734l-.736 1.597-.019.011-1.751-.162L1 5.982l1.047 1.406.001.06L1.001 8.85l1.227 2.126 1.749-.162.756 1.608h2.441l.733-1.595zm-1.693.096h-.521l-.531-1.153-.846-.493-1.271.118-.254-.44.756-1.014-.005-1.055-.752-1.01.255-.442 1.269.117.844-.487.535-1.158h.521l.535 1.158.844.487 1.269-.117.255.441-.756 1.008v1.06l.755 1.012-.254.44-1.27-.118-.848.492z"/><path d="M5.954 5.366c-1.131 0-2.051.92-2.051 2.05s.92 2.05 2.051 2.05 2.05-.92 2.05-2.05-.92-2.05-2.05-2.05m0 2.602a.552.552 0 0 1 0-1.104.55.55 0 1 1 0 1.103z"/></svg>