<svg xmlns="http://www.w3.org/2000/svg" viewBox="0 0 24 24"><path fill="#002466" d="M20.63 6.676c-.019-.015-.041-.024-.06-.038l.004-.005L15.812 2.8l-.941 1.168 3.168 2.55a2.23 2.23 0 0 0-1.064 1.912v3.828l2.998 2.332v5.328c0 .873-.71 1.582-1.582 1.582h-5.665V1H2.528v22H18.39a3.086 3.086 0 0 0 3.082-3.082V8.431c0-.686-.307-1.325-.842-1.754zM11.225 2.5v3.47H4.028V2.5zm-7.197 19V7.47h7.197V21.5zm15.943-8.81-1.498-1.165V8.431c0-.354.241-.654.587-.731a.75.75 0 0 1 .631.147c.178.143.28.356.28.584z"/></svg>