<svg xmlns="http://www.w3.org/2000/svg" viewBox="0 0 24 24"><path fill="#002466" d="m20.596 15.506-2.31-2.31a3.25 3.25 0 0 0 .477-1.696V9.625l2.935 2.935 1.061-1.061-3.995-3.995V7.5h-8.017c-.076-1.182-.421-3.443-1.89-4.97C7.878 1.515 6.588 1 5.021 1h-.75v2.671L2.006 5.756a2.025 2.025 0 0 0-.387 2.503c.46.805 1.405 1.199 2.243.965l1.65-.317V11.5a3.1 3.1 0 0 0 .237 1.201l-2.818 2.812-.256-.732-1.434.438C2.663 19.873 6.892 23 11.763 23s9.1-3.127 10.521-7.781l-1.434-.438a10 10 0 0 1-.254.725M5.518 19.178l4.428-4.427 3.647.003 4.419 4.419c-1.684 1.468-3.878 2.327-6.25 2.327s-4.562-.856-6.245-2.322zM19.06 18.1l-4.846-4.845-4.89-.005-4.855 4.855a9.5 9.5 0 0 1-.834-1.174l3.556-3.55.504-.422-.411-.523a1.74 1.74 0 0 1-.271-.936V7.092l-3.489.673a.53.53 0 0 1-.602-.25.53.53 0 0 1 .101-.656l2.749-2.53V2.554c.805.124 1.463.458 1.998 1.012 1.581 1.638 1.495 4.626 1.494 4.656L9.235 9h8.027v2.5c0 .435-.16.851-.38 1.104l-.707.603 3.719 3.719q-.375.624-.834 1.175z"/></svg>