<svg xmlns="http://www.w3.org/2000/svg" viewBox="0 0 24 24"><path fill="#002466" d="M22.991 12.089a3.27 3.27 0 0 0-1.741-2.911l-6.769-3.584a3.17 3.17 0 0 0-4.451 1.315l-.048.096A2.24 2.24 0 0 1 7.938 8.25H7.93a2.31 2.31 0 0 1-1.927-1.04l-.608-.921a2.39 2.39 0 0 0-1.999-1.075A2.4 2.4 0 0 0 .999 7.609l.025 8.237h.005l.029 3h6.565l.75-1h.75l.75 1h9.875c1.706 0 3.095-1.326 3.225-3H23zM3.396 6.714a.89.89 0 0 1 .747.402l.608.921c.707 1.069 1.894 1.709 3.227 1.713 1.423.011 2.704-.789 3.347-2.075l.048-.096c.21-.42.573-.724 1.023-.857s.921-.074 1.354.18l.362.192-1.088 1.946 1.309.732 1.105-1.976 1.181.626-1.105 1.957 1.307.737 1.125-1.992 2.603 1.379a1.77 1.77 0 0 1 .944 1.583l.006 2.259H2.521L2.5 7.607a.9.9 0 0 1 .896-.894zM19.75 17.346h-9.125l-.75-1h-2.25l-.75 1h-4.33l-.015-1.5h18.944a1.75 1.75 0 0 1-1.725 1.5z"/></svg>