<svg xmlns="http://www.w3.org/2000/svg" fill="#002466" viewBox="0 0 24 24"><path d="M6.979 22.591H22.94V7.299H6.979zm6.964-13.792h2.032v3.274h-2.032zm-5.468 0h3.972v4.774h5.025V8.799h3.972v12.292H8.475zm1.988-3.488-.681-.683h10.354l-.681.683 1.058 1.061L23 3.878l-2.487-2.493-1.058 1.061.681.682H9.783l.68-.682-1.058-1.061-2.487 2.493 2.487 2.493zm-5.547 5.523 1.058-1.061L3.487 7.28 1 9.773l1.058 1.061.681-.682v9.592l-.681-.683L1 20.121l2.487 2.493 2.487-2.493-1.058-1.061-.681.683v-9.592z"/></svg>