<svg xmlns="http://www.w3.org/2000/svg" fill="#002466" viewBox="0 0 24 24"><path d="M22.703 9.095c-.922-2.225-3.03-2.265-4.045-1.968l-.434.145-.037.009v-.092c0-.133-.026-.258-.039-.388h1.192a2.263 2.263 0 0 0 2.26-2.26V2.376h-2.165a2.26 2.26 0 0 0-2.253 2.188 3.98 3.98 0 0 0-2.995-1.376v1.5c1.379 0 2.5 1.122 2.5 2.5v.092l-.038-.009-.459-.152c-.986-.292-3.096-.253-4.019 1.975-.25.602-.343 1.29-.276 2.044l.015.166c.109 1.256.313 3.594 1.928 5.138.53.508 1.259.771 1.954.756a6 6 0 0 0 1.12-.166 2.26 2.26 0 0 1 1.051 0c.403.096.78.152 1.12.166l.099.002c.677 0 1.349-.273 1.855-.758 1.617-1.547 1.819-3.888 1.928-5.145l.014-.159c.068-.753-.024-1.441-.275-2.044zm-4.028-4.458a.76.76 0 0 1 .76-.76h.665v.665a.76.76 0 0 1-.76.76h-.665zm2.795 6.533c-.098 1.135-.262 3.034-1.47 4.19a1.2 1.2 0 0 1-.858.341 4.4 4.4 0 0 1-.83-.125 3.8 3.8 0 0 0-1.749 0 4.3 4.3 0 0 1-.829.125 1.18 1.18 0 0 1-.858-.341c-1.207-1.154-1.372-3.051-1.471-4.185l-.015-.169c-.045-.511.011-.96.167-1.337.412-.993 1.157-1.184 1.67-1.184a2 2 0 0 1 .515.065l.434.145a4.02 4.02 0 0 0 2.524 0l.402-.135c.265-.074 1.606-.361 2.217 1.11.156.376.212.826.166 1.336zm-4.082 7.207a4.5 4.5 0 0 1 .126 1.061c0 .697-.566 1.264-1.264 1.264H3.764A1.265 1.265 0 0 1 2.5 19.438c0-2.217 1.62-4.051 3.736-4.41v1.993h1.5v-2.069h1.521v2.069h1.5v-2.069h.743v-1.5H6.986A5.99 5.99 0 0 0 1 19.437a2.77 2.77 0 0 0 2.764 2.764H16.25a2.77 2.77 0 0 0 2.764-2.764 6 6 0 0 0-.167-1.412zM5.305 9.701a2.1 2.1 0 0 0 2.098 2.098A2.1 2.1 0 0 0 9.5 9.701V6.927h2.073v-.958c0-2.3-1.871-4.17-4.171-4.17S3.231 3.67 3.231 5.969v.958h2.073zm2.695 0a.6.6 0 0 1-.598.598.6.6 0 0 1-.598-.598V6.927H8zM4.787 5.427c.251-1.213 1.328-2.128 2.615-2.128s2.364.915 2.615 2.128z"/></svg>