<svg xmlns="http://www.w3.org/2000/svg" fill="#002466" viewBox="0 0 24 24"><path d="M23.006 6.412 19.53 2.813l.005-.005-1.042-1.079-.005.005-.005-.005-1.079 1.042.005.005-3.777 3.647 1.042 1.079 3.047-2.942.008 11.822c.001 1.233-.479 2.393-1.35 3.265S14.348 21 13.115 21A4.62 4.62 0 0 1 8.5 16.385v-1.398H7v1.398a6.12 6.12 0 0 0 6.115 6.115c1.634 0 3.17-.637 4.325-1.792a6.07 6.07 0 0 0 1.789-4.326l-.008-11.729 2.706 2.802zM7.75 8.705a3.48 3.48 0 0 0 3.477-3.477A3.48 3.48 0 0 0 7.75 1.75a3.48 3.48 0 0 0-3.477 3.478A3.48 3.48 0 0 0 7.75 8.705m0-5.455a1.98 1.98 0 0 1 1.977 1.978A1.98 1.98 0 0 1 7.75 7.205a1.98 1.98 0 0 1-1.977-1.977A1.98 1.98 0 0 1 7.75 3.25M13 13.955v1.091h1.5v-1.091a3.845 3.845 0 0 0-3.841-3.841H4.841A3.845 3.845 0 0 0 1 13.955v1.091h1.5v-1.091a2.343 2.343 0 0 1 2.341-2.341h5.818A2.343 2.343 0 0 1 13 13.955"/></svg>