<svg xmlns="http://www.w3.org/2000/svg" viewBox="0 0 24 24"><path fill="#002466" d="m13.944 13.12-.572-1.387A3.5 3.5 0 0 1 8.532 8.5c0-1.93 1.57-3.5 3.5-3.5s3.5 1.57 3.5 3.5v.708a.578.578 0 0 1-1.155 0V8.5c0-1.292-1.052-2.344-2.344-2.344S9.69 7.208 9.69 8.5a2.347 2.347 0 0 0 3.616 1.969 2.076 2.076 0 0 0 3.727-1.261V8.5c0-2.757-2.243-5-5-5s-5 2.243-5 5a5.005 5.005 0 0 0 6.912 4.62m-1.91-3.776c-.466 0-.845-.38-.845-.844s.38-.844.844-.844.844.38.844.844-.379.844-.844.844m7.748 1.239V4.25A3.254 3.254 0 0 0 16.532 1h-9a3.254 3.254 0 0 0-3.25 3.25v6.333l-2.25-1.764V23h20V8.82zm.75 9.208-4.34-4.49 4.34-3.4zm-10.93-3.134c1.363 1.07 3.498 1.07 4.86 0l.544-.425 5.092 5.268H3.967l5.092-5.268zM5.782 4.25c0-.965.785-1.75 1.75-1.75h9c.965 0 1.75.785 1.75 1.75v7.508l-4.745 3.72c-.816.638-2.193.638-3.01 0l-4.745-3.72zm2.09 11.052-4.34 4.49v-7.89z"/></svg>