<svg xmlns="http://www.w3.org/2000/svg" fill="#002466" viewBox="0 0 24 24"><path d="M3.497 8.055h2v1.99h5v-1.99h10.015v4h1.5v-4h.985V3.898L.997.947v7.107h1v11h4.736v-1.5H3.497zm4.5.74a1.25 1.25 0 1 1 0-2.5 1.25 1.25 0 1 1 0 2.5m-5.5-6.133 19 2.549v1.344h-11v-1.51h-5v1.51h-3zm19.508 10.904h-2.438V12.08H8.247v9.13h1.745c.15 1.017 1.019 1.803 2.077 1.803s1.928-.786 2.078-1.803h4.086a2.105 2.105 0 0 0 2.082 1.843 2.11 2.11 0 0 0 2.107-2.108h.582v-3.888l-.998-3.49zm-.502 5.641a2.1 2.1 0 0 0-1.189-.37c-.264 0-.514.054-.747.143v-1.166h1.937v1.393zm-.619-4.141.368 1.248h-1.686v-1.248h1.317zm-8.815 6.446a.6.6 0 0 1-.513-.303h1.027a.6.6 0 0 1-.514.303m5.998-1.803h-8.32v-6.13h8.319zm2.247 1.843a.61.61 0 0 1-.608-.608.61.61 0 0 1 .608-.607.61.61 0 0 1 .607.607.61.61 0 0 1-.607.608"/></svg>