<svg xmlns="http://www.w3.org/2000/svg" fill="#002466" viewBox="0 0 24 24"><path d="M5.5 8.985h3.047v1.5H5.5zm14.75-2.75H18.5v-4h-13v4H3.75A2.75 2.75 0 0 0 1 8.985v5a2.75 2.75 0 0 0 2.75 2.75H6.5v4.5H12v-1.5H8v-6.5h4v-1.5H5.5v1.5h1v2H3.75a1.25 1.25 0 0 1-1.25-1.25v-5a1.25 1.25 0 0 1 1.25-1.25h16.5a1.25 1.25 0 0 1 1.25 1.25v1.75H23v-1.75a2.75 2.75 0 0 0-2.75-2.75M7 6.235v-2.5h10v2.5zm14.85 9.748a4.68 4.68 0 0 0-4.675-4.675 4.68 4.68 0 0 0-4.675 4.675 4.68 4.68 0 0 0 4.675 4.675 4.64 4.64 0 0 0 2.723-.891l1.998 1.998 1.061-1.061-1.998-1.998a4.64 4.64 0 0 0 .891-2.723m-7.85 0a3.18 3.18 0 0 1 3.175-3.175 3.18 3.18 0 0 1 3.175 3.175 3.18 3.18 0 0 1-3.175 3.175A3.18 3.18 0 0 1 14 15.983"/></svg>