<svg xmlns="http://www.w3.org/2000/svg" viewBox="0 0 24 24"><path fill="#002466" d="M15.314 17.435q.1 0 .101-.1v-1.05h.979q.1 0 .101-.1v-.515q0-.1-.101-.1h-.979v-.86h1.17q.1 0 .1-.1v-.525q0-.1-.1-.1h-1.94q-.1 0-.1.1v3.25q0 .1.1.1z"/><path fill="#002466" d="M13.561 1H3.5v22h17V7.939zM14 3.561 17.939 7.5H14zM19 21.5H5v-19h7.5V9H19z"/><path fill="#002466" d="M10.746 13.985zq-.1 0-.1.1v.51q0 .1.1.1h.226v2.64q0 .1.1.1h1.065q.879 0 1.353-.445.473-.446.472-1.28 0-.45-.127-.777a1.4 1.4 0 0 0-.362-.538 1.5 1.5 0 0 0-.573-.31 2.7 2.7 0 0 0-.762-.1zm2.087.953q.237.243.237.772 0 .495-.235.735t-.694.24h-.301v-1.99h.301q.455 0 .692.243m-4.026-.954H7.415q-.1 0-.1.1v.51q0 .1.1.1h.226v2.64q0 .1.1.1h.67q.1 0 .1-.1v-.91h.266q.744 0 1.145-.333.4-.332.4-.923c0-.591-.126-.685-.378-.885q-.378-.3-1.137-.3m.474 1.62q-.16.137-.5.137H8.51v-1.05h.275q.34 0 .498.127t.157.393a.49.49 0 0 1-.16.392"/></svg>