<svg xmlns="http://www.w3.org/2000/svg" fill="#002466" viewBox="0 0 24 24"><path d="M21.5 1H8.25v3.25H6.5v5h5v-5H9.75V2.5h8V23h1.5v-6.25h2.25V23H23V1zM10 7.75H8v-2h2zm9.25 7.5V2.5h2.25v12.75zm-5.933-4.393H4.185v4.032l-3.19.857.085.651c.05.377.464 3.213 1.858 4.917-.27.081-.568.143-.865.143v1.5c.891 0 1.745-.336 2.224-.564.479.234 1.337.579 2.231.579s1.749-.344 2.229-.578c.48.234 1.34.579 2.224.579s1.748-.336 2.225-.561c.478.225 1.34.561 2.226.561v-1.5a3 3 0 0 1-.858-.141c1.388-1.706 1.792-4.536 1.84-4.912l.082-.646-3.176-.867v-4.05zm-7.633 1.5h6.133v2.141l-3.064-.836-3.068.825v-2.129zm7.135 8.57c-.035.02-.968.547-1.84.547-.881 0-1.824-.564-1.834-.57l-.393-.235-.389.236c-.009.006-.943.567-1.837.567s-1.827-.562-1.835-.566l-.007-.004c-1.114-.668-1.749-2.775-2.009-4.055l6.072-1.632 6.066 1.656c-.254 1.278-.882 3.386-1.996 4.056z"/></svg>