<svg xmlns="http://www.w3.org/2000/svg" fill="#002466" viewBox="0 0 24 24"><path d="M14.676 12.23a3.06 3.06 0 0 0 1.599-2.019 3.07 3.07 0 0 0 1.527-2.076 3.06 3.06 0 0 0-.581-2.51c.151-.882-.086-1.786-.67-2.488s-1.431-1.1-2.325-1.111A3.1 3.1 0 0 0 11.862 1a3.06 3.06 0 0 0-2.317 1.125 3.06 3.06 0 0 0-2.276 1.207 3.06 3.06 0 0 0-.566 2.514 3.06 3.06 0 0 0-.475 2.533 3.06 3.06 0 0 0 1.612 2.009c.246.86.853 1.571 1.683 1.95a3.1 3.1 0 0 0 1.282.28c.15 0 .297-.027.445-.049V23h1.5v-2.378h2.122a2.753 2.753 0 0 0 2.75-2.75V14.25H14a2.7 2.7 0 0 0-1.25.315V12.52a3.07 3.07 0 0 0 1.926-.289zm-4.53-1.256a1.55 1.55 0 0 1-.912-1.228l-.063-.465-.446-.146c-.526-.173-.906-.581-1.041-1.119s.007-1.078.391-1.48l.324-.339-.163-.44a1.55 1.55 0 0 1 .227-1.513A1.55 1.55 0 0 1 9.71 3.62l.15.007.468.042.242-.402a1.56 1.56 0 0 1 1.323-.767c.559-.023 1.049.248 1.354.71l.259.392.466-.062a1.55 1.55 0 0 1 1.425.557 1.56 1.56 0 0 1 .289 1.502l-.146.447.339.325c.399.385.565.917.453 1.46s-.475.967-.995 1.163l-.439.165-.044.468c-.051.553-.364 1.013-.858 1.265s-1.053.232-1.529-.052l-.403-.241-.393.257a1.55 1.55 0 0 1-1.525.117zM14 15.75h2.122v2.122a1.25 1.25 0 0 1-1.25 1.25H12.75V17A1.25 1.25 0 0 1 14 15.75m.31-8.691c0-1.273-1.036-2.31-2.31-2.31s-2.31 1.036-2.31 2.31 1.036 2.31 2.31 2.31 2.31-1.036 2.31-2.31m-3.119 0a.81.81 0 0 1 1.62 0 .81.81 0 0 1-1.62 0"/></svg>