<svg xmlns="http://www.w3.org/2000/svg" viewBox="0 0 24 24"><path fill="#002466" d="M11.999 21.494 2.642 12.12A5.58 5.58 0 0 1 1 8.139a5.63 5.63 0 0 1 1.659-3.991 5.55 5.55 0 0 1 3.955-1.641 5.55 5.55 0 0 1 3.954 1.641L12 5.583l1.415-1.418A5.614 5.614 0 0 1 23 8.142a5.6 5.6 0 0 1-1.644 3.978zM6.614 4.006a4.07 4.07 0 0 0-2.896 1.202 4.14 4.14 0 0 0-1.22 2.933 4.1 4.1 0 0 0 1.204 2.918L12 19.372l8.298-8.313a4.1 4.1 0 0 0 1.206-2.917 4.1 4.1 0 0 0-1.206-2.917 4.12 4.12 0 0 0-5.824 0L12 7.704 9.51 5.209a4.06 4.06 0 0 0-2.895-1.202z"/></svg>