<svg xmlns="http://www.w3.org/2000/svg" fill="#002466" viewBox="0 0 24 24"><circle cx="7" cy="16" r="1"/><circle cx="17" cy="16" r="1"/><path d="M18.75 1H5.25A3.254 3.254 0 0 0 2 4.25v12.5c0 .918.386 1.744 1 2.336v2.164c0 .965.785 1.75 1.75 1.75H6.5c.965 0 1.75-.785 1.75-1.75V20h7.625v1.25c0 .965.785 1.75 1.75 1.75h1.75c.965 0 1.75-.785 1.75-1.75v-2.297c.538-.58.875-1.351.875-2.203V4.25A3.254 3.254 0 0 0 18.75 1M5.25 2.5h13.5c.882 0 1.606.658 1.725 1.508H3.525A1.75 1.75 0 0 1 5.25 2.5m1.5 18.75a.25.25 0 0 1-.25.25H4.75a.25.25 0 0 1-.25-.25v-1.346a3.2 3.2 0 0 0 .75.096h1.5zm12.875 0a.25.25 0 0 1-.25.25h-1.75a.25.25 0 0 1-.25-.25V20h1.375c.305 0 .595-.056.875-.135zm.875-4.5c0 .965-.785 1.75-1.75 1.75H5.25c-.965 0-1.75-.785-1.75-1.75v-3.771c2.792.667 5.644 1.019 8.5 1.019s5.708-.352 8.5-1.019zm0-5.296a35.1 35.1 0 0 1-17 0V5.508h17z"/></svg>