<svg xmlns="http://www.w3.org/2000/svg" viewBox="0 0 24 24"><path fill="#002466" d="M17.463 18.098a2.93 2.93 0 0 0 2.926-2.924 2.93 2.93 0 0 0-2.926-2.924 2.93 2.93 0 0 0-2.926 2.924 2.93 2.93 0 0 0 2.926 2.924m0-4.348c.786 0 1.425.639 1.425 1.424a1.426 1.426 0 0 1-2.85 0c0-.785.64-1.424 1.425-1.424m2.285 5.167H15.18a3.255 3.255 0 0 0-3.252 3.25V23h1.5v-.834c0-.965.786-1.75 1.752-1.75h4.568c.966 0 1.751.785 1.751 1.75V23H23v-.834a3.255 3.255 0 0 0-3.252-3.25zm-7.725-6.569a2.93 2.93 0 0 0 2.926-2.924A2.93 2.93 0 0 0 12.023 6.5a2.93 2.93 0 0 0-2.926 2.924 2.93 2.93 0 0 0 2.926 2.924m0-4.348c.786 0 1.425.639 1.425 1.424s-.64 1.424-1.425 1.424-1.425-.639-1.425-1.424S11.238 8 12.023 8m.003 5.167H9.74a3.255 3.255 0 0 0-3.253 3.25v.834h1.501v-.834c0-.965.786-1.75 1.752-1.75h2.286zm-5.49-6.319a2.93 2.93 0 0 0 2.926-2.924A2.93 2.93 0 0 0 6.537 1 2.93 2.93 0 0 0 3.61 3.924a2.93 2.93 0 0 0 2.926 2.924m0-4.348c.786 0 1.425.639 1.425 1.424s-.639 1.424-1.424 1.424-1.425-.639-1.425-1.424S5.75 2.5 6.537 2.5m-.013 5.167h-2.27A3.255 3.255 0 0 0 1 10.917v.834h1.501v-.834c0-.965.785-1.75 1.751-1.75h2.27z"/></svg>