<svg xmlns="http://www.w3.org/2000/svg" fill="#002466" viewBox="0 0 24 24"><path d="M20.461 15.01h-7.973a2.54 2.54 0 0 0-2.419-1.783h-4.41a2.5 2.5 0 0 0-.942.182l-2.232.896A2.54 2.54 0 0 0 1 16.61v2.183c0 1.19.811 2.206 1.895 2.448l4.737 1.623a2.2 2.2 0 0 0 .729.122 2.3 2.3 0 0 0 .523-.062l12.055-2.881A2.54 2.54 0 0 0 23 17.549c0-1.4-1.139-2.539-2.539-2.539m.162 3.567L8.536 21.465a.75.75 0 0 1-.418-.02L3.304 19.8a1.026 1.026 0 0 1-.804-1.007V16.61c0-.404.237-.773.574-.926l2.201-.883a1 1 0 0 1 .384-.074h4.41a1.034 1.034 0 0 1 0 2.066h-2.08v1.5h2.08a2.54 2.54 0 0 0 2.419-1.783h7.973a1.04 1.04 0 0 1 1.039 1.039c0 .498-.355.927-.877 1.028m-3.752-12.47a2.98 2.98 0 0 0 .879-2.121 2.98 2.98 0 0 0-.879-2.121c-1.133-1.134-3.109-1.134-4.242 0l1.061 1.061a1.54 1.54 0 0 1 2.121 0 1.5 1.5 0 0 1 .439 1.061 1.5 1.5 0 0 1-.439 1.061l1.061 1.061zm-6.121-2.78c-2.481 0-4.5 2.019-4.5 4.5s2.019 4.5 4.5 4.5 4.5-2.019 4.5-4.5-2.019-4.5-4.5-4.5m0 7.5c-1.654 0-3-1.346-3-3s1.346-3 3-3 3 1.346 3 3-1.346 3-3 3m.416-5h-.562a.4.4 0 0 0-.133.029l-1.015.412q-.104.034-.069.145l.185.557q.034.105.145.07l.55-.209v2.881q0 .116.116.116h.782q.116 0 .116-.116V5.943q0-.116-.116-.116z"/></svg>