<svg xmlns="http://www.w3.org/2000/svg" viewBox="0 0 24 24"><path fill="#002466" d="M15.738 4.136A3.25 3.25 0 0 0 12.5 1h-.75v1.5h.75c.895 0 1.627.678 1.729 1.546a4.105 4.105 0 0 0-3.685 4.15l-.044 4.228a8.23 8.23 0 0 1-4.572 7.399 1.67 1.67 0 0 0-.928 1.5A1.68 1.68 0 0 0 6.677 23 12.34 12.34 0 0 0 19 10.677V8.201c0-1.967-1.371-3.611-3.262-4.065m-2.935 2.156c.503-.511 1.174-.792 1.979-.792h.001a2.72 2.72 0 0 1 2.511 1.676 3 3 0 0 0-.344.205c-.185.126-.246.169-.452.169s-.269-.042-.453-.169c-.251-.171-.63-.431-1.3-.431s-1.049.259-1.299.431c-.184.126-.246.168-.451.168s-.265-.042-.447-.168a3 3 0 0 0-.323-.195c.129-.33.323-.634.579-.895zm4.696 4.385A10.84 10.84 0 0 1 6.677 21.5a.177.177 0 0 1-.079-.335A9.72 9.72 0 0 0 12 12.424l.037-3.602c.232.121.531.228.958.228.67 0 1.049-.259 1.299-.431.184-.126.246-.168.451-.168s.268.042.452.168c.251.172.63.431 1.301.431a2 2 0 0 0 1.002-.249v1.877z"/></svg>