<svg xmlns="http://www.w3.org/2000/svg" viewBox="0 0 24 24"><path fill="#002466" d="M14.864 4.655a3 3 0 0 0 .093-.699A2.96 2.96 0 0 0 12 1a2.96 2.96 0 0 0-2.956 2.956 3 3 0 0 0 .091.694C5.54 5.779 3 9.18 3 13l1.893 10h14.215L21 13a8.74 8.74 0 0 0-6.136-8.345M12 2.5a1.46 1.46 0 0 1 1.456 1.456A1.46 1.46 0 0 1 12 5.412a1.46 1.46 0 0 1-1.456-1.456A1.46 1.46 0 0 1 12 2.5m5.867 19H6.133l-1.18-6.191a2 2 0 0 0 1.209.388c1.109 0 1.661-.756 2.063-1.308.365-.502.534-.692.852-.692s.485.189.851.691c.402.552.954 1.309 2.064 1.309s1.661-.756 2.064-1.308c.365-.502.534-.692.852-.692s.488.19.855.692c.402.552.954 1.308 2.065 1.308a2 2 0 0 0 1.219-.392zm.817-7.996c-.367.502-.536.692-.855.692s-.487-.19-.854-.692c-.402-.552-.955-1.308-2.066-1.308s-1.661.756-2.064 1.308c-.365.502-.534.692-.852.692s-.486-.19-.852-.692c-.402-.552-.954-1.308-2.063-1.308s-1.662.756-2.064 1.309c-.365.502-.533.691-.851.691s-.484-.189-.85-.691c-.205-.281-.448-.613-.784-.873a7.28 7.28 0 0 1 5.355-6.619A2.94 2.94 0 0 0 12 6.912c.835 0 1.587-.352 2.126-.911a7.23 7.23 0 0 1 5.346 6.628c-.337.26-.582.593-.787.875z"/></svg>