<svg xmlns="http://www.w3.org/2000/svg" viewBox="0 0 24 24"><path fill="#002466" d="M21.561 6.5h-3.875V4H4.582L1 9.787V17.5h1.276A2.744 2.744 0 0 0 5 19.988c.79 0 1.498-.339 2-.874.502.535 1.21.874 2 .874a2.745 2.745 0 0 0 2.724-2.488h4.802c.129 1.398 1.294 2.5 2.725 2.5s2.596-1.102 2.725-2.5H23v-6.013zm-16.143-1h2.747L5.578 9.75H2.787zM5 18.488c-.596 0-1.073-.428-1.197-.988h2.394c-.124.56-.6.988-1.197.988m4 0c-.597 0-1.073-.428-1.197-.988h2.394c-.124.56-.6.988-1.197.988M16.186 16H2.5v-1.25h13.686zm0-9.5v6.75H2.5v-2h3.922l3.5-5.75h6.264zm1.5 1.5h2.754l.812 2.75h-3.565V8zm1.564 10.5a1.25 1.25 0 1 1 0-2.5 1.25 1.25 0 1 1 0 2.5m2.25-2.823a2.75 2.75 0 0 0-2.25-1.177 2.73 2.73 0 0 0-1.564.493V12.25H21.5z"/></svg>