<svg xmlns="http://www.w3.org/2000/svg" viewBox="0 0 24 24"><path fill="#002466" d="M21.942 23 23 21.942l-9.918-9.918 4.963-4.964.373.373 1.764-.32 2.78-3.677-2.349-2.349-3.677 2.78-.319 1.763.372.372-4.964 4.964L2.058 1 1 2.058l9.967 9.967-.868.868-1.312-1.312-6.967 6.967a2.61 2.61 0 0 0 0 3.682c.492.492 1.145.763 1.841.763s1.349-.271 1.841-.763l6.967-6.968-1.312-1.312.868-.868zM18.303 4.709l2.174-1.643.506.506-1.643 2.174-.418.076-.695-.695zM4.444 21.172a1.135 1.135 0 0 1-1.566 0 1.1 1.1 0 0 1-.324-.783 1.1 1.1 0 0 1 .324-.783l5.91-5.91 1.566 1.566z"/></svg>