<svg xmlns="http://www.w3.org/2000/svg" fill="#002466" viewBox="0 0 24 24"><path d="M13.993 7.281V4.989h-3.93v2.292a3.93 3.93 0 0 0-2.023 3.445v.852c0 .439.115.874.335 1.255l.058.087a.88.88 0 0 1 0 1.083l-.058.086a2.5 2.5 0 0 0-.335 1.255v4.895A2.77 2.77 0 0 0 10.814 23h2.428a2.77 2.77 0 0 0 2.774-2.762v-4.895a2.5 2.5 0 0 0-.335-1.255l-.058-.086a.88.88 0 0 1 0-1.083l.058-.087c.219-.381.335-.816.335-1.255v-.852c0-1.45-.779-2.752-2.023-3.445zm.52 4.297a1 1 0 0 1-.117.477 2.38 2.38 0 0 0 0 2.812 1 1 0 0 1 .117.477v4.895a1.27 1.27 0 0 1-1.272 1.266h-2.428a1.27 1.27 0 0 1-1.272-1.266v-4.895a1 1 0 0 1 .117-.477 2.38 2.38 0 0 0 0-2.812 1 1 0 0 1-.117-.477v-.852c0-1.01.608-1.905 1.55-2.28l.472-.188V6.485h.925v1.773l.472.188a2.44 2.44 0 0 1 1.55 2.28v.852zm-8.875-7.25a2.24 2.24 0 0 1 1.421 2.09h1.502a3.72 3.72 0 0 0-1.894-3.252V1H2.894v2.165A3.73 3.73 0 0 0 1 6.418v.798a2.4 2.4 0 0 0 .321 1.198l.057.086a.78.78 0 0 1 0 .956l-.057.086A2.4 2.4 0 0 0 1 10.74v4.582a2.64 2.64 0 0 0 2.645 2.633h2.87V16.46h-2.87a1.14 1.14 0 0 1-1.142-1.138V10.74a.9.9 0 0 1 .103-.421 2.27 2.27 0 0 0 0-2.683.9.9 0 0 1-.103-.421v-.798a2.24 2.24 0 0 1 1.421-2.09l.472-.188V2.496h.77V4.14zm17.044 4.084c.207-.364.318-.778.318-1.196v-.798a3.72 3.72 0 0 0-1.894-3.252V1h-3.775v2.165a3.72 3.72 0 0 0-1.894 3.252h1.502a2.24 2.24 0 0 1 1.421-2.09l.472-.188V2.496h.77V4.14l.472.188a2.24 2.24 0 0 1 1.421 2.09v.798a.9.9 0 0 1-.103.422 2.27 2.27 0 0 0 0 2.681.9.9 0 0 1 .103.422v4.582a1.14 1.14 0 0 1-1.142 1.138h-2.83v1.496h2.83a2.64 2.64 0 0 0 2.645-2.633V10.74c0-.418-.111-.832-.318-1.196l-.06-.089a.78.78 0 0 1 0-.955l.06-.088z"/></svg>