<svg xmlns="http://www.w3.org/2000/svg" fill="#002466" viewBox="0 0 24 24"><path d="M1 1v11.75h8V11.5c0-1.654 1.346-3 3-3s3 1.346 3 3v1.25h8V1zm20.5 10.25h-5.007C16.363 8.885 14.397 7 12 7s-4.363 1.885-4.493 4.25H2.5V2.5h19zm-7.52 4.295v1.946A2.48 2.48 0 0 1 14.5 19c0 1.378-1.121 2.5-2.5 2.5S9.5 20.378 9.5 19a2.48 2.48 0 0 1 .546-1.541v-1.928C8.831 16.218 8 17.507 8 19c0 2.206 1.794 4 4 4s4-1.794 4-4c0-1.482-.819-2.763-2.02-3.455m-1.23 2.034v-3.268l.634.634 1.061-1.061L12 11.439l-2.444 2.444 1.061 1.061.634-.634v3.268h1.5z"/></svg>