<svg xmlns="http://www.w3.org/2000/svg" fill="#002466" viewBox="0 0 24 24"><path d="M18.454 1h-1.51v4.167a3.81 3.81 0 0 1-3.806 3.806h-2.277a3.81 3.81 0 0 1-3.806-3.806V1h-1.51A4.55 4.55 0 0 0 1 5.546V12c0 6.065 4.935 11 11 11s11-4.935 11-11V5.546A4.55 4.55 0 0 0 18.454 1M21.5 12c0 5.238-4.262 9.5-9.5 9.5S2.5 17.238 2.5 12V5.546A3.05 3.05 0 0 1 5.546 2.5l.01 2.666a5.31 5.31 0 0 0 5.306 5.306h2.277a5.31 5.31 0 0 0 5.306-5.306V2.5h.01A3.05 3.05 0 0 1 21.5 5.546zm-9.369 1.044-.131.131-.137-.136c-.904-.905-2.482-.906-3.389 0a2.4 2.4 0 0 0-.709 1.704 2.38 2.38 0 0 0 .704 1.702l3.53 3.53 3.53-3.53a2.41 2.41 0 0 0 0-3.4 2.41 2.41 0 0 0-3.399 0zm2.339 2.339L12 17.854l-2.47-2.47a.906.906 0 0 1 .005-1.284.89.89 0 0 1 1.268 0L12 15.296l1.191-1.191a.904.904 0 0 1 1.278 1.279z"/></svg>