<svg xmlns="http://www.w3.org/2000/svg" viewBox="0 0 24 24"><path fill="#002466" d="M17.808 7.734c.439-.607.687-1.33.692-2.098l-.008-3.622L14.857 2a3.6 3.6 0 0 0-2.543 1.064c-.118.118-.214.251-.314.382-.099-.13-.195-.264-.313-.382A3.62 3.62 0 0 0 9.135 2l-3.621.019L5.5 5.644c.006.763.254 1.484.692 2.09H1v1.5h2V22h18V9.234h2v-1.5zM11.25 20.5H4.5V9.234h6.75zm-.004-12.766H8.97A2.117 2.117 0 0 1 7 5.641l.008-2.133L9.132 3.5a2.13 2.13 0 0 1 2.118 2.11zm2.13-3.609c.397-.398.928-.62 1.484-.625l2.136.008L17 5.633a2.12 2.12 0 0 1-1.963 2.101h-2.28l-.007-2.116a2.12 2.12 0 0 1 .626-1.493M19.5 20.5h-6.75V9.234h6.75z"/></svg>