<svg xmlns="http://www.w3.org/2000/svg" fill="#002466" viewBox="0 0 24 24"><path d="M15.758 9h.492V7.5h-.548l-.089-2.385c-.07-1.637-1.275-2.963-2.863-3.286V1h-1.5v.829c-1.588.323-2.793 1.65-2.863 3.29L8.298 7.5H7.75V9h.492l-.465 12.5H6.75V23h10.5v-1.5h-1.027zM9.885 5.179C9.932 4.097 10.86 3.25 12 3.25s2.068.847 2.115 1.925l.086 2.325H9.799zM9.743 9h4.515l.111 3H9.631zm-.167 4.5h4.849l.13 3.5H9.446zm-.297 8 .111-3h5.22l.111 3zM19 4.75h4v1.5h-4zm-.752-2.457 3.501-1.248.504 1.413-3.501 1.248zm0 6.413.505-1.413 3.5 1.25-.505 1.413zM1 4.75h4v1.5H1zm.748 3.793 3.501-1.248.504 1.413-3.501 1.248zm0-6.087.505-1.413 3.5 1.25-.505 1.413z"/><circle cx="12" cy="5.5" r=".75"/></svg>