<svg xmlns="http://www.w3.org/2000/svg" viewBox="0 0 24 24"><path fill="#002466" d="M19.778 4.222c-4.289-4.29-11.267-4.29-15.556 0C2.144 6.299 1 9.062 1 12s1.144 5.701 3.222 7.778c2.144 2.145 4.96 3.217 7.778 3.217s5.634-1.072 7.778-3.217C21.856 17.701 23 14.938 23 12s-1.144-5.701-3.222-7.778m-1.06 14.496C16.924 20.512 14.538 21.5 12 21.5s-4.924-.988-6.718-2.782c-3.704-3.704-3.704-9.732 0-13.436C7.076 3.488 9.462 2.5 12 2.5s4.924.988 6.718 2.782c3.704 3.704 3.704 9.732 0 13.436"/><path fill="#002466" d="M14.549 6.198a3.3 3.3 0 0 0-.988-.531q-.577-.202-1.346-.201-.768-.001-1.482.274-.715.275-1.3.87c-.585.595-.726.9-1.007 1.51q-.42.915-.585 2.178H6.706q-.256 0-.256.256v.586q0 .256.256.256h1.043a2 2 0 0 0-.018.302v.595q0 .147.018.293H6.706q-.256 0-.256.256v.604q0 .255.256.256h1.116q.166 1.3.568 2.224c.402.924.607 1.116 1.016 1.501q.612.577 1.418.842c.806.265 1.129.265 1.776.265q1.024 0 1.656-.238.63-.237.96-.44.184-.126.111-.347l-.366-.97q-.129-.274-.348-.128-.293.165-.732.33c-.44.164-.666.165-1.116.165q-1.282 0-2.087-.724-.806-.723-1.044-2.48h4.375q.255 0 .256-.256v-.604q0-.255-.256-.256H9.543a2 2 0 0 1-.019-.302v-.595q0-.146.019-.293h4.466q.255 0 .256-.256v-.586q0-.255-.256-.256H9.634q.238-1.72.925-2.49.687-.768 1.638-.768.86 0 1.29.393.43.395.595.906.073.239.348.165l1.025-.348q.22-.091.164-.311-.146-.457-.402-.888c-.256-.43-.394-.54-.668-.76"/></svg>