<svg xmlns="http://www.w3.org/2000/svg" viewBox="0 0 24 24"><path fill="#002466" d="m22.04 15.901-9.29-7.024V7h-.625c-.482 0-.875-.393-.875-.875s.393-.875.875-.875.875.393.875.875h1.5a2.38 2.38 0 0 0-2.375-2.375A2.38 2.38 0 0 0 9.75 6.125c0 1 .623 1.854 1.5 2.203v.549l-9.29 7.024a2.43 2.43 0 0 0-.96 1.93 2.42 2.42 0 0 0 2.419 2.419h17.162A2.42 2.42 0 0 0 23 17.831a2.43 2.43 0 0 0-.96-1.93m-1.459 2.849H3.419a.92.92 0 0 1-.919-.919c0-.287.137-.561.364-.733L12 10.19l9.136 6.907a.93.93 0 0 1 .364.733.92.92 0 0 1-.919.919z"/></svg>