<svg xmlns="http://www.w3.org/2000/svg" fill="#002466" viewBox="0 0 24 24"><path d="M5.601 20.181h12.798v1.5H5.601zm15.13-12.926a2.27 2.27 0 0 0-2.27 2.268 2.25 2.25 0 0 0 .198.917c-1.754.816-2.518.99-2.852.99H15.8c-.957-.007-1.524-.331-2.02-1.155-.357-.595-.735-2.667-.897-3.553l-.008-.044a2.27 2.27 0 0 0-.876-4.36 2.27 2.27 0 0 0-.878 4.359l-.008.044c-.161.885-.539 2.958-.897 3.552-.496.825-1.063 1.148-2.021 1.155h-.006c-.602 0-1.989-.655-2.582-.936l-.238-.112a2.3 2.3 0 0 0 .167-.86A2.27 2.27 0 0 0 3.27 7.255 2.27 2.27 0 0 0 1 9.522a2.27 2.27 0 0 0 2.27 2.268 2.3 2.3 0 0 0 .85-.169l.196.414c.298.625.749 1.57.901 2.238.326 1.42.339 3.957.339 3.982l.003.748H18.44l.005-.746c0-.025.02-2.563.346-3.984.138-.603.546-1.419.844-2.016l.285-.587c.005-.011.005-.023.01-.034a2.3 2.3 0 0 0 .802.153A2.27 2.27 0 0 0 23 9.522a2.27 2.27 0 0 0-2.269-2.268zM3.27 10.29a.77.77 0 0 1-.77-.768.77.77 0 0 1 .77-.768.77.77 0 0 1 .769.768.77.77 0 0 1-.769.768m8.731-6.471a.77.77 0 0 1 .77.768.77.77 0 0 1-1.54 0 .77.77 0 0 1 .77-.768m5.327 10.119c-.248 1.082-.335 2.647-.366 3.565h-9.92c-.029-.918-.113-2.483-.361-3.565-.112-.489-.329-1.049-.556-1.566.764.32 1.491.558 2.069.558h.016c1.483-.01 2.53-.608 3.295-1.882.183-.304.347-.759.496-1.296.149.537.313.992.496 1.296.766 1.273 1.813 1.872 3.294 1.882.51-.002 1.181-.166 2.106-.526-.232.501-.455 1.044-.568 1.535zm3.404-3.648a.77.77 0 0 1-.77-.768.77.77 0 0 1 .77-.768.77.77 0 0 1 .769.768.77.77 0 0 1-.769.768"/></svg>