<svg xmlns="http://www.w3.org/2000/svg" fill="#002466" viewBox="0 0 24 24"><path d="m10.263 7.539 3-1.001.475 1.423-3 1.001zm.364 7.221 3-.5.247 1.479-3 .5zm-.197 4.845.14-1.493 3 .282-.14 1.493zm5.93-9.137A2.97 2.97 0 0 0 16.75 9V7.942a4.7 4.7 0 0 0-2.5-4.17V1h-4.5v2.772a4.7 4.7 0 0 0-2.5 4.17V9c0 .545.162.826.335 1.123l.132.231.713.533-.815 1.02.42.84-.784.529v6.475a3.254 3.254 0 0 0 3.25 3.25h3a3.254 3.254 0 0 0 3.25-3.25v-6.495l-1.049-.646.609-.609-.86-.861.815-.505.095-.166zM15.25 9a1.5 1.5 0 0 1-.116.571l-2.084 1.29L14.189 12l-.891.891 1.951 1.202v5.657c0 .965-.785 1.75-1.75 1.75h-3c-.965 0-1.75-.785-1.75-1.75v-5.677l1.216-.819-.58-1.16 1.185-1.48-1.707-1.275C8.75 9.142 8.75 9.135 8.75 9V7.942a3.21 3.21 0 0 1 2.028-2.996l.472-.188V2.5h1.5v2.258l.472.188a3.21 3.21 0 0 1 2.028 2.996z"/></svg>