<svg xmlns="http://www.w3.org/2000/svg" viewBox="0 0 24 24"><path fill="#002466" d="M10.5 13.365h-5v4.5h-2v-9.5h2v1.991h5V8.365h10.013v4.396h1.5V8.365h.985V4.209L1 1.258v7.107h1v11h5v-4.5h2v4.5h3v-1.5h-1.5zM8 9.106a1.25 1.25 0 1 1 0-2.5 1.25 1.25 0 0 1 0 2.5M2.5 2.973l18.998 2.548v1.344H10.5V5.356h-5v1.509h-3zm20.032 14.909-5.69-5.025a1.36 1.36 0 0 0-1.475-.223 1.36 1.36 0 0 0-.81 1.256l.015 7.477a1.36 1.36 0 0 0 .802 1.248 1.37 1.37 0 0 0 1.469-.207l1.991-1.736 2.97-.396a1.36 1.36 0 0 0 1.135-.962 1.36 1.36 0 0 0-.405-1.432zm-3.897 1.303a1.37 1.37 0 0 0-.714.319l-1.85 1.589-.012-6.929 5.276 4.661z"/></svg>