<svg xmlns="http://www.w3.org/2000/svg" fill="#002466" viewBox="0 0 24 24"><path d="M7.848 11.043a3.526 3.526 0 0 0 3.521-3.521A3.53 3.53 0 0 0 7.848 4a3.53 3.53 0 0 0-3.522 3.522 3.525 3.525 0 0 0 3.521 3.521zm0-5.543c1.114 0 2.021.907 2.021 2.022s-.907 2.021-2.021 2.021-2.021-.907-2.021-2.021S6.733 5.5 7.848 5.5m3.597 7H4.25A3.254 3.254 0 0 0 1 15.75v3A3.254 3.254 0 0 0 4.25 22h5.945v-4.5H8V14h3.446c.965 0 1.75.785 1.75 1.75v1.75h1.5v-1.75a3.254 3.254 0 0 0-3.25-3.25zM2.5 15.75a1.75 1.75 0 0 1 1.708-1.746L2.622 19.38a1.7 1.7 0 0 1-.122-.63zM8.695 19v1.5h-.696V19zm-2.196 1.5H4.25a1.7 1.7 0 0 1-.381-.044L5.773 14H6.5zM23 5h-3V2h-1.5v3h-3v1.5h3v3H20v-3h3z"/></svg>