<svg xmlns="http://www.w3.org/2000/svg" fill="#002466" viewBox="0 0 24 24"><path d="M21.474 10.255h1.496v3.49h-1.496zm-3.256-5.537c.466.121.869.226 1.223.581.155.155.161.233.056.695-.111.489-.297 1.307.443 2.047.392.392.779.608 1.063.766.446.249.464.259.464.686h1.496c0-1.305-.682-1.686-1.23-1.992-.251-.141-.49-.273-.734-.518-.134-.134-.148-.19-.042-.658.113-.496.302-1.325-.457-2.084-.642-.642-1.341-.824-1.904-.971-.403-.105-.659-.178-.823-.342-.374-.374-.544-1.247-.544-1.899h-1.496c0 .463.071 2.045.983 2.956.46.46 1.015.604 1.504.732zm-2.917 9.526h5.473V9.756h-9.961L2.058 1 1 2.058l7.699 7.699H1.03v4.488h12.156L21.942 23 23 21.942zm-8.537-1.496H2.526v-1.496h4.238zm1.496 0v-1.496h1.934l1.496 1.496zm4.049-1.496h6.969v1.496h-5.473z"/></svg>