<svg xmlns="http://www.w3.org/2000/svg" fill="#002466" viewBox="0 0 24 24"><path d="M7.625 17.533c1.732 0 3.142-1.409 3.142-3.141s-1.41-3.142-3.142-3.142-3.142 1.409-3.142 3.142 1.409 3.141 3.142 3.141m0-4.783a1.642 1.642 0 1 1 0 3.282 1.642 1.642 0 0 1 0-3.282m2.551 5.834H5.074a3.464 3.464 0 0 0-3.46 3.46V23h1.5v-.957c0-1.081.879-1.96 1.96-1.96h5.102c1.081 0 1.96.879 1.96 1.96V23h1.5v-.957a3.464 3.464 0 0 0-3.46-3.46zM1 1v15h2v-1.5h-.5v-12h19v12h-9V16H23V1zm12.75 3h4v1.5h-4z"/><circle cx="19.25" cy="4.75" r=".75"/><path d="M13.75 7h4v1.5h-4z"/><circle cx="19.25" cy="7.75" r=".75"/><path d="M13.75 10h4v1.5h-4z"/><circle cx="19.25" cy="10.75" r=".75"/></svg>