<svg xmlns="http://www.w3.org/2000/svg" viewBox="0 0 24 24"><path fill="#002466" d="M22.97 12c0-2.756-1.029-5.27-2.713-7.199L23 2.058 21.942 1l-2.743 2.743C17.27 2.059 14.756 1.03 12 1.03S6.73 2.059 4.801 3.743L2.058 1 1 2.058l2.743 2.743C2.059 6.73 1.03 9.244 1.03 12s1.029 5.27 2.713 7.199L1 21.942 2.058 23l2.743-2.743C6.73 21.941 9.244 22.97 12 22.97s5.27-1.029 7.199-2.713L21.942 23 23 21.942l-2.743-2.743A10.9 10.9 0 0 0 22.97 12m-1.496 0a9.43 9.43 0 0 1-2.274 6.142L13.058 12 19.2 5.858A9.42 9.42 0 0 1 21.474 12M12 2.526A9.43 9.43 0 0 1 18.142 4.8L12 10.942 5.858 4.8A9.43 9.43 0 0 1 12 2.526M2.526 12A9.43 9.43 0 0 1 4.8 5.858L10.942 12 4.8 18.142A9.43 9.43 0 0 1 2.526 12M12 21.474A9.43 9.43 0 0 1 5.858 19.2L12 13.058l6.142 6.142A9.42 9.42 0 0 1 12 21.474"/></svg>