<svg xmlns="http://www.w3.org/2000/svg" viewBox="0 0 24 24"><path fill="#002466" d="M21.284 6.244a5.8 5.8 0 0 0-4.146-1.724 5.8 5.8 0 0 0-4.144 1.724L7.946 11.31a.99.99 0 0 0-.92.985c0 .552.446 1 .996 1a.99.99 0 0 0 .981-.924l5.048-5.066a4.33 4.33 0 0 1 3.088-1.284 4.34 4.34 0 0 1 3.09 1.284 4.4 4.4 0 0 1 0 6.2l-1.544 1.55a.993.993 0 0 0-.948.99c0 .552.446 1 .996 1a.99.99 0 0 0 .976-.896l1.577-1.583a5.907 5.907 0 0 0 0-8.322zm-1.776 6.522a3.18 3.18 0 0 0 .935-2.31 3.2 3.2 0 0 0-.997-2.283 3.165 3.165 0 0 0-4.452.06L9.032 14.22c-.782.785-2.146.785-2.928 0a2.085 2.085 0 0 1 0-2.94l2.742-2.75a.99.99 0 0 0 .92-.985c0-.553-.446-1-.996-1a.99.99 0 0 0-.981.924l-2.742 2.75a3.59 3.59 0 0 0 0 5.062c1.347 1.353 3.695 1.353 5.042 0l5.963-5.985a1.684 1.684 0 0 1 2.367-.033c.335.315.526.754.53 1.215.008.46-.171.903-.497 1.228l-5.77 5.792a.99.99 0 0 0-.91.983c0 .552.445 1 .995 1a.99.99 0 0 0 .984-.934l5.758-5.78zm-2.52-.972c0-.553-.445-1-.996-1a.99.99 0 0 0-.98.924L10.645 16.1a4.77 4.77 0 0 1-6.752 0 4.77 4.77 0 0 1-1.399-3.39 4.77 4.77 0 0 1 1.4-3.388l1.038-1.043a.99.99 0 0 0 .92-.984c0-.553-.446-1-.996-1a.99.99 0 0 0-.982.925L2.837 8.262A6.26 6.26 0 0 0 1 12.712a6.26 6.26 0 0 0 1.837 4.449A6.24 6.24 0 0 0 7.27 19a6.24 6.24 0 0 0 4.432-1.84l4.366-4.382a.99.99 0 0 0 .92-.985"/></svg>