<svg xmlns="http://www.w3.org/2000/svg" fill="#002466" viewBox="0 0 24 24"><path d="M15.029 21.5h-12.5v-19h12.5v6h1.5V1h-15.5v22h15.5v-2.25h-1.5zm-10.25-8h8V15h-8zm0 3h8V18h-8zm8-12.5h-8v6.5h8zm-1.5 5h-5V5.5h5zm11.225 5.891-5.689-5.025a1.36 1.36 0 0 0-1.477-.223 1.36 1.36 0 0 0-.81 1.256l.014 7.477a1.36 1.36 0 0 0 .802 1.248c.188.086.384.128.578.128a1.37 1.37 0 0 0 .892-.334l1.991-1.736 2.971-.396a1.36 1.36 0 0 0 1.135-.963 1.36 1.36 0 0 0-.406-1.431zm-3.897 1.303a1.37 1.37 0 0 0-.713.319l-1.853 1.59-.012-6.93 5.277 4.661-2.7.36z"/></svg>