<svg xmlns="http://www.w3.org/2000/svg" fill="#002466" viewBox="0 0 24 24"><path d="M7.69 1.057c-3.057.524-4.67 1.878-5.509 2.952-.938 1.212-1.345 2.846-1.12 4.482l.715 5.168.04.447.231 5.532c.03.414.23 1.833 1.527 2.727.864.593 1.996.605 2.034.609a5 5 0 0 0 .516.023c.622 0 1.657-.095 2.391-.655 1.01-.772 1.214-1.87 1.258-2.279v-5.539a5 5 0 0 1 .071-.811l1.31-8.056c.037-.243.049-.775.06-1.445l.004-.237c.007-.322-.041-1.436-.976-2.262-1.091-.964-2.445-.684-2.552-.659zm-4.3 3.845c.652-.835 1.973-1.924 4.599-2.376.012-.002.13-.029.304-.029.257 0 .632.059.953.341.461.408.472.991.469 1.106l-.004.245-.042 1.242-.435 2.725a4.44 4.44 0 0 0-1.967-1.462V5H5.763v1.644l-.221.047a5.1 5.1 0 0 0-2.954 1.862l-.037-.268c-.171-1.24.128-2.464.839-3.383m4.972 8.561a6 6 0 0 0-.092 1.063l.006 5.449a1.8 1.8 0 0 1-.675 1.177c-.486.372-1.514.362-1.908.326-.214-.002-.86-.069-1.265-.348-.766-.528-.868-1.426-.88-1.577l-.23-5.507-.052-.591-.281-2.034h.002l.132-.573a3.59 3.59 0 0 1 2.738-2.689l.645-.138a2.93 2.93 0 0 1 2.056 2.146l.203.877zM21.796 3.98c-.816-1.044-2.429-2.399-5.44-2.913-.151-.037-1.504-.318-2.597.649-.901.796-.983 1.843-.977 2.261l.005.276.06 1.406 1.311 8.063a4.6 4.6 0 0 1 .07.805l.006 5.628c.038.319.242 1.417 1.252 2.189.738.563 1.785.656 2.378.656l.451-.021c.125 0 1.25-.021 2.111-.613 1.297-.893 1.497-2.313 1.528-2.75l.23-5.506.041-.449.715-5.169c.226-1.637-.183-3.271-1.144-4.511zm-7.041-1.141c.315-.278.683-.34.95-.34.186 0 .321.03.351.037 2.582.443 3.901 1.531 4.572 2.39.693.895.993 2.12.821 3.359l-.037.269a5.1 5.1 0 0 0-2.955-1.863l-.22-.047V5h-1.504v1.695a4.45 4.45 0 0 0-1.967 1.462l-.435-2.725v-.001c-.024-.156-.036-.891-.042-1.205l-.005-.278c-.003-.16.024-.715.47-1.109zm5.98 10.617-.053.588-.229 5.485c-.013.175-.116 1.074-.881 1.601-.405.278-1.05.345-1.336.352-.317.034-1.349.042-1.836-.33-.543-.415-.653-1.005-.669-1.087v-5.539a6 6 0 0 0-.091-1.057l-.401-2.425.203-.878a2.92 2.92 0 0 1 2.056-2.145l.644.138a3.59 3.59 0 0 1 2.738 2.69l.133.573h.002l-.281 2.034z"/></svg>