<svg xmlns="http://www.w3.org/2000/svg" viewBox="0 0 24 24"><path fill="#002466" d="M21.302 15.565c-.586-.533-1.315-1.195-2.706-1.195s-2.12.662-2.707 1.194c-.252.229-.47.425-.72.567a3 3 0 0 0 .308-1.016l.005-.053-.002-.053a1.28 1.28 0 0 1 .896-1.28l.098-.037a2.97 2.97 0 0 0 1.16-.98l.608-.866a4.7 4.7 0 0 0 .344-4.85l1.59-2.271-3.686-2.581-1.59 2.27a4.69 4.69 0 0 0-4.438 1.983l-.607.867a2.97 2.97 0 0 0-.521 1.426l-.004.052.002.052a1.28 1.28 0 0 1-.897 1.28l-.097.039a2.96 2.96 0 0 0-1.159.974l-3.301 4.632-.174-.153C3.119 15.034 2.39 14.37 1 14.37v1.5c.81 0 1.18.338 1.693.805.585.532 1.314 1.195 2.703 1.195s2.117-.663 2.703-1.195c.514-.467.885-.805 1.694-.805s1.181.338 1.695.805c.586.532 1.315 1.195 2.705 1.195s2.119-.662 2.706-1.194c.515-.468.886-.806 1.698-.806s1.182.338 1.697.806c.586.532 1.315 1.194 2.706 1.194v-1.5c-.811 0-1.183-.338-1.697-.805zm-7.321-.546a1.46 1.46 0 0 1-.246.65l-.378.52c-.31-.144-.566-.359-.86-.626-.585-.533-1.314-1.195-2.704-1.195s-2.118.663-2.704 1.195c-.514.467-.885.805-1.694.805-.048 0-.083-.011-.13-.014l3.139-4.403a1.46 1.46 0 0 1 .534-.464 2.78 2.78 0 0 0 1.892-2.703c.03-.237.116-.465.253-.661l.607-.866a3.21 3.21 0 0 1 3.38-1.291l.494.116 1.295-1.85 1.229.86-1.295 1.85.278.425a3.21 3.21 0 0 1-.057 3.618l-.607.867c-.137.196-.32.355-.534.463a2.78 2.78 0 0 0-1.892 2.703m4.615 3.338c-1.39 0-2.119.662-2.706 1.194-.515.468-.886.806-1.698.806s-1.181-.338-1.695-.805c-.585-.533-1.314-1.195-2.705-1.195s-2.117.663-2.703 1.195c-.514.467-.885.805-1.694.805s-1.18-.338-1.692-.805C3.118 19.02 2.389 18.357 1 18.357v1.5c.81 0 1.18.338 1.693.805.585.532 1.314 1.195 2.702 1.195s2.118-.663 2.704-1.195c.514-.467.885-.805 1.693-.805s1.182.338 1.696.805c.586.532 1.315 1.195 2.704 1.195s2.12-.662 2.707-1.194c.515-.468.886-.806 1.697-.806s1.183.338 1.698.806c.586.532 1.315 1.194 2.705 1.194v-1.5c-.81 0-1.182-.338-1.696-.805-.586-.533-1.315-1.195-2.707-1.195"/></svg>