<svg xmlns="http://www.w3.org/2000/svg" fill="#002466" viewBox="0 0 24 24"><path d="M6.301 7.314V6.165h1.15V4.667h-1.15V3.518h-1.5v1.149h-1.15v1.499H4.8v1.149h1.5zm15.797-5.361a3.09 3.09 0 0 0-4.362 0l-.402.401-.41-.41a3.08 3.08 0 0 0-4.347 0 3.07 3.07 0 0 0-.91 2.185 3.05 3.05 0 0 0 .902 2.181l4.013 4.009v3.721a5.11 5.11 0 0 1-2.015 4.068c-.668-1.978-2.317-4.022-2.547-4.301l-.578-.701-.579.701c-.23.279-1.877 2.321-2.545 4.299a5.12 5.12 0 0 1-2.016-4.066v-3.663c2.151-.36 3.8-2.22 3.8-4.47V1h-9.1v4.908c0 2.25 1.649 4.11 3.8 4.47v3.663a6.62 6.62 0 0 0 3.247 5.698C8.125 21.548 9.611 23 11.44 23s3.314-1.449 3.393-3.257a6.61 6.61 0 0 0 3.247-5.703v-3.717l4.017-4.013a3.084 3.084 0 0 0 0-4.358zM2.501 5.908V2.499h6.1v3.409c0 1.68-1.368 3.047-3.05 3.047s-3.05-1.367-3.05-3.047m8.939 15.594a1.91 1.91 0 0 1-1.907-1.906c0-1.166 1.098-2.952 1.907-4.076.81 1.124 1.908 2.911 1.908 4.076a1.91 1.91 0 0 1-1.908 1.906m9.597-16.25-3.704 3.701-3.704-3.701c-.3-.299-.464-.697-.463-1.119s.168-.825.471-1.128c.297-.297.692-.461 1.112-.461s.816.164 1.113.461l1.471 1.47 1.463-1.462a1.59 1.59 0 0 1 2.241 0 1.586 1.586 0 0 1 0 2.239"/></svg>