<svg xmlns="http://www.w3.org/2000/svg" fill="#002466" viewBox="0 0 24 24"><path d="M21.303 15.827c-.586-.532-1.315-1.195-2.705-1.195s-2.119.663-2.705 1.195c-.514.467-.886.805-1.697.805s-1.181-.337-1.695-.805c-.586-.533-1.315-1.195-2.705-1.195s-2.116.663-2.702 1.195c-.513.467-.884.805-1.693.805s-1.18-.338-1.694-.805c-.586-.532-1.314-1.195-2.702-1.195v1.5c.808 0 1.179.337 1.693.805.586.533 1.314 1.195 2.703 1.195s2.116-.663 2.702-1.195c.513-.467.884-.805 1.693-.805s1.182.338 1.697.805c.585.532 1.314 1.195 2.703 1.195s2.119-.663 2.705-1.195c.514-.467.886-.805 1.697-.805s1.183.338 1.697.805c.586.532 1.315 1.195 2.705 1.195v-1.5c-.811 0-1.183-.338-1.697-.805m-2.705 2.793c-1.39 0-2.119.663-2.705 1.195-.514.467-.886.805-1.697.805s-1.181-.337-1.695-.805c-.586-.533-1.315-1.195-2.705-1.195s-2.116.663-2.702 1.195c-.513.467-.884.805-1.693.805s-1.18-.338-1.694-.805c-.586-.532-1.314-1.195-2.702-1.195v1.5c.808 0 1.179.337 1.693.805.586.533 1.314 1.195 2.703 1.195s2.116-.663 2.702-1.195c.513-.467.884-.805 1.693-.805s1.182.338 1.697.805c.585.532 1.314 1.195 2.703 1.195s2.119-.663 2.705-1.195c.514-.467.886-.805 1.697-.805s1.183.338 1.697.805c.586.532 1.315 1.195 2.705 1.195v-1.5c-.811 0-1.183-.338-1.697-.805-.586-.532-1.315-1.195-2.705-1.195m-9.102-7.74h1.499v-9H9.496v1H1v1.5h8.496v4H1v1.5h8.496zm5.248 1h1.499a3.754 3.754 0 0 0-3.748-3.75v1.5a2.25 2.25 0 0 1 2.249 2.25m2.999 0h1.499a6.76 6.76 0 0 0-6.747-6.75v1.5a5.255 5.255 0 0 1 5.248 5.25"/></svg>