<svg xmlns="http://www.w3.org/2000/svg" fill="#002466" viewBox="0 0 24 24"><path d="M19.883 4.25c-.329-1.151-1.378-2-2.633-2s-2.304.849-2.633 2H1v1.5h13.617c.329 1.151 1.378 2 2.633 2s2.304-.849 2.633-2H23v-1.5zm-2.633 2a1.25 1.25 0 1 1 0-2.5 1.25 1.25 0 1 1 0 2.5m-1.75 10a2.745 2.745 0 0 0-2.633 2H1v1.5h11.867c.329 1.151 1.378 2 2.633 2s2.304-.849 2.633-2H23v-1.5h-4.867a2.745 2.745 0 0 0-2.633-2m0 4a1.25 1.25 0 1 1 0-2.5 1.25 1.25 0 1 1 0 2.5m-8-11a2.745 2.745 0 0 0-2.633 2H1v1.5h3.867c.329 1.151 1.378 2 2.633 2s2.304-.849 2.633-2H23v-1.5H10.133a2.745 2.745 0 0 0-2.633-2m0 4a1.25 1.25 0 1 1 0-2.5 1.25 1.25 0 1 1 0 2.5"/></svg>