<svg xmlns="http://www.w3.org/2000/svg" fill="#002466" viewBox="0 0 24 24"><path d="m21.972 8.724-.296-.7c-.073-.65-.487-2.209-.997-2.867l-.127-.128c-.213-.186-.493-.329-1.004-.561-.315-.144-.672-.307-.833-.465-.118-.116-.271-.292-.479-.529-.773-.881-1.153-1.263-1.53-1.508l-.301-.118c-.259-.068-.569-.075-1.063-.067l-.278.004c-.105 0-.386 0-.529-.059l-.127-.051c-.803-.332-1.718-.67-2.447-.672-.677.011-1.578.346-2.372.672l-.123.051c-.146.059-.427.059-.532.059l-.601-.008a2.9 2.9 0 0 0-.829.094l-.284.14c-.336.217-.773.683-1.487 1.495l-.45.497c-.161.158-.518.321-.835.466-.507.231-.786.373-1.054.61l-.124.137c-.458.595-.874 2.156-.949 2.808-.014.117-.145.388-.297.703-.691 1.426-1.977 4.08.127 6.538.816.953 1.985 1.965 3.227 2.912.187 1.829.541 3.931 1.208 4.502.121.104.371.317 1.244.317.775 0 2.05-.173 4.153-.738l.016.007.024-.01c2.112.569 3.39.743 4.167.743.873 0 1.124-.214 1.245-.318.669-.572 1.023-2.687 1.209-4.52 1.233-.942 2.391-1.946 3.202-2.893 2.104-2.458.818-5.112.125-6.541zM7.546 21.496c-.157-.301-.344-1.115-.5-2.111l2.858 1.824c-1.091.223-2.002.34-2.358.287m8.946-.002c-.355.06-1.281-.059-2.391-.288l2.879-1.84c-.158 1.032-.346 1.866-.488 2.127zm4.218-7.205c-2.114 2.47-7.294 5.718-8.71 6.35-1.417-.633-6.597-3.88-8.71-6.35-1.224-1.431-.897-2.882.084-4.906.239-.493.396-.818.438-1.189.067-.589.447-1.803.598-2.004l.019-.026c.089-.076.476-.252.646-.33.427-.195.912-.417 1.26-.76.133-.13.307-.327.551-.605.229-.261.803-.914 1.131-1.176a3 3 0 0 1 .319-.015l.601.008c.335 0 .727-.02 1.099-.17l.127-.052c.331-.136 1.34-.552 1.839-.56.323.001.942.189 1.843.561l.129.053c.366.149.758.169 1.094.169l.31-.004c.338-.009.508 0 .629.018.262.202.894.921 1.121 1.181s.405.459.54.592c.348.344.833.565 1.265.763l.587.277.024.02c.2.26.58 1.473.646 2.063.043.37.208.711.439 1.188.981 2.023 1.308 3.475.084 4.906zm-9.473-9.786h1.497v10h-1.497zM7.26 7.66l1.465-.313 1.497 7-1.465.313zm-2.915 3.711 2.246 4 1.304-.735-2.246-4zm9.404 2.976 1.497-7 1.465.313-1.497 7zm2.326.289 1.304.735 2.246-4-1.304-.735z"/></svg>