<svg xmlns="http://www.w3.org/2000/svg" viewBox="0 0 24 24"><path fill="#002466" d="M19.879 11.92a13.27 13.27 0 0 1-2.157-7.302V1.826L14.572 1l-.312 1.006a3.94 3.94 0 0 1-4.474.031l-.317-1.035-3.19.82v2.796c0 2.626-.746 5.151-2.157 7.303L4 12.106V23h16V12.106zM12 4.223c.56 0 1.117-.097 1.656-.269l-1.652 5.332-1.63-5.324a5.5 5.5 0 0 0 1.626.26m-6.5 8.323A14.76 14.76 0 0 0 7.778 4.62V2.975l.673-.173 2.799 9.14v9.57H5.5zm13 8.966h-5.75v-9.568l2.831-9.139.641.168v1.646c0 2.838.787 5.574 2.278 7.926zm-4.226-3.476h2.976v1.49h-2.976z"/><path fill="#002466" d="M14.274 15.057h2.976v1.49h-2.976zm-7.548 2.978H9.75v1.49H6.726zm0-2.978H9.75v1.49H6.726z"/></svg>