<svg xmlns="http://www.w3.org/2000/svg" fill="#002466" viewBox="0 0 24 24"><path d="M17.807 11.434c-.793-.301-1.636-1.139-1.636-2.1V4.75H12.19v4.584c0 .961-.842 1.799-1.634 2.1-.151.057-.286.13-.431.193V10.25a3.004 3.004 0 0 0-2.25-2.905V1h-4v6.345a3.005 3.005 0 0 0-2.25 2.905V23h16.807l.15-.07c2.305-1.074 3.793-3.341 3.793-5.776 0-2.461-1.751-4.653-4.568-5.72M14.671 6.25v.361h-.981V6.25zM6.375 2.5V4h-1V2.5zm-1.75 6.25h.75V5.5h1v3.25h.75a1.5 1.5 0 0 1 1.5 1.5v2.204c-1.663 1.181-2.639 2.865-2.639 4.7 0 .201.025.398.045.597H3.125v-7.5a1.5 1.5 0 0 1 1.5-1.5zm-1.5 10.5h3.253a6.45 6.45 0 0 0 1.417 2.25h-4.67zm14.969 2.25h-7.827c-1.694-.854-2.78-2.543-2.78-4.347 0-1.822 1.38-3.476 3.601-4.318 1.254-.475 2.603-1.773 2.603-3.502V8.111h.981v1.222c0 1.729 1.35 3.027 2.604 3.502 2.221.841 3.6 2.495 3.6 4.317 0 1.804-1.086 3.493-2.781 4.347zm-7.833-5.342-.553.151v3.508l.553.151c1.342.366 2.661.551 3.92.551s2.579-.186 3.919-.551l.553-.151v-3.508l-.553-.151c-2.678-.731-5.153-.732-7.839 0m6.892 2.502a13.3 13.3 0 0 1-2.972.359c-.954 0-1.952-.121-2.973-.359v-1.194a13 13 0 0 1 2.973-.359 13.2 13.2 0 0 1 2.972.359z"/></svg>