<svg xmlns="http://www.w3.org/2000/svg" fill="#002466" viewBox="0 0 24 24"><path d="M13.185 5.685V6.75h1.5V5.685c0-.791-.635-1.435-1.369-1.369V3.25h-1.5v1.065c0 .791.633 1.432 1.369 1.369zm-3.967 0V6.75h1.5V5.685c0-.791-.631-1.435-1.37-1.369V3.25h-1.5v1.065c0 .791.63 1.437 1.37 1.369zm7.934 0V6.75h1.5V5.685c0-.791-.633-1.432-1.37-1.369V3.25h-1.5v1.065c0 .791.629 1.432 1.37 1.369zM3.5 8.25V10h-1V6A.75.75 0 1 1 4 6v1.25h1.5V6c0-1.241-1.01-2.25-2.25-2.25S1 4.759 1 6v14h1.5v-3h1v3.75H23V8.25zm18 1.5v1H5v-1zm-19 5.75v-4h1v4zM5 19.25v-7h16.5v7z"/></svg>