<svg xmlns="http://www.w3.org/2000/svg" fill="#002466" viewBox="0 0 24 24"><path d="M9.013 10.822a4.46 4.46 0 0 0 2.994 1.167 4.46 4.46 0 0 0 2.994-1.167v2.441h1.5V7.495A4.5 4.5 0 0 0 12.007 3a4.5 4.5 0 0 0-4.494 4.495v5.768h1.5zm5.909-3.989c-1.522-.038-1.985-.334-2.5-.677s-1.102-.723-2.42-.869a2.97 2.97 0 0 1 2.005-.787c1.423 0 2.612 1 2.915 2.333m-5.797-.104c1.495.042 1.955.336 2.465.676.618.412 1.33.87 3.278.925a2.99 2.99 0 0 1-2.861 2.159 3 3 0 0 1-2.994-2.994 3 3 0 0 1 .112-.766m6.876 7.772h-8a5.01 5.01 0 0 0-5 5v1.5h1.5v-1.5c0-1.93 1.57-3.5 3.5-3.5h8c1.93 0 3.5 1.57 3.5 3.5v1.5h1.5v-1.5a5.01 5.01 0 0 0-5-5"/></svg>