<svg xmlns="http://www.w3.org/2000/svg" fill="#002466" viewBox="0 0 24 24"><path d="M6.279 15.698a10 10 0 0 0-.609-.845 8 8 0 0 0 .559-.783 5.7 5.7 0 0 0 .483-.963c.039-.079.021-.135-.003-.169s-.064-.068-.148-.068h-.858c-.103 0-.174.056-.195.15a3.4 3.4 0 0 1-.223.582l-.239.437-.253-.438a3.4 3.4 0 0 1-.236-.584.2.2 0 0 0-.2-.146H3.46c-.086 0-.128.04-.148.073s-.034.084-.005.16q.199.482.471.931c.173.283.365.56.572.823a7 7 0 0 0-.597.812c-.196.31-.37.643-.514.992-.03.075-.014.128.005.158s.063.073.148.073h.881c.096 0 .166-.052.201-.151a3 3 0 0 1 .232-.597q.13-.247.269-.454l.279.456a3.3 3.3 0 0 1 .256.601c.033.094.104.146.199.146h.92c.086 0 .128-.04.147-.073s.036-.084.006-.161a7 7 0 0 0-.502-.959z"/><path d="M10.038 15.698a10 10 0 0 0-.609-.845q.295-.362.559-.783a5.7 5.7 0 0 0 .483-.963c.039-.079.021-.135-.003-.169s-.064-.068-.148-.068h-.858c-.103 0-.174.056-.195.15a3.4 3.4 0 0 1-.223.582l-.239.437-.253-.438a3.4 3.4 0 0 1-.236-.584.2.2 0 0 0-.2-.146h-.897c-.086 0-.128.04-.148.073s-.034.084-.005.16q.199.482.471.931a9 9 0 0 0 .572.823 7.5 7.5 0 0 0-.597.812 6.5 6.5 0 0 0-.514.992c-.03.075-.014.128.005.158s.063.073.148.073h.881c.096 0 .166-.052.201-.151a3 3 0 0 1 .232-.597q.13-.247.269-.454l.279.456a3.3 3.3 0 0 1 .256.601c.033.094.104.146.199.146h.92c.086 0 .128-.04.148-.073s.035-.084.005-.161a7 7 0 0 0-.502-.959zm1.274.066a.56.56 0 0 0-.423.17.6.6 0 0 0-.157.433.57.57 0 0 0 .58.585.6.6 0 0 0 .423-.159c.109-.105.162-.25.162-.426s-.053-.321-.157-.433-.25-.17-.428-.17m1.078-1.156h2.35c.103 0 .188.084.188.188v.533a.19.19 0 0 1-.187.188H12.39a.187.187 0 0 1-.187-.187v-.534c0-.103.084-.187.188-.187zM1 19.5h16.25v-9.235H1zm1.5-7.735h13.25V18H2.5zm13-7.265V6a6.01 6.01 0 0 1 6 6H23a7.51 7.51 0 0 0-7.5-7.5m0 2.25v1.5A3.755 3.755 0 0 1 19.25 12h1.5a5.26 5.26 0 0 0-5.25-5.25"/></svg>