<svg xmlns="http://www.w3.org/2000/svg" fill="#002466" viewBox="0 0 24 24"><path d="M22.047 7.028a4.07 4.07 0 0 1-3.968-.998 4.08 4.08 0 0 1-1.143-3.93l.267-1.1H8.5v1.25a1.5 1.5 0 1 1-3 0V1H1v22h7.75v-1c0-.965.785-1.75 1.75-1.75s1.75.785 1.75 1.75v1H23V6.76zM21.5 21.5h-7.788c-.241-1.556-1.59-2.75-3.212-2.75s-2.971 1.194-3.212 2.75H2.5v-19h1.511C4.138 4.038 5.43 5.25 7 5.25S9.862 4.038 9.989 2.5h5.359a5.55 5.55 0 0 0 1.689 4.609 5.56 5.56 0 0 0 4.462 1.546V21.5zM15.75 10c-1.792 0-3.25 1.458-3.25 3.25s1.458 3.25 3.25 3.25S19 15.042 19 13.25 17.542 10 15.75 10m0 5c-.965 0-1.75-.785-1.75-1.75s.785-1.75 1.75-1.75 1.75.785 1.75 1.75S16.715 15 15.75 15"/></svg>