<svg xmlns="http://www.w3.org/2000/svg" viewBox="0 0 24 24"><path fill="#002466" d="M6.136 7.852A2.743 2.743 0 0 0 8.88 5.114a2.744 2.744 0 0 0-5.488 0 2.743 2.743 0 0 0 2.744 2.738m0-3.977a1.24 1.24 0 0 1 1.24 1.239 1.241 1.241 0 0 1-2.48 0 1.24 1.24 0 0 1 1.24-1.239m3.633 7.602v.796h1.503v-.796a3.013 3.013 0 0 0-3.01-3.003H4.01A3.013 3.013 0 0 0 1 11.477v.796h1.503v-.796c0-.829.677-1.503 1.508-1.503h4.25c.832 0 1.508.674 1.508 1.503m12.044 4.376h-6.716a2.46 2.46 0 0 0-2.445-2.228H9.733a2.473 2.473 0 0 0-2.47 2.463v3.054a2.473 2.473 0 0 0 2.453 2.463l2.92.02h.016c.657 0 1.274-.254 1.74-.715.403-.402.652-.934.704-1.501h6.716L23 17.631zm-8.195 3.309a.96.96 0 0 1-.285.684c-.183.183-.451.245-.688.28l-2.919-.02a.967.967 0 0 1-.959-.963v-3.054c0-.531.434-.963.966-.963h2.92c.532 0 .965.432.965.963zm7.39-1.253h-5.887v-.556h5.888l.185.278zM9.669 16.26h1.503v2.742H9.668z"/></svg>