<svg xmlns="http://www.w3.org/2000/svg" fill="#002466" viewBox="0 0 24 24"><path d="m20.408 12.657-.766-.425a.3.3 0 0 1-.157-.266v-3.48C19.485 4.358 16.127 1 12 1S4.515 4.358 4.515 8.486v3.479c0 .11-.061.212-.157.266l-.766.425a3.33 3.33 0 0 0-1.713 2.912 3.334 3.334 0 0 0 3.331 3.331h13.58a3.334 3.334 0 0 0 3.331-3.331 3.33 3.33 0 0 0-1.713-2.912zM18.79 17.4H5.21a1.833 1.833 0 0 1-1.831-1.831 1.83 1.83 0 0 1 .941-1.601l.766-.425c.573-.318.929-.923.929-1.578V8.486C6.015 5.185 8.699 2.5 12 2.5s5.985 2.685 5.985 5.986v3.479c0 .655.355 1.259.929 1.578l.766.425a1.83 1.83 0 0 1 .941 1.601c0 1.01-.821 1.831-1.831 1.831M9 21.5h6V23H9z"/></svg>