<svg xmlns="http://www.w3.org/2000/svg" fill="#002466" viewBox="0 0 24 24"><path d="M12.049 1 2.25 10.986V23h19.5V10.988zm8.201 20.505H3.75v-9.91l8.293-8.451 8.207 8.449zM10.811 10.89l1.061-1.057a3.01 3.01 0 0 0-4.242 0 2.985 2.985 0 0 0 0 4.228l1.061-1.057c-.585-.583-.585-1.531 0-2.114s1.537-.582 2.121 0zM9.25 15.775a4.5 4.5 0 1 0 9 0 4.5 4.5 0 1 0-9 0m4.5-2.99a3 3 0 1 1-3 2.99 3 3 0 0 1 3-2.99m-1.177 2.135q.034.103.145.069l.55-.208v2.871q0 .115.116.115h.782q.116 0 .116-.115v-3.755q0-.116-.116-.116h-.562a.4.4 0 0 0-.133.029l-1.015.41q-.104.034-.069.144l.185.555z"/></svg>