<svg xmlns="http://www.w3.org/2000/svg" viewBox="0 0 24 24"><path fill="#002466" d="m14.478 23 8.354-4.073-8.354-4.073zm1.497-5.749 3.439 1.676-3.439 1.676z"/><path fill="#002466" d="M15.994 1c-1.675 0-3.15.873-3.994 2.188A4.74 4.74 0 0 0 8.006 1H1v17.982h11.749V5.745A3.25 3.25 0 0 1 15.994 2.5h5.508v14.236H23V1zm-4.743 16.484H2.498V2.499h5.508a3.25 3.25 0 0 1 3.245 3.246z"/><path fill="#002466" d="M4.012 5.995h5.492v1.499H4.012zM4.012 8.992h5.492v1.499H4.012zM4.012 11.989h5.492v1.499H4.012zM14.496 11.989h5.492v1.499h-5.492zM14.496 5.995h5.492v1.499h-5.492zM14.496 8.992h5.492v1.499h-5.492z"/></svg>