<svg xmlns="http://www.w3.org/2000/svg" viewBox="0 0 24 24"><path fill="#002466" d="M19.75 14.522h-1a3.254 3.254 0 0 0-3.25 3.25v.75H6.384c.226-.41.366-.874.366-1.375a2.87 2.87 0 0 0-1.545-2.534L12.84 9.43l.422.621c.487.718 1.226 1.204 2.078 1.367s1.718-.016 2.437-.503l.826-.562c.719-.487 1.204-1.226 1.367-2.078s-.016-1.718-.504-2.436l-1.264-1.861L2.491 14.643A2.87 2.87 0 0 0 1 17.147a2.88 2.88 0 0 0 2.875 2.875c.041 0 .079-.01.119-.012v.012H23v-2.25a3.254 3.254 0 0 0-3.25-3.25M17.804 6.06l.422.621a1.74 1.74 0 0 1 .271 1.312 1.74 1.74 0 0 1-.736 1.119l-.826.562a1.754 1.754 0 0 1-2.432-.465l-.421-.621 3.723-2.527zM3.875 18.522A1.377 1.377 0 0 1 2.5 17.147c0-.56.338-1.041.82-1.255l.011-.006a1.372 1.372 0 0 1 1.919 1.262c0 .758-.617 1.375-1.375 1.375zm17.625 0H17v-.75c0-.965.785-1.75 1.75-1.75h1c.965 0 1.75.785 1.75 1.75z"/></svg>