<svg xmlns="http://www.w3.org/2000/svg" fill="#002466" viewBox="0 0 24 24"><path d="M8.75 7.345V1h-4v6.345A3.005 3.005 0 0 0 2.5 10.25V23H11V10.25a3.004 3.004 0 0 0-2.25-2.905M6.25 2.5h1V4h-1zm3.25 19H4v-2.25h5.5zm0-3.75H4v-7.5a1.5 1.5 0 0 1 1.5-1.5h.75V5.5h1v3.25H8a1.5 1.5 0 0 1 1.5 1.5zm9.75-5.395h-4a2.253 2.253 0 0 0-2.25 2.25v6.145c0 1.241 1.01 2.25 2.25 2.25h4c1.24 0 2.25-1.009 2.25-2.25v-6.145c0-1.241-1.01-2.25-2.25-2.25M20 20.75a.75.75 0 0 1-.75.75h-4a.75.75 0 0 1-.75-.75v-1.5h.61c.522.636 1.295 1.005 2.14 1.005s1.617-.369 2.14-1.005H20zm0-3h-1.431l-.217.372c-.463.793-1.742.793-2.205 0l-.217-.372H14.5v-3.145a.75.75 0 0 1 .75-.75h4a.75.75 0 0 1 .75.75zM14 10h6.5v1.5H14z"/></svg>