<svg xmlns="http://www.w3.org/2000/svg" viewBox="0 0 24 24"><path fill="#002466" d="M21 7.375v-2c0-1.24-1.01-2.25-2.25-2.25s-2.25 1.01-2.25 2.25v2h-9v-2c0-1.24-1.01-2.25-2.25-2.25S3 4.135 3 5.375v2H.864L2.661 18.16a3.24 3.24 0 0 0 3.207 2.715h12.264a3.24 3.24 0 0 0 3.207-2.716l1.797-10.784zm-3-2a.751.751 0 0 1 1.5 0v2H18zm-13.5 0a.751.751 0 0 1 1.5 0v2H4.5zm15.358 12.538a1.744 1.744 0 0 1-1.726 1.462H5.868c-.86 0-1.586-.615-1.726-1.462L2.636 8.875h18.728z"/><path fill="#002466" d="M5.25 10.375h2v1.5h-2zM16.75 10.375h2v1.5h-2zM7.25 16.375h2v1.5h-2zM14.75 16.375h2v1.5h-2zM6.25 13.375h2v1.5h-2zM11 13.375h2v1.5h-2zM11 10.375h2v1.5h-2zM11 16.375h2v1.5h-2zM15.75 13.375h2v1.5h-2z"/></svg>