<svg xmlns="http://www.w3.org/2000/svg" fill="#002466" viewBox="0 0 24 24"><path d="M12 1C5.935 1 1 5.935 1 12s4.935 11 11 11 11-4.935 11-11S18.065 1 12 1m0 20.5c-5.238 0-9.5-4.262-9.5-9.5S6.762 2.5 12 2.5s9.5 4.262 9.5 9.5-4.262 9.5-9.5 9.5m5.2-14.333H6.8c-1.13 0-2.05.92-2.05 2.05v6.816h1.88a2.05 2.05 0 0 0 1.903 1.3 2.05 2.05 0 0 0 1.903-1.3h3.128a2.05 2.05 0 0 0 3.806 0h1.88V9.217c0-1.13-.92-2.05-2.05-2.05m.55 2.05v1.417h-2.833V8.667H17.2a.55.55 0 0 1 .55.55m-7.167 1.417V8.667h2.834v1.967zM6.8 8.667h2.283v1.967H6.25V9.217a.55.55 0 0 1 .55-.55m1.733 7.166a.55.55 0 1 1 0-1.1.55.55 0 1 1 0 1.1m6.934 0a.55.55 0 1 1 0-1.1.55.55 0 1 1 0 1.1m1.903-1.3a2.05 2.05 0 0 0-3.806 0h-3.128a2.05 2.05 0 0 0-1.903-1.3 2.05 2.05 0 0 0-1.903 1.3h-.38v-2.399h11.5v2.399z"/></svg>