<svg xmlns="http://www.w3.org/2000/svg" fill="#002466" viewBox="0 0 24 24"><path d="M12.049 1 2.25 10.986V23h19.5V10.988zm8.201 20.505H3.75v-9.91l8.293-8.451 8.207 8.449zM8.523 10.21c-.199 0-.317.118-.317.316v.755c0 .198.118.316.317.316h.716v8.012c0 .199.118.317.317.317h.936a.29.29 0 0 0 .318-.317v-3.045h1.072c1.245 0 2.218-.287 2.891-.853s1.021-1.374 1.021-2.386c0-1.023-.335-1.808-.996-2.334-.653-.519-1.625-.782-2.887-.782H8.523zm5.119 4.471c-.367.338-.955.509-1.746.509H10.81v-3.593h1.086c.783 0 1.37.159 1.745.472s.553.741.553 1.311c0 .536-.181.962-.552 1.301"/></svg>