<svg xmlns="http://www.w3.org/2000/svg" fill="#002466" viewBox="0 0 24 24"><path d="M12 9.375a2.625 2.625 0 1 0 0 5.25 2.625 2.625 0 0 0 0-5.25m0 3.75c-.62 0-1.125-.505-1.125-1.125s.505-1.125 1.125-1.125 1.125.505 1.125 1.125-.505 1.125-1.125 1.125m-8.375-3.75a2.625 2.625 0 1 0 0 5.25 2.625 2.625 0 0 0 0-5.25m0 3.75c-.62 0-1.125-.505-1.125-1.125s.505-1.125 1.125-1.125S4.75 11.38 4.75 12s-.505 1.125-1.125 1.125m16.75-3.75a2.625 2.625 0 1 0 0 5.25 2.625 2.625 0 0 0 0-5.25m0 3.75c-.62 0-1.125-.505-1.125-1.125s.505-1.125 1.125-1.125S21.5 11.38 21.5 12s-.505 1.125-1.125 1.125"/></svg>