<svg xmlns="http://www.w3.org/2000/svg" fill="#002466" viewBox="0 0 24 24"><path d="M15.52 5.791V3.753l-2.749.794A2.244 2.244 0 0 1 15 2.5V1c-2.002 0-3.628 1.581-3.731 3.558L8.48 3.753l.005 2.007C4.608 6.419 2.109 9.243 2.109 13c0 4.809 3.781 10 9.891 10s9.891-5.191 9.891-10c0-3.56-2.614-6.503-6.371-7.209m-5.539.515v-.559l1.35.39.184-.637h.972l.184.637 1.354-.391.002.656.095.726-1.484-.318-.636.766-.636-.766-1.487.319.104-.823zM12 21.5c-5.183 0-8.391-4.412-8.391-8.5 0-2.851 1.847-5.013 4.731-5.665l-.22 1.704 2.67-.572L12 9.924l1.21-1.457 2.67.572-.22-1.665c2.844.702 4.73 2.893 4.73 5.626 0 4.088-3.208 8.5-8.391 8.5zm.562-3.028v1.5c3.293 0 5.433-2.638 5.773-5.12l-1.486-.204c-.255 1.854-1.844 3.824-4.287 3.824"/></svg>