<svg xmlns="http://www.w3.org/2000/svg" fill="#002466" viewBox="0 0 24 24"><path d="M8.263 9.879V7.94H4.778v1.939a3.36 3.36 0 0 0-1.653 2.907v.699a2.2 2.2 0 0 0 .291 1.097l.059.088a.59.59 0 0 1 0 .722l-.059.088a2.2 2.2 0 0 0-.291 1.097v4.019A2.406 2.406 0 0 0 5.528 23h1.984a2.406 2.406 0 0 0 2.404-2.404v-4.019a2.2 2.2 0 0 0-.291-1.097l-.059-.088a.59.59 0 0 1 0-.722l.059-.088a2.2 2.2 0 0 0 .291-1.097v-.699a3.36 3.36 0 0 0-1.654-2.907zm.154 3.606a.7.7 0 0 1-.076.321 2.09 2.09 0 0 0 0 2.45.7.7 0 0 1 .076.321v4.019a.904.904 0 0 1-.904.904H5.528a.904.904 0 0 1-.903-.904v-4.019a.7.7 0 0 1 .076-.321 2.09 2.09 0 0 0 0-2.45.7.7 0 0 1-.076-.321v-.699a1.87 1.87 0 0 1 1.183-1.747l.471-.189V9.44h.484v1.412l.472.188a1.87 1.87 0 0 1 1.183 1.746zm7.45-3.606V7.94h-3.484v1.939a3.36 3.36 0 0 0-1.653 2.907v.699a2.2 2.2 0 0 0 .291 1.097l.058.087a.59.59 0 0 1 0 .724l-.058.087a2.2 2.2 0 0 0-.291 1.097v4.019A2.406 2.406 0 0 0 13.133 23h1.984a2.406 2.406 0 0 0 2.403-2.404v-4.019a2.2 2.2 0 0 0-.291-1.097l-.058-.087a.59.59 0 0 1 0-.724l.058-.087a2.2 2.2 0 0 0 .291-1.097v-.699a3.36 3.36 0 0 0-1.653-2.907m.153 3.606a.7.7 0 0 1-.076.321 2.09 2.09 0 0 0 0 2.449.7.7 0 0 1 .076.321v4.019a.904.904 0 0 1-.903.904h-1.984a.904.904 0 0 1-.903-.904v-4.019a.7.7 0 0 1 .076-.321 2.09 2.09 0 0 0 0-2.449.7.7 0 0 1-.076-.321v-.699a1.87 1.87 0 0 1 1.182-1.747l.472-.188V9.44h.484v1.412l.472.188a1.87 1.87 0 0 1 1.182 1.746v.699zm-4.269-7.639v.7h1.5v-.7a3.36 3.36 0 0 0-1.653-2.907V1H8.113v1.939A3.36 3.36 0 0 0 6.46 5.846v.7h1.5v-.7A1.87 1.87 0 0 1 9.142 4.1l.472-.188V2.5h.484v1.412l.472.188a1.87 1.87 0 0 1 1.182 1.746zm7.471-2.907V1h-3.484v1.939a3.36 3.36 0 0 0-1.654 2.907v.7h1.5v-.7A1.87 1.87 0 0 1 16.766 4.1l.472-.188V2.5h.484v1.412l.472.188a1.87 1.87 0 0 1 1.182 1.746v.7h1.5v-.7a3.36 3.36 0 0 0-1.653-2.907z"/></svg>