<svg xmlns="http://www.w3.org/2000/svg" fill="#002466" viewBox="0 0 24 24"><path d="M20.461 15.027h-7.973a2.54 2.54 0 0 0-2.42-1.782H5.659c-.324 0-.641.061-.942.182l-2.231.896A2.53 2.53 0 0 0 1 16.627v2.182c0 1.189.811 2.205 1.895 2.447l4.736 1.622a2.24 2.24 0 0 0 1.253.061l12.055-2.88A2.544 2.544 0 0 0 23 17.565a2.54 2.54 0 0 0-2.539-2.538m.162 3.565L8.536 21.48a.75.75 0 0 1-.418-.02l-4.814-1.644A1.03 1.03 0 0 1 2.5 18.81v-2.182c0-.404.237-.773.574-.926l2.201-.882a1 1 0 0 1 .384-.074h4.409c.569 0 1.033.463 1.033 1.032s-.464 1.032-1.033 1.032H7.989v1.499h2.079c1.136 0 2.1-.751 2.42-1.782h7.973a1.04 1.04 0 0 1 1.039 1.039c0 .497-.354.927-.877 1.027zM10.46 8.397l.627.3a.8.8 0 0 0 .186.061l.141.026.123.957a.76.76 0 0 0 .126.358l.265.39c.071.105.168.19.281.247l.305.155a.75.75 0 0 0 .34.082.76.76 0 0 0 .435-.139l.318-.226a.8.8 0 0 0 .178-.179l.483-.684a.74.74 0 0 0 .128-.312l.146-.931.016-.383.331-.346a.75.75 0 0 0-.28-1.22l-.324-.121-.022-.054a1 1 0 0 0-.062-.117l-.354-.541a.75.75 0 0 0-.691-.337l-.679.058-.586-.164a.74.74 0 0 0-.538.052l-.772.387a.74.74 0 0 0-.262.217l-.257.339a.75.75 0 0 0-.15.513l.137 1.057a.75.75 0 0 0 .416.556zm1.302-1.599.438.123a.8.8 0 0 0 .266.025l.367-.031.196.401a.8.8 0 0 0 .107.178.8.8 0 0 0-.066.281l-.019.576-.084.514-.007-.082a1 1 0 0 0-.027-.149l-.211-.714a.75.75 0 0 0-.581-.525l-.494-.092-.187-.089-.032-.248z"/><path d="M12 12.745A5.874 5.874 0 1 0 12 1a5.874 5.874 0 1 0 0 11.746zm3.393-8.599-.286.054-.802-.615a.75.75 0 0 0-.51-.153l-.307.022a1 1 0 0 0 .039-.114l.389-.281c.024-.017.04-.044.062-.065a4.4 4.4 0 0 1 1.414 1.152zm-6.685.466-.563.237a4.4 4.4 0 0 1 .317-.528zM7.643 6.698l1.886-.754a.75.75 0 0 0 .41-.398l.295-.68a.75.75 0 0 0-.033-.664l-.211-.378a1 1 0 0 0-.082-.118l-.373-.442a4.35 4.35 0 0 1 2.466-.766c.039 0 .074.01.113.011a.7.7 0 0 0-.062.284v.108l-.298.39a.75.75 0 0 0 .025.943l.435.508c.155.18.39.282.624.26l.782-.056.842.645a.75.75 0 0 0 .456.155 1 1 0 0 0 .139-.013l1.087-.204c.138.425.233.87.233 1.341A4.38 4.38 0 0 1 12 11.246a4.38 4.38 0 0 1-4.375-4.373c0-.06.015-.115.018-.174z"/></svg>