<svg xmlns="http://www.w3.org/2000/svg" fill="#002466" viewBox="0 0 24 24"><path d="M13.561 1H3.5v22h17V7.939zM14 3.561 17.939 7.5H14zM19 21.5H5v-19h7.5V9H19zm-9.565-5.8a1.1 1.1 0 0 0-.362-.245L8.69 15.3a1.6 1.6 0 0 1-.305-.153.26.26 0 0 1-.125-.232q0-.125.085-.192c.085-.067.132-.067.226-.067q.13 0 .242.077c.112.077.134.116.178.193q.03.055.063.065c.033.01.051.001.087-.015l.485-.24q.09-.04.05-.13a1.17 1.17 0 0 0-.42-.502q-.27-.177-.66-.177-.28 0-.502.075c-.222.075-.275.121-.381.212a.94.94 0 0 0-.242.33 1.05 1.05 0 0 0-.085.428 1 1 0 0 0 .072.4 1 1 0 0 0 .203.29q.164.165.364.255l.378.163a1.6 1.6 0 0 1 .298.155.26.26 0 0 1 .12.228.24.24 0 0 1-.098.203q-.098.073-.312.072a.9.9 0 0 1-.391-.077 1.5 1.5 0 0 1-.274-.163q-.09-.08-.146.03l-.265.49q-.04.075.02.13a1.5 1.5 0 0 0 .403.237q.262.112.652.113.325 0 .569-.087a1.2 1.2 0 0 0 .408-.235 1 1 0 0 0 .245-.342 1.1 1.1 0 0 0 .082-.415q0-.255-.077-.422a.8.8 0 0 0-.203-.292z"/><path d="m12.335 14.075-.147.73-.165.643-.189.583-.218.555h-.02l-.215-.555-.187-.583-.165-.643-.147-.73q-.016-.09-.105-.09h-.69q-.109 0-.095.105.141.86.402 1.658c.261.798.395 1.069.658 1.612q.034.075.114.075h.851q.075 0 .115-.075a13 13 0 0 0 .654-1.612 11 11 0 0 0 .405-1.658q.015-.105-.095-.105h-.65q-.095 0-.11.09zm1.555 2.943q.22.232.535.355c.315.123.446.123.71.123q.36 0 .645-.103c.285-.103.352-.166.485-.295s.235-.284.308-.468.107-.39.107-.62v-.2l-.01-.205q0-.095-.101-.095h-1.285q-.1 0-.1.1v.49q0 .1.1.1h.511q0 .26-.178.395c-.178.135-.279.135-.482.135a.74.74 0 0 1-.596-.26q-.22-.26-.22-.76c0-.5.073-.594.22-.772s.346-.268.596-.268q.45 0 .68.345.06.09.15.03l.484-.315q.08-.05.035-.135-.41-.67-1.35-.67-.396 0-.71.122c-.314.122-.389.2-.535.355a1.6 1.6 0 0 0-.338.563 2.2 2.2 0 0 0-.117.745 2.2 2.2 0 0 0 .117.745 1.6 1.6 0 0 0 .338.563z"/></svg>