<svg xmlns="http://www.w3.org/2000/svg" fill="#002466" viewBox="0 0 24 24"><path d="M21.027 15.94c-1.088 0-1.973.885-1.973 1.972s.885 1.973 1.973 1.973S23 19 23 17.912s-.885-1.972-1.973-1.972m0 2.444a.473.473 0 1 1 0-.947.473.473 0 0 1 0 .947M4.782 5.348c0-1.042-.848-1.891-1.891-1.891S1 4.305 1 5.348s.848 1.891 1.891 1.891 1.891-.848 1.891-1.891m-2.282 0a.391.391 0 0 1 .781 0 .391.391 0 1 1-.781 0"/><path d="M21.98 15.269v-1.5h-3.479l-1.493-1.493a6.4 6.4 0 0 0 1.838-.987l-.924-1.183a4.9 4.9 0 0 1-2.133.951l-.823-.823a3.23 3.23 0 0 0-2.298-.952h-1.529a3.23 3.23 0 0 0-2.298.952l-1.359 1.358c-.178.178-.315.178-.49 0a.343.343 0 0 1 0-.49L8.583 9.51a6.07 6.07 0 0 1 4.283-1.773h.571c.442.937 1.389 1.591 2.492 1.591s2.049-.654 2.491-1.591h3.561v-1.5h-3.325c-.166-1.364-1.318-2.428-2.726-2.428s-2.561 1.064-2.727 2.428h-.335a7.6 7.6 0 0 0-2.04.28 7.5 7.5 0 0 0-2.172 1.021H2.998v1.5h3.936L5.93 10.041a1.84 1.84 0 0 0-.541 1.306 1.83 1.83 0 0 0 .541 1.305c.697.698 1.913.7 2.612 0l1.359-1.358a1.74 1.74 0 0 1 1.238-.512h1.529a1.74 1.74 0 0 1 1.238.512l3.609 3.608a.413.413 0 0 1 0 .587.427.427 0 0 1-.587 0l-2.596-2.596-1.061 1.061 2.251 2.25a.417.417 0 0 1 0 .587.43.43 0 0 1-.588 0l-2.236-2.264-1.061 1.061 1.78 1.807a.41.41 0 0 1-.056.503.427.427 0 0 1-.587 0l-1.905-1.904-1.061 1.061 1.354 1.354a.371.371 0 0 1-.263.633h-.001a.37.37 0 0 1-.264-.111l-1.802-1.83a8 8 0 0 0-1.492-1.169 2.31 2.31 0 0 0-2.242-1.784 2.31 2.31 0 0 0-2.306 2.306 2.31 2.31 0 0 0 2.306 2.307A2.3 2.3 0 0 0 7.1 17.578c.23.18.456.366.662.575l1.802 1.83a1.86 1.86 0 0 0 1.327.56h.009a1.86 1.86 0 0 0 1.324-.549 1.9 1.9 0 0 0 .369-.541 2 2 0 0 0 .475.067 1.9 1.9 0 0 0 1.354-.56c.173-.173.307-.375.402-.593a1.9 1.9 0 0 0 1.76-.516 1.9 1.9 0 0 0 .456-.758l.182.018c.512 0 .993-.199 1.355-.561a1.9 1.9 0 0 0 .554-1.282h2.852zM15.929 5.31a1.26 1.26 0 0 1 1.259 1.26 1.26 1.26 0 0 1-1.259 1.259 1.26 1.26 0 0 1-1.26-1.259 1.26 1.26 0 0 1 1.26-1.26M5.097 17.262a.81.81 0 0 1-.806-.807c0-.444.361-.806.806-.806a.81.81 0 0 1 .807.806.81.81 0 0 1-.807.807"/></svg>