<svg xmlns="http://www.w3.org/2000/svg" fill="#002466" viewBox="0 0 24 24"><path d="m16.222 6.413-.059.03a1.86 1.86 0 0 0 .337-1.068A1.88 1.88 0 0 0 14.625 3.5H14.5V1h-5v2.5h-.125A1.88 1.88 0 0 0 7.5 5.375a1.86 1.86 0 0 0 .299 1.007C5.322 11.29 4.823 17.147 6.437 22.468l.161.532h10.803l.161-.532c1.608-5.305 1.12-11.157-1.341-16.055zM11 2.5h2v1h-2zM9.375 5h5.25a.375.375 0 0 1 0 .75h-5.25a.375.375 0 0 1 0-.75m-.311 2.219c.102.017.204.031.311.031h5.25a2 2 0 0 0 .315-.032c1.707 3.462 2.348 7.421 1.9 11.282H7.16c-.449-3.861.196-7.816 1.904-11.281M7.72 21.5a20 20 0 0 1-.335-1.5h9.232a20 20 0 0 1-.336 1.5zm3.146-7.658c.159.96.982 1.658 1.956 1.658a1.98 1.98 0 0 0 1.956-2.309l-.339-2.034a1.976 1.976 0 0 0-1.956-1.658 1.98 1.98 0 0 0-1.957 2.309l.34 2.033zm1.248-2.671a.48.48 0 0 1 .845.232l.34 2.035a.48.48 0 1 1-.953.158l-.34-2.034a.48.48 0 0 1 .107-.392z"/></svg>