<svg xmlns="http://www.w3.org/2000/svg" fill="#002466" viewBox="0 0 24 24"><path d="M21.813 5.68a1.2 1.2 0 0 0-.677-.641L19.669 4.5a1.173 1.173 0 0 0-1.469.632c-.712 1.602-2.35 3.091-4.296 3.911h-3.836C8.116 8.242 6.526 6.789 5.8 5.138A1.17 1.17 0 0 0 4.33 4.5l-1.467.538a1.18 1.18 0 0 0-.678.642 1.16 1.16 0 0 0-.004.913c1.031 2.433 3.184 4.584 5.812 5.832v2.858h1.5v-3.841l-.456-.194C6.674 10.241 4.708 8.42 3.709 6.33l.848-.311c.947 1.927 2.829 3.587 5.094 4.476l.132.052h4.416l.134-.054c2.277-.918 4.165-2.576 5.11-4.475l.85.312c-.999 2.09-2.968 3.913-5.333 4.92l-.457.195v2.086h1.5v-1.102c2.63-1.248 4.784-3.4 5.816-5.835a1.17 1.17 0 0 0-.005-.913zm-9.812 1.923a3.301 3.301 0 0 0 0-6.603 3.302 3.302 0 0 0 0 6.602zm0-5.099a1.8 1.8 0 0 1 1.793 1.798A1.8 1.8 0 0 1 12.001 6.1a1.8 1.8 0 0 1-1.794-1.798 1.8 1.8 0 0 1 1.794-1.798m3.723 12.576-.251.251-.258-.257c-1.017-1.023-2.794-1.021-3.812 0a2.724 2.724 0 0 0-.007 3.841L15.473 23l4.076-4.086a2.72 2.72 0 0 0 0-3.834c-1.021-1.024-2.803-1.026-3.825 0m2.765 2.771-3.016 3.023-3.016-3.023a1.217 1.217 0 0 1 .007-1.715 1.2 1.2 0 0 1 .846-.351 1.18 1.18 0 0 1 .845.351l1.318 1.321 1.312-1.314c.456-.457 1.25-.455 1.704 0a1.213 1.213 0 0 1 0 1.708"/></svg>