<svg xmlns="http://www.w3.org/2000/svg" fill="#002466" viewBox="0 0 24 24"><path d="M19 16h-1.5v3H20v-1.5h-1zm-.75-2.5c-2.619 0-4.75 2.131-4.75 4.75S15.631 23 18.25 23 23 20.869 23 18.25s-2.131-4.75-4.75-4.75m0 8c-1.792 0-3.25-1.458-3.25-3.25S16.458 15 18.25 15s3.25 1.458 3.25 3.25-1.458 3.25-3.25 3.25M2.5 9.25h15v2.25H19v-9h-5.5V1H12v1.5H8V1H6.5v1.5H1V23h11.75v-1.5H2.5zM6.5 4v1.5H8V4h4v1.5h1.5V4h4v3.75h-15V4zm-2 7h2v1.5h-2zM9 11h2v1.5H9zm4.5 0h2v1.5h-2zm-9 3.5h2V16h-2zm4.5 0h2V16H9zM4.5 18h2v1.5h-2zM9 18h2v1.5H9z"/></svg>