<svg xmlns="http://www.w3.org/2000/svg" viewBox="0 0 24 24"><path fill="#002466" d="M22.233 8.917h-4.919v-1.82h3.318V2.75h-8.25v4.346h3.434v1.82h-3.829v1.5h8.861l.632 7.988H3.6l.505-6.092-1.493-.124-.536 6.492v4.07H23v-3.596zm-8.353-3.32V4.25h5.253v1.346zm7.622 15.653H3.574l-.001-1.346h17.929z"/><path fill="#002466" d="M13.012 11.289h1.421v1.5h-1.421zM15.855 11.289h1.421v1.5h-1.421zM18.697 11.289h1.421v1.5h-1.421zM13.012 13.66h1.421v1.5h-1.421zM15.855 13.66h1.421v1.5h-1.421zM18.697 13.66h1.421v1.5h-1.421zM13.012 16.032h1.421v1.5h-1.421zM15.855 16.032h1.421v1.5h-1.421zM18.697 16.032h1.421v1.5h-1.421zM6.981 6.917V3.423H5.483V6.06L3.585 7.176l.759 1.293z"/><path fill="#002466" d="M6.232 11.727a5.24 5.24 0 0 0 5.232-5.239c0-2.888-2.346-5.238-5.232-5.238S1 3.6 1 6.488a5.24 5.24 0 0 0 5.232 5.239m0-8.977a3.74 3.74 0 0 1 0 7.477 3.74 3.74 0 0 1 0-7.477"/></svg>