<svg xmlns="http://www.w3.org/2000/svg" viewBox="0 0 24 24"><path fill="#002466" d="M20.424 6.054a2.86 2.86 0 0 0-.842-2.122l-.53-.529L16.642 1l-1.061 1.058 2.41 2.404-.9.897-2.084-2.078-1.061 1.058 2.084 2.078-.9.897-2.084-2.077-1.061 1.058 2.084 2.077-.9.898-2.084-2.078-1.061 1.058 2.084 2.078-.879.876-2.437-2.387-1.051 1.067 2.556 2.504c-.438.895-.42 1.938.064 2.785l-6.789 6.77L4.636 23l9.452-9.427 5.417-5.402a3.1 3.1 0 0 0 .919-2.117m-1.98 1.06-.63.628-4.243 4.231-2.068 2.062a1.5 1.5 0 0 1-.031-.34 1.6 1.6 0 0 1 .48-1.097l6.94-6.921q.035.165.031.341a1.6 1.6 0 0 1-.48 1.096z"/></svg>