<svg xmlns="http://www.w3.org/2000/svg" fill="#002466" viewBox="0 0 24 24"><path d="M9.988 6.764A3.23 3.23 0 0 0 6.764 3.54 3.23 3.23 0 0 0 3.54 6.764a3.23 3.23 0 0 0 3.224 3.224 3.23 3.23 0 0 0 3.224-3.224M6.764 8.493a1.73 1.73 0 0 1-1.729-1.728 1.73 1.73 0 0 1 1.729-1.728 1.73 1.73 0 0 1 1.728 1.728 1.73 1.73 0 0 1-1.728 1.728M1.03 6.016h2.085v1.496H1.03zm9.383 0h2.086v1.496h-2.086zM6.016 1.03h1.496v2.085H6.016zm0 9.384h1.496v2.085H6.016zM2.18 10.29l1.474-1.474 1.058 1.058-1.474 1.474zm6.635-6.635 1.474-1.475 1.058 1.058-1.474 1.475zM2.18 3.238 3.238 2.18l1.475 1.474-1.058 1.058zm6.635 6.636 1.058-1.058 1.474 1.474-1.058 1.058zm9.223 7.755a3.04 3.04 0 0 1 .102-3.042l.696-1.126-1.323-.016a4.6 4.6 0 0 0-2.219.553 4.54 4.54 0 0 0-2.249 2.945 4.56 4.56 0 0 0 .702 3.649 4.53 4.53 0 0 0 3.717 1.935 4.5 4.5 0 0 0 1.805-.377 4.54 4.54 0 0 0 2.033-1.743l.591-1.092-1.285-.057a3.03 3.03 0 0 1-2.571-1.629zm.633 3.15c-1.3.569-2.889.12-3.697-1.041a3.02 3.02 0 0 1-.473-2.45 3.05 3.05 0 0 1 1.508-1.975 3 3 0 0 1 .29-.138 4.52 4.52 0 0 0 .417 3.154 4.5 4.5 0 0 0 2.478 2.16 3 3 0 0 1-.522.29zM1 21.942 21.942 1 23 2.058 2.058 23z"/></svg>