<svg xmlns="http://www.w3.org/2000/svg" viewBox="0 0 24 24"><path fill="#002466" d="M7.153 6.727c1.565 0 2.84-1.273 2.84-2.838S8.719 1.05 7.153 1.05s-2.84 1.273-2.84 2.839 1.274 2.838 2.84 2.838m0-4.178a1.34 1.34 0 1 1 0 2.68 1.34 1.34 0 0 1 0-2.68m-3.846 8.59a1.62 1.62 0 0 1 1.618-1.618h4.457A1.62 1.62 0 0 1 11 11.139v.857h1.5v-.857a3.12 3.12 0 0 0-3.118-3.117H4.925a3.12 3.12 0 0 0-3.118 3.117v.835h1.5zM17.16 8.662q.91.336 1.226.596c.316.26.316.385.316.637a.54.54 0 0 1-.288.483q-.287.175-.791.175a2.2 2.2 0 0 1-.735-.126 2.2 2.2 0 0 1-.638-.35q-.112-.084-.197-.063c-.085.021-.102.063-.139.147l-.42.882q-.042.098-.021.175c.021.077.049.096.104.133q.435.322.967.483c.378.11.77.165 1.164.161q1.219 0 1.941-.609c.722-.609.721-.95.721-1.632a2.3 2.3 0 0 0-.119-.757 1.9 1.9 0 0 0-.371-.644q.546-.294.834-.742c.194-.31.294-.67.286-1.036q0-.855-.54-1.415c-.54-.56-.946-.695-1.758-.967q-.841-.294-1.164-.539a.75.75 0 0 1-.322-.624q0-.294.252-.462c.252-.168.397-.168.687-.168q.392 0 .672.154c.28.154.332.257.435.462q.055.126.132.161c.077.035.119.016.204-.021l.812-.308q.097-.028.133-.105c.036-.077.025-.109.007-.175q-.238-.756-.869-1.163C19.05.998 18.739 1 18.113 1q-1.12 0-1.808.581c-.688.581-.687.904-.687 1.548q0 .407.105.735.106.332.315.609-.56.309-.848.764c-.288.455-.287.656-.287 1.057q0 .827.505 1.366t1.751 1.002zm-.547-3.11a1.1 1.1 0 0 1 .364-.336l.448.203.435.161q.868.295 1.205.567a.87.87 0 0 1 .336.707q0 .252-.125.441c-.125.189-.211.236-.379.329l-.406-.197-.519-.196q-.868-.308-1.177-.553c-.309-.245-.309-.39-.309-.679a.8.8 0 0 1 .126-.449zm3.848 9.475h-7.973a2.54 2.54 0 0 0-2.42-1.782H5.659c-.324 0-.641.061-.942.182l-2.231.896A2.53 2.53 0 0 0 1 16.627v2.182c0 1.19.811 2.205 1.895 2.447l4.736 1.622a2.25 2.25 0 0 0 1.253.06l12.055-2.88a2.54 2.54 0 0 0-.478-5.031m.162 3.565L8.536 21.48a.75.75 0 0 1-.418-.02l-4.814-1.644A1.03 1.03 0 0 1 2.5 18.81v-2.182c0-.404.237-.773.574-.926l2.201-.882a1 1 0 0 1 .384-.074h4.409c.569 0 1.033.463 1.033 1.032s-.464 1.032-1.033 1.032H7.989v1.499h2.079c1.136 0 2.1-.751 2.42-1.782h7.973a1.04 1.04 0 0 1 1.039 1.039c0 .497-.354.927-.877 1.027z"/></svg>