<svg xmlns="http://www.w3.org/2000/svg" fill="#002466" viewBox="0 0 24 24"><path d="M15.25 13.915V4.25C15.25 2.458 13.792 1 12 1S8.75 2.458 8.75 4.25v9.665a5.1 5.1 0 0 0-1.88 3.965C6.87 20.703 9.171 23 12 23s5.13-2.297 5.13-5.12a5.1 5.1 0 0 0-1.88-3.965M12 21.5a3.63 3.63 0 0 1-3.63-3.62 3.59 3.59 0 0 1 1.554-2.971l.326-.224V4.25c0-.965.785-1.75 1.75-1.75s1.75.785 1.75 1.75v10.436l.326.224a3.59 3.59 0 0 1 1.554 2.971A3.63 3.63 0 0 1 12 21.5m.75-5.737V9.75h-1.5v6.013a2.25 2.25 0 0 0-1.5 2.112c0 1.241 1.01 2.25 2.25 2.25s2.25-1.009 2.25-2.25c0-.976-.629-1.801-1.5-2.112M12 18.625a.75.75 0 1 1 0-1.5.75.75 0 1 1 0 1.5M17.5 3.5h2.75V5H17.5zm0 3H22V8h-4.5zm0 3h2.75V11H17.5zm0 3H22V14h-4.5z"/></svg>