<svg xmlns="http://www.w3.org/2000/svg" fill="#002466" viewBox="0 0 24 24"><path d="M4.25 13h9.473A2.28 2.28 0 0 0 16 10.722 4.73 4.73 0 0 0 11.277 6H6.694a4.73 4.73 0 0 0-4.722 4.722A2.28 2.28 0 0 0 4.25 13m1.694-5.403v1.292h1.5V7.5h.792v1.389h1.5V7.5h.791v1.389h1.5V7.597a3.22 3.22 0 0 1 2.473 3.125.78.78 0 0 1-.777.778H4.25a.78.78 0 0 1-.777-.778 3.22 3.22 0 0 1 2.472-3.125zM23 15.25h-5.48a2.12 2.12 0 0 0-2.02-1.5H3.125A2.13 2.13 0 0 0 1 15.875 2.13 2.13 0 0 0 3.125 18H15.5c.859 0 1.597-.515 1.931-1.25H23zm-7.5 1.25H3.125a.625.625 0 0 1 0-1.25H15.5a.625.625 0 0 1 0 1.25"/></svg>