<svg xmlns="http://www.w3.org/2000/svg" fill="#002466" viewBox="0 0 24 24"><path d="M21.515 12.487h1.5v10.499h-1.5zM2.5 9.166h6.999v-1.5H1v5.321h1.5zM7.758 14.5h-5V18H1v5h8.5v-5H7.758zm-3.5 1.5h2v2h-2zm.242 5.5h-2v-2h2zm3.5-2v2H6v-2zm10.008-5h-5V18H11.25v5h8.5v-5h-1.742zm-3.5 1.5h2v2h-2zm.242 5.5h-2v-2h2zm3.5-2v2h-2v-2zM15.726 2.906q.229-.112.474-.193l-.475-1.423a5.5 5.5 0 0 0-2.256 1.435l1.086 1.034a4 4 0 0 1 1.172-.854zm6.275.443a5.55 5.55 0 0 0-4.522-2.342v1.5c1.309 0 2.542.639 3.298 1.709a4 4 0 0 1 .739 2.328 4.04 4.04 0 0 1-4.037 4.037c-2.101 0-3.813-1.62-4-3.674l.687 1.008 1.24-.844-2.151-3.16-3.16 2.151.844 1.24 1.008-.686a5.54 5.54 0 0 0 5.533 5.464 5.543 5.543 0 0 0 5.537-5.537 5.5 5.5 0 0 0-1.015-3.195zm-2.343 4.156-1.353-1.353V3.667h-1.5v3.106l1.792 1.792 1.061-1.061z"/></svg>