<svg xmlns="http://www.w3.org/2000/svg" fill="#002466" viewBox="0 0 24 24"><path d="M21.25 11.286c0-5.103-4.149-9.255-9.25-9.255s-9.25 4.152-9.25 9.255c0 3.326 1.768 6.238 4.407 7.87l-2.251 2.928L6.095 23l2.419-3.147a9.2 9.2 0 0 0 6.972 0L17.905 23l1.189-.916-2.251-2.928c2.639-1.632 4.407-4.545 4.407-7.87M12 19.04c-4.273 0-7.75-3.479-7.75-7.754S7.727 3.532 12 3.532s7.75 3.479 7.75 7.754S16.273 19.04 12 19.04m-.75-8.259L7.86 12.9l.795 1.273 4.095-2.561v-5.33h-1.5zm-9.531-6.53 3.252-3.25 1.061 1.061-3.252 3.25zm16.25-2.19L19.031 1l3.25 3.252-1.061 1.061z"/></svg>