<svg xmlns="http://www.w3.org/2000/svg" viewBox="0 0 24 24"><path fill="#002466" d="M5.76 6.79 3.722 7.986l.761 1.293 2.778-1.63V3.977H5.759z"/><path fill="#002466" d="M6.51 1.72C3.473 1.72 1 4.187 1 7.22s2.472 5.5 5.51 5.5v-1.5a4.01 4.01 0 0 1-4.007-4 4.008 4.008 0 0 1 8.015 0h1.503c0-3.033-2.472-5.5-5.51-5.5M10.281 10.98h1.503v5.37h-1.503zM12.522 10.98h1.503v5.37h-1.503zM14.749 10.98h1.503v5.37h-1.503zM17.782 10.98h1.503v5.37h-1.503z"/><path fill="#002466" d="M9.266 10.22H10.7v-1.5H7.763v2.931h1.503zM9.266 15.679H7.763v2.931H10.7v-1.5H9.266zM20.541 11.651h1.503V8.72h-2.937v1.5h1.434zM21.937 16.814l-3.35 3.345-1.798-1.795-1.063 1.06 2.86 2.856L23 17.875z"/></svg>