<svg xmlns="http://www.w3.org/2000/svg" viewBox="0 0 24 24"><path fill="#002466" d="M6.5 17.875v1.5c1.654 0 3-1.346 3-3H8a1.5 1.5 0 0 1-1.5 1.5M11.25 16.375h1.5v3.5h-1.5zM19.75 4.125H4.25A3.254 3.254 0 0 0 1 7.375v7.5h22v-7.5a3.254 3.254 0 0 0-3.25-3.25m-15.225 9.25c.123-.846.845-1.5 1.725-1.5h11.5c.879 0 1.602.654 1.725 1.5zm16.975 0h-.525c-.13-1.674-1.518-3-3.225-3H6.25c-1.706 0-3.095 1.326-3.225 3H2.5v-6c0-.965.785-1.75 1.75-1.75h15.5c.965 0 1.75.785 1.75 1.75zm-5.5 3h-1.5c0 1.654 1.346 3 3 3v-1.5a1.5 1.5 0 0 1-1.5-1.5"/><circle cx="18.5" cy="7.875" r=".75" fill="#002466"/></svg>