<svg xmlns="http://www.w3.org/2000/svg" viewBox="0 0 24 24"><path fill="#002466" d="M22.935 12.481a2.9 2.9 0 0 0-1.263-1.853c-1.146-.753-2.689-.6-3.701.399l-1.419 1.585V4.92a3.096 3.096 0 0 0-3.093-3.092 3.06 3.06 0 0 0-2.001.755A3.08 3.08 0 0 0 8.775 1a3.09 3.09 0 0 0-3.08 2.969 3.06 3.06 0 0 0-1.605-.462A3.096 3.096 0 0 0 .997 6.6V12c0 .06 0 .201.91 7.471a4.03 4.03 0 0 0 3.415 3.475A2.6 2.6 0 0 0 5.85 23h8.936c.051 0 .098-.012.148-.015a3.99 3.99 0 0 0 3.102-1.772l4.482-6.527a2.92 2.92 0 0 0 .416-2.205zM5.905 21.5c-.034 0-.067-.008-.101-.009a1.097 1.097 0 0 1-1.055-1.092 1.15 1.15 0 0 1 1.149-1.148h8.842a1.15 1.15 0 0 1 1.149 1.148 1.09 1.09 0 0 1-.955 1.072c-.081.008-.158.03-.241.03H5.905zm15.367-7.648-3.997 5.822a2.645 2.645 0 0 0-2.536-1.924H5.897a2.65 2.65 0 0 0-2.465 1.696l-.036-.162L2.497 12V6.6c0-.878.714-1.592 1.592-1.592s1.592.714 1.592 1.592V12h1.5V4.092c0-.878.714-1.592 1.592-1.592s1.592.714 1.592 1.592V12h1.5V4.91c.005-.873.716-1.582 1.591-1.582s1.592.714 1.592 1.592v8.431c0 .315.129.625.355.854.459.46 1.224.5 1.754-.024l1.896-2.118a1.44 1.44 0 0 1 1.792-.18 1.42 1.42 0 0 1 .424 1.969z"/></svg>