<svg xmlns="http://www.w3.org/2000/svg" viewBox="0 0 24 24"><path fill="#002466" d="M18.478 10.193c-.443 0-.862.084-1.267.205l-1.659-3.43h2.783c.278 0 .505.232.505.518s-.227.518-.505.518v1.5c1.105 0 2.005-.905 2.005-2.018s-.899-2.018-2.005-2.018h-5.176l1.157 2.391H9.467L7.941 4.686H4.252v1.5h2.746L8.15 8.58l-1.077 1.906a4.4 4.4 0 0 0-1.55-.293C3.028 10.193 1 12.239 1 14.753s2.028 4.561 4.522 4.561c2.239 0 4.091-1.653 4.448-3.811h2.287l3.176-5.335.426.88a4.56 4.56 0 0 0-1.906 3.705c0 2.515 2.029 4.561 4.523 4.561S23 17.268 23 14.753s-2.028-4.561-4.522-4.561zM5.522 17.814c-1.667 0-3.022-1.373-3.022-3.061s1.355-3.061 3.022-3.061a3 3 0 0 1 .799.122l-2.084 3.688h4.206c-.333 1.324-1.511 2.311-2.921 2.311zm2.921-3.811H6.808l.816-1.443c.396.388.68.886.82 1.443zm2.961 0H9.971a4.54 4.54 0 0 0-1.601-2.764l1.063-1.881h4.738l-2.767 4.646zm7.073 3.811c-1.667 0-3.023-1.373-3.023-3.061 0-.933.423-1.759 1.075-2.321l1.557 3.217 1.35-.653-1.568-3.241a3 3 0 0 1 .61-.063c1.667 0 3.022 1.373 3.022 3.061s-1.355 3.061-3.022 3.061z"/></svg>