<svg xmlns="http://www.w3.org/2000/svg" fill="#002466" viewBox="0 0 24 24"><path d="M9.498 11c2.206 0 4-1.794 4-4s-1.794-4-4-4-4 1.794-4 4 1.794 4 4 4m0-6.5c1.379 0 2.5 1.122 2.5 2.5s-1.121 2.5-2.5 2.5-2.5-1.122-2.5-2.5 1.121-2.5 2.5-2.5m2.5 8.75h-5A4.756 4.756 0 0 0 2.248 18v3h1.5v-3a3.254 3.254 0 0 1 3.25-3.25h5a3.254 3.254 0 0 1 3.25 3.25v3h1.5v-3a4.756 4.756 0 0 0-4.75-4.75m6.667-6.233a3.843 3.843 0 0 0-3.838-3.838v1.5a2.34 2.34 0 0 1 2.338 2.338 2.34 2.34 0 0 1-2.338 2.337v1.5a3.84 3.84 0 0 0 3.838-3.837m-1.463 6.233v1.5a3.053 3.053 0 0 1 3.05 3.05v3.187h1.5V17.8a4.555 4.555 0 0 0-4.55-4.55"/></svg>