<svg xmlns="http://www.w3.org/2000/svg" fill="#002466" viewBox="0 0 24 24"><path d="M10.725 6.595a2.8 2.8 0 0 0 2.797-2.797A2.8 2.8 0 0 0 10.725 1a2.8 2.8 0 0 0-2.797 2.797 2.8 2.8 0 0 0 2.797 2.797zm0-4.095a1.3 1.3 0 0 1 1.297 1.297 1.3 1.3 0 0 1-1.297 1.297 1.3 1.3 0 0 1-1.297-1.297A1.3 1.3 0 0 1 10.725 2.5m8.775 18v-6H15v-3.75a3.254 3.254 0 0 0-3.25-3.25H8.058l-2.173 4.346 3.428 4.25 1.168-.941-2.822-3.5L8.985 9h2.765c.965 0 1.75.785 1.75 1.75V16H18v6h3.25v-1.5zm-10.125 1a5.13 5.13 0 0 1-5.125-5.125c0-1.113.379-2.179 1.041-3.062l-1.072-1.066a6.6 6.6 0 0 0-1.469 4.128A6.633 6.633 0 0 0 9.375 23c3.165 0 5.9-2.252 6.503-5.354H14.32c-.576 2.246-2.598 3.854-4.945 3.854"/></svg>