<svg xmlns="http://www.w3.org/2000/svg" viewBox="0 0 24 24"><path fill="#002466" d="M19.5 11.135c0-1.227-1.01-2.225-2.25-2.225H14.5v-.742l.712-.939A3.9 3.9 0 0 0 16 4.893C16 2.747 14.233 1 12.063 1h-.125C9.767 1 8 2.747 8 4.893a3.9 3.9 0 0 0 .788 2.336l.712.939v.742H6.75c-1.24 0-2.25.998-2.25 2.225s1.01 2.225 2.25 2.225h.572A5.84 5.84 0 0 0 6 17.067C6 20.339 8.691 23 12 23s6-2.661 6-5.933a5.85 5.85 0 0 0-1.324-3.708h.574c1.24 0 2.25-.998 2.25-2.225zM9.987 6.339A2.4 2.4 0 0 1 9.5 4.893c0-1.329 1.094-2.41 2.438-2.41h.125c1.344 0 2.438 1.081 2.438 2.41 0 .518-.173 1.032-.487 1.446L13 7.674V8.91h-2V7.674zM6 11.135c0-.409.337-.742.75-.742h10.5c.413 0 .75.333.75.742s-.337.742-.75.742H6.75a.747.747 0 0 1-.75-.742m10.5 5.933c0 2.454-2.019 4.449-4.5 4.449s-4.5-1.996-4.5-4.449c0-1.512.757-2.881 2.027-3.708h4.949a4.4 4.4 0 0 1 2.025 3.708z"/></svg>