<svg xmlns="http://www.w3.org/2000/svg" fill="#002466" viewBox="0 0 24 24"><path d="M9.756 13.247h1.496v5.485H9.756z"/><circle cx="12" cy="4.271" r=".748"/><circle cx="10.504" cy="6.764" r=".748"/><circle cx="13.496" cy="6.764" r=".748"/><path d="m23 21.942-5.641-5.641-.15-7.057V6.239A5.215 5.215 0 0 0 12 1.03c-2.715 0-4.926 2.095-5.163 4.749L2.058 1 1 2.058l5.791 5.791v1.396L6.5 22.97h11l-.096-4.507L21.942 23zM11.063 10.005h4.666l.101 4.767zM8.287 6.239A3.72 3.72 0 0 1 12 2.526a3.72 3.72 0 0 1 3.713 3.713v2.27H9.567l-1.28-1.28V6.24zm7.686 15.234H8.028l.243-11.468h.677l3.8 3.8v4.926h1.496v-3.43l1.632 1.632z"/></svg>