<svg xmlns="http://www.w3.org/2000/svg" viewBox="0 0 24 24"><path fill="#002466" d="m23 16.285-1.149-4.005h-2.934v-1.92H5.75v2.34H4.1a1.6 1.6 0 0 1-1.6-1.6 1.6 1.6 0 0 1 1.6-1.6h9.159c1.709 0 3.1-1.391 3.1-3.1s-1.391-3.1-3.1-3.1H7.481v-.05C7.481 2.01 6.472 1 5.231 1H2.5v1.161H1.021v1.5H2.5v.821H1.021v1.5H2.5v1.161h2.731c1.24 0 2.25-1.009 2.25-2.25V4.8h5.777a1.6 1.6 0 0 1 1.6 1.6 1.6 1.6 0 0 1-1.6 1.6H4.1C2.391 8 1 9.39 1 11.099s1.391 3.1 3.1 3.1h1.65v6.879h2.151c.18 1.082 1.116 1.912 2.248 1.912s2.068-.83 2.248-1.912h5.298A2.286 2.286 0 0 0 19.945 23a2.28 2.28 0 0 0 2.267-2.095H23zM5.981 4.892a.75.75 0 0 1-.75.75H4V2.5h1.231a.75.75 0 0 1 .75.75zM21.5 19.047a2.27 2.27 0 0 0-1.555-.62c-.372 0-.718.098-1.028.256v-1.636H21.5v2.001zm-.771-5.267.521 1.766h-2.333V13.78h1.813zm-10.58 7.71a.78.78 0 0 1-.678-.412h1.355a.78.78 0 0 1-.678.412zm7.268-1.912H7.25V11.86h10.167v7.719zm2.528 1.921a.79.79 0 0 1-.787-.787.79.79 0 0 1 .787-.787.79.79 0 0 1 .786.787.79.79 0 0 1-.786.787"/></svg>