<svg xmlns="http://www.w3.org/2000/svg" viewBox="0 0 24 24"><path fill="#002466" d="M22.194 14.357a2.5 2.5 0 0 0-1.079-1.584 2.48 2.48 0 0 0-1.613-.39V1h-.75c-4.169 0-6.286.613-8.334 1.206-2.036.59-3.96 1.147-7.916 1.147h-.75V22.5h.75a31 31 0 0 0 3.796-.209 3.36 3.36 0 0 0 2.05.709h7.071a3.37 3.37 0 0 0 2.812-1.501l3.608-5.257a2.5 2.5 0 0 0 .355-1.885M3.252 4.846c3.681-.069 5.663-.643 7.584-1.199 1.903-.551 3.708-1.074 7.166-1.14v10.568l-.055.046-.887.991v-5.81a2.64 2.64 0 0 0-2.635-2.635 2.6 2.6 0 0 0-1.567.529A2.63 2.63 0 0 0 10.657 5a2.63 2.63 0 0 0-2.601 2.303 2.6 2.6 0 0 0-1.168-.285 2.64 2.64 0 0 0-2.636 2.635V14c0 .06 0 .171.734 6.031.038.302.127.584.238.855l-1.972.107zm17.341 10.561-3.605 5.253c-.349.525-.935.84-1.568.84H8.348a1.89 1.89 0 0 1-1.873-1.654L5.752 14V9.653a1.136 1.136 0 0 1 2.271 0V14h1.5V7.635a1.136 1.136 0 0 1 2.27 0v.657l-.001 5.21h.001V14h1.5V8.297a1.135 1.135 0 0 1 2.269.005v6.785c0 .296.115.575.326.789.423.427 1.128.47 1.626-.022l1.52-1.698a1.01 1.01 0 0 1 1.26-.128 1 1 0 0 1 .434.636 1 1 0 0 1-.133.744z"/></svg>