<svg xmlns="http://www.w3.org/2000/svg" fill="#002466" viewBox="0 0 24 24"><path d="M15.7 1H8.3A3.3 3.3 0 0 0 5 4.3v15.4A3.3 3.3 0 0 0 8.3 23h7.4a3.3 3.3 0 0 0 3.3-3.3V4.3A3.3 3.3 0 0 0 15.7 1m1.8 18.7c0 .992-.807 1.8-1.8 1.8H8.3c-.992 0-1.8-.808-1.8-1.8V4.3c0-.992.808-1.8 1.8-1.8h7.4c.993 0 1.8.808 1.8 1.8zM10 18h4v1.5h-4zm1.25-12.041h1.5v3.614h-1.5zm2.25.713V8.31a3.05 3.05 0 0 1 1.541 2.634c0 1.677-1.364 3.041-3.041 3.041s-3.041-1.364-3.041-3.041A3.05 3.05 0 0 1 10.5 8.31V6.672c-1.799.634-3.041 2.347-3.041 4.272A4.55 4.55 0 0 0 12 15.484a4.55 4.55 0 0 0 4.541-4.541c0-1.925-1.242-3.639-3.041-4.272z"/></svg>