<svg xmlns="http://www.w3.org/2000/svg" fill="#002466" viewBox="0 0 24 24"><path d="M12 11.63a2.82 2.82 0 0 0 2.815-2.815A2.82 2.82 0 0 0 12 6a2.82 2.82 0 0 0-2.815 2.815A2.82 2.82 0 0 0 12 11.63m0-4.13a1.316 1.316 0 0 1 0 2.63 1.316 1.316 0 0 1 0-2.63m5.294 8.75v-.826a3.094 3.094 0 0 0-3.091-3.09H9.797a3.094 3.094 0 0 0-3.091 3.09v.826h1.5v-.826c0-.877.714-1.59 1.591-1.59h4.406c.877 0 1.591.713 1.591 1.59v.826zm1.206.5h1.703C18.516 19.655 15.4 21.5 12 21.5c-5.238 0-9.5-4.262-9.5-9.5S6.762 2.5 12 2.5s9.5 4.262 9.5 9.5H23c0-6.065-4.935-11-11-11S1 5.935 1 12s4.935 11 11 11a11.03 11.03 0 0 0 9.5-5.465v2.215H23v-4.5h-4.5z"/></svg>