<svg xmlns="http://www.w3.org/2000/svg" fill="#002466" viewBox="0 0 24 24"><path d="M20.25 2.5V1H3.75v1.5h.719v19H3.75V23h16.5v-1.5h-.719v-19zm-14.281 19V20h12.063v1.5zm12.063-3H5.969v-13H16.5V4H5.969V2.5h12.063zM14.95 6.768c-.587.084-1.106.457-1.427 1.021-.389.685-1.263 1.733-2.597 3.114l-.029.029c-.84.871-1.944 1.658-2.751 2.233l-.643.465c-.487.366-.786.899-.82 1.463s.185 1.1.615 1.516c.457.441 1.002.669 1.556.669a2.1 2.1 0 0 0 .93-.22c.557-.271 2.75-1.816 4.129-3.244 1.317-1.365 2.885-3.405 3.164-4.118.354-.905.169-1.69-.566-2.4-.433-.417-1.004-.611-1.561-.529zm.73 2.381c-.148.378-1.483 2.211-2.848 3.624-1.291 1.337-3.365 2.772-3.703 2.936-.271.131-.533.068-.789-.179-.078-.075-.17-.196-.16-.344.008-.127.087-.253.225-.356l.611-.443.187-.134.448.448 1.061-1.061-.29-.29.888-.741.341.341 1.061-1.061-.338-.338.898-.981.38.38 1.061-1.061-.482-.482.598-.878c.09-.158.212-.259.336-.277l.039-.003a.4.4 0 0 1 .266.126c.355.343.313.517.212.773z"/></svg>