<svg xmlns="http://www.w3.org/2000/svg" fill="#002466" viewBox="0 0 24 24"><path d="M6.5 7.25H3.771A9.44 9.44 0 0 1 12 2.5c5.238 0 9.5 4.262 9.5 9.5H23c0-6.065-4.935-11-11-11a10.93 10.93 0 0 0-9.5 5.445V3.25H1v5.5h5.5zm11 9.5h2.729A9.44 9.44 0 0 1 12 21.5c-5.238 0-9.5-4.262-9.5-9.5H1c0 6.065 4.935 11 11 11a10.93 10.93 0 0 0 9.5-5.445v3.195H23v-5.5h-5.5zm-2.226-5.725a2.3 2.3 0 0 0 .305-1.147V9.13a3.54 3.54 0 0 0-1.769-3.079V4h-3.621v2.051A3.54 3.54 0 0 0 8.42 9.13v.748a2.3 2.3 0 0 0 .305 1.147l.058.087c.19.246.19.59 0 .836l-.058.087a2.3 2.3 0 0 0-.305 1.147v4.298A2.52 2.52 0 0 0 10.939 20h2.121a2.52 2.52 0 0 0 2.519-2.518v-4.298a2.3 2.3 0 0 0-.305-1.147l-.058-.087a.684.684 0 0 1 0-.836l.058-.087zm-1.195-1.147a.8.8 0 0 1-.089.37 2.18 2.18 0 0 0 0 2.566.8.8 0 0 1 .089.37v4.298A1.02 1.02 0 0 1 13.06 18.5h-2.121a1.02 1.02 0 0 1-1.019-1.018v-4.298a.8.8 0 0 1 .089-.37 2.18 2.18 0 0 0 0-2.566.8.8 0 0 1-.089-.37V9.13a2.05 2.05 0 0 1 1.297-1.916l.472-.188V5.5h.621v1.526l.472.188a2.05 2.05 0 0 1 1.297 1.915v.748z"/></svg>