<svg xmlns="http://www.w3.org/2000/svg" fill="#002466" viewBox="0 0 24 24"><path d="M12 6.739a2.87 2.87 0 0 0 2.866-2.869A2.87 2.87 0 0 0 12 1a2.87 2.87 0 0 0-2.866 2.869A2.87 2.87 0 0 0 12 6.739M12 2.5a1.37 1.37 0 0 1 1.368 1.369A1.37 1.37 0 0 1 12 5.239a1.37 1.37 0 0 1-1.368-1.369A1.37 1.37 0 0 1 12 2.5M3.703 20.911a2.71 2.71 0 0 0 2.704-2.706 2.71 2.71 0 0 0-2.704-2.706A2.71 2.71 0 0 0 1 18.204a2.71 2.71 0 0 0 2.703 2.706zm0-3.913a1.21 1.21 0 0 1 1.206 1.206 1.207 1.207 0 0 1-2.411 0c0-.665.54-1.206 1.205-1.206m5.594 1.206A2.71 2.71 0 0 0 12 20.911a2.71 2.71 0 0 0 2.703-2.706A2.71 2.71 0 0 0 12 15.498a2.71 2.71 0 0 0-2.703 2.706m3.908 0c0 .665-.54 1.206-1.205 1.206a1.206 1.206 0 0 1 0-2.412c.665 0 1.205.541 1.205 1.206m4.387 0a2.71 2.71 0 0 0 2.704 2.706A2.71 2.71 0 0 0 23 18.204a2.71 2.71 0 0 0-2.703-2.706 2.71 2.71 0 0 0-2.704 2.706zm2.704-1.206a1.21 1.21 0 0 1 1.205 1.206c0 .665-.54 1.206-1.205 1.206a1.21 1.21 0 0 1-1.206-1.206c0-.665.54-1.206 1.206-1.206m-2.084 4.499a2.92 2.92 0 0 0-2.063.857 2.92 2.92 0 0 0-2.063-.857h-4.17a2.92 2.92 0 0 0-2.063.857 2.92 2.92 0 0 0-2.063-.857H1.62a3 3 0 0 0-.608.064V23h.583l.025-.003h4.17l.028.003h4.071l.028-.003h4.17l.028.003h4.071l.028-.003h4.17l.028.003h.583v-1.431a3 3 0 0 0-.611-.071h-4.17zm.781-10.248h-1.585v-.598a3.154 3.154 0 0 0-3.149-3.152H9.741a3.154 3.154 0 0 0-3.149 3.152v.598H5.007v1.5h13.986zm-10.902-.598c0-.911.74-1.652 1.651-1.652h4.517c.91 0 1.651.741 1.651 1.652v.598H8.091z"/></svg>