<svg xmlns="http://www.w3.org/2000/svg" viewBox="0 0 24 24"><path fill="#002466" d="M9.84 10.302c1.659 0 3.008-1.348 3.008-3.005S11.499 4.29 9.84 4.29c-1.657 0-3.006 1.348-3.006 3.006s1.349 3.005 3.006 3.005m0-4.511c.832 0 1.508.675 1.508 1.506a1.508 1.508 0 0 1-3.013 0c0-.83.676-1.506 1.506-1.506m3.763 9.141v2.083h1.5V14.93a3.53 3.53 0 0 0-3.528-3.526h-3.47a3.53 3.53 0 0 0-3.528 3.526v2.083h1.5V14.93a2.03 2.03 0 0 1 2.027-2.026h3.471a2.03 2.03 0 0 1 2.028 2.026M6.14 10.201v-1.5a1.394 1.394 0 0 1 0-2.786v-1.5c-1.595 0-2.893 1.298-2.893 2.893s1.298 2.893 2.894 2.893m-5.037 4.592v2.212h1.5v-2.212a1.89 1.89 0 0 1 1.887-1.888v-1.5a3.39 3.39 0 0 0-3.387 3.388"/><path fill="#002466" d="M22.896 5.474 18.421 1l-4.475 4.473 1.06 1.06 2.665-2.663v14.091c0 1.952-1.588 3.54-3.54 3.54s-3.54-1.588-3.54-3.54v-2.638h-1.5v2.638C9.09 20.74 11.35 23 14.13 23s5.04-2.26 5.04-5.039V3.871l2.665 2.664z"/></svg>