<svg xmlns="http://www.w3.org/2000/svg" fill="#002466" viewBox="0 0 24 24"><path d="m20.471 6.413-.059.03a1.86 1.86 0 0 0 .337-1.068A1.88 1.88 0 0 0 18.875 3.5h-.125V1h-5v2.5h-.125a1.88 1.88 0 0 0-1.875 1.875 1.86 1.86 0 0 0 .298 1.007 21.4 21.4 0 0 0-2.118 6.951h1.519a19.9 19.9 0 0 1 1.864-6.114c.102.017.205.031.312.031h5.25a2 2 0 0 0 .315-.032c1.707 3.462 2.348 7.421 1.9 11.282h-5.586V20h5.362c-.097.503-.2 1.005-.336 1.5h-5.026V23h6.147l.161-.532c1.608-5.306 1.119-11.157-1.342-16.055zM15.25 2.5h2v1h-2zm3.625 3.25h-5.25a.375.375 0 0 1 0-.75h5.25a.375.375 0 0 1 0 .75m-1.803 9.75a1.98 1.98 0 0 0 1.957-2.309l-.34-2.035A1.98 1.98 0 0 0 16.733 9.5a1.98 1.98 0 0 0-1.956 2.309l.339 2.034c.159.96.982 1.658 1.956 1.658zm-.707-4.33a.48.48 0 0 1 .368-.17.48.48 0 0 1 .477.403l.339 2.034a.482.482 0 0 1-.476.563.48.48 0 0 1-.476-.403l-.339-2.034a.48.48 0 0 1 .107-.392zM2.755 8.5h4.75v4.833h1.5V6.367L5.88 3.542V2.5h-1.5v1.045L1.255 6.421V23h2.75v-1.5h-1.25zm2.38-3.61L7.468 7H2.841zm-.676 13.59h.639V23h8.52v-4.52h.638v-3.627H4.459zm7.658 3.02h-5.52v-3.02h5.52zm-6.158-5.147h6.796v.627H5.959z"/></svg>