<svg xmlns="http://www.w3.org/2000/svg" viewBox="0 0 24 24"><path fill="#002466" d="m22.954 10.464-1.147-6.757A3.24 3.24 0 0 0 18.61 1H2.248A1.25 1.25 0 0 0 1 2.251v9.51c0 .69.56 1.252 1.248 1.252H5.3l4.831 8.456a3.04 3.04 0 0 0 3.42 1.429 3.064 3.064 0 0 0 2.206-3.491l-.84-4.85a.25.25 0 0 1 .056-.204.24.24 0 0 1 .19-.089h4.591c.957 0 1.861-.421 2.48-1.154.617-.734.88-1.698.719-2.646m-17.96 1.047H2.497v-9.01h2.496zm16.097.63a1.74 1.74 0 0 1-1.335.622h-4.591a1.75 1.75 0 0 0-1.722 2.051l.841 4.856a1.554 1.554 0 0 1-1.117 1.777 1.545 1.545 0 0 1-1.735-.725l-4.94-8.648V2.502h12.118c.854 0 1.578.613 1.722 1.457l1.147 6.758a1.75 1.75 0 0 1-.388 1.424"/></svg>