<svg xmlns="http://www.w3.org/2000/svg" fill="#002466" viewBox="0 0 24 24"><path d="M23 11.875a3.254 3.254 0 0 0-3.25-3.25h-.25v-.25a1.25 1.25 0 0 1 1.25-1.25v-1.5A2.75 2.75 0 0 0 18 8.375v.25h-3.179l-1.587-5.75H14v-1.5H2.75v1.5h1v5.75H1v6h.607a5.46 5.46 0 0 0-.607 2.5 5.51 5.51 0 0 0 5.5 5.5c2.512 0 4.631-1.695 5.287-4h4.103a3 3 0 0 0-.14.875 3.13 3.13 0 0 0 3.125 3.125A3.13 3.13 0 0 0 22 19.5a3 3 0 0 0-.14-.875H23zm-14.75-9h3.429l1.585 5.75H8.25zm-3 0h1.5v5.75h-1.5zm1.25 18.25c-2.206 0-4-1.794-4-4s1.794-4 4-4 4 1.794 4 4-1.794 4-4 4m12.375 0c-.896 0-1.625-.729-1.625-1.625s.729-1.625 1.625-1.625 1.625.729 1.625 1.625-.729 1.625-1.625 1.625m2.625-4h-.625a3.08 3.08 0 0 0-2-.75 3.1 3.1 0 0 0-2.007.75H12c0-.521-.078-1.022-.213-1.5H21.5zm0-3H11.104a5.5 5.5 0 0 0-4.604-2.5 5.48 5.48 0 0 0-3.763 1.5H2.5v-3h17.25c.965 0 1.75.785 1.75 1.75zm-15 .625a2.38 2.38 0 0 0-2.375 2.375A2.38 2.38 0 0 0 6.5 19.5a2.38 2.38 0 0 0 2.375-2.375A2.38 2.38 0 0 0 6.5 14.75m0 3.25c-.482 0-.875-.393-.875-.875s.393-.875.875-.875.875.393.875.875S6.982 18 6.5 18"/></svg>