<svg xmlns="http://www.w3.org/2000/svg" viewBox="0 0 24 24"><g fill="#002466"><path d="m21.503 14.378-.036-.123h.86v-1.5h-1.301l-.294-.999a2.51 2.51 0 0 0-2.393-1.791h-6.43c-1.1 0-2.083.736-2.393 1.791l-.285.969H4.1a1.6 1.6 0 0 1-1.6-1.6 1.6 1.6 0 0 1 1.6-1.6h9.159c1.709 0 3.1-1.391 3.1-3.1s-1.391-3.1-3.1-3.1H7.481v-.05c0-1.241-1.01-2.25-2.25-2.25H2.5v1.161H1.021v1.5H2.5v.821H1.021v1.5H2.5v1.16h2.731c1.24 0 2.25-1.009 2.25-2.25v-.092h5.777a1.6 1.6 0 0 1 1.6 1.6 1.6 1.6 0 0 1-1.6 1.6H4.1c-1.709 0-3.1 1.391-3.1 3.1s1.391 3.1 3.1 3.1h4.692l-.045.154a2.5 2.5 0 0 0-1.497 2.282v1.728c0 .823.405 1.547 1.021 2.002v1.137a1.45 1.45 0 0 0 1.447 1.448h1.221a1.45 1.45 0 0 0 1.448-1.448v-.645h5.475v.645a1.45 1.45 0 0 0 1.448 1.448h1.221a1.45 1.45 0 0 0 1.447-1.448V20.39a2.48 2.48 0 0 0 1.021-2.002V16.66c0-1.02-.617-1.896-1.497-2.282zM5.981 4.917a.75.75 0 0 1-.75.75H4V2.525h1.231a.75.75 0 0 1 .75.75zm3.763 14.465a.995.995 0 0 1-.994-.994V16.66c0-.548.446-.994.994-.994h10.762c.548 0 .994.446.994.994v1.728a.995.995 0 0 1-.994.994zm2.166-7.917h6.43a1 1 0 0 1 .953.713l.585 1.989h-9.505l.585-1.989a1 1 0 0 1 .953-.713zm-.971 10.01-1.168.052v-.645h1.152zm9.592 0-1.169.052v-.645h1.144z"/><use href="#a"/><use x="-8.37" href="#a"/></g><defs><path id="a" d="M19.31 16.47a.7.7 0 0 0-.698.698.7.7 0 0 0 .698.698.7.7 0 0 0 .698-.698.7.7 0 0 0-.698-.698"/></defs></svg>