<svg xmlns="http://www.w3.org/2000/svg" viewBox="0 0 24 24"><path fill="#002466" d="M18.479 6.816v1.5h1.948l-3.072 3.072a6.47 6.47 0 0 0-3.351-1.375 6.47 6.47 0 0 0-1.38-3.381l3.071-3.071V5.51h1.5V1h-4.508v1.5h1.948l-3.072 3.072A6.47 6.47 0 0 0 7.525 4.16a6.52 6.52 0 0 0-6.512 6.512c0 3.359 2.556 6.13 5.825 6.475C7.17 20.429 9.95 23 13.317 23a6.52 6.52 0 0 0 6.512-6.512 6.48 6.48 0 0 0-1.414-4.04l3.071-3.071v1.95h1.5V6.816zM2.514 10.671A5.02 5.02 0 0 1 7.525 5.66c2.547 0 4.632 1.916 4.948 4.378a6.52 6.52 0 0 0-5.603 5.58c-2.452-.325-4.356-2.407-4.356-4.946zm9.933.893a5.01 5.01 0 0 1-4.052 4.032 5.01 5.01 0 0 1 4.052-4.032m.871 9.936c-2.546 0-4.632-1.916-4.948-4.377a6.52 6.52 0 0 0 5.603-5.58c2.452.325 4.357 2.406 4.357 4.946a5.02 5.02 0 0 1-5.012 5.012z"/></svg>