<svg xmlns="http://www.w3.org/2000/svg" viewBox="0 0 24 24"><path fill="#002466" d="M17.141 15.287h3.271v1.5h-3.271zM20.257 7.5h-5.295V4.25A3.25 3.25 0 0 0 11.72 1H4.24A3.25 3.25 0 0 0 1 4.25v15.5A3.25 3.25 0 0 0 4.241 23h7.48a3.25 3.25 0 0 0 3.24-3.25v-.5h5.296A2.75 2.75 0 0 0 23 16.5v-6.25c0-1.517-1.23-2.75-2.743-2.75m0 1.5c.689 0 1.247.56 1.247 1.25v.25h-6.542V9zm-6.791 10.75a1.75 1.75 0 0 1-1.745 1.75H4.24a1.75 1.75 0 0 1-1.745-1.75V4.25c0-.965.783-1.75 1.745-1.75h7.48a1.75 1.75 0 0 1 1.745 1.75zm6.791-2h-5.295V12h6.542v4.5c0 .69-.558 1.25-1.247 1.25"/><circle cx="4.74" cy="13.25" r=".748" fill="#002466"/><circle cx="7.981" cy="13.25" r=".748" fill="#002466"/><circle cx="11.222" cy="13.25" r=".748" fill="#002466"/><circle cx="4.74" cy="16.25" r=".748" fill="#002466"/><circle cx="7.981" cy="16.25" r=".748" fill="#002466"/><circle cx="11.222" cy="16.25" r=".748" fill="#002466"/><circle cx="4.74" cy="19.25" r=".748" fill="#002466"/><circle cx="7.981" cy="19.25" r=".748" fill="#002466"/><circle cx="11.222" cy="19.25" r=".748" fill="#002466"/><path fill="#002466" d="M3.992 10.5h7.978V4.25H3.992zm1.496-4.75h4.986V9H5.488z"/></svg>