<svg xmlns="http://www.w3.org/2000/svg" viewBox="0 0 24 24"><path fill="#002466" d="M17.678 8.807a2.88 2.88 0 0 0-.781-1.965 5 5 0 0 0 .077-.857C16.974 3.236 14.742 1 12 1S7.026 3.236 7.026 5.985a5 5 0 0 0 .077.857 2.88 2.88 0 0 0-.781 1.965 2.86 2.86 0 0 0 1.422 2.464L12 23l4.256-11.729a2.86 2.86 0 0 0 1.422-2.464M8.377 7.711l.415-.307-.138-.498a3.5 3.5 0 0 1-.128-.922c0-1.919 1.559-3.481 3.474-3.481s3.474 1.562 3.474 3.481q0 .457-.128.922l-.138.498.415.307a1.35 1.35 0 0 1 .555 1.096c0 .752-.611 1.364-1.362 1.364H9.185a1.365 1.365 0 0 1-1.362-1.364 1.35 1.35 0 0 1 .555-1.096zm1.111 3.964h5.025L12 18.601z"/></svg>