<svg xmlns="http://www.w3.org/2000/svg" viewBox="0 0 24 24"><path fill="#002466" d="M21.912 17.443a35 35 0 0 0-1.523-3.816q-.036-.084-.096-.12c-.06-.036-.087-.036-.143-.036h-1.529q-.083 0-.143.036c-.06.036-.072.064-.096.12a33 33 0 0 0-1.51 3.798 37 37 0 0 0-1.081 4.098q-.024.108.023.168c.047.06.085.06.155.06h1.23q.096 0 .149-.042c.053-.042.062-.074.078-.138l.191-.978.203-.918h3.081l.173.768.222 1.128q.024.096.078.138c.054.042.085.042.149.042h1.29q.108 0 .155-.06c.047-.06.04-.096.024-.168a35 35 0 0 0-1.081-4.08zm-3.78.96.562-1.806.633-1.614h.048l.651 1.65.555 1.77zM5.301 9.233a6.5 6.5 0 0 0 1.142.728l2.512 1.215.647-1.352L7.09 8.61a5 5 0 0 1-.706-.424 6.63 6.63 0 0 0 1.468-3.848h1.642v-1.5H6.03l-.962-1.494-1.254.815.437.679H1.324v1.5H2.75a6.63 6.63 0 0 0 1.468 3.848 5 5 0 0 1-.706.424L1 9.825l.647 1.352 2.512-1.215a6.5 6.5 0 0 0 1.142-.728zm1.058-4.896a5.1 5.1 0 0 1-1.058 2.804 5.1 5.1 0 0 1-1.059-2.804zm8.771.977c2.448.311 4.355 2.394 4.355 4.937h1.493c0-3.404-2.619-6.2-5.938-6.473l.868-.872-1.055-1.061L12.211 4.5l2.642 2.655 1.055-1.061-.778-.782zM8.135 18.406l.778.782c-2.448-.311-4.355-2.394-4.355-4.937H3.065c0 3.404 2.619 6.2 5.938 6.473l-.868.872 1.055 1.061 2.642-2.655-2.642-2.655-1.055 1.061z"/></svg>