<svg xmlns="http://www.w3.org/2000/svg" viewBox="0 0 24 24"><path fill="#002466" d="M23 9.23 14.77 1l-2.833 5.903-6.865 1.615L1 23l14.481-4.073 1.615-6.865zm-7.794-5.674 5.237 5.237-3.839 1.842-3.239-3.239zm-.982 14.167-9.583 2.695 4.052-4.051c.413.229.868.355 1.328.355.703 0 1.406-.267 1.941-.802a2.73 2.73 0 0 0 0-3.882 2.75 2.75 0 0 0-3.881 0 2.73 2.73 0 0 0-.804 1.941 2.7 2.7 0 0 0 .356 1.328l-4.05 4.049 2.695-9.581 5.946-1.4 3.4 3.4-1.399 5.947zm-5.449-3.744a1.24 1.24 0 0 1 1.246-1.245 1.24 1.24 0 0 1 1.246 1.245 1.24 1.24 0 0 1-.365.881 1.25 1.25 0 0 1-1.761 0 1.24 1.24 0 0 1-.365-.881z"/></svg>