<svg xmlns="http://www.w3.org/2000/svg" fill="#002466" viewBox="0 0 24 24"><path d="M11 1v11.563h12V1zm5.437 1.5h1.125v2h-1.125zm5.063 8.563h-9V2.5h2.437V6h4.125V2.5H21.5zM5.061 13.598l1.061-1.061c-1.17-1.169-3.072-1.169-4.242 0s-1.17 3.073 0 4.243l1.061-1.061a1.5 1.5 0 0 1 0-2.122 1.503 1.503 0 0 1 2.121 0zM6.5 6.976H3.783a9.42 9.42 0 0 1 5.742-4.407V1.003A10.9 10.9 0 0 0 2.5 6.199V2.976H1v5.5h5.5zm11 10.051h2.717a9.42 9.42 0 0 1-5.742 4.406V23a10.9 10.9 0 0 0 7.025-5.196v3.223H23v-5.5h-5.5zM8 14c-2.481 0-4.5 2.019-4.5 4.5S5.519 23 8 23s4.5-2.019 4.5-4.5S10.481 14 8 14m0 7.5c-1.654 0-3-1.346-3-3s1.346-3 3-3 3 1.346 3 3-1.346 3-3 3m.416-5h-.562a.4.4 0 0 0-.133.029l-1.015.412q-.104.034-.069.145l.185.557q.034.104.145.069l.55-.209v2.881q0 .116.116.116h.782q.116 0 .116-.116v-3.768q0-.116-.116-.116z"/></svg>