<svg xmlns="http://www.w3.org/2000/svg" fill="#002466" viewBox="0 0 24 24"><path d="m18.69 5.889-4.929-2.205a1.8 1.8 0 0 0 .059-.437h-1.499a.32.32 0 1 1-.642 0c0-.177.144-.322.321-.322h.75V1h-1.5v.587a1.82 1.82 0 0 0-1.071 1.659c0 .17.031.332.075.489l-4.94 2.154H4.72V23h14.56V5.889h-.589zm-.91 15.612H6.22v-6.305h11.56zM6.22 7.388h11.56v6.305H6.22zm5.067-2.467a1.8 1.8 0 0 0 .713.146 1.8 1.8 0 0 0 .777-.181l2.241 1.003H9.066zM7.758 8.709h1.499v3.822H7.758zm3.499 0h1.499v3.822h-1.499zm3.498 0h1.499v3.822h-1.499zm-6.997 7.807h1.499v3.823H7.758zm3.499 0h1.499v3.823h-1.499zm3.498 0h1.499v3.823h-1.499z"/></svg>