<svg xmlns="http://www.w3.org/2000/svg" viewBox="0 0 24 24"><path fill="#002466" d="M19.75 18.5h-.661L15.145 3.427A3.21 3.21 0 0 0 12 1a3.21 3.21 0 0 0-3.145 2.427L4.911 18.5H4.25C3.01 18.5 2 19.509 2 20.75S3.01 23 4.25 23h15.5c1.24 0 2.25-1.01 2.25-2.25s-1.01-2.25-2.25-2.25m-4.502-8.75H8.752L9.34 7.5h5.319zm.393 1.5.589 2.25H7.77l.589-2.25zM12 2.5c.653 0 1.441.343 1.693 1.307L14.267 6H9.733l.574-2.193C10.559 2.843 11.347 2.5 12 2.5M7.378 15h9.245l.916 3.5H6.462zm12.372 6.5H4.25a.75.75 0 1 1 0-1.5h15.5a.75.75 0 1 1 0 1.5"/></svg>