<svg xmlns="http://www.w3.org/2000/svg" viewBox="0 0 24 24"><path fill="#002466" d="M20.442 12.105c-5.672-.71-8.959-4.989-8.992-5.032l-.068-.08c-.92-.921-2.119.012-2.513.318L7.17 9.056l-1.597-.005-.697-1.163a1.52 1.52 0 0 0-1.296-.734h-.329c-.813 0-1.477.645-1.51 1.45l-.736 5.254c-.019.376.008.755.077 1.096l.387 2.45h6.237l.24-1.76c.474.125 1.026.29 1.633.471 1.92.574 4.309 1.289 6.211 1.289 2.739 0 6.517-1.125 6.676-1.173l.535-.161v-1.7c0-1.707-2.247-2.206-2.558-2.266zM6.395 15.903H2.752l-.124-.783H3.63c.016 0 1.34.004 2.841.226zm15.103-.959c-1.119.303-3.765.959-5.709.959-1.681 0-3.954-.68-5.781-1.226-.953-.285-1.776-.531-2.431-.662a22.6 22.6 0 0 0-3.947-.395H2.552l.682-4.852.017-.115.337.005.697 1.163a1.52 1.52 0 0 0 1.296.734H7.17c.334 0 .664-.113.928-.319l1.733-1.772c.285-.219.45-.306.537-.34a12 12 0 0 0 .518.591l-.808 1.199 1.245.838.657-.975a17 17 0 0 0 .6.505l-.612.909 1.246.837.579-.861c1.621 1.075 3.768 2.087 6.405 2.416.542.112 1.299.465 1.299.787z"/></svg>