<svg xmlns="http://www.w3.org/2000/svg" viewBox="0 0 24 24"><path fill="#002466" d="M19.102 9.415h-6.358v1.5h6.358c1.322 0 2.4 1.078 2.4 2.402V15H23v-1.683a3.91 3.91 0 0 0-3.898-3.902M1 13.317V15h1.499v-1.683a2.404 2.404 0 0 1 2.4-2.402h6.347v-1.5H4.898A3.91 3.91 0 0 0 1 13.317m8.441 1.543A2.55 2.55 0 0 0 6.9 12.316a2.55 2.55 0 0 0-2.542 2.544A2.55 2.55 0 0 0 6.9 17.404a2.55 2.55 0 0 0 2.54-2.544m-3.584 0c0-.576.468-1.044 1.043-1.044a1.045 1.045 0 0 1 0 2.088 1.046 1.046 0 0 1-1.043-1.044m2.69 3.297H5.252a2.704 2.704 0 0 0-2.7 2.702V23h1.5v-2.142c0-.663.538-1.202 1.2-1.202h3.294c.662 0 1.2.539 1.2 1.202V23h1.499v-2.142a2.704 2.704 0 0 0-2.699-2.702zm11.085-3.297a2.55 2.55 0 0 0-2.542-2.544 2.55 2.55 0 0 0-2.542 2.544 2.55 2.55 0 0 0 2.542 2.544 2.55 2.55 0 0 0 2.542-2.544m-3.586 0a1.045 1.045 0 1 1 1.044 1.044 1.046 1.046 0 0 1-1.044-1.044m2.69 3.297h-3.292a2.704 2.704 0 0 0-2.7 2.702V23h1.499v-2.142c0-.663.538-1.202 1.2-1.202h3.294c.662 0 1.2.539 1.2 1.202V23h1.5v-2.142a2.704 2.704 0 0 0-2.7-2.702zM14.742 7.379a3.475 3.475 0 0 0 4.016 0v1.382h1.498V4.51c0-1.935-1.572-3.51-3.506-3.51s-3.507 1.575-3.507 3.51v4.251h1.499zm3.964-3.308c-.917-.045-1.209-.24-1.542-.461a3.65 3.65 0 0 0-1.676-.651c.355-.295.8-.457 1.262-.459a2.01 2.01 0 0 1 1.956 1.571m-3.952.325c.945.042 1.243.238 1.58.462.517.344 1.028.618 2.122.697a2.002 2.002 0 0 1-3.714-1.046c0-.039.009-.076.012-.114zM5.208 7.379a3.475 3.475 0 0 0 4.017 0v1.382h1.498V4.51C10.723 2.575 9.151 1 7.216 1S3.71 2.575 3.71 4.51v4.251h1.498zm3.965-3.308c-.918-.045-1.21-.24-1.542-.461a3.65 3.65 0 0 0-1.677-.651c.355-.295.8-.457 1.261-.459a2.01 2.01 0 0 1 1.958 1.571m-3.953.325c.945.042 1.244.238 1.58.462.517.344 1.029.618 2.123.697a2.002 2.002 0 0 1-3.715-1.046c0-.039.01-.076.012-.114z"/></svg>