<svg xmlns="http://www.w3.org/2000/svg" fill="#002466" viewBox="0 0 24 24"><path d="M23 1H9.999v6.365l-.424-.398a2.76 2.76 0 0 0-1.891-.749H3.761a2.74 2.74 0 0 0-1.96.817A2.74 2.74 0 0 0 1 9.002l.035 4.294h.015v6.454A3.254 3.254 0 0 0 4.3 23h11.44a3.256 3.256 0 0 0 3.25-3.244l.003-2.253H23zM2.866 8.091a1.25 1.25 0 0 1 .895-.373h3.923a1.26 1.26 0 0 1 .863.342l1.286 1.209H2.502L2.5 8.99a1.25 1.25 0 0 1 .366-.899M17.49 19.753a1.753 1.753 0 0 1-1.75 1.747H4.3c-.965 0-1.75-.785-1.75-1.75v-8.98h13.199c.965 0 1.75.785 1.75 1.75zm4.01-3.75h-2.505L19 12.52a3.255 3.255 0 0 0-3.25-3.251h-3.725l-.551-.518h.026V2.5h10zM13.499 5.001H19.5v1.5h-6.001z"/></svg>