<svg xmlns="http://www.w3.org/2000/svg" fill="#002466" viewBox="0 0 24 24"><path d="M2.5 10.615a8.11 8.11 0 0 1 8.099-8.098 8.11 8.11 0 0 1 8.099 8.098 8 8 0 0 1-.739 3.374h1.617a9.5 9.5 0 0 0 .622-3.374 9.61 9.61 0 0 0-9.599-9.598A9.61 9.61 0 0 0 1 10.615c0 5.292 4.306 9.599 9.599 9.599a9.5 9.5 0 0 0 2.407-.327v-1.56a8 8 0 0 1-2.407.387A8.11 8.11 0 0 1 2.5 10.615m6.253-4.417a1.85 1.85 0 0 0 1.846 1.846 1.85 1.85 0 0 0 1.846-1.846 1.85 1.85 0 0 0-1.846-1.846 1.85 1.85 0 0 0-1.846 1.846m2.191 0a.347.347 0 0 1-.692 0 .346.346 0 0 1 .692 0m.405 3.791 3.271-.516-.234-1.481-3.786.598-3.786-.598-.234 1.481 3.271.516v2.052l-2.324 3.686 1.27.8 1.805-2.863 1.805 2.863 1.27-.8-2.324-3.686V9.989zm10.919 5.757c-.943-.944-2.589-.944-3.534 0l-.169.168-.175-.175a2.49 2.49 0 0 0-3.522 0 2.51 2.51 0 0 0-.006 3.54l3.703 3.704 3.703-3.704A2.48 2.48 0 0 0 23 17.513a2.48 2.48 0 0 0-.732-1.767m-1.061 2.474-2.643 2.643-2.643-2.643a1.005 1.005 0 0 1 .006-1.419.99.99 0 0 1 1.401 0l1.235 1.235 1.229-1.229a1.02 1.02 0 0 1 1.413 0 1 1 0 0 1 .293.706 1 1 0 0 1-.293.707z"/></svg>