<svg xmlns="http://www.w3.org/2000/svg" viewBox="0 0 24 24"><path fill="#002466" d="m23 7.083-1.057-1.057-3.451 3.45-3.97-3.97 3.451-3.451L16.917 1l-3.451 3.451-2.094-2.094-5.136 5.136a7.22 7.22 0 0 0-2.128 5.136c0 1.689.574 3.289 1.627 4.58L1 21.943 2.057 23l4.735-4.735a7.2 7.2 0 0 0 4.58 1.627c1.94 0 3.764-.755 5.136-2.128l5.136-5.136-2.095-2.095zm-7.549 9.624a5.73 5.73 0 0 1-4.079 1.69 5.73 5.73 0 0 1-4.079-1.69 5.73 5.73 0 0 1-1.69-4.079 5.73 5.73 0 0 1 1.69-4.079l4.079-4.079 8.159 8.158z"/></svg>