<svg xmlns="http://www.w3.org/2000/svg" fill="#002466" viewBox="0 0 24 24"><circle cx="19.25" cy="9.25" r=".75"/><path d="M22.061 21H23V5.5h-5.442l-.75-2.5H7.192L6.47 5.409 2.03.97.97 2.03 4.44 5.5H1V21h18.939l2.03 2.03 1.061-1.061zM2.5 19.5V7h3.439l2.499 2.499A4.98 4.98 0 0 0 7 13a5.01 5.01 0 0 0 5 5 4.98 4.98 0 0 0 3.501-1.439L18.44 19.5zm11.94-3.999A3.48 3.48 0 0 1 12 16.5c-1.93 0-3.5-1.57-3.5-3.5 0-.949.383-1.809.999-2.44l4.942 4.942zm-3.651-5.772A3.5 3.5 0 0 1 12 9.5c1.93 0 3.5 1.57 3.5 3.5a3.5 3.5 0 0 1-.229 1.211zM21.5 19.5h-.939l-4.166-4.166c.374-.7.605-1.487.605-2.334a5.01 5.01 0 0 0-5-5c-.847 0-1.634.232-2.334.605L7.674 6.613 8.308 4.5h7.385l.75 2.5H21.5z"/></svg>