<svg xmlns="http://www.w3.org/2000/svg" fill="#002466" viewBox="0 0 24 24"><path d="M17.77 5.677A3.37 3.37 0 0 0 14.625 3.5h-2.468C11.352 2.019 9.801 1 8 1h-.5v1.5H8a3.24 3.24 0 0 1 2.632 1.359c-4.66.668-8.257 4.675-8.257 9.516A9.64 9.64 0 0 0 12 23a9.64 9.64 0 0 0 9.625-9.625 9.67 9.67 0 0 0-3.855-7.698M12.75 5h1.875A1.88 1.88 0 0 1 16.5 6.875V8.75h-1.875a1.88 1.88 0 0 1-1.875-1.875zM12 21.5c-4.48 0-8.125-3.645-8.125-8.125a8.14 8.14 0 0 1 7.328-8.085c.022.151.047.302.047.46v1.125a3.38 3.38 0 0 0 3.375 3.375H18V7.917a8.15 8.15 0 0 1 2.125 5.458c0 4.48-3.645 8.125-8.125 8.125M9.25 11.25h1.5v1.5h-1.5zm-3.5 0h1.5v1.5h-1.5zM11 14.5h1.5V16H11zm-3.75 0h1.5V16h-1.5zm3 3.25h1.5v1.5h-1.5zm3.75 0h1.5v1.5H14z"/></svg>