<svg xmlns="http://www.w3.org/2000/svg" viewBox="0 0 24 24"><path fill="#002466" d="m20.284 2.194-6.75-1.147a3.247 3.247 0 0 0-3.795 3.198v4.592c0 .101-.056.163-.089.191s-.1.072-.204.055l-4.844-.84a3.06 3.06 0 0 0-3.487 2.206 3.04 3.04 0 0 0 1.427 3.42l8.447 4.831v3.054A1.25 1.25 0 0 0 12.239 23h9.5a1.25 1.25 0 0 0 1.25-1.248V5.391a3.24 3.24 0 0 0-2.704-3.198zm1.204 19.309h-9v-2.496h9zm-9.56-3.993-8.641-4.941a1.54 1.54 0 0 1-.724-1.734 1.554 1.554 0 0 1 1.775-1.118l4.85.841c.51.089 1.03-.051 1.426-.384s.624-.82.624-1.337V4.245a1.753 1.753 0 0 1 2.044-1.723l6.75 1.147a1.74 1.74 0 0 1 1.456 1.722V17.51z"/></svg>