<svg xmlns="http://www.w3.org/2000/svg" fill="#002466" viewBox="0 0 24 24"><path d="M17.91 16.85a9.56 9.56 0 0 0 2.314-6.239c0-5.3-4.311-9.612-9.612-9.612S1 5.312 1 10.612s4.311 9.612 9.612 9.612a9.56 9.56 0 0 0 6.239-2.314l5.09 5.09L23 21.941zm-7.298 1.875c-4.474 0-8.114-3.64-8.114-8.114s3.64-8.114 8.114-8.114 8.114 3.64 8.114 8.114-3.64 8.114-8.114 8.114m0-8.758a2.84 2.84 0 0 0 2.836-2.835 2.84 2.84 0 0 0-2.836-2.836 2.84 2.84 0 0 0-2.836 2.836 2.84 2.84 0 0 0 2.836 2.835m0-4.173a1.34 1.34 0 0 1 1.338 1.338 1.34 1.34 0 0 1-1.338 1.338 1.34 1.34 0 0 1-1.338-1.338 1.34 1.34 0 0 1 1.338-1.338m2.225 5.466H8.386a3.12 3.12 0 0 0-3.114 3.114v.834H6.77v-.834a1.62 1.62 0 0 1 1.616-1.616h4.451a1.62 1.62 0 0 1 1.616 1.616v.856h1.498v-.856a3.12 3.12 0 0 0-3.114-3.114"/></svg>