<svg xmlns="http://www.w3.org/2000/svg" fill="#002466" viewBox="0 0 24 24"><path d="M11.725 3.043a1.91 1.91 0 0 1 0 2.701l1.061 1.061a3.41 3.41 0 0 0 0-4.822c-1.287-1.288-3.535-1.288-4.822 0l1.061 1.061a1.96 1.96 0 0 1 2.701 0zm-5.542.708A5.19 5.19 0 0 0 1 8.934a5.19 5.19 0 0 0 5.183 5.183 5.19 5.19 0 0 0 5.183-5.183 5.19 5.19 0 0 0-5.183-5.183m0 8.866A3.69 3.69 0 0 1 2.5 8.934a3.69 3.69 0 0 1 3.683-3.683 3.69 3.69 0 0 1 3.683 3.683 3.69 3.69 0 0 1-3.683 3.683m.492-6.047h-.664a.4.4 0 0 0-.157.034l-1.2.487q-.123.04-.081.171l.219.658q.04.123.171.082l.65-.247v3.406a.12.12 0 0 0 .138.137h.924a.12.12 0 0 0 .138-.137V6.707a.12.12 0 0 0-.138-.138zM5.35 15.572a3.71 3.71 0 0 0-3.705 3.706 3.71 3.71 0 0 0 3.705 3.705 3.71 3.71 0 0 0 3.706-3.705 3.71 3.71 0 0 0-3.706-3.706m0 5.911a2.21 2.21 0 0 1-2.205-2.205 2.21 2.21 0 0 1 2.205-2.206 2.21 2.21 0 0 1 2.206 2.206 2.21 2.21 0 0 1-2.206 2.205M19.272 1.734c-2.056 0-3.728 1.672-3.728 3.728s1.672 3.728 3.728 3.728S23 7.517 23 5.461s-1.672-3.728-3.728-3.728zm0 5.956a2.23 2.23 0 0 1-2.228-2.228 2.23 2.23 0 0 1 2.228-2.228A2.23 2.23 0 0 1 21.5 5.461a2.23 2.23 0 0 1-2.228 2.228zm-3.578 2.563a5.19 5.19 0 0 0-5.183 5.183 5.19 5.19 0 0 0 5.183 5.184 5.19 5.19 0 0 0 5.183-5.184 5.19 5.19 0 0 0-5.183-5.183m0 8.866a3.69 3.69 0 0 1-3.683-3.684 3.69 3.69 0 0 1 3.683-3.683 3.69 3.69 0 0 1 3.683 3.683 3.69 3.69 0 0 1-3.683 3.684m.492-6.047h-.664a.4.4 0 0 0-.157.034l-1.2.487q-.123.04-.081.171l.219.658q.04.124.171.082l.65-.247v3.406a.12.12 0 0 0 .138.137h.924a.12.12 0 0 0 .138-.137v-4.454a.12.12 0 0 0-.138-.138z"/></svg>