<svg xmlns="http://www.w3.org/2000/svg" fill="#002466" viewBox="0 0 24 24"><path d="m17.956 11.705-5.045 4.892V23h4.623v-3.124h.843V23H23v-6.403zM21.5 21.5h-1.623v-3.124h-3.843V21.5h-1.623v-4.269l3.545-3.437 3.544 3.437zM6.988 10.634h1.023V14H14V1H1v13h5.988zm-1.5 1.866H2.5v-10h10v10H9.512V9.134H5.488zm1.17-8.835h1.684v1.5H6.658zm0 2.945h1.684v1.5H6.658zm3.086-2.945h1.683v1.5H9.744zm0 2.945h1.683v1.5H9.744zm-6.171 0h1.683v1.5H3.573zm0-2.945h1.683v1.5H3.573zm14.235 2.778A6.08 6.08 0 0 1 20.5 11.5H22a7.57 7.57 0 0 0-3.104-6.125h1.851v-1.5h-4.439v4.439h1.5zM8.332 20.057A6.08 6.08 0 0 1 5.64 15h-1.5a7.57 7.57 0 0 0 3.104 6.125h-1.85v1.5h4.438v-4.439h-1.5z"/></svg>