<svg xmlns="http://www.w3.org/2000/svg" fill="#002466" viewBox="0 0 24 24"><path d="M17.751 6.085V3.036l-.831.09c-.092.01-2.153.25-3.542 1.757h-2.613c-2.392.034-4.651 1.163-6.061 3.129a7.3 7.3 0 0 0-1.384 4.274 1.19 1.19 0 0 1-.82-1.124v-.415H1v.415a2.696 2.696 0 0 0 2.477 2.679 8 8 0 0 0 .27 1.001l.642 1.386-.653.796c-.832 1.015-.686 2.519.359 3.38.442.365.985.56 1.551.56l.241-.012a2.43 2.43 0 0 0 1.654-.883l.513-.625c1.199.458 2.497.499 3.83.499a10.9 10.9 0 0 0 3.692-.667l.65.793c.416.506 1.003.819 1.654.883s1.285-.131 1.824-.574a2.39 2.39 0 0 0 .325-3.354l-.572-.697.603-.777 2.94-.601V9.506l-2.754-.473a5.6 5.6 0 0 0-2.495-2.948m3.749 7.639-2.287.466-1.675 2.164 1.331 1.621c.309.377.255.936-.154 1.272a.94.94 0 0 1-.691.211.94.94 0 0 1-.639-.341l-1.365-1.663-.522.233c-1.074.479-2.392.755-3.615.755-.694 0-1.374-.011-2.012-.095a4.4 4.4 0 0 1-2.119-.902L6.38 19.118a.94.94 0 0 1-.639.341.97.97 0 0 1-.725-.239.887.887 0 0 1-.121-1.244l1.251-1.522-1.008-2.169a5.88 5.88 0 0 1 .786-5.397c1.124-1.569 2.924-2.503 4.819-2.503h3.348l.226-.289c.546-.7 1.338-1.078 1.935-1.276v2.184l.57.287a4.12 4.12 0 0 1 2.126 2.606l.123.458 2.43.417v2.954zM10.043 7.512h3.682v1.5h-3.682z"/></svg>