<svg xmlns="http://www.w3.org/2000/svg" fill="#002466" viewBox="0 0 24 24"><path d="M22.83 8.732a2.55 2.55 0 0 0-.055-1.963 2.55 2.55 0 0 0-1.424-1.353l-.084-.03a3.01 3.01 0 0 0-1.943-2.936 3.05 3.05 0 0 0-2.32.063c-.426.196-.786.49-1.078.842a2.7 2.7 0 0 0-.831-.102 3.34 3.34 0 0 0-.792-1.304 3.27 3.27 0 0 0-2.3-.95c-1.452 0-2.68.938-3.097 2.254a2.7 2.7 0 0 0-.834.102 3.1 3.1 0 0 0-1.084-.845 3.05 3.05 0 0 0-2.313-.06 3.01 3.01 0 0 0-1.943 2.936l-.083.03a2.55 2.55 0 0 0-1.424 1.352 2.55 2.55 0 0 0-.055 1.963c.181.473.498.867.893 1.152a2.44 2.44 0 0 0-.448 1.511c.05 1.179.834 2.158 1.951 2.437.791.197 1.693.478 2.388 1.057.247.206.38.351.447.436l.878 1.111c.197.249 1.782 2.667 2.509 3.941l.077.717a2.152 2.152 0 0 0 4.278-.007l.078-.727 2.499-3.923.88-1.113c.065-.084.195-.227.446-.435.693-.579 1.595-.858 2.387-1.056 1.116-.279 1.901-1.258 1.951-2.436a2.4 2.4 0 0 0-.453-1.508 2.55 2.55 0 0 0 .899-1.156M8.455 15.506l-.879-1.112a4.7 4.7 0 0 0-.663-.657c-.932-.777-2.085-1.135-2.984-1.359-.378-.094-.79-.418-.817-1.046-.018-.417.267-.822.721-.997a1 1 0 0 1 .389-.052l.133-1.494a3 3 0 0 0-.169-.006 2.2 2.2 0 0 0-.647.09 1.065 1.065 0 0 1-.969-.676 1.06 1.06 0 0 1 .024-.815 1.06 1.06 0 0 1 .592-.563 1 1 0 0 1 .382-.068l1.098.05-.354-1.041a1.516 1.516 0 0 1 .899-1.907 1.54 1.54 0 0 1 1.159.025 1.6 1.6 0 0 1 .383.267A2.7 2.7 0 0 0 6.006 6c0 .569.18 1.111.493 1.561A2.62 2.62 0 0 0 5.41 8.936c-.399 1.198.011 2.479 1.02 3.186.743.52 1.568 1.169 2.06 2.049.178.319.259.524.295.639l.465 1.488c.024.078.059.272.099.533zm3.548 5.994a.65.65 0 0 1-.648-.57l-.675-5.079-.465-1.489a5 5 0 0 0-.417-.922c-.639-1.145-1.627-1.93-2.509-2.547a1.274 1.274 0 0 1-.458-1.481c.156-.466.638-.792 1.209-.793a1.2 1.2 0 0 1 .445.105l.662-1.346a3 3 0 0 0-.166-.071 2.5 2.5 0 0 0-.702-.165 1.25 1.25 0 0 1-.776-1.143 1.25 1.25 0 0 1 1.249-1.25 1.1 1.1 0 0 1 .451.088l1.006.438.041-1.098A1.74 1.74 0 0 1 12 2.499c.464 0 .915.186 1.233.504a1.8 1.8 0 0 1 .517 1.18l.051 1.086.997-.433a1.1 1.1 0 0 1 .451-.088A1.25 1.25 0 0 1 16.501 6c0 .502-.308.951-.766 1.142a2.6 2.6 0 0 0-.702.162l.556 1.393c.029-.012.489-.065.489-.065.493.03.933.325 1.084.751.251.709-.083 1.257-.446 1.511-.882.617-1.87 1.403-2.511 2.548a5 5 0 0 0-.416.922l-.465 1.488c-.198.635-.566 4.048-.674 5.07a.653.653 0 0 1-.649.578zm8.067-9.123c-.957.239-2.059.587-2.983 1.359a4.5 4.5 0 0 0-.664.658l-.88 1.113c-.118.149-.467.667-.883 1.307l.096-.515.465-1.487c.036-.116.117-.321.294-.639.493-.881 1.318-1.531 2.061-2.05 1.03-.721 1.432-2.023 1.001-3.241a2.56 2.56 0 0 0-1.087-1.324c.314-.451.511-.985.511-1.558 0-.721-.295-1.367-.754-1.856a1.5 1.5 0 0 1 .376-.263 1.53 1.53 0 0 1 1.165-.029 1.516 1.516 0 0 1 .9 1.908l-.355 1.04 1.098-.05a1 1 0 0 1 .383.067 1.06 1.06 0 0 1 .592.563c.117.261.125.551.024.814a1.06 1.06 0 0 1-.955.674 2.1 2.1 0 0 0-.636-.088l-.196.007.215 1.493a1 1 0 0 1 .337.065c.426.163.711.568.693.985-.027.628-.44.952-.817 1.046zm-5.6-1.541-.935-1.173-.782.623V8.455l1.717-1.369-.935-1.173-.782.623V5h-1.499v1.537l-.782-.623-.935 1.173 1.717 1.369v1.832l-.782-.623-.935 1.173 1.717 1.369V15h1.499v-2.795z"/></svg>