<svg xmlns="http://www.w3.org/2000/svg" fill="#002466" viewBox="0 0 24 24"><path d="M1 5v14h22V5zm20.5 12.5h-14v-1H6v1H2.5v-11H6v1h1.5v-1h14zM6 12.75h1.5V15H6zM6 9h1.5v2.25H6zm5.519 5.456a1.36 1.36 0 0 0 1.372-.016l1.156-.694-1.159 2.167 1.322.707 1.279-2.392 1.279 2.392 1.322-.707-1.169-2.187 1.189.714c.215.128.457.193.699.193a1.36 1.36 0 0 0 .672-.177c.425-.241.689-.695.689-1.184v-2.547c0-.489-.265-.943-.69-1.185a1.36 1.36 0 0 0-1.371.018L15.5 11.124l-2.61-1.566c-.42-.251-.946-.258-1.371-.017s-.69.695-.69 1.185v2.547c0 .489.265.942.689 1.184zm7.152-3.485v2.057L16.958 12zm-6.342 0 1.713 1.028-1.713 1.028z"/></svg>