<svg xmlns="http://www.w3.org/2000/svg" viewBox="0 0 24 24"><path fill="#002466" d="M22.319 12.624a1.18 1.18 0 0 1 0-1.247l.273-.442a2.65 2.65 0 0 0-.078-2.945 2.65 2.65 0 0 0-2.731-1.101 2.67 2.67 0 0 0-1.47.837L16.717 9.5H7.283L5.686 7.725a2.66 2.66 0 0 0-1.469-.836A2.64 2.64 0 0 0 1.485 7.99a2.65 2.65 0 0 0-.078 2.946l.273.441c.238.385.238.862 0 1.247l-.273.442a2.65 2.65 0 0 0 .078 2.945 2.65 2.65 0 0 0 2.731 1.101 2.67 2.67 0 0 0 1.47-.837L7.283 14.5h9.434l1.598 1.775c.39.433.897.722 1.469.836a3 3 0 0 0 .545.055c.867 0 1.673-.416 2.187-1.155a2.65 2.65 0 0 0 .078-2.946l-.273-.441zm-1.275.79.273.441c.256.414.243.9-.034 1.3a1.16 1.16 0 0 1-1.205.486 1.18 1.18 0 0 1-.649-.369L17.385 13H6.615l-2.043 2.271a1.2 1.2 0 0 1-.65.37c-.469.093-.926-.085-1.205-.486s-.29-.886-.034-1.3l.273-.441a2.67 2.67 0 0 0 0-2.827l-.273-.441c-.256-.414-.243-.9.034-1.3s.73-.581 1.205-.486a1.18 1.18 0 0 1 .649.369L6.615 11h10.77l2.043-2.271c.173-.191.397-.319.65-.37a1.16 1.16 0 0 1 1.205.486c.277.4.29.886.034 1.3l-.273.441a2.67 2.67 0 0 0 0 2.827z"/></svg>