<svg xmlns="http://www.w3.org/2000/svg" viewBox="0 0 24 24"><path fill="#002466" d="M23 5.976a4.8 4.8 0 0 0-1.409-3.403l-.166-.166a4.82 4.82 0 0 0-6.807 0l-.929.929-1.048-1.048-1.995 1.996 1.048 1.048-6.547 6.549L4.1 10.833l-1.995 1.996 1.048 1.048-.742.742C1.502 15.529 1 16.738 1 18.024s.502 2.495 1.409 3.403l.164.165.002.001A4.8 4.8 0 0 0 5.977 23a4.8 4.8 0 0 0 3.404-1.407l.742-.742.896.896 1.995-1.996-.896-.896 6.547-6.549.896.896 1.995-1.996-.896-.896.929-.93A4.78 4.78 0 0 0 23 5.976m-7.648 3.702.812-.812 1.912 1.912-7.484 7.487-1.912-1.913.967-.968-1.058-1.058-.967.968-1.885-1.885 7.484-7.487 1.885 1.885-.812.812 1.058 1.058zM8.323 20.534a3.323 3.323 0 0 1-4.691 0l-.164-.165c-.626-.627-.972-1.46-.972-2.346s.346-1.72.972-2.346l1.21-1.211 4.855 4.856-1.211 1.211zM20.531 8.321 19.134 9.72l-4.855-4.856 1.398-1.398a3.32 3.32 0 0 1 4.689-.001l.166.166c.626.627.972 1.46.972 2.346s-.346 1.719-.972 2.346z"/></svg>