<svg xmlns="http://www.w3.org/2000/svg" fill="#002466" viewBox="0 0 24 24"><path d="M6.819 4.512a.32.32 0 0 1 .319.32v1.664h1.5V4.831A1.82 1.82 0 0 0 6.819 3.01a.32.32 0 0 1-.319-.32V1.026H5V2.69c0 1.004.816 1.821 1.819 1.821zm5.177-.018a.32.32 0 0 1 .319.32v1.664h1.5V4.814a1.82 1.82 0 0 0-1.819-1.821.32.32 0 0 1-.318-.32V1.009h-1.5v1.664a1.82 1.82 0 0 0 1.818 1.821m5.178.018a.32.32 0 0 1 .319.32v1.664h1.5V4.831a1.82 1.82 0 0 0-1.819-1.821.32.32 0 0 1-.319-.32V1.026h-1.5V2.69c0 1.004.816 1.821 1.819 1.821zm2.951 5.737h-.485V8.497H4.36v6.865a7.63 7.63 0 0 0 3.113 6.145H5v1.501h14v-1.501h-2.473a7.64 7.64 0 0 0 3.08-5.504h.518A2.88 2.88 0 0 0 23 13.126a2.88 2.88 0 0 0-2.875-2.877m-1.985 5.114A6.15 6.15 0 0 1 12 21.508a6.15 6.15 0 0 1-6.14-6.145V9.998h12.28v5.364zm1.985-.861h-.485V11.75h.485a1.38 1.38 0 0 1 1.375 1.376 1.38 1.38 0 0 1-1.375 1.376"/></svg>