<svg xmlns="http://www.w3.org/2000/svg" fill="#002466" viewBox="0 0 24 24"><path d="M12 1C5.925 1 1 5.925 1 12s4.925 11 11 11 11-4.925 11-11S18.075 1 12 1m0 20.5c-5.238 0-9.5-4.262-9.5-9.5S6.762 2.5 12 2.5s9.5 4.262 9.5 9.5-4.262 9.5-9.5 9.5m.852-12.473h-1.163q-.156 0-.181.164l-.1.996-.134.9-.185.845-.246.827h-.034L9.93 9.174q-.044-.147-.189-.146H8.569q-.147 0-.19.146L7.5 12.758h-.034l-.246-.827-.185-.845-.134-.9-.099-.996q-.026-.164-.182-.164H5.458q-.182 0-.164.181.095 1.302.475 2.753a24 24 0 0 0 .947 2.874q.052.138.198.138h1.061q.146 0 .189-.146l.956-3.646h.035l.956 3.646a.18.18 0 0 0 .189.146h1.095q.147 0 .198-.129.569-1.431.948-2.882c.379-1.451.41-1.886.474-2.753q.018-.181-.164-.181zm5.576.926a2.1 2.1 0 0 0-.461-.525 2.2 2.2 0 0 0-.673-.366 2.7 2.7 0 0 0-.909-.138q-.533 0-1.042.181a2.5 2.5 0 0 0-.901.56 2.8 2.8 0 0 0-.633.957q-.241.578-.241 1.379 0 .81.229 1.392c.229.582.355.707.611.957a2.4 2.4 0 0 0 .888.552q.503.177 1.064.177.396 0 .715-.061a2.7 2.7 0 0 0 .564-.151 2.4 2.4 0 0 0 .423-.198q.176-.108.288-.202.113-.086.044-.216l-.38-.775a.15.15 0 0 0-.25-.069 2 2 0 0 1-.456.241 1.9 1.9 0 0 1-.698.112q-.328 0-.604-.103c-.276-.103-.343-.178-.479-.328s-.241-.339-.318-.569-.116-.505-.116-.827q0-.448.104-.771a1.6 1.6 0 0 1 .275-.534 1.1 1.1 0 0 1 .4-.314 1.15 1.15 0 0 1 .479-.104q.439 0 .689.207c.25.207.299.327.396.568q.06.173.232.104l.923-.31q.155-.06.103-.207a2.4 2.4 0 0 0-.267-.616z"/></svg>