<svg xmlns="http://www.w3.org/2000/svg" fill="#002466" viewBox="0 0 24 24"><path d="M9.693 4.279v-3.25h-7v3.25H.943v18.75h10.5l-.001-18.75zm-1.248 1.5L6.193 7.745 3.942 5.779zm-4.252-3.25h4v1.75h-4zm-1.75 19V6.461l3.75 3.276 3.749-3.275.001 15.067zM23.057 5.33h-1.145l.786-.786-1.061-1.061L19.79 5.33h-.871v-.871l1.847-1.847-1.061-1.061-.786.786V.971h-1.5v1.366l-.786-.786-1.061 1.061 1.847 1.847v.871h-.871l-1.847-1.847-1.061 1.061.786.786h-1.234v1.5h1.234l-.786.786 1.061 1.061 1.847-1.847h.871v.871l-1.847 1.847 1.061 1.061.786-.786v1.457h1.5V9.822l.786.786 1.061-1.061L18.919 7.7v-.87h.871l1.847 1.847 1.061-1.061-.786-.786h1.145z"/></svg>