<svg xmlns="http://www.w3.org/2000/svg" fill="#002466" viewBox="0 0 24 24"><path d="M16.378 9.169c-1.048-.397-2.11-1.462-2.11-2.728V1H9.731v5.441c0 1.266-1.061 2.33-2.109 2.727-3.383 1.282-5.484 3.904-5.484 6.844 0 2.914 1.784 5.63 4.544 6.917l.15.07h10.333l.15-.07c2.761-1.287 4.544-4.002 4.544-6.917 0-2.941-2.101-5.563-5.483-6.843zM11.231 2.5h1.537v.778h-1.537zm5.598 19H7.171c-2.151-1.067-3.532-3.205-3.532-5.487 0-2.301 1.73-4.386 4.515-5.442 1.482-.561 3.078-2.093 3.078-4.129V4.778h1.537v1.664c0 2.036 1.595 3.568 3.078 4.131 2.785 1.054 4.515 3.139 4.515 5.44 0 2.283-1.381 4.42-3.532 5.487zm-9.582-6.544-.553.15v4.037l.553.15c1.629.444 3.228.669 4.753.669s3.124-.225 4.753-.669l.553-.15v-4.037l-.553-.15a17.27 17.27 0 0 0-9.506 0m8.559 3.032a15.54 15.54 0 0 1-7.611 0v-1.727a15.54 15.54 0 0 1 7.611 0z"/></svg>