<svg xmlns="http://www.w3.org/2000/svg" fill="#002466" viewBox="0 0 24 24"><path d="M21.821 12.013h-3.029v-1.977H5.27v10.987h2.214a2.33 2.33 0 0 0 2.297 1.968 2.33 2.33 0 0 0 2.296-1.968h5.502A2.33 2.33 0 0 0 19.876 23c1.218 0 2.21-.941 2.312-2.132H23v-4.756zm-12.04 9.481a.83.83 0 0 1-.743-.471h1.486a.83.83 0 0 1-.742.471zm7.513-9.481v7.513H6.769v-7.994h10.525zm1.498 1.497h1.909l.551 1.865h-2.46zm1.084 7.994a.836.836 0 0 1-.835-.834.836.836 0 0 1 1.669 0c0 .46-.375.834-.834.834m1.626-2.499a2.33 2.33 0 0 0-1.626-.665c-.393 0-.758.107-1.084.279v-1.748h2.71zM5.68 6.273a2.3 2.3 0 0 0 .798.134q.444 0 .796-.134a1.65 1.65 0 0 0 .601-.388 1.7 1.7 0 0 0 .38-.614 2.4 2.4 0 0 0 .131-.814 2.4 2.4 0 0 0-.131-.814 2 2 0 0 0-.16-.332l1.608-1.606L8.997 1l-1.67 1.668c-.019-.008-.034-.019-.053-.027a2.2 2.2 0 0 0-.796-.134 2.3 2.3 0 0 0-.798.134 1.6 1.6 0 0 0-.602.388 1.7 1.7 0 0 0-.379.614q-.133.36-.135.814c-.002.454.045.573.135.814l-.629.65c-.002-.013 0-.025-.008-.039l-.241-.492q-.054-.11-.158-.043a1.3 1.3 0 0 1-.29.153 1.2 1.2 0 0 1-.443.071 1.1 1.1 0 0 1-.383-.065.8.8 0 0 1-.303-.208 1 1 0 0 1-.202-.361 1.6 1.6 0 0 1-.074-.524 1.6 1.6 0 0 1 .065-.489 1 1 0 0 1 .176-.339.7.7 0 0 1 .254-.199.7.7 0 0 1 .303-.066q.279 0 .438.131a.9.9 0 0 1 .252.361q.037.11.147.066l.585-.197q.098-.038.065-.131a1.5 1.5 0 0 0-.17-.39 1.3 1.3 0 0 0-.293-.333 1.4 1.4 0 0 0-.426-.232 1.7 1.7 0 0 0-.576-.087q-.34 0-.661.114a1.6 1.6 0 0 0-.572.355q-.249.24-.402.607C1 3.951 1 4.118 1 4.457s.048.636.144.882.226.448.388.606a1.5 1.5 0 0 0 .564.35 2 2 0 0 0 .675.112 2.5 2.5 0 0 0 .454-.038 2 2 0 0 0 .358-.095 1.5 1.5 0 0 0 .254-.119L1.309 8.679l.706.705L5.32 6.083a1.7 1.7 0 0 0 .36.19m1.684-2.232a1.7 1.7 0 0 1 .054.415q0 .546-.254.83c-.254.284-.399.284-.687.284a.9.9 0 0 1-.498-.147L7.363 4.04zm-1.578-.428q.255-.292.692-.292c.061 0 .108.022.164.031L5.532 4.46q0-.555.254-.847m3.499 2.08q-.155 0-.293.039c-.138.039-.176.068-.251.124a.9.9 0 0 0-.202.218 1.1 1.1 0 0 0-.138.326q-.02.072.053.091l.392.116q.076.023.095-.057a.5.5 0 0 1 .101-.218.24.24 0 0 1 .192-.079q.117 0 .167.077a.36.36 0 0 1 .049.194.6.6 0 0 1-.085.315 2 2 0 0 1-.236.303l-.637.685a.13.13 0 0 0-.038.091v.342q0 .076.076.076h1.527q.076 0 .075-.076v-.414q0-.075-.075-.076H9.3v-.015l.305-.312.168-.181a2 2 0 0 0 .164-.223q.076-.12.127-.267a1 1 0 0 0 .051-.317.8.8 0 0 0-.055-.303.7.7 0 0 0-.16-.243.75.75 0 0 0-.26-.16 1 1 0 0 0-.354-.058z"/></svg>