<svg xmlns="http://www.w3.org/2000/svg" fill="#002466" viewBox="0 0 24 24"><path d="M1 12.75v2.5a3.254 3.254 0 0 0 3.25 3.25h9a3.254 3.254 0 0 0 3.25-3.25v-1H23v-1.5zm14 2.5c0 .965-.785 1.75-1.75 1.75h-9c-.965 0-1.75-.785-1.75-1.75v-1H15zM3.375 9.125c.207 0 .375.168.375.375v1.75h1.5V9.5a1.88 1.88 0 0 0-1.875-1.875A.375.375 0 0 1 3 7.25V5.5H1.5v1.75a1.88 1.88 0 0 0 1.875 1.875m4.625 0c.207 0 .375.168.375.375v1.75h1.5V9.5A1.88 1.88 0 0 0 8 7.625a.375.375 0 0 1-.375-.375V5.5h-1.5v1.75A1.88 1.88 0 0 0 8 9.125m4.625 0c.207 0 .375.168.375.375v1.75h1.5V9.5a1.88 1.88 0 0 0-1.875-1.875.375.375 0 0 1-.375-.375V5.5h-1.5v1.75a1.88 1.88 0 0 0 1.875 1.875"/></svg>