<svg xmlns="http://www.w3.org/2000/svg" fill="#002466" viewBox="0 0 24 24"><path d="M8.625 13.982V20h1.5v-6.018A2.12 2.12 0 0 0 11.5 12V9H10v3a.625.625 0 0 1-1.25 0V9h-1.5v3c0 .907.574 1.677 1.375 1.982m5.25.016V20h1.5v-6.002a2.06 2.06 0 0 0 1.375-1.936v-1.375a2.065 2.065 0 0 0-2.063-2.062h-.125a2.064 2.064 0 0 0-2.062 2.063v1.375a2.06 2.06 0 0 0 1.375 1.936zm.125-3.31c0-.31.252-.562.562-.562h.125c.311 0 .563.252.563.563v1.375c0 .31-.252.563-.563.563h-.125a.56.56 0 0 1-.562-.562V10.69zM1 1v22h22V1zm1.5 1.5h19V6h-19zm19 19h-19v-14h19z"/><circle cx="4.75" cy="4.25" r=".75"/><circle cx="7.5" cy="4.25" r=".75"/><path d="M16.75 3.5H20V5h-3.25z"/></svg>