<svg xmlns="http://www.w3.org/2000/svg" fill="#002466" viewBox="0 0 24 24"><path d="M20.16 3.872a6.97 6.97 0 0 0-3.343-1.113C15.513 1.663 13.833 1 12 1s-3.513.663-4.817 1.759A7.06 7.06 0 0 0 3.782 3.91C2.04 5.073 1 7.103 1 9.34v2.91c0 1.654 1.346 3 3 3h.522a3.7 3.7 0 0 0 1.967 3.055A7.22 7.22 0 0 0 4.75 23h1.5a5.73 5.73 0 0 1 1.897-4.257c.023 0 .044.007.067.007a3.7 3.7 0 0 0 .941-.137 3.613 3.613 0 0 0 5.689.001c.305.08.617.136.936.136h.006c.023 0 .044-.006.067-.007A5.73 5.73 0 0 1 17.75 23h1.5a7.22 7.22 0 0 0-1.739-4.695 3.7 3.7 0 0 0 1.967-3.055H20c1.654 0 3-1.346 3-3V9.34c0-2.238-1.04-4.268-2.84-5.468M4.5 8.5v5.25H4a1.5 1.5 0 0 1-1.5-1.5V9.34c0-1.735.79-3.299 2.16-4.212a5.3 5.3 0 0 1 .91-.469A7.44 7.44 0 0 0 4.5 8.5m7.5 10a2.1 2.1 0 0 1-1.45-.6c.129-.105.262-.205.377-.328l1.067-1.141 1.082 1.15c.112.119.243.216.37.319a2.1 2.1 0 0 1-1.446.599zm-.625-5.375a.625.625 0 1 1 1.25 0 .625.625 0 0 1-1.25 0M18 15.036a2.216 2.216 0 0 1-2.214 2.214h-.006a2.23 2.23 0 0 1-1.612-.696l-1.375-1.461a2.13 2.13 0 0 0 1.332-1.968A2.13 2.13 0 0 0 12 11a2.13 2.13 0 0 0-2.125 2.125c0 .887.547 1.647 1.32 1.965l-1.364 1.459a2.22 2.22 0 0 1-1.617.702A2.22 2.22 0 0 1 6 15.036V8.5a6.01 6.01 0 0 1 6-6 6.01 6.01 0 0 1 6 6zm3.5-2.786a1.5 1.5 0 0 1-1.5 1.5h-.5V8.5a7.45 7.45 0 0 0-1.066-3.835 5.6 5.6 0 0 1 .952.493C20.71 6.042 21.5 7.605 21.5 9.34z"/><circle cx="14.75" cy="8.25" r=".75"/><circle cx="9.25" cy="8.25" r=".75"/></svg>