<svg xmlns="http://www.w3.org/2000/svg" viewBox="0 0 24 24"><path fill="#002466" d="m21.708 7.251.174-.174a3.406 3.406 0 0 0 0-4.815 3.404 3.404 0 0 0-4.669-.123c-.028-.034-.048-.072-.077-.105a3.07 3.07 0 0 0-2.127-1.027C13.26.903 11.865 2.048 11.75 3.708l-.004.644a3 3 0 0 0-.619-.1C9.45 4.158 7.988 5.44 7.868 7.167l-.003 1.358a3 3 0 0 0-.835-.179c-1.603-.101-2.986 1.072-3.219 2.675l-.819.818A6.54 6.54 0 0 0 7.62 23c1.748 0 3.392-.68 4.627-1.915l4.602-4.598a3.065 3.065 0 0 0 2.422-3.166 3 3 0 0 0-.084-.537l.824-.044c.822-.044 1.577-.405 2.126-1.018s.826-1.402.778-2.224a3.04 3.04 0 0 0-1.209-2.247zm-3.585-3.93c.745-.743 1.956-.742 2.699 0s.744 1.953 0 2.696l-.613.612.007.007-.006-.006-.006.006a3 3 0 0 0-.518-.027l-1.774.097.003-2.443a3 3 0 0 0-.043-.689l.253-.252zm-4.875.443c.065-.929.916-1.303 1.675-1.262a1.58 1.58 0 0 1 1.094.528c.282.316.424.723.398 1.188l-.004 2.569-2.403.131a3.05 3.05 0 0 0-.754-1.64l-.007-1.515zM9.366 7.22a1.588 1.588 0 0 1 2.768-.945c.282.316.424.723.398 1.208l.075 3.029-2.785.066a3 3 0 0 0-.46-.915l.004-2.442zm-4.097 4.093a1.593 1.593 0 0 1 1.583-1.475l.091.002c.423.024.812.212 1.094.528s.424.723.398 1.198l.049 3.879-1.384.068c-.478.023-.943-.147-1.293-.481s-.542-.785-.542-1.269zm-2.693 5.148a4.98 4.98 0 0 1 1.191-3.215l-.001.514a3.22 3.22 0 0 0 1.006 2.357 3.22 3.22 0 0 0 2.122.896l-3.065 2.739a4.98 4.98 0 0 1-1.252-3.29zm8.611 3.564a5.014 5.014 0 0 1-6.213.713l4.284-3.829 5.307-.259zm6.192-5.483a1.56 1.56 0 0 1-1.078.523l-6.318.308-.043-3.299 6.174-.146a1.58 1.58 0 0 1 1.661 1.479 1.56 1.56 0 0 1-.396 1.136zm3.642-3.82a1.56 1.56 0 0 1-1.088.521l-1.571.083c-.039-.039-.07-.084-.112-.121a3.05 3.05 0 0 0-2.195-.774l-1.947.046-.052-2.059 5.711-.312c.843-.039 1.604.618 1.654 1.479a1.56 1.56 0 0 1-.399 1.139z"/></svg>