<svg xmlns="http://www.w3.org/2000/svg" fill="#002466" viewBox="0 0 24 24"><path d="M14.297 11.531A2.22 2.22 0 0 0 13 13.537c0 1.214.987 2.201 2.201 2.201h5.341A2.46 2.46 0 0 0 23 13.28c0-1.247-.93-2.28-2.143-2.441a3.43 3.43 0 0 0-3.173-2.095 3.44 3.44 0 0 0-3.388 2.787zm5.282.211.139.59.824-.016a.96.96 0 1 1 0 1.921h-5.341a.7.7 0 0 1-.701-.701c0-.345.256-.643.595-.693l.619-.091.021-.625a1.943 1.943 0 0 1 1.949-1.884c.909 0 1.688.616 1.895 1.499M16.611 7.4l1.06-1.06A8.3 8.3 0 0 0 12 4.116c-4.618 0-8.375 3.757-8.375 8.375h1.5A6.883 6.883 0 0 1 12 5.616 6.8 6.8 0 0 1 16.611 7.4M12 2.991c2.401 0 4.716.929 6.465 2.555l1.059-1.059A11.03 11.03 0 0 0 12 1.491c-6.065 0-11 4.935-11 11h1.5c0-5.238 4.262-9.5 9.5-9.5m0 5.25a4.25 4.25 0 0 1 2.755 1.015l.982-1.134A5.75 5.75 0 0 0 12 6.741a5.76 5.76 0 0 0-5.75 5.75h1.5A4.255 4.255 0 0 1 12 8.241M1.912 20.677v-2.723q0-.104-.105-.104h-.702q-.105 0-.105.104v3.404q0 .105.105.105h2.022q.104 0 .104-.105v-.576q0-.104-.104-.104H1.912zm4.801-1.231H5.367q-.105 0-.104.105v.513a.09.09 0 0 0 .104.104h.535q0 .273-.186.414c-.186.141-.293.141-.505.141q-.393 0-.623-.273c-.23-.273-.23-.447-.23-.796s.076-.622.23-.809.361-.28.623-.28q.471 0 .711.362.064.094.157.031l.508-.33q.083-.052.036-.141-.429-.702-1.413-.702-.414 0-.743.128c-.329.128-.407.209-.561.372a1.65 1.65 0 0 0-.353.589 2.3 2.3 0 0 0-.123.78q0 .435.123.78c.123.345.199.427.353.589a1.5 1.5 0 0 0 .561.372q.33.128.743.128a2 2 0 0 0 .675-.107q.298-.107.507-.309c.209-.202.247-.298.323-.49a1.8 1.8 0 0 0 .113-.649v-.209l-.011-.215q0-.1-.105-.1zm3.244.393a.9.9 0 0 0-.246-.175.9.9 0 0 0-.286-.081v-.011a1 1 0 0 0 .226-.086q.11-.06.193-.159a.6.6 0 0 0 .133-.241 1 1 0 0 0 .051-.33q0-.419-.307-.662c-.307-.243-.521-.243-.95-.243H7.294a.09.09 0 0 0-.104.104v.535a.09.09 0 0 0 .104.104h.236v2.765q0 .105.104.105h1.163q.717 0 1.057-.278a.91.91 0 0 0 .34-.743.85.85 0 0 0-.065-.341.8.8 0 0 0-.173-.261zm-1.542-1.262h.294q.23 0 .332.086c.102.086.102.144.102.259s-.036.202-.107.27-.183.102-.332.102h-.289zm.773 2.05q-.123.102-.385.102h-.388v-.785h.388q.25 0 .38.105c.13.105.128.167.128.293a.35.35 0 0 1-.123.285m1.316-2.778q-.105 0-.105.104v.55q0 .105.105.104h.843v2.749q0 .105.105.105h.702q.105 0 .105-.105v-2.749h.843q.105 0 .105-.104v-.55q0-.104-.105-.104h-2.597zm6.072.437a1.6 1.6 0 0 0-.576-.372 2.1 2.1 0 0 0-.762-.128 2.2 2.2 0 0 0-.764.128 1.55 1.55 0 0 0-.576.372 1.65 1.65 0 0 0-.363.589q-.13.345-.128.78a2.4 2.4 0 0 0 .096.691q.097.314.283.55a1.6 1.6 0 0 0 .45.388q.265.152.6.209a2.4 2.4 0 0 0 .082.369.8.8 0 0 0 .189.325q.134.144.369.233c.235.089.364.089.623.089l.356-.015q.1-.01.1-.11v-.56q0-.115-.116-.1l-.107.008-.128.002q-.231 0-.341-.052c-.11-.052-.121-.103-.141-.205q.633-.136.989-.607c.356-.471.357-.719.357-1.215q0-.435-.126-.78a1.6 1.6 0 0 0-.363-.589zm-.681 2.165q-.243.273-.657.273c-.414 0-.5-.091-.662-.273s-.244-.447-.244-.796.082-.622.244-.809a.83.83 0 0 1 .662-.28q.414 0 .657.28c.243.28.244.456.244.809s-.082.615-.244.796m2.951.226v-2.084h.351q.105 0 .105-.104v-.535q0-.104-.105-.104h-1.612q-.105 0-.105.104v.535q0 .104.105.104h.351v2.084h-.367a.09.09 0 0 0-.104.104v.576q0 .105.104.105h1.644q.105 0 .105-.105v-.576q0-.104-.105-.104zm3.058-2.749q-.042-.079-.12-.079h-.911a.12.12 0 0 0-.12.079q-.43.91-.686 1.754c-.256.844-.306 1.117-.403 1.665a.08.08 0 0 0 .094.115h.691q.1 0 .116-.094l.057-.338.063-.322h1.266l.06.322.055.338q.016.094.115.094h.718q.116 0 .099-.11a12 12 0 0 0-.398-1.671 13 13 0 0 0-.697-1.754zm-1.068 2.094.207-.707a7 7 0 0 1 .258-.655h.021l.261.655.21.707z"/></svg>