<svg xmlns="http://www.w3.org/2000/svg" viewBox="0 0 24 24"><path fill="#002466" d="M13.983 5.29a2.67 2.67 0 0 1 2.16.113l1.019.516.678-1.338-1.019-.516a4.18 4.18 0 0 0-3.734-.035 2.45 2.45 0 0 1 2.121-1.239h.292v-1.5h-.292a3.92 3.92 0 0 0-2.458.88V1h-1.5v1.172a3.92 3.92 0 0 0-2.458-.88H8.5v1.5h.292a2.45 2.45 0 0 1 2.13 1.254 4.19 4.19 0 0 0-3.744.023l-1.015.511.674 1.34 1.015-.511a2.7 2.7 0 0 1 2.149-.115C7.113 6.157 5 8.835 5 12v4a7.01 7.01 0 0 0 7 7 7.01 7.01 0 0 0 7-7v-4c0-3.171-2.121-5.852-5.017-6.71m3.335 5.331-2.193 2.193-2.064-2.064 2.727-2.727a5.5 5.5 0 0 1 1.53 2.599zm-3.254 3.254L12 15.939l-2.064-2.064L12 11.811zM12 6.5a5.46 5.46 0 0 1 2.555.634L12 9.689 9.445 7.134A5.46 5.46 0 0 1 12 6.5M8.212 8.023l2.727 2.727-2.064 2.064-2.193-2.193a5.5 5.5 0 0 1 1.53-2.599zM6.5 12.561l1.314 1.314L6.5 15.189zm.131 4.619 2.244-2.244L10.939 17l-2.855 2.855a5.5 5.5 0 0 1-1.453-2.676zM12 21.5a5.46 5.46 0 0 1-2.716-.724L12 18.061l2.716 2.716A5.46 5.46 0 0 1 12 21.5m3.916-1.645L13.061 17l2.064-2.064 2.244 2.244a5.5 5.5 0 0 1-1.453 2.676zm1.584-4.666-1.314-1.314 1.314-1.314z"/></svg>