<svg xmlns="http://www.w3.org/2000/svg" fill="#002466" viewBox="0 0 24 24"><path d="m22.902 15.944-.986-5.39a2.25 2.25 0 0 0-.971-1.429 2.24 2.24 0 0 0-1.695-.326c-1.036.21-1.796 1.133-1.805 2.239l.046.865-3.324-3.342a2.36 2.36 0 0 0-1.844-.692 2.37 2.37 0 0 0-1.733.944c-.702.931-.569 2.298.308 3.179l1.711 1.72-1.55 2.141a3.05 3.05 0 0 0 .595 4.207l2.945 2.301a3 3 0 0 0 1.856.639c.775 0 1.547-.296 2.131-.877l3.485-3.466a3 3 0 0 0 .831-2.712zm-1.89 1.649-3.485 3.466a1.52 1.52 0 0 1-2.005.12l-2.945-2.301a1.556 1.556 0 0 1-.304-2.146l1.76-2.432a1.07 1.07 0 0 0-.106-1.39l-1.967-1.977c-.305-.307-.453-.847-.172-1.219a.86.86 0 0 1 .639-.35l.061-.002a.87.87 0 0 1 .616.255l4.11 4.133a1.07 1.07 0 0 0 1.516.004c.203-.201.314-.463.318-.8l-.104-1.948a.76.76 0 0 1 .606-.738c.194-.04.4-.001.569.109a.75.75 0 0 1 .324.464l.985 5.385c.1.496-.056 1.006-.417 1.366zM6.424 11.389l4.829-5.496a.85.85 0 0 0 .039-1.084.85.85 0 0 0-1.057-.253L5.674 6.763l2.506-3.42a.85.85 0 0 0-.021-1.029.85.85 0 0 0-.991-.27L3.784 3.383l.52-1.189A.856.856 0 0 0 3.516 1H1.039v1.5h1.494l-.747 1.707a.857.857 0 0 0 1.099 1.145L5.65 4.258 2.936 7.963a.856.856 0 0 0 .037 1.054.86.86 0 0 0 1.031.221L8.028 7.29l-4.507 5.129a.855.855 0 0 0 .642 1.423c.106 0 .215-.02.319-.062l4.584-1.834-.557-1.393-2.087.835z"/></svg>