<svg xmlns="http://www.w3.org/2000/svg" viewBox="0 0 24 24"><path fill="#002466" d="M22.174 11.68c.315-.396.511-.89.511-1.434v-.181a2.315 2.315 0 0 0-2.309-2.315h-2.974c-.49 0-.942.156-1.316.417V7.126A3.97 3.97 0 0 0 16.709 5a4 4 0 0 0-3.99-4h-1.746a4 4 0 0 0-3.99 4c0 .783.234 1.509.623 2.126v3.101A4.2 4.2 0 0 0 5.239 9.5c-2.252 0-4.082 1.775-4.214 4H1V23h22zm-5.585-1.615c0-.449.364-.815.812-.815h2.974c.448 0 .813.366.813.815v.181a.815.815 0 0 1-.813.814h-2.974a.814.814 0 0 1-.812-.814zM10.974 2.5h1.746a2.5 2.5 0 1 1 0 5h-1.746a2.5 2.5 0 1 1 0-5M5.239 11a2.74 2.74 0 0 1 2.718 2.5H2.521A2.74 2.74 0 0 1 5.239 11m2.743 10.5H2.496V15h5.486zm1.496 0v-8h-.025a4.2 4.2 0 0 0-.361-1.5h.012V8.512c.56.301 1.191.488 1.87.488h1.746c.679 0 1.31-.187 1.87-.488V21.5zm6.89 0 .443-8.94h3.926l.653 8.94z"/></svg>