<svg xmlns="http://www.w3.org/2000/svg" viewBox="0 0 24 24"><path fill="#002466" d="M17.031 10.375c-1.032-.595-2.166-1.001-3.075-1.013a2 2 0 0 0-.641-1.08c.449-.791.667-1.982.667-3.178C13.983 3.061 13.369 1 12 1s-1.982 2.061-1.982 4.104c0 1.196.217 2.387.667 3.178-.318.279-.55.652-.641 1.08-.908.012-2.042.418-3.074 1.012-1.771 1.021-3.254 2.58-2.569 3.765.28.484.797.686 1.431.686.915 0 2.074-.422 3.121-1.025.95-.548 1.804-1.252 2.298-1.968v9.67H10V23h4v-1.497h-1.25v-9.669c.494.717 1.348 1.421 2.299 1.969 1.047.603 2.205 1.024 3.12 1.024.634 0 1.15-.202 1.431-.687.684-1.183-.797-2.743-2.568-3.764zM12 2.617c.21.348.482 1.217.482 2.486S12.21 7.242 12 7.589c-.21-.347-.482-1.216-.482-2.486s.272-2.139.482-2.486m-3.798 9.888c-1.101.634-1.98.847-2.398.826.196-.355.814-1.025 1.916-1.66s1.963-.839 2.397-.826c-.196.355-.814 1.025-1.915 1.66M11.5 9.773a.5.5 0 1 1 1 0 .5.5 0 1 1-1 0m4.299 2.732c-1.102-.635-1.72-1.305-1.916-1.66h.023c.417 0 1.294.204 2.375.827 1.101.635 1.719 1.304 1.915 1.66-.404.015-1.296-.192-2.397-.826z"/></svg>