<svg xmlns="http://www.w3.org/2000/svg" viewBox="0 0 24 24"><path fill="#002466" d="m20.125 1-12.5 1.977v15.065A2.6 2.6 0 0 0 6.5 17.78a2.62 2.62 0 0 0-2.625 2.61 2.62 2.62 0 0 0 5.237.125h.013V7.481l9.5-1.503v9.081a2.6 2.6 0 0 0-1.125-.262c-1.447 0-2.625 1.171-2.625 2.61s1.178 2.61 2.625 2.61 2.625-1.171 2.625-2.61c0-.043-.011-.082-.013-.124h.013zM6.5 21.509c-.62 0-1.125-.502-1.125-1.118s.505-1.118 1.125-1.118 1.125.502 1.125 1.118-.505 1.118-1.125 1.118M9.125 5.971V4.25l9.5-1.502v1.721l-9.5 1.503zM17.5 18.526c-.62 0-1.125-.502-1.125-1.118s.505-1.118 1.125-1.118 1.125.502 1.125 1.118-.505 1.118-1.125 1.118"/></svg>