<svg xmlns="http://www.w3.org/2000/svg" fill="#002466" viewBox="0 0 24 24"><path d="M10.748 17.249v-.782h5.074a3.906 3.906 0 0 0 3.747-2.829l1.986.825 1.422-3.44L2.438 2.501 1.015 5.942l11.389 4.725H10.68a3.24 3.24 0 0 0-2.464 1.134l-4.663 5.447H1v4.25h22v-4.25zM2.972 5.131l.277-.669 17.771 7.373-.277.67-2.523-1.074v1.136c0 1.324-1.076 2.401-2.399 2.401s-2.398-1.077-2.398-2.401a2.4 2.4 0 0 1 .694-1.691l.785-.793zm6.38 7.648a1.74 1.74 0 0 1 1.327-.611h1.272l-.025.398a3.86 3.86 0 0 0 .849 2.401H9.25v2.282H5.525zm12.15 7.22H2.498v-1.25h19.005v1.25zm-5.626-6.518a.9.9 0 0 0 0-1.8.9.9 0 0 0 0 1.8"/></svg>