<svg xmlns="http://www.w3.org/2000/svg" viewBox="0 0 24 24"><path fill="#002466" d="M19.752 5.548h-5.308l-3.098-2.91a3.24 3.24 0 0 0-2.223-.88H4.248a3.23 3.23 0 0 0-2.307.961 3.22 3.22 0 0 0-.94 2.312l.042 5.335h.02v8.629a3.25 3.25 0 0 0 3.247 3.248h15.43a3.25 3.25 0 0 0 3.248-3.242L23 8.795a3.25 3.25 0 0 0-3.248-3.248zM3.006 3.774a1.74 1.74 0 0 1 1.242-.518h4.875c.445 0 .873.169 1.197.474l1.935 1.818H2.503L2.5 5.019a1.74 1.74 0 0 1 .506-1.245m18.482 15.225a1.75 1.75 0 0 1-1.75 1.745H4.31a1.75 1.75 0 0 1-1.749-1.749V7.047h17.192A1.75 1.75 0 0 1 21.5 8.796L21.487 19zm-9.613-4.547c1.572 0 2.851-1.278 2.851-2.85s-1.278-2.851-2.851-2.851-2.851 1.279-2.851 2.851 1.278 2.85 2.851 2.85m0-4.201a1.353 1.353 0 1 1-1.352 1.352c0-.745.606-1.352 1.352-1.352m2.241 4.944H9.635a3.134 3.134 0 0 0-3.13 3.13v.841h1.498v-.841c0-.899.732-1.631 1.632-1.631h4.481c.9 0 1.632.732 1.632 1.631v.841h1.499v-.841a3.134 3.134 0 0 0-3.131-3.13"/></svg>