<svg xmlns="http://www.w3.org/2000/svg" fill="#002466" viewBox="0 0 24 24"><path d="M16.167 4.25v-1H9.25v-1H1v17.5h6.75v1h6.917v1H23V4.25zm5.333 16h-5.333v-1.5h-1.5v.5H9.25v-2h-1.5v1H2.5V3.75h5.25v2.5h1.5v-1.5h5.417v2.5h1.5v-1.5H21.5zm-6.116-8.356a2.24 2.24 0 0 0 .522 1.557l2.033 2.482 2.055-2.509c.325-.397.505-.879.506-1.364a2.54 2.54 0 0 0-.776-1.837 2.5 2.5 0 0 0-1.858-.723c-1.278.036-2.367 1.061-2.479 2.353l-.003.04zm1.498.071c.045-.517.505-.95 1.026-.964.289.001.563.098.771.3s.321.472.321.765a.67.67 0 0 1-.167.411l-.894 1.091-.872-1.065a.76.76 0 0 1-.186-.525zM7.718 8.159a2.14 2.14 0 0 0-.654-1.548 2.1 2.1 0 0 0-1.566-.609A2.18 2.18 0 0 0 3.41 7.969l-.004.056a1.9 1.9 0 0 0 .444 1.321l1.71 2.088 1.728-2.108c.276-.338.429-.75.431-1.166zm-1.592.217-.566.691-.55-.672a.42.42 0 0 1-.106-.29v-.007a.67.67 0 0 1 .637-.598c.179.013.351.062.479.186s.199.293.199.475a.36.36 0 0 1-.092.215zM14.5 15.75v-.25c0-.965-.785-1.75-1.75-1.75h-2a.25.25 0 0 1-.25-.25c0-.965-.785-1.75-1.75-1.75h-3v1.5h3a.25.25 0 0 1 .25.25c0 .965.785 1.75 1.75 1.75h2a.25.25 0 0 1 .25.25v.25c0 .965.785 1.75 1.75 1.75h2.75V16h-2.75a.25.25 0 0 1-.25-.25"/></svg>