<svg xmlns="http://www.w3.org/2000/svg" fill="#002466" viewBox="0 0 24 24"><path d="M8.23 18.488c-1.243 0-2.25 1.01-2.25 2.256S6.988 23 8.23 23s2.25-1.01 2.25-2.256-1.007-2.256-2.25-2.256m0 3.008a.752.752 0 1 1 0-1.504.752.752 0 1 1 0 1.504m9.75-3.008c-1.243 0-2.25 1.01-2.25 2.256S16.738 23 17.98 23s2.25-1.01 2.25-2.256-1.007-2.256-2.25-2.256m0 3.008a.752.752 0 1 1 0-1.504.752.752 0 1 1 0 1.504m4.505-13.815C22.207 3.93 19.068 1 15.305 1h-1.706v6.681H5.294a3.86 3.86 0 0 0-3.782-3.146v1.504a2.357 2.357 0 0 1 2.348 2.3v.206c0 5.076 4.105 9.192 9.168 9.192h.291c5.063 0 9.168-4.115 9.168-9.192v-.797zm-7.386-5.177h.206c2.94 0 5.389 2.263 5.665 5.177h-5.871zm-1.78 13.729h-.291a7.69 7.69 0 0 1-7.642-7.048H20.96c-.326 3.941-3.628 7.048-7.642 7.048z"/></svg>