<svg xmlns="http://www.w3.org/2000/svg" fill="#002466" viewBox="0 0 24 24"><path d="M3.749 6.774c0-2.352 1.905-4.267 4.246-4.267s4.246 1.915 4.246 4.267h1.5C13.741 3.591 11.163 1 7.995 1S2.249 3.591 2.249 6.774s2.578 5.774 5.746 5.774v-1.507c-2.341 0-4.246-1.915-4.246-4.267m17.943 9.138-.999-5.396c-.123-.591-.468-1.098-.973-1.432s-1.107-.446-1.693-.322c-1.033.215-1.788 1.141-1.794 2.25l.048.86-3.318-3.334c-.893-.898-2.453-.896-3.344 0a2.36 2.36 0 0 0-.692 1.68 2.36 2.36 0 0 0 .692 1.679l1.798 1.808-1.563 2.182a3.027 3.027 0 0 0 .596 4.153l2.976 2.325a3 3 0 0 0 1.847.636c.775 0 1.546-.298 2.128-.883l3.467-3.484a3.02 3.02 0 0 0 .823-2.721zm-1.885 1.655-3.466 3.484a1.503 1.503 0 0 1-1.994.124l-2.976-2.325a1.52 1.52 0 0 1-.299-2.083l1.776-2.48a1.09 1.09 0 0 0-.113-1.391L10.68 10.83a.86.86 0 0 1-.252-.613.867.867 0 0 1 .864-.868c.232 0 .448.09.611.254l4.109 4.128a1.08 1.08 0 0 0 .754.314 1.06 1.06 0 0 0 .758-.313c.203-.201.315-.47.317-.805l-.108-1.952a.76.76 0 0 1 .6-.738.75.75 0 0 1 .566.107.74.74 0 0 1 .323.463l.998 5.39c.1.498-.054 1.009-.412 1.369zM7.995 5.387c.761 0 1.379.622 1.379 1.387h1.5A2.89 2.89 0 0 0 7.995 3.88a2.89 2.89 0 0 0-2.879 2.894 2.89 2.89 0 0 0 2.879 2.894V8.161c-.761 0-1.379-.622-1.379-1.387s.619-1.387 1.379-1.387"/></svg>