<svg xmlns="http://www.w3.org/2000/svg" fill="#002466" viewBox="0 0 24 24"><path d="M19 17.118v-6.031l-.857-1.836h-4.175l-.858 1.836v6.032L14 18.75h4.11zm-4.077-6.368h2.265l.313.669v3.831H14.61V13h2.277v-1.5H14.61v-.081zm-.032 6.5-.273-.5h2.875l-.273.5zm-8.667-5.285a2.04 2.04 0 0 0-.271 1.015v3.557c0 1.22.993 2.213 2.214 2.213h1.756a2.216 2.216 0 0 0 2.214-2.213V12.98c0-.353-.093-.704-.269-1.013l-.06-.088a.44.44 0 0 1 0-.534l.059-.087c.177-.309.27-.66.27-1.013v-.619a3.06 3.06 0 0 0-1.464-2.622V5.25H7.417v1.753a3.06 3.06 0 0 0-1.464 2.622v.619c0 .356.094.708.271 1.016l.057.084a.44.44 0 0 1 0 .536zm1.229 1.015a.5.5 0 0 1 .056-.238 1.94 1.94 0 0 0-.001-2.26.54.54 0 0 1-.055-.238v-.619a1.57 1.57 0 0 1 .992-1.465l.472-.188V6.75h.256v1.221l.472.188a1.57 1.57 0 0 1 .992 1.465v.619a.55.55 0 0 1-.056.238 1.94 1.94 0 0 0 0 2.258.6.6 0 0 1 .056.239v3.557c0 .394-.32.713-.714.713H8.167a.714.714 0 0 1-.714-.713zM12 1C7.931 1 4.396 3.232 2.5 6.529V4.25H1v4.5h4.5v-1.5H3.805C5.446 4.416 8.495 2.5 12 2.5c5.238 0 9.5 4.262 9.5 9.5s-4.262 9.5-9.5 9.5-9.5-4.262-9.5-9.5a8.5 8.5 0 0 1 .111-1.284H1.096A10 10 0 0 0 1 12c0 6.065 4.935 11 11 11s11-4.935 11-11S18.065 1 12 1"/></svg>