<svg xmlns="http://www.w3.org/2000/svg" fill="#002466" viewBox="0 0 24 24"><path d="M11.312 7.698a.75.75 0 0 0-1.374.601.75.75 0 1 0 1.374-.601m2.75 2a.75.75 0 1 0-1.375.601.75.75 0 0 0 1.375-.601m-2.737 2.363a.75.75 0 0 0 .601 1.374.75.75 0 1 0-.601-1.374m7.205-8.842C18.439 3.129 16.262 1 12 1S5.561 3.129 5.47 3.219l-.334.334L12 23l6.864-19.447zM12 2.5c2.74 0 4.433.987 5.119 1.492l-.402 1.14A11.05 11.05 0 0 0 11.875 4c-1.968 0-3.553.508-4.637 1.004l-.357-1.012C7.569 3.486 9.262 2.5 12 2.5M7.739 6.423a9.6 9.6 0 0 1 4.136-.923c1.797 0 3.278.518 4.339 1.057L12 18.494z"/></svg>