<svg xmlns="http://www.w3.org/2000/svg" viewBox="0 0 24 24"><path fill="#002466" d="M22.245 9.39c-.064-.005-1.348-.098-2.995.189-.22-2.407-.393-2.493-.71-3.603-1.101.403-1.388.336-3.571 1.698-1.484-2.644-2.158-3.032-2.988-3.884-.828.849-1.495 1.233-2.975 3.866-2.175-1.35-2.443-1.278-3.545-1.679-.317 1.107-.49 1.2-.71 3.603-2.439-.347-2.59-.186-3.751-.129.65 14.238 21.361 14.21 22 0zM17.54 7.946c.1.496.208 1.189.238 1.979a14.5 14.5 0 0 0-1.784.727 14 14 0 0 0-.42-1.582 12.4 12.4 0 0 1 1.965-1.125zm-5.559-2.023c.835.886 2.261 3.173 2.512 4.854.631 3.078-.932 7.782-2.505 7.718-2.276-.673-2.886-4.73-2.517-7.739.255-1.67 1.672-3.95 2.507-4.834zM6.46 7.946c.505.23 1.21.594 1.938 1.104a13 13 0 0 0-.425 1.583 14 14 0 0 0-1.749-.71 12.6 12.6 0 0 1 .238-1.978zm-.864 8.334c-1.892-1.577-2.636-4.114-2.904-5.405 1.792.054 3.636.45 5.151 1.426.06 2.15.46 4.419 1.702 6.22-1.126-.324-2.537-1.064-3.95-2.242zm12.807 0c-1.423 1.185-2.84 1.926-3.969 2.248 1.246-1.782 1.619-4.066 1.685-6.2 1.374-.965 3.73-1.452 5.19-1.452-.268 1.291-1.012 3.829-2.904 5.405z"/></svg>