<svg xmlns="http://www.w3.org/2000/svg" viewBox="0 0 24 24"><path fill="#002466" d="M19.581 11.998c.593-4.736-1.971-9.123-2.083-9.311l-.372-.625-.636.352c-.034.019-.701.394-1.614 1.083-.683-1.175-1.332-1.917-1.365-1.955L13.028 1l-.558.464c-.051.043-1.007.853-1.986 2.178a11 11 0 0 0-1.236-.844l-.636-.35-.371.623c-.027.046-.524.892-.922 2.14l-.773-.484-.636-.351L5.539 5c-.082.138-1.939 3.318-1.881 6.997H1v.75C1 18.401 5.598 23 11.25 23h1.5C18.402 23 23 18.401 23 12.748v-.75zM12.867 3.15c.24.331.543.786.844 1.328q-.653.582-1.214 1.193a10 10 0 0 0-.886-1.025c.455-.629.913-1.147 1.256-1.496m.034 4.328a15.2 15.2 0 0 1 2.268-2.304 17 17 0 0 1 1.396-1.039c.665 1.367 1.982 4.597 1.507 7.863H12.58l.036-.01a9.6 9.6 0 0 0-1.033-2.399c.348-.718.774-1.428 1.318-2.11zM9.18 4.539c.63.449 1.584 1.249 2.317 2.313q-.496.659-.891 1.345a14.7 14.7 0 0 0-2.005-2.02 10.6 10.6 0 0 1 .579-1.638M6.474 6.454c1.185.806 3.635 2.767 4.559 5.543h-5.87c-.042-2.319.806-4.482 1.31-5.543zM12.75 21.5h-1.5c-4.572 0-8.337-3.526-8.718-8.002h18.936c-.381 4.476-4.146 8.002-8.718 8.002"/></svg>