<svg xmlns="http://www.w3.org/2000/svg" viewBox="0 0 24 24"><path fill="#002466" d="M15.693 9.109h-1.93l.356-2.057a1.88 1.88 0 0 0-1.352-2.142 1.865 1.865 0 0 0-2.099.876L8.422 9.72H7.155a.994.994 0 0 0-.99.995v4.639c0 .547.444.993.99.993h7.979a1.96 1.96 0 0 0 1.937-1.64l.559-3.296a1.97 1.97 0 0 0-1.936-2.302zM8.11 14.846h-.45V11.22h.452zm7.486-.393a.47.47 0 0 1-.463.392H9.606v-4.184l2.36-4.13a.375.375 0 0 1 .416-.174.37.37 0 0 1 .266.43l-.41 2.37a1.24 1.24 0 0 0 1.217 1.45h2.239a.46.46 0 0 1 .358.166.46.46 0 0 1 .104.382zm3.859-12.577H4.547A3.555 3.555 0 0 0 1 5.435v10.33a3.556 3.556 0 0 0 3.546 3.557h4.645l2.802 2.802 2.816-2.802h4.646A3.555 3.555 0 0 0 23 15.764V5.434a3.556 3.556 0 0 0-3.545-3.557m2.05 13.888c0 1.133-.92 2.056-2.05 2.056h-5.262l-2.199 2.187-2.186-2.186H4.547a2.056 2.056 0 0 1-2.05-2.057V5.434c0-1.134.92-2.057 2.05-2.057h14.909c1.13 0 2.05.923 2.05 2.057z"/></svg>