<svg xmlns="http://www.w3.org/2000/svg" fill="#002466" viewBox="0 0 24 24"><path d="M11.421 5.19H8.126V2.5l-1.5.617V5.19H3.332v1.5h8.089zm.095 2.975h-8.49l-1.889 9.981c-.18.954.072 1.93.691 2.678A3.24 3.24 0 0 0 4.332 22h6.088c.984 0 1.904-.438 2.524-1.202a3.24 3.24 0 0 0 .656-2.716zm.264 11.688a1.74 1.74 0 0 1-1.359.647H4.332c-.523 0-1.015-.231-1.348-.633s-.47-.928-.372-1.442l1.656-8.76h6.03l1.833 8.726a1.74 1.74 0 0 1-.353 1.462zm10.19-2.404-1.741 1.741v-5.94h-1.5v5.94l-1.741-1.741-1.061 1.061 3.552 3.552 3.552-3.552zM5.126 18h1.5v1.5h-1.5zm3 0h1.5v1.5h-1.5z"/><path d="M3.626 16.5h1.5V18h-1.5zm6 0h1.5V18h-1.5zm-3 0h1.5V18h-1.5zm-1.5-1.5h1.5v1.5h-1.5zm3 0h1.5v1.5h-1.5z"/></svg>