<svg xmlns="http://www.w3.org/2000/svg" fill="#002466" viewBox="0 0 24 24"><path d="m19.122 7.603-3.614-.452v4.1H13.26V9.446h-1.498v1.804h-1.498v-2.5H8.766v2.5H7.267V9.679H5.769v1.571H4.022L2.247 8.584 1 9.416 2.721 12 1 14.584l1.247.832 1.775-2.666h1.747v1.571h1.498V12.75h1.498v2.5h1.498v-2.5h1.498v1.804h1.498V12.75h2.248v4.1l3.614-.452A4.44 4.44 0 0 0 23 12a4.44 4.44 0 0 0-3.878-4.397m-.185 7.307-1.93.241V8.85l1.93.241c1.462.183 2.565 1.434 2.565 2.909s-1.102 2.726-2.565 2.909z"/><circle cx="19.004" cy="11.25" r=".75"/></svg>