<svg xmlns="http://www.w3.org/2000/svg" fill="#002466" viewBox="0 0 24 24"><path d="m22.921 6.241-.342-1.458-1.654.387 1.516-3.61-1.382-.58-1.936 4.611L2.558 9.464l.342 1.458 2.653-.62C2.917 11.13 1 13.592 1 16.492c0 3.577 2.916 6.488 6.5 6.488a6.51 6.51 0 0 0 5.965-3.917l-1.156 2.754 1.383.579L20.21 6.875l2.712-.634zM7.5 21.483c-2.757 0-5-2.239-5-4.991a5.001 5.001 0 0 1 10 0 5 5 0 0 1-5 4.991m6.01-2.526a6.4 6.4 0 0 0 .49-2.465c0-3.577-2.916-6.488-6.5-6.488a6.5 6.5 0 0 0-1.1.1l12.006-2.807zM7.5 12.873c-1.999 0-3.625 1.623-3.625 3.618S5.501 20.11 7.5 20.11s3.625-1.623 3.625-3.618-1.626-3.618-3.625-3.618zm-.139 1.511a2.114 2.114 0 0 1-1.972 1.968 2.114 2.114 0 0 1 1.972-1.968m.139 4.228c-.673 0-1.267-.32-1.656-.809a3.61 3.61 0 0 0 2.971-2.966c.49.389.81.981.81 1.653 0 1.17-.953 2.121-2.125 2.121z"/></svg>