<svg xmlns="http://www.w3.org/2000/svg" fill="#002466" viewBox="0 0 24 24"><path d="M18 11.25h-5.25V5h-1.5v7.75H18zM12 1v1.5c5.238 0 9.5 4.262 9.5 9.5s-4.262 9.5-9.5 9.5c-3.411 0-6.521-1.842-8.208-4.75H6.5v-1.5H1v5.5h1.5v-3.214A11.01 11.01 0 0 0 12 23c6.065 0 11-4.935 11-11S18.065 1 12 1M9.219 2.914 8.78 1.479a11 11 0 0 0-2.097.889l.727 1.313a9.4 9.4 0 0 1 1.81-.767zM5.517 5.056 4.493 3.959a11 11 0 0 0-2.098 2.674l1.309.732a9.5 9.5 0 0 1 1.813-2.31zm-2.916 8.336A10 10 0 0 1 2.5 12a9.5 9.5 0 0 1 .412-2.781L1.479 8.78A11 11 0 0 0 1 12a11 11 0 0 0 .116 1.608z"/></svg>