<svg xmlns="http://www.w3.org/2000/svg" viewBox="0 0 24 24"><path fill="#002466" d="M19.22 4.616v1.5h1.177L19.16 7.353a4.53 4.53 0 0 0-2.669-.876 4.57 4.57 0 0 0-3.129 1.239l-5.705 5.588a3.06 3.06 0 0 1-2.085.816c-1.694 0-3.072-1.378-3.072-3.072s1.378-3.072 3.072-3.072c.781 0 1.526.294 2.085.815l1.621 1.588 1.049-1.071-1.633-1.601a4.56 4.56 0 0 0-3.122-1.232A4.58 4.58 0 0 0 1 11.049c0 2.252 1.641 4.118 3.788 4.493v1.008H3.493v1.5h1.295v1.334h1.5V18.05h1.296v-1.5H6.288v-.996a4.57 4.57 0 0 0 2.402-1.163l5.707-5.59a3.06 3.06 0 0 1 2.094-.824c1.694 0 3.072 1.378 3.072 3.072s-1.378 3.072-3.072 3.072a3.05 3.05 0 0 1-2.079-.81l-1.637-1.604-1.049 1.071 1.65 1.617a4.56 4.56 0 0 0 3.114 1.225 4.58 4.58 0 0 0 4.572-4.572c0-.982-.318-1.887-.846-2.632L21.5 7.134v1.263H23V4.616z"/></svg>