<svg xmlns="http://www.w3.org/2000/svg" fill="#002466" viewBox="0 0 24 24"><path d="M12 11.361a5 5 0 0 0-3.542 1.46v-.907h-1.5v3.564h3.365v-1.5h-.897A3.52 3.52 0 0 1 12 12.861a3.55 3.55 0 0 1 3.543 3.542h1.5A5.05 5.05 0 0 0 12 11.361m1.744 7.468h.831A3.52 3.52 0 0 1 12 19.946a3.55 3.55 0 0 1-3.542-3.543h-1.5A5.05 5.05 0 0 0 12 21.446a5 5 0 0 0 3.543-1.46v.537h1.5v-3.194h-3.299zm4.393-11.275a7.21 7.21 0 0 0-6.896-5 7.23 7.23 0 0 0-7.217 6.432A4.275 4.275 0 0 0 1 13.054c0 2.246 1.756 4.072 3.965 4.221v-1.5A2.744 2.744 0 0 1 2.5 13.054a2.76 2.76 0 0 1 2.34-2.718l.619-.091.021-.625a5.74 5.74 0 0 1 5.76-5.565 5.72 5.72 0 0 1 5.6 4.43l.138.59 1.152-.02a3.38 3.38 0 0 1 3.37 3.38c0 1.739-1.328 3.157-3.02 3.335v1.5C21 17.085 23 14.999 23 12.434a4.884 4.884 0 0 0-4.863-4.88"/></svg>