<svg xmlns="http://www.w3.org/2000/svg" viewBox="0 0 24 24"><path fill="#002466" d="M19.729 11.086c-1.311-3.16-4.298-3.217-5.723-2.798l-.667.222a4 4 0 0 1-.589.144V8c0-.342-.036-.675-.093-1h2.093A3.254 3.254 0 0 0 18 3.75V1h-2.753A3.25 3.25 0 0 0 12 4.247v.924A5.75 5.75 0 0 0 7 2.25v1.5A4.255 4.255 0 0 1 11.25 8v.655a4 4 0 0 1-.589-.144l-.692-.23c-1.4-.414-4.387-.353-5.697 2.806-.36.867-.492 1.86-.395 2.955l.021.25c.163 1.88.466 5.381 2.843 7.655a3.77 3.77 0 0 0 2.713 1.052 8.7 8.7 0 0 0 1.645-.244 3.9 3.9 0 0 1 1.803 0 8.7 8.7 0 0 0 1.646.244l.137.002c.939 0 1.871-.38 2.575-1.054 2.377-2.274 2.68-5.775 2.843-7.655l.021-.25c.098-1.094-.034-2.088-.395-2.955zM13.5 4.247A1.75 1.75 0 0 1 15.247 2.5H16.5v1.25a1.75 1.75 0 0 1-1.75 1.75H13.5zm5.129 9.66-.022.255c-.146 1.684-.416 4.817-2.385 6.701a2.25 2.25 0 0 1-1.615.636 7 7 0 0 1-1.355-.204 5.4 5.4 0 0 0-2.502 0 7 7 0 0 1-1.354.204 2.25 2.25 0 0 1-1.616-.636c-1.969-1.883-2.239-5.017-2.385-6.701l-.022-.255c-.076-.85.02-1.605.285-2.246 1.1-2.648 3.611-2.02 3.863-1.95l.667.222c1.17.391 2.457.39 3.627 0l.638-.213c.284-.08 2.794-.706 3.893 1.941.266.64.361 1.396.285 2.246z"/></svg>