<svg xmlns="http://www.w3.org/2000/svg" viewBox="0 0 24 24"><path fill="#002466" d="M10.207 9.944 4.456 18.26h3.02V23l5.862-7.467h-3.131zm-1.5 6.817H7.315l1.392-2.013zm1.549.269-1.28 1.631V17.03zM9.884 6.588H6.753V1L1.002 9.315h3.02v4.74zM5.522 8.085h1.28l-1.28 1.632zm-1.66-.268 1.392-2.013v2.013zm15.916-1.23h-3.131V1l-5.751 8.314h3.02v4.74zm-4.362 1.498h1.28l-1.28 1.632zm-1.66-.268 1.392-2.013v2.013zm9.242 7.715h-3.131V9.944l-5.751 8.315h3.02v4.74zm-4.362 1.498h1.28l-1.28 1.631zm-1.66-.269 1.392-2.013v2.013z"/></svg>