<svg xmlns="http://www.w3.org/2000/svg" fill="#002466" viewBox="0 0 24 24"><path d="M15.029 21.5h-12.5v-19h12.5v6h1.5V1h-15.5v22h15.5v-2.25h-1.5zm7.475-6.609-5.689-5.025a1.36 1.36 0 0 0-1.477-.223 1.36 1.36 0 0 0-.81 1.256l.014 7.477a1.36 1.36 0 0 0 .802 1.248c.188.086.384.128.578.128a1.37 1.37 0 0 0 .892-.334l1.991-1.736 2.971-.396a1.36 1.36 0 0 0 1.135-.963 1.36 1.36 0 0 0-.406-1.431zm-3.897 1.303a1.37 1.37 0 0 0-.713.319l-1.853 1.59-.012-6.93 5.277 4.661-2.7.36zM5.029 15.5h7.5V17h-7.5zm0 3h7.5V20h-7.5zm6.469-13.28L9.404 7.314l-1-1L4.998 9.72l1.061 1.061 2.345-2.345 1 1 3.155-3.155z"/></svg>