<svg xmlns="http://www.w3.org/2000/svg" fill="#002466" viewBox="0 0 24 24"><path d="M12 11.502c1.517 0 2.751-1.234 2.751-2.751S13.517 6 12 6 9.249 7.234 9.249 8.751s1.234 2.751 2.751 2.751M12 7.5c.689 0 1.251.561 1.251 1.251s-.562 1.251-1.251 1.251-1.251-.561-1.251-1.251S11.311 7.5 12 7.5m5.152 8.455v-.8a3.02 3.02 0 0 0-3.018-3.018h-4.27a3.02 3.02 0 0 0-3.018 3.018v.8h1.5v-.8a1.52 1.52 0 0 1 1.518-1.518h4.27a1.52 1.52 0 0 1 1.518 1.518v.8zM5.75 7.25H3.771A9.44 9.44 0 0 1 12 2.5c5.238 0 9.5 4.262 9.5 9.5H23c0-6.065-4.935-11-11-11a10.93 10.93 0 0 0-9.5 5.445V4H1v4.75h4.75zm12.5 9.5h1.979A9.44 9.44 0 0 1 12 21.5c-5.238 0-9.5-4.262-9.5-9.5H1c0 6.065 4.935 11 11 11a10.93 10.93 0 0 0 9.5-5.445V20H23v-4.75h-4.75z"/></svg>