<svg xmlns="http://www.w3.org/2000/svg" fill="#002466" viewBox="0 0 24 24"><path d="m19.671 7.331.867-.952-2.851-2.592-.933 1.025a9.6 9.6 0 0 0-2.662-1.016h.158v-1.5h-.695V1h-3.219v1.296H9.75v1.5h.158a9.6 9.6 0 0 0-2.662 1.015l-.933-1.025-2.851 2.592.867.952a9.66 9.66 0 0 0-2.047 5.951A9.72 9.72 0 0 0 12 23a9.72 9.72 0 0 0 9.718-9.718 9.66 9.66 0 0 0-2.047-5.951M12 21.5a8.23 8.23 0 0 1-8.218-8.218A8.23 8.23 0 0 1 12 5.064a8.23 8.23 0 0 1 8.218 8.218A8.23 8.23 0 0 1 12 21.5m0-4.25a4.15 4.15 0 0 1-3.888-2.654l-1.396.546c.855 2.192 2.93 3.608 5.284 3.608s4.429-1.416 5.284-3.608l-1.396-.546A4.15 4.15 0 0 1 12 17.25"/><circle cx="9.316" cy="10.395" r=".875"/><circle cx="14.684" cy="10.395" r=".875"/></svg>