<svg xmlns="http://www.w3.org/2000/svg" viewBox="0 0 24 24"><path fill="#002466" d="m21.192 16.873-.393-.235-.389.236a5 5 0 0 1-.378.194l2.965-5.605h-3.246l-1.858-2.648h-2.8L13.236 6.19h-2.485V5.065h-1.5V6.19H7.748V5.065h-1.5V6.19H5.31L3.88 8.815h-.002l-.184.34-.632 1.16h.006l-.62 1.148H1v2.47c-.009.967.425 2.245 1.011 3.172-.304.104-.659.19-1.011.19v1.5c.879 0 1.723-.331 2.198-.557.475.232 1.322.572 2.205.572s1.724-.337 2.2-.569c.476.233 1.316.57 2.198.57.875 0 1.726-.331 2.2-.553.473.222 1.323.553 2.199.553.867 0 1.704-.278 2.168-.464.468.231 1.332.586 2.234.586.88 0 1.725-.337 2.2-.569.476.233 1.316.57 2.199.57v-1.5c-.867 0-1.799-.556-1.808-.562zM6.201 7.69h6.26l.796 1.125H5.589zm-1.428 2.625h12.341l.805 1.148H4.153zm13.393 7.074a4.6 4.6 0 0 1-1.372-.514l-.357-.218-.373.186c-.01.004-.951.468-1.865.468-.875 0-1.811-.538-1.82-.543l-.381-.219-.376.219c-.01.005-.946.543-1.822.543-.867 0-1.798-.556-1.807-.562l-.393-.235-.389.236c-.009.005-.93.559-1.81.559-.751 0-1.527-.401-1.744-.522-.527-.487-1.167-1.889-1.158-2.848v-.977h18.007l-2.341 4.425z"/></svg>