<svg xmlns="http://www.w3.org/2000/svg" viewBox="0 0 24 24"><path fill="#002466" d="m22.69 2.361-.129-.856-.829.25c-.372.112-9.157 2.806-12.524 7.79-2.004 2.966-2.058 5.361-1.752 6.849a6.6 6.6 0 0 0 1.897 3.424c-.162.126-.312.266-.49.374a5.475 5.475 0 0 1-6.736-.811l-.073-.072L1 20.375l.069.069a6.97 6.97 0 0 0 8.572 1.028c.348-.212.668-.457.97-.721a6.05 6.05 0 0 0 3.014.817c2.216 0 4.783-1.209 7.08-4.609 3.382-5.005 2.043-14.208 1.984-14.597zm-3.227 13.757c-2.748 4.066-5.747 4.499-7.813 3.496.04-.055.084-.105.123-.161l3.607-5.26-1.237-.848-3.608 5.26c-.036.053-.085.093-.122.144a5.1 5.1 0 0 1-1.488-2.66c-.357-1.728.17-3.701 1.525-5.706 2.492-3.687 8.607-6.112 10.862-6.908.241 2.385.632 8.97-1.848 12.642z"/></svg>