<svg xmlns="http://www.w3.org/2000/svg" fill="#002466" viewBox="0 0 24 24"><path d="M2.5 9.249a2.1 2.1 0 0 1 .41-1.245 2.17 2.17 0 0 1 1.743-.877h.887V5.498h1.986v.879l.072.75h.75a2.17 2.17 0 0 1 1.743.877 2.1 2.1 0 0 1 .41 1.245v2.56H12v-2.56a3.57 3.57 0 0 0-.701-2.132 3.65 3.65 0 0 0-2.273-1.418v-1.7H7.252v-1.5h.993l2.282 1.167.684-1.334L8.606 1H4.01v1.499h1.742v1.499H4.04v1.68a3.67 3.67 0 0 0-2.339 1.437A3.58 3.58 0 0 0 1 9.249v2.56h1.5zm17.961 5.778h-7.973a2.54 2.54 0 0 0-2.419-1.782h-4.41a2.5 2.5 0 0 0-.942.182l-2.232.896A2.54 2.54 0 0 0 1 16.627v2.182c0 1.189.811 2.205 1.895 2.447l4.737 1.622A2.2 2.2 0 0 0 8.36 23a2.3 2.3 0 0 0 .523-.061l12.055-2.88A2.544 2.544 0 0 0 23 17.565a2.54 2.54 0 0 0-2.539-2.538m.162 3.565L8.536 21.48a.75.75 0 0 1-.418-.02l-4.813-1.644a1.026 1.026 0 0 1-.804-1.006v-2.182c0-.404.237-.773.574-.926l2.201-.882a1 1 0 0 1 .384-.074h4.41c.569 0 1.033.463 1.033 1.032s-.463 1.032-1.033 1.032H7.99v1.499h2.08a2.54 2.54 0 0 0 2.419-1.782h7.973a1.04 1.04 0 0 1 1.039 1.039c0 .497-.355.927-.877 1.027zM17 13.87a2.625 2.625 0 0 0 2.621-2.613v-.001a4.2 4.2 0 0 0-.377-1.759l-2.238-4.939-2.247 4.947a4.2 4.2 0 0 0-.378 1.739 2.6 2.6 0 0 0 .765 1.857c.495.496 1.154.77 1.856.77zm-.876-3.746.879-1.936.874 1.928a2.7 2.7 0 0 1 .244 1.136 1.122 1.122 0 0 1-1.915.789 1.1 1.1 0 0 1-.327-.794 2.7 2.7 0 0 1 .245-1.123"/></svg>