<svg xmlns="http://www.w3.org/2000/svg" viewBox="0 0 24 24"><path fill="#002466" d="M22.885 17.57 19.82 4.657A4.75 4.75 0 0 0 15.179 1H9.965L8.791 7.433l2.751.685 2.508-.714v6.385c-1.254-.798-3.314-1.839-5.521-1.839-3.468 0-7.068 2.585-7.22 2.694L1 14.868V23h17.643a4.35 4.35 0 0 0 2.105-.544 4.32 4.32 0 0 0 2.146-2.93l.023-.116a4.3 4.3 0 0 0-.032-1.84m-1.445 1.549-.023.116a2.81 2.81 0 0 1-1.4 1.91 2.85 2.85 0 0 1-1.373.354H2.506v-5.854c.896-.587 3.579-2.197 6.023-2.197 2.938 0 5.759 2.349 5.787 2.373l1.24 1.045V5.415l-4.04 1.149-.991-.247.697-3.817h3.958a3.25 3.25 0 0 1 3.175 2.503l3.064 12.913c.093.391.1.806.02 1.203z"/></svg>