<svg xmlns="http://www.w3.org/2000/svg" fill="#002466" viewBox="0 0 24 24"><path d="M19.5 14.75h-15c-1.93 0-3.5 1.57-3.5 3.5s1.57 3.5 3.5 3.5h15c1.93 0 3.5-1.57 3.5-3.5s-1.57-3.5-3.5-3.5m0 5.5h-15c-1.103 0-2-.897-2-2s.897-2 2-2h15c1.103 0 2 .897 2 2s-.897 2-2 2"/><circle cx="5.25" cy="18.25" r=".75"/><circle cx="9.75" cy="18.25" r=".75"/><circle cx="14.25" cy="18.25" r=".75"/><circle cx="18.75" cy="18.25" r=".75"/><path d="M16.746 2.25H4.25v12.496h12.496zm-7.015 1.5h1.533v2.671H9.731zm5.515 9.496H5.75V3.75h2.481v4.171h4.533V3.75h2.481v9.496z"/></svg>