<svg xmlns="http://www.w3.org/2000/svg" viewBox="0 0 24 24"><path fill="#002466" d="m23 21.942-2.325-2.325v-2.35h-2.129v-6.15h1.055a2.493 2.493 0 0 0 2.493-2.492v-2.11a2.493 2.493 0 0 0-2.493-2.493H8.61v.946H7.32c-.378 0-.733.09-1.054.241L2.057 1 1 2.058l4.167 4.167q-.16.279-.246.597H1.28v1.496h3.64a2.49 2.49 0 0 0 2.4 1.854h1.292v.946h1.448l4.702 4.701v1.449h-2.13v5.203h8.043v-.738L21.942 23zm-8.315-10.747v1.265h-.269a1 1 0 0 1-.997-.997v-.268zm2.365 4.798-.792-.793v-4.005h.792zM19.6 5.518c.55 0 .998.447.998.997v2.11c0 .55-.447.997-.997.997H10.68l-.572-.572V5.518zm-11.065.946v1.014L7.522 6.464zM6.323 7.679V7.46c0-.023.012-.043.014-.067l1.281 1.282h-.297a1 1 0 0 1-.998-.997M19.18 20.975h-5.05v-2.212h3.577l1.473 1.474z"/></svg>