<svg xmlns="http://www.w3.org/2000/svg" viewBox="0 0 24 24"><path fill="#002466" d="M21.788 9.517c-.04-.024-.95-.598-1.812-.968-1.27-.545-2.403-.469-3.369.228-.711.514-1.325 1.213-1.64 1.601a2.136 2.136 0 0 0-1.834 2.112c0 .407.12.783.319 1.107a2.12 2.12 0 0 0-.808 1.658c0 .824.475 1.532 1.161 1.887a2.1 2.1 0 0 0-.195.878c0 1.176.957 2.133 2.134 2.133h1.891c.086 0 .161 0 3.011-.54A2.69 2.69 0 0 0 23 16.949v-5.188a2.68 2.68 0 0 0-1.212-2.244m-.288 7.432c0 .596-.448 1.102-1.086 1.183l-2.779.521h-1.891a.634.634 0 0 1 0-1.266h1.851v-1.5h-2.817a.634.634 0 0 1 0-1.266h.48l1.881.001v-.001h.457v-1.5h-2.332a.633.633 0 0 1 .005-1.265h2.328v-1.5h-.556c.142-.128.292-.252.446-.363.53-.384 1.116-.404 1.897-.066.748.322 1.59.85 1.59.85.33.22.527.589.527.985v5.188zm-10.952-3.352c.198-.324.32-.7.32-1.107a2.136 2.136 0 0 0-1.834-2.112c-.315-.387-.929-1.087-1.641-1.601-.966-.696-2.1-.773-3.37-.228q-.946.427-1.825.978A2.67 2.67 0 0 0 1 11.762v5.188c0 1.351 1.012 2.496 2.308 2.657l3.057.547h1.89a2.136 2.136 0 0 0 2.134-2.133 2.1 2.1 0 0 0-.195-.878 2.13 2.13 0 0 0 1.161-1.887 2.12 2.12 0 0 0-.808-1.658zm-2.293 5.056-1.812.005-2.903-.533a1.19 1.19 0 0 1-1.04-1.176v-5.188c0-.398.197-.766.513-.976.009-.005.853-.536 1.603-.859.783-.336 1.369-.317 1.898.066q.233.17.446.364h-.556v1.5h2.328c.35 0 .634.284.634.633a.63.63 0 0 1-.629.632H6.406v1.5h.457v.001h1.871l.49-.001a.634.634 0 0 1 0 1.266H6.406v1.5h1.85a.634.634 0 0 1 0 1.266m2.992-14.807h1.5v3.25h-1.5zm2.772 3.526 1.865-2.662 1.23.86-1.865 2.662zM6.881 5.571l1.23-.86 1.864 2.662-1.23.86z"/></svg>