<svg xmlns="http://www.w3.org/2000/svg" fill="#002466" viewBox="0 0 24 24"><path d="M19.5 5.432V4.25A3.254 3.254 0 0 0 16.25 1h-8.5A3.254 3.254 0 0 0 4.5 4.25v1.19a3.23 3.23 0 0 0 .617 1.905l3.372 4.658-3.138 4.411a3.23 3.23 0 0 0-.602 1.883v1.452A3.255 3.255 0 0 0 8 23h8a3.254 3.254 0 0 0 3.25-3.25v-1.271c0-.667-.201-1.31-.583-1.856l-3.209-4.611 3.413-4.658a3.23 3.23 0 0 0 .629-1.921zm-1.5 0a1.74 1.74 0 0 1-.338 1.034l-4.048 5.522 3.822 5.491a1.74 1.74 0 0 1 .313 1v1.271c0 .965-.785 1.75-1.75 1.75H8c-.965 0-1.75-.785-1.75-1.75v-1.452a1.74 1.74 0 0 1 .324-1.014l3.761-5.288-4.003-5.53A1.74 1.74 0 0 1 6 5.44V4.25c0-.965.785-1.75 1.75-1.75h8.5c.965 0 1.75.785 1.75 1.75zM9.723 18h4.527v1.5H9.723z"/></svg>