<svg xmlns="http://www.w3.org/2000/svg" fill="#002466" viewBox="0 0 24 24"><path d="M8.5 3.772V1H4v2.772a4.7 4.7 0 0 0-2.5 4.17V9a2.97 2.97 0 0 0 .39 1.468l.058.087a1.28 1.28 0 0 1 0 1.563l-.058.087a2.97 2.97 0 0 0-.39 1.468v6.076A3.254 3.254 0 0 0 4.75 23h3A3.254 3.254 0 0 0 11 19.75v-6.076a2.97 2.97 0 0 0-.39-1.468l-.058-.087a1.28 1.28 0 0 1 0-1.563l.058-.087A2.97 2.97 0 0 0 11 9V7.942a4.7 4.7 0 0 0-2.5-4.17M9.5 9a1.5 1.5 0 0 1-.172.688 2.78 2.78 0 0 0 0 3.299 1.5 1.5 0 0 1 .172.688v6.076c0 .965-.785 1.75-1.75 1.75h-3c-.965 0-1.75-.785-1.75-1.75v-6.076a1.5 1.5 0 0 1 .172-.687 2.78 2.78 0 0 0 0-3.299A1.5 1.5 0 0 1 3 9V7.942a3.21 3.21 0 0 1 2.028-2.996l.472-.188V2.5H7v2.258l.472.188A3.21 3.21 0 0 1 9.5 7.942zm12.61 1.468A2.97 2.97 0 0 0 22.5 9V7.942a4.7 4.7 0 0 0-2.5-4.17V1h-4.5v2.772a4.7 4.7 0 0 0-2.5 4.17V9a2.97 2.97 0 0 0 .39 1.468l.058.087a1.28 1.28 0 0 1 0 1.563l-.058.087a2.97 2.97 0 0 0-.39 1.468v6.076a3.254 3.254 0 0 0 3.25 3.25h3a3.254 3.254 0 0 0 3.25-3.25v-6.076a2.97 2.97 0 0 0-.39-1.468l-.058-.087a1.28 1.28 0 0 1 0-1.563zM21 9a1.5 1.5 0 0 1-.172.688 2.78 2.78 0 0 0 0 3.299 1.5 1.5 0 0 1 .172.688v6.076c0 .965-.785 1.75-1.75 1.75h-3c-.965 0-1.75-.785-1.75-1.75v-6.076a1.5 1.5 0 0 1 .172-.687 2.78 2.78 0 0 0 0-3.299A1.5 1.5 0 0 1 14.5 9V7.942a3.21 3.21 0 0 1 2.028-2.996L17 4.758V2.5h1.5v2.258l.472.188A3.21 3.21 0 0 1 21 7.942z"/></svg>