<svg xmlns="http://www.w3.org/2000/svg" viewBox="0 0 24 24"><path fill="#002466" d="M13.462 16.439H4.249c-.965 0-1.75-.785-1.75-1.75V6.152c0-.965.785-1.75 1.75-1.75h13.494c.964 0 1.75.785 1.75 1.75v1.966h1.499V6.152a3.253 3.253 0 0 0-3.249-3.25H4.249A3.253 3.253 0 0 0 1 6.152v8.537a3.253 3.253 0 0 0 3.249 3.25h9.213zM4.907 19.598h8.584v1.5H4.907z"/><path fill="#002466" d="m22.544 14.137-5.408-4.779a1.33 1.33 0 0 0-1.444-.216 1.33 1.33 0 0 0-.79 1.227l.013 7.109a1.353 1.353 0 0 0 1.348 1.344c.314 0 .621-.112.872-.326l1.873-1.642 2.823-.376c.53-.071.954-.432 1.11-.942s.003-1.046-.397-1.4m-3.733 1.23a1.35 1.35 0 0 0-.698.312l-1.7 1.459-.01-6.427 4.893 4.324z"/></svg>