<svg xmlns="http://www.w3.org/2000/svg" viewBox="0 0 24 24"><path fill="#002466" d="M8.886 20.294h6.229V15.64H8.886zm1.5-3.153h3.229v1.653h-3.229zM4.25 1v22h15.5V1zm14 20.499H5.75V2.5h12.5zM8.539 7.549v3.543c0 1.224.996 2.22 2.22 2.22h1.763c.844 0 1.571-.48 1.947-1.176h.551a2.074 2.074 0 0 0 0-4.147h-.278v-.44zm4.702 3.543a.72.72 0 0 1-.72.719h-1.763a.72.72 0 0 1-.72-.72V9.05h3.202v2.043zm1.778-1.602a.573.573 0 0 1 0 1.145h-.278V9.49zm-2.557-3.54.161.084v.973h1.5V5.855c0-.75-.645-1.074-.99-1.247l-.161-.083v-.973h-1.5v1.151c0 .751.645 1.073.99 1.247m-3.454 0 .161.084v.973h1.5V5.855c0-.75-.644-1.073-.99-1.247l-.16-.083v-.973h-1.5v1.151c0 .751.644 1.073.989 1.247"/></svg>