<svg xmlns="http://www.w3.org/2000/svg" viewBox="0 0 24 24"><path fill="#002466" d="M19.255 2.062H4.745v13.876h14.51zm-8.09 1.5h1.672v2.784h-1.673zm6.59 10.876H6.245V3.562h3.42v4.284h4.672V3.562h3.418zm3.36 4.5c-.307-.877-1.135-1.512-2.115-1.512s-1.808.635-2.115 1.512h-2.773c-.31-.871-1.136-1.5-2.112-1.5s-1.801.629-2.112 1.5H7.112c-.31-.871-1.136-1.5-2.112-1.5s-1.801.629-2.112 1.5H1v1.5h1.888c.311.87 1.136 1.5 2.112 1.5s1.801-.63 2.112-1.5h2.776c.311.87 1.136 1.5 2.112 1.5s1.801-.63 2.112-1.5h2.78c.314.865 1.136 1.488 2.108 1.488s1.794-.623 2.108-1.488H23v-1.5zM5 20.438a.751.751 0 0 1 0-1.5.751.751 0 0 1 0 1.5m7 0a.751.751 0 0 1 0-1.5.751.751 0 0 1 0 1.5m7-.012a.751.751 0 0 1 0-1.5.751.751 0 0 1 0 1.5"/></svg>