<svg xmlns="http://www.w3.org/2000/svg" fill="#002466" viewBox="0 0 24 24"><path d="M17.706 4.128A1.63 1.63 0 0 1 19.334 2.5a1.63 1.63 0 0 1 1.628 1.628v1.826h-1.43v1.5h1.43v1.67h-1.43v1.5h1.43v.876h1.5V4.128A3.13 3.13 0 0 0 19.334 1a3.13 3.13 0 0 0-3.128 3.128v5.625h1.5zm-2.104 7.092H8.285a7.1 7.1 0 0 0-3.623.994l.768 1.289a5.6 5.6 0 0 1 2.855-.782h2.908v2.664h1.5V12.72h2.158v2.664h1.5v-2.608c2.729.368 4.842 2.706 4.842 5.534A1.69 1.69 0 0 1 19.504 20h-6.811v1.5h6.811a3.193 3.193 0 0 0 3.189-3.189 7.1 7.1 0 0 0-7.092-7.091zm-9.409 3.415a4.89 4.89 0 0 0-4.887 4.886A3.484 3.484 0 0 0 4.786 23H7.6a3.483 3.483 0 0 0 3.479-3.479 4.89 4.89 0 0 0-4.887-4.886zM7.601 21.5H4.786a1.98 1.98 0 0 1-1.979-1.979c0-1.327.774-2.465 1.888-3.02l.505.504-.874.874 1.061 1.061.874-.874.874.874 1.061-1.061-.874-.874.458-.458c1.066.571 1.802 1.682 1.802 2.974A1.98 1.98 0 0 1 7.601 21.5"/></svg>