<svg xmlns="http://www.w3.org/2000/svg" viewBox="0 0 24 24"><path fill="#002466" d="M15.375 1.022a2.3 2.3 0 0 0-1.056.381c-.185.119-.262.167-.489.167s-.298-.045-.488-.167C13.09 1.243 12.71 1 12.044 1s-1.045.243-1.296.404c-.19.122-.261.167-.487.167s-.296-.045-.484-.166a2.24 2.24 0 0 0-1.151-.391L7.125 1v22l1.5-.023a2.27 2.27 0 0 0 1.092-.385c.19-.122.262-.167.488-.167s.305.049.489.167c.252.161.632.403 1.297.403s1.045-.243 1.296-.404c.19-.122.261-.167.487-.167s.296.045.484.166a2.25 2.25 0 0 0 1.116.388l1.5.021V1l-1.5.021zm0 20.456c-.103-.022-.179-.067-.306-.149-.251-.161-.63-.404-1.295-.404s-1.045.243-1.296.404c-.19.122-.261.167-.487.167s-.298-.045-.488-.167c-.252-.161-.632-.404-1.298-.404s-1.045.243-1.297.403a1 1 0 0 1-.283.136v-2.443h6.75v2.456zm0-3.956h-6.75V6.511h6.75v11.012zm0-12.511h-6.75V2.508c.124.018.199.067.341.157.251.161.63.404 1.295.404s1.045-.243 1.296-.404c.19-.122.261-.167.487-.167s.305.049.489.167c.252.161.632.403 1.297.403s1.046-.243 1.298-.404c.102-.065.171-.107.247-.133v2.478z"/></svg>