<svg xmlns="http://www.w3.org/2000/svg" viewBox="0 0 24 24"><path fill="#002466" d="m20.062 2.445-.224-.252H4.162l-.224.252C2.043 4.583 1 7.367 1 10.285c0 6.354 4.935 11.522 11 11.522s11-5.169 11-11.522c0-2.918-1.043-5.702-2.938-7.839zM12 20.307c-5.238 0-9.5-4.496-9.5-10.022 0-2.437.83-4.765 2.344-6.592h14.31C20.669 5.52 21.5 7.848 21.5 10.285c0 5.526-4.262 10.022-9.5 10.022m2.659-8.842a2.74 2.74 0 0 0-.274-2.089 2.73 2.73 0 0 0-1.672-1.282 2.74 2.74 0 0 0-2.088.275 2.755 2.755 0 0 0-1.008 3.76 2.73 2.73 0 0 0 1.672 1.283 2.73 2.73 0 0 0 2.088-.275 2.74 2.74 0 0 0 1.283-1.671zm-2.033.372a1.25 1.25 0 0 1-.95.125 1.254 1.254 0 1 1 1.409-1.836c.345.598.14 1.366-.459 1.711M17.933 8.9a2.4 2.4 0 0 0-2.399 2.397 2.4 2.4 0 0 0 2.399 2.398 2.4 2.4 0 0 0 2.398-2.398A2.4 2.4 0 0 0 17.933 8.9m0 3.295a.9.9 0 0 1-.899-.898.9.9 0 0 1 .899-.897.9.9 0 0 1 .898.897.9.9 0 0 1-.898.898m-4.167 2.164a2.38 2.38 0 0 0-.877 3.275 2.4 2.4 0 0 0 3.276.878 2.38 2.38 0 0 0 .878-3.275 2.4 2.4 0 0 0-3.276-.877zm2.067 2.309a.897.897 0 0 1-1.645.217.896.896 0 0 1 .775-1.345.9.9 0 0 1 .87 1.129zm-5.6-2.31a2.38 2.38 0 0 0-1.82-.24 2.4 2.4 0 0 0 .617 4.713 2.4 2.4 0 0 0 1.203-4.473m-.421 2.525a.9.9 0 0 1-1.227.329.9.9 0 0 1-.328-1.226.89.89 0 0 1 .778-.449.9.9 0 0 1 .776 1.347zm-1.346-5.585A2.4 2.4 0 0 0 6.067 8.9a2.4 2.4 0 0 0-2.398 2.398 2.4 2.4 0 0 0 2.398 2.397 2.4 2.4 0 0 0 2.399-2.397m-2.399.897a.9.9 0 0 1-.898-.897.9.9 0 0 1 .898-.898.9.9 0 0 1 .899.898.9.9 0 0 1-.899.897m2.97-4.123a1.9 1.9 0 0 0 .952-.255 1.913 1.913 0 0 0 .699-2.61v-.001c-.528-.913-1.702-1.225-2.611-.699s-1.227 1.698-.7 2.611c.354.612.998.955 1.66.955zm-.209-2.267a.41.41 0 0 1 .562.151c.112.197.045.448-.15.561s-.449.046-.563-.15-.045-.448.151-.562m5.182 2.011a1.9 1.9 0 0 0 1.449.192 1.913 1.913 0 0 0-.989-3.692c-.493.132-.906.448-1.16.89s-.323.957-.191 1.45.448.906.891 1.161zm.6-1.86a.41.41 0 0 1 .356-.205.41.41 0 0 1 .106.808.41.41 0 0 1-.503-.291.4.4 0 0 1 .041-.312"/></svg>