<svg xmlns="http://www.w3.org/2000/svg" fill="#002466" viewBox="0 0 24 24"><path d="m15.195 18.195 1.898 4.817 1.396-.549-3.588-9.109a5.91 5.91 0 0 0 3.426-5.38v-.75H6.733v.75A6 6 0 0 0 7.02 9.8H5.578v1.5h2.168a5.86 5.86 0 0 0 2.26 1.979l-2.084 5.307c-.067-.006-.131-.02-.2-.02-1.219 0-2.211.992-2.211 2.211s.992 2.211 2.211 2.211 2.211-.992 2.211-2.211a2.2 2.2 0 0 0-.647-1.56l.401-1.022zm-6.9-9.471h8.469c-.349 2.071-2.114 3.652-4.234 3.652s-3.886-1.581-4.234-3.652zm4.234 5.152c.318 0 .627-.033.931-.083l1.143 2.902h-4.327l1.15-2.929a5.7 5.7 0 0 0 1.104.11zm-4.808 7.611a.71.71 0 1 1 0-1.422.71.71 0 1 1 0 1.422M7.88 4.114c.042 0 .106.072.106.18V5.74h1.5V4.294c0-.926-.721-1.68-1.606-1.68-.042 0-.105-.072-.105-.18V.988h-1.5v1.446c0 .926.72 1.68 1.605 1.68m4.217.051c.034 0 .098.064.098.17v1.431h1.5V4.335c0-.921-.717-1.67-1.598-1.67-.034 0-.097-.064-.097-.17V1.064h-1.5v1.431c0 .921.716 1.67 1.597 1.67m4.102.015c.034 0 .097.064.097.17v1.431h1.5V4.35c0-.921-.716-1.67-1.597-1.67-.034 0-.098-.064-.098-.17V1.079h-1.5V2.51c0 .921.717 1.67 1.598 1.67"/></svg>