<svg xmlns="http://www.w3.org/2000/svg" viewBox="0 0 24 24"><path fill="#002466" d="M7.438 7.463a7.08 7.08 0 0 1 5.002-2.071H23v-1.5H12.439a8.6 8.6 0 0 0-2.315.318 8.6 8.6 0 0 0-2.492 1.177H1.008v1.5h4.883L4.546 8.232c-.38.38-.589.884-.589 1.421s.209 1.042.589 1.421c.76.76 2.085.758 2.843 0l1.562-1.561a2.14 2.14 0 0 1 1.501-.622h1.757a2.1 2.1 0 0 1 1.501.622l4.148 4.146a.59.59 0 0 1 0 .832.6.6 0 0 1-.833 0l-2.968-2.969-1.061 1.061 2.578 2.58a.58.58 0 0 1-.006.813.595.595 0 0 1-.823 0l-2.585-2.583-1.061 1.061 1.978 1.979a.58.58 0 0 1 .172.414.58.58 0 0 1-.172.415.6.6 0 0 1-.83 0l-2.186-2.188L9 16.135l1.563 1.566c.2.211.2.544-.007.75-.103.103-.276.19-.384.158a.53.53 0 0 1-.382-.161l-2.07-2.106-1.096-1.136a3.27 3.27 0 0 0-2.315-1.003l-3.293-.035-.016 1.5 3.293.035c.476.005.918.196 1.245.538l1.113 1.153 2.072 2.105a2.02 2.02 0 0 0 1.444.609h.01a2.04 2.04 0 0 0 1.89-1.272 2 2 0 0 0 .598.097c.558 0 1.082-.217 1.476-.611a2.1 2.1 0 0 0 .477-.755 2 2 0 0 0 .541.08 2.07 2.07 0 0 0 1.472-.61c.259-.259.425-.572.519-.901l.293.029a2.08 2.08 0 0 0 2.086-2.118H23v-1.5h-4.133l-1.873-1.872a7.2 7.2 0 0 0 2.246-1.178l-.922-1.183a5.8 5.8 0 0 1-2.556 1.128l-.99-.99a3.6 3.6 0 0 0-2.562-1.061h-1.757A3.65 3.65 0 0 0 7.89 8.453l-1.563 1.562a.52.52 0 0 1-.72-.001.51.51 0 0 1 0-.721z"/></svg>