<svg xmlns="http://www.w3.org/2000/svg" fill="#002466" viewBox="0 0 24 24"><path d="M21.935 7.906a3.26 3.26 0 0 0-2.497-.829l-7.687.742V9.5H1V14h6.878l1.385.461 2.487.035v1.685l7.998.757a3.26 3.26 0 0 0 2.187-.844A3.25 3.25 0 0 0 23 13.688v-3.376c0-.915-.388-1.792-1.065-2.406M11.75 13H9.622l-1.385-.461L2.5 12.5V11h9.25zm9.75.688c0 .5-.204.96-.573 1.296a1.73 1.73 0 0 1-1.345.446l-6.332-.611V9.181l6.332-.611c.491-.05.975.111 1.345.446a1.73 1.73 0 0 1 .573 1.296zm-3-3.188H20v3h-1.5zm-3.75 0h1.5v3h-1.5z"/></svg>