<svg xmlns="http://www.w3.org/2000/svg" viewBox="0 0 24 24"><path fill="#002466" d="M23 10.063h-1.338a4.68 4.68 0 0 0-4.256-2.75c-1.384 0-2.617.615-3.476 1.572a4.9 4.9 0 0 0-3.883.01c-.859-.963-2.095-1.582-3.484-1.582a4.68 4.68 0 0 0-4.256 2.75H1v1.5h.919c-.014.146-.044.288-.044.438 0 2.584 2.103 4.688 4.687 4.688S11.25 14.584 11.25 12a4.7 4.7 0 0 0-.38-1.843 3.28 3.28 0 0 1 2.235-.011A4.7 4.7 0 0 0 12.719 12c0 2.584 2.103 4.688 4.688 4.688s4.688-2.103 4.688-4.687c0-.15-.03-.291-.044-.437H23zM6.562 15.188A3.19 3.19 0 0 1 3.375 12a3.19 3.19 0 0 1 3.187-3.187A3.19 3.19 0 0 1 9.75 12a3.19 3.19 0 0 1-3.188 3.188m10.844 0A3.19 3.19 0 0 1 14.219 12a3.19 3.19 0 0 1 3.188-3.187A3.19 3.19 0 0 1 20.594 12a3.19 3.19 0 0 1-3.187 3.188z"/></svg>