<svg xmlns="http://www.w3.org/2000/svg" viewBox="0 0 24 24"><path fill="#002466" d="M20.895 9.682V9.25A3.254 3.254 0 0 0 17.645 6H12.75v-.992A2.51 2.51 0 0 1 15.258 2.5V1a4.013 4.013 0 0 0-4.008 4.008V6H6.355a3.254 3.254 0 0 0-3.25 3.25v.432h1.5V9.25c0-.965.785-1.75 1.75-1.75h4.895v1.423a3.06 3.06 0 0 0-1.593 1.003A3.06 3.06 0 0 0 7.314 8.82a3.08 3.08 0 0 0-3.075 3.076 3.08 3.08 0 0 0 2.51 3.019 3 3 0 0 0-.178.991 3.076 3.076 0 0 0 2.533 3.021c-.109.314-.18.646-.18.997A3.08 3.08 0 0 0 12 23a3.08 3.08 0 0 0 3.076-3.076c0-.351-.072-.683-.18-.997a3.076 3.076 0 0 0 2.533-3.021c0-.349-.071-.678-.178-.991a3.08 3.08 0 0 0 2.51-3.019 3.08 3.08 0 0 0-3.075-3.076 3.06 3.06 0 0 0-2.343 1.106 3.06 3.06 0 0 0-1.593-1.003V7.5h4.895c.965 0 1.75.785 1.75 1.75v.432zM5.739 11.896a1.58 1.58 0 0 1 1.575-1.576 1.58 1.58 0 0 1 1.576 1.576 1.58 1.58 0 0 1-1.576 1.576 1.58 1.58 0 0 1-1.575-1.576m2.332 4.01a1.58 1.58 0 0 1 1.576-1.576 1.58 1.58 0 0 1 1.576 1.576 1.58 1.58 0 0 1-1.576 1.576 1.58 1.58 0 0 1-1.576-1.576M12 21.5a1.58 1.58 0 0 1-1.576-1.576A1.58 1.58 0 0 1 12 18.348a1.58 1.58 0 0 1 1.576 1.576A1.58 1.58 0 0 1 12 21.5m2.353-4.019a1.58 1.58 0 0 1-1.576-1.576 1.58 1.58 0 0 1 1.576-1.576 1.58 1.58 0 0 1 1.576 1.576 1.58 1.58 0 0 1-1.576 1.576m2.333-7.162a1.58 1.58 0 0 1 1.575 1.576 1.58 1.58 0 0 1-1.575 1.576 1.58 1.58 0 0 1-1.576-1.576 1.58 1.58 0 0 1 1.576-1.576m-3.109 1.576A1.58 1.58 0 0 1 12 13.472a1.58 1.58 0 0 1-1.576-1.576A1.58 1.58 0 0 1 12 10.319a1.58 1.58 0 0 1 1.576 1.576z"/></svg>