<svg xmlns="http://www.w3.org/2000/svg" fill="#002466" viewBox="0 0 24 24"><path d="m8.267 11.883.75-1.295c-1.705-.984-1.782-2.333-1.771-4.632V3.863l2.422 2.415 1.061-1.058L6.498 1l-4.23 4.219 1.061 1.058 2.419-2.413v2.082c-.011 2.199-.022 4.471 2.521 5.937zm7.249 1-.791 1.271c1.861 1.153 1.981 2.666 2.023 5.04V23h1.5v-3.831c-.039-2.178-.083-4.645-2.732-6.286m6.217-7.663L17.501 1l-4.23 4.219 1.061 1.058 2.418-2.411.001 2.08c.018 3.004.026 4.66-4.871 5.694-6.02 1.271-6.076 4.453-6.131 7.523V23h1.5v-3.804c.055-3.052.09-5.069 4.941-6.093 5.67-1.198 6.081-3.615 6.061-7.2l-.001-2.041 2.423 2.416 1.061-1.058z"/></svg>