<svg xmlns="http://www.w3.org/2000/svg" fill="#002466" viewBox="0 0 24 24"><path d="M1 1.875v17.25h22V1.875zm20.5 15.75h-19V3.375h19zm-8.582-1.648a2.3 2.3 0 0 0 1.674.646c.283-.011.595-.058.924-.137.253-.061.519-.06.77 0 .331.079.643.125.925.137l.086.001a2.32 2.32 0 0 0 1.588-.647c1.333-1.275 1.498-3.182 1.587-4.206l.012-.132c.056-.628-.021-1.202-.231-1.707-.536-1.292-1.542-1.702-2.4-1.755a2.25 2.25 0 0 0 1.529-2.121V4.468h-1.589a2.25 2.25 0 0 0-2.147 1.612 3.33 3.33 0 0 0-2.343-.962v1.5c.973 0 1.764.758 1.835 1.713l-.19-.063c-.836-.246-2.618-.212-3.396 1.666-.21.504-.287 1.079-.231 1.706l.011.125c.088 1.026.252 2.935 1.588 4.212zm4.123-9.259a.75.75 0 0 1 .75-.75h.089v.089a.75.75 0 0 1-.75.75h-.089zm-.307 1.589-.097.032-.003-.032zm-3.799 2.201c.298-.718.841-.853 1.207-.853.172 0 .305.03.355.043l.347.115a3.36 3.36 0 0 0 2.112 0l.315-.105c.188-.053 1.155-.256 1.594.8.115.278.156.614.122.998l-.012.136c-.077.885-.205 2.367-1.129 3.251a.78.78 0 0 1-.577.231 3.3 3.3 0 0 1-.636-.097 3.16 3.16 0 0 0-1.47 0 3.3 3.3 0 0 1-.634.096.8.8 0 0 1-.576-.231c-.927-.886-1.054-2.371-1.13-3.257l-.012-.13q-.05-.578.122-.998zM9 20.625h6v1.5H9zm-3.606-8.716c0 1.092.889 1.981 1.981 1.981s1.981-.889 1.981-1.981v-2.47h1.894V8.5a3.88 3.88 0 0 0-3.875-3.875A3.88 3.88 0 0 0 3.5 8.5v.939h1.894zm2.463 0a.482.482 0 1 1-.963 0v-2.47h.963zm-2.79-3.97a2.38 2.38 0 0 1 4.617 0H5.066z"/></svg>