<svg xmlns="http://www.w3.org/2000/svg" fill="#002466" viewBox="0 0 24 24"><path d="M9.65 17.983v-1.498H7.331l.003-12.218-3 3.005-1.268-1.397 3.371-3.376h1.535c.733 3.211 5.587 3.208 6.32 0h1.542l3.371 3.376-1.268 1.397-3.001-3.005.002 5.225h1.497V7.886l1.554 1.557 3.283-3.618L16.453 1H5.817L1 5.825l3.281 3.618 1.555-1.557-.003 10.097zM11.131 3.44c-.636 0-1.284-.297-1.584-.941h3.168c-.299.645-.948.941-1.585.941zm9.51 14.937-2.957-2.96 1.262-1.264.235.236 1.524-.277L23 11.074l-2.036-2.037-3.035 2.297-.276 1.526.235.235-1.263 1.264-1.929-1.931-.037-1.328-1.886-1.888-1.058 1.059 1.465 1.467.037 1.328 5.836 5.842c-.048.04-.101.073-.146.118s-.078.097-.119.145l-5.835-5.841-1.325-.037-1.466-1.467-1.058 1.059 1.887 1.888 1.325.037 1.138 1.139-3.855 3.859a1.873 1.873 0 0 0 0 2.644c.353.353.822.547 1.32.547a1.85 1.85 0 0 0 1.32-.548l3.856-3.859 2.141 2.143c.018.593.252 1.15.672 1.571a2.3 2.3 0 0 0 3.277 0 2.3 2.3 0 0 0 .679-1.64 2.3 2.3 0 0 0-.679-1.641 2.3 2.3 0 0 0-1.544-.648m-1.343-6.201 1.53-1.158.192.193-1.156 1.531-.177.032-.421-.421.032-.178zm-8.117 9.217c-.189.189-.335.189-.524 0a.373.373 0 0 1 0-.525l3.355-3.358.524.525zm9.946-.145a.84.84 0 0 1-1.161 0c-.155-.155-.241-.361-.241-.581s.086-.426.241-.581a.82.82 0 0 1 1.161-.001v.001a.82.82 0 0 1 .241.58.82.82 0 0 1-.241.581z"/></svg>