<svg xmlns="http://www.w3.org/2000/svg" viewBox="0 0 24 24"><path fill="#002466" d="M22.497 18.201c-.137-.138-3.4-3.37-7.513-3.73-4.12-.18-5.801 2.229-6.405 3.522H5.16a2.664 2.664 0 0 1 0-5.326h13.641c2.294 0 4.16-1.868 4.16-4.163s-1.866-4.163-4.16-4.163h-8.723v-.905A2.44 2.44 0 0 0 7.644 1H3.526v1.686H1.749v1.5h1.777v1.871H1.749v1.5h1.777v1.685h4.118a2.44 2.44 0 0 0 2.434-2.435v-.966h8.724c1.468 0 2.661 1.195 2.661 2.663s-1.193 2.663-2.661 2.663H5.16C2.866 11.167 1 13.035 1 15.33s1.866 4.163 4.16 4.163h3.28c.435.851 2.106 3.49 6.1 3.507h.034c4.473 0 7.806-3.61 7.946-3.764l.48-.529-.503-.505zM8.579 6.807c0 .516-.42.935-.935.935H5.025V2.5h2.619c.515 0 .935.42.935.936zM14.574 21.5h-.028c-2.381-.009-3.693-1.174-4.333-2.007h5.275v-1.5h-5.217c.635-.953 1.963-2.143 4.614-2.025 2.62.23 4.944 1.918 5.98 2.784-1.037.926-3.441 2.749-6.291 2.749z"/></svg>