<svg xmlns="http://www.w3.org/2000/svg" fill="#002466" viewBox="0 0 24 24"><path d="M11.252 20.978h1.496v1.992h-1.496zm.743-11.88 1.058-1.056a4.235 4.235 0 0 0 0-5.986L11.995 1l-1.058 1.056a4.2 4.2 0 0 0-1.242 2.993 4.2 4.2 0 0 0 1.242 2.993zm0-5.986a2.74 2.74 0 0 1 0 3.873 2.72 2.72 0 0 1-.803-1.937 2.72 2.72 0 0 1 .803-1.936M23 21.944l-5.877-5.869q.111-.52.113-1.072v-.747h-1.247c-.214 0-.418.036-.624.063l-.797-.796c1.443-.874 2.419-2.442 2.419-4.246V8.53h-.997a4.73 4.73 0 0 0-3.992 2.208 4.75 4.75 0 0 0-1.945-1.724L2.058 1.03 1 2.086l6.452 6.443h-.445v.747a4.99 4.99 0 0 0 4.986 4.979l.003-.005.003.005c.366 0 .721-.045 1.065-.121l.701.7a4.74 4.74 0 0 0-1.77 1.63 4.73 4.73 0 0 0-3.993-2.209H6.757v.747a5.24 5.24 0 0 0 5.236 5.228l.004-.006.004.006c1.941 0 3.619-1.072 4.523-2.643L21.942 23zm-7.602-11.867a3.5 3.5 0 0 1-1.927 2.351l-.449-.448a3.25 3.25 0 0 1 2.375-1.903zm-6.803 0a3 3 0 0 1 .577.171l1.848 1.845c.072.185.133.376.17.576a3.5 3.5 0 0 1-2.595-2.592m-.264 5.689a3.244 3.244 0 0 1 2.896 2.893 3.75 3.75 0 0 1-2.896-2.893m4.433 2.893a3.24 3.24 0 0 1 2.123-2.705l.534.533a3.75 3.75 0 0 1-2.656 2.172z"/></svg>