<svg xmlns="http://www.w3.org/2000/svg" viewBox="0 0 24 24"><path fill="#002466" d="m21.601 14.23-.155-.048-.275-2.968C20.728 6.427 16.785 2.817 12 2.817s-8.728 3.61-9.171 8.397l-.275 2.968-.155.048-1.4 6.953 1.22-.403a31.36 31.36 0 0 1 19.561 0l1.22.403zm-1.916-2.877.223 2.408a31.2 31.2 0 0 0-7.161-1.016V4.353c3.667.349 6.59 3.241 6.938 7.001zm-8.431-7.001v8.393c-2.418.06-4.822.4-7.161 1.016l.223-2.408c.348-3.759 3.272-6.652 6.938-7.001M12 17.716a32.8 32.8 0 0 0-9.034 1.264l.719-3.573a29.66 29.66 0 0 1 16.63 0l.718 3.573A32.8 32.8 0 0 0 12 17.716"/></svg>