<svg xmlns="http://www.w3.org/2000/svg" fill="#002466" viewBox="0 0 24 24"><path d="M7.527 19.125V6.375h.985l.206-3.5h.556v-1.5H4.282v1.5h.556l.206 3.5h.985v5.75H3.035v8.5h4.87a2 2 0 0 0 1.997 2 2 2 0 0 0 1.997-2h6.481a2 2 0 0 0 1.997 2 2 2 0 0 0 1.997-2H23v-1.5zm-.31-16.25-.117 2h-.643l-.117-2h.878zm-2.685 16.25v-5.5h1.497v5.5zm5.37 2a.5.5 0 0 1-.499-.5h.998a.5.5 0 0 1-.499.5m10.474 0a.5.5 0 0 1-.499-.5h.998a.5.5 0 0 1-.499.5M1 5.484l2.246-.5.326 1.464-2.246.5zm8.997.964.326-1.464 2.246.5-.326 1.464zM1 3.214l.326-1.464 2.246.5-.326 1.464zm8.984-.964 2.246-.5.326 1.464-2.246.5z"/></svg>