<svg xmlns="http://www.w3.org/2000/svg" fill="#002466" viewBox="0 0 24 24"><path d="M18.25 12.75H5.75C3.131 12.75 1 14.881 1 17.5s2.131 4.75 4.75 4.75h12.5c2.619 0 4.75-2.131 4.75-4.75s-2.131-4.75-4.75-4.75m0 8H5.75c-1.792 0-3.25-1.458-3.25-3.25s1.458-3.25 3.25-3.25h12.5c1.792 0 3.25 1.458 3.25 3.25s-1.458 3.25-3.25 3.25m-12.5-9.5h12.5c2.619 0 4.75-2.131 4.75-4.75s-2.131-4.75-4.75-4.75H5.75C3.131 1.75 1 3.881 1 6.5s2.131 4.75 4.75 4.75m0-8h12.5c1.792 0 3.25 1.458 3.25 3.25s-1.458 3.25-3.25 3.25H5.75C3.958 9.75 2.5 8.292 2.5 6.5s1.458-3.25 3.25-3.25M7 15c-1.379 0-2.5 1.122-2.5 2.5S5.621 20 7 20s2.5-1.122 2.5-2.5S8.379 15 7 15m0 3.5a1 1 0 1 1 0-2 1 1 0 1 1 0 2M17 9c1.379 0 2.5-1.122 2.5-2.5S18.379 4 17 4s-2.5 1.122-2.5 2.5S15.621 9 17 9m0-3.5a1 1 0 1 1 0 2 1 1 0 1 1 0-2"/></svg>