<svg xmlns="http://www.w3.org/2000/svg" fill="#002466" viewBox="0 0 24 24"><path d="M10.75 19.845v-4.047h-1.5v4.047l-1.354-1.216-1.002 1.115L10 22.535l3.105-2.792-1.002-1.115-1.354 1.216zm-.199-7.62 1.002 1.115 1.354-1.216v4.047h1.5v-4.046l1.353 1.216 1.002-1.115-3.104-2.792-3.105 2.792zm7.586-5.76a7.21 7.21 0 0 0-6.896-5 7.23 7.23 0 0 0-7.217 6.432A4.28 4.28 0 0 0 1 11.965a4.255 4.255 0 0 0 4.25 4.25H7.5v-1.5H5.25a2.75 2.75 0 0 1-2.75-2.75 2.76 2.76 0 0 1 2.34-2.718l.619-.091.021-.625a5.74 5.74 0 0 1 5.76-5.565 5.72 5.72 0 0 1 5.6 4.43l.138.59 1.152-.02a3.38 3.38 0 0 1 3.37 3.38 3.374 3.374 0 0 1-3.37 3.37h-1.302v1.5h1.302c2.686 0 4.87-2.185 4.87-4.87s-2.174-4.869-4.863-4.88z"/></svg>