<svg xmlns="http://www.w3.org/2000/svg" fill="#002466" viewBox="0 0 24 24"><path d="M4.002 13.199 4 13.165c0-3.204 1.933-6.04 4.767-7.3V4.246C5.069 5.588 2.5 9.135 2.5 13.165l.002.034zM12 21.165a7.93 7.93 0 0 1-5.625-2.347l-.422.422-.637.637A9.42 9.42 0 0 0 12 22.664a9.45 9.45 0 0 0 6.675-2.756l-1.029-1.086A7.96 7.96 0 0 1 12 21.165m8-8-.003.062h1.5l.003-.062c0-4.019-2.556-7.558-6.238-8.908v1.622C18.081 7.146 20 9.973 20 13.165m-16.565.855A2.44 2.44 0 0 0 1 16.455a2.44 2.44 0 0 0 2.435 2.435 2.44 2.44 0 0 0 2.436-2.435 2.44 2.44 0 0 0-2.436-2.435m0 3.37a.935.935 0 1 1 .001-1.871.935.935 0 0 1-.001 1.871m17.13-3.37a2.44 2.44 0 0 0-2.436 2.435 2.44 2.44 0 0 0 2.436 2.435A2.44 2.44 0 0 0 23 16.455a2.44 2.44 0 0 0-2.435-2.435m0 3.37a.936.936 0 0 1-.936-.935.936.936 0 0 1 1.871 0 .935.935 0 0 1-.935.935M12 6.205a2.44 2.44 0 0 0 2.435-2.435A2.44 2.44 0 0 0 12 1.335 2.44 2.44 0 0 0 9.565 3.77 2.44 2.44 0 0 0 12 6.205m0-3.37a.935.935 0 1 1-.001 1.871A.935.935 0 0 1 12 2.835m3.811 6.563-1.79.166-.78-1.649h-2.48l-.751 1.632-.029.017-1.79-.166-1.248 2.161 1.07 1.437.001.074-1.07 1.434 1.247 2.16 1.788-.165.782 1.648h2.48l.749-1.629.033-.019 1.788.165 1.247-2.16-1.071-1.435 1.073-1.508zm-.546 5.211-.272.472-1.31-.121-.857.499-.546 1.188h-.559l-.546-1.188-.857-.499-1.31.121-.272-.472.779-1.044-.005-1.07-.775-1.04.273-.475 1.308.122.855-.494.55-1.193h.559l.55 1.193.855.494 1.308-.122.272.473-.778 1.039v1.075zM12 10.947c-1.149 0-2.084.935-2.084 2.084s.935 2.084 2.084 2.084 2.084-.935 2.084-2.084-.935-2.084-2.084-2.084m0 2.668a.585.585 0 1 1 .001-1.17.585.585 0 0 1-.001 1.17"/></svg>