<svg xmlns="http://www.w3.org/2000/svg" viewBox="0 0 24 24"><path fill="#002466" d="M6.834 7.874h1.13v3.688q0 .14.141.14h.941q.141 0 .141-.14V7.874h1.13q.142 0 .141-.14v-.738q0-.14-.14-.14H6.833q-.14 0-.14.14v.738q0 .14.14.14m3.541.92.288.443q.085.133.21.035.274-.218.66-.218.324 0 .465.137c.14.137.14.236.14.432v.183l-.19-.05a1.8 1.8 0 0 0-.407-.049q-.604 0-.945.27-.34.272-.34.791-.001.485.274.752.273.267.737.267.667 0 .913-.464h.029a.52.52 0 0 0 .207.316q.158.113.473.113.301 0 .633-.085.112-.035.112-.147v-.555q0-.14-.14-.14h-.253V9.657q0-.716-.37-1.12-.368-.404-1.091-.404-.492 0-.816.13-.322.13-.568.34-.098.085-.021.19m1.763 2.051a.7.7 0 0 1-.144.12.5.5 0 0 1-.278.063q-.196 0-.295-.098a.34.34 0 0 1-.098-.253q0-.352.408-.352.267 0 .407.127zm3.115.236q.13-.248.298-.431h.015a3 3 0 0 1 .284.435q.138.254.235.506.042.112.17.112h.926q.078 0 .11-.046.031-.045-.004-.115a7 7 0 0 0-.482-.822 5.5 5.5 0 0 0-.594-.738q.296-.343.567-.744t.452-.857q.035-.07.004-.116-.033-.045-.108-.045h-.836q-.12 0-.163.119a3 3 0 0 1-.21.485q-.126.24-.289.42h-.013q-.162-.18-.295-.42a2.4 2.4 0 0 1-.218-.485q-.042-.12-.161-.12h-.893q-.077 0-.105.046-.029.046 0 .116.184.407.442.78.261.372.576.73-.308.33-.585.755-.278.425-.497.896-.034.07-.003.115.032.046.109.046h.886a.16.16 0 0 0 .16-.112 4 4 0 0 1 .222-.51m-7.172.978a1 1 0 0 0-.14-.02 3 3 0 0 0-.204-.007q-.316 0-.583.087c-.267.087-.33.146-.456.264q-.19.175-.299.439c-.109.264-.108.382-.108.621v.134h-.261q-.14 0-.14.14v.604q0 .14.14.14h.26v2.46q0 .14.14.14h.88q.138 0 .139-.14v-2.46h.611q.14 0 .14-.14v-.604q0-.14-.14-.14h-.611v-.134q0-.26.123-.369c.123-.109.203-.108.362-.108a1 1 0 0 1 .126.006q.14.023.14-.126v-.64q0-.125-.118-.147m2.535 1.433q-.204 0-.348.039c-.144.039-.18.062-.253.109s-.135.105-.186.176-.098.147-.141.231h-.027l-.075-.207a.4.4 0 0 0-.084-.147.3.3 0 0 0-.136-.088.8.8 0 0 0-.233-.028H8.88q-.14 0-.14.14v3.203q0 .14.14.14h.878q.14 0 .14-.14V14.84a.8.8 0 0 1 .26-.242q.163-.096.458-.095.07 0 .105.007.099 0 .098-.091v-.836q0-.092-.091-.092zm3.287.415q-.21-.21-.495-.312a1.44 1.44 0 0 0-.615-.103q-.316 0-.615.113a1.6 1.6 0 0 0-.533.333 1.65 1.65 0 0 0-.38.559 2 2 0 0 0-.143.78q0 .484.133.836.134.35.375.583.243.232.577.34.333.11.734.11a2.3 2.3 0 0 0 .825-.148 1.7 1.7 0 0 0 .467-.275q.099-.062.043-.182l-.226-.45q-.07-.14-.21-.063-.12.078-.305.14a1.2 1.2 0 0 1-.453.064q-.689 0-.816-.59h1.925q.126 0 .14-.127.022-.154.022-.323 0-.435-.12-.755a1.45 1.45 0 0 0-.33-.53m-1.664 1.082q.026-.288.19-.446a.53.53 0 0 1 .385-.158q.246 0 .38.179t.134.425zm5.421-1.082q-.21-.21-.494-.312a1.4 1.4 0 0 0-.615-.103q-.316 0-.615.113a1.6 1.6 0 0 0-.533.333 1.65 1.65 0 0 0-.38.559 2 2 0 0 0-.144.78q0 .484.134.836.134.35.375.583.243.232.576.34.335.11.735.11a2.3 2.3 0 0 0 .825-.148 1.7 1.7 0 0 0 .467-.275q.099-.062.043-.182l-.226-.45q-.07-.14-.21-.063-.12.078-.306.14a1.2 1.2 0 0 1-.453.064q-.688 0-.815-.59h1.925q.126 0 .14-.127.022-.154.022-.323 0-.435-.12-.755a1.45 1.45 0 0 0-.33-.53m-1.663 1.082q.026-.288.189-.446a.53.53 0 0 1 .386-.158q.245 0 .38.179.133.179.133.425z"/><path fill="#002466" d="M12 1C5.935 1 1 5.935 1 12s4.935 11 11 11 11-4.935 11-11S18.065 1 12 1m0 20.5c-5.238 0-9.5-4.262-9.5-9.5S6.762 2.5 12 2.5s9.5 4.262 9.5 9.5-4.262 9.5-9.5 9.5"/></svg>