<svg xmlns="http://www.w3.org/2000/svg" viewBox="0 0 24 24"><path fill="#002466" d="m20.102 12.472 1.823-1.403a2.12 2.12 0 0 0 .821-1.667c0-.804-.469-1.549-1.194-1.896l-7.154-3.435 1.328 3.985-2.686 1.465L1.759 6.566V9.76l4.93 2.623-.257.365a3.75 3.75 0 0 0-1.645-.392C2.699 12.355 1 14.054 1 16.142s1.699 3.787 3.787 3.787 3.787-1.699 3.787-3.787c0-.954-.367-1.817-.951-2.483l.397-.562.344.442a5.9 5.9 0 0 1 1.24 3.615v.75h5.297v-1.702l.56-.407c-.011.116-.035.228-.035.347 0 2.088 1.699 3.787 3.787 3.787S23 18.231 23 16.142a3.784 3.784 0 0 0-2.898-3.67m.802-3.614c.208.1.343.313.343.544a.61.61 0 0 1-.235.479l-1.037.798-2.334-1.604.007-.002-.706-2.116 3.963 1.902zM3.259 8.509l9.978 2.613 2.642-1.44 2.796 1.922-4.331 3.15L3.259 8.858zm3.815 7.633a2.29 2.29 0 0 1-2.287 2.287A2.29 2.29 0 0 1 2.5 16.142a2.29 2.29 0 0 1 2.287-2.287 2.3 2.3 0 0 1 .763.141l-1.412 2.001 1.225.865 1.36-1.926c.22.351.352.762.352 1.206zm3.991.262a7.5 7.5 0 0 0-.477-1.948l2.813 1.496v.452zm8.147 2.025a2.29 2.29 0 0 1-2.287-2.287 2.29 2.29 0 0 1 2.287-2.287 2.29 2.29 0 0 1 2.287 2.287 2.29 2.29 0 0 1-2.287 2.287"/></svg>