<svg xmlns="http://www.w3.org/2000/svg" viewBox="0 0 24 24"><path fill="#002466" d="M12 1a7.51 7.51 0 0 0-7.5 7.5v7A7.51 7.51 0 0 0 12 23a7.51 7.51 0 0 0 7.5-7.5v-7A7.51 7.51 0 0 0 12 1m6 7.5V11h-5.25V9.612a2.25 2.25 0 0 0 1.5-2.112V6.25c0-.976-.629-1.801-1.5-2.112V2.552C15.705 2.923 18 5.446 18 8.5m-6-3a.75.75 0 0 1 .75.75V7.5a.75.75 0 1 1-1.5 0V6.25A.75.75 0 0 1 12 5.5m-.75-2.948v1.586a2.25 2.25 0 0 0-1.5 2.112V7.5c0 .976.629 1.801 1.5 2.112V11H6V8.5c0-3.054 2.295-5.577 5.25-5.948M12 21.5a6.01 6.01 0 0 1-6-6v-3h12v3a6.01 6.01 0 0 1-6 6"/></svg>