<svg xmlns="http://www.w3.org/2000/svg" fill="#002466" viewBox="0 0 24 24"><path d="M22.251 12.471h-1V9.499h-7.418a4.5 4.5 0 0 0 .328-1.659c0-2.482-2.019-4.5-4.5-4.5s-4.5 2.019-4.5 4.5c0 .573.119 1.134.327 1.659H1.775L1.749 23H21.25v-3h1v-7.529zM6.66 7.84c0-1.654 1.346-3 3-3s3 1.346 3 3c0 .594-.186 1.169-.513 1.659h-1.954V5.957q0-.116-.116-.116h-.562a.4.4 0 0 0-.133.029l-1.015.412q-.104.034-.069.145l.185.557q.034.105.145.07l.55-.209v2.656H7.173a3 3 0 0 1-.513-1.659zM19.751 21.5H3.252l.02-10.5h16.479v1.472h-2.987A3.77 3.77 0 0 0 13 16.235 3.77 3.77 0 0 0 16.764 20h2.987zm1-3h-3.987a2.27 2.27 0 0 1-2.264-2.265 2.27 2.27 0 0 1 2.264-2.264h3.987zm-4.713-2.25a.963.963 0 1 0 1.926 0 .963.963 0 0 0-1.926 0M14.72 2.938a1.5 1.5 0 0 1 .439 1.061 1.5 1.5 0 0 1-.439 1.061l1.061 1.061A2.98 2.98 0 0 0 16.66 4a2.98 2.98 0 0 0-.879-2.122 3.003 3.003 0 0 0-4.243 0l1.061 1.061a1.5 1.5 0 0 1 2.122 0z"/></svg>