<svg xmlns="http://www.w3.org/2000/svg" viewBox="0 0 24 24"><path fill="#002466" d="M23 10.25a6.01 6.01 0 0 0-6-6H7a6.01 6.01 0 0 0-6 6V11h1.52A3.2 3.2 0 0 0 2 12.75V14H1v2.5a3.254 3.254 0 0 0 3.25 3.25h15.5A3.254 3.254 0 0 0 23 16.5V14h-1v-1.25a3.2 3.2 0 0 0-.52-1.75H23zM7 5.75v2h1.5v-2h2.75v2h1.5v-2H16v2h1.5V5.795A4.5 4.5 0 0 1 21.437 9.5H2.562A4.51 4.51 0 0 1 7 5.75m5 9.293L7.957 11h8.086zM3.5 12.75c0-.965.785-1.75 1.75-1.75h.646l-.03.03L8.836 14H3.5zm18 3.75c0 .965-.785 1.75-1.75 1.75H4.25c-.965 0-1.75-.785-1.75-1.75v-1h7.836L12 17.164l1.664-1.664H21.5zm-1-3.75V14h-5.336l2.97-2.97-.03-.03h.646c.965 0 1.75.785 1.75 1.75"/></svg>