<svg xmlns="http://www.w3.org/2000/svg" fill="#002466" viewBox="0 0 24 24"><path d="M21.496 8.678 11.443 1.322l-.887 1.211 8.398 6.145H1v14h22v-14zm.004 12.5h-19v-11h19zm-13.25-1.25c2.344 0 4.25-1.907 4.25-4.25s-1.906-4.25-4.25-4.25S4 13.334 4 15.678s1.906 4.25 4.25 4.25m0-7c1.517 0 2.75 1.233 2.75 2.75s-1.233 2.75-2.75 2.75-2.75-1.233-2.75-2.75 1.233-2.75 2.75-2.75"/><circle cx="18.5" cy="18.928" r=".75"/><circle cx="15.75" cy="18.928" r=".75"/><path d="M20 12.428h-5.5v4.5H20zm-1.5 3H16v-1.5h2.5z"/></svg>