<svg xmlns="http://www.w3.org/2000/svg" fill="#002466" viewBox="0 0 24 24"><path d="m14.788 13.782-.327.109c0-.088-.019-.171-.026-.257h.886a2.213 2.213 0 0 0 2.207-2.213V9.5H15.61c-1.1 0-2.007.815-2.171 1.873a3.64 3.64 0 0 0-2.643-1.141v1.5c1.191 0 2.159.967 2.169 2.159l-.349-.116c-.908-.269-2.85-.234-3.701 1.822-.229.556-.314 1.187-.251 1.875l.013.146c.098 1.142.281 3.267 1.754 4.679.468.45 1.089.704 1.716.704l.094-.002a5.4 5.4 0 0 0 1.02-.151 1.96 1.96 0 0 1 .908 0c.365.087.708.138 1.02.151a2.5 2.5 0 0 0 1.81-.701c1.473-1.413 1.656-3.538 1.754-4.679l.013-.145c.062-.689-.022-1.321-.252-1.877-.849-2.054-2.793-2.09-3.725-1.813zm.113-2.07A.71.71 0 0 1 15.61 11h.422v.421a.71.71 0 0 1-.711.713h-.42zm2.362 5.777c-.088 1.011-.233 2.703-1.298 3.725a1.05 1.05 0 0 1-.716.286 4 4 0 0 1-.731-.111 3.46 3.46 0 0 0-1.605 0 4 4 0 0 1-.731.111.97.97 0 0 1-.716-.286c-1.065-1.021-1.211-2.713-1.298-3.724l-.013-.151c-.041-.445.008-.838.143-1.166.354-.856.998-1.02 1.436-1.02.209 0 .372.037.434.054l.39.13a3.67 3.67 0 0 0 2.314 0l.358-.121c.224-.062 1.378-.309 1.901.955q.205.497.144 1.169l-.013.15zM9.477 13v-2.75a3 3 0 0 0-2.244-2.905V1H3.244v6.345A3 3 0 0 0 1 10.25V23h6.981v-1.5H2.496v-2.25h5.485v-1.5H2.496v-7.5a1.5 1.5 0 0 1 1.496-1.5h.748V5.5h.997v3.25h.748a1.5 1.5 0 0 1 1.496 1.5V13zM4.74 4V2.5h.997V4zm14.959-1.75a3.31 3.31 0 0 0-3.301 3.311V8h1.496V5.561A1.81 1.81 0 0 1 19.7 3.75a1.81 1.81 0 0 1 1.806 1.811v2.024h-1.592v1.5h1.592V11h-1.592v1.5h1.592v1.915h-1.592v1.5h1.592v2.024A1.81 1.81 0 0 1 19.7 19.75v1.5a3.31 3.31 0 0 0 3.3-3.311V5.561a3.31 3.31 0 0 0-3.301-3.311"/></svg>