<svg xmlns="http://www.w3.org/2000/svg" fill="#002466" viewBox="0 0 24 24"><path d="M17.938 14.823c1.6 0 2.9-1.301 2.9-2.9s-1.301-2.9-2.9-2.9-2.899 1.301-2.899 2.9 1.301 2.9 2.899 2.9m0-4.3a1.4 1.4 0 0 1 0 2.8 1.4 1.4 0 0 1 0-2.8m1.976 5.5h-3.95a3.093 3.093 0 0 0-3.089 3.089v1.068h1.5v-1.068a1.59 1.59 0 0 1 1.589-1.589h3.95a1.59 1.59 0 0 1 1.589 1.589v1.068h1.5v-1.068a3.093 3.093 0 0 0-3.089-3.089M.998 18.197v1.982h1.5v-1.982a2.97 2.97 0 0 1 2.964-2.964H11.9v-1.5H5.461a4.47 4.47 0 0 0-4.464 4.464zM8.501 3.821a4.003 4.003 0 0 0-3.998 3.998v5.002h1.5v-1.907a3.96 3.96 0 0 0 2.498.902 3.96 3.96 0 0 0 2.497-.901v1.906h1.5V7.818A4 4 0 0 0 8.501 3.82zm0 6.495a2.5 2.5 0 0 1-2.498-2.498 2.5 2.5 0 0 1 .07-.563c1.211.043 1.589.287 2.011.568.64.427 1.274.759 2.764.817a2.49 2.49 0 0 1-2.347 1.676m.415-3.741c-.503-.335-1.004-.611-1.912-.743a2.48 2.48 0 0 1 1.497-.511c1.141 0 2.095.774 2.392 1.821-1.185-.046-1.56-.288-1.977-.567"/></svg>