<svg xmlns="http://www.w3.org/2000/svg" viewBox="0 0 24 24"><path fill="#002466" d="M20.74 15.266 18.579 3.314h-4.264v1.5h3.011l1.918 10.606a2.74 2.74 0 0 0-1.593 1.781H8.752v-.23c0-2.44-2.167-4.426-4.831-4.426H3.51v1.5h.411c1.836 0 3.331 1.313 3.331 2.926v.23H6.35a2.73 2.73 0 0 0-2.617-1.984A2.74 2.74 0 0 0 1 17.952a2.74 2.74 0 0 0 2.734 2.734 2.73 2.73 0 0 0 2.617-1.984h11.3a2.73 2.73 0 0 0 2.616 1.984 2.74 2.74 0 0 0 2.734-2.734c0-1.345-.979-2.46-2.261-2.686m-17.006 3.92c-.68 0-1.234-.554-1.234-1.234s.554-1.234 1.234-1.234 1.234.554 1.234 1.234-.554 1.234-1.234 1.234m16.533 0c-.68 0-1.234-.554-1.234-1.234s.554-1.234 1.234-1.234 1.234.554 1.234 1.234-.554 1.234-1.234 1.234"/></svg>