<svg xmlns="http://www.w3.org/2000/svg" viewBox="0 0 24 24"><path fill="#002466" d="m19.354 1.839-4.179-.784-.296-.054-.252.162c-.012.008-1.2.763-2.627.763s-2.615-.755-2.625-.762L9.122 1l-.297.056-4.178.784a3.02 3.02 0 0 0-2.505 2.978v15.324h3.795V23h12.125v-2.859h3.795V4.817a3.02 3.02 0 0 0-2.504-2.978zM12 3.425c.682 0 1.309-.127 1.839-.29a2.28 2.28 0 0 1-3.679 0c.531.163 1.158.29 1.839.29zm8.357 15.217h-2.295V8.234h-1.5v13.268H7.437V8.248h-1.5v10.394H3.643V4.817a1.52 1.52 0 0 1 1.264-1.502l3.422-.642c.4 1.659 1.889 2.899 3.672 2.899s3.271-1.24 3.672-2.899l3.423.642a1.52 1.52 0 0 1 1.263 1.502v13.826z"/></svg>