<svg xmlns="http://www.w3.org/2000/svg" viewBox="0 0 24 24"><path fill="#002466" d="m19.823 4.871-.001-.002c-.909 0-1.726.402-2.282 1.038a3.03 3.03 0 0 0-1.274-.848c.175-.469.437-.9.773-1.271A3.96 3.96 0 0 1 19.958 2.5V1a5.46 5.46 0 0 0-4.026 1.777 5.44 5.44 0 0 0-1.196 2.15 3.02 3.02 0 0 0-1.761.981 3.02 3.02 0 0 0-2.282-1.038A3.036 3.036 0 0 0 7.66 7.903h1.5c0-.845.688-1.533 1.533-1.533s1.532.688 1.532 1.533h1.5c0-.845.688-1.533 1.533-1.533s1.532.688 1.532 1.533h1.5a1.533 1.533 0 0 1 3.065-.012c-.021.443-.777 6.176-1.279 9.906-.135.871-.463 1.433-1.002 1.717-1.086.577-2.89-.045-3.492-.333l-.325-.153-.323.153c-.491.235-2.005.778-3.104.483v1.524c.237.038.476.063.714.063 1.122 0 2.193-.366 2.714-.575.801.322 2.906 1.013 4.513.169.977-.514 1.578-1.461 1.79-2.832l1.295-10.109a3.036 3.036 0 0 0-3.033-3.033"/><path fill="#002466" d="M13.348 14.738a3.04 3.04 0 0 0-1.542-2.647A3.04 3.04 0 0 0 8.78 9.247a3.03 3.03 0 0 0-1.519.408 3 3 0 0 0-1.518-.408 3.04 3.04 0 0 0-3.025 2.824 3.037 3.037 0 0 0 1.416 5.695c.405 1.479.714 2.995.889 4.572l.079.662h3.653l.678-.058.074-.667c.169-1.522.478-3.034.883-4.512a3.033 3.033 0 0 0 2.958-3.025M8.092 21.5H6.433a31 31 0 0 0-.84-4.093c.043-.023.091-.032.133-.056a3.08 3.08 0 0 0 3.06.01c.044.026.096.036.142.059a31 31 0 0 0-.836 4.08m2.223-5.231v.001c-.385 0-.748-.139-1.024-.39l-.505-.459-.505.459c-.553.502-1.482.506-2.049-.012l-.506-.462-.506.462a1.54 1.54 0 0 1-2.575-1.132c0-.659.438-1.264 1.067-1.469l.591-.193-.08-.616a1.535 1.535 0 0 1 1.52-1.712c.376 0 .737.138 1.018.389l.5.448.5-.448c.28-.251.642-.389 1.019-.389a1.535 1.535 0 0 1 1.52 1.73l-.074.607.578.195a1.535 1.535 0 0 1-.489 2.991"/></svg>