<svg xmlns="http://www.w3.org/2000/svg" fill="#002466" viewBox="0 0 24 24"><path d="M6 1v22h12V1zm10.5 20.5h-9v-19h9zM12 8.377a2.19 2.19 0 0 0 2.189-2.189A2.19 2.19 0 0 0 12 4a2.19 2.19 0 0 0-2.189 2.189A2.19 2.19 0 0 0 12 8.377M12 5.5a.69.69 0 0 1 .689.689.69.69 0 0 1-.689.689.69.69 0 0 1-.689-.689A.69.69 0 0 1 12 5.5m-.879 8.582a2.25 2.25 0 0 0 .879.178A2.26 2.26 0 0 0 14.259 12 2.26 2.26 0 0 0 12 9.741a2.25 2.25 0 0 0-.879.178 2.27 2.27 0 0 0-.994.818 2.25 2.25 0 0 0 0 2.526 2.26 2.26 0 0 0 .994.818zM12 15.623a2.19 2.19 0 0 0-2.189 2.189A2.19 2.19 0 0 0 12 20a2.19 2.19 0 0 0 2.189-2.189A2.19 2.19 0 0 0 12 15.623m0 2.877a.69.69 0 0 1-.689-.689.69.69 0 0 1 .689-.689.69.69 0 0 1 .689.689.69.69 0 0 1-.689.689"/></svg>