<svg xmlns="http://www.w3.org/2000/svg" fill="#002466" viewBox="0 0 24 24"><path d="M23 11.25a3 3 0 0 0-1.517-2.593C21.301 4.406 17.796 1 13.5 1h-3C6.204 1 2.698 4.406 2.517 8.658A2.99 2.99 0 0 0 1 11.25c0 .938.442 1.766 1.118 2.317A3.23 3.23 0 0 0 1 16v.25c0 1.247.714 2.32 1.748 2.865v.635A3.254 3.254 0 0 0 5.998 23h12.004a3.254 3.254 0 0 0 3.25-3.25v-.635A3.24 3.24 0 0 0 23 16.25V16a3.23 3.23 0 0 0-1.118-2.433A2.98 2.98 0 0 0 23 11.25M10.5 2.5h3a6.51 6.51 0 0 1 6.457 5.75H4.043A6.51 6.51 0 0 1 10.5 2.5m9.252 17.25c0 .965-.785 1.75-1.75 1.75H5.998c-.965 0-1.75-.785-1.75-1.75v-.25l.002-.018c.849-.153 1.384-.548 1.829-.882.501-.377.862-.649 1.675-.649s1.174.272 1.675.649c.563.423 1.264.95 2.577.95s2.014-.527 2.576-.95c.5-.377.862-.649 1.674-.649s1.172.272 1.672.648c.443.334.976.728 1.822.882v.019zm1.748-3.5c0 .909-.699 1.65-1.587 1.733-.432-.101-.725-.313-1.083-.582-.562-.424-1.262-.951-2.574-.951s-2.014.527-2.576.95c-.5.377-.862.649-1.674.649s-1.174-.272-1.675-.649c-.563-.423-1.264-.95-2.577-.95s-2.014.527-2.577.95c-.359.271-.652.483-1.086.583a1.746 1.746 0 0 1-1.59-1.734V16c0-.965.785-1.75 1.75-1.75h15.5c.965 0 1.75.785 1.75 1.75v.25zm-1.5-3.5H4.001c-.827 0-1.501-.673-1.501-1.5s.671-1.497 1.496-1.5h16.009a1.5 1.5 0 1 1-.005 3"/><circle cx="16.5" cy="6.5" r=".75"/><circle cx="7.5" cy="6.5" r=".75"/><circle cx="12" cy="6.5" r=".75"/><circle cx="14" cy="4.25" r=".75"/><circle cx="10" cy="4.25" r=".75"/></svg>