<svg xmlns="http://www.w3.org/2000/svg" fill="#002466" viewBox="0 0 24 24"><path d="m13.22 21.72 8.5-8.5 1.061 1.061-8.5 8.5zm2.076-4.129a2.3 2.3 0 0 0 2.295-2.295A2.3 2.3 0 0 0 15.296 13 2.3 2.3 0 0 0 13 15.295a2.3 2.3 0 0 0 2.296 2.295zm0-3.091a.796.796 0 1 1-.001 1.589.796.796 0 0 1 .001-1.589m5.408 3.909a2.3 2.3 0 0 0-2.295 2.295A2.3 2.3 0 0 0 20.704 23 2.3 2.3 0 0 0 23 20.705a2.3 2.3 0 0 0-2.296-2.295zm0 3.091a.796.796 0 1 1 .001-1.589.796.796 0 0 1-.001 1.589M1 14.75h8.25V6.5H1zM2.5 8h5.25v5.25H2.5z"/><circle cx="5.125" cy="10.625" r=".75"/><path d="M19 1h-8.25v8.25H19zm-1.5 6.75h-5.25V2.5h5.25z"/><circle cx="13.875" cy="6.125" r=".75"/><circle cx="15.875" cy="4.125" r=".75"/></svg>