<svg xmlns="http://www.w3.org/2000/svg" viewBox="0 0 24 24"><path fill="#002466" d="M23 11.487 21.561 6.5h-3.875V4H1v13.5h2.776c.134 1.392 1.297 2.488 2.724 2.488s2.589-1.096 2.724-2.488h7.302c.129 1.398 1.294 2.5 2.725 2.5s2.596-1.102 2.725-2.5H23zM20.439 8l.812 2.75h-3.565V8h2.754zM6.5 18.488c-.596 0-1.073-.428-1.197-.988h2.394c-.124.56-.6.988-1.197.988M2.5 16V8.5h7.75V7H2.5V5.5h13.686v7.25H7.25v1.5h8.936V16zm16.75 2.5a1.25 1.25 0 1 1 0-2.5 1.25 1.25 0 1 1 0 2.5m0-4a2.73 2.73 0 0 0-1.564.493V12.25H21.5v3.427a2.75 2.75 0 0 0-2.25-1.177"/></svg>